<svg width="33" height="32" viewBox="0 0 33 32" fill="none" xmlns="http://www.w3.org/2000/svg">
<path d="M24.1191 4C25.3587 4 26.4186 4.4401 27.2988 5.32031C28.179 6.20053 28.6191 7.26041 28.6191 8.5V23.5C28.6191 24.7396 28.179 25.7995 27.2988 26.6797C26.4186 27.5599 25.3587 28 24.1191 28H21.1816V18.7031H24.291L24.7598 15.0781H21.1816V12.7656C21.1816 12.1823 21.304 11.7448 21.5488 11.4531C21.7936 11.1615 22.2702 11.0156 22.9785 11.0156L24.8848 11V7.76562C24.2285 7.67187 23.3014 7.625 22.1035 7.625C20.6868 7.625 19.554 8.04166 18.7051 8.875C17.8561 9.70834 17.4316 10.8854 17.4316 12.4062V15.0781H14.3066V18.7031H17.4316V28H9.11914C7.87955 28 6.81967 27.5599 5.93945 26.6797C5.05924 25.7995 4.61914 24.7396 4.61914 23.5V8.5C4.61914 7.26041 5.05924 6.20053 5.93945 5.32031C6.81967 4.4401 7.87955 4 9.11914 4H24.1191Z" fill="white"/>
</svg>
