<svg width="135" height="24" viewBox="0 0 135 24" fill="none" xmlns="http://www.w3.org/2000/svg">
<path d="M0 1.09091H4.96421L11.6123 17.4435H11.8747L18.5228 1.09091H23.487V23.6584H19.5944V8.15427H19.3867L13.1978 23.5923H10.2893L4.10039 8.12121H3.89264V23.6584H0V1.09091Z" fill="url(#paint0_linear_30_2172)"/>
<path d="M38.4343 16.5399V6.73278H42.3926V23.6584H38.5546V20.6501H38.3797C38.0006 21.5978 37.3773 22.3728 36.5099 22.9752C35.6497 23.5776 34.5891 23.8788 33.328 23.8788C32.2273 23.8788 31.2541 23.6327 30.4085 23.1405C29.5702 22.641 28.9141 21.9174 28.4403 20.9697C27.9665 20.0147 27.7296 18.8613 27.7296 17.5096V6.73278H31.6878V16.8926C31.6878 17.9651 31.9794 18.8173 32.5626 19.449C33.1457 20.0808 33.9112 20.3967 34.8588 20.3967C35.442 20.3967 36.0069 20.2534 36.5536 19.9669C37.1003 19.6804 37.5487 19.2544 37.8986 18.6887C38.2557 18.1157 38.4343 17.3994 38.4343 16.5399Z" fill="url(#paint1_linear_30_2172)"/>
<path d="M51.2959 24C50.2316 24 49.273 23.809 48.4202 23.427C47.5746 23.0376 46.9039 22.4646 46.4082 21.708C45.9198 20.9513 45.6756 20.0184 45.6756 18.9091C45.6756 17.9541 45.8506 17.1644 46.2005 16.5399C46.5504 15.9155 47.0279 15.416 47.6329 15.0413C48.2379 14.6667 48.9195 14.3838 49.6776 14.1928C50.443 13.9945 51.2339 13.8512 52.0504 13.7631C53.0345 13.6602 53.8327 13.5684 54.445 13.4876C55.0573 13.3994 55.502 13.2672 55.779 13.0909C56.0633 12.9073 56.2054 12.6244 56.2054 12.2424V12.1763C56.2054 11.3462 55.9612 10.7034 55.4728 10.2479C54.9844 9.79247 54.281 9.56474 53.3625 9.56474C52.393 9.56474 51.6239 9.77778 51.0553 10.2039C50.494 10.6299 50.115 11.1332 49.9182 11.7135L46.2224 11.1846C46.5139 10.1561 46.995 9.2966 47.6657 8.60606C48.3363 7.90817 49.1564 7.38659 50.1259 7.04132C51.0954 6.6887 52.167 6.5124 53.3406 6.5124C54.1498 6.5124 54.9553 6.6079 55.7571 6.7989C56.559 6.9899 57.2916 7.30578 57.9549 7.74656C58.6183 8.17998 59.1504 8.77135 59.5514 9.52066C59.9596 10.27 60.1637 11.2066 60.1637 12.3306V23.6584H56.3585V21.3333H56.2273C55.9868 21.8035 55.6478 22.2443 55.2104 22.6556C54.7803 23.0597 54.2373 23.3866 53.5812 23.6364C52.9324 23.8788 52.1707 24 51.2959 24ZM52.3237 21.0689C53.1183 21.0689 53.8072 20.9109 54.3903 20.595C54.9735 20.2718 55.4218 19.8457 55.7353 19.3168C56.056 18.7879 56.2164 18.2112 56.2164 17.5868V15.5923C56.0925 15.6951 55.8811 15.7906 55.5822 15.8788C55.2906 15.9669 54.9626 16.0441 54.5981 16.1102C54.2336 16.1763 53.8728 16.2351 53.5156 16.2865C53.1584 16.3379 52.8486 16.382 52.5862 16.4187C51.9957 16.4995 51.4672 16.6318 51.0007 16.8154C50.5341 16.9991 50.166 17.2562 49.8963 17.5868C49.6266 17.91 49.4917 18.3287 49.4917 18.843C49.4917 19.5776 49.7578 20.1322 50.2899 20.5069C50.8221 20.8815 51.5 21.0689 52.3237 21.0689Z" fill="url(#paint2_linear_30_2172)"/>
<path d="M68.102 1.09091V23.6584H64.1438V1.09091H68.102Z" fill="url(#paint3_linear_30_2172)"/>
<path d="M76.1306 1.09091V23.6584H72.1724V1.09091H76.1306Z" fill="url(#paint4_linear_30_2172)"/>
<path d="M80.2009 23.6584V6.73278H84.1592V23.6584H80.2009ZM82.191 4.33058C81.5641 4.33058 81.0247 4.12121 80.5727 3.70248C80.1208 3.2764 79.8948 2.76584 79.8948 2.1708C79.8948 1.56841 80.1208 1.05785 80.5727 0.639117C81.0247 0.213039 81.5641 0 82.191 0C82.8252 0 83.3646 0.213039 83.8093 0.639117C84.2612 1.05785 84.4872 1.56841 84.4872 2.1708C84.4872 2.76584 84.2612 3.2764 83.8093 3.70248C83.3646 4.12121 82.8252 4.33058 82.191 4.33058Z" fill="url(#paint5_linear_30_2172)"/>
<path d="M88.2295 23.6584V6.73278H92.0128V9.60882H92.2096C92.5595 8.63912 93.139 7.88246 93.9482 7.33884C94.7573 6.78788 95.7232 6.5124 96.8458 6.5124C97.983 6.5124 98.9416 6.79155 99.7215 7.34986C100.509 7.90083 101.063 8.65381 101.384 9.60882H101.559C101.93 8.6685 102.557 7.91919 103.439 7.36088C104.329 6.79523 105.382 6.5124 106.599 6.5124C108.145 6.5124 109.406 7.00459 110.383 7.98898C111.359 8.97337 111.848 10.4095 111.848 12.2975V23.6584H107.879V12.9146C107.879 11.8641 107.602 11.0964 107.048 10.6116C106.494 10.1194 105.816 9.87328 105.014 9.87328C104.059 9.87328 103.312 10.1745 102.772 10.7769C102.24 11.3719 101.974 12.1469 101.974 13.1019V23.6584H98.0923V12.7493C98.0923 11.8751 97.8299 11.1772 97.305 10.6556C96.7875 10.1341 96.1095 9.87328 95.2712 9.87328C94.7027 9.87328 94.1851 10.0202 93.7186 10.314C93.252 10.6006 92.8803 11.0083 92.6033 11.5372C92.3262 12.0588 92.1877 12.6685 92.1877 13.3664V23.6584H88.2295Z" fill="url(#paint6_linear_30_2172)"/>
<path d="M119.428 1.09091L124.359 9.35537H124.534L129.488 1.09091H134.113L127.213 12.3747L134.222 23.6584H129.52L124.534 15.449H124.359L119.373 23.6584H114.693L121.768 12.3747L114.781 1.09091H119.428Z" fill="url(#paint7_linear_30_2172)"/>
<defs>
<linearGradient id="paint0_linear_30_2172" x1="0.172574" y1="11.5161" x2="134.047" y2="11.5161" gradientUnits="userSpaceOnUse">
<stop offset="0.143519" stop-color="#4C40F7"/>
<stop offset="0.837137" stop-color="#FF6800"/>
</linearGradient>
<linearGradient id="paint1_linear_30_2172" x1="0.172574" y1="11.5161" x2="134.047" y2="11.5161" gradientUnits="userSpaceOnUse">
<stop offset="0.143519" stop-color="#4C40F7"/>
<stop offset="0.837137" stop-color="#FF6800"/>
</linearGradient>
<linearGradient id="paint2_linear_30_2172" x1="0.172574" y1="11.5161" x2="134.047" y2="11.5161" gradientUnits="userSpaceOnUse">
<stop offset="0.143519" stop-color="#4C40F7"/>
<stop offset="0.837137" stop-color="#FF6800"/>
</linearGradient>
<linearGradient id="paint3_linear_30_2172" x1="0.172574" y1="11.5161" x2="134.047" y2="11.5161" gradientUnits="userSpaceOnUse">
<stop offset="0.143519" stop-color="#4C40F7"/>
<stop offset="0.837137" stop-color="#FF6800"/>
</linearGradient>
<linearGradient id="paint4_linear_30_2172" x1="0.172574" y1="11.5161" x2="134.047" y2="11.5161" gradientUnits="userSpaceOnUse">
<stop offset="0.143519" stop-color="#4C40F7"/>
<stop offset="0.837137" stop-color="#FF6800"/>
</linearGradient>
<linearGradient id="paint5_linear_30_2172" x1="0.172574" y1="11.5161" x2="134.047" y2="11.5161" gradientUnits="userSpaceOnUse">
<stop offset="0.143519" stop-color="#4C40F7"/>
<stop offset="0.837137" stop-color="#FF6800"/>
</linearGradient>
<linearGradient id="paint6_linear_30_2172" x1="0.172574" y1="11.5161" x2="134.047" y2="11.5161" gradientUnits="userSpaceOnUse">
<stop offset="0.143519" stop-color="#4C40F7"/>
<stop offset="0.837137" stop-color="#FF6800"/>
</linearGradient>
<linearGradient id="paint7_linear_30_2172" x1="0.172574" y1="11.5161" x2="134.047" y2="11.5161" gradientUnits="userSpaceOnUse">
<stop offset="0.143519" stop-color="#4C40F7"/>
<stop offset="0.837137" stop-color="#FF6800"/>
</linearGradient>
</defs>
</svg>
