<svg width="33" height="32" viewBox="0 0 33 32" fill="none" xmlns="http://www.w3.org/2000/svg">
<path d="M14.0814 19.6825L21.8835 15.7143L14.0814 11.6984V19.6825ZM17.0636 6C18.8691 6 20.6127 6.02381 22.2946 6.07143C23.9764 6.11905 25.2096 6.16931 25.9941 6.22222L27.1709 6.28571C27.1817 6.28571 27.273 6.29365 27.445 6.30952C27.6169 6.3254 27.7405 6.34127 27.8157 6.35714C27.8909 6.37302 28.0172 6.39683 28.1945 6.42857C28.3719 6.46032 28.525 6.50265 28.654 6.55556C28.7829 6.60847 28.9334 6.67725 29.1053 6.7619C29.2773 6.84656 29.4438 6.94973 29.6051 7.07143C29.7663 7.19312 29.9221 7.33333 30.0725 7.49206C30.137 7.55556 30.2203 7.65344 30.3224 7.78571C30.4245 7.91799 30.5803 8.22751 30.7899 8.71429C30.9994 9.20106 31.1418 9.73545 31.2171 10.3175C31.303 10.9947 31.3702 11.7169 31.4186 12.4841C31.4669 13.2513 31.4965 13.8518 31.5072 14.2857V14.9206V17.0794C31.518 18.6138 31.4213 20.1481 31.2171 21.6825C31.1418 22.2646 31.0075 22.791 30.8141 23.2619C30.6206 23.7328 30.4487 24.0582 30.2982 24.2381L30.0725 24.5079C29.9221 24.6667 29.7663 24.8069 29.6051 24.9286C29.4438 25.0503 29.2773 25.1508 29.1053 25.2302C28.9334 25.3095 28.7829 25.3757 28.654 25.4286C28.525 25.4815 28.3719 25.5238 28.1945 25.5556C28.0172 25.5873 27.8883 25.6111 27.8077 25.627C27.7271 25.6429 27.6035 25.6587 27.4369 25.6746C27.2703 25.6905 27.1817 25.6984 27.1709 25.6984C24.4735 25.8995 21.1044 26 17.0636 26C14.839 25.9788 12.9073 25.9444 11.2684 25.8968C9.62951 25.8492 8.55216 25.8095 8.03631 25.7778L7.24643 25.7143L6.6661 25.6508C6.27922 25.5979 5.98637 25.545 5.78755 25.4921C5.58874 25.4392 5.3147 25.328 4.96543 25.1587C4.61615 24.9894 4.31256 24.7725 4.05464 24.5079C3.99016 24.4444 3.90687 24.3466 3.80478 24.2143C3.70268 24.082 3.54686 23.7725 3.33729 23.2857C3.12773 22.7989 2.98534 22.2646 2.91011 21.6825C2.82413 21.0053 2.75697 20.2831 2.70861 19.5159C2.66025 18.7487 2.63069 18.1482 2.61995 17.7143V17.0794V14.9206C2.6092 13.3862 2.70592 11.8519 2.91011 10.3175C2.98534 9.73545 3.11967 9.209 3.31311 8.7381C3.50656 8.26719 3.6785 7.9418 3.82896 7.7619L4.05464 7.49206C4.20509 7.33333 4.36092 7.19312 4.52212 7.07143C4.68332 6.94973 4.8499 6.84656 5.02185 6.7619C5.1938 6.67725 5.34425 6.60847 5.47321 6.55556C5.60217 6.50265 5.75531 6.46032 5.93263 6.42857C6.10996 6.39683 6.23623 6.37302 6.31146 6.35714C6.38668 6.34127 6.51027 6.3254 6.68222 6.30952C6.85417 6.29365 6.94552 6.28571 6.95626 6.28571C9.65371 6.09524 13.0228 6 17.0636 6Z" fill="white"/>
</svg>
