<svg width="179" height="179" viewBox="0 0 179 179" fill="none" xmlns="http://www.w3.org/2000/svg">
<g clip-path="url(#clip0_89_4765)">
<path d="M140.487 93.8432C141.753 91.7361 144.409 89.4898 146.346 88.4609C149.708 86.6787 151.823 87.4385 154.482 89.8281C156.005 91.1962 158.225 93.6783 159.619 92.7047C161.395 91.4649 162.427 87.6034 163.487 85.5146C166.651 79.2521 171.082 75.9247 176.018 74.9512C178.487 74.4626 176.71 75.4947 176.343 75.7781L174.858 76.9227C174.51 77.1902 174.117 77.5395 174.085 77.9842C174.035 78.6804 174.846 78.7952 175.456 78.7085L177.818 78.3762C178.218 78.3188 180.114 77.9646 178.062 79.0627L175.225 80.7997C173.574 81.8123 171.902 82.8384 170.448 84.2467C167.453 87.149 165.72 91.3098 163.504 94.9962C162.696 96.3399 161.737 97.7018 160.46 98.3443C158.715 99.2226 156.891 98.4885 155.578 97.3549C154.265 96.2214 153.22 94.7006 151.76 93.7894C149.508 92.3823 146.421 92.64 143.775 94.1693C142.31 95.0243 140.968 96.2373 139.835 97.6579C139.608 97.9413 138.661 99.5243 138.436 99.4303C137.939 99.2214 138.755 97.4759 138.879 97.1644C139.322 96.015 139.859 94.9034 140.487 93.8432Z" fill="#FF6800"/>
<path d="M143.021 101.084C144.237 104.688 142.952 108.759 144.122 112.379C144.409 113.262 144.857 114.121 145.565 114.725C147.374 116.267 150.223 115.653 152.2 114.327C154.176 113 155.718 111.086 157.783 109.902C158.75 109.346 159.675 108.742 160.669 108.417C163.448 107.508 161.086 107.401 160.494 107.39C159.752 107.395 159.012 107.452 158.28 107.563C157.62 107.646 156.213 107.839 157.729 106.631C158.303 106.179 158.922 105.785 159.576 105.457C160.052 105.213 161.217 104.395 159.265 104.604C156.443 104.907 153.944 107.068 151.858 109.098C150.713 110.213 149.062 111.49 147.706 110.47C147.437 110.264 147.22 109.998 147.072 109.696C145.901 107.381 146.338 104.72 146.274 102.175C146.218 99.7917 145.453 97.0848 143.274 96.0932C142.547 95.7776 141.742 95.6875 140.962 95.8325C140.184 95.9774 139.467 96.3526 138.904 96.9082C138.483 97.3382 138.537 97.8828 139.2 97.9035C139.789 97.9205 140.206 97.8901 140.762 98.1873C141.868 98.7794 142.631 99.9282 143.021 101.084Z" fill="#FF6800"/>
<path d="M98.3006 95.6454C97.7401 95.4988 97.1503 95.3522 96.591 95.4964C95.6666 95.7346 95.1256 96.6645 94.6957 97.5198C92.897 101.137 91.4316 104.91 90.3192 108.793C89.294 112.368 88.5662 116.088 88.8629 119.796C89.0644 122.323 89.7379 124.789 90.059 127.303C91.3339 137.273 87.0666 147.063 86.1508 157.071C86.0531 158.146 86.0286 159.337 86.7076 160.174C87.4818 161.129 88.8629 161.262 90.0908 161.322L104.088 162.002C107.202 162.152 110.5 162.262 113.229 160.756C114.411 160.105 115.46 159.126 115.955 157.87C116.315 156.956 116.365 155.953 116.372 154.97C116.411 150.07 116.038 142.828 116.365 137.94C117.081 127.296 141.996 127.296 138.584 122.78C136.251 119.693 138.177 95.3925 135.754 94.4443C134.055 93.7784 106.718 108.551 108.591 97.2144C108.927 95.1763 101.777 96.5594 99.7806 96.0377L98.3006 95.6454Z" fill="#1B5EC9"/>
<path d="M61.8926 144.685C59.6935 139.212 57.4944 133.078 59.7888 127.601C61.6043 123.261 65.8241 120.418 69.3182 117.182C75.4171 111.532 79.6907 104.044 81.384 96.0451C81.9716 93.2705 80.8366 86.2878 78.1611 85.2041C75.3365 88.173 74.5228 95.3292 71.6334 98.2382C68.055 101.841 63.0288 103.822 57.9599 104.624C52.8909 105.427 47.7206 105.145 42.604 104.817C41.7953 104.766 40.9168 104.731 40.2461 105.184C39.8344 105.46 39.5583 105.884 39.2895 106.293C35.9566 111.36 32.1351 115.553 27.6562 119.703C34.5798 131.878 36.2682 146.741 39.2736 160.519C39.4092 161.142 39.5729 161.803 40.0519 162.229C40.4831 162.616 41.0903 162.746 41.6706 162.84C47.7793 163.85 54.0003 162.826 59.9843 161.496C61.9219 161.066 64.0734 160.599 65.1668 158.797C66.0856 157.282 65.8803 155.402 65.4356 153.788C64.5804 150.686 63.0887 147.677 61.8926 144.685Z" fill="#FF6800"/>
<path d="M78.6259 97.5117C81.9647 92.2503 83.3185 84.8985 79.4609 80.0054C78.9457 79.352 78.3268 78.7463 77.5516 78.4477C76.4981 78.044 75.3201 78.2605 74.2189 78.5065C64.5257 80.6845 55.3535 84.7491 47.223 90.47C46.6651 90.8628 46.0962 91.28 45.7483 91.8673C45.2746 92.6651 45.2759 93.6489 45.2917 94.5764L45.4016 101.203C45.4321 102.995 45.3198 104.857 45.581 106.634C46.0437 109.781 49.3141 110.348 52.023 110.6C58.6505 111.212 65.4246 109.269 70.885 105.498C73.9725 103.381 76.6048 100.666 78.6259 97.5117Z" fill="#F2DFE7"/>
<path d="M17.9302 87.8011C20.9329 90.6604 23.5657 93.8929 26.3962 96.9191C32.2769 103.218 39.0035 108.671 46.3836 113.123C46.9942 113.489 47.7268 113.855 48.3704 113.553C48.81 113.344 49.0542 112.878 49.2789 112.454C53.9937 103.451 62.8712 97.4513 71.7476 92.5037C80.6239 87.5558 90.0492 83.1367 97.1977 75.91L62.9396 39.0356C62.4915 38.5534 62.003 38.0468 61.3607 37.9016C60.7892 37.7734 60.1994 37.9541 59.6438 38.1372C39.6048 44.744 21.2111 55.559 5.69695 69.8565C4.36837 71.0772 3.03856 72.3797 2.13005 73.9605C1.11651 75.7245 2.02869 76.3129 3.51724 77.2345C6.77643 79.2512 10.0014 81.3484 13.0518 83.6726C14.7521 84.9588 16.3806 86.337 17.9302 87.8011Z" fill="#F2DFE7"/>
<path d="M46.3127 124.852H46.2725C46.1435 124.841 46.024 124.78 45.9402 124.681C45.8565 124.582 45.8153 124.453 45.8258 124.325C46.231 119.363 49.6467 115.968 52.4413 113.993C55.5996 111.762 59.1971 110.501 60.9837 110.443C61.1131 110.438 61.2388 110.487 61.3331 110.575C61.4274 110.665 61.4826 110.788 61.4865 110.918C61.4903 111.048 61.4426 111.174 61.3539 111.268C61.265 111.363 61.1424 111.418 61.013 111.423C59.6096 111.465 56.1988 112.538 53.01 114.79C50.3863 116.644 47.1792 119.817 46.8045 124.401C46.7949 124.524 46.7388 124.639 46.6475 124.724C46.5562 124.807 46.4365 124.854 46.3127 124.852Z" fill="#181E32"/>
<path d="M52.4233 74.4641C50.9273 74.4641 49.6584 73.3733 49.2383 71.656C49.1249 71.2096 49.1044 70.7444 49.1781 70.2897C49.2519 69.835 49.4184 69.4006 49.667 69.0141C49.9073 68.6111 50.2283 68.263 50.6092 67.9917C50.9901 67.7205 51.4229 67.532 51.8799 67.4383C52.3304 67.3643 52.7909 67.3823 53.2344 67.4909C53.6778 67.5996 54.0951 67.7969 54.4616 68.0711C54.8429 68.3388 55.167 68.6809 55.4147 69.0772C55.6624 69.4735 55.8288 69.9158 55.9039 70.3781C56.1701 72.2247 54.7864 74.1132 52.9448 74.4197C52.7725 74.4489 52.5981 74.4637 52.4233 74.4641ZM52.4233 68.3727C52.298 68.3723 52.1729 68.3839 52.0496 68.4071C51.7272 68.4768 51.4227 68.6131 51.1551 68.8075C50.8875 69.0018 50.6628 69.2498 50.495 69.536C50.3177 69.8074 50.1982 70.1131 50.1441 70.4335C50.0902 70.7538 50.1027 71.0822 50.1811 71.3974V71.4134C50.4669 72.5941 51.3828 73.6811 52.7812 73.4484C54.0952 73.2293 55.1211 71.8332 54.9318 70.5197C54.8756 70.1883 54.7541 69.8715 54.5746 69.5882C54.395 69.305 54.1611 69.0607 53.8864 68.87C53.4637 68.556 52.9546 68.3822 52.4295 68.3727H52.4233Z" fill="#181E32"/>
<path d="M52.4229 70.526C52.32 70.526 52.2196 70.4933 52.1362 70.4328C52.053 70.3722 51.9909 70.2869 51.9589 70.1889C50.0884 64.4741 50.4693 57.1408 55.5157 53.6372C59.192 51.0876 63.8183 51.5164 68.2957 51.9269C69.1101 52.0014 69.9501 52.0796 70.7584 52.1358C76.3297 52.5218 80.6764 51.4944 83.6801 49.0817C85.6595 47.4581 86.9295 45.1271 87.2209 42.5827C87.3711 41.1913 87.2526 39.1622 85.8412 37.4226C85.1916 36.6212 84.376 35.9909 83.5091 35.3227C82.9086 34.8754 82.332 34.3972 81.7814 33.8897C80.3358 32.5129 79.4945 28.7894 80.2039 26.902C80.2261 26.8416 80.2601 26.786 80.3038 26.7386C80.3475 26.6912 80.4002 26.653 80.4587 26.6261C80.5173 26.5992 80.5807 26.5842 80.6451 26.5819C80.7095 26.5795 80.7738 26.59 80.8341 26.6126C80.8944 26.6354 80.9497 26.6697 80.9967 26.7138C81.0437 26.7579 81.0816 26.8109 81.1079 26.8698C81.1344 26.9286 81.149 26.9921 81.1507 27.0565C81.1525 27.121 81.1415 27.1851 81.1184 27.2453C80.5397 28.7858 81.2772 32.0597 82.4615 33.1824C82.9863 33.6646 83.5357 34.1191 84.1074 34.5445C84.9792 35.2176 85.8803 35.9139 86.6006 36.8045C87.8668 38.3669 88.4321 40.4559 88.194 42.6841C87.8733 45.4908 86.4717 48.0619 84.2869 49.8514C81.0855 52.4168 76.5092 53.5162 70.6864 53.1155C69.8671 53.0593 69.0197 52.9799 68.2004 52.9042C63.8989 52.5059 59.4509 52.0943 56.0675 54.441C51.4278 57.6575 51.125 64.5157 52.8808 69.8847C52.9194 70.0072 52.9083 70.1399 52.8498 70.2542C52.7912 70.3686 52.6901 70.4552 52.5682 70.4955C52.5216 70.5128 52.4726 70.5231 52.4229 70.526Z" fill="#181E32"/>
<path d="M80.1696 28.9082C79.8339 28.9109 79.5011 28.846 79.1908 28.7174C78.9101 28.5945 78.658 28.4148 78.4498 28.1899C78.2418 27.9649 78.0825 27.6995 77.982 27.41C77.8961 27.1813 77.8569 26.9378 77.8667 26.6937C77.8766 26.4495 77.9353 26.2099 78.0395 25.9888C78.1838 25.3859 78.7099 24.7511 79.4612 24.2766C80.2124 23.802 80.9918 23.6149 81.5827 23.7715C81.8928 23.8648 82.1813 24.0186 82.4315 24.2241C82.6816 24.4296 82.8885 24.6826 83.04 24.9687C83.1916 25.2546 83.2849 25.5678 83.3145 25.8901C83.3441 26.2124 83.3095 26.5375 83.2124 26.8462C82.9942 27.4193 82.6046 27.9113 82.0966 28.2551C81.5377 28.6675 80.8642 28.8957 80.1696 28.9082ZM81.1398 24.6948C80.8254 24.6948 80.3972 24.8441 79.9861 25.1033C79.4526 25.4397 79.0513 25.8983 78.9865 26.2444C78.977 26.2953 78.9597 26.3445 78.9351 26.39C78.8827 26.4981 78.8531 26.6157 78.8482 26.7356C78.8434 26.8556 78.8634 26.9753 78.9069 27.0871C78.962 27.2482 79.0492 27.3964 79.1635 27.5225C79.2778 27.6487 79.4165 27.7502 79.5713 27.8209C80.2491 28.1071 81.026 27.8209 81.5289 27.465C81.8717 27.2366 82.1378 26.91 82.2924 26.5282C82.3988 26.162 82.3584 25.7688 82.1798 25.4318C82.0012 25.095 81.6985 24.8408 81.3356 24.723C81.272 24.7049 81.2061 24.6955 81.1398 24.6948Z" fill="#181E32"/>
<path d="M75.7619 25.4182C75.6849 25.4183 75.6091 25.3999 75.5406 25.3646C72.4465 23.7928 71.3398 21.7726 70.2819 18.3597C70.2619 18.2983 70.2542 18.2335 70.2594 18.1691C70.2647 18.1048 70.2828 18.0421 70.3125 17.9847C70.3423 17.9273 70.3832 17.8764 70.433 17.8349C70.4826 17.7935 70.5402 17.7622 70.6021 17.7431C70.664 17.7239 70.7292 17.7172 70.7937 17.7234C70.8582 17.7297 70.9209 17.7485 70.978 17.779C71.0351 17.8095 71.0856 17.851 71.1266 17.9011C71.1675 17.9513 71.1979 18.009 71.2163 18.0709C72.2203 21.2913 73.1901 23.0739 75.9857 24.4958C76.0841 24.5454 76.1628 24.6266 76.209 24.7261C76.2554 24.8258 76.2665 24.938 76.2407 25.0447C76.215 25.1515 76.1538 25.2465 76.0672 25.3143C75.9805 25.382 75.8733 25.4187 75.7632 25.4182H75.7619Z" fill="#181E32"/>
<path d="M76.486 22.3752C76.4036 22.3751 76.3226 22.3534 76.2507 22.3121C76.179 22.2709 76.119 22.2116 76.0763 22.1397C74.7744 19.9451 73.0747 14.0401 73.4413 10.9029C73.456 10.7744 73.5203 10.6571 73.6201 10.5769C73.7197 10.4967 73.8467 10.46 73.9731 10.475C74.0993 10.4901 74.2145 10.5556 74.2933 10.6571C74.3722 10.7586 74.4082 10.8878 74.3935 11.0163C74.0593 13.9182 75.6966 19.6038 76.9016 21.635C76.9454 21.709 76.9694 21.7935 76.9706 21.8799C76.9719 21.9664 76.9507 22.0515 76.909 22.1268C76.8673 22.2022 76.8067 22.2648 76.7334 22.3084C76.6601 22.352 76.5768 22.3751 76.4919 22.3752H76.486Z" fill="#181E32"/>
<path d="M78.5357 19.3322C78.4379 19.3321 78.3424 19.3032 78.2612 19.2491C78.1801 19.195 78.1171 19.1182 78.0801 19.0284C77.8634 18.505 76.8697 15.5404 77.3844 14.0934C77.4309 13.9756 77.5219 13.8802 77.6381 13.8275C77.7542 13.7748 77.8864 13.7689 78.007 13.811C78.1274 13.8531 78.2266 13.94 78.2838 14.0532C78.3408 14.1665 78.3513 14.2973 78.3128 14.418C77.9693 15.3879 78.6675 17.8767 78.9913 18.6588C79.016 18.718 79.0285 18.7815 79.0283 18.8457C79.0281 18.9097 79.0152 18.9732 78.9902 19.0323C78.9653 19.0914 78.9289 19.1451 78.883 19.1903C78.8372 19.2355 78.7827 19.2712 78.7229 19.2956C78.6634 19.3195 78.5999 19.332 78.5357 19.3322Z" fill="#181E32"/>
<path d="M81.0174 21.3012C80.9674 21.3013 80.9176 21.2931 80.87 21.2769C80.8116 21.2568 80.7575 21.2249 80.711 21.183C80.6644 21.1411 80.6262 21.0902 80.5986 21.033C80.571 20.9758 80.5545 20.9134 80.55 20.8495C80.5456 20.7857 80.5533 20.7215 80.5727 20.6608C81.2269 18.6055 81.2749 11.7615 80.8969 10.4745C80.8607 10.3508 80.8733 10.2172 80.9318 10.1031C80.9903 9.98917 81.0899 9.90394 81.2088 9.86632C81.3277 9.8287 81.456 9.84173 81.5656 9.9026C81.6752 9.96348 81.7571 10.0671 81.7933 10.1908C82.2228 11.6629 82.183 18.7005 81.461 20.9676C81.4301 21.0645 81.3705 21.149 81.2909 21.2088C81.2113 21.2687 81.1156 21.3011 81.0174 21.3012Z" fill="#181E32"/>
<path d="M83.6418 20.1376C83.6105 20.1377 83.5793 20.1349 83.5486 20.1291C83.4845 20.1172 83.4233 20.093 83.3688 20.0578C83.3142 20.0228 83.2672 19.9775 83.2304 19.9246C83.1938 19.8719 83.1681 19.8124 83.1549 19.7498C83.1416 19.6872 83.1411 19.6227 83.1534 19.5599C83.1919 19.3604 83.2777 19.0308 83.3932 18.5748C83.7661 17.1007 84.4707 14.3569 84.5664 12.1909C84.5691 12.127 84.5848 12.0642 84.6124 12.0064C84.6398 11.9483 84.6789 11.8962 84.727 11.853C84.7751 11.8097 84.8315 11.7761 84.8927 11.7542C84.9541 11.7322 85.0194 11.7224 85.0846 11.725C85.1499 11.7278 85.214 11.743 85.2733 11.77C85.3326 11.797 85.3857 11.8351 85.43 11.8822C85.4741 11.9292 85.5084 11.9845 85.5309 12.0445C85.5533 12.1046 85.5633 12.1684 85.5606 12.2322C85.4612 14.498 84.7441 17.3038 84.3589 18.8107C84.2507 19.234 84.165 19.5696 84.1314 19.7423C84.1097 19.8537 84.0489 19.9543 83.9594 20.0264C83.8701 20.0987 83.7577 20.138 83.6418 20.1376Z" fill="#181E32"/>
<path d="M84.2585 23.807C84.1606 23.8073 84.065 23.7777 83.9841 23.7224C83.9032 23.667 83.8407 23.5884 83.805 23.4968C83.7692 23.4052 83.762 23.3049 83.7838 23.209C83.8058 23.1131 83.856 23.0261 83.9279 22.9593C86.0787 20.9537 88.8552 14.4494 89.4288 10.0729C89.4498 9.94871 89.5181 9.83744 89.6177 9.76232C89.7186 9.6872 89.845 9.6541 89.9689 9.66986C90.0929 9.68561 90.2071 9.74913 90.2861 9.84697C90.365 9.94481 90.4027 10.0696 90.393 10.1951C89.7964 14.745 86.8685 21.5449 84.589 23.6702C84.5001 23.7564 84.3819 23.8053 84.2585 23.807Z" fill="#181E32"/>
<path d="M84.5296 26.1341C84.4123 26.134 84.299 26.0918 84.2102 26.0154C84.1214 25.9389 84.0632 25.8331 84.0462 25.7175C84.0291 25.6019 84.0544 25.4839 84.1173 25.3852C84.1802 25.2865 84.2767 25.2138 84.389 25.1801C87.656 24.2053 90.2586 21.1507 90.8565 17.5905C90.8663 17.5274 90.8895 17.4669 90.9237 17.4127C90.958 17.3585 91.002 17.3115 91.0546 17.2743C91.1071 17.2373 91.1658 17.2107 91.2294 17.1965C91.2918 17.1821 91.3566 17.1803 91.4201 17.1909C91.4825 17.2015 91.5436 17.2245 91.5974 17.2585C91.6525 17.2925 91.7001 17.3368 91.7368 17.389C91.7735 17.4411 91.8004 17.5001 91.8151 17.5625C91.8298 17.6249 91.831 17.6894 91.8212 17.7525C91.1609 21.6686 88.287 25.029 84.6702 26.1134C84.6247 26.1274 84.5773 26.1343 84.5296 26.1341Z" fill="#181E32"/>
<path d="M116.614 37.0529C115.012 37.0529 113.904 36.6327 113.264 35.7911C112.235 34.4425 112.836 32.3659 113.524 31.0038C113.402 30.9733 113.28 30.9403 113.15 30.9037C109.255 29.7566 106.483 26.7944 106.252 23.5341C106.031 20.4216 108.176 17.601 112.137 15.7944C114.679 14.6351 117.538 14.6718 119.63 14.8599C118.226 12.0503 118.271 8.35515 120.808 6.74271C123.344 5.13027 126.815 6.69751 128.68 9.16014C128.721 9.21096 128.752 9.26959 128.77 9.33275C128.789 9.39578 128.795 9.46199 128.787 9.52734C128.779 9.59257 128.758 9.6556 128.725 9.71265C128.693 9.76982 128.649 9.81966 128.597 9.85936C128.544 9.89906 128.484 9.92789 128.421 9.94389C128.357 9.95989 128.29 9.96294 128.225 9.95268C128.16 9.94255 128.098 9.91933 128.042 9.88452C127.987 9.84971 127.938 9.80402 127.901 9.75015C126.338 7.68574 123.381 6.26508 121.332 7.56847C119.209 8.91217 119.33 12.3325 120.658 14.7157C120.706 14.8025 120.762 14.9002 120.827 15.0052C122.351 15.2679 125.103 16.0753 125.31 18.4928C125.315 18.5641 125.305 18.636 125.279 18.7031C125.255 18.7703 125.215 18.831 125.165 18.8812C125.113 18.9314 125.051 18.9698 124.984 18.9937C124.917 19.0175 124.844 19.0262 124.774 19.0192C123.074 18.847 121.454 17.7256 120.239 15.9055L120.059 15.8848C116.871 15.5452 114.482 15.7992 112.544 16.6836C108.922 18.3352 107.034 20.7428 107.227 23.4645C107.429 26.3204 109.915 28.9333 113.426 29.9667C113.631 30.0266 113.839 30.0779 114.051 30.1194C115.687 27.8351 119.526 26.114 121.593 26.3326C122.808 26.4548 123.503 26.8005 123.719 27.3771C123.834 27.6812 123.854 28.1686 123.299 28.7635C122.132 30.0144 118.93 31.2665 115.821 31.2665C115.39 31.2671 114.96 31.2418 114.533 31.1907C113.942 32.2523 113.238 34.1493 114.045 35.2047C114.67 36.0268 116.498 36.6865 121.657 35.1669C123.807 34.5341 125.716 33.2368 127.3 32.0519C127.404 31.9742 127.534 31.9411 127.662 31.9597C127.79 31.9783 127.906 32.047 127.985 32.1509C128.062 32.2547 128.095 32.385 128.076 32.5133C128.058 32.6417 127.989 32.7572 127.886 32.8349C126.232 34.0711 124.231 35.4271 121.933 36.105C119.775 36.7353 118.008 37.0529 116.614 37.0529ZM115.186 30.2636C118.256 30.4517 121.603 29.1483 122.582 28.0953C122.776 27.8877 122.815 27.7496 122.803 27.7179C122.803 27.7179 122.661 27.4235 121.491 27.3013C119.859 27.1328 116.747 28.5082 115.186 30.2636ZM121.697 16.2036C122.308 16.9035 123.129 17.5986 124.154 17.9052C123.763 17.0819 122.802 16.5297 121.697 16.2036Z" fill="#1B5EC9"/>
<path d="M21.6825 47.4349C21.6336 47.4349 21.5859 47.4349 21.5383 47.4349C20.8052 47.3825 20.1942 46.9215 19.8277 46.1375C18.8135 43.9596 19.5833 39.2965 23.6044 33.7884C24.1676 33.0097 24.811 32.2919 25.524 31.6471C23.8574 28.8107 20.5486 27.5181 17.6674 27.273C14.7118 27.0218 11.2209 28.4083 9.36616 30.5655C8.91517 31.089 8.49339 31.6369 8.10276 32.2068C8.5645 32.7254 8.93436 33.3189 9.19632 33.9616C10.0516 36.0577 9.98686 38.6185 9.03015 40.8098C8.29459 42.4877 7.39408 42.7487 6.91756 42.7548H6.89801C6.21499 42.7548 5.59918 42.2731 5.20208 41.4305C4.2979 39.5038 4.54472 36.0468 6.84547 32.3385C5.91564 31.5508 4.74877 31.1423 3.64055 31.3044C2.68139 31.4459 1.75644 32.1654 1.28359 33.1336C0.884038 33.9567 0.876707 34.8151 1.26404 35.4883C1.32892 35.6003 1.34639 35.7335 1.31291 35.8585C1.27931 35.9834 1.19732 36.0899 1.08503 36.1547C0.972745 36.2193 0.839317 36.2369 0.714077 36.2033C0.588837 36.1698 0.48217 36.0881 0.41729 35.976C-0.134989 35.0188 -0.138657 33.8274 0.403847 32.7092C1.02333 31.4349 2.20853 30.5265 3.49759 30.3362C4.84163 30.1375 6.2541 30.6057 7.38187 31.5203C7.75087 30.9911 8.16263 30.4601 8.61716 29.9277C10.6613 27.545 14.4992 26.0158 17.7444 26.2926C21.5701 26.6182 24.6455 28.3656 26.2754 31.0154C27.5498 30.0545 28.9317 29.4473 30.3381 29.2461C31.1569 29.1379 31.9889 29.1933 32.786 29.4089C33.5831 29.6244 34.3293 29.996 34.9811 30.5021C35.2711 30.7291 35.5364 30.9858 35.7729 31.2679C35.9904 29.7375 36.6453 28.034 37.9515 26.8243C39.3285 25.5488 41.9714 24.344 46.7354 25.8488C46.7966 25.868 46.8534 25.8991 46.9025 25.9403C46.9518 25.9816 46.9924 26.032 47.0219 26.0889C47.0515 26.1457 47.0696 26.2079 47.0752 26.2717C47.0807 26.3354 47.0736 26.3998 47.0543 26.4609C47.035 26.522 47.0038 26.5787 46.9625 26.6277C46.9212 26.6767 46.8707 26.7172 46.8137 26.7467C46.7568 26.7764 46.6945 26.7944 46.6306 26.7999C46.5665 26.8055 46.5022 26.7984 46.4409 26.7792C42.9758 25.6878 40.3439 25.9451 38.6211 27.5438C36.9862 29.0583 36.5341 31.5508 36.7003 33.0848C36.7442 33.2673 36.7752 33.4527 36.7932 33.6396C36.8039 33.7621 36.768 33.884 36.6925 33.9811C36.617 34.0783 36.5075 34.1434 36.3859 34.1634C36.2645 34.1834 36.1398 34.1569 36.0371 34.0891C35.9342 34.0214 35.8609 33.9175 35.8316 33.7982C35.7892 33.6172 35.7574 33.4339 35.7363 33.2494C35.5004 32.3227 34.8907 31.6739 34.3812 31.274C33.2725 30.4213 31.8709 30.0412 30.4823 30.2167C29.016 30.4252 27.7661 31.0996 26.7507 31.8922C26.973 32.3711 27.15 32.8694 27.2798 33.3811C28.0471 36.3894 27.8321 40.9415 25.6229 44.3181C24.3021 46.335 22.9092 47.4349 21.6825 47.4349ZM25.9785 32.5543C25.3952 33.1055 24.8636 33.7088 24.3901 34.3566C20.3726 39.8672 19.9914 44.1717 20.7099 45.7204C20.9249 46.1826 21.2255 46.4301 21.6055 46.4521C22.473 46.5155 23.6655 45.5143 24.7994 43.7791C26.8473 40.6464 27.0427 36.4175 26.328 33.6152C26.2373 33.2537 26.1205 32.8991 25.9785 32.5543ZM7.55293 33.0641C5.45134 36.5784 5.43423 39.616 6.09159 41.0159C6.31641 41.4951 6.61943 41.7792 6.9029 41.7792C7.3 41.7792 7.7582 41.2659 8.12475 40.4208C8.98005 38.4637 9.03748 36.187 8.28238 34.3237C8.09873 33.8717 7.85241 33.4476 7.55048 33.0641H7.55293Z" fill="#181E32"/>
<path d="M154.935 160.563H154.894C154.433 160.563 153.986 160.409 153.623 160.123C153.261 159.837 153.005 159.437 152.896 158.989C152.616 157.841 152.683 156.635 153.089 155.526C153.605 154.198 154.445 153.022 155.533 152.106C154.69 150.023 153.073 147.912 150.695 147.517C148.509 147.15 146.478 148.363 145.083 149.535C145.627 152.205 145.092 154.239 144.183 155.187C143.717 155.677 143.156 155.862 142.644 155.705C142.297 155.598 141.684 155.23 141.47 153.97V153.949C141.306 152.642 141.924 151.289 143.358 149.812C143.549 149.616 143.765 149.402 144.004 149.183C143.915 148.832 143.805 148.469 143.673 148.096C143.336 147.139 142.483 146.306 141.448 145.922C140.53 145.582 139.621 145.629 138.882 146.054C138.355 146.359 137.936 146.98 138.148 147.421C138.201 147.536 138.207 147.668 138.164 147.788C138.121 147.908 138.033 148.006 137.919 148.062C137.805 148.119 137.673 148.127 137.552 148.088C137.432 148.049 137.331 147.964 137.271 147.852C136.794 146.872 137.465 145.74 138.39 145.206C139.368 144.64 140.602 144.567 141.779 145.003C143.1 145.493 144.15 146.527 144.59 147.77C144.676 148.015 144.753 148.252 144.822 148.487C146.358 147.286 148.5 146.16 150.854 146.551C153.53 146.994 155.355 149.238 156.335 151.494C157.383 150.778 158.581 150.31 159.835 150.125C162.807 149.706 166.008 151.044 167.803 153.454C167.882 153.558 167.915 153.688 167.896 153.817C167.878 153.945 167.808 154.062 167.704 154.14C167.601 154.217 167.471 154.25 167.343 154.232C167.214 154.213 167.098 154.145 167.02 154.041C165.431 151.908 162.6 150.725 159.97 151.101C158.787 151.276 157.664 151.736 156.695 152.439C156.772 152.668 156.839 152.894 156.898 153.117C157.448 155.192 157.464 157.306 156.943 159.069C156.821 159.505 156.557 159.888 156.194 160.159C155.831 160.428 155.389 160.57 154.935 160.563ZM155.879 153.1C155.053 153.869 154.411 154.819 154.003 155.873C153.667 156.792 153.611 157.791 153.842 158.743C153.904 158.979 154.042 159.19 154.235 159.342C154.427 159.494 154.664 159.577 154.909 159.582C155.153 159.587 155.392 159.511 155.59 159.366C155.788 159.223 155.934 159.017 156.005 158.783C156.475 157.191 156.457 155.264 155.952 153.361C155.929 153.275 155.906 153.188 155.88 153.1H155.879ZM142.436 153.815C142.544 154.438 142.763 154.714 142.933 154.767C143.077 154.811 143.281 154.714 143.479 154.507C144.123 153.835 144.525 152.333 144.23 150.316L144.057 150.493C142.843 151.739 142.315 152.826 142.438 153.815H142.436Z" fill="#181E32"/>
<path d="M158.862 11.1504C157.401 12.4596 157.776 15.2278 159.644 15.8216C161.513 16.4154 163.625 14.4832 163.304 12.5485C162.984 10.6138 160.62 9.57341 158.862 11.1504Z" fill="#181E32"/>
<path d="M160.381 16.4681C160.089 16.4678 159.8 16.4234 159.524 16.3364C158.449 15.995 157.661 14.9951 157.47 13.7344C157.29 12.5382 157.715 11.4177 158.58 10.8081C159.513 9.98746 160.716 9.72531 161.807 10.1057C162.33 10.2889 162.795 10.6088 163.151 11.032C163.509 11.4553 163.745 11.9661 163.835 12.5114C164.017 13.6088 163.545 14.7866 162.604 15.5975C161.992 16.1448 161.202 16.4539 160.381 16.4681ZM160.786 10.9068C160.197 10.9186 159.632 11.1491 159.206 11.5531C159.192 11.5665 159.175 11.5787 159.159 11.5908C158.473 12.0639 158.336 12.9321 158.434 13.5893C158.567 14.4696 159.11 15.1829 159.815 15.4061C160.52 15.6292 161.307 15.4207 161.959 14.8586C162.643 14.2684 162.991 13.4296 162.865 12.6699C162.802 12.2977 162.639 11.9491 162.396 11.6603C162.152 11.3716 161.835 11.1535 161.477 11.0287C161.255 10.9495 161.021 10.9083 160.786 10.9068Z" fill="#181E32"/>
<path d="M157.767 27.4233C157.496 28.3301 158.059 29.4315 159.005 29.5281C159.951 29.6248 160.633 28.6605 160.652 27.7146C160.686 26.4027 158.281 25.7028 157.767 27.4233Z" fill="#FF6800"/>
<path d="M8.2556 168.26C7.4414 168.267 6.64326 168.034 5.96216 167.591C5.54144 167.303 5.18324 166.932 4.90852 166.504C4.63391 166.075 4.44862 165.597 4.36345 165.095C4.18338 164.212 4.3615 163.296 4.85864 162.545C5.21269 161.469 6.19698 160.625 7.5183 160.277C8.96249 159.896 10.4262 160.199 11.3374 161.067C11.7779 161.476 12.1274 161.971 12.3633 162.522C12.5994 163.073 12.7166 163.666 12.7074 164.266C12.6875 164.824 12.548 165.373 12.2984 165.874C12.0487 166.375 11.6945 166.817 11.2596 167.172C10.4169 167.873 9.3539 168.257 8.2556 168.26ZM8.74227 161.087C8.41389 161.084 8.08661 161.126 7.76893 161.208C6.75057 161.477 6.00232 162.106 5.7675 162.892C5.75168 162.944 5.72747 162.993 5.69571 163.038C5.50919 163.309 5.37998 163.617 5.31574 163.939C5.2515 164.262 5.25369 164.595 5.32219 164.917C5.38643 165.289 5.52391 165.645 5.72661 165.965C5.92931 166.284 6.19333 166.562 6.50359 166.78C7.68133 167.562 9.45646 167.409 10.633 166.416C10.963 166.149 11.232 165.816 11.422 165.437C11.6121 165.059 11.7189 164.645 11.7353 164.222C11.74 163.759 11.6475 163.301 11.4633 162.875C11.279 162.45 11.0074 162.069 10.6658 161.755C10.1999 161.325 9.49661 161.087 8.73619 161.087H8.74227Z" fill="#1B5EC9"/>
<path d="M141.062 168.707C140.602 168.711 140.152 168.582 139.766 168.334C139.527 168.17 139.322 167.962 139.165 167.72C139.008 167.477 138.903 167.208 138.854 166.925C138.752 166.431 138.849 165.919 139.122 165.495C139.337 164.89 139.892 164.424 140.625 164.232C141.437 164.019 142.266 164.195 142.789 164.688C143.037 164.916 143.233 165.193 143.365 165.5C143.498 165.807 143.563 166.138 143.558 166.472C143.545 166.785 143.467 167.094 143.326 167.376C143.185 167.658 142.984 167.907 142.738 168.106C142.268 168.495 141.675 168.706 141.062 168.707ZM141.308 165.111C141.162 165.111 141.016 165.13 140.876 165.167C140.443 165.281 140.13 165.53 140.035 165.848C140.019 165.9 139.995 165.948 139.962 165.993C139.887 166.103 139.836 166.227 139.811 166.357C139.785 166.488 139.787 166.622 139.815 166.752C139.842 166.906 139.898 167.055 139.981 167.188C140.066 167.321 140.176 167.437 140.305 167.529C140.814 167.864 141.587 167.794 142.103 167.366C142.243 167.254 142.357 167.113 142.438 166.954C142.518 166.794 142.565 166.62 142.571 166.442C142.575 166.244 142.536 166.046 142.455 165.865C142.375 165.682 142.256 165.52 142.107 165.387C141.886 165.199 141.6 165.101 141.31 165.111H141.308Z" fill="#1B5EC9"/>
<path d="M7.7439 141.864C6.8233 143.01 7.56368 145.033 9.00668 145.315C10.4497 145.598 11.8939 143.995 11.4689 142.588C11.0439 141.18 8.95553 140.648 7.90951 141.681L7.7439 141.864Z" fill="#181E32"/>
<path d="M9.39276 145.885C9.247 145.885 9.10161 145.87 8.95853 145.843C8.10472 145.679 7.40703 145.037 7.07405 144.129C6.74106 143.221 6.86669 142.275 7.40825 141.602C7.44045 141.561 7.47827 141.527 7.52047 141.499C7.54389 141.454 7.57426 141.413 7.61073 141.377C8.22059 140.767 9.15247 140.55 10.0892 140.789C11.026 141.028 11.7359 141.664 11.9847 142.497C12.2335 143.331 11.9969 144.247 11.3492 144.966C11.1053 145.247 10.8051 145.474 10.4682 145.632C10.1312 145.791 9.76489 145.876 9.39276 145.885ZM8.22059 142.133C8.20583 142.161 8.18827 142.187 8.16815 142.213C7.84736 142.612 7.78027 143.217 7.99007 143.793C8.19986 144.369 8.64384 144.787 9.14515 144.884C9.64646 144.982 10.2136 144.762 10.6247 144.305C11.0357 143.847 11.1992 143.264 11.0516 142.774C10.904 142.285 10.4417 141.886 9.84893 141.735C9.25614 141.583 8.6597 141.713 8.29622 142.072C8.27329 142.093 8.24792 142.114 8.22059 142.133Z" fill="#181E32"/>
<path d="M24.2085 171.929C23.9922 171.928 23.7771 171.894 23.5709 171.831C22.749 171.579 22.2173 170.942 22.2011 170.202C22.1773 169.932 22.2271 169.659 22.3454 169.414C22.4637 169.168 22.6464 168.957 22.8748 168.804C23.1178 168.616 23.4075 168.496 23.7141 168.454C24.0207 168.414 24.3329 168.454 24.6182 168.571C24.8599 168.684 25.0732 168.848 25.2433 169.05C25.4136 169.252 25.5364 169.488 25.6032 169.743C25.6863 170.021 25.707 170.313 25.664 170.599C25.6209 170.886 25.5153 171.158 25.3542 171.402C25.1101 171.746 24.6929 171.929 24.2085 171.929ZM23.9769 169.413C23.7966 169.416 23.6222 169.477 23.4788 169.585C23.4041 169.639 23.1637 169.837 23.2011 170.106C23.2029 170.129 23.2029 170.152 23.2011 170.175C23.2011 170.559 23.5585 170.805 23.8673 170.906C24.1761 171.007 24.4563 170.957 24.5261 170.857C24.6071 170.732 24.6596 170.591 24.6797 170.443C24.6999 170.296 24.6875 170.146 24.6431 170.005C24.6156 169.888 24.5622 169.778 24.4866 169.684C24.4111 169.589 24.3154 169.513 24.206 169.459C24.1339 169.427 24.0558 169.412 23.9769 169.413Z" fill="#181E32"/>
<path d="M55.7864 14.9248C55.8477 15.5709 55.29 17.1416 56.1699 17.6563C57.4345 18.396 58.2279 17.7779 58.9215 17.0261C59.1502 16.7954 59.3159 16.5086 59.4023 16.1939C59.5898 15.3836 58.6726 14.1913 57.8732 13.9979C57.0739 13.8045 55.7396 14.4309 55.7864 14.9248Z" fill="#FF6800"/>
<path d="M159.407 138.97C159.503 139.974 158.627 142.417 160.009 143.219C161.994 144.37 163.24 143.407 164.329 142.24C164.689 141.881 164.951 141.435 165.089 140.946C165.383 139.685 163.942 137.829 162.688 137.528C161.434 137.227 159.332 138.199 159.407 138.97Z" fill="#FF6800"/>
<path d="M31.5657 8.62373C31.3753 10.1833 31.1473 11.5427 32.3711 12.5286C33.5949 13.5146 35.5247 13.2951 36.6333 12.1818C37.6655 11.1474 37.3307 9.20825 36.9462 8.53642C35.5004 6.0055 31.7016 7.53472 31.5657 8.62373Z" fill="#1B5EC9"/>
<path d="M125.681 172.824C125.412 172.817 125.146 172.78 124.887 172.713C123.618 172.412 122.383 171.966 121.188 171.533C120.379 171.241 119.543 170.939 118.711 170.688C115.085 169.589 110.78 169.484 106.616 169.377C102.476 169.27 98.1961 169.161 94.4366 168.105C93.3962 167.808 92.5037 167.132 91.9352 166.213C91.3679 165.292 91.1637 164.194 91.3642 163.132C93.3448 152.918 97.5652 142.572 102.084 131.992C103.626 128.38 105.132 123.433 106.73 118.193C108.058 113.832 109.429 109.323 110.857 105.531C111.57 103.638 112.624 101.616 113.739 99.4742C115.28 96.5178 116.871 93.4624 117.514 90.7515C119.226 83.5327 120.773 78.2146 122.267 73.0711C123.936 67.3219 125.513 61.8927 127.279 54.1054C127.427 53.452 127.567 52.7816 127.701 52.1332C127.922 51.072 128.15 49.973 128.426 48.8996L128.47 48.7286C128.757 47.6064 129.081 46.3339 129.748 45.2923C130.97 43.3775 133.736 43.0014 136.009 42.8891C137.949 42.7904 139.889 43.0882 141.711 43.7646C143.693 44.5107 145.468 45.6879 147.186 46.8273C148.026 47.3841 148.897 47.9593 149.769 48.4722C152.718 50.1939 155.965 51.3471 159.342 51.8719C159.411 51.8824 159.475 51.9073 159.534 51.9451C159.591 51.9829 159.642 52.0326 159.679 52.0909C159.716 52.1492 159.741 52.2149 159.752 52.2834C159.761 52.352 159.757 52.4219 159.738 52.4885C156.405 64.2531 150.089 75.0042 143.983 85.3999C142.149 88.526 140.247 91.7589 138.462 94.9632C135.94 99.4925 133.376 104.42 131.717 109.756C128.805 119.125 128.885 129.223 128.962 138.988C128.978 141.036 128.993 143.154 128.982 145.228C128.934 153.808 128.393 162.378 127.364 170.897C127.31 171.342 127.21 172.169 126.554 172.59C126.293 172.751 125.988 172.833 125.681 172.824ZM136.715 43.8477C136.493 43.8477 136.27 43.8538 136.048 43.8648C134.011 43.9661 131.546 44.2787 130.564 45.8186C129.984 46.7284 129.692 47.8677 129.409 48.9704L129.365 49.1426C129.095 50.194 128.869 51.2808 128.65 52.3322C128.514 52.9843 128.375 53.6584 128.224 54.3215C126.455 62.1369 124.874 67.5796 123.201 73.3434C121.71 78.4723 120.169 83.7818 118.462 90.9762C117.791 93.8056 116.17 96.9158 114.602 99.9248C113.502 102.04 112.459 104.038 111.768 105.875C110.351 109.637 108.983 114.132 107.661 118.478C106.059 123.741 104.546 128.712 102.984 132.373C98.4859 142.906 94.2862 153.198 92.324 163.317C92.1687 164.139 92.3264 164.989 92.7665 165.701C93.2067 166.413 93.8962 166.934 94.7019 167.165C98.3428 168.187 102.562 168.295 106.642 168.4C110.87 168.51 115.242 168.622 118.99 169.753C119.846 170.01 120.702 170.318 121.518 170.615C122.686 171.039 123.894 171.476 125.109 171.763C125.438 171.841 125.802 171.902 126.014 171.763C126.249 171.613 126.329 171.2 126.381 170.776C127.405 162.294 127.943 153.761 127.992 145.219C128.003 143.151 127.992 141.036 127.971 138.991C127.893 129.151 127.814 118.975 130.771 109.462C132.457 104.04 135.05 99.059 137.596 94.4833C139.386 91.2692 141.288 88.0315 143.127 84.9016C149.117 74.7136 155.296 64.1835 158.633 52.7425C155.329 52.1616 152.157 50.9994 149.262 49.3099C148.363 48.7836 147.483 48.1999 146.632 47.6357C144.961 46.5269 143.232 45.3802 141.354 44.6732C139.868 44.1235 138.297 43.8439 136.715 43.8477Z" fill="#181E32"/>
<path d="M136.356 98.4498C136.243 98.4498 136.134 98.4107 136.048 98.3399C135.96 98.2691 135.9 98.1702 135.878 98.0603C134.433 91.0992 135.82 83.0533 140.001 74.1553C141.724 70.4916 143.764 66.9158 145.73 63.4633C146.242 62.5681 146.772 61.6412 147.286 60.7277C148.018 59.4418 148.599 58.3768 149.136 57.3779L149.258 57.1336C149.656 56.3826 150.068 55.6058 150.765 55.0172C152.023 53.9559 153.569 54.1831 155.043 54.5055C155.774 54.6655 156.513 54.8389 157.228 55.0074C157.676 55.1125 158.123 55.2187 158.569 55.3213C158.659 55.3408 158.886 55.4007 159.23 55.4898C160.05 55.7035 162.179 56.2592 162.643 56.302C162.734 56.279 162.831 56.2833 162.92 56.3142C163.009 56.3452 163.088 56.4015 163.145 56.4762C163.204 56.5511 163.239 56.6411 163.246 56.7355C163.255 56.8299 163.234 56.9245 163.19 57.0078C155.755 71.3916 148.075 86.2651 136.706 98.2972C136.661 98.3448 136.606 98.3827 136.546 98.4083C136.485 98.4352 136.421 98.4486 136.356 98.4498ZM153.086 55.2175C152.463 55.2175 151.89 55.3592 151.404 55.7683C150.851 56.2348 150.501 56.8955 150.13 57.6001L150 57.8444C149.46 58.8495 148.87 59.9205 148.141 61.2126C147.624 62.1285 147.094 63.0554 146.582 63.953C144.619 67.3884 142.591 70.9398 140.883 74.5778C136.983 82.8823 135.562 90.3945 136.657 96.9269C147.406 85.2955 154.845 71.0362 162.004 57.1886C161.795 57.1434 161.547 57.0848 161.255 57.0152C160.498 56.8344 159.594 56.5987 158.997 56.4424L158.364 56.28C157.915 56.1774 157.465 56.0711 157.016 55.9661C156.304 55.7988 155.569 55.6254 154.845 55.4666C154.269 55.322 153.679 55.2386 153.086 55.2175Z" fill="#181E32"/>
<path d="M94.7333 164.68C94.6174 164.68 94.5063 164.638 94.4184 164.564C94.3294 164.489 94.2708 164.385 94.2513 164.27C94.2318 164.155 94.2525 164.036 94.3111 163.936C94.3696 163.835 94.4612 163.758 94.5698 163.72C95.3019 163.457 101.958 161.205 110.243 163.115C110.369 163.143 110.479 163.222 110.547 163.333C110.617 163.445 110.639 163.578 110.611 163.706C110.581 163.834 110.503 163.945 110.394 164.014C110.285 164.085 110.152 164.107 110.026 164.078C102.011 162.225 95.6008 164.398 94.8956 164.652C94.8431 164.67 94.7882 164.68 94.7333 164.68Z" fill="#181E32"/>
<path d="M114.878 165.396C114.836 165.396 114.794 165.392 114.754 165.382C114.389 165.294 114.036 165.159 113.707 164.98C113.447 164.836 113.169 164.729 112.88 164.66C112.816 164.644 112.757 164.617 112.705 164.58C112.652 164.542 112.607 164.494 112.574 164.439C112.541 164.384 112.519 164.323 112.507 164.259C112.498 164.196 112.501 164.131 112.516 164.069C112.531 164.007 112.559 163.948 112.598 163.897C112.636 163.844 112.684 163.8 112.74 163.767C112.795 163.733 112.857 163.711 112.92 163.701C112.984 163.691 113.049 163.694 113.114 163.71C113.478 163.798 113.831 163.932 114.16 164.112C114.42 164.255 114.697 164.363 114.987 164.432C115.105 164.46 115.207 164.53 115.278 164.627C115.347 164.725 115.376 164.846 115.363 164.965C115.348 165.083 115.29 165.193 115.2 165.272C115.108 165.352 114.992 165.396 114.871 165.396H114.878Z" fill="#181E32"/>
<path d="M124.363 170.498C124.28 170.498 124.199 170.477 124.128 170.438C124.056 170.399 123.995 170.343 123.951 170.275C123.191 169.103 120.872 167.74 118.955 166.854C118.838 166.798 118.749 166.7 118.706 166.58C118.663 166.46 118.669 166.328 118.723 166.213C118.778 166.097 118.876 166.007 118.996 165.964C119.117 165.919 119.251 165.924 119.368 165.976C120.359 166.434 123.678 168.057 124.776 169.751C124.822 169.824 124.849 169.909 124.853 169.996C124.855 170.082 124.835 170.169 124.793 170.246C124.75 170.322 124.689 170.385 124.613 170.43C124.537 170.473 124.45 170.498 124.363 170.498Z" fill="#181E32"/>
<path d="M96.2552 159.668C96.2235 159.668 96.193 159.664 96.1625 159.659C96.0991 159.647 96.0393 159.623 95.9856 159.587C95.932 159.552 95.8856 159.506 95.8503 159.452C95.8137 159.4 95.788 159.34 95.7758 159.277C95.7624 159.214 95.7624 159.149 95.7746 159.086C96.7163 154.166 99.5461 146.908 102.043 140.506C102.296 139.858 102.544 139.218 102.788 138.59C102.835 138.469 102.927 138.371 103.047 138.318C103.165 138.267 103.299 138.263 103.42 138.311C103.541 138.359 103.638 138.452 103.69 138.57C103.742 138.689 103.745 138.825 103.698 138.946C103.454 139.574 103.204 140.214 102.952 140.862C100.471 147.226 97.6579 154.439 96.7309 159.271C96.709 159.381 96.6504 159.482 96.5626 159.554C96.476 159.626 96.3674 159.667 96.2552 159.668Z" fill="#181E32"/>
<path d="M105.007 135.234C104.985 135.235 104.965 135.235 104.945 135.234C104.821 135.217 104.709 135.149 104.632 135.047C104.557 134.944 104.523 134.815 104.539 134.687C104.695 133.439 105.058 132.23 105.615 131.114C105.643 131.056 105.682 131.006 105.729 130.965C105.776 130.923 105.831 130.892 105.889 130.872C105.948 130.852 106.011 130.845 106.073 130.851C106.134 130.856 106.194 130.874 106.25 130.904C106.304 130.933 106.353 130.973 106.393 131.022C106.433 131.071 106.463 131.128 106.482 131.19C106.5 131.251 106.507 131.314 106.503 131.379C106.497 131.442 106.48 131.505 106.452 131.562C105.945 132.578 105.614 133.678 105.473 134.812C105.456 134.928 105.401 135.036 105.315 135.113C105.229 135.191 105.12 135.234 105.007 135.234Z" fill="#181E32"/>
<path d="M97.9536 126.911C97.8523 126.911 97.7534 126.879 97.6704 126.821C97.5874 126.762 97.5252 126.68 97.4922 126.584C97.4593 126.489 97.4556 126.385 97.4837 126.289C97.5118 126.192 97.5703 126.105 97.6497 126.043C99.7806 124.358 101.232 121.663 101.736 118.454C102.24 115.244 101.757 111.989 101.281 109.498C101.256 109.37 101.284 109.24 101.356 109.133C101.429 109.027 101.542 108.954 101.669 108.93C101.796 108.906 101.927 108.934 102.035 109.005C102.141 109.078 102.215 109.19 102.24 109.317C102.728 111.883 103.225 115.259 102.7 118.604C102.162 122.055 100.575 124.968 98.2562 126.805C98.1696 126.873 98.0634 126.911 97.9536 126.911Z" fill="#181E32"/>
<path d="M114.68 77.5971C116.145 76.941 118.015 76.4315 119.222 77.4884C120.796 78.8654 119.773 81.4679 118.453 83.0918C115.279 87.0017 110.762 90.075 109.141 94.8463C107.943 98.364 108.548 102.221 109.361 105.843L96.7503 107.786C95.2695 108.013 93.6349 108.167 92.6314 106.836C91.8757 105.832 91.8306 104.881 92.3567 103.769C92.961 102.493 93.5323 101.271 94.0145 99.939C94.5053 98.5864 95.0741 97.2619 95.715 95.9741C98.2872 90.8069 101.948 86.2601 106.446 82.6458C108.68 80.8475 111.11 79.3075 113.691 78.0553C114.018 77.8989 114.35 77.745 114.68 77.5971Z" fill="#1B5EC9"/>
<path d="M112.568 81.4448C111.985 81.4458 111.418 81.2565 110.952 80.9055C110.742 80.751 110.566 80.5555 110.432 80.3307C110.299 80.106 110.212 79.8566 110.178 79.5973C110.161 79.4665 110.198 79.3343 110.277 79.2301C110.358 79.1261 110.476 79.0583 110.607 79.0419C110.737 79.0256 110.869 79.0619 110.972 79.1429C111.075 79.224 111.142 79.3431 111.159 79.4739C111.179 79.6022 111.223 79.7253 111.292 79.8357C111.359 79.9462 111.449 80.0418 111.555 80.1169C111.915 80.3802 112.363 80.4941 112.806 80.4353C113.657 80.3119 114.416 79.6948 115.084 79.1542C115.133 79.1095 115.191 79.0754 115.255 79.054C115.319 79.0327 115.385 79.0245 115.451 79.03C115.517 79.0355 115.582 79.0545 115.641 79.086C115.7 79.1175 115.752 79.1606 115.793 79.213C115.835 79.2653 115.866 79.3257 115.884 79.3903C115.901 79.455 115.906 79.5225 115.898 79.589C115.888 79.6554 115.866 79.7194 115.831 79.7769C115.797 79.8342 115.752 79.8841 115.698 79.9231C114.969 80.513 114.062 81.2474 112.946 81.4127C112.821 81.4328 112.694 81.4436 112.568 81.4448Z" fill="#181E32"/>
<path d="M113.78 86.1162C113.376 86.1382 112.939 86.1784 112.638 86.4505C112.338 86.7225 112.254 87.1519 112.186 87.5484C111.41 92.137 111.363 97.8633 109.866 102.733C108.302 107.837 109.98 107.43 113.53 107.717C121.981 108.398 133.773 110.83 133.773 110.83C134.24 110.902 134.763 110.963 135.148 110.687C135.49 110.443 135.619 110.004 135.725 109.598C136.519 106.548 137.161 103.466 137.655 100.353C137.948 98.5 140.081 95.0696 138.917 93.3813C137.754 91.6929 135.342 90.6767 133.487 90.0741C129.772 88.8683 127.253 88.3096 124.37 87.7424C121.143 87.1129 117.065 85.9442 113.78 86.1162Z" fill="#FF6800"/>
<path d="M33.1511 124.443C35.3672 123.879 36.8918 121.909 37.9766 119.943C39.6319 116.946 40.9379 112.547 41.3496 109.176C38.2747 106.165 34.4143 104.72 32.533 100.886C30.6516 97.0509 31.1183 93.154 30.9289 88.889C30.8752 87.6999 30.4574 86.2447 29.2541 86.0335C27.997 85.8137 27.0637 87.1322 26.5567 88.2823C21.0275 100.778 23.3951 112.773 31.2234 126.821L33.1511 124.443Z" fill="#FF6800"/>
<path d="M26.5705 92.542C26.408 92.5408 26.2457 92.5286 26.085 92.5043C25.9609 92.4812 25.8503 92.4119 25.7767 92.3085C25.7032 92.2063 25.6723 92.0786 25.6908 91.9533C25.7092 91.8293 25.7755 91.7161 25.8755 91.6395C25.9757 91.5617 26.1017 91.5276 26.227 91.5422C26.7988 91.6274 27.2285 91.5179 27.5393 91.2053C28.0407 90.7042 28.2301 89.6667 28.048 88.4318C28.0335 88.3061 28.0682 88.1799 28.1451 88.0795C28.2218 87.9793 28.3346 87.9129 28.4594 87.8944C28.5841 87.8759 28.7112 87.9068 28.8136 87.9805C28.9161 88.0542 28.9859 88.165 29.0082 88.2895C29.2389 89.8503 28.9548 91.1639 28.2264 91.8937C28.0086 92.1078 27.7494 92.2756 27.4649 92.3875C27.1802 92.4994 26.876 92.5517 26.5705 92.542Z" fill="#181E32"/>
<path d="M48.572 114.47C48.2348 114.47 47.7572 114.306 47.0388 113.963C46.3205 113.62 45.337 113.077 44.2216 112.406C42.267 111.231 40.0777 109.765 39.4412 109.204C39.3505 109.116 39.2968 108.998 39.2914 108.872C39.2862 108.746 39.3297 108.623 39.4129 108.529C39.4961 108.435 39.6125 108.376 39.738 108.365C39.8634 108.354 39.9882 108.392 40.0863 108.471C41.3739 109.604 47.3186 113.287 48.4755 113.487C49.0155 112.842 50.1223 110.887 50.4852 110.157C53.2034 104.67 56.607 101.131 62.6274 97.5346C62.6825 97.5016 62.7436 97.4796 62.8071 97.4699C62.8705 97.4613 62.9353 97.465 62.9974 97.4796C63.0597 97.4955 63.1183 97.5236 63.1697 97.5615C63.2211 97.6006 63.2646 97.6482 63.2975 97.7032C63.3303 97.7581 63.3521 97.8192 63.3614 97.8827C63.3707 97.9462 63.3674 98.011 63.3516 98.0733C63.336 98.1356 63.3081 98.1942 63.2697 98.2455C63.2315 98.2968 63.1834 98.3408 63.1283 98.3737C57.2862 101.863 53.9865 105.289 51.3599 110.588C51.0264 111.253 49.7192 113.627 49.0717 114.276C49.0067 114.34 48.9285 114.392 48.8425 114.426C48.7564 114.459 48.6643 114.473 48.572 114.47Z" fill="#1B5EC9"/>
<path d="M66.3608 96.3913C66.2575 96.3913 66.1569 96.3578 66.0732 96.2959C65.9896 96.2352 65.9273 96.1485 65.8953 96.0494C65.8632 95.9491 65.8631 95.8426 65.8948 95.7435C65.9265 95.6432 65.9885 95.5565 66.0719 95.4958C66.1392 95.4463 67.7208 94.2821 68.5986 93.9216C68.719 93.8721 68.8539 93.8733 68.9735 93.9241C69.0931 93.9761 69.1876 94.0727 69.2363 94.1954C69.2851 94.3167 69.284 94.453 69.2332 94.5744C69.1825 94.6957 69.0863 94.7911 68.9658 94.8406C68.3293 95.102 67.0769 95.9801 66.6473 96.2959C66.5641 96.3566 66.4639 96.39 66.3608 96.3913Z" fill="#1B5EC9"/>
<path d="M71.9979 93.1693C71.8911 93.1693 71.7871 93.1339 71.7021 93.0692C71.6172 93.0046 71.5557 92.9131 71.5273 92.8106C71.4989 92.7069 71.5051 92.5971 71.5451 92.4983C71.585 92.3995 71.6565 92.3153 71.7483 92.2616L82.7957 85.6929C84.2923 84.8036 85.8401 83.8825 87.3172 82.9126C89.5779 81.4267 91.7346 79.7873 93.7718 78.006C93.8181 77.9591 93.8741 77.9225 93.9362 77.8982C93.9983 77.874 94.0641 77.8627 94.1311 77.865C94.1968 77.8674 94.2626 77.8832 94.3223 77.9118C94.3819 77.9402 94.4355 77.9807 94.4793 78.0307C94.5232 78.0806 94.5573 78.139 94.5768 78.2024C94.5975 78.2657 94.6048 78.3325 94.5987 78.3988C94.5926 78.465 94.5731 78.5292 94.5414 78.5875C94.5086 78.6458 94.466 78.6971 94.4136 78.7379C92.341 80.5503 90.1478 82.2179 87.8481 83.7288C86.3539 84.7048 84.7952 85.6368 83.2889 86.5347L72.2427 93.1034C72.1684 93.1461 72.0839 93.1693 71.9979 93.1693Z" fill="#1B5EC9"/>
<path d="M96.0635 77.2384C95.9573 77.2355 95.8548 77.1982 95.7718 77.132C95.6888 77.0658 95.6303 76.9746 95.6034 76.8719C95.5778 76.7693 95.5851 76.6608 95.6254 76.563C95.6669 76.4652 95.7389 76.3832 95.8304 76.3296C96.0745 76.1857 96.2099 76.0393 96.2233 75.8942C96.2697 75.366 95.1922 74.4548 94.4796 73.851C94.2819 73.6839 94.0964 73.5265 93.9256 73.374C89.7254 69.6175 85.9114 65.4519 82.5386 60.9392C82.4973 60.8882 82.4666 60.8294 82.4486 60.7662C82.4305 60.7032 82.4253 60.6371 82.4334 60.5718C82.4415 60.5067 82.4627 60.4438 82.4957 60.387C82.5286 60.3303 82.5727 60.2807 82.6253 60.2413C82.6779 60.2019 82.7379 60.1736 82.8017 60.158C82.8655 60.1424 82.9318 60.1398 82.9967 60.1505C83.0615 60.1611 83.1235 60.1846 83.179 60.2198C83.2344 60.2549 83.2823 60.3009 83.3196 60.3549C86.6528 64.8153 90.4222 68.9325 94.5723 72.6458C94.7334 72.7909 94.9152 72.9434 95.1068 73.1069C96.1269 73.9693 97.2825 74.9488 97.1922 75.9808C97.1495 76.4589 96.8554 76.8603 96.3173 77.1725C96.2404 77.2178 96.1525 77.2406 96.0635 77.2384Z" fill="#1B5EC9"/>
<path d="M17.952 88.3326C17.8828 88.3333 17.8143 88.3194 17.751 88.2918C17.6876 88.2642 17.6308 88.2236 17.5843 88.1726C14.185 84.4452 10.2869 81.9579 6.51748 79.5524C5.53714 78.9257 4.60704 78.3307 3.68062 77.7199L3.59239 77.6612C2.58631 76.9918 1.2077 76.0731 1.25304 74.7573C1.30083 73.3744 4.5715 70.2481 4.60459 70.2176C5.08741 69.7753 5.54204 69.3551 5.9783 68.9519C7.6939 67.3637 9.18034 65.993 10.9388 64.6321C11.0415 64.5525 11.1717 64.517 11.3007 64.5331C11.4299 64.5492 11.5471 64.6158 11.6269 64.7182C11.7067 64.8206 11.7425 64.9504 11.7262 65.0791C11.71 65.2077 11.6432 65.3246 11.5405 65.4042C9.81511 66.7395 8.34582 68.0918 6.64493 69.669C6.20745 70.0734 5.75159 70.4949 5.26755 70.9371C4.2676 71.8522 2.25422 74.1611 2.23216 74.7915C2.20643 75.5648 3.36813 76.337 4.13648 76.8488L4.22593 76.9075C5.14378 77.5183 6.06408 78.1084 7.04442 78.7327C10.8678 81.176 14.8222 83.6951 18.3086 87.519C18.3726 87.5893 18.4148 87.6768 18.4299 87.7708C18.4448 87.8646 18.4321 87.9609 18.3931 88.0476C18.354 88.1343 18.2904 88.2079 18.2102 88.2592C18.1299 88.3104 18.0363 88.3372 17.9409 88.3363L17.952 88.3326Z" fill="#1B5EC9"/>
<path d="M118.04 94.542C115.732 95.2999 116.651 98.0296 117.906 98.8022C120.158 100.184 122.728 100.964 125.368 101.066C121.571 100.736 117.747 101.264 114.181 102.61C113.163 102.995 112.017 103.655 111.967 104.742C111.913 105.892 113.116 106.658 114.179 107.104C117.926 108.667 121.947 109.467 126.005 109.456C122.586 108.727 119.051 108.727 115.631 109.456C114.067 109.792 112.237 110.638 112.161 112.233C112.105 113.424 113.109 114.396 114.145 114.983C118.904 117.672 123.957 111.612 129.359 112.472C125.797 112.336 123.161 116.628 119.653 117.261C117.637 117.628 115.22 118.568 115.05 120.607C114.949 121.811 115.767 122.946 116.805 123.565C117.844 124.185 119.072 124.388 120.271 124.554C124.865 125.206 129.508 125.431 134.143 125.228C135.592 125.158 136.804 125.389 138.123 124.787C139.442 124.184 140.747 123.142 140.93 121.704C141.114 120.265 140.167 118.184 138.719 118.113C140.346 117.594 141.777 116.962 142.376 115.364C142.975 113.766 142.298 111.216 140.612 110.936C143.838 110.379 146.013 104.738 140.2 102.884C141.851 101.919 143.731 100.538 143.559 98.6335C143.446 97.383 142.425 96.3916 141.318 95.795C138.941 94.5127 136.017 94.5347 133.395 94.1178C130.304 93.6288 127.095 93.6362 123.977 93.8293C121.988 93.9601 119.934 93.9149 118.04 94.542Z" fill="#1B5EC9"/>
<path d="M120.784 98.8078C120.651 98.8078 120.526 98.7563 120.432 98.6664C120.339 98.5766 120.287 98.4556 120.287 98.3286C120.287 98.2004 120.339 98.0794 120.432 97.9896C120.526 97.8997 120.651 97.8494 120.784 97.8494C122.647 97.8374 123.322 97.2504 123.321 96.8623C123.321 96.4083 122.512 95.7386 120.788 95.7386C120.655 95.7386 120.529 95.6871 120.436 95.5973C120.343 95.5074 120.291 95.3864 120.291 95.2595C120.291 95.1313 120.343 95.0103 120.436 94.9204C120.529 94.8306 120.655 94.7803 120.788 94.7803C123.098 94.7803 124.311 95.8249 124.315 96.8587C124.315 97.7464 123.397 98.7898 120.791 98.8078H120.784Z" fill="white"/>
<path d="M117.131 107.489C117.066 107.491 117.002 107.481 116.942 107.461C116.881 107.439 116.827 107.406 116.779 107.364C116.732 107.32 116.693 107.269 116.666 107.211C116.638 107.154 116.622 107.091 116.62 107.027C116.616 106.963 116.626 106.9 116.647 106.839C116.669 106.779 116.701 106.724 116.745 106.677C116.788 106.629 116.839 106.59 116.897 106.564C116.954 106.536 117.018 106.52 117.082 106.518C118.289 106.396 119.209 105.705 119.226 105.171C119.239 104.791 118.677 104.251 117.052 103.98C116.987 103.969 116.926 103.948 116.872 103.914C116.817 103.881 116.77 103.836 116.732 103.784C116.694 103.731 116.667 103.673 116.653 103.61C116.638 103.548 116.637 103.484 116.647 103.419C116.658 103.356 116.681 103.297 116.715 103.242C116.749 103.188 116.794 103.14 116.846 103.104C116.898 103.066 116.958 103.041 117.021 103.026C117.083 103.013 117.148 103.01 117.212 103.023C119.858 103.463 120.219 104.578 120.198 105.208C120.163 106.318 118.837 107.321 117.181 107.489C117.164 107.49 117.147 107.49 117.131 107.489Z" fill="white"/>
<path d="M117.997 114.918C117.868 114.918 117.746 114.866 117.655 114.775C117.564 114.683 117.514 114.558 117.514 114.428C117.514 114.299 117.564 114.174 117.655 114.082C117.746 113.991 117.868 113.939 117.997 113.939C119.068 113.939 119.73 113.636 119.767 113.127C119.805 112.618 119.252 111.88 118.549 111.773C118.423 111.751 118.311 111.681 118.237 111.577C118.162 111.473 118.131 111.343 118.15 111.217C118.168 111.09 118.236 110.975 118.337 110.898C118.439 110.821 118.566 110.788 118.692 110.805C119.84 110.98 120.811 112.121 120.731 113.2C120.703 113.603 120.416 114.918 117.997 114.918Z" fill="white"/>
<path d="M119.726 122.793C119.662 122.797 119.598 122.787 119.538 122.766C119.478 122.743 119.422 122.71 119.375 122.666C119.328 122.623 119.289 122.57 119.262 122.511C119.235 122.452 119.218 122.388 119.216 122.323C119.212 122.257 119.22 122.192 119.242 122.13C119.263 122.068 119.295 122.012 119.338 121.962C119.38 121.914 119.432 121.874 119.489 121.846C119.547 121.818 119.609 121.802 119.673 121.798C120.398 121.714 120.843 121.499 120.845 121.238C120.845 120.902 120.398 120.491 120.241 120.478C120.112 120.478 119.988 120.427 119.898 120.333C119.807 120.241 119.755 120.114 119.754 119.983C119.752 119.851 119.803 119.724 119.893 119.63C119.983 119.536 120.105 119.482 120.235 119.482H120.246C120.887 119.482 121.756 120.286 121.808 121.153C121.834 121.571 121.687 122.567 119.779 122.787C119.761 122.789 119.743 122.792 119.726 122.793Z" fill="white"/>
<path d="M134.172 102.561C134.148 102.56 134.123 102.559 134.1 102.555C131.878 102.233 130.393 102.087 128.671 101.917C127.655 101.816 126.603 101.713 125.285 101.562C125.155 101.546 125.038 101.482 124.957 101.382C124.877 101.28 124.84 101.152 124.855 101.025C124.869 100.899 124.935 100.782 125.037 100.702C125.138 100.623 125.268 100.586 125.397 100.602C126.708 100.753 127.755 100.855 128.768 100.955C130.501 101.126 131.998 101.274 134.242 101.6C134.306 101.604 134.368 101.621 134.425 101.65C134.484 101.678 134.535 101.717 134.577 101.766C134.619 101.814 134.651 101.87 134.671 101.93C134.692 101.99 134.7 102.054 134.695 102.117C134.69 102.181 134.673 102.243 134.645 102.299C134.616 102.356 134.577 102.407 134.528 102.449C134.479 102.49 134.423 102.522 134.362 102.542C134.301 102.563 134.236 102.57 134.172 102.566V102.561Z" fill="#181E32"/>
<path d="M137.251 110.891C137.21 110.891 137.168 110.885 137.129 110.875C134.941 110.31 123.509 109.236 120.039 109.078C119.974 109.075 119.911 109.06 119.854 109.033C119.795 109.006 119.743 108.969 119.7 108.922C119.656 108.875 119.623 108.821 119.601 108.761C119.579 108.702 119.569 108.639 119.573 108.576C119.575 108.512 119.591 108.451 119.618 108.393C119.645 108.336 119.684 108.285 119.73 108.242C119.778 108.2 119.834 108.166 119.894 108.145C119.955 108.123 120.018 108.113 120.083 108.117C123.184 108.258 135.021 109.337 137.377 109.945C137.492 109.974 137.591 110.043 137.658 110.141C137.724 110.237 137.752 110.355 137.737 110.47C137.722 110.587 137.665 110.692 137.576 110.769C137.487 110.847 137.373 110.89 137.255 110.891H137.251Z" fill="#181E32"/>
<path d="M137.065 118.408C137.004 118.408 136.945 118.396 136.887 118.374C136.2 118.154 127.137 116.973 123.868 117.315C123.739 117.327 123.61 117.289 123.51 117.205C123.409 117.122 123.346 117.001 123.333 116.87C123.319 116.739 123.358 116.608 123.441 116.506C123.522 116.404 123.64 116.338 123.769 116.326C127.176 115.971 136.57 117.156 137.261 117.453C137.366 117.496 137.451 117.577 137.504 117.677C137.557 117.778 137.574 117.895 137.55 118.007C137.529 118.119 137.468 118.219 137.381 118.292C137.294 118.364 137.184 118.403 137.072 118.403L137.065 118.408Z" fill="#181E32"/>
<path d="M129.316 125.926C128.04 125.926 124.435 125.605 120.225 125.025C118.929 124.848 117.675 124.633 116.568 123.976C115.246 123.193 114.462 121.856 114.571 120.566C114.779 118.098 118.398 116.716 121.892 116.441C121.956 116.436 122.021 116.443 122.082 116.463C122.143 116.482 122.201 116.514 122.25 116.557C122.299 116.598 122.339 116.649 122.369 116.705C122.397 116.762 122.415 116.826 122.42 116.889C122.425 116.954 122.418 117.018 122.398 117.079C122.377 117.14 122.346 117.196 122.304 117.245C122.262 117.293 122.211 117.333 122.153 117.363C122.095 117.392 122.033 117.41 121.969 117.415C118.383 117.698 115.683 119.059 115.548 120.652C115.459 121.695 116.249 122.652 117.07 123.139C118.02 123.703 119.168 123.897 120.36 124.06C125.11 124.714 128.734 124.995 129.523 124.947C129.587 124.943 129.652 124.952 129.712 124.973C129.774 124.994 129.83 125.027 129.879 125.068C129.927 125.111 129.966 125.163 129.994 125.22C130.022 125.277 130.04 125.341 130.043 125.404C130.047 125.469 130.038 125.532 130.017 125.593C129.997 125.654 129.964 125.71 129.921 125.757C129.878 125.806 129.826 125.845 129.769 125.873C129.71 125.901 129.647 125.917 129.583 125.922C129.511 125.924 129.422 125.926 129.316 125.926Z" fill="#181E32"/>
<path d="M117.282 116.617C117.1 116.617 115.971 116.567 113.937 115.41C112.464 114.57 111.64 113.395 111.698 112.19C111.801 109.973 114.438 109.176 115.567 108.932C115.63 108.919 115.695 108.918 115.758 108.93C115.821 108.941 115.882 108.966 115.936 109C115.99 109.036 116.037 109.081 116.074 109.134C116.111 109.189 116.137 109.248 116.15 109.312C116.164 109.374 116.164 109.44 116.152 109.504C116.14 109.568 116.117 109.628 116.081 109.682C116.046 109.737 116 109.783 115.948 109.82C115.895 109.857 115.835 109.883 115.772 109.897C115.065 110.048 112.753 110.666 112.679 112.237C112.622 113.436 113.998 114.314 114.422 114.554C116.286 115.615 117.274 115.633 117.284 115.633C117.414 115.631 117.539 115.681 117.633 115.772C117.726 115.863 117.779 115.989 117.781 116.12C117.783 116.25 117.732 116.376 117.641 116.469C117.551 116.563 117.427 116.616 117.296 116.618L117.282 116.617Z" fill="#181E32"/>
<path d="M118.003 108.91C117.987 108.911 117.971 108.911 117.955 108.91C112.733 108.404 111.462 105.947 111.519 104.718C111.537 104.363 111.764 103.12 113.951 102.07C115.986 101.097 119.038 100.598 123.021 100.598C123.151 100.598 123.275 100.649 123.366 100.74C123.458 100.832 123.511 100.956 123.511 101.085C123.511 101.213 123.458 101.336 123.366 101.428C123.275 101.52 123.151 101.571 123.021 101.571C118.244 101.571 115.683 102.319 114.377 102.945C112.927 103.641 112.514 104.415 112.497 104.769C112.449 105.786 113.914 107.547 118.049 107.948C118.179 107.954 118.3 108.011 118.388 108.106C118.475 108.202 118.522 108.329 118.515 108.458C118.509 108.587 118.452 108.707 118.355 108.795C118.259 108.881 118.133 108.927 118.003 108.921V108.91Z" fill="#181E32"/>
<path d="M133.221 125.926H131.252C131.122 125.926 130.997 125.875 130.905 125.782C130.813 125.69 130.76 125.565 130.76 125.434C130.76 125.304 130.813 125.178 130.905 125.086C130.997 124.994 131.122 124.942 131.252 124.942H133.221C133.353 124.942 133.477 124.994 133.569 125.086C133.662 125.178 133.713 125.304 133.713 125.434C133.713 125.565 133.662 125.69 133.569 125.782C133.477 125.875 133.353 125.926 133.221 125.926Z" fill="#181E32"/>
<path d="M138.2 102.92C138.18 102.921 138.16 102.921 138.14 102.92C137.558 102.856 136.973 102.841 136.389 102.874C136.324 102.877 136.258 102.869 136.197 102.849C136.135 102.829 136.078 102.8 136.03 102.76C135.98 102.72 135.94 102.672 135.912 102.617C135.883 102.563 135.866 102.505 135.862 102.444C135.858 102.385 135.867 102.324 135.888 102.267C135.909 102.21 135.943 102.157 135.986 102.113C136.03 102.068 136.082 102.03 136.14 102.004C136.2 101.978 136.263 101.963 136.329 101.959C136.971 101.923 137.617 101.939 138.257 102.01C138.321 102.013 138.386 102.028 138.444 102.054C138.502 102.081 138.556 102.117 138.599 102.162C138.643 102.206 138.676 102.259 138.697 102.316C138.718 102.372 138.728 102.433 138.725 102.493C138.721 102.553 138.703 102.612 138.675 102.666C138.646 102.72 138.607 102.769 138.558 102.809C138.51 102.849 138.453 102.88 138.391 102.899C138.33 102.919 138.264 102.928 138.2 102.924V102.92Z" fill="#181E32"/>
</g>
<defs>
<clipPath id="clip0_89_4765">
<rect width="179" height="179" fill="white"/>
</clipPath>
</defs>
</svg>
