<svg width="161" height="160" viewBox="0 0 161 160" fill="none" xmlns="http://www.w3.org/2000/svg">
<g clip-path="url(#clip0_30_7538)">
<path d="M80.3214 112.929C78.6787 105.175 73.9091 94.2743 68.0349 88.8726C64.5229 86.1774 59.8485 85.522 56.0645 83.227C51.6949 80.5761 48.6156 75.8104 43.7452 74.2615C37.8472 72.3884 31.8654 72.7989 25.3229 73.1685C22.2719 73.3408 22.9018 71.5811 23.7979 71.3929C27.5683 70.5889 31.1041 69.9959 34.3069 69.8145C35.5531 69.7442 37.3102 69.9143 36.0063 67.3404L32.2076 54.1241C31.3352 51.5037 31.4213 50.0421 33.2113 50.1283C34.2638 50.1816 34.8677 51.32 35.2597 52.2997L38.9654 61.5407C39.7947 64.6021 40.1969 62.3185 40.5912 61.679L41.519 60.1732C42.124 59.1924 43.6546 59.6517 43.5968 60.8025C43.5968 60.8105 43.5968 60.8195 43.5968 60.8275C43.5401 61.6813 43.0892 62.458 42.9068 63.2936C42.397 65.6339 44.0284 67.8688 45.6814 69.6014C47.7319 72.8896 69.6652 88.2251 70.8321 80.9196C73.1059 68.4743 53.8078 65.2201 52.2727 55.0969C52.1276 54.1445 53.4056 53.6932 53.8848 54.53C57.0796 60.1199 58.9954 60.8218 61.609 61.3717C63.8952 61.8525 63.356 60.578 63.0297 59.6483C58.992 48.1826 57.4172 32.6044 64.7177 22.5798C65.7623 21.1444 68.1697 21.9993 67.1173 23.4291C64.7177 26.6912 62.4848 32.6373 64.285 31.9932C66.0976 30.5192 67.6475 28.5757 69.6346 27.3761C70.55 27.1629 71.3023 28.2979 71.1323 29.222C70.9624 30.1461 68.9322 29.5622 67.2543 31.8798C62.7057 38.1467 62.504 48.161 65.9662 55.2829C66.4103 56.19 66.2619 57.5835 68.3 55.5493C75.3762 48.4808 77.7112 27.1369 88.0977 22.9892C88.6151 22.7776 89.1887 22.747 89.7257 22.9021C90.2627 23.0572 90.7318 23.3892 91.0569 23.8441C91.4183 24.3646 91.5622 24.9938 91.3186 25.5925C91.0637 26.2207 89.2114 26.2842 88.6687 26.6901C78.4306 33.6328 80.4811 44.7674 74.7441 53.9199C71.2796 57.9871 67.5784 61.3513 71.0371 66.5932L77.7689 79.449C78.3682 80.5942 79.0151 81.7859 80.0812 82.5104C88.918 86.784 94.2653 67.8643 88.918 62.9115C87.2061 60.984 84.6752 60.0054 82.7062 58.3398C81.3308 57.1674 80.25 55.3044 80.2761 53.5934C80.2908 52.6001 81.5064 52.1194 82.2156 52.819C96.6184 66.9356 83.8459 40.9134 94.3741 29.0633C95.0459 28.3059 96.3204 28.7606 96.317 29.772C96.317 30.9954 94.6177 32.0397 94.0682 34.558C94.0303 34.741 94.0453 34.931 94.1114 35.1057C94.1774 35.2804 94.292 35.4327 94.4414 35.5446C94.5908 35.6566 94.769 35.7236 94.9552 35.7379C95.1413 35.7521 95.3276 35.713 95.4923 35.625L96.5119 35.0762C97.1157 34.7496 97.8873 35.574 97.3673 36.0218C92.7654 39.9824 93.0089 46.1507 95.0765 50.9719C95.179 51.2092 95.3325 51.4209 95.526 51.5921C95.7195 51.7633 95.9484 51.8898 96.1963 51.9624C96.444 52.0352 96.705 52.0525 96.9602 52.0129C97.2154 51.9734 97.4588 51.8782 97.6731 51.7339L97.6913 51.7214C101.346 49.27 106.437 48.2835 110.087 50.7417C111.506 51.6976 112.503 54.022 111.065 54.9495C109.706 55.8294 108.133 54.3077 106.716 53.5197C103.595 51.7849 99.4881 53.988 97.8159 57.1481C94.4908 63.4172 93.4372 78.7551 93.325 77.755C93.5867 80.0806 96.001 76.7458 98.0606 75.6006C98.2134 75.5174 98.3857 75.4767 98.5597 75.4829C98.7336 75.4891 98.9026 75.542 99.0491 75.6359C99.1956 75.7299 99.3142 75.8617 99.3923 76.0172C99.4706 76.1728 99.5056 76.3465 99.4937 76.5202C99.2377 79.5703 92.3677 82.5683 92.1751 90.0132C92.1711 90.1955 92.2145 90.3755 92.301 90.5358C92.3874 90.6962 92.514 90.8312 92.6683 90.9279C92.8224 91.0247 92.9992 91.0795 93.181 91.0874C93.363 91.0952 93.5437 91.0556 93.7057 90.9725C107.628 83.8779 110.181 60.366 127.214 58.1935C128.168 58.0949 129.36 58.2014 129.492 59.4408C129.579 60.2617 129.097 61.0191 128.359 61.3933C127.318 61.9217 126.255 63.9842 127.464 64.559C135.771 60.8456 148.054 59.8875 155.847 65.1146C156.081 65.2665 156.265 65.483 156.377 65.7379C156.491 65.9928 156.527 66.275 156.482 66.5501C156.323 67.4187 155.391 67.9107 154.355 67.3347L147.731 64.7949C147.658 64.7672 147.58 64.7618 147.504 64.7796C147.428 64.7973 147.36 64.8373 147.308 64.8944C147.256 64.9515 147.222 65.023 147.211 65.0997C147.2 65.1764 147.211 65.2547 147.245 65.3244C147.698 66.2462 147.811 67.2883 146.889 67.6273C146.658 67.7069 146.41 67.7279 146.169 67.6883C145.927 67.6487 145.698 67.5498 145.505 67.4005C141.338 64.3493 135.395 64.025 130.897 66.5365C129.251 67.4561 127.737 68.7419 125.883 69.0854C124.456 69.3485 122.688 67.8677 121.997 66.312C121.912 66.1251 121.789 65.957 121.639 65.8173C121.489 65.6775 121.312 65.569 121.119 65.498C120.926 65.4269 120.721 65.3948 120.516 65.4033C120.311 65.4119 120.109 65.461 119.924 65.5478C116.561 67.0819 113.693 70.5368 111.845 73.6334C111.767 73.765 111.729 73.9163 111.735 74.0691C111.741 74.222 111.791 74.3697 111.879 74.4948C111.967 74.6198 112.089 74.7168 112.231 74.7739C112.372 74.8312 112.527 74.8462 112.677 74.8171C124.481 72.3669 126.084 81.9718 118.368 79.8515C116.814 79.2766 115.206 78.3673 113.604 78.7902C112.211 79.1576 111.277 80.4287 110.459 81.6147C106.311 87.6318 102.161 93.6484 98.0119 99.6647C97.4454 100.487 96.8642 101.344 96.7056 102.329C96.5323 103.4 96.879 104.484 97.2177 105.51C101.626 118.835 101.052 121.67 97.4443 132.737C96.6822 135.07 96.4754 137.547 96.8405 139.974C97.3231 143.162 98.3212 146.303 99.3249 149.431C100.473 153.006 98.4424 156.713 94.8239 157.7C89.6974 159.098 84.324 159.819 81.0839 158.805C79.8694 158.351 77.4585 157.117 76.5182 156.185C72.8056 151.063 75.5394 144.353 76.6666 138.542C78.5892 130.16 81.648 121.641 80.3214 112.929Z" fill="#F2DFE7"/>
<path d="M83.4147 125.278C83.3939 125.281 83.373 125.281 83.3522 125.278C83.2331 125.261 83.1254 125.199 83.0528 125.103C82.9802 125.008 82.9485 124.888 82.9646 124.77C83.7966 118.741 83.5147 112.931 82.1282 107.502C80.4416 100.896 77.09 94.8091 73.8499 88.9338C73.8167 88.8817 73.7945 88.8233 73.7849 88.7623C73.7752 88.7013 73.7781 88.639 73.7936 88.5792C73.8092 88.5193 73.8368 88.4634 73.8749 88.4146C73.9131 88.3659 73.9608 88.3253 74.0152 88.2956C74.0697 88.266 74.1297 88.2477 74.1915 88.242C74.2534 88.2362 74.3157 88.2431 74.3748 88.2622C74.4339 88.2814 74.4883 88.3124 74.5348 88.3533C74.5814 88.3942 74.619 88.4441 74.6454 88.4999C77.914 94.4317 81.2928 100.567 83.0078 107.279C84.4239 112.823 84.7126 118.748 83.8636 124.892C83.8478 124.999 83.7938 125.098 83.7114 125.168C83.629 125.239 83.5237 125.278 83.4147 125.278Z" fill="#1B5EC9"/>
<path d="M87.4867 115.2C87.3717 115.2 87.261 115.158 87.1767 115.082C87.0923 115.005 87.0406 114.9 87.032 114.788C86.861 112.569 86.421 110.379 85.7214 108.264C85.6842 108.151 85.694 108.028 85.7488 107.924C85.8036 107.818 85.8988 107.739 86.0135 107.702C86.1282 107.665 86.253 107.675 86.3604 107.729C86.468 107.782 86.5492 107.876 86.5864 107.988C87.3089 110.172 87.7625 112.432 87.9379 114.721C87.9424 114.78 87.9352 114.838 87.9165 114.893C87.8979 114.949 87.8682 115 87.8292 115.045C87.7903 115.09 87.7429 115.126 87.6894 115.152C87.6361 115.179 87.578 115.194 87.5185 115.199L87.4867 115.2Z" fill="#1B5EC9"/>
<path d="M88.1928 146.56C88.0793 146.561 87.9693 146.521 87.8839 146.447C87.7984 146.375 87.7433 146.272 87.7291 146.162C87.0335 140.785 88.376 135.407 89.6767 130.206C89.854 129.496 90.0372 128.763 90.2111 128.046C91.6393 122.156 92.656 115.94 90.4348 110.381C90.4127 110.325 90.4018 110.266 90.403 110.206C90.4041 110.147 90.4173 110.088 90.4417 110.033C90.466 109.978 90.5011 109.928 90.5451 109.887C90.5889 109.845 90.6407 109.814 90.6974 109.792C90.7541 109.769 90.8147 109.759 90.8756 109.76C90.9364 109.761 90.9965 109.774 91.0524 109.798C91.1081 109.821 91.1587 109.857 91.2009 109.9C91.2431 109.942 91.2763 109.993 91.2985 110.049C93.617 115.847 92.5737 122.223 91.1142 128.256C90.9391 128.978 90.7548 129.712 90.5774 130.424C89.3022 135.54 87.9737 140.84 88.6484 146.048C88.6563 146.108 88.6521 146.168 88.6361 146.226C88.6202 146.284 88.5927 146.337 88.5555 146.385C88.5183 146.432 88.4718 146.471 88.419 146.501C88.3661 146.53 88.3078 146.55 88.2473 146.558L88.1928 146.56Z" fill="#1B5EC9"/>
<path d="M84.766 137.6C84.6583 137.6 84.5547 137.556 84.4764 137.478C84.3981 137.399 84.3512 137.29 84.3452 137.176C84.2894 136.091 84.6819 134.696 85.028 133.465C85.1511 133.03 85.2658 132.621 85.3489 132.267C85.3616 132.209 85.3849 132.155 85.4176 132.106C85.4503 132.057 85.4917 132.017 85.5394 131.986C85.587 131.955 85.64 131.934 85.6952 131.925C85.7505 131.916 85.8068 131.919 85.861 131.933C85.9152 131.947 85.9662 131.973 86.011 132.009C86.0557 132.045 86.0934 132.09 86.1217 132.141C86.1501 132.192 86.1685 132.249 86.1761 132.309C86.1835 132.367 86.1799 132.428 86.1654 132.485C86.0781 132.858 85.955 133.278 85.835 133.719C85.5078 134.879 85.1375 136.194 85.1859 137.122C85.1889 137.181 85.1809 137.24 85.1626 137.296C85.1442 137.351 85.1157 137.402 85.0787 137.446C85.0418 137.49 84.9972 137.526 84.9473 137.551C84.8975 137.576 84.8434 137.591 84.7881 137.594L84.766 137.6Z" fill="#1B5EC9"/>
<path d="M82.0303 136.16C81.9543 136.16 81.8793 136.145 81.8113 136.116C81.7535 136.092 81.702 136.058 81.6595 136.016C81.6171 135.975 81.5847 135.927 81.5643 135.875C81.5439 135.823 81.5357 135.768 81.5403 135.713C81.545 135.658 81.5622 135.605 81.5911 135.556L81.8052 135.191C81.8635 135.092 81.9659 135.017 82.0898 134.982C82.2137 134.946 82.349 134.955 82.4659 135.004C82.5829 135.053 82.672 135.14 82.7136 135.245C82.755 135.35 82.7457 135.465 82.6874 135.564L82.472 135.928C82.4313 135.998 82.3682 136.057 82.2902 136.097C82.2122 136.139 82.1221 136.16 82.0303 136.16Z" fill="#1B5EC9"/>
<path d="M79.081 149.28C78.9767 149.281 78.8754 149.242 78.7957 149.172C78.7162 149.1 78.6638 149.002 78.6481 148.894C78.2513 146.126 78.3729 143.304 79.0063 140.585C79.0339 140.468 79.1046 140.367 79.203 140.305C79.3014 140.243 79.4192 140.224 79.5307 140.254C79.6423 140.282 79.7383 140.356 79.7976 140.459C79.857 140.563 79.8748 140.686 79.8472 140.803C79.2412 143.406 79.1246 146.107 79.5042 148.756C79.5213 148.876 79.4926 148.997 79.4243 149.094C79.3561 149.19 79.2541 149.255 79.1405 149.273C79.121 149.278 79.101 149.28 79.081 149.28Z" fill="#1B5EC9"/>
<path d="M83.2497 95.2799C83.1583 95.28 83.069 95.2516 82.9941 95.1986C82.919 95.1455 82.8619 95.0703 82.8304 94.9832C82.0285 92.7767 81.2768 90.5169 80.5998 88.2662C80.5826 88.2094 80.5766 88.1496 80.582 88.0903C80.5876 88.0311 80.6046 87.9734 80.632 87.9209C80.6595 87.8683 80.6969 87.8218 80.7421 87.7838C80.7872 87.7459 80.8393 87.7173 80.8953 87.6999C80.9513 87.6824 81.0102 87.6763 81.0685 87.682C81.1269 87.6875 81.1836 87.7047 81.2354 87.7326C81.2871 87.7606 81.333 87.7985 81.3703 87.8444C81.4077 87.8903 81.4358 87.9432 81.453 88C82.1288 90.2349 82.8761 92.4788 83.6724 94.6694C83.6927 94.7252 83.702 94.7846 83.6997 94.8442C83.6974 94.9036 83.6837 94.9621 83.659 95.0161C83.6345 95.0703 83.5997 95.1189 83.5567 95.1593C83.5136 95.1996 83.4631 95.231 83.4081 95.2516C83.3575 95.2708 83.3038 95.2803 83.2497 95.2799Z" fill="#1B5EC9"/>
<path d="M95.2425 114.88C95.1268 114.88 95.0152 114.838 94.93 114.761C94.8448 114.683 94.7921 114.576 94.7826 114.463C94.2354 108.095 91.5832 102.151 89.0196 96.3985C88.9704 96.2881 88.9674 96.1629 89.0116 96.0505C89.0556 95.938 89.1431 95.8474 89.2547 95.7987C89.3663 95.7501 89.4929 95.7471 89.6066 95.7908C89.7203 95.8343 89.8119 95.9209 89.8611 96.0313C92.4558 101.853 95.1378 107.871 95.6988 114.387C95.7091 114.507 95.6706 114.626 95.5918 114.719C95.5132 114.811 95.4008 114.868 95.2792 114.878L95.2425 114.88Z" fill="#1B5EC9"/>
<path d="M95.1278 128H95.0694C94.9465 127.985 94.8347 127.922 94.7586 127.827C94.6826 127.731 94.6485 127.609 94.6637 127.489L95.2483 122.881C95.2637 122.761 95.3275 122.651 95.4255 122.576C95.5235 122.502 95.6477 122.469 95.7708 122.483C95.8939 122.498 96.0058 122.561 96.0818 122.658C96.1579 122.754 96.192 122.876 96.1765 122.996L95.592 127.603C95.5766 127.713 95.5211 127.814 95.4358 127.888C95.3504 127.96 95.241 128 95.1278 128Z" fill="#1B5EC9"/>
<path d="M54.0237 89.424L52.3789 85.7572C52.2021 85.363 51.761 85.2187 51.3461 85.338C49.9982 85.7276 49.2207 85.8401 48.163 86.1025C47.898 86.1688 47.6185 86.1439 47.3693 86.0318C47.12 85.9198 46.9157 85.7269 46.7891 85.4845C45.0728 82.1903 42.444 79.7435 38.8697 78.5462C34.9724 77.241 30.2033 78.2849 27.7275 81.5712C25.7062 84.2554 25.4897 87.9325 26.4476 91.1915C26.4962 91.3585 26.5103 91.5338 26.4889 91.7065C26.4676 91.8792 26.411 92.0457 26.323 92.1958C26.2349 92.3459 26.1173 92.4761 25.9771 92.5789C25.8368 92.6816 25.6772 92.7546 25.5079 92.7932C24.9864 92.9136 24.4682 93.0454 23.9537 93.1885C23.4061 93.3396 22.0469 93.4884 21.7125 94.0143C21.3781 94.5403 22.0345 95.8614 22.2295 96.3873C22.5528 97.2549 22.9526 98.092 23.4243 98.8887C23.6963 99.3498 24.0149 99.8167 24.4933 100.056C25.1734 100.397 25.984 100.197 26.7151 99.9894C35.3063 97.5517 43.8583 94.9768 52.3709 92.265C53.2189 91.9958 54.2119 91.5596 54.3286 90.6747C54.3853 90.2475 54.2028 89.8227 54.0237 89.424ZM39.4161 88.9469L32.3877 91.1393C31.3187 91.4721 30.8324 91.5266 30.5558 90.3339C30.2883 89.1741 30.091 87.987 30.1454 86.792C30.2259 85.0574 30.9162 83.2626 32.3366 82.2675C33.8001 81.2452 35.8056 81.2452 37.4674 81.8995C39.1293 82.5538 40.5021 83.7818 41.723 85.0892C42.436 85.8514 43.1377 86.7079 43.2919 87.7417C43.301 87.8314 39.7437 88.8458 39.4161 88.9469Z" fill="#1B5EC9"/>
<path d="M28.5998 100.32C28.5089 100.32 28.4201 100.293 28.3445 100.244C28.269 100.194 28.2102 100.124 28.1754 100.041C27.7597 99.0412 27.4188 98.0126 27.1552 96.9638C27.1401 96.9064 27.1367 96.8467 27.1452 96.788C27.1536 96.7294 27.1737 96.6729 27.2044 96.6219C27.2351 96.5708 27.2758 96.5263 27.3241 96.4906C27.3723 96.455 27.4273 96.429 27.4859 96.4142C27.5444 96.3994 27.6054 96.3961 27.6652 96.4043C27.7251 96.4126 27.7827 96.4324 27.8347 96.4625C27.8868 96.4926 27.9323 96.5324 27.9687 96.5797C28.005 96.627 28.0315 96.6809 28.0465 96.7383C28.299 97.7453 28.6261 98.7328 29.0253 99.6931C29.0485 99.7478 29.0605 99.8064 29.0606 99.8657C29.0606 99.9249 29.0489 99.9836 29.0258 100.038C29.0027 100.093 28.9688 100.143 28.9262 100.185C28.8835 100.227 28.8328 100.26 28.7769 100.283C28.721 100.306 28.6607 100.319 28.5998 100.32Z" fill="#181E32"/>
<path d="M32.2098 99.6C32.1166 99.6 32.0257 99.5711 31.9496 99.5172C31.8736 99.4634 31.8161 99.3873 31.7852 99.2996L30.6057 95.96C30.586 95.9042 30.5776 95.8451 30.5807 95.7861C30.5839 95.727 30.5987 95.6691 30.6243 95.6158C30.6499 95.5625 30.6857 95.5148 30.7298 95.4752C30.7738 95.4357 30.8253 95.4053 30.8812 95.3856C30.9369 95.3659 30.9962 95.3575 31.0552 95.3606C31.1143 95.3639 31.1722 95.3786 31.2256 95.4042C31.3336 95.4558 31.4165 95.5481 31.4562 95.6607L32.6345 99.0003C32.6742 99.1128 32.6674 99.2364 32.6159 99.344C32.5644 99.4516 32.4722 99.5344 32.3597 99.5741C32.3115 99.5909 32.2608 99.5997 32.2098 99.6Z" fill="#181E32"/>
<path d="M36.1972 98.4799C36.0996 98.4798 36.0046 98.4494 35.9257 98.3931C35.8469 98.3368 35.7882 98.2574 35.7581 98.1665C35.4463 97.2223 34.996 96.3275 34.4213 95.5102C34.3518 95.4111 34.3252 95.2891 34.3476 95.1708C34.3699 95.0526 34.4392 94.9479 34.5403 94.8798C34.6414 94.8116 34.7661 94.7856 34.8868 94.8075C35.0075 94.8293 35.1143 94.8972 35.1839 94.9964C35.8084 95.8864 36.2981 96.8604 36.6374 97.8881C36.6598 97.956 36.6656 98.0282 36.654 98.0987C36.6425 98.1693 36.6142 98.2361 36.5712 98.2939C36.5283 98.3516 36.4721 98.3986 36.407 98.4309C36.342 98.4632 36.2701 98.48 36.1972 98.4799Z" fill="#181E32"/>
<path d="M39.5415 97.28C39.4447 97.2799 39.3504 97.2517 39.2707 97.199C39.1911 97.1464 39.13 97.072 39.0954 96.9853L38.0514 94.3833C38.0288 94.3271 38.018 94.2672 38.0197 94.2069C38.0214 94.1467 38.0354 94.0873 38.0608 94.0323C38.0864 93.9773 38.123 93.9276 38.1686 93.8861C38.2142 93.8446 38.2677 93.8121 38.3264 93.7904C38.385 93.7689 38.4476 93.7586 38.5104 93.7602C38.5733 93.7617 38.6351 93.7751 38.6925 93.7996C38.7499 93.824 38.8018 93.8591 38.845 93.9028C38.8883 93.9465 38.9221 93.998 38.9447 94.0542L39.9875 96.6562C40.0331 96.7697 40.0299 96.8958 39.9786 97.007C39.9273 97.1182 39.832 97.2052 39.7137 97.249C39.6587 97.2693 39.6003 97.2798 39.5415 97.28Z" fill="#181E32"/>
<path d="M43.5607 96.64C43.473 96.64 43.3871 96.6149 43.3133 96.5678C43.2394 96.5207 43.1806 96.4535 43.1437 96.3741L41.7422 93.3726C41.6907 93.2622 41.6852 93.136 41.727 93.0216C41.7689 92.9073 41.8544 92.8142 41.9651 92.7629C42.0757 92.7115 42.2022 92.706 42.3168 92.7477C42.4314 92.7894 42.5247 92.8748 42.5762 92.9852L43.9766 95.9879C44.0278 96.098 44.0331 96.2241 43.9914 96.3381C43.9496 96.4522 43.8641 96.5451 43.7537 96.5964C43.6934 96.6251 43.6274 96.64 43.5607 96.64Z" fill="#181E32"/>
<path d="M46.8373 95.6799C46.7468 95.6797 46.6583 95.6531 46.5828 95.6033C46.5073 95.5535 46.448 95.4829 46.4125 95.4L45.0234 92.1745C44.9974 92.1187 44.9829 92.0581 44.9807 91.9965C44.9786 91.9348 44.989 91.8734 45.0112 91.8158C45.0333 91.7583 45.0669 91.7057 45.1098 91.6614C45.1527 91.6169 45.2041 91.5814 45.2611 91.5572C45.318 91.5329 45.3793 91.5202 45.4413 91.5199C45.5033 91.5197 45.5646 91.5318 45.6218 91.5555C45.679 91.5792 45.7307 91.6141 45.7741 91.6581C45.8175 91.7021 45.8516 91.7543 45.8742 91.8117L47.2633 95.0371C47.2934 95.1072 47.3054 95.1836 47.2986 95.2596C47.2917 95.3354 47.266 95.4084 47.2238 95.472C47.1816 95.5356 47.1242 95.5877 47.0567 95.6238C46.9893 95.6599 46.914 95.6787 46.8373 95.6787V95.6799Z" fill="#181E32"/>
<path d="M49.963 94.08C49.8803 94.0801 49.7992 94.0579 49.7283 94.0158C49.6574 93.9737 49.5995 93.9133 49.5609 93.8412C48.9304 92.6598 48.3045 91.4493 48.1864 90.7667C48.1657 90.6491 48.1933 90.5283 48.263 90.4308C48.3326 90.3331 48.4387 90.2669 48.5578 90.2466C48.677 90.2262 48.7994 90.2534 48.8983 90.3222C48.9972 90.3909 49.0642 90.4955 49.0849 90.6131C49.1883 91.2128 49.955 92.6486 50.3674 93.4209C50.4235 93.5259 50.4349 93.6488 50.3994 93.7622C50.3638 93.8758 50.2841 93.9707 50.1777 94.0262C50.1116 94.061 50.0379 94.0794 49.963 94.08Z" fill="#181E32"/>
<path d="M108.648 42.7999H108.616C108.496 42.7915 108.384 42.7366 108.305 42.647C108.227 42.5573 108.187 42.4405 108.196 42.3221C108.361 39.9393 108.344 37.5477 108.143 35.1676C108.142 35.0181 108.103 34.8711 108.03 34.7401C107.943 34.7994 107.866 34.8728 107.804 34.9572C106.014 37.0825 104.547 39.4543 103.45 41.9976C103.403 42.1069 103.314 42.193 103.202 42.2373C103.091 42.2816 102.966 42.2803 102.855 42.2337C102.745 42.1871 102.658 42.099 102.613 41.9889C102.568 41.8787 102.569 41.7555 102.616 41.6463C103.748 39.023 105.26 36.577 107.107 34.3854C107.245 34.2198 107.613 33.7834 108.147 33.8461C108.388 33.8752 108.96 34.0542 109.053 35.0926C109.257 37.5181 109.274 39.9554 109.105 42.3837C109.097 42.4976 109.045 42.6042 108.96 42.6817C108.875 42.759 108.763 42.8013 108.648 42.7999Z" fill="#1B5EC9"/>
<path d="M110.434 39.6798H110.413L103.574 39.3835C103.514 39.3808 103.456 39.3677 103.402 39.3445C103.348 39.3214 103.299 39.2889 103.259 39.2487C103.219 39.2087 103.188 39.1619 103.167 39.111C103.147 39.0599 103.138 39.0059 103.141 38.9519C103.144 38.8979 103.159 38.8449 103.184 38.7959C103.21 38.7471 103.246 38.7031 103.29 38.6668C103.335 38.6304 103.386 38.6023 103.443 38.5841C103.499 38.5658 103.559 38.5578 103.619 38.5604L110.456 38.8567C110.577 38.8593 110.691 38.9052 110.775 38.9842C110.858 39.0632 110.903 39.1689 110.901 39.2781C110.898 39.3872 110.847 39.4908 110.759 39.5662C110.672 39.6415 110.555 39.6824 110.434 39.6798Z" fill="#1B5EC9"/>
<path d="M117.522 42.3999C117.405 42.4 117.291 42.3535 117.207 42.2703C117.123 42.1871 117.074 42.0737 117.069 41.954C117.017 40.333 117.198 38.7129 117.609 37.1454C117.623 37.0865 117.65 37.0313 117.686 36.9828C117.722 36.9343 117.767 36.8935 117.819 36.8629C117.87 36.8322 117.928 36.8122 117.987 36.8041C118.046 36.7959 118.106 36.7998 118.164 36.8155C118.221 36.8312 118.276 36.8583 118.323 36.8954C118.371 36.9323 118.411 36.9786 118.44 37.0313C118.471 37.0841 118.49 37.1423 118.497 37.2026C118.505 37.2629 118.5 37.3241 118.484 37.3828C118.097 38.8631 117.926 40.3931 117.974 41.924C117.977 41.9846 117.967 42.0449 117.946 42.1016C117.925 42.1583 117.893 42.2103 117.852 42.2544C117.811 42.2986 117.763 42.3342 117.708 42.3592C117.654 42.3841 117.596 42.3981 117.536 42.3999H117.522Z" fill="#1B5EC9"/>
<path d="M119.482 40.1576C119.451 40.1576 119.42 40.1539 119.39 40.1468C118.103 39.87 116.786 39.7883 115.478 39.9039C115.418 39.909 115.357 39.9016 115.3 39.8819C115.242 39.8624 115.189 39.8309 115.143 39.7895C115.097 39.748 115.059 39.6973 115.031 39.6404C115.004 39.5836 114.987 39.5214 114.982 39.4576C114.977 39.3938 114.984 39.3296 115.003 39.2687C115.021 39.2077 115.051 39.1512 115.09 39.1026C115.129 39.0537 115.177 39.0137 115.23 38.9844C115.284 38.9553 115.344 38.9375 115.403 38.9324C116.798 38.8111 118.203 38.9006 119.573 39.1984C119.685 39.2223 119.784 39.2892 119.852 39.3862C119.919 39.4833 119.95 39.6033 119.938 39.7231C119.927 39.8429 119.874 39.9541 119.79 40.0348C119.705 40.1156 119.595 40.1601 119.482 40.16V40.1576Z" fill="#1B5EC9"/>
<path d="M127.478 43.1999C126.03 43.1999 124.921 42.6867 124.391 41.7572C124.006 41.0798 123.993 40.2951 124.032 39.6177C124.032 39.5869 124.032 39.5561 124.037 39.5253C123.957 39.5618 123.877 39.6006 123.799 39.6394C123.692 39.6942 123.568 39.704 123.454 39.6666C123.339 39.6292 123.244 39.5475 123.19 39.4398C123.136 39.3319 123.126 39.2067 123.163 39.0916C123.2 38.9765 123.282 38.881 123.388 38.8262C123.631 38.7011 123.882 38.5922 124.14 38.5C124.362 36.9023 124.853 35.3547 125.593 33.9244C125.648 33.8171 125.744 33.7367 125.858 33.7006C125.974 33.6646 126.098 33.6759 126.205 33.7322C126.311 33.7885 126.39 33.8851 126.426 34.0006C126.461 34.1162 126.45 34.2413 126.395 34.3487C125.762 35.5676 125.325 36.8793 125.096 38.2354C126.598 37.9348 128.156 38.1563 129.517 38.8638C130.322 39.2904 130.802 39.8264 130.941 40.4605C131.108 41.2189 130.735 42.0663 130.012 42.5692C129.362 43.0254 128.593 43.1326 127.994 43.1794C127.819 43.1897 127.646 43.1999 127.478 43.1999ZM124.97 39.198C124.956 39.3554 124.943 39.5116 124.934 39.669C124.904 40.2142 124.908 40.8334 125.176 41.3033C125.774 42.3526 127.431 42.3081 127.924 42.2693C128.645 42.2123 129.13 42.0731 129.498 41.8131C129.837 41.577 130.159 41.1129 130.058 40.6532C129.978 40.2963 129.656 39.9689 129.096 39.6701C127.825 39.0093 126.357 38.8402 124.97 39.1946V39.198Z" fill="#1B5EC9"/>
<path d="M133.483 5.17463C133.194 5.6213 132.886 6.08724 132.421 6.34685C131.837 6.67222 131.126 6.61327 130.458 6.57359C126.999 6.3888 123.401 7.14043 120.615 9.19012C117.829 11.2398 115.99 14.7043 116.396 18.1303C116.572 19.6256 117.151 21.0473 117.852 22.3805C118.569 23.7409 119.438 25.0571 120.63 26.0343C121.934 27.1045 123.558 27.7167 125.196 28.1282C130.143 29.3753 135.828 28.7427 139.631 25.3552C143.433 21.9678 144.494 15.4843 141.067 11.7194C140.22 10.7897 139.069 9.83178 139.221 8.587C139.284 8.07571 139.569 7.62224 139.848 7.18804C140.92 5.51587 142.637 3.90037 142.381 2.49234C142.2 1.50378 138.453 0.076475 137.968 0.01639C136.553 -0.162731 136.056 1.16367 135.42 2.17038C134.784 3.17709 134.128 4.17246 133.483 5.17463Z" fill="#F2DFE7"/>
<path d="M139.728 4.40001C139.29 4.39675 138.856 4.30928 138.452 4.14256C137.439 3.73569 136.608 2.88977 136.432 2.08522C136.418 2.02571 136.416 1.964 136.426 1.9037C136.437 1.8434 136.459 1.78573 136.492 1.73405C136.526 1.68238 136.569 1.63774 136.621 1.60274C136.671 1.56775 136.729 1.54311 136.789 1.53027C136.85 1.51744 136.913 1.51664 136.974 1.52795C137.036 1.53926 137.095 1.56244 137.146 1.59614C137.198 1.62983 137.242 1.67337 137.278 1.72419C137.313 1.77502 137.336 1.83212 137.348 1.89213C137.443 2.32429 137.986 2.96218 138.806 3.29204C139.313 3.49548 140.072 3.63684 140.814 3.15987C140.866 3.12673 140.923 3.10387 140.984 3.09258C141.044 3.0813 141.107 3.0818 141.167 3.09408C141.226 3.10635 141.284 3.13016 141.335 3.16412C141.386 3.19808 141.429 3.24155 141.463 3.29204C141.497 3.34253 141.52 3.39904 141.532 3.45836C141.544 3.51769 141.542 3.57865 141.529 3.63779C141.518 3.69691 141.493 3.75304 141.458 3.80297C141.424 3.8529 141.38 3.89564 141.328 3.92878C140.854 4.23729 140.297 4.40123 139.728 4.40001Z" fill="#1B5EC9"/>
<path d="M129.005 27.1995C127.191 27.2161 125.403 26.7843 123.8 25.943C119.482 23.6217 117.404 18.0874 119.263 13.8571C119.664 12.9426 120.31 11.695 121.282 11.4117C121.976 11.2084 122.655 11.6465 123.2 11.9987C123.338 12.0879 123.468 12.1715 123.576 12.2245L131.89 16.6954C134.138 17.9056 136.688 19.2762 139.374 19.563C139.434 19.5694 139.492 19.5877 139.546 19.6167C139.598 19.6458 139.644 19.6849 139.682 19.732C139.719 19.7792 139.747 19.8332 139.764 19.891C139.78 19.9489 139.784 20.0093 139.776 20.0688C139.584 21.5726 138.631 23.0572 137.02 24.359C134.752 26.1864 131.925 27.1886 129.005 27.1995ZM121.641 12.264C121.606 12.2638 121.569 12.2685 121.535 12.2776C121.226 12.3679 120.725 12.7777 120.092 14.2183C118.414 18.0366 120.308 23.0414 124.228 25.1481C127.905 27.1239 132.927 26.5142 136.441 23.6669C137.344 22.9364 138.438 21.8029 138.787 20.403C136.111 19.9988 133.644 18.6722 131.453 17.4947L123.143 13.0193C123.003 12.9437 122.859 12.85 122.705 12.7518C122.378 12.544 121.943 12.264 121.641 12.264Z" fill="white"/>
<path d="M123.057 18.3199C122.996 18.3198 122.934 18.3066 122.878 18.2812C122.821 18.2557 122.768 18.2185 122.726 18.1718C122.598 18.0302 122.504 17.8573 122.457 17.6691C122.409 17.4809 122.408 17.2834 122.453 17.0946C122.499 16.9058 122.589 16.7317 122.716 16.5882C122.843 16.4448 123.004 16.3367 123.181 16.2735C123.308 16.2285 123.437 16.1928 123.568 16.1666C123.685 16.146 123.806 16.1735 123.904 16.2433C124.002 16.3131 124.069 16.4196 124.092 16.5401C124.114 16.6606 124.09 16.7855 124.026 16.8882C123.96 16.9908 123.858 17.0629 123.742 17.0893C123.652 17.1082 123.564 17.1329 123.477 17.1633C123.443 17.1755 123.412 17.1962 123.388 17.2237C123.363 17.2512 123.346 17.2845 123.337 17.3207C123.329 17.3569 123.329 17.3947 123.337 17.4308C123.346 17.467 123.365 17.5003 123.388 17.5277C123.45 17.5945 123.49 17.6783 123.506 17.7685C123.52 17.8589 123.51 17.9519 123.475 18.0362C123.44 18.1203 123.382 18.192 123.308 18.2425C123.233 18.2929 123.146 18.3198 123.057 18.3199Z" fill="white"/>
<path d="M127.566 23.9999C127.341 23.9974 127.122 23.9272 126.942 23.7994C126.744 23.6659 126.592 23.4809 126.504 23.2672C126.417 23.0533 126.397 22.82 126.447 22.5959C126.644 21.8838 127.394 21.5339 128.037 21.4448C128.098 21.4362 128.161 21.4391 128.221 21.4533C128.282 21.4676 128.339 21.4929 128.388 21.5279C128.438 21.5628 128.481 21.6067 128.512 21.6569C128.544 21.7072 128.566 21.7629 128.575 21.8208C128.584 21.8788 128.581 21.9379 128.566 21.9947C128.55 22.0514 128.523 22.1049 128.486 22.1519C128.45 22.1989 128.402 22.2386 128.349 22.2687C128.296 22.2988 128.237 22.3187 128.175 22.3273C127.82 22.3752 127.439 22.5502 127.365 22.8187C127.361 22.8528 127.365 22.8872 127.375 22.9199C127.386 22.9527 127.404 22.983 127.427 23.0093C127.459 23.0575 127.508 23.0932 127.566 23.1096C127.672 23.0483 127.799 23.0289 127.921 23.0553C128.041 23.0818 128.147 23.1521 128.213 23.2511C128.246 23.3009 128.269 23.3564 128.278 23.4144C128.289 23.4723 128.286 23.5316 128.272 23.5887C128.258 23.6459 128.232 23.6998 128.195 23.7474C128.159 23.795 128.112 23.8354 128.059 23.8662C127.911 23.954 127.741 24.0004 127.566 23.9999Z" fill="white"/>
<path d="M132.972 22.24C132.899 22.2401 132.826 22.2239 132.76 22.1926C132.694 22.1614 132.636 22.1159 132.592 22.0599C132.549 22.0041 132.519 21.9391 132.506 21.8706C132.495 21.8019 132.499 21.7315 132.52 21.6649L132.578 21.488C132.637 21.3092 132.739 21.1458 132.875 21.0105C133.013 20.8754 133.182 20.7722 133.368 20.7093C133.548 20.6474 133.74 20.6266 133.93 20.6484C134.12 20.6703 134.301 20.7342 134.461 20.835L134.479 20.8472C134.575 20.9177 134.637 21.0202 134.655 21.1333C134.673 21.2465 134.643 21.3616 134.574 21.4549C134.504 21.5483 134.398 21.6125 134.279 21.6344C134.16 21.6563 134.037 21.6342 133.935 21.5725C133.898 21.5502 133.856 21.5363 133.812 21.532C133.769 21.5278 133.725 21.5333 133.684 21.5481C133.635 21.564 133.592 21.5903 133.556 21.6252C133.521 21.66 133.495 21.7021 133.48 21.7483L133.422 21.9252C133.393 22.0163 133.333 22.096 133.252 22.1526C133.171 22.2093 133.073 22.2399 132.972 22.24Z" fill="white"/>
<path d="M139.894 14.56C139.806 14.5599 139.719 14.5327 139.645 14.4818C139.571 14.4309 139.514 14.3587 139.481 14.2744C138.916 12.8652 138.026 11.6181 136.889 10.6401C136.803 10.5607 136.75 10.4501 136.741 10.3317C136.733 10.2133 136.77 10.0961 136.844 10.0049C136.918 9.91377 137.024 9.85562 137.139 9.84266C137.254 9.82982 137.369 9.86319 137.46 9.9359C138.709 11.0096 139.687 12.3792 140.307 13.9269C140.352 14.0393 140.352 14.1653 140.306 14.2773C140.26 14.3893 140.173 14.4782 140.064 14.5244C140.01 14.5478 139.952 14.5599 139.894 14.56Z" fill="#1B5EC9"/>
<path d="M140.558 18.3199C140.532 18.3201 140.507 18.3182 140.481 18.314C140.421 18.3035 140.365 18.2812 140.314 18.2482C140.262 18.2151 140.219 18.172 140.183 18.1214C140.149 18.0707 140.124 18.0135 140.111 17.953C140.097 17.8925 140.096 17.8298 140.106 17.7688L140.314 16.5372C140.338 16.4171 140.405 16.3112 140.503 16.2421C140.602 16.173 140.723 16.146 140.84 16.1667C140.958 16.1876 141.062 16.2547 141.131 16.3537C141.202 16.4527 141.232 16.576 141.215 16.6973L141.009 17.929C140.991 18.0384 140.936 18.1375 140.853 18.209C140.771 18.2806 140.666 18.3198 140.558 18.3199Z" fill="#1B5EC9"/>
<path d="M9.62699 67.68C9.58194 67.68 9.53689 67.68 9.49297 67.68C9.18554 67.6557 8.89163 67.5418 8.6468 67.352C8.40198 67.1621 8.2167 66.9045 8.11339 66.6103C7.97491 66.2121 7.87165 65.8022 7.80481 65.3855L7.77666 65.2247C7.63701 64.4264 7.49286 63.6076 6.98833 63.0454C6.83689 62.8874 6.65323 62.7647 6.45017 62.6859C6.24711 62.6071 6.02952 62.5741 5.81259 62.5892C5.71863 62.591 5.62654 62.6162 5.54445 62.6625C5.46236 62.7089 5.39279 62.775 5.34184 62.8549C5.31226 62.9069 5.27286 62.9524 5.2259 62.989C5.17894 63.0255 5.12532 63.0524 5.06812 63.0679C5.01091 63.0836 4.95124 63.0876 4.89251 63.0797C4.83377 63.0719 4.77713 63.0525 4.72581 63.0225C4.67449 62.9926 4.6295 62.9528 4.59341 62.9052C4.55731 62.8576 4.53082 62.8034 4.51545 62.7454C4.50008 62.6875 4.49613 62.6271 4.50382 62.5675C4.5115 62.5081 4.53069 62.4507 4.56026 62.3987C4.68172 62.1935 4.85047 62.0209 5.05208 61.896C5.25369 61.7712 5.48216 61.6975 5.71799 61.6814C6.0768 61.6511 6.43774 61.7033 6.77379 61.8342C7.10983 61.9652 7.41226 62.1715 7.65841 62.4375C8.33412 63.1936 8.5053 64.1892 8.65847 65.0673L8.68662 65.227C8.74454 65.5917 8.83424 65.9503 8.95465 66.299C8.99869 66.4293 9.0796 66.5437 9.18734 66.6278C9.29507 66.712 9.42485 66.7622 9.56054 66.7722C9.6992 66.7849 9.83844 66.7558 9.96085 66.6886C10.0833 66.6215 10.1834 66.5193 10.2486 66.3947C10.6496 65.6729 10.7994 64.6841 10.8849 63.8972L11.8512 55.0659C11.9019 54.6097 11.9706 53.9779 12.3828 53.5126C12.9853 52.8284 13.9448 52.8284 14.8919 52.9265C17.5565 53.2025 20.2548 53.5229 22.9137 53.8776C23.1469 53.9084 23.5354 53.9608 23.8147 54.2539C24.1526 54.6188 24.1075 55.1252 24.0839 55.3692L23.8642 57.6352C23.8526 57.7562 23.794 57.8675 23.7013 57.9447C23.6086 58.0219 23.4893 58.0588 23.3699 58.0469C23.2504 58.0352 23.1404 57.9758 23.0642 57.8819C22.988 57.7879 22.9517 57.6673 22.9633 57.5463L23.1885 55.2803C23.1975 55.1879 23.2212 54.945 23.1615 54.8811C23.1018 54.8173 22.9014 54.7956 22.8023 54.7819C20.1523 54.4284 17.4619 54.1091 14.8063 53.8342C14.0957 53.7601 13.3929 53.7441 13.0596 54.1216C12.8558 54.3497 12.8028 54.7146 12.7533 55.1662L11.7859 63.9976C11.6913 64.8666 11.5201 65.9762 11.0392 66.8418C10.8994 67.0967 10.6946 67.3089 10.4462 67.4564C10.1978 67.6037 9.91491 67.681 9.62699 67.68Z" fill="#1B5EC9"/>
<path d="M16.2726 68.32C15.2293 68.32 14.2747 68.0247 13.5504 67.4498C13.5042 67.4127 13.4657 67.367 13.4371 67.315C13.4084 67.2631 13.3903 67.206 13.3837 67.1471C13.3771 67.088 13.382 67.0284 13.3984 66.9714C13.4148 66.9143 13.4422 66.861 13.4791 66.8147C13.516 66.7683 13.5616 66.7296 13.6134 66.7009C13.665 66.6722 13.722 66.654 13.7807 66.6473C13.8394 66.6407 13.899 66.6457 13.9558 66.6622C14.0126 66.6785 14.0657 66.706 14.1119 66.7431C15.0103 67.4555 16.4017 67.6166 17.8313 67.1737C19.1891 66.7521 20.2335 65.926 20.7276 64.9059C19.85 65.0881 18.9436 65.0796 18.0694 64.8811C16.7476 64.5836 15.665 63.8667 15.1001 62.9053C14.3881 61.7016 14.6139 60.1856 15.6134 59.4552C16.2726 58.9739 17.0845 58.9277 17.6483 58.974C18.3213 59.0332 18.9742 59.2345 19.5644 59.5648C20.1544 59.8949 20.6683 60.3465 21.0724 60.89C21.4684 61.4196 21.7387 62.0327 21.8631 62.6829C21.9874 63.3331 21.9624 64.0031 21.79 64.6422C21.3498 66.1897 19.9685 67.46 18.0964 68.0404C17.5059 68.2248 16.891 68.3191 16.2726 68.32ZM17.3114 59.8666C16.8375 59.8666 16.4264 59.9793 16.1378 60.189C15.519 60.6398 15.3989 61.6542 15.8683 62.45C16.3085 63.195 17.18 63.7619 18.2615 64.0054C19.1739 64.2104 20.1235 64.1755 21.0185 63.9039C21.1089 63.022 20.8687 62.138 20.3447 61.4243C20.0143 60.9873 19.597 60.6242 19.1193 60.3577C18.6416 60.0914 18.1139 59.9275 17.5697 59.8768C17.4832 59.8655 17.3956 59.8621 17.3091 59.8621L17.3114 59.8666Z" fill="#1B5EC9"/>
<path d="M30.2255 41.7253C32.5576 35.2687 37.2446 22.6689 36.6008 22.1466C35.6602 21.3846 30.0943 20.3876 29.4984 20.2423C28.2922 19.9471 27.0826 19.6651 25.8696 19.3963L25.7075 19.36C25.1173 19.9277 21.9611 22.3305 21.8378 22.2215C21.6286 23.0186 21.4363 23.8195 21.2614 24.6243C20.7915 26.7981 20.4485 28.9971 20.234 31.2103C19.992 33.7085 19.3779 36.3349 19.4703 38.8479C19.4886 39.3509 19.5274 39.8914 19.847 40.2809C20.1895 40.6988 20.7602 40.8328 21.2945 40.9429C23.735 41.4459 26.7131 41.8513 29.1548 42.3521C29.3671 42.3952 29.5989 42.4373 29.7952 42.3441C30.0292 42.2363 30.1376 41.9694 30.2255 41.7253Z" fill="#FF6800"/>
<path d="M30.2931 30.08C30.2411 30.0798 30.1895 30.0706 30.1404 30.0528C28.7489 29.5482 27.135 29.0175 25.7165 28.9066C25.5974 28.8973 25.4869 28.8407 25.4092 28.7492C25.3314 28.6578 25.2929 28.539 25.3021 28.4189C25.3114 28.2988 25.3676 28.1875 25.4583 28.1092C25.5491 28.0308 25.667 27.9921 25.7862 28.0014C27.3068 28.1213 28.9241 28.6475 30.4448 29.1997C30.5439 29.236 30.6274 29.3063 30.6803 29.3982C30.7332 29.4901 30.7523 29.598 30.7341 29.7027C30.716 29.8074 30.662 29.9025 30.5813 29.971C30.5007 30.0396 30.3987 30.0774 30.2931 30.0777V30.08Z" fill="#181E32"/>
<path d="M30.3656 33.1999C30.3086 33.1996 30.2521 33.1885 30.1993 33.1674C28.4079 32.4628 25.4963 31.7885 24.2799 31.6987C24.1598 31.69 24.0482 31.6342 23.9696 31.5439C23.8909 31.4535 23.8518 31.3359 23.8606 31.2168C23.8694 31.0978 23.9257 30.9872 24.0168 30.9092C24.108 30.8312 24.2266 30.7924 24.3466 30.8011C25.6525 30.8976 28.6399 31.5865 30.5331 32.3315C30.6312 32.37 30.7126 32.4411 30.7634 32.5328C30.8142 32.6244 30.8312 32.7307 30.8112 32.8334C30.7914 32.936 30.736 33.0287 30.6546 33.0951C30.5733 33.1617 30.4711 33.1979 30.3656 33.1977V33.1999Z" fill="#181E32"/>
<path d="M28.9237 35.68C28.8916 35.6799 28.8594 35.6765 28.8279 35.6698L24.3804 34.7307C24.262 34.7056 24.1586 34.6352 24.0928 34.5349C24.027 34.4345 24.0043 34.3126 24.0297 34.1959C24.0551 34.079 24.1265 33.977 24.2282 33.9121C24.33 33.8473 24.4536 33.8249 24.572 33.85L29.0195 34.7903C29.1295 34.8137 29.2268 34.8762 29.2928 34.9661C29.3588 35.056 29.3888 35.1666 29.377 35.277C29.3653 35.3873 29.3126 35.4894 29.2291 35.5638C29.1458 35.6382 29.0373 35.6795 28.9249 35.68H28.9237Z" fill="#181E32"/>
<path d="M24.9786 23.4399C24.9554 23.4397 24.9323 23.4377 24.9093 23.4342L21.6949 22.9484C21.6351 22.9403 21.5776 22.9205 21.5255 22.89C21.4735 22.8594 21.428 22.8188 21.3919 22.7706C21.3556 22.7223 21.3293 22.6673 21.3147 22.6088C21.2999 22.5502 21.2968 22.4893 21.3058 22.4297C21.3148 22.37 21.3356 22.3126 21.3669 22.2611C21.3982 22.2095 21.4395 22.1646 21.4882 22.1291C21.537 22.0938 21.5924 22.0683 21.6511 22.0545C21.7098 22.0406 21.7707 22.0386 21.8301 22.0485L24.6604 22.4762C24.8988 21.6569 25.0725 20.82 25.1798 19.9733C25.2165 19.6272 25.2819 19.2846 25.3753 18.9493C25.3944 18.8927 25.4245 18.8405 25.4637 18.7954C25.5031 18.7505 25.5508 18.7136 25.6043 18.6871C25.6579 18.6606 25.7161 18.6449 25.7756 18.6409C25.8352 18.6369 25.895 18.6447 25.9516 18.6638C26.0082 18.6829 26.0604 18.713 26.1054 18.7523C26.1503 18.7917 26.1871 18.8394 26.2136 18.893C26.2401 18.9466 26.2557 19.0049 26.2597 19.0645C26.2638 19.1241 26.256 19.1839 26.2369 19.2406C26.1637 19.5215 26.1113 19.8075 26.08 20.0962C25.9516 21.1223 25.7271 22.1339 25.4094 23.1179C25.3811 23.2104 25.3242 23.2915 25.2466 23.3494C25.1692 23.4074 25.0754 23.4391 24.9786 23.4399Z" fill="#181E32"/>
<path d="M43.8011 47.8399C43.6998 47.8397 43.5988 47.8283 43.4999 47.8059C43.2959 47.7589 43.1033 47.6709 42.9338 47.5474C42.7641 47.4239 42.6211 47.2674 42.5129 47.0871C42.2287 46.603 42.1746 45.9828 42.346 45.2447C42.4348 44.8912 42.5433 44.543 42.6709 44.2017C42.7891 43.8886 42.8896 43.5691 42.972 43.2448C43.1266 42.5759 43.0499 41.9852 42.7622 41.6258C42.3911 41.1598 41.6963 41.0759 41.1718 41.1995C40.6473 41.323 40.0438 41.7244 39.9671 42.314C39.9559 42.45 39.9774 42.5869 40.0296 42.7128C40.0818 42.8389 40.1633 42.9506 40.2671 43.0384C40.3303 43.1014 40.4079 43.1476 40.4932 43.1731C40.5783 43.1986 40.6685 43.2026 40.7556 43.1847C40.8126 43.1685 40.8723 43.1637 40.9312 43.1706C40.9901 43.1775 41.0469 43.1961 41.0987 43.2252C41.1505 43.2542 41.1959 43.2933 41.2327 43.34C41.2695 43.3867 41.2966 43.4404 41.3128 43.4976C41.3289 43.555 41.3338 43.6149 41.3268 43.6741C41.3199 43.7332 41.3015 43.7905 41.2725 43.8425C41.2436 43.8945 41.2048 43.9402 41.1584 43.9772C41.1118 44.0141 41.0585 44.0415 41.0015 44.0577C40.7697 44.1187 40.5262 44.1195 40.294 44.06C40.0617 44.0005 39.8483 43.8826 39.6738 43.7176C39.4565 43.5317 39.2878 43.2951 39.1828 43.0285C39.0778 42.7617 39.0396 42.4731 39.0715 42.1881C39.2136 41.1677 40.125 40.5147 40.9654 40.3163C41.9422 40.0895 42.9235 40.3775 43.465 41.0577C43.9342 41.645 44.0696 42.4942 43.8496 43.45C43.7594 43.808 43.6494 44.1609 43.5202 44.5067C43.4037 44.8161 43.3043 45.1318 43.2224 45.4522C43.1096 45.9556 43.1277 46.3501 43.289 46.6268C43.3815 46.7751 43.5281 46.8809 43.6973 46.9216C43.742 46.9339 43.7887 46.9372 43.8346 46.9312C43.8805 46.9251 43.9247 46.9099 43.9647 46.8864C44.0847 46.7776 44.1815 46.6453 44.2489 46.4975L46.6932 42.136C46.7223 42.0839 46.7613 42.038 46.808 42.001C46.8546 41.9641 46.908 41.9366 46.9652 41.9204C47.0224 41.9042 47.0823 41.8996 47.1413 41.9066C47.2003 41.9136 47.2573 41.9322 47.3091 41.9614C47.361 41.9906 47.4066 42.0297 47.4435 42.0767C47.4802 42.1235 47.5074 42.1772 47.5235 42.2347C47.5397 42.2922 47.5444 42.3524 47.5374 42.4117C47.5304 42.471 47.5119 42.5284 47.4828 42.5804L45.0385 46.9431C44.9075 47.2161 44.7143 47.4542 44.4745 47.6381C44.2755 47.7723 44.0408 47.8426 43.8011 47.8399Z" fill="#181E32"/>
<path d="M47.656 37.7556C47.5954 37.756 47.5354 37.7437 47.4801 37.7196C46.5596 37.3322 45.6951 36.8281 44.9088 36.2201C44.816 36.1478 44.7564 36.0423 44.7431 35.927C44.7297 35.8117 44.7637 35.6959 44.8375 35.605C44.9113 35.5142 45.019 35.4558 45.1369 35.4427C45.2546 35.4296 45.3728 35.4629 45.4656 35.5352C46.1891 36.0972 46.9846 36.5639 47.832 36.9235C47.9258 36.9634 48.0029 37.0336 48.0501 37.1226C48.0972 37.2115 48.1117 37.3136 48.0911 37.4117C48.0705 37.5099 48.0159 37.5981 47.9368 37.6615C47.8575 37.7249 47.7584 37.7597 47.656 37.7599V37.7556Z" fill="#181E32"/>
<path d="M45.4511 38.6399C45.3781 38.6404 45.3059 38.6239 45.2406 38.5918C45.1854 38.5649 45.1361 38.5276 45.0956 38.4822C45.055 38.4367 45.0242 38.3838 45.0046 38.3267C44.9851 38.2695 44.9773 38.2092 44.9816 38.149C44.9861 38.089 45.0026 38.0303 45.0302 37.9765L46.3234 35.4658C46.3498 35.4102 46.3875 35.3602 46.4341 35.3189C46.4808 35.2777 46.5354 35.246 46.5949 35.2257C46.6543 35.2054 46.7173 35.1969 46.7802 35.2009C46.843 35.2048 46.9045 35.221 46.9608 35.2485C47.0171 35.276 47.0672 35.3141 47.108 35.3609C47.1489 35.4075 47.1797 35.4618 47.1986 35.5203C47.2176 35.5788 47.2243 35.6405 47.2183 35.7017C47.2123 35.7627 47.1939 35.8221 47.1639 35.8761L45.8708 38.3878C45.8316 38.4636 45.7716 38.5273 45.6976 38.5718C45.6235 38.6163 45.5382 38.6399 45.4511 38.6399Z" fill="#181E32"/>
<path d="M50.7308 34.4799C50.506 34.48 50.2823 34.4511 50.0649 34.3942C50.0045 34.3784 49.948 34.3505 49.899 34.3123C49.8499 34.2742 49.8092 34.2264 49.7795 34.172C49.7499 34.1178 49.7319 34.058 49.7265 33.9965C49.7211 33.935 49.7287 33.8731 49.7486 33.8146C49.786 33.7117 49.8451 33.6178 49.9218 33.5392C49.9987 33.4605 50.0915 33.3987 50.1942 33.358C50.297 33.3173 50.4072 33.2986 50.5179 33.3031C50.6284 33.3075 50.7368 33.335 50.8358 33.3838C50.9104 33.4226 50.9728 33.4807 51.0163 33.5518C51.9414 33.4007 52.8128 32.5663 53.3165 31.6957C53.5255 31.3326 54.1662 30.0843 53.5906 29.2453C53.1498 28.6037 52.1618 28.5293 51.4994 28.8281C50.6394 29.216 50.1106 30.0843 49.8182 30.7451C49.773 30.8453 49.6924 30.9258 49.5914 30.9714C49.4906 31.0172 49.3761 31.025 49.2698 30.9935C49.1633 30.962 49.0722 30.8933 49.0135 30.8003C48.9547 30.7072 48.9322 30.5963 48.9502 30.488C48.9643 30.378 48.9546 30.2663 48.9219 30.1602C48.8892 30.0541 48.8343 29.956 48.7606 29.8723C48.6869 29.7776 48.5937 29.6991 48.4872 29.6421C48.3809 29.5849 48.2635 29.5505 48.1428 29.5408C47.6676 29.5216 47.1971 29.9648 47.1742 30.4497C47.1514 30.9346 47.5603 31.4386 48.0685 31.5379C48.1874 31.5611 48.2921 31.6299 48.3596 31.7293C48.4271 31.8287 48.4518 31.9505 48.4283 32.0678C48.4049 32.1852 48.3351 32.2886 48.2345 32.3552C48.1337 32.4218 48.0104 32.4463 47.8915 32.4231C46.9481 32.2393 46.2172 31.336 46.2617 30.4068C46.3085 29.428 47.2005 28.6026 48.1782 28.6398C48.4292 28.6536 48.6744 28.72 48.8973 28.8348C49.1203 28.9495 49.3159 29.1098 49.471 29.3051C49.4939 29.3322 49.5144 29.3592 49.535 29.3874C49.9257 28.7936 50.4736 28.3167 51.1191 28.0083C52.147 27.5471 53.6317 27.6937 54.3467 28.739C54.944 29.6096 54.8572 30.85 54.1091 32.1434C53.3953 33.3838 52.1299 34.4799 50.7308 34.4799Z" fill="#181E32"/>
<path d="M142.772 39.9199L139.503 42.9188C138.253 44.0647 136.978 45.2445 136.202 46.7513C135.425 48.2581 135.233 50.1845 136.161 51.6042C137.142 53.1019 139.154 53.6686 140.916 53.3575C142.678 53.0465 144.226 52.008 145.597 50.8576C147.016 49.6477 148.335 48.3236 149.539 46.8983C149.468 46.7668 149.388 46.6401 149.298 46.5194C148.284 45.3995 144.203 40.5285 142.772 39.9199Z" fill="#181E32"/>
<path d="M140.05 53.9199C138.499 53.9199 136.794 53.3293 135.843 51.8757C134.717 50.154 135.113 47.9939 135.859 46.5459C136.686 44.9423 138.058 43.684 139.268 42.571L142.552 39.5592C142.616 39.5002 142.696 39.4612 142.782 39.4464C142.868 39.4318 142.955 39.4421 143.036 39.4763C144.226 39.9828 146.739 42.7834 149 45.3693C149.321 45.7362 149.574 46.0258 149.742 46.2109C149.752 46.2211 149.761 46.2321 149.769 46.2438C149.871 46.3817 149.963 46.5267 150.045 46.6777C150.089 46.7586 150.108 46.8513 150.098 46.9433C150.089 47.0352 150.051 47.122 149.991 47.1921C148.769 48.6439 147.429 49.9919 145.984 51.2227C144.857 52.1698 143.122 53.4702 141.076 53.8347C140.737 53.8926 140.394 53.9212 140.05 53.9199ZM142.923 40.4473L139.881 43.2399C138.67 44.3518 137.418 45.5011 136.665 46.9604C135.871 48.4936 135.85 50.2255 136.602 51.3748C137.543 52.8149 139.446 53.1919 140.911 52.9375C142.325 52.6866 143.707 51.9438 145.394 50.5265C146.718 49.4002 147.95 48.171 149.081 46.8503C149.071 46.8344 149.059 46.8196 149.049 46.8048C148.876 46.6129 148.625 46.3279 148.311 45.969C147.046 44.5199 144.192 41.2559 142.923 40.4473Z" fill="#181E32"/>
<path d="M155.613 37.9616C155.685 36.9155 155.225 35.8919 154.589 35.057C153.224 33.281 150.432 32.2326 148.673 34.125C148.033 34.8107 147.563 35.5937 146.86 36.2365C145.704 37.2985 144.538 38.3503 143.377 39.4077L142.82 39.9139C144.261 40.5217 148.369 45.3864 149.389 46.5015C149.479 46.6221 149.56 46.7485 149.631 46.88C151.211 45.0498 152.657 43.093 154.093 41.1464C154.795 40.185 155.532 39.1524 155.613 37.9616Z" fill="white"/>
<path d="M149.624 47.36H149.577C149.505 47.3529 149.436 47.3287 149.376 47.2892C149.315 47.2497 149.265 47.1961 149.229 47.1331C149.17 47.0252 149.106 46.9209 149.035 46.821C148.862 46.6293 148.613 46.3445 148.301 45.986C146.948 44.4338 143.79 40.802 142.695 40.3345C142.625 40.3048 142.564 40.2581 142.518 40.1985C142.47 40.1389 142.44 40.0686 142.426 39.9937C142.414 39.9188 142.42 39.8419 142.444 39.7701C142.469 39.6981 142.511 39.6336 142.566 39.5823L143.119 39.074L144.271 38.0131C145.026 37.3188 145.807 36.6006 146.571 35.8903C146.938 35.5297 147.276 35.1397 147.579 34.7239C147.818 34.4165 148.064 34.0977 148.344 33.7947C148.692 33.4046 149.123 33.0988 149.606 32.9C150.087 32.7012 150.608 32.6145 151.128 32.6465C152.519 32.7134 153.964 33.5258 154.902 34.7648C155.458 35.4989 156.102 36.6539 156.011 37.9871C155.92 39.3486 155.083 40.5002 154.411 41.4238C153.009 43.3526 151.559 45.3393 149.965 47.2102C149.923 47.2582 149.87 47.2964 149.811 47.3222C149.752 47.3481 149.688 47.3609 149.624 47.36ZM143.621 39.8342C144.929 40.7804 147.047 43.1597 148.98 45.379C149.265 45.7069 149.496 45.9724 149.662 46.1573C151.086 44.4452 152.405 42.6344 153.684 40.8791C154.287 40.0498 155.037 39.0195 155.111 37.9178C155.182 36.8661 154.647 35.9175 154.184 35.3083C153.415 34.2871 152.198 33.6064 151.084 33.5474C150.695 33.5213 150.306 33.5852 149.945 33.734C149.585 33.8829 149.263 34.1129 149.005 34.4063C148.752 34.6808 148.529 34.9736 148.291 35.2754C147.957 35.7306 147.587 36.1572 147.183 36.5507C146.417 37.2632 145.636 37.9825 144.879 38.678L143.728 39.7377L143.621 39.8342Z" fill="#181E32"/>
<path d="M149.004 46.4799C148.922 46.4799 148.842 46.4583 148.771 46.4173C148.702 46.3762 148.643 46.3172 148.603 46.2465C147.279 43.8903 145.268 41.9851 142.834 40.7798C142.725 40.7263 142.643 40.6322 142.604 40.5182C142.565 40.4041 142.573 40.2795 142.628 40.1718C142.682 40.0641 142.777 39.9819 142.892 39.9436C143.007 39.9052 143.132 39.9138 143.241 39.9673C145.841 41.2554 147.989 43.2908 149.404 45.8079C149.462 45.9131 149.476 46.0369 149.442 46.1523C149.409 46.2678 149.33 46.3651 149.224 46.4233C149.157 46.4605 149.081 46.48 149.004 46.4799Z" fill="#181E32"/>
<path d="M141.279 51.4399C141.167 51.4407 141.06 51.4011 140.976 51.3287C140.892 51.2562 140.839 51.1558 140.824 51.0466C140.81 50.9373 140.837 50.8268 140.9 50.7359C140.963 50.6451 141.057 50.58 141.165 50.5532C143.051 50.0731 144.705 48.9512 145.838 47.3845C145.909 47.2891 146.014 47.225 146.133 47.2058C146.25 47.1868 146.37 47.2144 146.468 47.2827C146.566 47.3509 146.632 47.4544 146.654 47.5707C146.674 47.6871 146.648 47.8069 146.581 47.9044C145.322 49.6456 143.483 50.8925 141.387 51.4264C141.351 51.4351 141.315 51.4396 141.279 51.4399Z" fill="white"/>
<path d="M153.25 39.84C153.198 39.8401 153.147 39.83 153.098 39.8102C153.046 39.789 152.997 39.7568 152.957 39.7155C152.915 39.6742 152.882 39.6246 152.859 39.5697C152.835 39.5147 152.823 39.4554 152.82 39.3951C152.819 39.3348 152.829 39.2748 152.848 39.2183L153.429 37.5769C153.469 37.463 153.55 37.3708 153.654 37.3207C153.758 37.2706 153.876 37.2667 153.982 37.3097C154.089 37.3527 154.175 37.4393 154.223 37.5502C154.269 37.6612 154.273 37.7876 154.232 37.9015L153.652 39.5429C153.621 39.6304 153.566 39.7057 153.494 39.7587C153.422 39.8118 153.338 39.8401 153.25 39.84Z" fill="#181E32"/>
<path d="M141.194 74.4879C140.487 74.1994 139.736 73.92 138.979 74.0211C138.239 74.1211 137.6 74.572 137.014 75.0354C134.768 76.8073 132.835 78.9381 130.914 81.0553L123.944 88.7448C123.574 89.1537 123.188 89.5932 123.087 90.1373C122.89 91.2027 123.836 92.1057 124.701 92.7565C129.612 96.4548 137.133 102.115 139.619 101.374C141.021 100.957 142.667 98.7946 142.86 98.514C143.638 97.3873 144.447 96.2828 145.287 95.2008C146.95 93.0614 148.727 91.0138 150.611 89.0674C151.552 88.0928 152.518 87.1462 153.511 86.2278C153.997 85.7735 154.487 85.3289 154.983 84.8943C155.375 84.5536 156.188 84.0993 156.18 83.5007C156.173 82.9021 155.47 82.5012 155.048 82.1979C154.467 81.7754 153.878 81.3626 153.283 80.9599C152.119 80.1708 150.93 79.4197 149.717 78.7064C146.982 77.0958 144.133 75.686 141.194 74.4879Z" fill="#FF6800"/>
<path d="M140.051 97.2776C139.935 97.2777 139.825 97.2327 139.74 97.152C136.13 93.6943 131.717 91.2107 126.909 89.9303C126.541 89.8322 126.185 89.75 125.877 89.8162C125.629 89.8676 125.417 90.0548 125.404 90.2328C125.395 90.3539 125.34 90.4666 125.248 90.5459C125.158 90.6254 125.04 90.6651 124.92 90.6563C124.8 90.6475 124.689 90.591 124.611 90.4991C124.532 90.4073 124.492 90.2877 124.501 90.1666C124.544 89.5708 125.033 89.0595 125.692 88.9213C126.191 88.8175 126.679 88.927 127.136 89.0492C132.092 90.3688 136.639 92.9284 140.36 96.4923C140.425 96.5551 140.47 96.6364 140.489 96.7255C140.509 96.8146 140.502 96.9076 140.468 96.9924C140.435 97.0771 140.377 97.1498 140.302 97.201C140.228 97.2523 140.14 97.2798 140.049 97.2799L140.051 97.2776Z" fill="#181E32"/>
<path d="M140.616 85.8963C142.095 86.4872 143.709 86.9438 145.264 86.6033C146.819 86.2629 148.249 84.8956 148.178 83.3017C148.134 82.2896 147.52 81.3856 146.798 80.6831C144.918 78.8422 142.112 78.0839 139.549 78.52C137.28 78.9116 135.954 80.9484 137.053 83.1207C137.784 84.5563 139.189 85.3237 140.616 85.8963Z" fill="#181E32"/>
<path d="M144.158 87.2C142.796 87.2 141.493 86.7657 140.44 86.3485C139.101 85.8178 137.457 84.9992 136.624 83.3642C136.068 82.2734 136.033 81.1317 136.525 80.1498C137.056 79.0942 138.126 78.3572 139.459 78.1292C142.258 77.6508 145.199 78.5216 147.133 80.3969C148.086 81.3222 148.609 82.3313 148.657 83.3155C148.741 85.2022 147.053 86.7068 145.373 87.0707C144.974 87.1573 144.567 87.2006 144.158 87.2ZM140.775 85.4992C142.024 85.9924 143.644 86.5197 145.18 86.1795C146.492 85.8949 147.812 84.76 147.75 83.3449C147.708 82.3993 147.047 81.5682 146.501 81.0364C144.771 79.3561 142.132 78.5794 139.613 79.0102C138.567 79.1883 137.739 79.7472 137.343 80.5432C136.983 81.2609 137.017 82.1113 137.439 82.939C138.13 84.2996 139.516 84.9901 140.781 85.4913L140.775 85.4992Z" fill="#181E32"/>
<path d="M143.87 83.6C143.778 83.6001 143.688 83.5732 143.611 83.5229L140.542 81.546C140.441 81.4784 140.371 81.3752 140.348 81.2585C140.325 81.1418 140.35 81.0211 140.418 80.9222C140.486 80.8233 140.591 80.754 140.712 80.7297C140.833 80.7052 140.958 80.7274 141.061 80.7914L144.131 82.7695C144.215 82.8235 144.278 82.9021 144.312 82.9937C144.346 83.0853 144.349 83.1851 144.319 83.2782C144.29 83.3714 144.232 83.4529 144.151 83.5109C144.07 83.5688 143.971 83.6001 143.87 83.6Z" fill="white"/>
<path d="M121.674 88.56C121.554 88.56 121.438 88.5122 121.353 88.4269C121.268 88.3418 121.221 88.2263 121.221 88.1058C121.226 87.7885 121.295 87.4755 121.424 87.1852C121.55 86.8948 121.735 86.6329 121.965 86.4149C122.553 85.8391 123.344 85.5178 124.166 85.52C125.338 85.5359 126.51 86.1162 127.654 87.2473C127.736 87.3327 127.782 87.4468 127.781 87.5652C127.78 87.6838 127.733 87.7974 127.65 87.8816C127.567 87.966 127.454 88.0144 127.336 88.0166C127.217 88.0188 127.103 87.9746 127.017 87.8934C126.349 87.2336 125.317 86.4433 124.155 86.4285C123.575 86.4302 123.019 86.657 122.602 87.061C122.458 87.1948 122.341 87.3561 122.26 87.5355C122.178 87.7149 122.133 87.9088 122.127 88.1058C122.127 88.2263 122.08 88.3418 121.995 88.4269C121.91 88.5122 121.794 88.56 121.674 88.56Z" fill="#181E32"/>
<path d="M130.204 84.56C130.089 84.56 129.978 84.5164 129.894 84.4381C129.072 83.6768 128.074 83.132 126.989 82.853C126.67 82.7711 126.262 82.6925 125.937 82.8177C125.709 82.9066 125.532 83.1537 125.581 83.3245C125.597 83.3821 125.603 83.4423 125.596 83.5018C125.589 83.5612 125.57 83.6187 125.542 83.671C125.512 83.7234 125.473 83.7694 125.426 83.8065C125.379 83.8437 125.325 83.8713 125.268 83.8876C125.21 83.904 125.15 83.9088 125.09 83.9019C125.031 83.8951 124.973 83.8765 124.92 83.8474C124.868 83.8182 124.822 83.779 124.785 83.7321C124.748 83.6852 124.721 83.6315 124.704 83.5738C124.504 82.8735 125.018 82.1949 125.609 81.9671C126.179 81.7496 126.766 81.8533 127.216 81.9671C128.448 82.284 129.582 82.9028 130.514 83.7674C130.581 83.8297 130.628 83.9108 130.649 83.9999C130.669 84.0891 130.662 84.1824 130.628 84.2675C130.595 84.3527 130.537 84.4258 130.461 84.4774C130.385 84.5289 130.295 84.5565 130.204 84.5565V84.56Z" fill="#181E32"/>
<path d="M133.329 81.6799C133.26 81.6799 133.192 81.6644 133.13 81.6343C133.067 81.6044 133.014 81.5608 132.97 81.5068C132.462 80.8667 131.943 80.2038 131.27 79.7664C130.803 79.4611 130.115 79.214 129.481 79.3495L129.415 80.042C129.409 80.1018 129.392 80.16 129.364 80.213C129.335 80.2661 129.296 80.3131 129.251 80.3514C129.157 80.4286 129.036 80.4654 128.915 80.4538C128.794 80.4422 128.682 80.383 128.605 80.2893C128.527 80.1957 128.491 80.0752 128.502 79.9543L128.597 78.9611C128.605 78.878 128.636 78.7986 128.686 78.7317C128.736 78.6649 128.803 78.6129 128.881 78.5818C129.751 78.2333 130.829 78.3916 131.766 79.0044C132.557 79.5226 133.154 80.2767 133.681 80.9407C133.757 81.0353 133.791 81.1557 133.777 81.2754C133.762 81.3953 133.702 81.5046 133.607 81.5797C133.528 81.643 133.43 81.6783 133.329 81.6799Z" fill="#181E32"/>
<path d="M136.282 77.3599C136.21 77.36 136.138 77.3425 136.074 77.3088C136.009 77.2752 135.953 77.2263 135.91 77.1662C135.567 76.6807 135.175 76.1286 134.658 75.866C134.249 75.6583 133.655 75.6793 133.42 76.0423C133.354 76.1457 133.249 76.2177 133.13 76.2425C133.01 76.2674 132.887 76.243 132.786 76.1747C132.684 76.1065 132.613 76 132.589 75.8786C132.565 75.7573 132.589 75.631 132.656 75.5276C133.181 74.7106 134.294 74.6382 135.066 75.0304C135.785 75.3957 136.266 76.0749 136.653 76.62C136.702 76.6897 136.732 76.7718 136.739 76.8575C136.745 76.9432 136.728 77.029 136.69 77.1055C136.651 77.1821 136.592 77.2462 136.522 77.2912C136.449 77.336 136.367 77.3598 136.282 77.3599Z" fill="#181E32"/>
<path d="M52.8751 12.4752C52.7466 13.0695 52.633 13.7211 52.9171 14.2603C53.1592 14.7176 53.6422 14.9973 54.1253 15.1905C55.3084 15.6624 56.6063 15.7523 57.8759 15.8287C67.128 16.3994 76.3879 16.802 85.6553 17.0363C86.0837 17.0476 86.5463 17.0476 86.893 16.7971C87.2396 16.5465 87.3749 16.123 87.4851 15.7242C87.9397 14.0952 88.2591 12.2539 88.2602 10.4823C88.2602 8.87013 87.5033 8.58927 86.469 8.52411C76.7232 7.91297 66.9489 7.53213 57.2076 6.89065C56.0506 6.81538 54.4083 6.4806 54.0048 7.84893C53.557 9.36669 53.2081 10.9283 52.8751 12.4752Z" fill="#1B5EC9"/>
<path d="M58.7074 9.11993H58.6671C58.5492 9.10879 58.4403 9.04847 58.3642 8.95223C58.2882 8.85612 58.2512 8.73179 58.2615 8.60676C58.3096 7.90835 58.4456 7.22001 58.666 6.56C58.7129 6.4 58.7666 6.22223 58.8247 6.01719C58.8416 5.95758 58.8695 5.90212 58.9066 5.85388C58.9438 5.80564 58.9895 5.7657 59.0413 5.73631C59.093 5.70692 59.1497 5.68855 59.2081 5.68227C59.2666 5.67611 59.3256 5.68215 59.3818 5.70016C59.438 5.71818 59.4903 5.74769 59.5358 5.78704C59.5812 5.8265 59.6188 5.87497 59.6467 5.92985C59.6744 5.98472 59.6917 6.04493 59.6975 6.10679C59.7034 6.16878 59.6976 6.23135 59.6808 6.29097C59.6204 6.50192 59.569 6.68207 59.5176 6.84562C59.3173 7.43985 59.1944 8.06028 59.1521 8.68972C59.1419 8.80729 59.0906 8.91656 59.0082 8.99608C58.926 9.07573 58.8187 9.11981 58.7074 9.11993Z" fill="#181E32"/>
<path d="M57.7325 16.3999C57.6251 16.4009 57.521 16.3625 57.4397 16.2918C57.3584 16.2211 57.3054 16.123 57.2906 16.0158C57.1414 14.9325 57.2088 12.8682 57.7104 10.8942C57.725 10.8375 57.7504 10.7843 57.7853 10.7375C57.8202 10.6909 57.864 10.6514 57.914 10.6217C57.964 10.592 58.0193 10.5725 58.0768 10.5643C58.1343 10.5561 58.1929 10.5595 58.249 10.5741C58.3052 10.5887 58.358 10.6144 58.4044 10.6496C58.4508 10.6847 58.4899 10.7288 58.5194 10.7792C58.5489 10.8296 58.5683 10.8854 58.5763 10.9433C58.5845 11.0013 58.5812 11.0602 58.5666 11.1168C58.1159 12.8905 58.0242 14.8623 58.1656 15.8933C58.1738 15.9513 58.1704 16.0103 58.1559 16.067C58.1413 16.1237 58.1159 16.1769 58.0808 16.2237C58.0458 16.2704 58.0021 16.3097 57.9519 16.3395C57.9019 16.3691 57.8464 16.3886 57.7888 16.3966C57.7702 16.3987 57.7514 16.3998 57.7325 16.3999Z" fill="#181E32"/>
<path d="M79.1579 15.4388H79.1431C76.6289 15.3563 74.2328 15.2481 71.9163 15.1447C69.5997 15.0412 67.2094 14.933 64.6997 14.8505C64.64 14.8485 64.5813 14.8344 64.5269 14.8093C64.4726 14.7841 64.4235 14.7482 64.3827 14.7035C64.3419 14.659 64.31 14.6065 64.289 14.5494C64.268 14.4922 64.2581 14.4313 64.26 14.3703C64.2619 14.3092 64.2757 14.2491 64.3003 14.1934C64.3249 14.1377 64.36 14.0876 64.4036 14.0459C64.4471 14.004 64.4984 13.9714 64.5543 13.9499C64.61 13.9283 64.6696 13.9183 64.7292 13.9203C67.2434 14.004 69.6395 14.111 71.9561 14.2156C74.2726 14.3203 76.663 14.4272 79.1726 14.5098C79.2932 14.5118 79.408 14.5627 79.4919 14.6513C79.5757 14.74 79.6216 14.8591 79.6197 14.9824C79.6178 15.1058 79.568 15.2232 79.4814 15.3091C79.3948 15.3949 79.2784 15.442 79.1579 15.44V15.4388Z" fill="white"/>
<path d="M74.6716 12.4772H74.6366C71.9848 12.2537 64.0463 12.0438 61.3651 12.1265C61.3059 12.1284 61.2468 12.1174 61.1914 12.0943C61.136 12.0712 61.0851 12.0364 61.042 11.9918C60.9989 11.9473 60.9642 11.8939 60.94 11.8347C60.9157 11.7754 60.9024 11.7116 60.9006 11.6468C60.8989 11.5818 60.9089 11.5172 60.93 11.4566C60.9511 11.396 60.983 11.3405 61.0237 11.2932C61.0644 11.2461 61.1133 11.2081 61.1673 11.1816C61.2215 11.1551 61.2799 11.1405 61.3392 11.1386C64.0395 11.0559 72.0344 11.2621 74.7054 11.4918C74.8252 11.4966 74.9383 11.5534 75.0198 11.6495C75.1014 11.7456 75.1446 11.8732 75.1401 12.0042C75.1357 12.1351 75.0837 12.2589 74.9959 12.348C74.9081 12.4372 74.7914 12.4845 74.6716 12.4797V12.4772Z" fill="white"/>
<path d="M77.9407 10.2374C77.9235 10.2383 77.9062 10.2383 77.8889 10.2374C75.3911 9.99143 73.0588 9.95754 70.999 9.92753C69.6555 9.90719 68.4956 9.89073 67.5519 9.81617C67.4324 9.80678 67.3221 9.75701 67.2453 9.67771C67.1686 9.5984 67.1316 9.49615 67.1425 9.39351C67.1534 9.29077 67.2113 9.19598 67.3036 9.12994C67.3957 9.0639 67.5146 9.03214 67.6341 9.04154C68.5451 9.11319 69.6893 9.13062 71.0126 9.14998C72.989 9.17806 75.4485 9.21486 77.9948 9.46468C78.1143 9.47039 78.2262 9.51677 78.3059 9.59346C78.3856 9.67025 78.4267 9.77105 78.4199 9.87379C78.4131 9.97642 78.3593 10.0727 78.27 10.1412C78.1808 10.2098 78.0636 10.245 77.9441 10.2393L77.9407 10.2374Z" fill="white"/>
<path d="M78.234 12.4799C78.1073 12.4805 77.9806 12.4734 77.8548 12.4588C77.7364 12.4448 77.6287 12.3872 77.5555 12.2986C77.4823 12.21 77.4496 12.0977 77.4644 11.9865C77.4794 11.8752 77.5407 11.7741 77.635 11.7053C77.7294 11.6366 77.8489 11.6057 77.9673 11.6198C78.1885 11.6393 78.411 11.6393 78.6322 11.6198C78.9098 11.5934 79.1895 11.5934 79.467 11.6198C79.5855 11.6338 79.6931 11.6914 79.7664 11.78C79.8396 11.8686 79.8724 11.9809 79.8574 12.0921C79.8425 12.2034 79.7811 12.3045 79.6868 12.3733C79.5926 12.4421 79.473 12.4729 79.3545 12.4588C79.1338 12.4387 78.9115 12.4387 78.6907 12.4588C78.5422 12.4704 78.3926 12.4799 78.234 12.4799Z" fill="white"/>
<path d="M150.688 160C150.602 160.001 150.518 159.976 150.445 159.928C149.154 159.111 147.708 158.575 146.199 158.353C144.691 158.131 143.152 158.228 141.683 158.639L141.515 158.688C140.931 158.859 140.269 159.053 139.602 158.846C139.059 158.68 138.661 158.289 138.31 157.946C138.267 157.903 138.224 157.86 138.181 157.819C135.71 155.435 131.89 154.624 128.675 155.801C128.594 155.83 128.507 155.836 128.423 155.818C128.34 155.799 128.263 155.758 128.202 155.698C128.141 155.637 128.098 155.561 128.079 155.477C128.06 155.393 128.064 155.305 128.091 155.223C129.049 152.407 128.023 148.956 125.539 146.636C122.888 144.16 119.288 143.374 116.735 143.149C109.268 142.493 101.609 145.659 96.7497 151.407L96.7135 151.451C96.3114 151.926 95.8573 152.465 95.1789 152.67C94.6296 152.838 94.0758 152.737 93.5865 152.649L93.377 152.611C89.9409 152.027 86.2738 153.857 84.6565 156.966C84.6236 157.028 84.5767 157.082 84.5197 157.123C84.4627 157.163 84.3971 157.191 84.328 157.202C84.2588 157.212 84.1881 157.208 84.1213 157.186C84.0545 157.165 83.9935 157.129 83.943 157.08C81.7788 155.002 78.551 153.814 75.0787 153.814H74.9994C72.0899 153.829 68.9687 154.613 65.4567 156.21C65.3833 156.245 65.3024 156.257 65.2224 156.249C65.1423 156.24 65.0658 156.21 65.0011 156.162C64.9362 156.114 64.8852 156.049 64.8535 155.975C64.8217 155.9 64.8102 155.819 64.8202 155.738C64.9008 155.067 64.8775 154.387 64.7511 153.723C63.9839 153.939 63.2611 154.292 62.6163 154.763C62.5484 154.814 62.4684 154.843 62.3849 154.849C62.3013 154.856 62.2177 154.839 62.1432 154.8C62.0687 154.762 62.0063 154.703 61.9628 154.631C61.9193 154.559 61.8967 154.476 61.8971 154.391L61.9571 146.632C61.9764 144.121 61.8835 141.725 60.5403 140.03C58.4882 137.436 54.4949 137.646 51.6998 138.615C44.9046 140.969 39.7912 147.659 39.268 154.881C39.2605 154.981 39.2204 155.076 39.154 155.151C39.0877 155.225 38.9985 155.277 38.9007 155.295C38.8027 155.313 38.7015 155.3 38.6125 155.254C38.5234 155.21 38.4517 155.135 38.4084 155.045C37.8149 153.857 36.7837 152.95 35.5351 152.518C34.4909 152.155 33.4354 152.195 32.5622 152.632C31.5622 153.129 30.8714 154.343 30.8464 155.645C30.8238 156.765 31.2995 157.699 32.1081 158.146C32.1647 158.172 32.2153 158.21 32.2569 158.256C32.2985 158.303 32.3301 158.358 32.3497 158.417C32.3694 158.477 32.3765 158.539 32.3709 158.602C32.3654 158.665 32.347 158.725 32.3171 158.78C32.2874 158.835 32.2465 158.883 32.1973 158.922C32.1482 158.96 32.0917 158.988 32.0313 159.004C31.9709 159.019 31.9082 159.022 31.8467 159.012C31.7853 159.001 31.7266 158.979 31.6743 158.944C30.5599 158.333 29.911 157.091 29.9404 155.625C29.9733 153.963 30.8464 152.466 32.1613 151.81C33.2519 151.267 34.5555 151.212 35.8296 151.654C36.8737 152.021 37.7986 152.668 38.5046 153.525C39.5296 146.45 44.6815 140.081 51.4042 137.752C54.4802 136.687 58.9027 136.497 61.2493 139.464C62.776 141.395 62.8847 143.96 62.8632 146.641L62.8099 153.553C63.4924 153.163 64.2305 152.883 64.998 152.721C65.1116 152.697 65.2301 152.717 65.3289 152.779C65.4277 152.841 65.4994 152.938 65.5292 153.05C65.7009 153.71 65.7827 154.389 65.7727 155.07C69.1261 153.626 72.1488 152.915 74.9949 152.902H75.0787C78.5624 152.902 81.8252 154.034 84.139 156.032C86.0552 152.895 89.9081 151.092 93.5277 151.709L93.7474 151.747C94.1732 151.825 94.5764 151.898 94.9173 151.794C95.3397 151.666 95.6874 151.255 96.0226 150.857L96.06 150.813C101.107 144.841 109.059 141.555 116.814 142.237C119.508 142.473 123.315 143.313 126.155 145.964C128.661 148.303 129.814 151.71 129.179 154.685C132.524 153.792 136.299 154.737 138.805 157.157L138.941 157.289C139.245 157.588 139.531 157.869 139.864 157.973C140.274 158.1 140.753 157.96 141.26 157.811L141.433 157.76C143.025 157.316 144.692 157.21 146.327 157.451C147.962 157.691 149.529 158.273 150.929 159.158C151.012 159.211 151.076 159.29 151.11 159.383C151.145 159.475 151.149 159.577 151.121 159.671C151.094 159.766 151.036 159.849 150.958 159.909C150.879 159.968 150.784 160 150.685 160H150.688Z" fill="#181E32"/>
<path d="M132.234 151.76C132.149 151.76 132.066 151.736 131.993 151.692C131.921 151.647 131.863 151.583 131.825 151.507C131.788 151.431 131.773 151.346 131.782 151.262C131.79 151.177 131.823 151.097 131.875 151.031C136.225 145.489 139.523 139.207 141.606 132.492C141.621 132.433 141.65 132.379 141.687 132.332C141.725 132.284 141.773 132.245 141.826 132.216C141.88 132.187 141.938 132.169 141.999 132.162C142.059 132.156 142.121 132.162 142.179 132.18C142.237 132.198 142.291 132.228 142.337 132.266C142.383 132.306 142.422 132.353 142.449 132.407C142.478 132.461 142.494 132.52 142.498 132.58C142.503 132.641 142.495 132.701 142.474 132.758C140.359 139.578 137.011 145.958 132.594 151.586C132.552 151.64 132.497 151.684 132.435 151.715C132.372 151.744 132.304 151.76 132.234 151.76Z" fill="#181E32"/>
<path d="M134.88 152.32C134.788 152.32 134.698 152.292 134.622 152.241C134.545 152.19 134.486 152.116 134.453 152.032C134.418 151.946 134.411 151.853 134.431 151.763C134.45 151.674 134.498 151.592 134.564 151.529C136.795 149.444 138.848 147.178 140.702 144.755C140.737 144.705 140.782 144.663 140.835 144.629C140.888 144.597 140.947 144.576 141.008 144.565C141.069 144.556 141.131 144.558 141.191 144.573C141.252 144.589 141.309 144.616 141.358 144.653C141.407 144.69 141.448 144.737 141.479 144.791C141.51 144.843 141.53 144.903 141.537 144.963C141.544 145.025 141.539 145.087 141.522 145.146C141.505 145.205 141.475 145.26 141.435 145.308C139.552 147.772 137.464 150.076 135.196 152.196C135.11 152.276 134.998 152.32 134.88 152.32Z" fill="#181E32"/>
<path d="M132.489 143.76C132.413 143.76 132.338 143.742 132.269 143.707C132.202 143.672 132.145 143.622 132.101 143.56C132.058 143.499 132.031 143.429 132.022 143.355C132.014 143.281 132.024 143.207 132.052 143.137C132.679 141.581 132.769 139.869 132.311 138.258C132.278 138.142 132.293 138.016 132.354 137.911C132.416 137.806 132.518 137.729 132.639 137.697C132.759 137.664 132.887 137.68 132.996 137.739C133.105 137.798 133.185 137.898 133.218 138.014C133.73 139.816 133.628 141.729 132.928 143.47C132.894 143.556 132.833 143.629 132.755 143.681C132.676 143.733 132.585 143.76 132.489 143.76Z" fill="#181E32"/>
<path d="M142.238 152.56C142.131 152.561 142.029 152.525 141.947 152.457C141.864 152.391 141.809 152.298 141.788 152.194C141.767 152.091 141.783 151.983 141.834 151.889C141.883 151.796 141.964 151.723 142.062 151.683C144.368 150.722 146.552 149.49 148.566 148.013C148.614 147.976 148.67 147.949 148.728 147.934C148.787 147.92 148.848 147.916 148.908 147.924C148.969 147.933 149.026 147.954 149.078 147.984C149.13 148.015 149.175 148.057 149.212 148.105C149.247 148.154 149.273 148.21 149.287 148.269C149.301 148.328 149.303 148.389 149.294 148.449C149.284 148.508 149.262 148.565 149.23 148.618C149.198 148.669 149.156 148.713 149.106 148.747C147.031 150.266 144.782 151.535 142.408 152.525C142.354 152.547 142.296 152.559 142.238 152.56Z" fill="#181E32"/>
<path d="M86.6337 16.64C86.5132 16.64 86.3977 16.5926 86.3126 16.5084C86.2275 16.4242 86.1797 16.31 86.1797 16.191C86.1797 16.0719 86.2275 15.9576 86.3126 15.8734C86.3977 15.7893 86.5132 15.742 86.6337 15.742C87.7096 15.742 89.706 15.4771 91.8453 15.0517C92.5496 14.8863 93.2343 14.6482 93.8882 14.3412C94.9029 13.8642 95.1117 13.523 95.1117 13.4568C95.1117 12.8955 93.3162 11.7563 92.8418 11.5643C91.4163 11.0031 89.4665 10.5093 87.0536 10.0928C86.9938 10.0839 86.9365 10.0631 86.8849 10.0319C86.8334 10.0008 86.7887 9.95973 86.7534 9.91124C86.7181 9.86275 86.6929 9.80775 86.6794 9.7495C86.6659 9.69124 86.6642 9.63086 86.6745 9.57204C86.6849 9.51312 86.707 9.45688 86.7397 9.4066C86.7722 9.35631 86.8147 9.31299 86.8645 9.27909C86.9142 9.24519 86.9704 9.22151 87.0295 9.20939C87.0887 9.19715 87.1497 9.19682 87.2091 9.20838C89.6878 9.6349 91.6978 10.1467 93.1823 10.7304C93.2107 10.7416 96.0287 12.0964 96.0197 13.459C96.0197 14.9619 92.0678 15.9283 92.0281 15.9283C89.8308 16.3683 87.7652 16.64 86.6337 16.64Z" fill="#181E32"/>
<path d="M92.6692 16.3999C92.6007 16.4 92.533 16.3845 92.4715 16.3547C92.4099 16.3247 92.3562 16.2811 92.3142 16.2272C92.0364 15.8684 91.8438 15.4227 91.7083 14.8232C91.3538 13.2497 91.5601 11.6024 92.2918 10.1634C92.3456 10.0581 92.4394 9.97832 92.5524 9.94177C92.6654 9.90522 92.7884 9.91481 92.8943 9.9684C93.0002 10.0221 93.0804 10.1154 93.1171 10.2278C93.1538 10.3402 93.1442 10.4626 93.0903 10.5679C92.4586 11.8235 92.2784 13.2565 92.5796 14.6282C92.6849 15.0962 92.8249 15.4305 93.0198 15.6823C93.0707 15.7483 93.1022 15.8271 93.1105 15.9098C93.1189 15.9925 93.1038 16.0759 93.0669 16.1506C93.0301 16.2252 92.9731 16.2882 92.9022 16.3322C92.8313 16.3763 92.7494 16.3997 92.6659 16.3999H92.6692Z" fill="#181E32"/>
</g>
<defs>
<clipPath id="clip0_30_7538">
<rect width="160" height="160" fill="white" transform="translate(0.5)"/>
</clipPath>
</defs>
</svg>
