<svg width="161" height="160" viewBox="0 0 161 160" fill="none" xmlns="http://www.w3.org/2000/svg">
<g clip-path="url(#clip0_30_2081)">
<path d="M47.3578 3.02634C47.4744 1.80187 48.407 1.25611 49.6368 1.37623C52.0183 1.60946 55.7626 1.143 55.4409 3.17794C54.0747 7.78311 48.6051 28.3367 43.9003 25.6848C42.7346 25.0271 42.7288 23.7642 42.9025 22.6446C44.0635 16.0582 45.9951 9.57899 47.3578 3.02634Z" fill="#181E32"/>
<path d="M44.8126 26.4C44.4336 26.3973 44.0619 26.295 43.7342 26.1035C42.2739 25.2781 42.3366 23.6973 42.5061 22.5871C43.1759 18.7555 44.115 14.9157 45.0228 11.202C45.6844 8.49812 46.3682 5.70321 46.9393 2.94449C47.0147 2.22884 47.3328 1.66028 47.8587 1.29954C48.3451 0.965642 48.9858 0.825548 49.716 0.899098C50.2233 0.948131 50.7921 0.965643 51.3934 0.983155C53.1822 1.03569 54.8701 1.08472 55.5991 1.96733C55.7412 2.14315 55.8426 2.3485 55.8963 2.56857C55.9498 2.78864 55.9542 3.01781 55.909 3.23986C55.9066 3.26041 55.9023 3.28072 55.8963 3.30057C55.7906 3.65781 55.6641 4.11079 55.5085 4.64082C52.8514 13.9011 49.3352 24.7212 45.6995 26.2202C45.4185 26.3377 45.1171 26.3988 44.8126 26.4ZM49.348 1.80622C49.0094 1.79244 48.6745 1.88152 48.3868 2.06189C48.0839 2.2697 47.9086 2.6036 47.8645 3.05307C47.8645 3.06941 47.8645 3.08692 47.8575 3.10327C47.2771 5.88533 46.5934 8.69775 45.9282 11.4168C45.0239 15.1153 44.0895 18.9399 43.4255 22.7318C43.2153 24.0966 43.4429 24.8636 44.1893 25.2874C44.3635 25.3913 44.5601 25.4511 44.7623 25.4616C44.9645 25.4722 45.1662 25.4332 45.3501 25.3481C46.4123 24.9103 48.2069 23.0132 50.7236 16.4602C52.4126 12.0589 53.8474 7.0598 54.617 4.37464C54.7656 3.85745 54.8933 3.41382 54.9978 3.06007C55.0172 2.97275 55.0168 2.88227 54.9967 2.79517C54.9766 2.70808 54.9373 2.62659 54.8817 2.5569C54.4174 1.99885 52.726 1.94981 51.3644 1.90895C50.7735 1.89261 50.1618 1.87393 49.6231 1.82139C49.5303 1.81124 49.4386 1.80622 49.348 1.80622Z" fill="#181E32"/>
<path d="M19.2756 126.724C19.1304 127.028 18.9816 127.346 18.9805 127.683C18.9805 128.657 20.1017 129.187 21.051 129.401C23.2192 129.889 25.2746 130.709 26.5864 130.28C28.2991 129.719 28.9579 120.894 29.1485 119.1C29.5238 115.564 29.8084 112.004 29.9293 108.453C29.9537 107.742 30.0199 106.797 29.0671 106.886C28.2468 106.961 27.4137 107.858 26.8955 108.418C24.9714 110.499 24.531 113.277 23.6502 115.883C22.403 119.579 20.9424 123.198 19.2756 126.724Z" fill="#181E32"/>
<path d="M25.7361 130.88C24.8182 130.88 23.7559 130.594 22.5701 130.277C22.04 130.137 21.4937 129.99 20.9393 129.866C19.4075 129.517 18.4931 128.709 18.5 127.69C18.5 127.246 18.6818 126.866 18.8402 126.532C20.5032 123.018 21.9613 119.413 23.2072 115.73C23.4029 115.148 23.58 114.55 23.7524 113.968C24.3604 111.911 24.9906 109.783 26.5597 108.088C27.1095 107.494 28.0309 106.5 29.035 106.408C29.4381 106.371 29.7666 106.467 30.0088 106.695C30.4561 107.118 30.4317 107.822 30.4107 108.385V108.456C30.2942 111.717 30.0426 115.218 29.6244 119.149C29.6058 119.324 29.5825 119.568 29.5545 119.865C28.8556 127.16 28.0402 130.309 26.7379 130.736C26.4136 130.836 26.0756 130.885 25.7361 130.88ZM19.6859 126.93C19.5636 127.189 19.4366 127.457 19.4354 127.694C19.4354 128.342 20.3172 128.772 21.1466 128.957C21.7162 129.085 22.2718 129.234 22.8112 129.377C24.2474 129.762 25.6068 130.125 26.4502 129.843C26.5725 129.803 27.2167 129.42 27.8678 125.804C28.2627 123.61 28.5003 121.112 28.6285 119.769C28.6564 119.468 28.6797 119.221 28.6995 119.043C29.1154 115.134 29.3705 111.659 29.4812 108.418V108.346C29.4928 108.029 29.5114 107.5 29.3705 107.366C29.2945 107.326 29.2071 107.313 29.1224 107.328C28.4736 107.388 27.6745 108.251 27.2446 108.715C25.8235 110.249 25.2516 112.181 24.647 114.226C24.4734 114.815 24.2975 115.426 24.0902 116.023C22.8331 119.739 21.3617 123.378 19.6835 126.925L19.6859 126.93Z" fill="#181E32"/>
<path d="M129.507 127.155C130.035 129.114 129.998 130.895 132.483 130.395C133.965 130.095 135.47 129.878 136.884 129.345C138.524 128.942 138.6 127.26 137.987 125.877C136.291 121.134 132.952 113.589 131.255 108.846C130.972 108.056 124.471 104.571 124.581 105.524C124.959 108.769 126.709 115.448 127.41 118.64C128.206 122.258 128.711 123.531 129.507 127.155Z" fill="#181E32"/>
<path d="M131.718 130.96C129.904 130.96 129.559 129.46 129.249 128.116C129.186 127.847 129.123 127.568 129.047 127.29C129.047 127.283 129.047 127.275 129.047 127.268C128.651 125.464 128.32 124.223 127.997 123.022C127.674 121.822 127.342 120.561 126.947 118.737C126.749 117.841 126.462 116.635 126.159 115.371C125.366 112.053 124.379 107.923 124.105 105.562C124.085 105.413 124.123 105.261 124.212 105.137C124.3 105.015 124.431 104.929 124.58 104.899C125.252 104.741 127.04 105.593 128.423 106.335C129.548 106.939 131.469 108.046 131.691 108.676C132.538 111.04 133.818 114.164 135.057 117.178C136.295 120.192 137.578 123.326 138.432 125.709C138.899 126.774 138.947 127.833 138.561 128.615C138.27 129.21 137.744 129.618 137.033 129.799C135.865 130.238 134.649 130.471 133.468 130.694C133.171 130.751 132.872 130.811 132.574 130.868C132.292 130.927 132.005 130.958 131.718 130.96ZM129.952 127.058C130.03 127.348 130.095 127.632 130.158 127.907C130.535 129.541 130.707 130.29 132.388 129.951C132.689 129.89 132.991 129.834 133.292 129.776C134.495 129.542 135.626 129.332 136.724 128.917C136.742 128.91 136.761 128.904 136.779 128.899C137.239 128.782 137.547 128.559 137.721 128.199C137.983 127.667 137.925 126.87 137.568 126.065L137.557 126.034C136.709 123.669 135.429 120.546 134.19 117.527C132.95 114.509 131.671 111.387 130.818 109.003C130.668 108.787 129.668 108.055 127.941 107.135C126.567 106.401 125.574 105.997 125.079 105.86C125.405 108.22 126.319 112.049 127.063 115.15C127.368 116.425 127.656 117.629 127.855 118.536C128.251 120.34 128.582 121.581 128.905 122.782C129.228 123.982 129.552 125.238 129.952 127.052V127.058Z" fill="#181E32"/>
<path d="M102.637 3.67567C102.448 3.19628 102.455 2.66244 102.655 2.18781C102.855 1.71307 103.232 1.335 103.708 1.13386C105.31 0.458682 107.084 0.301634 108.781 0.684826C109.193 0.780216 109.617 0.917487 109.904 1.23158C110.19 1.54567 110.285 1.93654 110.382 2.32741C111.932 8.62192 112.882 15.0487 113.22 21.5219C113.237 21.8464 111.627 22.4525 111.356 22.506C110.838 22.6224 110.407 22.5654 110.017 22.1885C109.021 21.2287 108.348 19.5931 107.858 18.3344C106.556 14.9876 105.55 11.172 104.246 7.82517L102.637 3.67567Z" fill="#181E32"/>
<path d="M110.924 23.0399C110.696 23.0422 110.471 22.999 110.261 22.9127C110.051 22.8265 109.86 22.6991 109.7 22.5379C108.658 21.5339 107.98 19.9335 107.428 18.5126C106.77 16.8237 106.18 14.9939 105.609 13.2246C105.038 11.4554 104.457 9.65238 103.81 7.99029L102.193 3.83682C101.956 3.24386 101.962 2.58135 102.211 1.99292C102.458 1.40438 102.93 0.937085 103.52 0.692024C105.217 -0.0225449 107.095 -0.188755 108.89 0.216807C109.323 0.31814 109.869 0.487029 110.253 0.902842C110.618 1.29885 110.748 1.82182 110.836 2.20386C112.397 8.53364 113.356 14.9963 113.699 21.5059C113.721 21.9439 113.276 22.2386 112.601 22.5472C112.235 22.7176 111.855 22.8594 111.467 22.9712C111.289 23.0137 111.107 23.0368 110.924 23.0399ZM106.955 0.934288C105.897 0.935337 104.851 1.14639 103.876 1.5551C103.514 1.71141 103.228 2.00084 103.076 2.36319C102.924 2.72543 102.918 3.1325 103.059 3.49905L104.676 7.65251C105.333 9.34139 105.924 11.17 106.495 12.9393C107.066 14.7085 107.647 16.5115 108.294 18.1806C108.667 19.1404 109.363 20.9271 110.346 21.8728C110.588 22.1058 110.846 22.1629 111.264 22.0708C111.497 22.0196 112.46 21.6341 112.754 21.4174C112.411 15.0151 111.468 8.65885 109.935 2.43215C109.841 2.05011 109.753 1.74145 109.566 1.53879C109.356 1.30584 109 1.20451 108.678 1.12996C108.115 0.999513 107.538 0.933823 106.961 0.934288H106.955Z" fill="#181E32"/>
<path d="M17.3696 115.895C59.3567 110.784 101.923 114.38 144.231 113.135C144.643 113.123 145.035 112.948 145.32 112.651C145.606 112.353 145.763 111.954 145.757 111.542C145.392 79.9473 146.491 48.3823 149.055 16.8452C149.071 16.6446 149.045 16.4428 148.979 16.2526C148.914 16.0625 148.809 15.8882 148.671 15.7409C148.534 15.5936 148.367 15.4766 148.183 15.3972C147.998 15.3179 147.798 15.278 147.597 15.2801L137.341 15.3885L125.496 15.5143L113.651 15.6402L101.807 15.7672L89.962 15.8931L78.1172 16.0189L66.2714 16.1448L54.4256 16.2707L42.5775 16.3965L30.7363 16.5236L18.8917 16.6494L15.9431 16.6809C15.1389 16.689 14.2555 16.5935 13.4665 16.7881C12.3674 17.0608 11.9514 17.9919 11.8803 19.0466C11.773 20.7177 12.1075 22.4611 12.2299 24.1276C12.3706 26.0396 12.4871 27.9539 12.5795 29.8705C12.766 33.7383 12.8616 37.6097 12.8965 41.481C12.9315 45.3267 12.9059 49.1725 12.8511 53.0182C12.7963 56.8825 12.7112 60.7457 12.6273 64.6101C12.5434 68.4744 12.4607 72.3353 12.4082 76.1985C12.3558 80.0615 12.336 83.9142 12.3779 87.7727C12.4199 91.6313 12.5236 95.4735 12.7206 99.3192C12.9175 103.165 13.2054 107 13.618 110.826C13.6389 111.022 13.7345 112.021 13.8511 113.111C13.8959 113.526 14.0231 113.928 14.2249 114.294C14.4268 114.66 14.6994 114.982 15.0269 115.24C15.3544 115.5 15.7303 115.691 16.1325 115.803C16.5347 115.916 16.9552 115.948 17.3696 115.895Z" fill="#FF6800"/>
<path d="M23.4316 40.2499C23.7368 60.6947 23.1789 80.8012 24.347 101.582C24.672 107.359 26.9034 106.884 29.8662 106.712C63.2411 104.753 97.2262 104.226 129.935 105.6C131.981 105.686 133.845 105.792 133.798 102.049L136.901 29.3686C136.901 24.8305 136.443 25.6374 133.368 25.6899C124.113 25.8601 97.9332 25.3471 88.4775 25.3028C79.6985 25.2608 66.8957 25.3995 58.1191 25.6234C28.2509 26.3848 25.6631 24.0015 23.9138 26.0607C22.5826 27.6278 23.3699 34.969 23.3897 37.0212C23.4002 38.1009 23.4165 39.1748 23.4316 40.2499Z" fill="#1B5EC9"/>
<path d="M41.3667 140.423C42.3188 136.534 43.2755 132.605 43.3326 128.601C43.4491 120.271 39.6782 112.068 40.8855 103.825C41.3854 100.419 42.7243 97.1812 44.3464 94.1507C46.5476 90.0314 49.2773 86.2176 52.4661 82.8047C53.5148 81.6811 55.2313 80.5458 56.4362 81.5016C57.2169 82.1217 57.2519 83.2884 57.1027 84.2745C56.47 88.5488 53.8889 92.2472 52.3251 96.2802C50.7613 100.313 50.5002 105.504 53.7502 108.35C54.7512 109.227 55.9922 109.784 57.2461 110.225C60.3178 111.306 63.7425 111.754 66.8154 110.68C71.2435 109.133 74.166 104.596 74.8221 99.9448C75.4781 95.2941 74.2056 90.5699 72.3563 86.2526C70.507 81.9352 68.0832 77.8838 66.2537 73.5583C65.8657 72.6421 65.5009 71.6245 65.7876 70.6722C66.1955 69.3341 67.8164 68.6674 69.1949 68.9064C70.5734 69.1453 71.7294 70.0638 72.735 71.0359C77.564 75.7041 81.0192 81.3151 83.5805 87.5242C82.9978 80.2975 81.6379 73.8508 81.0506 66.6206C80.9026 64.7976 81.1974 62.3592 82.999 62.048C84.3181 61.8149 85.8854 62.414 86.8992 64.2218C91.0942 71.7003 92.6021 80.0656 93.2931 88.2224C94.1006 82.7616 93.3887 76.7077 93.4912 71.1886C93.5227 69.5393 93.673 67.6021 95.0702 66.7255C96.2669 65.9749 97.9263 66.4225 98.9459 67.4016C99.9655 68.3807 100.478 69.7642 100.891 71.1163C102.942 77.8395 102.817 86.2281 102.639 92.4104C103.467 89.5431 103.044 86.2502 104.871 83.0134C106.761 79.6648 109.402 81.0074 109.855 83.1789C111.306 90.1305 109.636 95.9748 108.507 102.681C108.06 105.339 107.483 108.017 106.243 110.411C105.243 112.343 103.839 114.033 102.429 115.692C97.2423 121.803 91.8132 127.704 86.1441 133.392C80.6859 138.87 75.2963 139.544 76.4441 147.191C76.8648 150 77.7481 155.408 74.4422 156.029C73.0928 156.283 46.1794 156.504 41.7443 156.087C35.8794 155.538 40.8144 142.679 41.3667 140.423Z" fill="#F2DFE7"/>
<path d="M84.0806 102.32C84.0498 102.32 84.0202 102.318 83.9906 102.312C83.9313 102.3 83.8754 102.276 83.8264 102.242C83.7762 102.208 83.7329 102.164 83.6998 102.114C83.6667 102.062 83.6439 102.005 83.6325 101.944C83.6211 101.885 83.6211 101.823 83.6325 101.762C84.1399 99.1574 84.6587 92.5462 83.6325 88.3395C83.6177 88.28 83.6154 88.2182 83.6245 88.1575C83.6325 88.0969 83.653 88.0385 83.685 87.986C83.7158 87.9335 83.7557 87.888 83.8047 87.8519C83.8526 87.8145 83.9073 87.7889 83.9655 87.7737C84.0236 87.7585 84.084 87.7562 84.1433 87.7655C84.2026 87.7749 84.2596 87.7959 84.3109 87.8274C84.3622 87.8589 84.4067 87.9009 84.4421 87.9499C84.4785 87.9989 84.5036 88.0549 84.5185 88.1144C85.6393 92.7189 84.9916 99.54 84.5185 101.944C84.4979 102.048 84.4432 102.143 84.3645 102.212C84.2847 102.279 84.1844 102.318 84.0806 102.32Z" fill="#1B5EC9"/>
<path d="M92.2397 102.88C92.2005 102.88 92.1624 102.875 92.1244 102.865C92.0057 102.835 91.9043 102.757 91.8432 102.651C91.7809 102.545 91.7637 102.418 91.7936 102.298C93.1698 96.9323 93.1997 93.3631 92.7641 88.2668C92.7537 88.1435 92.7917 88.0214 92.8713 87.926C92.9496 87.8318 93.0626 87.7725 93.1848 87.762C93.3081 87.7504 93.4291 87.7899 93.5225 87.869C93.617 87.9493 93.6757 88.0632 93.6861 88.1865C94.131 93.3887 94.0987 97.0359 92.6891 102.531C92.6638 102.631 92.605 102.721 92.5243 102.783C92.4425 102.847 92.3422 102.881 92.2397 102.88Z" fill="#1B5EC9"/>
<path d="M99.4456 105.28C99.3979 105.28 99.3514 105.273 99.306 105.258C99.1884 105.22 99.0907 105.139 99.0336 105.029C98.9766 104.92 98.965 104.792 99.0011 104.675C99.079 104.423 99.1617 104.159 99.2513 103.885C100.224 100.81 101.557 96.598 102.126 91.8518C102.141 91.7281 102.205 91.615 102.303 91.5392C102.402 91.4623 102.526 91.4284 102.65 91.4436C102.773 91.4588 102.886 91.5229 102.962 91.622C103.038 91.72 103.072 91.8448 103.057 91.9684C102.475 96.8009 101.128 101.064 100.147 104.172C100.061 104.445 99.9775 104.707 99.8995 104.959C99.8681 105.055 99.8076 105.138 99.7249 105.195C99.6435 105.253 99.5457 105.282 99.4456 105.28Z" fill="#1B5EC9"/>
<path d="M71.7729 76.08C71.6448 76.0795 71.5168 76.0704 71.3897 76.0529C69.7068 75.8174 68.1288 72.7858 67.7911 71.2965C67.7774 71.2361 67.7756 71.1737 67.7858 71.1127C67.796 71.0517 67.818 70.9933 67.8505 70.9409C67.883 70.8884 67.9253 70.8431 67.9752 70.8072C68.025 70.7713 68.0814 70.7457 68.141 70.7319C68.2007 70.718 68.2625 70.7163 68.3228 70.7265C68.3832 70.7368 68.4409 70.759 68.4927 70.7919C68.5446 70.8247 68.5895 70.8676 68.625 70.9179C68.6604 70.9683 68.6858 71.0253 68.6995 71.0857C69.029 72.535 70.4464 74.9709 71.5178 75.1193C72.6999 75.2864 73.3812 74.2716 73.5699 73.9561C73.6365 73.8585 73.737 73.7898 73.8513 73.7638C73.9657 73.7378 74.0857 73.7564 74.1871 73.8158C74.2885 73.8753 74.364 73.9712 74.3986 74.0845C74.4332 74.1978 74.4242 74.3201 74.3734 74.427C73.8959 75.2594 72.9794 76.08 71.7729 76.08Z" fill="#181E32"/>
<path d="M86.2722 70.6401C85.8175 70.6338 85.3733 70.4968 84.993 70.2453C83.6649 69.3998 83.2207 65.8938 83.2207 65.0272C83.2207 64.9033 83.2696 64.7844 83.3568 64.6968C83.444 64.6092 83.5626 64.5601 83.6859 64.5601C83.8091 64.5601 83.9278 64.6092 84.015 64.6968C84.1022 64.7844 84.1511 64.9033 84.1511 65.0272C84.1511 66.0585 84.6848 68.9431 85.4896 69.4558C86.4106 70.0398 87.1596 69.4441 87.5247 69.0354C87.6073 68.9424 87.7224 68.8861 87.8469 68.8789C87.9701 68.8716 88.0911 68.914 88.1841 68.9968C88.2772 69.0795 88.333 69.1957 88.3399 69.3199C88.3469 69.4441 88.3051 69.5661 88.2225 69.659C87.6387 70.3072 86.9607 70.6401 86.2722 70.6401Z" fill="#181E32"/>
<path d="M99.2041 75.12C99.0982 75.1201 98.9923 75.114 98.8875 75.1015C98.32 75.0347 97.863 74.7963 97.5637 74.4103C96.4506 72.9806 96.7453 70.3782 96.873 69.2722C96.8903 69.1202 96.9064 68.9773 96.9076 68.9266C96.9099 68.866 96.9237 68.8065 96.9479 68.7513C96.9732 68.6961 97.0089 68.6465 97.0526 68.605C97.0964 68.5635 97.1482 68.5311 97.2046 68.5097C97.2621 68.4883 97.322 68.4783 97.3818 68.4802C97.4428 68.4821 97.5027 68.4959 97.558 68.5208C97.6121 68.5457 97.6627 68.5813 97.7041 68.6254C97.7456 68.6695 97.7778 68.7213 97.7985 68.7779C97.8204 68.8346 97.8308 68.8948 97.8285 68.9554C97.8285 69.0499 97.81 69.1858 97.7882 69.3817C97.6846 70.2941 97.4095 72.7168 98.2924 73.8493C98.4742 74.0797 98.777 74.1649 98.998 74.1949C99.4585 74.2479 99.8533 74.1177 99.9914 74.0071C100.039 73.9692 100.093 73.9411 100.151 73.9243C100.209 73.9075 100.27 73.9023 100.33 73.9091C100.391 73.9158 100.448 73.9343 100.501 73.9636C100.554 73.9928 100.602 74.0323 100.64 74.0797C100.678 74.127 100.705 74.1813 100.722 74.2396C100.739 74.2978 100.744 74.3587 100.737 74.419C100.73 74.4792 100.712 74.5375 100.683 74.5906C100.653 74.6436 100.614 74.6904 100.567 74.7283C100.247 74.9702 99.7278 75.12 99.2041 75.12Z" fill="#181E32"/>
<path d="M108.337 88.6395C107.847 88.6499 107.369 88.4779 106.991 88.1557C106.793 87.9883 106.633 87.7793 106.52 87.5425C106.408 87.3058 106.347 87.046 106.34 86.7827C106.34 85.576 106.579 84.0772 106.802 83.0783C106.829 82.9594 106.901 82.8555 107.001 82.7908C107.101 82.725 107.224 82.7042 107.339 82.7319C107.456 82.7585 107.557 82.8324 107.619 82.9363C107.682 83.0402 107.703 83.1661 107.677 83.285C107.464 84.2354 107.237 85.6534 107.237 86.7827C107.244 86.9121 107.277 87.0391 107.336 87.1534C107.393 87.2689 107.475 87.3705 107.573 87.4501C107.757 87.6107 108.089 87.7827 108.616 87.6903C108.734 87.6696 108.854 87.6984 108.952 87.7689C109.048 87.8404 109.114 87.9478 109.133 88.0691C109.153 88.1892 109.127 88.3139 109.057 88.4132C108.989 88.5137 108.884 88.5806 108.767 88.6014C108.624 88.6268 108.481 88.6395 108.337 88.6395Z" fill="#181E32"/>
<path d="M51.6778 87.9999C51.3222 88.0035 50.9712 87.9195 50.6543 87.754C50.3375 87.5897 50.0642 87.3498 49.8577 87.0543C49.7908 86.9527 49.7653 86.8286 49.7866 86.7068C49.8079 86.5862 49.8744 86.4787 49.9719 86.4078C50.0694 86.3357 50.1904 86.3061 50.3093 86.3238C50.4282 86.3416 50.5357 86.4054 50.6091 86.5023C51.0977 87.195 51.9661 87.1666 52.5774 86.7813C53.1204 86.4361 53.946 84.7624 54.3385 83.7885C54.3893 83.6797 54.4789 83.5958 54.5889 83.5521C54.6988 83.5084 54.8208 83.5095 54.9301 83.5545C55.0394 83.5994 55.1278 83.6857 55.177 83.7956C55.2262 83.9043 55.2328 84.0296 55.1953 84.1431C55.0065 84.6159 54.0201 86.9728 53.0672 87.5791C52.652 87.8498 52.1705 87.9964 51.6778 87.9999Z" fill="#1B5EC9"/>
<path d="M85.6314 108.96C85.5234 108.96 85.4191 108.922 85.3358 108.853C84.8772 108.481 84.3411 108.221 83.7699 108.089C83.1975 107.959 82.604 107.962 82.0339 108.098C81.9131 108.125 81.7876 108.105 81.6832 108.038C81.5788 107.972 81.5038 107.867 81.4744 107.746C81.4451 107.624 81.4639 107.496 81.5272 107.387C81.5894 107.28 81.6914 107.202 81.8111 107.17C82.5219 107 83.262 106.997 83.9752 107.159C84.6883 107.323 85.3545 107.648 85.9269 108.111C86.002 108.173 86.0571 108.258 86.0829 108.353C86.1099 108.448 86.1064 108.549 86.0736 108.642C86.0419 108.736 85.9821 108.816 85.9023 108.873C85.8225 108.93 85.7287 108.96 85.6314 108.96Z" fill="#1B5EC9"/>
<path d="M94.834 111.6C94.7664 111.6 94.6988 111.585 94.6371 111.557C94.5753 111.53 94.5205 111.489 94.4774 111.439C94.1371 111.053 93.7106 110.749 93.2316 110.545C92.7526 110.342 92.2317 110.247 91.7095 110.266C91.586 110.272 91.4648 110.23 91.3727 110.149C91.2818 110.069 91.2271 109.956 91.2212 109.836C91.2154 109.717 91.2585 109.599 91.3424 109.511C91.4252 109.422 91.5417 109.369 91.6653 109.363C92.3307 109.338 92.9938 109.46 93.6045 109.719C94.2152 109.977 94.7571 110.366 95.1906 110.856C95.2478 110.921 95.2851 111.002 95.2967 111.087C95.3084 111.173 95.2944 111.26 95.2571 111.338C95.2198 111.416 95.1592 111.481 95.0846 111.528C95.01 111.574 94.9226 111.599 94.834 111.599V111.6Z" fill="#1B5EC9"/>
<path d="M100.264 114.16C100.181 114.159 100.1 114.136 100.03 114.093L98.4981 113.185C98.4431 113.155 98.3963 113.115 98.3577 113.065C98.3191 113.017 98.291 112.961 98.2746 112.901C98.2594 112.841 98.2559 112.78 98.2641 112.718C98.2723 112.657 98.2933 112.598 98.3261 112.545C98.3577 112.492 98.401 112.445 98.4513 112.41C98.5016 112.373 98.5589 112.346 98.6198 112.332C98.6806 112.318 98.7438 112.316 98.8058 112.326C98.8678 112.337 98.9263 112.359 98.9789 112.392L100.51 113.3C100.599 113.352 100.667 113.43 100.706 113.525C100.744 113.619 100.75 113.723 100.722 113.821C100.695 113.919 100.636 114.005 100.554 114.066C100.472 114.128 100.372 114.161 100.269 114.16H100.264Z" fill="#1B5EC9"/>
<path d="M61.6467 94.0798C61.3649 94.0844 61.0857 94.0251 60.831 93.904C60.1003 93.5444 59.8381 92.7624 59.6493 92.0572L57.3943 83.5991C56.4096 79.909 54.573 74.5966 53.586 71.7419C53.248 70.7644 53.0254 70.1127 52.9683 69.9184C52.7807 69.2609 52.684 65.5741 52.5674 60.4374C52.5488 59.6379 52.5313 58.8803 52.515 58.2077C52.5011 58.0082 52.4758 57.8097 52.4393 57.613C52.3227 56.8764 52.2004 56.1153 52.7539 55.836C53.2515 55.5846 53.8785 55.9407 55.0648 57.1475C58.2008 60.3362 60.7424 62.9965 62.523 65.7883C63.5719 67.4175 64.3608 70.2745 65.06 72.7916C65.3432 73.8076 65.6101 74.77 65.8571 75.5066L70.0687 88.0411C70.3565 88.9 70.6059 89.8088 70.2284 90.656C69.8508 91.5032 68.9908 91.9361 68.1202 92.2853C66.3035 92.987 64.4349 93.5479 62.5312 93.9611C62.2415 94.032 61.9449 94.0716 61.6467 94.0798ZM60.5501 91.8174C60.6865 92.3248 60.8624 92.8823 61.2423 93.0685C61.5313 93.2104 61.9415 93.1383 62.3378 93.0522C64.1922 92.6483 66.0125 92.1014 67.7823 91.416C68.4663 91.1506 69.1329 90.8341 69.3765 90.2825C69.62 89.7309 69.4231 89.0559 69.1842 88.3425L64.9784 75.8034C64.7221 75.0411 64.4529 74.0694 64.1627 73.0407C63.5148 70.7074 62.7083 67.8039 61.7388 66.291C60.0024 63.5748 57.4946 60.9495 54.397 57.7957C53.8144 57.2045 53.4648 56.9287 53.2713 56.8007C53.2853 57.009 53.3296 57.286 53.3576 57.4629C53.4013 57.7003 53.4304 57.94 53.445 58.1809C53.4613 58.8536 53.4787 59.6135 53.4974 60.413C53.5755 63.8588 53.6932 69.0665 53.8621 69.66C53.9123 69.8357 54.1442 70.5072 54.4646 71.4347C55.4552 74.2998 57.2999 79.6332 58.2928 83.3559L60.5501 91.8174Z" fill="white"/>
<path d="M55.4492 68.56C55.3467 68.56 55.247 68.5273 55.1654 68.4665C55.0839 68.4059 55.0249 68.3206 54.9975 68.2239C54.9701 68.1273 54.9759 68.0245 55.0139 67.9314C55.0519 67.8382 55.1201 67.7599 55.2079 67.7083C55.7197 67.408 60.3852 65.1612 62.4837 65.0408C62.5452 65.0374 62.6068 65.0457 62.665 65.0654C62.7233 65.0853 62.7769 65.116 62.823 65.1561C62.869 65.1962 62.9066 65.2447 62.9334 65.2991C62.9603 65.3533 62.976 65.4122 62.9797 65.4725C62.9833 65.5327 62.9747 65.593 62.9545 65.6499C62.9343 65.7069 62.9028 65.7595 62.8618 65.8046C62.821 65.8496 62.7713 65.8864 62.7159 65.9127C62.6604 65.939 62.6002 65.9544 62.5388 65.9578C60.747 66.061 56.3251 68.1233 55.6904 68.4958C55.6174 68.5381 55.5341 68.5604 55.4492 68.56Z" fill="white"/>
<path d="M64.044 79.36C63.9493 79.36 63.8569 79.3298 63.7797 79.2738C63.7025 79.2178 63.6444 79.1385 63.6133 79.0472C63.0937 77.5174 62.6504 75.8747 62.2208 74.2809C61.7912 72.6871 61.3559 71.0793 60.8454 69.5774C60.8059 69.4608 60.8133 69.333 60.866 69.222C60.9188 69.1111 61.0127 69.026 61.1269 68.9857C61.2412 68.9452 61.3664 68.9528 61.4752 69.0066C61.5839 69.0605 61.6673 69.1562 61.7069 69.2728C62.2276 70.8027 62.6709 72.4453 63.1005 74.0391C63.5301 75.6329 63.9643 77.2395 64.4748 78.7403C64.4988 78.8104 64.506 78.8854 64.4958 78.959C64.4856 79.0325 64.4582 79.1026 64.4161 79.1631C64.3739 79.2236 64.3181 79.273 64.2534 79.3071C64.1886 79.3411 64.1168 79.3588 64.044 79.3588V79.36Z" fill="white"/>
<path d="M65.7196 83.6801C65.613 83.6801 65.5098 83.6427 65.4274 83.5737C65.345 83.506 65.2887 83.4101 65.268 83.3038C65.207 83.0783 65.1201 82.8597 65.0088 82.6541C64.8595 82.3771 64.7465 82.0815 64.6724 81.7741C64.6582 81.7134 64.6564 81.6503 64.6668 81.5883C64.6773 81.5264 64.6999 81.468 64.7333 81.4154C64.7667 81.3616 64.8103 81.3172 64.8613 81.281C64.9123 81.2459 64.9698 81.2214 65.0304 81.2097C65.091 81.1969 65.1535 81.1969 65.214 81.2097C65.2745 81.2226 65.3319 81.2471 65.3827 81.2833C65.4336 81.3184 65.4768 81.364 65.51 81.4165C65.5431 81.4703 65.5654 81.5287 65.5756 81.5907C65.6364 81.8174 65.7235 82.0347 65.8348 82.2404C65.984 82.5185 66.0971 82.8142 66.1712 83.1203C66.183 83.1811 66.1832 83.243 66.1714 83.3026C66.1597 83.3634 66.1364 83.4206 66.1027 83.4721C66.0691 83.5235 66.0259 83.5667 65.9757 83.6006C65.9253 83.6357 65.8688 83.659 65.8094 83.6707C65.7798 83.6766 65.7498 83.6801 65.7196 83.6801Z" fill="white"/>
<path d="M66.957 90.5593C66.8457 90.5593 66.7384 90.5181 66.6548 90.445C66.5714 90.3718 66.5177 90.2701 66.5037 90.1604C66.4896 90.0495 66.5163 89.9386 66.5786 89.846C66.641 89.7546 66.7347 89.6883 66.8424 89.6597C67.1278 89.5866 67.2217 89.4494 67.2676 89.3534C67.5667 88.7328 66.9433 87.3589 66.6774 86.7725C66.6247 86.6582 66.5788 86.5531 66.5445 86.473C66.4977 86.361 66.4975 86.2353 66.5438 86.1233C66.5901 86.0113 66.6791 85.9221 66.7914 85.8753C66.9037 85.8284 67.0301 85.8284 67.1425 85.8741C67.2551 85.9198 67.3446 86.009 67.3913 86.121C67.4223 86.1953 67.4635 86.2879 67.5128 86.3953C67.8852 87.216 68.5774 88.7442 68.0949 89.7489C67.9957 89.9512 67.8522 90.1272 67.6749 90.2655C67.4978 90.4038 67.2916 90.501 67.0716 90.549C67.034 90.5581 66.9955 90.5616 66.957 90.5593Z" fill="white"/>
<path d="M44.679 160C42.0246 160 38.8871 159.927 35.993 159.09C35.3946 158.918 34.788 158.686 34.4003 158.158C33.9824 157.589 33.9731 156.876 33.9661 156.354V156.348C33.9661 155.709 33.9661 155.07 33.9661 154.43C33.9661 152.916 33.9556 151.36 33.9812 149.822C33.9894 149.282 33.9812 148.718 33.9626 148.122C33.9254 146.559 33.8869 144.941 34.2443 143.501C34.6017 142.061 35.7997 141.657 36.6682 141.487C37.9348 141.238 39.2492 141.137 40.5193 141.048C40.9454 141.017 41.3843 140.984 41.8104 140.947C45.7023 140.606 49.6559 140.353 53.5618 140.197C61.4282 139.882 69.3948 139.945 77.2531 140.384C77.9353 140.422 78.7037 140.511 79.1915 141.102C79.649 141.653 79.628 142.394 79.6141 142.885L79.2392 156.026C79.2136 156.92 79.1228 157.927 78.3684 158.546C77.7863 159.026 77.0132 159.069 76.4509 159.099C66.1956 159.664 55.7889 159.967 45.5207 159.998L44.679 160ZM34.8998 156.345C34.9068 156.855 34.93 157.303 35.1536 157.606C35.3771 157.909 35.8137 158.072 36.2537 158.195C39.1048 159.019 42.0118 159.075 45.5149 159.066C55.7679 159.035 66.1583 158.733 76.3974 158.168C76.9609 158.138 77.4533 158.09 77.7758 157.826C78.2275 157.455 78.2857 156.689 78.3055 155.999L78.6804 142.858C78.6932 142.392 78.6874 141.956 78.4731 141.693C78.2228 141.392 77.7071 141.343 77.1995 141.311C69.375 140.874 61.434 140.812 53.5967 141.125C49.7048 141.28 45.7663 141.532 41.8896 141.872C41.4577 141.911 41.0141 141.943 40.5857 141.975C39.3423 142.066 38.0559 142.161 36.844 142.398C35.8218 142.598 35.3305 142.98 35.1454 143.723C34.8183 145.04 34.8555 146.594 34.8905 148.097C34.9056 148.702 34.9184 149.275 34.9091 149.834C34.8846 151.363 34.8905 152.918 34.8951 154.423C34.8959 155.064 34.8966 155.705 34.8975 156.345H34.8998Z" fill="#181E32"/>
<path d="M65.1012 155.199C64.7939 155.199 64.3783 155.158 64.0535 154.846C63.6717 154.485 63.5809 153.937 63.5401 153.399C63.3969 151.514 63.448 149.619 63.6926 147.744C63.7916 146.99 63.9709 146.155 64.5564 145.675C65.0907 145.237 65.7659 145.269 66.213 145.291L81.3363 146.021C81.4597 146.026 81.5761 146.082 81.6587 146.174C81.7425 146.266 81.7856 146.388 81.7798 146.513C81.774 146.637 81.7193 146.755 81.6273 146.838C81.5365 146.923 81.4154 146.966 81.292 146.96L66.1676 146.231C65.7345 146.21 65.3829 146.21 65.1431 146.406C64.8114 146.677 64.6903 147.298 64.6158 147.868C64.3802 149.679 64.331 151.509 64.4691 153.329C64.4842 153.53 64.5203 154.001 64.6914 154.164C64.7974 154.265 65.0058 154.267 65.2467 154.26C71.4399 154.089 75.9567 153.768 81.3398 153.117C81.4003 153.11 81.462 153.115 81.5214 153.131C81.5796 153.149 81.6355 153.177 81.6832 153.215C81.7309 153.253 81.7717 153.3 81.8008 153.355C81.831 153.409 81.8508 153.467 81.8578 153.528C81.8648 153.589 81.8601 153.652 81.8438 153.712C81.8275 153.772 81.7996 153.827 81.7612 153.875C81.7239 153.924 81.6762 153.964 81.6226 153.995C81.5703 154.025 81.5109 154.044 81.4504 154.051C76.0324 154.704 71.4958 155.027 65.2689 155.2L65.1012 155.199Z" fill="#181E32"/>
<path d="M67.1303 148.543C65.8724 149.44 65.7111 151.607 66.9507 152.525C68.1904 153.442 70.3059 152.469 70.3391 150.91C70.3722 149.351 68.8696 147.299 67.1303 148.543Z" fill="#FF6800"/>
<path d="M43.0468 45.44C42.954 45.4401 42.8635 45.4124 42.7865 45.3602C42.7095 45.3082 42.6497 45.2342 42.6147 45.1477C42.5796 45.0612 42.571 44.9661 42.5898 44.8747C42.6086 44.7831 42.6541 44.6994 42.7204 44.634L51.9553 35.4866C52.0441 35.4029 52.1621 35.3574 52.2838 35.3601C52.4055 35.3627 52.5214 35.4132 52.6067 35.5008C52.6919 35.5885 52.7398 35.7062 52.7401 35.8289C52.7403 35.9516 52.693 36.0695 52.6081 36.1575L43.3732 45.3049C43.2862 45.3914 43.169 45.4398 43.0468 45.44Z" fill="white"/>
<path d="M53.4727 45.44C53.4093 45.4397 53.3467 45.4266 53.2886 45.4014C49.3748 43.6812 46.2119 40.6049 44.3804 36.7373C44.3306 36.6256 44.3265 36.4989 44.369 36.3842C44.4116 36.2696 44.4973 36.1762 44.6078 36.1243C44.7184 36.0722 44.8448 36.0658 44.96 36.1062C45.0753 36.1467 45.1701 36.2308 45.2241 36.3405C46.9587 40.0025 49.9536 42.9153 53.6591 44.5448C53.7575 44.5875 53.8382 44.6629 53.8875 44.7583C53.9369 44.8537 53.9519 44.9632 53.93 45.0684C53.9081 45.1736 53.8506 45.2679 53.7672 45.3356C53.6839 45.4033 53.5799 45.4402 53.4727 45.44Z" fill="white"/>
<path d="M61.5926 43.6C61.4828 43.5997 61.3765 43.5614 61.2925 43.4915C61.2084 43.4216 61.1517 43.3248 61.1325 43.2179C60.8246 41.5088 60.9862 39.7493 61.6008 38.1231C61.6477 38.0131 61.7358 37.9253 61.8466 37.8779C61.9575 37.8305 62.0825 37.8274 62.1957 37.8691C62.3088 37.9108 62.4013 37.9942 62.4538 38.1016C62.5064 38.2092 62.5148 38.3326 62.4776 38.4462C61.9228 39.9178 61.7773 41.5096 62.0562 43.0558C62.0779 43.1766 62.0504 43.301 61.9795 43.4017C61.9086 43.5025 61.8002 43.5712 61.6781 43.593C61.6498 43.5978 61.6212 43.6001 61.5926 43.6Z" fill="white"/>
<path d="M58.3405 41.1997C58.2174 41.2041 58.0976 41.1605 58.0075 41.0786C57.9173 40.9968 57.8641 40.8834 57.8597 40.7633C57.8553 40.6431 57.8998 40.5263 57.9837 40.4382C58.0675 40.3503 58.1838 40.2984 58.3068 40.294L64.6399 39.8412C64.763 39.8324 64.8846 39.8715 64.9781 39.9502C65.0714 40.0289 65.1291 40.1405 65.1381 40.2606C65.1472 40.3807 65.107 40.4994 65.0264 40.5906C64.9458 40.6817 64.8314 40.738 64.7084 40.7468L58.3753 41.1997H58.3405Z" fill="white"/>
<path d="M77.4095 41.6C76.9326 41.6022 76.4592 41.5191 76.0118 41.3549C73.9378 40.5863 72.729 38.0835 73.4123 35.9964C73.4311 35.9392 73.4609 35.8863 73.5004 35.8404C73.5398 35.7947 73.5878 35.7572 73.6417 35.7299C73.6957 35.7025 73.7545 35.6861 73.8149 35.6814C73.8753 35.6767 73.936 35.684 73.9936 35.7026C74.0511 35.7213 74.1045 35.751 74.1505 35.7901C74.1966 35.8293 74.2343 35.8771 74.2618 35.9307C74.2892 35.9844 74.3058 36.0428 74.3105 36.1029C74.3151 36.1629 74.308 36.2232 74.2892 36.2805C73.7603 37.8933 74.7351 39.9024 76.3333 40.4958C77.9315 41.0891 79.9929 40.2071 80.6579 38.6447C80.7063 38.5343 80.7962 38.4475 80.9091 38.4028C81.022 38.3581 81.1476 38.3594 81.2594 38.4063C81.3712 38.4531 81.4599 38.5418 81.506 38.6531C81.5521 38.7643 81.5521 38.8894 81.5071 39.001C80.8342 40.5794 79.1161 41.6 77.4095 41.6Z" fill="white"/>
<path d="M74.4203 49.2001C72.4365 49.2001 70.8156 47.9661 70.3523 46.0104C70.3382 45.9509 70.3361 45.8892 70.346 45.8288C70.3559 45.7684 70.3776 45.7107 70.4098 45.6586C70.4421 45.6066 70.4844 45.5615 70.5342 45.5258C70.5839 45.4901 70.6403 45.4645 70.7 45.4505C70.7597 45.4365 70.8215 45.4344 70.8821 45.4442C70.9425 45.4541 71.0005 45.4757 71.0527 45.508C71.1047 45.5402 71.15 45.5824 71.1858 45.632C71.2217 45.6817 71.2472 45.7379 71.2613 45.7974C71.6733 47.5319 73.1903 48.5062 75.0423 48.2199C76.6095 47.9789 78.0846 46.8474 79.0893 45.1164C80.3613 42.9267 80.8924 39.8384 80.6123 36.1819C80.6077 36.1208 80.6147 36.0593 80.6345 36.0011C80.6532 35.9428 80.6835 35.8889 80.7244 35.8425C80.764 35.796 80.8131 35.7578 80.8679 35.7301C80.9227 35.7025 80.9823 35.686 81.0441 35.6813C81.1048 35.6768 81.1666 35.6842 81.225 35.7035C81.2833 35.7225 81.3382 35.753 81.3837 35.7931C81.4304 35.833 81.4689 35.8818 81.4969 35.9365C81.5249 35.9912 81.5412 36.0509 81.5459 36.1121C81.8365 39.9536 81.267 43.2305 79.9004 45.5832C78.7532 47.5622 77.0355 48.8555 75.1882 49.1407C74.934 49.1799 74.6774 49.1998 74.4203 49.2001Z" fill="white"/>
<path d="M89.1498 39.9196C89.0874 39.922 89.0263 39.9127 88.9686 39.8925C88.9098 39.8722 88.8569 39.8414 88.811 39.8016C88.7664 39.7619 88.7287 39.7141 88.7028 39.6608C88.677 39.6076 88.6629 39.5501 88.6605 39.4916C88.6582 39.4331 88.6676 39.3746 88.6887 39.3196C88.7099 39.2647 88.7428 39.2142 88.7852 39.1711C88.8263 39.128 88.8769 39.0932 88.9334 39.0687C88.9898 39.0441 89.0498 39.0303 89.1121 39.0279L93.1107 38.7214C93.1718 38.7167 93.2342 38.7236 93.293 38.7417C93.353 38.7597 93.4071 38.7886 93.4541 38.8267C93.5011 38.8648 93.5399 38.9113 93.5682 38.9637C93.5964 39.016 93.614 39.0731 93.6187 39.1316C93.6234 39.1901 93.6164 39.2491 93.5976 39.3049C93.5776 39.3607 93.5482 39.4126 93.507 39.4573C93.467 39.502 93.4176 39.5387 93.3635 39.5655C93.3083 39.5923 93.2471 39.6084 93.186 39.6131L89.1874 39.9196H89.1498Z" fill="white"/>
<path d="M89.7994 42.7992C89.6743 42.8067 89.5516 42.7599 89.4584 42.6694C89.4112 42.6246 89.3747 42.5704 89.3475 42.5098C89.3204 42.4492 89.3051 42.3836 89.3015 42.3164C89.298 42.2494 89.3074 42.1822 89.3275 42.1189C89.3475 42.0555 89.3794 41.997 89.4218 41.9471C89.5044 41.8459 89.6224 41.785 89.7474 41.7775L92.5282 41.4442C92.5907 41.4355 92.6532 41.4402 92.7134 41.4582C92.7747 41.4762 92.8313 41.5071 92.8809 41.549C92.9293 41.5909 92.9706 41.6431 93.0012 41.7024C93.0319 41.7618 93.0508 41.8272 93.0579 41.8946C93.0649 41.962 93.059 42.0303 93.0413 42.0955C93.0236 42.1606 92.9942 42.2213 92.954 42.2739C92.9151 42.3265 92.8656 42.3699 92.8101 42.4019C92.7547 42.4337 92.6945 42.4533 92.632 42.4595L89.8525 42.7928L89.7994 42.7992Z" fill="white"/>
<path d="M103.877 48.1483C103.796 48.1483 103.716 48.1275 103.647 48.0879C103.577 48.0484 103.518 47.9915 103.477 47.9226C102.19 45.8086 102.135 44.0103 103.32 43.1146C104.234 42.4224 105.378 42.6609 106.388 42.8702C106.592 42.9123 106.786 42.9533 106.972 42.9872C108.727 43.29 110.943 42.5288 111.457 40.7738C111.746 39.7892 111.437 38.5767 110.653 37.6167C110.011 36.8287 109.104 36.1821 107.714 35.5214C106.114 34.7626 104.924 34.586 103.971 34.973C103.387 35.2069 102.919 35.8395 102.814 36.5095C102.773 36.7784 102.766 37.2777 103.17 37.6074C103.263 37.687 103.32 37.7993 103.33 37.9205C103.341 38.0417 103.304 38.1621 103.226 38.2564C103.15 38.3507 103.039 38.4114 102.919 38.4255C102.797 38.4398 102.676 38.4063 102.58 38.3323C102.021 37.8775 101.769 37.1631 101.888 36.3703C102.039 35.3729 102.735 34.4633 103.622 34.1055C105.217 33.4612 106.951 34.123 108.117 34.6772C109.143 35.1636 110.44 35.871 111.38 37.0274C112.357 38.2271 112.731 39.767 112.357 41.0427C111.689 43.3227 109.015 44.2932 106.816 43.9144C106.61 43.8793 106.399 43.8349 106.196 43.7975C105.303 43.6115 104.459 43.4373 103.884 43.8723C102.722 44.7492 104.006 47.0059 104.275 47.4491C104.319 47.52 104.342 47.6012 104.343 47.6843C104.344 47.7673 104.325 47.8492 104.284 47.9216C104.243 47.994 104.183 48.0543 104.112 48.0961C104.04 48.138 103.958 48.1601 103.875 48.16L103.877 48.1483Z" fill="white"/>
<path d="M103.864 54.2399C103.677 54.2426 103.491 54.2071 103.319 54.1352C103.146 54.0635 102.989 53.957 102.859 53.8225C102.44 53.3839 102.382 52.6831 102.716 52.08C103.05 51.4768 103.632 51.1852 104.212 51.3075C104.272 51.3202 104.329 51.3447 104.38 51.3795C104.431 51.4145 104.475 51.4591 104.508 51.5109C104.541 51.5626 104.565 51.6205 104.576 51.6813C104.587 51.7419 104.587 51.8044 104.574 51.8648C104.561 51.9252 104.537 51.9826 104.501 52.0335C104.467 52.0845 104.423 52.128 104.371 52.1618C104.32 52.1955 104.263 52.2188 104.202 52.2301C104.141 52.2415 104.079 52.2408 104.019 52.2281C103.812 52.1834 103.629 52.3669 103.535 52.5362C103.418 52.7372 103.381 53.0065 103.535 53.1711C103.69 53.3357 103.964 53.3157 104.161 53.2381C104.38 53.1499 104.602 52.9524 104.603 52.7078C104.603 52.5831 104.652 52.4634 104.74 52.3752C104.828 52.287 104.948 52.2375 105.072 52.2375C105.196 52.2375 105.315 52.287 105.403 52.3752C105.491 52.4634 105.54 52.5831 105.54 52.7078C105.54 53.3075 105.13 53.8566 104.507 54.1058C104.304 54.1911 104.085 54.2366 103.864 54.2399Z" fill="white"/>
<path d="M27.2866 56.16C27.1629 56.16 27.0444 56.1117 26.9568 56.026C26.8694 55.9402 26.8203 55.8239 26.8203 55.7026C26.8203 55.5812 26.8694 55.4648 26.9568 55.3791C27.0444 55.2933 27.1629 55.2452 27.2866 55.2452C35.839 55.2452 41.3684 54.8026 45.0267 54.5099C46.9701 54.3532 48.3854 54.24 49.5512 54.24H49.634C49.7577 54.24 49.8762 54.2881 49.9637 54.3739C50.0511 54.4597 50.1003 54.5761 50.1003 54.6974C50.1003 54.8187 50.0511 54.935 49.9637 55.0208C49.8762 55.1066 49.7577 55.1548 49.634 55.1548H49.5535C48.4262 55.1548 47.0261 55.2692 45.1048 55.4213C41.429 55.7151 35.8775 56.16 27.2866 56.16Z" fill="white"/>
<path d="M15.6884 45.12C15.5583 45.12 15.4334 45.0711 15.3415 44.9838C15.2495 44.8966 15.1979 44.7783 15.1979 44.6549C15.1979 37.5877 15.0188 30.4262 14.6607 23.3683C14.6544 23.2451 14.7 23.1244 14.7874 23.0329C14.875 22.9414 14.9972 22.8866 15.1274 22.8805C15.2573 22.8746 15.3846 22.9178 15.4811 23.0008C15.5776 23.0838 15.6354 23.1997 15.6418 23.323C16.0011 30.396 16.1826 37.5737 16.1801 44.6549C16.1801 44.7162 16.1674 44.7766 16.1426 44.8332C16.1178 44.8897 16.0817 44.9411 16.0359 44.9842C15.9903 45.0275 15.9361 45.0616 15.8764 45.085C15.8168 45.1083 15.7529 45.1202 15.6884 45.12Z" fill="#181E32"/>
<path d="M16.4192 58.96C16.2938 58.9601 16.1734 58.9125 16.0836 58.8275C15.9939 58.7424 15.9422 58.6268 15.9393 58.5051L15.6994 48.5565C15.6964 48.433 15.744 48.3136 15.8319 48.2242C15.9197 48.1349 16.0406 48.0831 16.1679 48.0801C16.2951 48.0772 16.4184 48.1234 16.5105 48.2086C16.6026 48.2938 16.6561 48.4109 16.6591 48.5344L16.8991 58.4842C16.9005 58.5454 16.8895 58.6061 16.8667 58.6631C16.8439 58.7201 16.8098 58.7722 16.7662 58.8163C16.7226 58.8605 16.6705 58.896 16.6128 58.9206C16.5551 58.9453 16.493 58.9587 16.43 58.96H16.4192Z" fill="#181E32"/>
<path d="M16.149 65.52H16.1243C16.0504 65.52 15.6851 65.4726 15.6996 64.9712C15.6996 64.9238 15.6996 64.8556 15.7064 64.7736C15.712 64.6118 15.7198 64.3969 15.7277 64.182C15.7445 63.7522 15.7624 63.3235 15.7624 63.3235C15.7647 63.2628 15.7788 63.2032 15.8035 63.1481C15.8283 63.093 15.8634 63.0434 15.9067 63.0023C15.9501 62.9611 16.0009 62.9293 16.0561 62.9083C16.1115 62.8874 16.1702 62.8779 16.2291 62.8804C16.2879 62.8829 16.3458 62.8974 16.3992 62.9229C16.4527 62.9484 16.5007 62.9846 16.5406 63.0293C16.5805 63.0739 16.6115 63.1263 16.6317 63.1833C16.652 63.2404 16.6612 63.301 16.6589 63.3616C16.6387 63.8481 16.6107 64.5864 16.5995 64.9041C16.6011 64.9299 16.6011 64.9558 16.5995 64.9816C16.5748 65.4576 16.2936 65.52 16.149 65.52Z" fill="#181E32"/>
<path d="M16.6852 100.398C16.5694 100.398 16.4576 100.353 16.3729 100.273C16.288 100.193 16.2363 100.082 16.2282 99.9643C15.5975 90.5788 15.3998 81.0523 15.6398 71.654C15.6429 71.5304 15.6942 71.4131 15.782 71.328C15.87 71.243 15.9876 71.197 16.1088 71.2002C16.23 71.2035 16.345 71.2557 16.4284 71.3453C16.5119 71.435 16.5569 71.5549 16.5538 71.6785C16.3139 81.0511 16.5116 90.552 17.14 99.9038C17.1481 100.027 17.1079 100.148 17.0282 100.242C16.9485 100.335 16.8358 100.392 16.715 100.4L16.6852 100.398Z" fill="#181E32"/>
<path d="M16.9694 107.76C16.8497 107.761 16.7337 107.722 16.6426 107.651C16.5515 107.58 16.4913 107.48 16.4735 107.37C16.4636 107.31 16.2255 105.871 16.264 105.078C16.2697 104.957 16.3274 104.842 16.4245 104.76C16.5216 104.678 16.65 104.635 16.7815 104.641C16.913 104.645 17.0368 104.699 17.1258 104.788C17.2147 104.879 17.2614 104.997 17.2557 105.118C17.2223 105.816 17.4516 107.212 17.4541 107.226C17.4639 107.286 17.461 107.346 17.4454 107.405C17.4299 107.463 17.402 107.518 17.3635 107.567C17.3249 107.616 17.2764 107.657 17.2206 107.688C17.165 107.719 17.1031 107.739 17.0388 107.749C17.0158 107.754 16.9927 107.758 16.9694 107.76Z" fill="#181E32"/>
<path d="M19.0569 113.52C18.6868 113.52 17.9465 113.453 17.3955 112.967C16.9606 112.583 16.7402 112.039 16.7402 111.352C16.7402 111.227 16.7907 111.106 16.8805 111.018C16.9703 110.93 17.0923 110.88 17.2194 110.88C17.3464 110.88 17.4683 110.93 17.5582 111.018C17.648 111.106 17.6985 111.227 17.6985 111.352C17.6985 111.763 17.8075 112.06 18.0316 112.26C18.4568 112.639 19.1767 112.573 19.1839 112.571C19.308 112.562 19.4312 112.601 19.527 112.679C19.6229 112.758 19.684 112.87 19.6975 112.991C19.7109 113.113 19.6754 113.236 19.5987 113.332C19.5222 113.429 19.4103 113.493 19.2869 113.509C19.2105 113.517 19.1337 113.521 19.0569 113.52Z" fill="#181E32"/>
<path d="M15.7058 20.6398C15.6033 20.6395 15.5037 20.6056 15.4222 20.5431C15.3407 20.4805 15.2819 20.3928 15.2547 20.2935C15.2171 20.1684 15.2106 20.036 15.2357 19.908C15.2609 19.7799 15.3169 19.6598 15.3988 19.5585C15.8675 18.9755 17.1565 18.9991 18.6645 19.0874C18.8661 19.0992 19.0407 19.1086 19.152 19.1098C19.2763 19.1098 19.3955 19.1594 19.4835 19.2477C19.5714 19.3361 19.6207 19.456 19.6207 19.5809C19.6207 19.7059 19.5714 19.8257 19.4835 19.914C19.3955 20.0023 19.2763 20.0521 19.152 20.0521H19.1461C19.0137 20.0521 18.8309 20.0403 18.6177 20.0285C17.2596 19.9519 16.4405 19.9837 16.178 20.1251C16.1892 20.2358 16.1609 20.347 16.0983 20.4388C16.0357 20.5307 15.9427 20.5973 15.8359 20.6268C15.7933 20.6368 15.7495 20.6412 15.7058 20.6398Z" fill="#181E32"/>
<path d="M23.1362 19.7588C23.0126 19.7615 22.893 19.7151 22.8038 19.6299C22.7146 19.5446 22.6628 19.4277 22.6603 19.3046C22.6576 19.1815 22.7042 19.0624 22.7897 18.9735C22.8753 18.8847 22.9928 18.8333 23.1164 18.8306C25.197 18.7436 26.8198 18.7598 28.389 18.7749C29.9583 18.79 31.5578 18.8074 33.614 18.7204C33.6751 18.7178 33.7363 18.7272 33.7938 18.7481C33.8513 18.7691 33.9041 18.8011 33.9492 18.8423C33.9943 18.8836 34.0309 18.9333 34.0566 18.9886C34.0825 19.044 34.0972 19.1038 34.0997 19.1648C34.1023 19.2257 34.0929 19.2866 34.0719 19.3439C34.0508 19.4012 34.0187 19.4538 33.9773 19.4987C33.9358 19.5436 33.886 19.58 33.8304 19.6057C33.7748 19.6314 33.7147 19.646 33.6536 19.6486C31.5729 19.7368 29.9501 19.7205 28.3797 19.7043C26.8093 19.688 25.2121 19.673 23.156 19.76L23.1362 19.7588Z" fill="#181E32"/>
<path d="M55.4466 20.32C55.323 20.32 55.2045 20.2683 55.1169 20.1762C55.0295 20.0842 54.9805 19.9594 54.9805 19.8292C54.9805 19.699 55.0295 19.5742 55.1169 19.4822C55.2045 19.3901 55.323 19.3384 55.4466 19.3384L92.2743 19.12C92.3978 19.12 92.5167 19.1717 92.6041 19.2638C92.6915 19.3558 92.7405 19.4806 92.7405 19.6108C92.7405 19.741 92.6915 19.8658 92.6041 19.9578C92.5167 20.0499 92.3978 20.1016 92.2743 20.1016L55.4466 20.32Z" fill="#181E32"/>
<path d="M103.914 19.76C103.802 19.7597 103.693 19.715 103.61 19.6343C103.526 19.5538 103.474 19.443 103.463 19.3236C103.453 19.2041 103.483 19.0845 103.55 18.9878C103.616 18.8913 103.715 18.8245 103.825 18.8007C104.774 18.5943 105.745 18.5202 106.713 18.5803C106.833 18.5876 106.945 18.6458 107.026 18.7418C107.106 18.8379 107.147 18.9641 107.14 19.0926C107.133 19.2211 107.079 19.3414 106.988 19.427C106.899 19.5126 106.781 19.5566 106.66 19.5492C105.771 19.4935 104.878 19.5614 104.005 19.7515C103.974 19.7578 103.945 19.7607 103.914 19.76Z" fill="#181E32"/>
<path d="M145.199 33.6H145.167C145.046 33.5916 144.932 33.5343 144.853 33.4408C144.773 33.3473 144.733 33.2252 144.741 33.1014L145.584 20.4371C145.587 20.3756 145.603 20.3156 145.631 20.2604C145.657 20.2052 145.695 20.1559 145.739 20.1154C145.785 20.075 145.838 20.0441 145.895 20.0244C145.952 20.0048 146.013 19.9969 146.072 20.0011C146.133 20.0053 146.191 20.0216 146.245 20.0491C146.299 20.0765 146.348 20.1145 146.387 20.161C146.427 20.2074 146.457 20.2614 146.476 20.3198C146.496 20.3782 146.503 20.44 146.499 20.5015L145.658 33.1646C145.65 33.2832 145.597 33.3942 145.513 33.4751C145.427 33.5559 145.315 33.6006 145.199 33.6Z" fill="#181E32"/>
<path d="M144.641 40.72H144.612C144.551 40.716 144.492 40.6995 144.438 40.6718C144.383 40.6439 144.335 40.6052 144.295 40.5577C144.254 40.5102 144.223 40.455 144.205 40.3952C144.185 40.3354 144.177 40.2721 144.18 40.2091L144.296 38.2917C144.304 38.1642 144.359 38.045 144.452 37.9605C144.543 37.8759 144.664 37.8329 144.786 37.8409C144.908 37.8489 145.023 37.9072 145.103 38.003C145.185 38.0988 145.227 38.2243 145.219 38.3518L145.103 40.2692C145.096 40.3915 145.045 40.5065 144.958 40.5903C144.871 40.6742 144.758 40.7204 144.641 40.72Z" fill="#181E32"/>
<path d="M143.691 60.96H143.679C143.617 60.9586 143.556 60.9453 143.5 60.9205C143.443 60.8959 143.393 60.8604 143.35 60.8161C143.307 60.7719 143.275 60.7199 143.252 60.6627C143.23 60.6057 143.22 60.545 143.221 60.4839C143.259 58.8836 143.429 56.7283 143.593 54.6438C143.757 52.5593 143.926 50.4295 143.963 48.8536C143.966 48.7304 144.019 48.6134 144.109 48.5284C144.199 48.4434 144.318 48.3971 144.443 48.4002C144.567 48.4031 144.685 48.4547 144.771 48.5439C144.857 48.6331 144.903 48.7525 144.901 48.8757C144.862 50.476 144.692 52.6325 144.528 54.7158C144.364 56.7991 144.197 58.9313 144.158 60.506C144.156 60.6271 144.104 60.7424 144.017 60.8273C143.93 60.9121 143.812 60.9597 143.691 60.96Z" fill="#181E32"/>
<path d="M141.924 104.96C141.892 104.96 141.86 104.957 141.828 104.95C141.769 104.937 141.713 104.913 141.662 104.879C141.612 104.845 141.569 104.801 141.536 104.75C141.503 104.7 141.48 104.643 141.468 104.583C141.458 104.525 141.458 104.462 141.471 104.404C141.727 103.198 142.007 98.6797 142.055 96.3705C142.057 96.2485 142.11 96.1321 142.197 96.0481C142.287 95.9628 142.405 95.9168 142.527 95.9202C142.651 95.9225 142.767 95.9732 142.852 96.0619C142.937 96.1494 142.983 96.268 142.981 96.3901C142.932 98.7235 142.651 103.3 142.377 104.594C142.355 104.697 142.298 104.79 142.216 104.856C142.134 104.923 142.031 104.96 141.924 104.96Z" fill="#181E32"/>
<path d="M47.9934 9.75995H47.939C47.8799 9.75271 47.8226 9.73356 47.7707 9.70355C47.7187 9.67354 47.673 9.63314 47.6362 9.58491C47.5992 9.53668 47.572 9.48133 47.5559 9.42224C47.5398 9.36315 47.5352 9.30126 47.5423 9.2403C47.719 7.72608 48.0024 6.22692 48.3901 4.75496C48.5182 4.26684 48.6724 3.75653 49.0147 3.34198C49.3842 2.89356 50.0473 2.55375 50.6967 2.80598C50.8062 2.85199 50.8941 2.94028 50.9413 3.05191C50.9886 3.16367 50.9915 3.2899 50.9497 3.40388C50.9079 3.51785 50.8245 3.61045 50.7172 3.66195C50.6101 3.71345 50.4876 3.71975 50.376 3.67946C50.1549 3.59305 49.8659 3.75303 49.7061 3.94688C49.4794 4.21546 49.366 4.59849 49.2652 4.99786C48.8901 6.42579 48.6166 7.87999 48.4468 9.3489C48.4334 9.46288 48.3798 9.56774 48.2963 9.64353C48.2126 9.71943 48.1048 9.76089 47.9934 9.75995Z" fill="white"/>
<path d="M105.548 4.23996C105.448 4.24007 105.351 4.20909 105.271 4.15157C105.189 4.09417 105.129 4.01291 105.098 3.91962L104.685 2.69557C104.645 2.57784 104.654 2.44947 104.711 2.33852C104.766 2.22758 104.865 2.14317 104.984 2.104C105.103 2.06472 105.233 2.07384 105.345 2.12937C105.458 2.18479 105.543 2.28206 105.583 2.39978L105.996 3.62501C106.02 3.69527 106.026 3.76997 106.015 3.84304C106.003 3.91623 105.975 3.98567 105.931 4.04565C105.887 4.10574 105.829 4.15461 105.763 4.1884C105.695 4.22218 105.622 4.23984 105.548 4.23996Z" fill="white"/>
<path d="M22.2781 128.48C22.1568 128.481 22.0368 128.455 21.926 128.405C21.8152 128.356 21.7162 128.282 21.6356 128.191C21.2472 127.759 21.2309 126.939 21.413 126.386L23.8332 119.051C23.8511 118.992 23.8808 118.937 23.9205 118.889C23.96 118.841 24.0087 118.801 24.0637 118.772C24.1188 118.744 24.1788 118.726 24.2405 118.721C24.3022 118.717 24.3644 118.724 24.4231 118.744C24.4819 118.763 24.5361 118.794 24.5826 118.836C24.6292 118.877 24.6672 118.927 24.6942 118.983C24.7212 119.04 24.7369 119.1 24.7401 119.162C24.7435 119.226 24.7343 119.288 24.7133 119.346L22.2955 126.679C22.1795 127.018 22.2352 127.415 22.3071 127.536C22.4234 127.515 22.5433 127.539 22.6422 127.605C22.7411 127.67 22.8116 127.771 22.8393 127.887C22.8666 128.007 22.846 128.132 22.7819 128.238C22.7179 128.342 22.6157 128.417 22.4973 128.446C22.4258 128.466 22.3522 128.478 22.2781 128.48Z" fill="white"/>
<path d="M132.764 128.24C132.681 128.24 132.6 128.218 132.528 128.174C132.457 128.13 132.398 128.069 132.36 127.994C131.554 126.458 130.911 124.839 130.443 123.166C130.424 123.107 130.417 123.044 130.421 122.982C130.427 122.92 130.444 122.86 130.474 122.806C130.502 122.75 130.542 122.702 130.59 122.662C130.638 122.623 130.693 122.594 130.753 122.577C130.812 122.561 130.874 122.556 130.935 122.563C130.996 122.571 131.055 122.592 131.108 122.623C131.161 122.654 131.207 122.697 131.244 122.747C131.28 122.796 131.307 122.854 131.321 122.914C131.773 124.525 132.392 126.083 133.167 127.563C133.204 127.633 133.222 127.711 133.22 127.791C133.217 127.871 133.196 127.948 133.155 128.016C133.115 128.084 133.058 128.141 132.989 128.18C132.92 128.219 132.843 128.24 132.764 128.24Z" fill="white"/>
<path d="M67.2612 151.52C67.1486 151.52 67.0397 151.481 66.9532 151.409C66.8668 151.338 66.8083 151.239 66.7881 151.13C66.6651 150.47 66.781 149.788 67.1155 149.204C67.1467 149.149 67.1883 149.101 67.2383 149.062C67.2882 149.024 67.3454 148.995 67.4066 148.977C67.4677 148.961 67.5316 148.956 67.5947 148.963C67.6577 148.972 67.7186 148.991 67.774 149.021C67.8293 149.052 67.878 149.094 67.9171 149.143C67.9563 149.193 67.9853 149.249 68.0024 149.31C68.0195 149.37 68.0243 149.433 68.0167 149.495C68.0092 149.558 67.9893 149.618 67.9581 149.673C67.7377 150.063 67.6608 150.517 67.7403 150.957C67.7517 151.019 67.7508 151.082 67.7376 151.143C67.7244 151.205 67.6992 151.262 67.6632 151.314C67.6273 151.365 67.5816 151.409 67.5285 151.443C67.4754 151.477 67.4161 151.501 67.3539 151.512C67.3233 151.518 67.2922 151.52 67.2612 151.52Z" fill="white"/>
</g>
<defs>
<clipPath id="clip0_30_2081">
<rect width="160" height="160" fill="white" transform="translate(0.5)"/>
</clipPath>
</defs>
</svg>
