<svg width="161" height="160" viewBox="0 0 161 160" fill="none" xmlns="http://www.w3.org/2000/svg">
<g clip-path="url(#clip0_165_7215)">
<path d="M13.9965 48.4454C13.3718 56.1458 11.7296 63.7169 10.3264 71.3168C8.85012 79.2782 7.60167 87.3867 4.42027 94.8383C3.16408 97.7808 1.61153 100.609 0.681547 103.67C0.452645 104.425 0.335429 105.406 0.984536 105.853C1.48768 106.198 2.16553 106.009 2.74719 105.825C8.9994 103.841 15.7061 103.856 22.269 104.11C30.3105 104.43 38.3286 105.099 46.3236 106.115C46.8942 106.188 47.5654 106.225 47.9469 105.796C48.1681 105.553 48.2278 105.215 48.2787 104.893C48.8891 100.545 47.4095 96.2084 46.0018 92.0496C42.3062 81.1292 38.9623 70.0979 35.97 58.9556C34.0569 51.8301 32.1936 44.4614 27.787 38.5389C25.0513 34.859 21.4607 31.9188 17.9089 29.0195C16.7599 28.0807 13.9556 24.3256 12.35 24.3201C11.9209 24.3201 12.6253 28.9034 12.8952 30.0291C13.8163 33.8837 14.2122 37.8523 14.2475 41.8109C14.2686 44.0246 14.1757 46.2394 13.9965 48.4454Z" fill="#F2DFE7"/>
<path d="M10.7828 70.0787C10.7623 70.0804 10.7416 70.0804 10.7209 70.0787C10.6634 70.0708 10.608 70.0515 10.5578 70.0222C10.5078 69.9928 10.464 69.9538 10.429 69.9075C10.394 69.8613 10.3684 69.8086 10.354 69.7525C10.3394 69.6964 10.3361 69.6379 10.3441 69.5805C10.7386 66.7917 11.1928 64.0515 11.6315 61.4005C12.3232 57.2107 13.037 52.892 13.5022 48.4454C14.2381 41.3909 13.4414 30.5731 11.7972 25.2976C11.7791 25.2421 11.7721 25.1834 11.7769 25.1252C11.7816 25.0669 11.798 25.0103 11.8248 24.9583C11.8518 24.9064 11.8888 24.8603 11.9337 24.8229C11.9785 24.7853 12.0306 24.7571 12.0865 24.7398C12.1424 24.7224 12.2013 24.7164 12.2596 24.722C12.3179 24.7275 12.3746 24.7446 12.4262 24.7723C12.4778 24.7998 12.5234 24.8374 12.5604 24.8827C12.5973 24.9281 12.625 24.9803 12.6414 25.0364C14.3144 30.4034 15.1277 41.3854 14.3818 48.5369C13.9155 53.01 13.1972 57.3463 12.5033 61.5438C12.0613 64.1893 11.6127 66.924 11.2204 69.7007C11.2053 69.8056 11.1527 69.9016 11.0723 69.971C10.992 70.0405 10.8892 70.0787 10.7828 70.0787Z" fill="#181E32"/>
<path d="M31.5693 104.96H31.5528C29.7714 104.897 28.0861 104.758 26.4571 104.628C22.8369 104.332 19.0941 104.026 13.8604 104.482C13.8024 104.487 13.744 104.48 13.6884 104.463C13.633 104.445 13.5814 104.416 13.5369 104.379C13.4924 104.341 13.4556 104.295 13.4288 104.243C13.4019 104.191 13.3856 104.135 13.3805 104.077C13.3756 104.019 13.3821 103.96 13.3996 103.905C13.4172 103.849 13.4456 103.797 13.483 103.753C13.5206 103.707 13.5664 103.671 13.6181 103.644C13.6698 103.617 13.7262 103.601 13.7842 103.596C19.0919 103.134 22.8724 103.443 26.529 103.742C28.1479 103.874 29.8233 104.011 31.5848 104.074C31.702 104.076 31.8135 104.125 31.8949 104.209C31.9763 104.293 32.0209 104.407 32.0188 104.525C32.0168 104.642 31.9684 104.754 31.884 104.836C31.7997 104.918 31.6865 104.962 31.5693 104.96Z" fill="#181E32"/>
<path d="M20.1183 50.0065C24.5957 71.5432 27.4245 93.3902 28.5802 115.357C28.6189 116.097 29.3538 116.475 30.0644 116.26C51.5966 109.795 62.1814 114.116 78.261 111.851C86.4143 110.702 94.2331 107.822 102.352 106.424C111.537 104.841 120.931 105.182 130.243 105.527C131.909 76.9103 129.375 48.2035 122.723 20.3201C106.244 24.4082 88.9219 20.878 71.954 21.5421C58.5489 22.0691 45.2676 25.2269 31.8735 24.5938C28.567 24.438 25.277 24.0535 21.9738 23.8679C20.3161 23.7751 18.6529 23.7309 16.993 23.7939C16.1642 23.8259 15.3353 23.8834 14.5142 23.9751C13.8512 24.048 12.9516 24.0358 12.3681 24.3916C11.4243 24.9662 12.2797 26.2578 12.651 26.9329C13.3656 28.2322 14.018 29.5621 14.6082 30.9227C15.8332 33.791 16.8625 36.739 17.6892 39.7464C18.5369 42.7628 19.2364 45.8233 19.8829 48.8828C19.9603 49.2562 20.0409 49.6319 20.1183 50.0065Z" fill="#1B5EC9"/>
<path d="M75.2381 83.52C74.8352 83.52 74.4544 83.51 74.1036 83.4912C73.7681 83.4713 73.4493 83.3386 73.1993 83.1141C72.9493 82.8896 72.7831 82.5877 72.7278 82.2559C72.6248 81.6166 72.4621 80.9553 72.306 80.3149C72.0907 79.5073 71.9244 78.6875 71.808 77.8598C71.7725 77.5645 71.7294 77.2238 71.6829 76.8644C71.5213 75.5936 71.3198 74.0132 71.301 72.9625C71.2811 71.8765 72.4721 71.8234 73.2613 71.788C73.5081 71.7769 73.7416 71.767 73.9386 71.7371C75.434 71.5093 76.7246 71.3987 77.972 71.2947C79.1829 71.1897 80.3274 71.0912 81.6044 70.8955C82.0162 70.8313 82.5563 70.9607 82.833 71.3932C82.9448 71.5867 83.0057 71.8055 83.0101 72.0291C83.4263 77.0812 83.7849 80.1733 84.0749 81.2196C84.107 81.3401 84.1092 81.4673 84.0816 81.589C84.0528 81.7117 83.9964 81.8246 83.9144 81.9197C83.4717 82.4649 82.0826 82.8996 79.775 83.2136C78.2708 83.4127 76.7555 83.5156 75.2381 83.52ZM73.6 82.1154C73.6228 82.2481 73.69 82.3687 73.7905 82.4583C73.8911 82.5479 74.019 82.5998 74.1534 82.6076C75.6753 82.6916 77.8768 82.5755 79.7607 82.3123C82.1833 81.9805 83.0334 81.5514 83.2038 81.38C82.8984 80.2132 82.5464 77.1719 82.1269 72.0899C82.1258 72.0113 82.1125 71.9334 82.0881 71.8588C82.0428 71.8147 81.9874 71.7824 81.9265 71.7648C81.8657 71.7473 81.8015 71.745 81.7395 71.7581C80.4325 71.9594 79.2748 72.059 78.0484 72.1651C76.822 72.2713 75.5391 72.3863 74.0715 72.6075C73.8145 72.6408 73.5558 72.6607 73.2967 72.6672C72.554 72.7004 72.1777 72.7524 72.181 72.9426C72.1998 73.9446 72.4023 75.4985 72.5573 76.7483C72.6038 77.1166 72.6481 77.4605 72.6824 77.7569C72.7977 78.5487 72.9606 79.3327 73.1705 80.1048C73.331 80.7617 73.497 81.4419 73.6055 82.1154H73.6Z" fill="white"/>
<path d="M94.2909 80.8C94.1696 80.8 94.0482 80.8 93.9269 80.7923C91.9062 80.7043 91.6426 80.2283 91.4043 78.8903C91.3624 78.6539 91.315 78.3856 91.2433 78.0822C91.0514 77.2774 90.9709 76.091 90.887 74.8343C90.8153 73.7777 90.7414 72.6848 90.598 71.8437C90.5694 71.6775 90.5749 71.5072 90.6157 71.3432C90.6554 71.1793 90.7282 71.0252 90.8297 70.8905C90.9245 70.7637 91.0459 70.658 91.1837 70.58C91.3216 70.502 91.4749 70.4535 91.6327 70.4375C92.9949 70.299 94.2313 70.1208 95.4281 69.9493C96.8719 69.7415 98.3654 69.5271 100.098 69.3776C100.361 69.3545 100.721 69.3248 101.06 69.5007C101.514 69.7382 101.813 70.2616 101.862 70.9026C101.99 72.5826 101.997 74.1306 102.003 75.6303C102.01 76.9607 102.015 78.2163 102.099 79.5412C102.107 79.6542 102.069 79.7656 101.997 79.8522C101.924 79.9389 101.82 79.9941 101.706 80.0062L98.158 80.3844C97.7554 80.4284 97.3528 80.4855 96.9249 80.546C96.0601 80.6724 95.1689 80.8 94.2909 80.8ZM91.4672 71.6986C91.6194 72.5782 91.6944 73.6997 91.7672 74.7771C91.8488 75.9965 91.9272 77.1476 92.0981 77.881C92.1764 78.2108 92.2261 78.4912 92.2702 78.7386C92.3595 79.241 92.4136 79.5082 92.5614 79.6379C92.7412 79.7963 93.1736 79.8809 93.9622 79.915C94.8755 79.9546 95.8517 79.815 96.7969 79.6797C97.2128 79.6204 97.6418 79.5599 98.0599 79.5148L101.195 79.1751C101.132 77.9799 101.126 76.8365 101.121 75.6336C101.114 74.1515 101.107 72.6189 100.983 70.9696C100.959 70.6486 100.825 70.3726 100.652 70.2814C100.542 70.2242 100.346 70.2407 100.175 70.255C98.468 70.4023 96.9867 70.6145 95.555 70.8212C94.3494 70.9938 93.103 71.173 91.7231 71.3138C91.6856 71.3181 91.6492 71.33 91.6172 71.349C91.5841 71.3679 91.5554 71.3933 91.5334 71.4237C91.5047 71.4621 91.4838 71.506 91.4727 71.5527C91.4617 71.5994 91.4595 71.648 91.4683 71.6953L91.4672 71.6986Z" fill="white"/>
<path d="M76.9623 99.36C76.3669 99.36 75.9366 99.2757 75.6727 99.0773C75.5901 99.0185 75.5207 98.9431 75.4688 98.8556C75.4168 98.768 75.3837 98.6715 75.3713 98.5707C75.2304 97.3988 74.7568 94.7348 74.5029 93.3035L74.4453 92.9709C74.2157 91.6783 73.9463 90.3745 73.6425 89.0963C73.6144 88.9788 73.6116 88.8568 73.6343 88.7382C73.6569 88.6196 73.7046 88.5065 73.7739 88.4078C73.8433 88.3091 73.9329 88.226 74.0368 88.1639C74.1407 88.1018 74.2565 88.063 74.3765 88.0497C77.5234 87.6938 80.7156 87.3845 83.8647 87.1218C84.0643 87.1052 84.2372 87.2038 84.3814 87.4145C85.1043 88.4699 87.3686 96.0008 86.4383 97.9154C86.3695 98.0806 86.2553 98.2225 86.1112 98.3279C85.9659 98.4321 85.7951 98.4953 85.6166 98.5097L85.1554 98.5396C83.8414 98.625 81.3942 98.7824 80.3598 98.9498L80.0572 98.9997C78.7565 99.2214 77.7241 99.36 76.9623 99.36ZM76.2427 98.3911C76.4888 98.5163 77.3426 98.5574 79.9129 98.1305L80.2201 98.0795C81.2966 97.9055 83.6773 97.7469 85.0988 97.6605L85.559 97.6305C85.5967 97.6305 85.6366 97.543 85.6532 97.5075C85.9426 96.8356 85.7397 94.9099 85.1099 92.3568C84.6009 90.2936 83.9866 88.542 83.7161 88.0331C80.659 88.287 77.5656 88.5874 74.513 88.9355C74.8168 90.2193 75.0874 91.5275 75.3169 92.8246L75.3756 93.1572C75.6273 94.5596 76.0897 97.1627 76.2427 98.3911Z" fill="white"/>
<path d="M26.0582 30.32C25.9407 30.32 25.8281 30.2736 25.7449 30.1909C25.6619 30.1083 25.6153 29.9963 25.6153 29.8794C25.6153 29.7626 25.6619 29.6504 25.7449 29.5678C25.8281 29.4852 25.9407 29.4388 26.0582 29.4388C28.2367 29.4179 29.6642 27.1818 30.177 26.2213C30.6986 25.2432 30.9522 24.4413 30.9721 23.6967C31.0076 22.4586 30.3619 21.1467 29.2478 20.1895C27.9266 19.0538 26.1225 18.5636 24.5399 18.9084C22.8875 19.2697 21.4888 20.6003 21.1377 22.1457C21.1264 22.2037 21.1036 22.2588 21.0705 22.3078C21.0375 22.3568 20.9949 22.3987 20.9451 22.4309C20.8955 22.4633 20.8398 22.4853 20.7814 22.4958C20.7231 22.5063 20.6632 22.5049 20.6052 22.4919C20.5473 22.4791 20.4927 22.4546 20.4444 22.4201C20.3963 22.3858 20.3555 22.342 20.3246 22.2917C20.2937 22.2414 20.2732 22.1853 20.2646 22.1269C20.2558 22.0685 20.259 22.0089 20.2739 21.9519C20.7036 20.0551 22.3415 18.4865 24.3494 18.0481C26.2 17.645 28.2987 18.209 29.827 19.522C31.1405 20.651 31.9002 22.2217 31.8581 23.722C31.8326 24.6032 31.5469 25.5318 30.9599 26.6344C30.373 27.737 28.7206 30.2947 26.066 30.32H26.0582Z" fill="#181E32"/>
<path d="M42.6405 28.56C42.2161 28.559 41.7926 28.5222 41.3744 28.4497C41.3172 28.4401 41.2624 28.4192 41.2132 28.3884C41.164 28.3576 41.1213 28.3174 41.0877 28.2701C41.0541 28.2229 41.0301 28.1695 41.0172 28.113C41.0042 28.0566 41.0026 27.9981 41.0123 27.9409C41.032 27.8256 41.0968 27.7227 41.1925 27.655C41.2399 27.6215 41.2934 27.5976 41.3501 27.5847C41.4067 27.5718 41.4653 27.5702 41.5226 27.5798C44.2328 28.0419 47.5445 26.9701 48.71 22.5753C49.17 20.8443 48.0465 19.0824 46.8114 18.1794C45.4779 17.2047 43.6235 16.875 41.8499 17.2973C40.5086 17.6171 39.4405 18.3095 38.8412 19.2444C38.1777 20.2786 38.1844 21.6425 38.8533 22.4882C38.9267 22.58 38.9604 22.6971 38.9471 22.8138C38.9338 22.9304 38.8747 23.0369 38.7826 23.11C38.6906 23.1832 38.5731 23.2169 38.4562 23.2036C38.3392 23.1904 38.2322 23.1313 38.1589 23.0395C37.25 21.8906 37.2235 20.1364 38.0959 18.7747C38.8191 17.6446 40.0785 16.8177 41.6442 16.4439C43.6667 15.9621 45.7941 16.3458 47.3344 17.4704C48.8051 18.5465 50.1309 20.6734 49.5658 22.8035C48.4335 27.0936 45.3585 28.56 42.6405 28.56Z" fill="#181E32"/>
<path d="M60.8446 27.2799C60.1301 27.286 59.4224 27.1411 58.7673 26.8548C58.6606 26.8071 58.5771 26.7187 58.5353 26.6093C58.4934 26.4999 58.4967 26.3782 58.5443 26.2712C58.5919 26.1642 58.68 26.0805 58.7892 26.0385C58.8983 25.9966 59.0197 25.9999 59.1264 26.0476C60.7268 26.7642 62.8525 26.3667 64.5442 25.0372C65.7327 24.1031 66.5378 22.8917 66.8109 21.6263C66.9433 20.9625 66.9211 20.2768 66.7459 19.6229C66.5707 18.969 66.2473 18.3646 65.8009 17.8565C64.6698 16.569 61.9163 15.6194 59.7795 16.3239C58.0525 16.8936 57.026 18.4627 56.8223 20.8622C56.8172 20.9202 56.8008 20.9767 56.774 21.0283C56.7472 21.0799 56.7105 21.1258 56.666 21.1632C56.6215 21.2006 56.57 21.2289 56.5146 21.2465C56.4592 21.2639 56.401 21.2703 56.3432 21.2652C56.2853 21.2602 56.229 21.2437 56.1775 21.2169C56.126 21.1899 56.0802 21.1532 56.0429 21.1085C56.0056 21.0639 55.9774 21.0124 55.9599 20.9568C55.9425 20.9014 55.9361 20.8429 55.9411 20.7849C56.2451 17.2746 58.0448 15.965 59.5009 15.4847C61.9978 14.6598 65.1181 15.7419 66.4585 17.2691C67.0003 17.8784 67.3921 18.6065 67.6025 19.395C67.8129 20.1835 67.836 21.0105 67.67 21.8096C67.3528 23.276 66.4354 24.6684 65.0861 25.7285C63.7997 26.7421 62.2764 27.2799 60.8446 27.2799Z" fill="#181E32"/>
<path d="M78.0036 26.7199C77.619 26.7217 77.2352 26.6846 76.8581 26.6091C76.7431 26.5854 76.6423 26.5169 76.5777 26.4188C76.5131 26.3206 76.4901 26.2007 76.5137 26.0856C76.5373 25.9704 76.6056 25.8693 76.7036 25.8046C76.8015 25.7398 76.9212 25.7168 77.0362 25.7405C79.5162 26.2513 82.2536 24.7356 83.1415 22.3601C84.0293 19.9846 83.513 16.9654 80.7985 15.8154C78.5565 14.8636 76.7885 15.6447 75.9338 16.1954C74.7596 16.951 74.1957 17.9471 74.1835 18.3825C74.1803 18.4978 74.1323 18.6075 74.0497 18.688C73.9671 18.7685 73.8565 18.8135 73.7412 18.8135H73.7291C73.6119 18.8103 73.5009 18.7607 73.4203 18.6755C73.3395 18.5904 73.296 18.4766 73.299 18.3592C73.3244 17.4485 74.2112 16.2541 75.455 15.4508C76.4501 14.806 78.5255 13.8897 81.1424 14.9999C81.8622 15.2923 82.5057 15.7436 83.0265 16.32C83.5473 16.8965 83.932 17.5833 84.1509 18.3293C84.5634 19.6755 84.497 21.2555 83.9696 22.6659C83.0718 25.0702 80.5442 26.7199 78.0036 26.7199Z" fill="#181E32"/>
<path d="M95.8638 25.6799C95.31 25.6819 94.7584 25.6131 94.2224 25.4753C94.1646 25.4627 94.109 25.4384 94.0601 25.404C94.0111 25.3694 93.97 25.3256 93.9389 25.2749C93.9077 25.2242 93.8866 25.1677 93.8777 25.1088C93.8688 25.05 93.8721 24.99 93.8866 24.9324C93.9022 24.8748 93.9277 24.8207 93.9644 24.7734C94.0011 24.7263 94.0467 24.6869 94.099 24.6576C94.1513 24.6284 94.2091 24.6099 94.268 24.6033C94.327 24.5967 94.3881 24.6021 94.4448 24.6191C96.1651 25.0616 98.1668 24.6556 99.7971 23.5218C101.313 22.4687 102.688 20.4809 102.355 18.4168C101.988 16.1768 99.7237 14.2675 97.4106 14.2476C95.5713 14.231 94.3614 14.5795 93.5897 15.3416C92.9225 15.9987 92.5888 17.0009 92.5888 18.3283C92.5888 18.4457 92.5421 18.5583 92.4587 18.6412C92.3753 18.7242 92.2619 18.7708 92.144 18.7708C92.0262 18.7708 91.9127 18.7242 91.8293 18.6412C91.7459 18.5583 91.6992 18.4457 91.6992 18.3283C91.6992 16.7575 92.1251 15.5408 92.9658 14.7111C94.2169 13.4777 96.1051 13.3505 97.4217 13.3605C100.188 13.3837 102.796 15.5872 103.237 18.2719C103.588 20.4212 102.44 22.7652 100.312 24.2452C99.0108 25.1624 97.4584 25.6628 95.8638 25.6799Z" fill="#181E32"/>
<path d="M115.508 25.04C114.644 25.04 113.861 24.8648 113.344 24.5234C113.295 24.4912 113.254 24.4499 113.221 24.4016C113.188 24.3532 113.166 24.299 113.154 24.2419C113.143 24.1848 113.142 24.1261 113.153 24.0689C113.165 24.0117 113.187 23.9572 113.22 23.9087C113.252 23.8601 113.293 23.8184 113.342 23.7859C113.389 23.7534 113.444 23.7306 113.501 23.7191C113.558 23.7075 113.617 23.7073 113.675 23.7185C113.731 23.7295 113.786 23.7518 113.834 23.784C114.416 24.1686 115.76 24.3383 117.203 23.9048C117.991 23.6793 118.719 23.2821 119.335 22.7417C119.95 22.2014 120.439 21.5312 120.764 20.7797C121.325 19.4849 121.361 18.148 120.86 17.1126C120.383 16.1237 119.453 15.2623 118.241 14.687C116.909 14.0551 114.432 14.0296 112.749 15.0916C111.528 15.8676 110.907 17.0538 110.907 18.6313C110.907 18.7489 110.861 18.8618 110.778 18.9449C110.694 19.0281 110.581 19.0747 110.464 19.0747C110.346 19.0747 110.233 19.0281 110.149 18.9449C110.066 18.8618 110.02 18.7489 110.02 18.6313C110.02 16.2623 111.24 14.9907 112.275 14.3422C114.238 13.1028 117.048 13.1372 118.622 13.8855C120.017 14.5506 121.096 15.5572 121.661 16.7268C122.273 17.995 122.243 19.6013 121.578 21.1323C121.204 22.0041 120.639 22.7817 119.927 23.4084C119.213 24.0351 118.37 24.4951 117.456 24.7551C116.823 24.9424 116.168 25.0383 115.508 25.04Z" fill="#181E32"/>
<path d="M90.6835 83.3504C89.9444 84.8213 90.1687 86.5973 90.4161 88.2395C92.0511 99.0752 93.8727 109.878 95.8799 120.646C96.4223 123.549 96.9846 126.466 97.9788 129.234C98.3643 130.305 98.8371 131.385 99.6568 132.139C101.093 133.466 103.198 133.478 105.106 133.425L139.185 132.472C141.702 132.401 144.342 132.295 146.511 130.951C149.963 128.811 151.175 124.265 152.002 120.148C154.101 109.726 155.648 99.1769 156.396 88.5544C156.589 85.7994 156.67 82.8078 155.174 80.5356C153.288 77.6712 149.61 76.9517 146.313 76.5638C142.144 76.072 137.957 75.7272 133.765 75.5582C129.543 75.388 125.313 75.3968 121.093 75.6167C116.974 75.8311 112.911 76.3903 108.812 76.8324C106.382 77.0976 103.952 77.1926 101.56 77.7773C99.7386 78.2193 97.9258 78.7586 96.1881 79.4858C94.5488 80.171 92.6785 80.9589 91.4214 82.3049C91.1264 82.6166 90.8779 82.968 90.6835 83.3504Z" fill="#FF6800"/>
<path d="M108.722 89.0155C85.4544 112.286 123.102 145.597 143.676 118.934C161.521 97.9658 131.141 66.5982 108.722 89.0155Z" fill="white"/>
<path d="M125.625 106.64C125.24 106.643 124.863 106.528 124.546 106.309C124.163 106.047 123.94 105.656 123.742 105.317C123.693 105.228 123.642 105.14 123.589 105.054C123.367 104.689 122.573 103.575 121.657 102.283C119.829 99.706 117.325 96.1745 116.699 94.9425C116.653 94.8388 116.647 94.7219 116.686 94.6149C116.724 94.508 116.801 94.4186 116.903 94.3679C117.005 94.3161 117.122 94.3061 117.232 94.3392C117.34 94.3723 117.433 94.4451 117.489 94.5444C118.086 95.719 120.569 99.2185 122.38 101.775C123.343 103.132 124.102 104.201 124.343 104.591C124.401 104.686 124.453 104.783 124.512 104.88C124.677 105.168 124.833 105.44 125.048 105.587C125.895 106.167 127.152 105.146 127.653 104.671C128.153 104.197 128.848 103.501 129.663 102.677C131.103 101.223 132.732 99.5736 133.931 98.5623C134.021 98.4873 134.137 98.4498 134.254 98.4597C134.372 98.4696 134.48 98.5248 134.556 98.6141C134.632 98.7034 134.669 98.8193 134.659 98.9362C134.65 99.0531 134.593 99.1612 134.504 99.2362C133.334 100.221 131.649 101.926 130.295 103.296C129.474 104.126 128.764 104.84 128.261 105.314C127.321 106.189 126.418 106.64 125.625 106.64Z" fill="#181E32"/>
<path d="M125.191 104.379C124.189 104.55 123.409 105.588 123.461 106.632C123.514 107.677 124.334 108.615 125.332 108.83C126.33 109.044 127.42 108.558 127.996 107.695C128.243 107.325 128.475 106.881 128.407 106.438C127.995 103.775 125.191 104.379 125.191 104.379Z" fill="#181E32"/>
<path d="M125.769 109.36C125.578 109.36 125.387 109.34 125.199 109.299C123.993 109.034 123.04 107.896 122.983 106.653C122.923 105.352 123.859 104.122 125.07 103.907C125.217 103.877 126.576 103.623 127.64 104.35C128.275 104.785 128.666 105.464 128.803 106.367C128.899 106.993 128.581 107.572 128.326 107.954C128.048 108.379 127.669 108.729 127.223 108.975C126.777 109.219 126.278 109.352 125.769 109.36ZM125.814 104.726C125.625 104.725 125.436 104.742 125.249 104.775H125.231C124.453 104.91 123.833 105.749 123.871 106.61C123.91 107.452 124.577 108.253 125.39 108.431C126.203 108.609 127.094 108.21 127.581 107.468C127.752 107.208 127.974 106.823 127.924 106.498C127.825 105.848 127.561 105.371 127.145 105.081C126.73 104.79 126.201 104.725 125.814 104.725V104.726Z" fill="#181E32"/>
<path d="M125.918 88.6401C125.812 88.6401 125.709 88.5994 125.63 88.5257C125.551 88.452 125.502 88.3497 125.493 88.2397C125.446 87.7217 125.221 84.8401 125.221 84.52C125.221 84.4034 125.265 84.2913 125.345 84.2088C125.425 84.1263 125.533 84.0801 125.646 84.0801C125.759 84.0801 125.867 84.1263 125.947 84.2088C126.026 84.2913 126.071 84.4034 126.071 84.52C126.071 84.7763 126.284 87.5446 126.339 88.1594C126.349 88.276 126.314 88.3915 126.243 88.4806C126.171 88.5708 126.068 88.6269 125.955 88.6379L125.918 88.6401Z" fill="#1B5EC9"/>
<path d="M126.828 126.16C126.719 126.16 126.611 126.123 126.527 126.057C126.442 125.99 126.385 125.897 126.365 125.795C126.317 125.549 126.314 124.967 126.312 124.037C126.312 123.351 126.312 122.498 126.268 122.285C126.245 122.17 126.271 122.05 126.342 121.952C126.412 121.856 126.522 121.79 126.644 121.767C126.768 121.746 126.894 121.771 126.998 121.837C127.101 121.904 127.172 122.007 127.194 122.122C127.249 122.395 127.253 123.028 127.254 124.036C127.254 124.669 127.254 125.456 127.292 125.637C127.314 125.752 127.287 125.872 127.216 125.968C127.145 126.065 127.037 126.131 126.913 126.152C126.885 126.157 126.856 126.16 126.828 126.16Z" fill="#1B5EC9"/>
<path d="M143.938 106.239C143.535 106.243 143.132 106.229 142.731 106.194C142.616 106.182 142.51 106.127 142.437 106.041C142.364 105.955 142.329 105.844 142.343 105.734C142.355 105.623 142.412 105.522 142.503 105.453C142.593 105.383 142.709 105.351 142.824 105.362C143.419 105.423 144.325 105.404 145.201 105.385C145.681 105.375 146.137 105.365 146.544 105.367C146.66 105.367 146.771 105.411 146.852 105.489C146.934 105.567 146.98 105.673 146.98 105.783C146.98 105.893 146.934 105.999 146.852 106.077C146.771 106.155 146.66 106.199 146.544 106.199C146.151 106.199 145.701 106.206 145.227 106.216C144.788 106.23 144.349 106.239 143.938 106.239Z" fill="#1B5EC9"/>
<path d="M107.004 107.119C106.365 107.119 105.69 107.097 105.198 107.08C104.934 107.071 104.725 107.064 104.622 107.064C104.505 107.064 104.392 107.017 104.309 106.932C104.226 106.847 104.18 106.732 104.18 106.612C104.18 106.492 104.226 106.377 104.309 106.292C104.392 106.208 104.505 106.16 104.622 106.16C104.74 106.16 104.944 106.167 105.226 106.177C106.031 106.203 107.526 106.253 108.242 106.163C108.359 106.149 108.476 106.182 108.569 106.255C108.661 106.329 108.722 106.437 108.736 106.556C108.751 106.674 108.719 106.795 108.647 106.889C108.575 106.984 108.47 107.046 108.352 107.061C107.904 107.106 107.454 107.125 107.004 107.119Z" fill="#1B5EC9"/>
<path d="M110.305 98.0001C110.243 98.0001 110.182 97.9861 110.126 97.9581L108.594 97.2103C108.542 97.1847 108.495 97.1486 108.456 97.1043C108.418 97.0589 108.388 97.0065 108.367 96.9494C108.348 96.8923 108.338 96.8317 108.34 96.77C108.342 96.7083 108.355 96.6489 108.379 96.593C108.403 96.537 108.437 96.487 108.478 96.445C108.52 96.4042 108.569 96.3716 108.622 96.3495C108.676 96.3285 108.733 96.3181 108.79 96.3204C108.847 96.3227 108.902 96.3367 108.955 96.3623L110.485 97.1101C110.575 97.1544 110.649 97.2301 110.694 97.3256C110.738 97.42 110.751 97.5295 110.73 97.6331C110.709 97.7368 110.655 97.83 110.578 97.8976C110.501 97.964 110.404 98.0001 110.305 98.0001Z" fill="#1B5EC9"/>
<path d="M117.178 90.3201C117.113 90.3201 117.048 90.3056 116.988 90.2776C116.929 90.2486 116.877 90.2073 116.835 90.1559C116.453 89.6803 116.004 88.7635 115.985 88.7245C115.959 88.672 115.944 88.615 115.941 88.5559C115.936 88.4978 115.944 88.4386 115.963 88.3828C115.982 88.3281 116.011 88.2767 116.049 88.232C116.087 88.1885 116.134 88.1517 116.186 88.126C116.238 88.1003 116.295 88.0847 116.352 88.0813C116.41 88.0768 116.468 88.0846 116.524 88.1036C116.579 88.1226 116.629 88.1516 116.673 88.1907C116.717 88.2298 116.752 88.2767 116.777 88.3292C116.894 88.5681 117.255 89.2627 117.52 89.5921C117.573 89.6579 117.606 89.7372 117.616 89.821C117.626 89.9047 117.612 89.9896 117.577 90.0655C117.54 90.1414 117.484 90.2062 117.413 90.2508C117.344 90.2955 117.262 90.3201 117.178 90.3201Z" fill="#1B5EC9"/>
<path d="M110.709 117.76C110.61 117.759 110.514 117.727 110.435 117.669C110.357 117.612 110.302 117.53 110.275 117.439C110.249 117.349 110.256 117.251 110.294 117.163C110.331 117.076 110.397 117.003 110.482 116.954L112.041 116.069C112.092 116.037 112.15 116.016 112.21 116.006C112.27 115.996 112.331 115.998 112.39 116.011C112.449 116.024 112.506 116.049 112.555 116.084C112.603 116.119 112.645 116.162 112.676 116.212C112.708 116.262 112.727 116.317 112.736 116.374C112.744 116.433 112.739 116.491 112.723 116.546C112.708 116.603 112.68 116.656 112.643 116.701C112.606 116.747 112.558 116.784 112.505 116.813L110.947 117.698C110.875 117.739 110.792 117.761 110.709 117.76Z" fill="#1B5EC9"/>
<path d="M117.424 123.52C117.341 123.52 117.26 123.498 117.191 123.454C117.091 123.393 117.02 123.296 116.992 123.184C116.965 123.071 116.985 122.952 117.046 122.854C117.066 122.821 117.553 122.045 117.941 121.535C118.012 121.442 118.116 121.381 118.232 121.365C118.349 121.347 118.468 121.378 118.562 121.447C118.656 121.517 118.718 121.619 118.736 121.734C118.753 121.849 118.723 121.966 118.652 122.058C118.287 122.538 117.806 123.305 117.801 123.312C117.761 123.376 117.705 123.428 117.64 123.464C117.573 123.5 117.499 123.52 117.424 123.52Z" fill="#1B5EC9"/>
<path d="M136.76 121.04C136.699 121.04 136.639 121.027 136.582 121.003C136.526 120.978 136.474 120.943 136.432 120.898L135.263 119.652C135.182 119.564 135.137 119.447 135.141 119.325C135.144 119.205 135.195 119.09 135.282 119.006C135.369 118.923 135.484 118.878 135.604 118.88C135.723 118.882 135.838 118.932 135.921 119.019L137.095 120.265C137.157 120.33 137.197 120.411 137.213 120.5C137.229 120.588 137.219 120.68 137.184 120.762C137.149 120.845 137.091 120.915 137.017 120.964C136.942 121.014 136.855 121.04 136.766 121.04H136.76Z" fill="#181E32"/>
<path d="M142.697 114.719C142.626 114.719 142.555 114.702 142.492 114.67C142.231 114.509 141.98 114.33 141.745 114.133C141.539 113.976 141.229 113.735 141.137 113.689C141.086 113.664 141.04 113.627 141.004 113.584C140.966 113.541 140.938 113.491 140.921 113.437C140.885 113.328 140.896 113.211 140.952 113.11C141.006 113.009 141.1 112.933 141.211 112.899C141.323 112.866 141.444 112.876 141.548 112.929C141.811 113.09 142.059 113.269 142.295 113.465C142.5 113.624 142.81 113.864 142.902 113.91C142.99 113.954 143.06 114.026 143.101 114.114C143.142 114.202 143.152 114.301 143.127 114.394C143.104 114.487 143.049 114.57 142.97 114.629C142.892 114.689 142.796 114.72 142.697 114.72V114.719Z" fill="#1B5EC9"/>
<path d="M141.279 97.92C141.174 97.92 141.072 97.8843 140.991 97.8174C140.908 97.7517 140.852 97.6582 140.83 97.5556C140.809 97.4518 140.822 97.3446 140.869 97.25C140.916 97.1566 140.995 97.0817 141.091 97.0378L142.413 96.4405C142.468 96.4163 142.528 96.4024 142.588 96.4001C142.648 96.399 142.708 96.4082 142.764 96.4301C142.82 96.452 142.872 96.4843 142.917 96.5258C142.96 96.5673 142.996 96.6169 143.02 96.6723C143.045 96.7276 143.059 96.7876 143.06 96.8476C143.062 96.9087 143.052 96.9686 143.03 97.0252C143.01 97.0817 142.976 97.1335 142.935 97.1785C142.894 97.2223 142.844 97.2581 142.789 97.2823L141.465 97.8797C141.407 97.9062 141.343 97.92 141.279 97.92Z" fill="#1B5EC9"/>
<path d="M135.582 90.8C135.503 90.8 135.425 90.7787 135.358 90.7371C135.289 90.6966 135.233 90.637 135.195 90.5662C135.156 90.4954 135.138 90.4156 135.141 90.3358C135.143 90.2549 135.168 90.1762 135.21 90.1087L135.84 89.0971C135.871 89.0454 135.911 89.0016 135.959 88.9656C136.006 88.9308 136.06 88.906 136.118 88.8914C136.175 88.8779 136.235 88.8768 136.292 88.8858C136.351 88.8959 136.406 88.9184 136.456 88.9499C136.506 88.9825 136.549 89.0241 136.582 89.0735C136.616 89.123 136.639 89.1781 136.651 89.2365C136.664 89.295 136.664 89.3557 136.652 89.4152C136.641 89.4737 136.619 89.5299 136.586 89.5793L135.955 90.5909C135.916 90.655 135.86 90.7078 135.795 90.7438C135.73 90.7809 135.657 90.8 135.582 90.8Z" fill="#1B5EC9"/>
<path d="M119.111 78.24C118.228 78.24 117.338 78.0636 116.707 77.1759C115.898 76.0378 115.373 74.6605 114.908 73.4453C114.26 71.7487 113.818 69.9799 113.593 68.1775C113.513 67.5224 113.463 66.7682 113.892 66.1076C114.424 65.2894 115.467 64.9552 116.514 64.7159C121.876 63.5052 127.404 63.211 132.863 63.8459C133.695 63.944 134.566 64.0786 135.273 64.5417C136.368 65.2618 136.817 66.5906 136.61 68.4929C136.316 71.1465 135.491 73.7137 134.183 76.0411C133.978 76.4062 133.725 76.8131 133.28 77.0711C132.835 77.3292 132.31 77.3611 131.89 77.3898L120.018 78.1992C119.719 78.2202 119.415 78.24 119.111 78.24ZM114.469 68.0705C114.685 69.8021 115.109 71.5014 115.734 73.131C116.175 74.2966 116.682 75.6177 117.426 76.6598C117.949 77.3964 118.729 77.3986 119.953 77.3148L131.824 76.5054C132.172 76.4811 132.567 76.4547 132.835 76.3003C133.085 76.158 133.247 75.8912 133.406 75.6078C134.658 73.3831 135.449 70.9293 135.733 68.3925C135.904 66.8244 135.595 65.8044 134.788 65.275C134.243 64.9166 133.487 64.8031 132.759 64.7171C127.4 64.0942 121.973 64.3831 116.71 65.5717C115.844 65.7691 114.992 66.0293 114.632 66.584C114.364 66.9953 114.405 67.5412 114.469 68.0661V68.0705Z" fill="#181E32"/>
<path d="M103.392 137.919C103.157 137.928 102.922 137.87 102.717 137.749C102.513 137.628 102.346 137.451 102.237 137.238C102.115 136.948 102.074 136.629 102.115 136.316C102.289 133.939 103.872 131.833 104.801 130.788C104.839 130.744 104.887 130.709 104.938 130.684C104.991 130.658 105.047 130.644 105.106 130.64C105.163 130.638 105.222 130.646 105.276 130.666C105.331 130.686 105.38 130.716 105.423 130.756C105.466 130.795 105.501 130.843 105.526 130.895C105.551 130.949 105.565 131.006 105.569 131.064C105.571 131.123 105.563 131.181 105.543 131.237C105.525 131.292 105.494 131.344 105.455 131.387C104.602 132.346 103.149 134.271 102.994 136.383C102.97 136.538 102.983 136.696 103.03 136.846C103.108 137.009 103.361 137.056 103.538 137.007C103.816 136.932 104.081 136.694 104.33 136.457C105.66 135.181 106.828 133.744 107.807 132.174C107.937 131.966 107.94 131.899 107.938 131.884C107.9 131.771 107.909 131.649 107.961 131.543C108.013 131.435 108.104 131.355 108.214 131.317C108.326 131.279 108.447 131.287 108.551 131.339C108.656 131.393 108.735 131.484 108.773 131.597C108.926 132.052 108.663 132.473 108.553 132.653C107.536 134.285 106.32 135.782 104.935 137.108C104.605 137.424 104.242 137.744 103.765 137.871C103.644 137.903 103.518 137.92 103.392 137.919Z" fill="#181E32"/>
<path d="M144.171 137.2H144.153C143.549 137.191 143.122 136.697 142.917 136.459C141.562 134.89 140.499 133.359 139.718 130.985C139.685 130.874 139.696 130.753 139.749 130.651C139.802 130.547 139.893 130.469 140.003 130.432C140.112 130.395 140.232 130.403 140.336 130.454C140.439 130.504 140.52 130.595 140.558 130.704C141.294 132.935 142.3 134.385 143.585 135.874C143.758 136.075 143.981 136.306 144.167 136.308C144.204 136.31 144.241 136.302 144.275 136.288C144.309 136.272 144.338 136.249 144.362 136.22C144.561 136.008 144.682 135.479 144.647 134.961C144.518 132.972 144.196 132.215 143.282 130.322C143.231 130.216 143.223 130.093 143.262 129.98C143.301 129.869 143.382 129.776 143.487 129.725C143.593 129.673 143.715 129.666 143.826 129.705C143.936 129.743 144.028 129.825 144.079 129.931C145.007 131.856 145.389 132.72 145.532 134.903C145.572 135.524 145.454 136.353 145.004 136.834C144.898 136.95 144.769 137.043 144.626 137.105C144.482 137.168 144.327 137.2 144.171 137.2Z" fill="#181E32"/>
<path d="M30.4416 54.64C30.1609 54.639 29.8897 54.5388 29.6762 54.3573C29.4627 54.1759 29.3206 53.9249 29.2754 53.6489C28.9659 51.6668 27.5123 46.248 27.3266 45.7117C27.2902 45.6016 27.2349 45.4783 27.1774 45.3428C26.9729 44.866 26.7187 44.2725 26.8624 43.7219C27.0624 42.9511 27.8473 42.8123 28.3657 42.7176C28.453 42.7011 28.537 42.6868 28.6133 42.6692C30.1443 42.3201 31.7084 42.0085 33.2559 41.7376C35.0046 41.4337 36.7854 41.1782 38.5485 40.9789C38.7942 40.9322 39.0485 40.9731 39.267 41.0945C39.5466 41.274 39.6328 41.579 39.6793 41.742C40.5885 44.9648 41.3112 48.237 41.8436 51.5424C41.899 51.8898 41.8155 52.2451 41.6111 52.532C41.4069 52.819 41.0978 53.0148 40.7504 53.0774C37.39 53.6721 33.9722 54.1951 30.5908 54.6323C30.5413 54.6381 30.4915 54.6406 30.4416 54.64ZM38.7751 41.8455C38.7318 41.8465 38.6886 41.8498 38.6457 41.8554C36.9014 42.0525 35.1373 42.3058 33.4051 42.6064C31.8731 42.8729 30.3277 43.1834 28.8112 43.5292C28.7227 43.549 28.6266 43.5666 28.5271 43.5854C28.0849 43.6646 27.7732 43.7373 27.719 43.9443C27.6516 44.2042 27.8406 44.6447 27.9921 44.9982C28.0562 45.1479 28.117 45.2889 28.1634 45.4254C28.3535 45.976 29.8347 51.4928 30.1531 53.5157C30.1654 53.5913 30.207 53.6593 30.2691 53.7045C30.3311 53.7499 30.4085 53.7691 30.4847 53.7579C33.8528 53.3241 37.2563 52.8032 40.6034 52.2097C40.7222 52.188 40.8276 52.1206 40.8971 52.0222C40.9665 51.9237 40.9944 51.8021 40.9748 51.6833C40.4477 48.4113 39.732 45.1722 38.8314 41.9821C38.8178 41.9356 38.8013 41.8899 38.7817 41.8455H38.7751Z" fill="white"/>
<path d="M34.9338 71.84C33.8756 71.84 33.2058 71.5898 32.9983 70.9745C32.7909 70.3591 32.2723 67.8446 31.8794 65.7816C31.0419 61.3756 31.1257 61.0823 31.1611 60.9573C31.3509 60.2932 32.0438 60.1825 32.4598 60.1172C32.5382 60.104 32.6132 60.0929 32.6805 60.0785C33.4132 59.9202 33.9683 59.8461 34.5564 59.7675C35.0122 59.7055 35.4833 59.6425 36.0549 59.5362C37.5071 59.2639 38.9835 59.0116 40.4412 58.7847C40.8252 58.725 41.3516 58.6431 41.8393 58.8711C42.4937 59.1754 42.7596 59.8538 42.9505 60.5411C43.7113 63.284 44.2755 66.0779 44.6388 68.9015C44.6631 69.0919 44.7039 69.4106 44.5229 69.6995C44.3078 70.0415 43.9238 70.1223 43.7174 70.1655C43.0719 70.3005 42.3061 70.482 41.495 70.6757C38.6834 71.343 36.4235 71.84 34.9338 71.84ZM32.0196 61.1786C32.0196 62.0098 33.4607 69.5744 33.8359 70.6967C33.8359 70.7144 34.0135 71.1483 36.2392 70.8583C37.7388 70.6624 39.6269 70.213 41.2931 69.8168C42.1097 69.6231 42.881 69.4394 43.5375 69.3022C43.6204 69.2909 43.701 69.2662 43.7759 69.2291C43.7792 69.1584 43.7751 69.0876 43.7638 69.0178C43.4064 66.2359 42.8511 63.4834 42.1019 60.7813C41.9673 60.2988 41.7985 59.8306 41.4685 59.6745C41.2478 59.5694 40.9312 59.6059 40.578 59.6613C39.1292 59.8826 37.6616 60.1383 36.2171 60.4083C35.6235 60.519 35.1413 60.5843 34.6723 60.6463C34.1018 60.7238 33.5633 60.7957 32.8648 60.9462C32.7776 60.965 32.6849 60.9794 32.5956 60.9938C32.3782 61.0259 32.0836 61.0779 32.0196 61.1786Z" fill="white"/>
<path d="M37.0571 88.72C36.5511 88.72 36.3208 88.6415 36.1868 88.5122C36.0285 88.3597 35.6575 88.0016 34.9688 83.4282C34.6288 81.1879 34.3398 78.7035 34.3398 77.9973C34.3398 76.5815 35.1581 76.4975 35.8823 76.4235C35.993 76.4113 36.1137 76.3991 36.2399 76.3826C36.8151 76.3089 37.3893 76.2329 37.9629 76.1549C40.1775 75.8631 42.4729 75.5625 44.7096 75.1414C44.8662 75.111 45.0274 75.113 45.1832 75.1472C45.339 75.1814 45.486 75.2472 45.6154 75.3404C45.7454 75.4331 45.8552 75.5511 45.9384 75.6873C46.0214 75.8234 46.0762 75.975 46.0992 76.1328L47.5265 85.9249C47.5731 86.2333 47.4965 86.5482 47.3134 86.8013C47.1301 87.0544 46.855 87.2257 46.5466 87.2788L45.0418 87.5451C40.2406 88.4006 38.0814 88.72 37.0571 88.72ZM36.7803 87.8325C37.6373 87.9651 42.3311 87.1296 44.8879 86.6753L46.3949 86.4079C46.4754 86.3935 46.5469 86.3482 46.5945 86.2819C46.6423 86.2156 46.6624 86.1327 46.6507 86.052L45.2245 76.2599C45.2187 76.2199 45.2048 76.1816 45.1836 76.1472C45.1626 76.1128 45.1346 76.0831 45.1016 76.0598C45.0699 76.0371 45.034 76.0209 44.9959 76.0124C44.958 76.0039 44.9186 76.003 44.8801 76.0101C42.6179 76.4356 40.3126 76.7384 38.0836 77.0313C37.5116 77.1049 36.9383 77.1809 36.364 77.259C36.2289 77.2767 36.0993 77.29 35.9786 77.3021C35.2722 77.3751 35.2301 77.3795 35.2312 77.9951C35.2257 79.3733 36.2466 86.8245 36.7759 87.8325H36.7803Z" fill="white"/>
<path d="M50.6449 100.852C50.1008 98.7678 49.7736 96.6089 49.4839 94.7047C49.3165 93.6002 49.159 92.5569 48.974 91.6182C48.9096 91.2945 48.7276 91.0076 48.4636 90.8129C48.1997 90.6194 47.8732 90.5315 47.5486 90.5682C45.5935 90.8007 43.2782 91.1244 41.5048 91.4024C38.0516 91.9586 37.8016 92.1643 37.6683 92.2778C37.4293 92.4791 37.2277 92.6537 38.0582 98.1983C38.2466 99.4485 38.4636 100.79 38.6552 101.878C38.9681 103.657 39.0132 103.716 39.0958 103.821C39.3866 104.182 39.8294 104.24 40.1533 104.24C40.2458 104.24 40.3295 104.24 40.3967 104.232C42.365 104.121 43.9446 103.765 45.6177 103.391C46.8877 103.108 48.2007 102.814 49.7042 102.636C49.9022 102.624 50.0948 102.567 50.2682 102.47C50.5821 102.278 50.9027 101.841 50.6449 100.852ZM49.8111 101.711C49.7439 101.734 49.6738 101.749 49.6029 101.753C48.0608 101.937 46.7192 102.235 45.4283 102.523C43.7915 102.889 42.245 103.233 40.3471 103.344C40.2425 103.344 39.9495 103.367 39.8217 103.292C39.5364 102.218 38.2796 94.2709 38.3325 92.9273C39.2137 92.6248 43.4522 91.9508 47.6511 91.4514C47.756 91.4391 47.8617 91.4669 47.9467 91.5303C48.0319 91.5937 48.0899 91.6872 48.1093 91.7917C48.291 92.7115 48.4474 93.7448 48.6138 94.8393C48.9057 96.7657 49.2361 98.9491 49.7924 101.079C49.9102 101.532 49.843 101.691 49.8111 101.711Z" fill="white"/>
<path d="M50.1534 51.52C49.7924 51.5191 49.4441 51.3865 49.1737 51.1472C48.9032 50.9079 48.7293 50.5782 48.6842 50.2198C48.2906 47.1301 47.5255 42.8212 47.0908 41.6774C46.8391 41.0117 46.8369 40.4936 47.0842 40.0876C47.4911 39.422 48.397 39.311 49.3551 39.2067C49.4748 39.1934 49.7809 39.1502 50.2033 39.0902C58.6083 37.8999 59.3578 38.1473 59.5918 38.6975C60.1806 40.0743 60.7151 44.6883 61.1142 48.5523C61.1486 48.8774 61.2107 49.4831 60.8293 49.9147C60.5144 50.2708 60.0531 50.3407 59.747 50.3873C58.0838 50.6402 56.2675 50.8311 54.5122 51.023C53.1273 51.1705 51.6958 51.3236 50.3541 51.5045C50.2876 51.514 50.2206 51.5192 50.1534 51.52ZM49.5635 50.1077C49.5736 50.1866 49.5992 50.2626 49.6388 50.3316C49.6784 50.4005 49.7312 50.461 49.7942 50.5093C49.8565 50.5576 49.9279 50.5929 50.0041 50.6131C50.0803 50.6332 50.1596 50.638 50.2377 50.6269C51.5916 50.445 53.0297 50.2941 54.4202 50.1421C56.1666 49.9557 57.9685 49.7627 59.6162 49.512C59.7947 49.4853 60.0597 49.4443 60.1706 49.3289C60.2937 49.1891 60.2571 48.8363 60.2371 48.6466C60.0342 46.6786 59.4255 40.7932 58.8289 39.169C58.3355 39.047 56.4117 39.1102 50.3331 39.9711C49.8895 40.0344 49.5935 40.0754 49.4626 40.0909C48.7896 40.1664 48.0289 40.2529 47.8471 40.5513C47.7306 40.7444 47.8249 41.0994 47.9258 41.3634C48.4458 42.7302 49.2143 47.3198 49.5691 50.1077H49.5635Z" fill="white"/>
<path d="M78.0349 37.8358C77.9495 37.4187 77.5849 37.4275 76.7034 37.4473C76.2051 37.4595 75.4988 37.4893 74.5877 37.5367C72.955 37.6228 71.0419 37.7475 69.8976 37.8214C69.418 37.8534 69.0741 37.8755 68.946 37.8821C68.912 37.8821 68.8222 37.8821 68.7423 37.8733C68.2331 37.8413 67.2848 37.7828 66.7252 38.4195C66.3704 38.8234 66.2598 39.4127 66.3967 40.1663C66.5336 40.92 66.6245 41.5777 66.7252 42.2861C66.7986 42.8147 66.8741 43.362 66.9694 43.9414C67.0461 44.4114 67.1402 45.1552 67.2399 45.9453C67.6987 49.5791 67.8235 50.0282 68.1159 50.2489C68.2594 50.3592 68.4598 50.4001 68.773 50.4001C69.1275 50.3912 69.4814 50.3635 69.833 50.3173C69.9425 50.3041 70.0367 50.2941 70.0881 50.2908C72.6615 50.1286 75.259 49.8494 77.8083 49.4753C78.0503 49.4389 78.5003 49.3727 78.7642 49.0031C78.9581 48.7327 78.9647 48.4083 78.969 48.2152C79.0438 44.7311 78.7304 41.2495 78.0349 37.8358ZM78.0908 48.1887C78.0962 48.2874 78.0828 48.3863 78.0514 48.48C78.0043 48.5473 77.759 48.5837 77.678 48.5904C75.1528 48.9666 72.5805 49.2381 70.0312 49.3981C69.9644 49.3981 69.868 49.4135 69.7333 49.429C69.3815 49.4753 69.0271 49.5007 68.6722 49.5051C68.5036 48.9534 68.2583 47.019 68.1072 45.825C68.0064 45.0272 67.9123 44.2746 67.8323 43.7891C67.7392 43.2208 67.6637 42.679 67.5914 42.1548C67.4961 41.4685 67.3987 40.7578 67.2629 39.9986C67.2037 39.6676 67.1764 39.2328 67.3844 38.9966C67.6604 38.6822 68.3317 38.723 68.6919 38.7462C68.7928 38.7546 68.8941 38.7576 68.9953 38.755C69.1256 38.7484 69.4727 38.7252 69.9578 38.6943C71.5391 38.5906 76.0704 38.297 77.2421 38.3147C77.8796 41.5668 78.1642 44.879 78.0908 48.1931V48.1887Z" fill="white"/>
<path d="M87.9897 48.1596C87.779 48.1652 87.5706 48.1195 87.3811 48.0262C86.8025 47.724 86.716 47.0338 86.6683 46.6941L85.7815 39.9591C85.766 39.8411 85.745 39.7176 85.7239 39.5919C85.6474 39.1398 85.5598 38.626 85.674 38.1342C85.9423 36.9775 87.1273 36.7823 87.9121 36.6522C90.3474 36.2513 92.805 36.0067 95.2714 35.92H95.3345C95.738 35.9207 96.1304 36.0553 96.4486 36.3026C96.7667 36.5498 96.9928 36.8956 97.0915 37.2851C97.7377 39.8965 98.1268 42.5643 98.251 45.2508C98.2687 45.6179 98.3042 46.3843 97.7777 46.8518C97.4229 47.1672 96.9441 47.2179 96.6282 47.2521L88.3344 48.1342C88.2202 48.1487 88.1049 48.1572 87.9897 48.1596ZM95.3345 36.8022H95.3024C92.8759 36.8842 90.4572 37.1221 88.0617 37.5145C87.2514 37.6479 86.6683 37.7846 86.5431 38.3238C86.4688 38.6447 86.5364 39.0472 86.6029 39.4375C86.6251 39.5688 86.6473 39.7044 86.665 39.8367L87.5518 46.5718C87.574 46.7438 87.6272 47.1473 87.7979 47.2334C87.8965 47.2852 88.0983 47.2631 88.2413 47.2477L96.535 46.3656C96.8144 46.3358 97.056 46.3027 97.1879 46.1847C97.3742 46.0193 97.383 45.6334 97.3664 45.2816C97.2434 42.6571 96.8643 40.0505 96.2335 37.4991C96.1836 37.2998 96.0673 37.1229 95.9043 36.9967C95.7414 36.8704 95.5407 36.802 95.3345 36.8022Z" fill="white"/>
<path d="M106.682 46.8C106.329 46.7978 105.987 46.6748 105.713 46.4516C105.439 46.2283 105.249 45.9182 105.175 45.5724C104.649 43.0698 104.525 39.6984 104.522 38.7148C104.522 38.5558 104.501 38.3428 104.479 38.1153C104.405 37.3558 104.315 36.4099 104.795 35.8634C105.419 35.1536 106.805 35.0806 107.817 35.0265C108.038 35.0144 108.237 35.0044 108.395 34.9879C109.845 34.8455 111.317 34.7318 112.768 34.6512C113.531 34.6092 114.47 34.6513 114.951 35.3909C115.111 35.6638 115.212 35.9674 115.246 36.2817C115.733 39.2121 115.829 42.1942 115.53 45.1496C115.534 45.2692 115.513 45.3883 115.47 45.4997C115.427 45.6112 115.361 45.7127 115.278 45.7984C115.194 45.884 115.095 45.952 114.984 45.9981C114.874 46.0443 114.754 46.0677 114.635 46.067C112.035 46.3883 109.392 46.6345 106.777 46.7979L106.682 46.8ZM106.04 45.3904C106.073 45.5448 106.159 45.6827 106.284 45.7791C106.41 45.8755 106.564 45.9239 106.722 45.9158C109.319 45.7535 111.945 45.5096 114.527 45.1906C114.549 45.1906 114.6 45.1816 114.637 45.1739C114.645 45.1365 114.651 45.0823 114.653 45.0635C114.944 42.1858 114.852 39.282 114.377 36.4285C114.359 36.2359 114.304 36.0486 114.214 35.8766C113.979 35.5178 113.345 35.5057 112.82 35.5355C111.384 35.615 109.923 35.7275 108.485 35.8667C108.306 35.8843 108.093 35.8953 107.866 35.9075C107.108 35.9472 105.84 36.0179 105.461 36.4462C105.232 36.7045 105.31 37.5028 105.361 38.0305C105.385 38.2777 105.407 38.5117 105.408 38.7115C105.408 39.6708 105.532 42.9595 106.042 45.3893L106.04 45.3904Z" fill="white"/>
<path d="M53.7444 69.2001C53.3552 69.1989 52.9808 69.0525 52.6951 68.7899C52.4093 68.5274 52.2332 68.1677 52.2015 67.7822C52.1183 66.7766 52.0406 65.7545 51.9663 64.7655C51.9308 64.3076 51.8957 63.8504 51.8609 63.3939C51.8144 62.782 51.6302 61.9131 51.4528 61.073C51.0457 59.1534 50.9226 58.3915 51.2409 58.0001C51.8998 57.1908 53.6512 57.0254 55.5412 56.9162C55.8995 56.8953 56.2067 56.8765 56.4286 56.8523L60.842 56.3528C61.9601 56.2271 62.6001 56.4631 62.7465 57.0662C62.7711 57.1683 62.7864 57.2724 62.792 57.3771L64.0886 66.5539C64.1111 66.714 64.1017 66.8769 64.0608 67.0334C64.0199 67.1898 63.9483 67.3367 63.8503 67.4656C63.7522 67.5946 63.6295 67.703 63.4892 67.7848C63.3489 67.8665 63.1937 67.92 63.0327 67.942L53.9307 69.1902H53.9196C53.8615 69.1967 53.8029 69.2 53.7444 69.2001ZM51.9552 58.526C51.8865 58.8391 52.1471 60.0696 52.3213 60.8899C52.5043 61.7577 52.694 62.6541 52.7461 63.3255C52.7816 63.7834 52.8163 64.241 52.8503 64.6982C52.9258 65.6906 53.0034 66.706 53.0855 67.7094C53.0927 67.7978 53.1178 67.8839 53.159 67.9625C53.2004 68.041 53.2573 68.1106 53.3262 68.167C53.3941 68.2229 53.4725 68.2646 53.5569 68.2898C53.6413 68.3149 53.7299 68.3231 53.8176 68.3136L62.9129 67.0677C63.0046 67.0548 63.0876 67.0065 63.1436 66.9332C63.1714 66.8968 63.1917 66.8552 63.2032 66.8109C63.2146 66.7666 63.2169 66.7204 63.2101 66.6752L61.9124 57.4829V57.451C61.9097 57.3954 61.9026 57.3401 61.8913 57.2856C61.8547 57.2602 61.644 57.1489 60.9474 57.2283L56.5328 57.7277C56.2877 57.7553 55.9672 57.774 55.5956 57.795C54.4953 57.8589 52.4666 57.9769 51.9552 58.526Z" fill="white"/>
<path d="M72.2219 67.0401C71.8467 67.0396 71.4846 66.901 71.2043 66.6505C70.9241 66.4 70.7452 66.055 70.7013 65.6808C70.6059 64.8865 70.4571 63.7289 70.2995 62.5033C69.9665 59.9297 69.5914 57.014 69.5459 56.1406C69.5281 55.8063 69.5303 55.4843 69.7412 55.2615C69.9521 55.0387 70.1963 55.0554 70.4005 55.0554C70.5873 55.0619 70.774 55.0428 70.9555 54.9986C71.9078 54.7624 72.9156 54.6966 73.8902 54.632C74.3008 54.6053 74.6882 54.5808 75.0745 54.5429L79.6463 54.0972C79.9005 54.0727 80.4288 54.0215 80.7816 54.3925C81.0336 54.6576 81.0658 55.0097 81.0858 55.2203C81.2101 56.5661 81.4099 57.7895 81.6019 58.9727C81.8927 60.7631 82.168 62.4554 82.1791 64.4252C82.1802 64.7664 82.0547 65.0956 81.8272 65.3487C81.5997 65.6017 81.2856 65.7603 80.947 65.7934C79.563 65.9115 78.1579 66.1599 76.8004 66.4006C75.3475 66.6568 73.8447 66.9231 72.3429 67.0356C72.2996 67.039 72.2608 67.0401 72.2219 67.0401ZM70.4272 55.9467C70.4272 55.9857 70.4272 56.0347 70.4272 56.0949C70.4705 56.9327 70.8445 59.8317 71.1741 62.3897C71.3329 63.6152 71.4816 64.7762 71.5771 65.5739C71.5961 65.7402 71.6785 65.8929 71.8069 65.9997C71.9353 66.1067 72.0999 66.1597 72.2663 66.1477C73.7248 66.0363 75.2043 65.7755 76.6361 65.5226C78.0136 65.2786 79.4376 65.0269 80.8616 64.9054C80.9792 64.8943 81.088 64.8397 81.1668 64.7523C81.2456 64.6649 81.2889 64.551 81.2889 64.433C81.2778 62.5323 81.0081 60.8678 80.7228 59.1186C80.5286 57.9209 80.3267 56.682 80.199 55.305C80.1968 55.2035 80.1757 55.1034 80.1369 55.0097C80.1169 54.9885 80.037 54.9573 79.7295 54.9863L75.1577 55.432C74.7581 55.471 74.3452 55.4977 73.9457 55.5244C73.01 55.5857 72.0421 55.6481 71.1708 55.8665C70.9275 55.9259 70.6776 55.9528 70.4272 55.9467Z" fill="white"/>
<path d="M91.4503 64.4C91.0564 64.3999 90.677 64.2569 90.3844 63.9986C90.0907 63.7402 89.9061 63.3847 89.8627 63L89.4176 59.0788C89.3542 58.5144 89.2786 58.0627 89.2051 57.6252C89.0861 56.9771 89.0027 56.3231 88.9526 55.6663C88.9237 55.4777 88.8769 55.2922 88.8135 55.1117C88.6277 54.5047 88.3974 53.75 88.8135 53.1845C89.0805 52.8225 89.5356 52.6377 90.2042 52.6223C90.8439 52.607 96.8361 52.2122 98.3114 52.0317C98.5584 52.0011 98.8966 51.9595 99.227 52.0875C100.028 52.397 100.123 53.3781 100.158 53.7478C100.269 54.9258 100.435 56.0447 100.594 57.121C100.848 58.8448 101.087 60.4734 101.137 62.3328C101.145 62.6161 101.158 63.0908 100.846 63.4495C100.502 63.8455 99.9691 63.8783 99.6509 63.898L91.5482 64.3967C91.5181 64.3989 91.4848 64.4 91.4503 64.4ZM90.746 62.9037C90.7661 63.0822 90.8551 63.2463 90.9941 63.3617C91.1343 63.4771 91.3134 63.5348 91.4959 63.5228L99.5997 63.024C99.7655 63.0142 100.074 62.9945 100.174 62.8808C100.274 62.767 100.256 62.5122 100.252 62.3547C100.204 60.5467 99.968 58.9432 99.7176 57.2446C99.5574 56.1508 99.3917 55.0286 99.2726 53.8288C99.2203 53.2819 99.0991 52.9767 98.9021 52.9002C98.7831 52.8542 98.5917 52.8783 98.4226 52.9002C96.9307 53.0828 90.8729 53.4831 90.2276 53.4984C89.8704 53.5072 89.6235 53.5783 89.5345 53.6997C89.3754 53.9184 89.5422 54.4653 89.6646 54.8613C89.7503 55.1031 89.8081 55.3531 89.8393 55.6072C89.8882 56.2365 89.9695 56.8629 90.0818 57.4841C90.1575 57.9326 90.2354 58.3963 90.3043 58.9837L90.746 62.9037Z" fill="white"/>
<path d="M109.411 63.2C108.39 63.2 107.876 63.0146 107.728 62.5697C107.42 61.6116 107.23 59.6236 107.079 58.0252C107.03 57.5131 106.988 57.0693 106.95 56.7514C106.902 56.3463 106.832 55.9324 106.766 55.5372C106.649 54.9014 106.565 54.26 106.514 53.6154C106.456 52.675 106.514 51.8085 107.839 51.5435C109.163 51.2786 110.761 51.1583 112.311 51.038C113.627 50.9375 114.863 50.8426 115.93 50.6704C116.119 50.6395 116.478 50.5821 116.773 50.8029C116.79 50.8161 116.815 50.8338 116.844 50.8536C117.392 51.2389 117.668 51.4928 117.693 51.8096C117.802 53.1187 118.011 54.4499 118.215 55.7381C118.506 57.5749 118.807 59.4746 118.82 61.3743C118.82 62.1878 117.614 62.3247 117.247 62.3479C116.494 62.3942 115.371 62.5488 114.176 62.7132C111.989 63.0113 110.444 63.2 109.411 63.2ZM108.542 62.2297C109.121 62.5145 112.203 62.0907 114.061 61.8346C115.267 61.6679 116.409 61.5111 117.193 61.4637C117.451 61.4522 117.705 61.3935 117.942 61.2904C117.921 59.4845 117.63 57.6477 117.349 55.8739C117.147 54.5956 116.937 53.2755 116.826 51.9597C116.675 51.8161 116.512 51.6864 116.339 51.5722L116.267 51.5215C116.201 51.5195 116.135 51.5253 116.069 51.5391C114.966 51.7168 113.65 51.8173 112.378 51.9155C110.854 52.0325 109.278 52.154 108.01 52.4067C107.41 52.526 107.335 52.6661 107.391 53.5569C107.439 54.1708 107.519 54.7816 107.631 55.3871C107.699 55.7966 107.77 56.2194 107.82 56.6455C107.86 56.9766 107.903 57.4181 107.952 57.9414C108.089 59.3774 108.274 61.3301 108.542 62.2297Z" fill="white"/>
<path d="M55.5117 85.8396C55.3469 85.8452 55.1858 85.7897 55.0587 85.6842C54.9268 85.5566 54.8481 85.3835 54.8383 85.1992L53.736 76.0983C53.7283 76.0306 53.7129 75.9462 53.6963 75.8563C53.6148 75.4057 53.4913 74.7253 53.9708 74.3025C54.3411 73.9695 54.9793 73.8818 55.5415 73.8008C55.7046 73.7775 55.8589 73.7553 55.9681 73.732C56.366 73.6443 58.393 73.247 60.3671 72.9551C64.2305 72.4001 64.8026 72.6798 65.0561 73.0195C65.9125 74.1671 66.4096 83.5932 66.414 83.6887C66.424 83.8873 66.4405 84.2192 66.2333 84.4989C65.9621 84.8651 65.5014 84.8907 65.2787 84.9029C63.8734 84.9806 62.1406 85.1759 60.4641 85.3646C58.7876 85.5533 57.0317 85.7508 55.6021 85.8296L55.5117 85.8396ZM63.719 73.5256C62.0447 73.5256 57.9797 74.2004 56.1466 74.601C56.0055 74.6321 55.8369 74.6565 55.6572 74.6821C55.3056 74.7331 54.717 74.8175 54.5451 74.9706C54.4348 75.0639 54.5153 75.479 54.555 75.7009C54.5737 75.8042 54.5914 75.9007 54.6035 75.9951L55.6892 84.9417C57.0681 84.8596 58.7391 84.672 60.3572 84.49C62.0458 84.3002 63.7907 84.1038 65.2225 84.025C65.443 84.0128 65.5036 83.9861 65.5212 83.9728C65.529 83.8951 65.529 83.8174 65.5212 83.7397C65.3008 79.1349 64.7397 74.2891 64.3617 73.5965C64.1527 73.5379 63.9356 73.5139 63.719 73.5256Z" fill="white"/>
<path d="M59.3849 101.2C59.078 101.201 58.7811 101.09 58.5481 100.888C58.3151 100.688 58.1616 100.408 58.1154 100.102L56.8262 91.9072C56.8108 91.8084 56.7921 91.7042 56.7734 91.5988C56.6326 90.8223 56.3708 89.3726 57.8327 89.0998C58.8481 88.909 59.9019 88.8213 60.9216 88.7348C61.4177 88.6938 61.9315 88.6505 62.4265 88.5962L66.9905 88.097C67.2301 88.0527 67.4775 88.0959 67.688 88.2202C67.798 88.2956 68.0323 88.4531 68.1445 89.7586C68.3568 92.1989 68.667 93.7861 69.0245 95.6263C69.2137 96.5902 69.4084 97.5874 69.6031 98.7842C69.6308 98.9528 69.6247 99.1259 69.5854 99.2922C69.5462 99.4597 69.4744 99.6161 69.3744 99.7548C69.2744 99.8934 69.1482 100.011 69.003 100.1C68.8578 100.188 68.6964 100.247 68.5284 100.273C66.9597 100.515 65.2602 100.654 63.6167 100.79C62.2527 100.901 60.8413 101.012 59.5576 101.189C59.5004 101.197 59.4426 101.2 59.3849 101.2ZM67.138 88.9744H67.0852L62.5211 89.4725C62.0151 89.5279 61.4958 89.5723 60.9942 89.6144C59.9965 89.6976 58.9658 89.7841 57.9933 89.966C57.506 90.0581 57.4433 90.3321 57.6391 91.4335C57.6589 91.5444 57.6787 91.6554 57.6952 91.7663L58.9845 99.9611C59.0011 100.068 59.0584 100.164 59.1441 100.228C59.2298 100.293 59.3371 100.322 59.4432 100.307C60.75 100.132 62.1724 100.015 63.5474 99.9023C65.1755 99.7692 66.8596 99.6305 68.3975 99.3943C68.4504 99.3865 68.5012 99.3677 68.547 99.3399C68.5926 99.3122 68.6325 99.2756 68.664 99.2312C68.6955 99.188 68.7182 99.1392 68.7306 99.0859C68.743 99.0338 68.745 98.9794 68.7363 98.9262C68.5438 97.7427 68.3513 96.7533 68.1643 95.796C67.8145 94.008 67.4834 92.3187 67.2678 89.8341C67.2428 89.5446 67.1994 89.2584 67.138 88.9744Z" fill="white"/>
<path d="M138.213 51.9924C138.149 52.0049 138.081 52.002 138.018 51.9836C137.906 51.9519 137.812 51.8765 137.755 51.7742C137.699 51.6717 137.684 51.5507 137.715 51.4376C138.353 49.1319 139.284 46.9201 140.485 44.8577C140.515 44.8077 140.553 44.7639 140.599 44.7289C140.645 44.6939 140.697 44.6685 140.753 44.654C140.809 44.6395 140.867 44.6362 140.924 44.6444C140.98 44.6526 141.035 44.672 141.084 44.7016C141.133 44.7313 141.177 44.7703 141.212 44.8169C141.246 44.8634 141.271 44.9163 141.285 44.9727C141.3 45.029 141.303 45.0877 141.295 45.1453C141.286 45.2029 141.268 45.2584 141.238 45.3084C140.077 47.3044 139.177 49.4453 138.561 51.6768C138.538 51.7573 138.494 51.8298 138.432 51.8856C138.371 51.9414 138.295 51.9785 138.213 51.9924Z" fill="#1B5EC9"/>
<path d="M139.501 61.0329C139.419 61.0478 139.336 61.0394 139.258 61.0085C139.181 60.9776 139.114 60.9254 139.065 60.8582C139.017 60.7909 138.987 60.7112 138.981 60.6282C138.976 60.5452 138.994 60.4623 139.033 60.389C143.181 52.6523 147.57 44.9267 152.079 37.4164C152.135 37.3228 152.223 37.253 152.327 37.2204C152.43 37.1877 152.543 37.1946 152.642 37.2397C152.74 37.2847 152.82 37.3647 152.863 37.4644C152.907 37.564 152.912 37.6764 152.878 37.7797L152.476 39.0289C152.442 39.1327 152.372 39.2204 152.278 39.2753C152.183 39.3301 152.073 39.3482 151.966 39.326C147.773 46.3647 143.684 53.5845 139.811 60.8109C139.779 60.8688 139.735 60.9188 139.681 60.9571C139.628 60.9956 139.566 61.0215 139.501 61.0329Z" fill="#1B5EC9"/>
<path d="M143.03 61.513C142.945 61.5283 142.856 61.5187 142.775 61.4853C142.695 61.4521 142.625 61.3965 142.577 61.3254C142.528 61.2544 142.501 61.171 142.5 61.0854C142.499 60.9998 142.524 60.9157 142.57 60.8434C143.611 59.2434 144.837 57.7654 146.222 56.4386C146.309 56.3601 146.423 56.3175 146.54 56.3202C146.658 56.3228 146.77 56.3704 146.852 56.4527C146.934 56.535 146.98 56.6455 146.98 56.7606C146.98 56.8756 146.934 56.9862 146.852 57.0685C145.516 58.349 144.334 59.7753 143.33 61.3192C143.296 61.3698 143.252 61.4132 143.201 61.4466C143.15 61.4799 143.091 61.5025 143.03 61.513Z" fill="#1B5EC9"/>
<path d="M141.092 68.3998C141 68.3979 140.909 68.3667 140.835 68.3104C140.761 68.2543 140.707 68.176 140.679 68.0868C140.653 67.9977 140.654 67.9022 140.684 67.8142C140.715 67.7261 140.773 67.65 140.849 67.5968C146.975 63.4976 153.314 59.7264 159.839 56.2992C159.891 56.2695 159.948 56.2505 160.006 56.2432C160.066 56.236 160.125 56.2409 160.183 56.2574C160.239 56.274 160.293 56.302 160.338 56.3396C160.384 56.3772 160.423 56.4238 160.45 56.4765C160.478 56.5291 160.494 56.5869 160.499 56.6462C160.503 56.7055 160.497 56.7651 160.478 56.8214C160.458 56.8779 160.428 56.9299 160.389 56.9743C160.35 57.0188 160.302 57.0548 160.248 57.0802C153.751 60.4942 147.44 64.2497 141.339 68.3314C141.266 68.3787 141.179 68.4025 141.092 68.3998Z" fill="#1B5EC9"/>
<path d="M84.301 146.64C84.2096 146.64 84.1203 146.613 84.0454 146.56C83.9705 146.506 83.9143 146.432 83.8835 146.346C83.8537 146.26 83.8515 146.167 83.8769 146.079C83.9022 145.991 83.9551 145.914 84.0267 145.857C87.7022 142.96 91.1507 139.511 94.2731 135.605C94.3094 135.56 94.3546 135.523 94.4053 135.494C94.456 135.467 94.5111 135.449 94.5694 135.443C94.6267 135.436 94.6851 135.442 94.7402 135.457C94.7964 135.473 94.8482 135.5 94.8934 135.536C94.9385 135.572 94.9771 135.617 95.0046 135.668C95.0322 135.718 95.0498 135.773 95.0564 135.831C95.063 135.888 95.0586 135.946 95.0421 136.001C95.0256 136.057 94.9991 136.108 94.9628 136.153C91.9076 139.998 88.4227 143.485 84.5732 146.545C84.496 146.606 84.4002 146.64 84.301 146.64Z" fill="#1B5EC9"/>
<path d="M85.0224 138C84.934 138 84.8477 137.974 84.7748 137.925C84.7018 137.875 84.6454 137.806 84.6122 137.724C84.5791 137.642 84.5713 137.553 84.5901 137.467C84.6078 137.38 84.652 137.301 84.715 137.24L84.8986 137.063C84.9782 136.987 85.0833 136.943 85.1938 136.941C86.5074 136.15 87.8199 135.319 89.0992 134.47C89.1976 134.408 89.3159 134.386 89.4287 134.409C89.5425 134.433 89.6421 134.501 89.7062 134.597C89.7703 134.694 89.7936 134.811 89.7725 134.925C89.7504 135.039 89.6841 135.139 89.589 135.205C88.1682 136.149 86.7075 137.068 85.2491 137.937C85.1806 137.979 85.102 138 85.0224 138Z" fill="#1B5EC9"/>
<path d="M76.3013 133.2C76.1916 133.2 76.0859 133.159 76.0047 133.084C75.9235 133.01 75.8725 132.907 75.8615 132.798C75.8507 132.688 75.8807 132.577 75.9458 132.489C76.0109 132.4 76.1063 132.338 76.2139 132.316C81.3253 131.284 86.3087 129.689 91.0752 127.559C91.1283 127.535 91.1858 127.521 91.2445 127.52C91.302 127.518 91.3606 127.528 91.4148 127.549C91.469 127.571 91.5188 127.602 91.5619 127.642C91.604 127.683 91.6372 127.731 91.6615 127.785C91.6847 127.838 91.698 127.896 91.6991 127.955C91.7013 128.015 91.6902 128.073 91.6692 128.127C91.6482 128.182 91.6172 128.232 91.5763 128.275C91.5365 128.317 91.4878 128.352 91.4347 128.375C86.6095 130.531 81.5654 132.145 76.3909 133.191C76.3614 133.198 76.3313 133.201 76.3013 133.2Z" fill="#1B5EC9"/>
<path d="M79.7775 124.8C79.2606 124.8 78.7404 124.797 78.2168 124.792C78.0993 124.79 77.9872 124.744 77.9052 124.663C77.8232 124.583 77.7779 124.475 77.7793 124.363C77.7808 124.25 77.8289 124.143 77.913 124.065C77.9972 123.986 78.1104 123.943 78.2279 123.944C83.3373 123.998 88.4458 123.777 93.5288 123.282C93.5875 123.277 93.6462 123.282 93.7015 123.298C93.758 123.314 93.8101 123.34 93.8555 123.376C93.9009 123.411 93.9386 123.455 93.9663 123.504C93.994 123.553 94.0106 123.607 94.0172 123.663C94.0228 123.718 94.0172 123.775 94.0006 123.829C93.984 123.882 93.9563 123.931 93.9186 123.975C93.8821 124.018 93.8367 124.054 93.7846 124.081C93.7337 124.107 93.6772 124.124 93.6185 124.129C89.0195 124.575 84.4006 124.799 79.7775 124.8Z" fill="#1B5EC9"/>
<path d="M97.7505 81.645C95.8056 82.6023 94.7019 83.5574 93.9145 85.4653C93.7091 85.9639 93.484 87.4054 93.7201 87.8874C93.9639 88.3871 94.5284 88.5948 95.0478 88.707C95.5409 88.8125 96.0725 88.8691 96.5293 88.6481C97.3574 88.2472 97.1487 86.0739 97.4288 85.1554C97.823 83.865 99.0849 82.4701 101.218 81.303C101.469 81.1664 101.416 80.7277 101.133 80.721C100.186 80.6977 98.9267 81.0653 97.7505 81.645Z" fill="white"/>
<path d="M19.9963 37.039C19.8805 37.0442 19.7673 37.0051 19.6816 36.9306C19.596 36.856 19.5449 36.752 19.5395 36.6414C19.5342 36.531 19.575 36.4229 19.653 36.3411C19.7312 36.2593 19.8401 36.2105 19.9559 36.2053L23.1397 35.9219C23.197 35.9167 23.2548 35.9225 23.3098 35.9386C23.3648 35.9549 23.416 35.9813 23.4603 36.0164C23.5046 36.0514 23.5413 36.0945 23.5683 36.1431C23.5951 36.1918 23.6117 36.2449 23.6172 36.2996C23.6225 36.3544 23.6165 36.4097 23.5996 36.4622C23.5826 36.5147 23.555 36.5635 23.5182 36.6059C23.4815 36.6482 23.4363 36.6832 23.3855 36.7089C23.3345 36.7346 23.2788 36.7504 23.2215 36.7555L20.0378 37.04L19.9963 37.039Z" fill="#181E32"/>
<path d="M27.2892 36.1594C27.2311 36.1626 27.1729 36.1547 27.1179 36.1362C27.0629 36.1177 27.0122 36.0889 26.9687 36.0514C26.9252 36.014 26.8898 35.9686 26.8644 35.9179C26.8391 35.8672 26.8244 35.8122 26.821 35.756C26.8177 35.6998 26.8258 35.6435 26.8449 35.5903C26.8641 35.5373 26.894 35.4883 26.9327 35.4462C26.9714 35.4042 27.0184 35.3699 27.0708 35.3454C27.1232 35.3209 27.1802 35.3067 27.2383 35.3035C29.4328 35.0553 30.6524 34.9612 31.5776 34.9601C31.6951 34.9601 31.8076 35.0051 31.8906 35.0854C31.9736 35.1656 32.0203 35.2745 32.0203 35.388C32.0203 35.5015 31.9736 35.6103 31.8906 35.6906C31.8076 35.7708 31.6951 35.816 31.5776 35.816H31.5621C30.6768 35.816 29.4882 35.9101 27.3434 36.154L27.2892 36.1594Z" fill="#181E32"/>
<path d="M37.5293 35.4393C37.4118 35.4459 37.2964 35.4052 37.2086 35.3261C37.1209 35.247 37.0678 35.136 37.0613 35.0174C37.0546 34.8989 37.0949 34.7825 37.1734 34.6939C37.2518 34.6054 37.3619 34.5518 37.4795 34.5452L44.247 33.7629C44.3048 33.7562 44.3633 33.7611 44.4192 33.7772C44.4753 33.7934 44.5275 33.8205 44.5731 33.857C44.6186 33.8936 44.6566 33.9388 44.6849 33.9901C44.7131 34.0415 44.7311 34.098 44.7377 34.1563C44.7442 34.2147 44.7395 34.2737 44.7234 34.3301C44.7075 34.3867 44.6805 34.4393 44.6443 34.4853C44.6081 34.5313 44.5633 34.5696 44.5124 34.5981C44.4615 34.6266 44.4056 34.6447 44.3478 34.6514L37.5803 35.4337L37.5293 35.4393Z" fill="#181E32"/>
<path d="M49.0374 34.1598C48.9207 34.1643 48.8071 34.1217 48.7213 34.0413C48.6356 33.9608 48.5849 33.8492 48.5804 33.7308C48.5759 33.6124 48.6179 33.4971 48.6972 33.4102C48.7765 33.3232 48.8866 33.2718 49.0033 33.2672L52.7429 32.9616C52.8596 32.952 52.9753 32.9897 53.0645 33.0666C53.1537 33.1435 53.2092 33.2532 53.2186 33.3715C53.2281 33.4899 53.1909 33.6072 53.115 33.6977C53.0392 33.7882 52.9311 33.8445 52.8144 33.8541L49.0748 34.1598H49.0374Z" fill="#181E32"/>
<path d="M58.57 33.1177C58.4504 33.123 58.3338 33.0798 58.2456 32.9979C58.1575 32.9161 58.1051 32.8021 58.1 32.6811C58.0949 32.5603 58.1375 32.4422 58.2185 32.353C58.2995 32.2639 58.4121 32.211 58.5317 32.2057L60.8882 32.0017C61.0078 31.9913 61.1266 32.0294 61.2184 32.1075C61.3102 32.1857 61.3677 32.2975 61.3779 32.4183C61.3883 32.5393 61.3506 32.6594 61.2733 32.7524C61.1961 32.8453 61.0856 32.9033 60.966 32.9137L58.606 33.12L58.57 33.1177Z" fill="#181E32"/>
<path d="M65.2925 32.3191C65.175 32.3265 65.0594 32.2874 64.971 32.2103C64.8826 32.1331 64.8287 32.0244 64.8212 31.9079C64.8138 31.7914 64.8532 31.6768 64.9311 31.5892C65.0089 31.5016 65.1185 31.4482 65.236 31.4408C68.5781 31.0104 72.3899 30.5625 75.3254 30.4801C75.443 30.4771 75.5569 30.5204 75.6422 30.6006C75.7274 30.6808 75.7771 30.7913 75.7802 30.9078C75.7833 31.0242 75.7395 31.1371 75.6586 31.2216C75.5778 31.3062 75.4662 31.3554 75.3487 31.3584C72.4541 31.4353 68.6701 31.8843 65.3501 32.3125C65.3311 32.3158 65.3119 32.318 65.2925 32.3191Z" fill="#181E32"/>
<path d="M80.1652 31.1995C80.0477 31.2055 79.9328 31.1641 79.8454 31.0843C79.7582 31.0045 79.7058 30.8929 79.6998 30.774C79.6938 30.655 79.7347 30.5386 79.8134 30.4501C79.8921 30.3618 80.0024 30.3086 80.1198 30.3026C80.7836 30.2319 81.7232 30.2308 82.6296 30.2297C83.5149 30.2297 84.4268 30.2297 85.0477 30.1624C85.165 30.1501 85.2823 30.1855 85.3742 30.2609C85.466 30.3362 85.5247 30.4454 85.5369 30.5643C85.549 30.6833 85.5136 30.8022 85.4395 30.8951C85.3653 30.9879 85.2569 31.047 85.1395 31.0593C84.4755 31.1299 83.537 31.1311 82.6307 31.1311C81.7453 31.1311 80.8334 31.1311 80.2127 31.1995H80.1652Z" fill="#181E32"/>
<path d="M92.5466 30.9597C92.433 30.9644 92.3227 30.9244 92.2381 30.8482C92.1546 30.7722 92.1053 30.6664 92.0999 30.554C92.0956 30.4416 92.1353 30.3319 92.2124 30.2491C92.2895 30.1663 92.3966 30.117 92.5101 30.1123L94.7529 29.9216C94.8097 29.9168 94.8665 29.9231 94.92 29.94C94.9736 29.957 95.0239 29.9842 95.0667 30.0202C95.1096 30.0562 95.1449 30.1003 95.1717 30.1499C95.1974 30.1994 95.2135 30.2537 95.2178 30.3093C95.2231 30.3649 95.2167 30.4209 95.1996 30.4741C95.1824 30.5274 95.1546 30.5767 95.1182 30.6194C95.0817 30.6621 95.0368 30.6973 94.9875 30.7229C94.9371 30.7486 94.8825 30.7642 94.8258 30.769L92.583 30.9586L92.5466 30.9597Z" fill="#181E32"/>
<path d="M98.4749 30.7189C98.3575 30.7221 98.2434 30.6796 98.1581 30.6008C98.0729 30.5221 98.023 30.4135 98.0197 30.299C98.0164 30.1844 98.0607 30.0734 98.1415 29.9902C98.2213 29.907 98.3331 29.8584 98.4505 29.8553L104.832 29.5206C104.891 29.5176 104.948 29.5257 105.003 29.5446C105.058 29.5635 105.109 29.5927 105.152 29.6307C105.195 29.6686 105.231 29.7145 105.256 29.7658C105.281 29.817 105.296 29.8726 105.299 29.9292C105.301 29.9859 105.294 30.0427 105.274 30.0963C105.255 30.1498 105.225 30.1991 105.186 30.2414C105.147 30.2837 105.1 30.318 105.048 30.3425C104.995 30.3671 104.938 30.3813 104.879 30.3843L98.4981 30.72L98.4749 30.7189Z" fill="#181E32"/>
<path d="M115.268 29.36C115.15 29.3615 115.038 29.3149 114.954 29.2302C114.87 29.1455 114.823 29.0299 114.82 28.9086C114.819 28.7874 114.864 28.6705 114.946 28.5838C115.028 28.4969 115.139 28.4473 115.257 28.4458C118.515 28.3567 121.809 28.103 125.043 27.6837C125.159 27.6685 125.277 27.7017 125.37 27.7761C125.462 27.8505 125.523 27.9598 125.537 28.0802C125.551 28.2005 125.519 28.3219 125.448 28.4177C125.376 28.5135 125.27 28.5758 125.154 28.591C121.891 29.0115 118.568 29.2697 115.281 29.36H115.268Z" fill="#181E32"/>
<path d="M119.003 75.2C118.912 75.2 118.823 75.1726 118.747 75.1214C118.671 75.0701 118.614 74.9975 118.581 74.9131C117.955 73.291 116.741 69.0129 116.66 67.1851C116.658 67.1268 116.667 67.0684 116.688 67.0135C116.708 66.9585 116.738 66.908 116.779 66.8648C116.819 66.8217 116.867 66.7868 116.92 66.762C116.975 66.7372 117.033 66.7231 117.092 66.7204C117.152 66.7178 117.211 66.7267 117.267 66.7466C117.322 66.7665 117.373 66.7971 117.417 66.8366C117.461 66.8759 117.498 66.9235 117.522 66.9764C117.547 67.0295 117.562 67.0867 117.564 67.1451C117.643 68.8606 118.839 73.062 119.43 74.5941C119.452 74.6486 119.462 74.7069 119.46 74.7653C119.458 74.8236 119.445 74.8811 119.42 74.9344C119.395 74.9876 119.362 75.0357 119.318 75.0757C119.275 75.1158 119.224 75.1471 119.168 75.1677C119.116 75.1882 119.06 75.1991 119.003 75.2Z" fill="#181E32"/>
<path d="M121.98 72.64C121.881 72.6401 121.785 72.6065 121.708 72.5447C121.63 72.4829 121.575 72.3965 121.552 72.2994L120.591 68.304C120.566 68.1901 120.585 68.0705 120.646 67.9711C120.706 67.8717 120.803 67.8005 120.915 67.7727C121.027 67.745 121.146 67.763 121.245 67.8227C121.344 67.8826 121.417 67.9795 121.445 68.0925L122.408 72.089C122.435 72.2036 122.416 72.3247 122.356 72.4256C122.296 72.5263 122.198 72.5987 122.084 72.6266C122.05 72.6354 122.015 72.6399 121.98 72.64Z" fill="#181E32"/>
<path d="M125.744 72.4001C125.629 72.4001 125.519 72.3539 125.438 72.2717C125.357 72.1895 125.311 72.0779 125.311 71.9616C125.305 70.2076 125.218 68.4241 125.055 66.6668L125.049 66.6208L124.983 65.9258C124.971 65.8095 125.005 65.6933 125.078 65.6026C125.151 65.5119 125.256 65.4543 125.371 65.4423C125.485 65.4305 125.6 65.4652 125.69 65.539C125.779 65.6128 125.836 65.7196 125.848 65.8359C126.062 67.8697 126.172 69.9131 126.18 71.9583C126.18 72.0746 126.135 72.1862 126.054 72.2684C125.973 72.3506 125.863 72.3968 125.748 72.3968L125.744 72.4001Z" fill="#181E32"/>
<path d="M129.1 72.4C128.984 72.4 128.871 72.3537 128.789 72.271C128.706 72.1884 128.66 72.0763 128.66 71.9594V68.6007C128.66 68.4838 128.706 68.3718 128.789 68.2891C128.871 68.2065 128.984 68.16 129.1 68.16C129.217 68.16 129.329 68.2065 129.411 68.2891C129.494 68.3718 129.54 68.4838 129.54 68.6007V71.9594C129.54 72.0763 129.494 72.1884 129.411 72.271C129.329 72.3537 129.217 72.4 129.1 72.4Z" fill="#181E32"/>
<path d="M131.497 73.6C131.454 73.6002 131.412 73.5939 131.371 73.5811C131.316 73.5643 131.265 73.5366 131.22 73.4996C131.175 73.4627 131.139 73.4172 131.112 73.3657C131.085 73.3142 131.069 73.2578 131.063 73.1998C131.057 73.1417 131.063 73.0831 131.079 73.0273C132.134 69.483 132.762 63.7677 132.829 63.1286C132.834 63.0695 132.85 63.0119 132.877 62.9592C132.903 62.9066 132.941 62.86 132.986 62.8221C133.031 62.7842 133.082 62.7559 133.139 62.7388C133.195 62.7216 133.253 62.7162 133.311 62.7225C133.369 62.7289 133.426 62.7471 133.477 62.7759C133.527 62.8047 133.572 62.8437 133.608 62.8904C133.644 62.9372 133.67 62.9908 133.685 63.048C133.7 63.1053 133.705 63.1651 133.696 63.2238C133.627 63.8707 132.992 69.658 131.915 73.2832C131.888 73.3747 131.833 73.4549 131.758 73.5119C131.682 73.5691 131.591 73.6 131.497 73.6Z" fill="#181E32"/>
<path d="M152.477 85.9984C152.455 86.0006 152.431 86.0006 152.408 85.9984C152.35 85.9895 152.294 85.9696 152.244 85.9387C152.195 85.9089 152.15 85.8691 152.116 85.8227C152.081 85.7753 152.057 85.7223 152.044 85.6659C152.029 85.6096 152.027 85.5511 152.036 85.4936C152.29 83.89 151.619 82.1648 150.364 81.1995C150.316 81.1653 150.275 81.1211 150.244 81.0703C150.214 81.0195 150.192 80.9632 150.185 80.9035C150.176 80.845 150.179 80.7853 150.195 80.7279C150.21 80.6705 150.237 80.6175 150.274 80.57C150.31 80.5236 150.356 80.4849 150.409 80.4562C150.461 80.4264 150.519 80.4087 150.578 80.4021C150.637 80.3966 150.697 80.4021 150.755 80.4187C150.812 80.4363 150.865 80.465 150.911 80.5026C152.412 81.6579 153.218 83.7188 152.917 85.6306C152.899 85.7333 152.846 85.8272 152.766 85.8945C152.684 85.9619 152.583 85.9984 152.477 85.9984Z" fill="#181E32"/>
<path d="M152.924 94.4801H152.886C152.831 94.4747 152.777 94.4595 152.727 94.4325C152.678 94.4066 152.635 94.3709 152.599 94.3266C152.563 94.2834 152.536 94.2326 152.519 94.1786C152.502 94.1246 152.497 94.0673 152.501 94.0112L152.691 91.8352C152.696 91.779 152.712 91.7228 152.738 91.6731C152.764 91.6224 152.799 91.577 152.842 91.5413C152.885 91.5046 152.935 91.4765 152.987 91.4592C153.04 91.443 153.097 91.4365 153.153 91.4419C153.208 91.4463 153.262 91.4625 153.312 91.4895C153.361 91.5154 153.405 91.551 153.441 91.5953C153.477 91.6386 153.504 91.6894 153.52 91.7434C153.537 91.7985 153.543 91.8557 153.538 91.9119L153.345 94.0857C153.337 94.1937 153.288 94.2931 153.21 94.3666C153.132 94.439 153.03 94.4801 152.924 94.4801Z" fill="#181E32"/>
<path d="M10.0583 74.8C9.99547 74.8007 9.93324 74.7873 9.87579 74.7606C9.81844 74.7341 9.7674 74.6949 9.72602 74.6457C9.68475 74.5967 9.65424 74.5389 9.63664 74.4765C9.61894 74.414 9.61459 74.3484 9.62393 74.284C9.70865 73.7016 9.93237 72.1188 9.94975 71.7872C9.95561 71.6679 10.0071 71.5561 10.0927 71.476C10.1784 71.396 10.2912 71.3545 10.4064 71.3606C10.5217 71.3668 10.6298 71.4199 10.707 71.5086C10.7844 71.5972 10.8244 71.714 10.8186 71.8333C10.7969 72.2683 10.5156 74.194 10.4841 74.4189C10.4683 74.5244 10.4169 74.6207 10.3389 74.6905C10.2609 74.7603 10.1614 74.7991 10.0583 74.8Z" fill="#181E32"/>
<path d="M6.2202 90.32C6.17684 90.32 6.1337 90.3134 6.09221 90.3012C6.03671 90.2846 5.98508 90.257 5.94017 90.2195C5.89538 90.183 5.8583 90.1378 5.83105 90.0859C5.8038 90.0351 5.78692 89.9788 5.78129 89.9213C5.77578 89.8628 5.78173 89.8043 5.79872 89.7491C6.6505 86.9508 7.19886 84.4121 7.68323 82.1704C7.96458 80.8695 8.22938 79.6416 8.51514 78.555C8.54791 78.4455 8.62172 78.3531 8.72113 78.2969C8.82054 78.2408 8.93783 78.2255 9.04838 78.2541C9.15883 78.2826 9.25405 78.3529 9.31385 78.4502C9.37365 78.5476 9.39351 78.6643 9.36913 78.7758C9.08888 79.8514 8.82407 81.0661 8.54603 82.3581C8.05836 84.6153 7.50559 87.1728 6.64388 90.0075C6.61619 90.098 6.56003 90.1775 6.48368 90.2338C6.40744 90.2902 6.31498 90.32 6.2202 90.32Z" fill="#181E32"/>
<path d="M9.51626 104.72C9.41314 104.72 9.31296 104.686 9.23219 104.621C9.15142 104.557 9.09492 104.466 9.072 104.365C9.04897 104.264 9.06088 104.158 9.10581 104.064C9.15062 103.971 9.22584 103.895 9.31886 103.851C9.86068 103.591 10.4756 103.531 11.0569 103.681C11.1693 103.715 11.2644 103.791 11.322 103.894C11.3796 103.997 11.3955 104.118 11.3661 104.232C11.3367 104.346 11.2645 104.446 11.1645 104.508C11.0646 104.569 10.9447 104.59 10.83 104.565C10.4564 104.47 10.0618 104.511 9.71479 104.679C9.65251 104.707 9.58467 104.721 9.51626 104.72Z" fill="#181E32"/>
</g>
<defs>
<clipPath id="clip0_165_7215">
<rect width="160" height="160" fill="white" transform="translate(0.5)"/>
</clipPath>
</defs>
</svg>
