<svg width="161" height="160" viewBox="0 0 161 160" fill="none" xmlns="http://www.w3.org/2000/svg">
<path d="M128.081 76.036C123.93 60.2061 120.882 44.1074 118.957 27.8558C118.947 27.7891 118.921 27.7259 118.88 27.6725C118.838 27.619 118.785 27.577 118.723 27.5508C118.661 27.5245 118.593 27.5148 118.526 27.5226C118.459 27.5304 118.396 27.5555 118.341 27.5953C117.452 28.223 116.712 29.0383 116.173 29.9838C116.063 29.3798 115.95 28.7759 115.833 28.1718C115.812 28.0794 115.77 27.9933 115.709 27.9209C115.648 27.8484 115.571 27.7918 115.482 27.7559C115.395 27.72 115.3 27.7058 115.206 27.7145C115.112 27.7232 115.022 27.7546 114.943 27.806C112.778 29.1457 111.245 31.3009 111.407 34.746C111.48 36.3122 111.611 37.866 111.769 39.4142L109.095 31.4651C109.06 31.3687 109.005 31.2813 108.932 31.2093C108.859 31.1372 108.772 31.0825 108.675 31.0492C108.579 31.016 108.476 31.0049 108.374 31.0169C108.273 31.0289 108.176 31.0636 108.09 31.1186C106.65 32.0336 105.552 33.4413 105.661 36.8785C105.723 38.84 110.314 53.5445 110.819 54.5456C111.838 56.566 114.682 53.9137 116.389 53.3927C116.426 54.5184 116.495 55.6453 116.58 56.7664L111.714 57.8876C111.751 57.8876 112.609 63.361 112.69 63.8616C113.274 67.4335 113.857 71.0051 114.441 74.5762C114.536 75.1561 114.482 76.3452 114.949 76.7733C115.376 77.1629 116.235 76.8866 116.731 76.822L119.264 76.4743C119.38 76.9372 119.496 77.3999 119.611 77.8628L120.743 77.5298C121.118 78.9613 121.456 80.1345 121.723 80.8876C121.61 81.1628 121.487 81.4448 121.367 81.7313L113.028 84.5037C109.302 92.5501 105.579 100.599 101.862 108.65C101.204 103.159 100.65 97.8367 100.145 93.6679L92.1097 95.0269C91.6445 98.9137 90.0498 115.823 88.6079 126.271C88.4947 127.119 88.3816 128.024 88.7664 128.79C89.2904 129.838 90.5512 130.293 91.709 130.594L91.7804 130.611C91.554 131.281 91.451 131.97 91.6672 132.625C92.0995 133.958 93.6263 134.584 94.9879 135.035C98.1931 136.098 107.583 138.636 116.69 140.139C120.312 140.737 121.859 138.531 122.151 137.289C123.133 133.098 126.087 110.275 126.381 106.298L127.26 94.3655C127.314 93.6294 127.369 92.8944 127.423 92.1606C127.615 90.4697 128.352 85.1481 128.727 82.2466C128.755 82.0586 128.778 81.8751 128.797 81.6928C128.84 81.353 128.875 81.0677 128.9 80.8434C128.898 80.7891 128.882 80.7358 128.854 80.6894C128.875 78.9579 128.463 77.4981 128.081 76.036ZM116.381 53.1118C116.357 53.0428 116.335 52.9737 116.311 52.9057H116.374L116.381 53.1118Z" fill="#1B5EC9"/>
<path d="M24.7762 118.303L35.1622 108.975C36.809 107.495 38.5159 105.931 39.2815 103.853C40.1264 101.562 39.6915 99.0124 39.1048 96.6422C37.9675 92.0489 36.3004 87.6018 34.1372 83.3924C33.3772 81.9145 32.5459 80.4378 32.2322 78.8062C31.9003 77.0769 32.1733 75.2955 32.4462 73.5549C34.1519 62.6833 35.8581 51.8117 37.5645 40.9401C37.791 39.4679 39.4242 37.7285 40.6599 38.5552C42.1017 31.825 45.1563 31.0991 46.3988 32.3402C46.3988 30.5351 47.1214 28.3211 49.962 28.32C51.9531 28.32 53.3451 30.2327 53.3904 32.3187C54.7382 31.0153 57.1812 31.8487 58.1541 33.4512C59.127 35.0536 59.0602 37.0547 58.9628 38.9277L57.675 63.5565C58.2311 61.3436 59.5381 58.5872 61.7977 58.9066C63.5306 59.1512 65.3088 60.7899 65.7539 62.484C68.1697 71.7566 65.0494 75.3465 68.5457 87.8339C70.2514 93.9288 72.3139 99.9512 73.2619 106.214C74.2099 112.476 73.4261 119.439 69.1438 124.1C65.9215 127.61 61.245 129.292 56.9275 131.301C48.2635 135.339 40.496 141.072 34.0828 148.16C30.5151 137.022 26.9479 125.885 23.3809 114.747L24.7762 118.303Z" fill="#FACBDF"/>
<path d="M56.3062 85.36C56.2796 85.36 56.253 85.3577 56.2269 85.3521C56.1105 85.3306 56.0071 85.264 55.9394 85.1658C55.8719 85.0676 55.8455 84.9468 55.8663 84.8283C55.8663 84.8035 56.2984 82.3451 56.4692 76.7828C56.6154 71.9754 56.8298 68.0079 57.1245 64.6532C57.135 64.5334 57.1921 64.4228 57.2834 64.3456C57.3746 64.2685 57.4922 64.2312 57.6107 64.2418C57.7291 64.2524 57.8385 64.3102 57.9149 64.4024C57.9912 64.4945 58.0281 64.6136 58.0176 64.7333C57.7251 68.0699 57.5119 72.0206 57.3645 76.811C57.1926 82.4546 56.7661 84.8882 56.7483 84.9886C56.7296 85.0936 56.675 85.1884 56.5942 85.2561C56.5134 85.3238 56.4113 85.3611 56.3062 85.36Z" fill="#1B5EC9"/>
<path d="M47.4064 76.8C47.2892 76.8001 47.1765 76.7543 47.0924 76.6725C47.0081 76.5906 46.9589 76.4789 46.9551 76.3613L46.7136 68.5132C46.664 66.8978 46.6121 65.2257 46.7418 63.5751C46.9201 61.3079 47.4425 59.0576 47.9468 56.8867C48.0235 56.558 48.1002 56.2303 48.1724 55.9016C49.3723 50.6561 50.2849 45.3484 50.9061 40.0025C51.4172 35.5904 51.7997 33.4173 52.5883 32.9978C52.6919 32.9525 52.8085 32.9477 52.9153 32.9846C53.022 33.0214 53.1113 33.097 53.1652 33.1967C53.2193 33.2963 53.234 33.4126 53.2068 33.5228C53.1797 33.6329 53.1123 33.7287 53.0182 33.7914C52.9618 33.8401 52.7012 34.1507 52.3762 35.9316C52.1506 37.1696 51.961 38.734 51.8031 40.1034C51.178 45.4826 50.2599 50.8231 49.0524 56.1011C48.9773 56.4315 48.9021 56.7609 48.8268 57.0896C48.3304 59.2277 47.8114 61.4394 47.6433 63.6431C47.5169 65.2461 47.5677 66.891 47.6162 68.4826L47.8576 76.3295C47.8614 76.4497 47.8174 76.5662 47.7356 76.6539C47.6537 76.7414 47.5406 76.7927 47.421 76.7966L47.4064 76.8Z" fill="#1B5EC9"/>
<path d="M41.2734 75.84H41.2417C41.1218 75.8316 41.0103 75.7758 40.9314 75.6849C40.8526 75.5942 40.813 75.4756 40.8214 75.3556C41.202 69.8907 41.0559 66.232 40.9347 63.2926C40.8124 60.2295 40.724 58.0206 41.321 55.5304C42.5818 50.2857 45.0378 38.0434 45.9191 32.2257C45.9371 32.1067 46.0017 31.9998 46.0984 31.9284C46.1952 31.857 46.3163 31.8271 46.4351 31.8451C46.554 31.8632 46.6608 31.9277 46.732 32.0247C46.8033 32.1216 46.8332 32.2429 46.8152 32.3619C45.9282 38.1977 43.4666 50.4785 42.2057 55.7403C41.6393 58.108 41.7243 60.2658 41.8444 63.254C41.9576 66.2161 42.1106 69.9021 41.7254 75.4157C41.7179 75.5306 41.6671 75.6385 41.5831 75.7173C41.4992 75.7961 41.3885 75.84 41.2734 75.84Z" fill="#1B5EC9"/>
<path d="M36.2336 75.04H36.1837C36.1243 75.0334 36.0669 75.0153 36.0146 74.9867C35.9623 74.9582 35.9162 74.9195 35.879 74.8732C35.8416 74.8267 35.8138 74.7735 35.7973 74.7164C35.7806 74.6592 35.7755 74.5995 35.7821 74.5405C36.0646 72.0033 36.178 69.2153 36.2869 66.5165C36.4639 62.1497 36.6272 58.0258 37.452 54.7281C38.0646 52.2712 38.6998 48.3225 39.3113 44.5049C39.6369 42.4707 39.9454 40.5495 40.2381 38.9323C40.2488 38.8737 40.2708 38.8179 40.303 38.768C40.3352 38.7179 40.3771 38.6747 40.426 38.6408C40.475 38.607 40.5302 38.5831 40.5885 38.5704C40.6467 38.5577 40.707 38.5566 40.7656 38.5671C40.8244 38.5777 40.8804 38.5997 40.9306 38.6318C40.9807 38.6639 41.024 38.7056 41.0581 38.7544C41.0921 38.8031 41.1162 38.8581 41.1289 38.9162C41.1416 38.9742 41.1427 39.0342 41.132 39.0926C40.8405 40.7031 40.5331 42.6188 40.2075 44.6473C39.5915 48.4898 38.9596 52.452 38.3334 54.9462C37.5393 58.1547 37.368 62.2333 37.199 66.5527C37.0855 69.265 36.9721 72.0676 36.6896 74.6364C36.6776 74.7482 36.6242 74.8514 36.5399 74.9259C36.4555 75.0005 36.3463 75.0411 36.2336 75.04Z" fill="#1B5EC9"/>
<path d="M52.8676 40.48C52.7489 40.48 52.635 40.4327 52.5511 40.3484C52.4672 40.2641 52.4199 40.1497 52.4199 40.0305C52.4199 39.9113 52.4672 39.7969 52.5511 39.7127C52.635 39.6284 52.7489 39.5809 52.8676 39.5809C56.0476 39.5809 56.0845 35.3722 56.0845 35.3295C56.0845 35.2104 56.1317 35.096 56.2157 35.0117C56.2996 34.9274 56.4134 34.88 56.5322 34.88C56.651 34.88 56.7649 34.9274 56.8489 35.0117C56.9328 35.096 56.9799 35.2104 56.9799 35.3295C56.9799 37.1108 56.1203 40.48 52.8676 40.48Z" fill="white"/>
<path d="M47.2502 36.96C47.1996 36.96 47.1491 36.96 47.0974 36.96C47.0384 36.9584 46.9803 36.945 46.9264 36.9207C46.8725 36.8963 46.8238 36.8614 46.7832 36.8181C46.7427 36.7747 46.7109 36.7236 46.6899 36.6678C46.6687 36.6121 46.6587 36.5526 46.6603 36.493C46.662 36.4333 46.6753 36.3746 46.6993 36.32C46.7234 36.2655 46.7578 36.2163 46.8008 36.1753C46.8436 36.1342 46.894 36.1021 46.9492 36.0808C47.0044 36.0595 47.0631 36.0494 47.1221 36.0509C48.5176 36.0896 50.1682 35.6044 50.5592 31.4534C50.5649 31.3937 50.582 31.3358 50.6098 31.2827C50.6376 31.2298 50.6754 31.1828 50.7212 31.1447C50.7668 31.1065 50.8195 31.0777 50.8762 31.0601C50.9328 31.0425 50.9924 31.0364 51.0514 31.0421C51.1105 31.0477 51.1678 31.0651 51.2201 31.0932C51.2725 31.1213 51.3189 31.1595 51.3567 31.2057C51.3945 31.2519 51.4228 31.3052 51.4403 31.3625C51.4577 31.4199 51.4637 31.4801 51.4581 31.5398C51.1109 35.1851 49.7323 36.96 47.2502 36.96Z" fill="white"/>
<path d="M42.3332 40.32C42.2626 40.32 42.1921 40.32 42.1227 40.312C42.0629 40.3077 42.0045 40.2916 41.951 40.2647C41.8974 40.2378 41.8496 40.2005 41.8105 40.1552C41.7313 40.0634 41.6917 39.9439 41.7004 39.823C41.7047 39.7632 41.7209 39.7047 41.7478 39.6511C41.7746 39.5974 41.8118 39.5495 41.8571 39.5103C41.9024 39.471 41.9551 39.4411 42.012 39.4222C42.0688 39.4033 42.1289 39.3958 42.1887 39.4001C42.5039 39.4229 42.801 39.4445 43.2756 38.7788C43.8355 37.9957 43.8833 36.2095 43.9015 35.5369C43.9015 35.4515 43.9015 35.3774 43.9084 35.3181C43.9108 35.2582 43.925 35.1994 43.95 35.145C43.9751 35.0906 44.0107 35.0417 44.0546 35.0011C44.0985 34.9604 44.1501 34.9288 44.2062 34.9081C44.2624 34.8874 44.3221 34.878 44.3818 34.8804C44.4417 34.8828 44.5004 34.8969 44.5547 34.9221C44.609 34.9472 44.6578 34.9828 44.6984 35.0268C44.739 35.0708 44.7705 35.1225 44.7912 35.1787C44.8119 35.235 44.8212 35.2947 44.8189 35.3546C44.8189 35.4116 44.8189 35.4811 44.812 35.562C44.7881 36.45 44.738 38.2978 44.0153 39.3089C43.419 40.1467 42.8567 40.32 42.3332 40.32Z" fill="white"/>
<path d="M37.3782 44.64C37.2515 44.64 37.13 44.5927 37.0404 44.5086C36.9508 44.4246 36.9004 44.3106 36.9004 44.1916C36.9004 44.0727 36.9508 43.9587 37.0404 43.8745C37.13 43.7904 37.2515 43.7432 37.3782 43.7432C37.4774 43.7432 37.5502 43.6738 37.7366 43.4518C37.8486 43.3068 37.9785 43.1747 38.1236 43.0584C38.2227 42.984 38.349 42.9496 38.4751 42.9627C38.6011 42.976 38.7164 43.0355 38.7956 43.1284C38.8748 43.2213 38.9115 43.3399 38.8975 43.4582C38.8835 43.5765 38.82 43.6846 38.7209 43.7589C38.635 43.8325 38.5577 43.9143 38.4904 44.0033C38.2777 44.2566 37.9648 44.64 37.3782 44.64Z" fill="white"/>
<path d="M59.2267 70.079C59.1061 70.0871 58.9873 70.0474 58.8962 69.9688C58.8051 69.8903 58.7494 69.7792 58.7413 69.66C58.7332 69.5409 58.7732 69.4234 58.8528 69.3334C58.9322 69.2436 59.0448 69.1885 59.1653 69.1804C60.2248 69.0367 61.0161 68.1382 61.4026 67.3452C61.8778 66.3692 62.0153 65.2438 62.1472 64.1566C62.1623 64.0374 62.2247 63.9291 62.3207 63.8554C62.3681 63.8189 62.4224 63.7919 62.4805 63.7762C62.5385 63.7605 62.5991 63.7561 62.6588 63.7635C62.7186 63.7709 62.7762 63.7898 62.8285 63.8192C62.8808 63.8485 62.9267 63.8878 62.9637 63.9348C63.0006 63.9817 63.0279 64.0354 63.0438 64.0927C63.0598 64.1501 63.0642 64.21 63.0567 64.2689C62.9214 65.3763 62.7679 66.6275 62.2268 67.7406C61.5936 69.0401 60.4977 69.9127 59.2949 70.0767C59.2723 70.0787 59.2495 70.0795 59.2267 70.079Z" fill="white"/>
<path d="M26.7599 110.423C25.6104 110.784 24.7077 111.672 23.8095 112.486C20.9539 115.076 17.6943 117.185 14.1586 118.731C13.5663 118.99 12.9275 119.264 12.5854 119.821C11.9206 120.905 12.7361 122.27 13.4836 123.297C20.0459 132.301 23.4505 143.209 27.7748 153.523C28.0149 154.096 28.2878 154.703 28.81 155.025C29.4023 155.391 30.1555 155.294 30.8351 155.157C35.9612 154.112 40.6696 151.597 44.3821 147.921C45.5668 146.747 46.704 145.311 46.7391 143.629C46.7674 142.219 46.0131 140.931 45.2973 139.724C42.5903 135.166 40.0609 130.504 37.7088 125.738C36.5706 123.428 35.2262 121.057 34.4039 118.608C34.1423 117.829 34.1139 117.049 34.0041 116.244C33.8738 115.282 33.4627 114.428 32.9508 113.616C31.6653 111.571 29.3004 109.626 26.7599 110.423Z" fill="#FF5400"/>
<path d="M13.4344 123.76C13.3345 123.76 13.2374 123.727 13.1581 123.666C13.0789 123.605 13.0219 123.52 12.996 123.424C12.9701 123.327 12.9768 123.225 13.0149 123.132C13.0531 123.04 13.1206 122.962 13.207 122.912C19.6005 119.189 25.6165 114.854 31.1706 109.966C31.2149 109.924 31.2673 109.891 31.3248 109.869C31.3822 109.847 31.4433 109.838 31.5047 109.84C31.566 109.843 31.6263 109.857 31.6816 109.885C31.737 109.911 31.7865 109.948 31.8271 109.994C31.8677 110.04 31.8985 110.094 31.9177 110.152C31.9368 110.211 31.944 110.272 31.9388 110.333C31.9335 110.395 31.916 110.454 31.8871 110.508C31.8582 110.562 31.8188 110.61 31.7709 110.648C26.1716 115.574 20.1067 119.944 13.6618 123.697C13.5927 123.737 13.5143 123.759 13.4344 123.76Z" fill="black"/>
<path d="M18.2327 126.48C18.136 126.48 18.0418 126.449 17.9639 126.391C17.8861 126.334 17.8286 126.252 17.7998 126.159C17.7711 126.067 17.7726 125.966 17.8041 125.875C17.8357 125.782 17.8955 125.704 17.975 125.648C23.3744 121.916 28.9441 118.29 34.5285 114.867C34.6313 114.804 34.7548 114.784 34.8719 114.813C34.989 114.841 35.09 114.916 35.1527 115.018C35.2155 115.122 35.2349 115.247 35.2065 115.364C35.1783 115.482 35.1046 115.584 35.0018 115.646C29.4299 119.062 23.8784 122.679 18.4892 126.4C18.4138 126.453 18.3244 126.481 18.2327 126.48Z" fill="black"/>
<path d="M18.2334 133.2C18.1318 133.2 18.0329 133.167 17.9529 133.104C17.8728 133.042 17.8161 132.954 17.7922 132.856C17.7681 132.756 17.778 132.652 17.8203 132.561C17.8626 132.468 17.9349 132.393 18.0253 132.346C24.365 129.072 30.6437 125.484 36.6848 121.67C36.7863 121.605 36.909 121.585 37.026 121.611C37.1431 121.637 37.2449 121.708 37.3091 121.81C37.3733 121.911 37.3946 122.033 37.3683 122.151C37.342 122.267 37.2703 122.369 37.1688 122.433C31.1039 126.261 24.8027 129.867 18.4392 133.149C18.3757 133.182 18.3051 133.2 18.2334 133.2Z" fill="black"/>
<path d="M20.2325 138.08C20.1281 138.08 20.0268 138.045 19.9458 137.978C19.8647 137.913 19.8091 137.821 19.7883 137.719C19.7675 137.616 19.7829 137.51 19.8319 137.418C19.8807 137.325 19.9601 137.253 20.0565 137.213C26.0896 134.667 31.842 131.501 37.2211 127.767C37.2697 127.732 37.3249 127.707 37.3836 127.693C37.4421 127.678 37.503 127.676 37.5624 127.686C37.6218 127.696 37.6787 127.718 37.7296 127.751C37.7805 127.782 37.8244 127.825 37.8587 127.875C37.893 127.924 37.9172 127.979 37.9296 128.038C37.942 128.098 37.9426 128.158 37.931 128.217C37.9195 128.276 37.8964 128.333 37.8629 128.382C37.8294 128.433 37.7861 128.476 37.7357 128.508C32.3052 132.278 26.4981 135.473 20.4075 138.044C20.3524 138.068 20.2928 138.08 20.2325 138.08Z" fill="black"/>
<path d="M25.7502 142.88C25.6499 142.88 25.5526 142.846 25.4736 142.784C25.3946 142.722 25.3385 142.637 25.3142 142.539C25.2899 142.441 25.2988 142.338 25.3395 142.247C25.3803 142.154 25.4504 142.079 25.5389 142.032C31.047 139.102 36.518 135.938 41.8125 132.628C41.8626 132.597 41.9184 132.575 41.9767 132.566C42.035 132.556 42.0947 132.558 42.1522 132.572C42.2098 132.584 42.2642 132.609 42.3123 132.644C42.3603 132.678 42.4012 132.722 42.4325 132.772C42.4638 132.822 42.485 132.878 42.4946 132.937C42.5044 132.994 42.5025 133.055 42.4892 133.113C42.476 133.17 42.4515 133.224 42.4171 133.273C42.3828 133.321 42.3393 133.362 42.2891 133.393C36.9766 136.714 31.4831 139.889 25.9604 142.828C25.8957 142.862 25.8235 142.88 25.7502 142.88Z" fill="black"/>
<path d="M27.3511 149.2C27.2497 149.2 27.1512 149.166 27.0717 149.102C26.9921 149.039 26.9361 148.95 26.9126 148.852C26.8892 148.752 26.8996 148.648 26.9424 148.556C26.985 148.463 27.0576 148.388 27.148 148.341C33.465 145.135 39.6121 141.6 45.5648 137.752C45.6655 137.687 45.7878 137.665 45.9047 137.691C46.0217 137.716 46.1238 137.787 46.1885 137.888C46.2534 137.989 46.2755 138.113 46.2501 138.23C46.2247 138.347 46.1539 138.451 46.0532 138.515C40.0741 142.381 33.8995 145.931 27.5541 149.151C27.4912 149.183 27.4217 149.2 27.3511 149.2Z" fill="black"/>
<path d="M31.6748 152C31.5674 152 31.4632 151.963 31.3811 151.892C31.299 151.823 31.2443 151.727 31.2268 151.621C31.2092 151.515 31.23 151.407 31.2853 151.314C31.3406 151.222 31.427 151.152 31.5287 151.118C36.8936 149.307 41.9418 146.669 46.4898 143.296C46.5375 143.258 46.5919 143.231 46.6502 143.216C46.7084 143.2 46.7692 143.196 46.829 143.204C46.8888 143.213 46.9463 143.232 46.9981 143.263C47.0501 143.294 47.0954 143.335 47.1313 143.383C47.1673 143.431 47.1932 143.487 47.2076 143.545C47.222 143.604 47.2246 143.665 47.2151 143.725C47.2057 143.784 47.1844 143.841 47.1526 143.892C47.1208 143.943 47.0791 143.987 47.0299 144.023C42.4078 147.451 37.2775 150.135 31.8254 151.976C31.7768 151.992 31.726 152 31.6748 152Z" fill="black"/>
<path d="M120.066 156C118.851 156 117.915 155.066 117.412 154.573L117.277 154.44C116.474 153.659 115.805 152.99 115.168 152.344C113.184 150.345 111.618 148.767 107.796 145.81C107.751 145.776 107.654 145.713 107.551 145.647C106.823 145.177 105.31 144.199 105.091 142.617C104.864 140.722 105.956 139.239 107.168 137.92C107.913 137.108 108.709 136.33 109.478 135.576C110.45 134.626 111.453 133.646 112.346 132.603C113.109 131.714 113.86 130.786 114.586 129.888C115.021 129.35 115.47 128.794 115.92 128.25C117.12 126.797 119.398 124.324 121.168 124.099C122.959 123.872 125.028 125.706 127.892 128.245C129.84 129.972 132.048 131.931 134.611 133.61L134.624 133.619C135.911 134.527 136.597 135.493 136.721 136.571C136.865 137.82 136.227 139.228 134.772 140.864C134.132 141.584 133.276 142.644 132.287 143.871C129.569 147.236 125.852 151.846 122.031 155.164C121.322 155.775 120.66 156 120.066 156ZM121.466 124.988C121.403 124.988 121.342 124.993 121.282 124.999C120.231 125.133 118.488 126.565 116.617 128.829C116.171 129.369 115.723 129.923 115.289 130.46C114.559 131.369 113.805 132.296 113.032 133.195C112.114 134.265 111.096 135.262 110.111 136.226C109.35 136.97 108.563 137.741 107.834 138.535C106.769 139.695 105.807 140.978 105.988 142.5C106.15 143.661 107.428 144.486 108.041 144.884C108.171 144.968 108.273 145.035 108.348 145.092C112.218 148.084 113.803 149.682 115.811 151.704C116.45 152.348 117.111 153.014 117.908 153.789L118.049 153.929C119.038 154.909 120.041 155.689 121.437 154.475C125.198 151.21 128.888 146.641 131.582 143.298C132.58 142.061 133.442 140.994 134.096 140.257C135.369 138.824 135.933 137.652 135.821 136.672C135.729 135.877 135.169 135.118 134.109 134.367C131.493 132.653 129.261 130.674 127.292 128.927C124.914 126.819 122.85 124.988 121.463 124.988H121.466Z" fill="black"/>
<path d="M120.324 160C119.747 160 119.313 159.73 119.039 159.56C118.964 159.51 118.886 159.466 118.804 159.428C118.691 159.402 118.476 159.347 115.927 156.911C115.163 156.18 113.348 154.427 113.031 153.932C111.535 151.611 112.577 150.624 115.103 148.238C117.111 146.34 120.145 143.477 124.17 138.128C128.501 132.377 131.064 129.957 133.016 129.773C133.313 129.739 133.613 129.771 133.898 129.864C134.181 129.958 134.442 130.112 134.661 130.316C136.06 131.586 137.528 132.776 139.059 133.882C140.916 135.254 141.848 135.943 141.449 137.606C140.882 139.986 138.915 141.888 135.942 144.775C134.569 146.108 133.015 147.618 131.267 149.487C130.596 150.206 129.751 151.212 128.855 152.28C126.437 155.161 123.427 158.747 121.23 159.784C120.948 159.923 120.638 159.997 120.324 160ZM119.077 158.564C119.231 158.622 119.377 158.698 119.514 158.791C119.89 159.024 120.245 159.244 120.84 158.964C122.857 158.013 125.795 154.512 128.156 151.697C129.063 150.622 129.913 149.605 130.6 148.869C132.364 146.983 133.926 145.469 135.305 144.125C138.165 141.348 140.055 139.514 140.563 137.395C140.814 136.352 140.42 136.019 138.522 134.613C136.966 133.488 135.473 132.276 134.051 130.986C133.925 130.867 133.775 130.778 133.611 130.723C133.447 130.669 133.273 130.653 133.102 130.674C131.02 130.87 127.622 135.052 124.896 138.672C120.824 144.077 117.758 146.976 115.728 148.895C113.136 151.346 112.736 151.798 113.794 153.441C114.183 154.046 118.461 158.116 119.08 158.57L119.077 158.564Z" fill="black"/>
<path d="M30.2852 30.24C30.1959 30.2401 30.1084 30.2142 30.0338 30.1653C26.2797 27.6835 24.5199 25.958 22.6576 24.1318C21.0536 22.5581 19.3938 20.93 16.2928 18.6633C16.2433 18.6287 16.2013 18.5845 16.1691 18.5335C16.137 18.4825 16.1154 18.4256 16.1056 18.3661C16.0958 18.3067 16.098 18.246 16.1121 18.1874C16.1262 18.1288 16.1519 18.0737 16.1876 18.0251C16.2235 17.9765 16.2686 17.9356 16.3205 17.9045C16.3724 17.8736 16.4299 17.8532 16.4899 17.8446C16.5497 17.836 16.6107 17.8394 16.6693 17.8546C16.7279 17.8698 16.7828 17.8965 16.8308 17.9331C19.9854 20.2393 21.669 21.8901 23.2969 23.4876C25.1262 25.2821 26.8542 26.977 30.5366 29.4101C30.6179 29.4639 30.6796 29.5423 30.7127 29.6337C30.7458 29.7252 30.7484 29.8248 30.7202 29.9178C30.692 30.0108 30.6346 30.0924 30.5562 30.1504C30.4779 30.2084 30.3829 30.2398 30.2852 30.24Z" fill="#1B5EC9"/>
<path d="M24.3678 35.6C24.3241 35.6001 24.2805 35.594 24.2384 35.5819C22.4752 35.0626 20.8169 34.2386 19.3389 33.1476C19.2885 33.1133 19.2455 33.0691 19.2125 33.0178C19.1796 32.9664 19.1572 32.909 19.147 32.849C19.1368 32.7888 19.1388 32.7273 19.153 32.6681C19.1672 32.6087 19.1932 32.5529 19.2295 32.5039C19.2657 32.4549 19.3116 32.4137 19.3642 32.3827C19.4168 32.3518 19.4751 32.3318 19.5357 32.3238C19.5962 32.3159 19.6578 32.3203 19.7166 32.3366C19.7754 32.3531 19.8304 32.3812 19.878 32.4192C21.2706 33.4467 22.8328 34.2227 24.4938 34.7119C24.5988 34.7425 24.6892 34.8098 24.7484 34.9017C24.8076 34.9934 24.8316 35.1034 24.816 35.2115C24.8004 35.3195 24.7463 35.4183 24.6635 35.4897C24.5807 35.5611 24.4749 35.6002 24.3655 35.6H24.3678Z" fill="#1B5EC9"/>
<path d="M19.4509 56.7144C19.4286 56.7155 19.4062 56.7155 19.3838 56.7144L6.5854 54.8845C6.52463 54.8781 6.4658 54.8597 6.41243 54.8307C6.35906 54.8015 6.31218 54.7621 6.27474 54.715C6.23741 54.6677 6.21011 54.6137 6.19463 54.5561C6.17904 54.4984 6.17562 54.4383 6.1845 54.3793C6.19338 54.3203 6.21443 54.2636 6.24629 54.2127C6.27815 54.1618 6.32014 54.1177 6.36987 54.083C6.4196 54.0482 6.47604 54.0236 6.53578 54.0106C6.59552 53.9977 6.65731 53.9966 6.7174 54.0073L19.5158 55.8317C19.6365 55.8401 19.7489 55.8949 19.8281 55.984C19.9075 56.0731 19.9472 56.1893 19.9385 56.3069C19.93 56.4245 19.8738 56.5341 19.7823 56.6113C19.6909 56.6886 19.5716 56.7273 19.4509 56.7189V56.7144Z" fill="#1B5EC9"/>
<path d="M14.4676 74.32C14.3637 74.3198 14.2631 74.2833 14.1829 74.2168C14.1027 74.1503 14.0479 74.058 14.0279 73.9554C14.0079 73.8529 14.0239 73.7466 14.0732 73.6546C14.1224 73.5626 14.2019 73.4905 14.298 73.4508L19.306 71.3998C19.3612 71.3749 19.4207 71.3613 19.4811 71.3601C19.5415 71.3589 19.6016 71.3699 19.6577 71.3926C19.7137 71.4152 19.7647 71.4489 19.8075 71.4918C19.8503 71.5347 19.8841 71.5859 19.9067 71.6422C19.9293 71.6984 19.9406 71.7588 19.9395 71.8195C19.9384 71.8803 19.9252 71.9401 19.9006 71.9955C19.876 72.051 19.8404 72.1009 19.7961 72.1423C19.7519 72.1837 19.6998 72.2156 19.643 72.2362L14.635 74.2839C14.5821 74.3067 14.5252 74.3189 14.4676 74.32Z" fill="#1B5EC9"/>
<path d="M57.5702 18.72C57.485 18.7202 57.4013 18.6964 57.3291 18.6512C57.2568 18.6061 57.1987 18.5415 57.1616 18.4649C55.1095 14.203 51.7285 7.38752 50.9204 6.2326C50.8233 6.20765 50.7372 6.15109 50.6758 6.07206C50.6143 5.99304 50.5809 5.89583 50.5808 5.79569C50.5746 5.68133 50.6086 5.56844 50.6773 5.47654C50.7461 5.38475 50.8449 5.31984 50.9566 5.29331C51.3494 5.20412 51.5791 5.57668 51.8451 6.00794C52.0455 6.33421 52.3171 6.81514 52.6533 7.43833C53.2124 8.4781 53.9606 9.93332 54.8774 11.7634C56.4349 14.8759 57.9596 18.0415 57.9754 18.0731C58.0012 18.1266 58.0162 18.1848 58.0194 18.244C58.0226 18.3033 58.0141 18.3626 57.9944 18.4186C57.9746 18.4746 57.9439 18.5262 57.9042 18.5703C57.8645 18.6144 57.8164 18.6503 57.7626 18.676C57.7027 18.705 57.6369 18.7201 57.5702 18.72Z" fill="#1B5EC9"/>
<path d="M77.1513 15.76C77.0342 15.7605 76.9211 15.718 76.8347 15.6411C76.7482 15.5643 76.6947 15.4587 76.6846 15.3452L76.1013 8.81408C76.0907 8.69384 76.1297 8.57439 76.2096 8.48214C76.2895 8.38978 76.4039 8.3321 76.5277 8.32167C76.6515 8.31136 76.7745 8.3491 76.8696 8.42684C76.9646 8.50447 77.024 8.61564 77.0346 8.73589L77.618 15.2682C77.6283 15.3877 77.5895 15.5065 77.5098 15.5983C77.4302 15.69 77.3164 15.7474 77.1933 15.7577L77.1513 15.76Z" fill="#1B5EC9"/>
<path d="M96.2328 17.6C96.1678 17.6007 96.1039 17.5872 96.0445 17.5605C95.9851 17.5338 95.9325 17.4944 95.8899 17.4452C95.8473 17.396 95.8159 17.338 95.798 17.2753C95.7789 17.2125 95.7744 17.1466 95.7845 17.0819C95.9986 15.652 97.4499 9.06815 98.5145 4.26716C98.8686 2.65853 99.1757 1.26937 99.373 0.356457C99.3976 0.239147 99.4682 0.136768 99.568 0.0719482C99.6677 0.00701492 99.7898 -0.0151555 99.9064 0.0102975C100.022 0.0358635 100.124 0.106907 100.188 0.207926C100.253 0.308833 100.274 0.43146 100.249 0.54877C100.051 1.46394 99.7439 2.85424 99.3886 4.46286C98.3318 9.2548 96.8839 15.8171 96.6788 17.2142C96.662 17.322 96.6082 17.4203 96.5264 17.4912C96.4446 17.562 96.3404 17.6007 96.2328 17.6Z" fill="#1B5EC9"/>
<path d="M123.193 19.04C123.133 19.0399 123.073 19.028 123.018 19.0049C122.907 18.9583 122.819 18.8698 122.774 18.7586C122.728 18.6476 122.729 18.523 122.776 18.4122C123.771 16.0295 125.099 13.7997 126.719 11.7891C126.754 11.739 126.801 11.6969 126.853 11.6651C126.906 11.6332 126.964 11.6126 127.025 11.6042C127.086 11.5958 127.149 11.6 127.208 11.6164C127.268 11.6329 127.323 11.6612 127.371 11.6997C127.418 11.7384 127.458 11.7863 127.487 11.8407C127.516 11.8951 127.534 11.9547 127.538 12.0161C127.544 12.0775 127.536 12.1393 127.517 12.1976C127.497 12.256 127.466 12.3098 127.425 12.3557C125.858 14.3 124.574 16.4562 123.612 18.7601C123.577 18.8429 123.519 18.9139 123.444 18.9636C123.37 19.0135 123.282 19.04 123.193 19.04Z" fill="#1B5EC9"/>
<path d="M126.319 26.24C126.23 26.241 126.143 26.2163 126.068 26.1685C125.993 26.1209 125.935 26.0525 125.899 25.9718C125.863 25.891 125.851 25.8014 125.865 25.7141C125.879 25.6266 125.919 25.5453 125.979 25.4801L137.946 12.3947C137.986 12.3492 138.033 12.3122 138.088 12.2858C138.142 12.2593 138.201 12.244 138.261 12.2407C138.322 12.2374 138.382 12.2461 138.439 12.2664C138.495 12.2867 138.548 12.3182 138.592 12.359C138.637 12.3998 138.672 12.449 138.698 12.5039C138.723 12.5588 138.737 12.6181 138.739 12.6784C138.741 12.7389 138.731 12.799 138.71 12.8555C138.688 12.9118 138.655 12.9634 138.614 13.0071L126.653 26.0925C126.61 26.1389 126.558 26.176 126.501 26.2014C126.443 26.2268 126.381 26.24 126.319 26.24Z" fill="#1B5EC9"/>
<path d="M139.536 39.8395C139.476 39.8423 139.416 39.8335 139.36 39.8139C139.305 39.7942 139.253 39.7641 139.209 39.725C139.12 39.646 139.067 39.5359 139.061 39.4188C139.054 39.3016 139.098 39.1871 139.178 39.1003C139.26 39.0135 139.372 38.9616 139.493 38.9561L147.922 38.162C148.042 38.1508 148.161 38.1864 148.255 38.2613C148.348 38.3362 148.407 38.4441 148.419 38.5613C148.43 38.6784 148.394 38.7953 148.316 38.886C148.239 38.9769 148.129 39.0342 148.009 39.0455L139.58 39.8384L139.536 39.8395Z" fill="#1B5EC9"/>
<path d="M154.339 61.5957C154.32 61.5969 154.302 61.5969 154.284 61.5957L139.776 59.785C139.716 59.7775 139.66 59.7584 139.608 59.7289C139.557 59.6994 139.512 59.66 139.475 59.6128C139.439 59.5657 139.413 59.5118 139.397 59.4543C139.381 59.3967 139.377 59.3367 139.385 59.2775C139.391 59.2184 139.411 59.1612 139.44 59.1094C139.469 59.0575 139.509 59.012 139.555 58.9754C139.602 58.9389 139.655 58.912 139.713 58.8962C139.769 58.8804 139.829 58.8761 139.889 58.8836L154.397 60.6909C154.516 60.6983 154.628 60.7533 154.707 60.8436C154.787 60.934 154.828 61.0524 154.82 61.1729C154.813 61.2933 154.758 61.4058 154.669 61.4859C154.579 61.5658 154.461 61.6065 154.342 61.5991L154.339 61.5957Z" fill="#1B5EC9"/>
<path d="M144.852 71.68C144.801 71.68 144.752 71.6717 144.706 71.6552C143.145 71.1152 140.456 70.2618 139.848 70.2618H139.833C139.713 70.2625 139.599 70.2157 139.515 70.1318C139.429 70.0477 139.382 69.9333 139.381 69.8137C139.38 69.6941 139.427 69.5791 139.51 69.494C139.594 69.4089 139.708 69.3607 139.828 69.36H139.841C140.805 69.36 144.57 70.6542 144.999 70.803C145.099 70.8378 145.183 70.9072 145.238 70.999C145.292 71.0908 145.312 71.1988 145.294 71.3039C145.276 71.4091 145.223 71.5046 145.142 71.5735C145.061 71.6422 144.958 71.68 144.852 71.68Z" fill="#1B5EC9"/>
<path d="M35.9543 81.76C35.8848 81.76 35.8163 81.7446 35.7537 81.7139C35.691 81.6843 35.6358 81.6394 35.592 81.585C35.4965 81.4691 35.3732 81.3792 35.234 81.3248C35.0948 81.2704 34.9441 81.2526 34.7963 81.2739C34.6747 81.2928 34.5506 81.2621 34.4511 81.1888C34.3517 81.1154 34.285 81.0043 34.2656 80.8813C34.2462 80.7571 34.2757 80.6317 34.3477 80.53C34.4196 80.4283 34.5281 80.3597 34.6495 80.3396C34.9591 80.2935 35.2753 80.329 35.5674 80.4425C35.8596 80.5561 36.1176 80.7453 36.3166 80.9901C36.3718 81.0599 36.4064 81.1438 36.4166 81.2325C36.4268 81.3212 36.4121 81.4111 36.3742 81.4915C36.3364 81.572 36.2769 81.6394 36.2025 81.6867C36.1282 81.7352 36.0422 81.76 35.9543 81.76Z" fill="#1B5EC9"/>
<path d="M42.6783 83.12C42.6008 83.12 42.5243 83.1009 42.4565 83.0639C41.7878 82.7049 41.0628 82.457 40.3108 82.3291C40.1929 82.3067 40.0886 82.2394 40.0204 82.1429C39.9522 82.0465 39.9257 81.9276 39.9462 81.812C39.9668 81.6965 40.033 81.5933 40.1306 81.5248C40.2282 81.4564 40.3494 81.4272 40.4683 81.4452C41.3205 81.5899 42.1423 81.8703 42.9002 82.2775C42.9899 82.3258 43.0607 82.4009 43.1014 82.4929C43.1421 82.5838 43.1505 82.6859 43.125 82.7835C43.0996 82.8799 43.0418 82.9652 42.961 83.0269C42.8801 83.0875 42.7806 83.12 42.6783 83.12Z" fill="#1B5EC9"/>
<path d="M49.0042 85.36C48.9333 85.36 48.8634 85.3438 48.8 85.3101C48.7366 85.2777 48.6816 85.2301 48.6393 85.1721C48.361 84.7976 47.9904 84.5065 47.5654 84.3267C47.1404 84.147 46.6764 84.0867 46.2211 84.1516C46.1023 84.1702 45.9811 84.14 45.8842 84.067C45.7872 83.9939 45.7227 83.8849 45.7044 83.7631C45.6863 83.6414 45.7161 83.5173 45.7872 83.4187C45.8584 83.319 45.9651 83.2529 46.084 83.2343C46.7027 83.1462 47.3332 83.2285 47.9107 83.4721C48.4883 83.7156 48.992 84.111 49.3702 84.6201C49.4203 84.6897 49.4506 84.772 49.4576 84.8567C49.4647 84.9425 49.4483 85.0295 49.4103 85.106C49.3724 85.1826 49.3142 85.2475 49.2425 85.2916C49.1709 85.3368 49.0883 85.36 49.0042 85.36Z" fill="#1B5EC9"/>
<path d="M119.273 108.72C119.245 108.72 119.218 108.718 119.192 108.713C119.073 108.692 118.969 108.623 118.9 108.524C118.832 108.425 118.806 108.303 118.828 108.184C118.988 107.286 119.138 106.668 119.327 105.886C119.819 103.863 120.56 100.805 122.401 89.0372C122.408 88.9769 122.428 88.9189 122.458 88.8666C122.488 88.8131 122.528 88.7676 122.577 88.7312C122.626 88.6948 122.681 88.6686 122.74 88.6539C122.799 88.6391 122.858 88.6356 122.918 88.6459C122.978 88.655 123.036 88.6766 123.087 88.7085C123.139 88.7403 123.183 88.7824 123.218 88.8324C123.253 88.8825 123.278 88.9382 123.29 88.9974C123.302 89.0577 123.304 89.1191 123.293 89.1783C121.447 100.985 120.694 104.064 120.206 106.101C120.02 106.868 119.867 107.474 119.717 108.346C119.698 108.45 119.642 108.546 119.562 108.614C119.481 108.682 119.378 108.72 119.273 108.72Z" fill="white"/>
<path d="M112.296 60.4169C113.826 61.3522 115.871 61.1524 117.496 60.3613C118.692 59.7801 119.761 58.8721 120.32 57.6916C121.15 55.9459 120.711 53.7359 119.335 52.3727C117.959 51.0095 115.756 50.5385 113.879 51.1321C112.212 51.6588 110.951 52.9584 110.177 54.459C109.541 55.6939 109.972 57.0287 110.491 58.2342C110.866 59.1104 111.458 59.9072 112.296 60.4169Z" fill="black"/>
<path d="M114.434 55.4576C114.823 55.0194 115.697 55.1659 115.899 55.7028C116.1 56.2397 115.524 56.8887 114.934 56.79C114.344 56.6912 114.048 55.8947 114.434 55.4576Z" fill="#FF5400"/>
<path d="M111.413 56.72H111.406C111.349 56.7191 111.293 56.7062 111.241 56.682C111.189 56.6578 111.142 56.6228 111.102 56.579C111.063 56.5352 111.031 56.4835 111.011 56.4268C110.989 56.37 110.979 56.3094 110.981 56.2484C110.998 55.6205 111.166 55.0083 111.471 54.4724C111.776 53.9364 112.206 53.4951 112.718 53.1921C112.767 53.1582 112.822 53.1355 112.881 53.1257C112.939 53.1158 112.998 53.1188 113.056 53.1346C113.113 53.1505 113.167 53.1788 113.213 53.2177C113.26 53.2567 113.299 53.3055 113.327 53.3611C113.356 53.4168 113.373 53.4781 113.379 53.5413C113.384 53.6045 113.378 53.6683 113.359 53.7287C113.341 53.789 113.312 53.8447 113.272 53.8922C113.233 53.9399 113.185 53.9783 113.132 54.0053C112.755 54.2309 112.439 54.5567 112.214 54.9515C111.988 55.3464 111.861 55.797 111.845 56.26C111.843 56.3824 111.797 56.4994 111.716 56.5856C111.635 56.6717 111.526 56.72 111.413 56.72Z" fill="white"/>
<path d="M120.354 87.7875C126.68 85.6995 126.134 80.7709 125.704 78.5606C124.718 73.486 119.677 72.326 116.889 72.9564C114.995 73.3842 109.62 75.2458 110.729 81.5755C111.737 87.328 117.314 88.7913 120.354 87.7875Z" fill="black"/>
<path d="M119.876 79.5334C118.205 77.3489 116.113 79.7104 116.458 80.8934C116.823 82.1465 118.193 82.5926 119.267 82.158C120.341 81.7234 120.544 80.4059 119.876 79.5334Z" fill="#FF5400"/>
<path d="M112.285 80.7196C112.178 80.7196 112.075 80.6814 111.993 80.6108C111.911 80.5413 111.857 80.4441 111.838 80.3376C111.498 78.3701 112.66 76.075 114.553 75.0137C114.657 74.957 114.78 74.9447 114.895 74.9793C115.009 75.014 115.105 75.0928 115.162 75.199C115.22 75.3051 115.235 75.43 115.203 75.5469C115.171 75.6637 115.095 75.7631 114.993 75.8239C113.45 76.6919 112.458 78.6016 112.733 80.1791C112.753 80.2994 112.727 80.4244 112.658 80.5251C112.588 80.6258 112.484 80.6941 112.366 80.7161C112.338 80.7196 112.311 80.7207 112.285 80.7196Z" fill="white"/>
<path d="M113.414 84.96C113.354 84.96 113.296 84.9475 113.241 84.9247C113.187 84.9008 113.138 84.8666 113.096 84.8233C113.061 84.7857 112.23 83.9121 112.105 82.8425C112.096 82.7821 112.098 82.7206 112.114 82.6614C112.128 82.6033 112.155 82.5474 112.191 82.4996C112.227 82.4506 112.272 82.4096 112.324 82.38C112.376 82.3493 112.433 82.3299 112.493 82.3231C112.552 82.3162 112.612 82.3208 112.669 82.3379C112.725 82.3549 112.779 82.3834 112.826 82.421C112.872 82.4597 112.91 82.5076 112.938 82.5611C112.966 82.6147 112.984 82.6739 112.989 82.7343C113.077 83.4826 113.726 84.1786 113.732 84.1854C113.794 84.2492 113.835 84.3312 113.852 84.4189C113.868 84.5078 113.858 84.5989 113.825 84.6809C113.79 84.7641 113.734 84.8347 113.66 84.8837C113.587 84.9338 113.501 84.96 113.414 84.96Z" fill="white"/>
<path d="M92.0195 91.59L92.4283 69.3074C92.4613 67.5477 92.8757 65.3043 94.6564 64.9258C95.6424 64.7151 96.6671 65.2567 97.2751 66.0306C97.8831 66.8044 98.153 67.7743 98.3727 68.725C99.4042 73.1734 99.6422 77.7578 99.8767 82.3215C100.084 86.3484 100.292 90.3742 100.5 94.4L92.0195 91.59Z" fill="#1B5EC9"/>
<path d="M99.2554 132.16C98.894 132.16 98.5361 132.143 98.1907 132.12C97.5213 132.077 97.1226 132.059 96.8315 132.046C96.1609 132.017 96.1303 132.012 95.2004 131.798L95.1721 131.791C95.1132 131.777 95.0588 131.752 95.0101 131.718C94.9614 131.683 94.9207 131.64 94.8889 131.589C94.8572 131.539 94.8357 131.482 94.8267 131.423C94.8165 131.364 94.8187 131.304 94.8323 131.246C94.8448 131.188 94.8697 131.134 94.9048 131.085C94.9388 131.036 94.983 130.995 95.0328 130.963C95.0838 130.931 95.1404 130.91 95.1982 130.9C95.2571 130.891 95.3171 130.892 95.376 130.905L95.4043 130.912C96.2708 131.113 96.2708 131.113 96.8711 131.139C97.1497 131.152 97.5722 131.17 98.2507 131.214C99.5929 131.303 100.983 131.291 102.054 130.612C103.741 129.546 104.206 127.288 103.527 123.507C103.514 123.448 103.513 123.387 103.526 123.327C103.537 123.267 103.561 123.211 103.593 123.161C103.627 123.11 103.672 123.068 103.723 123.034C103.772 123.001 103.829 122.978 103.889 122.968C103.949 122.956 104.01 122.958 104.069 122.971C104.128 122.985 104.184 123.01 104.233 123.045C104.282 123.08 104.324 123.126 104.356 123.177C104.387 123.229 104.408 123.286 104.418 123.346C104.895 125.983 105.218 129.686 102.539 131.381C101.557 132.001 100.385 132.16 99.2554 132.16Z" fill="white"/>
<path d="M99.4502 96.375C101.27 94.7417 101.668 91.8323 100.411 89.7783C99.3822 88.0938 97.5226 87.2067 95.5349 87.3818C94.1674 87.5024 92.7387 87.93 91.8463 89.0151C90.9539 90.1001 90.8156 91.5173 90.9392 92.8355C91.1127 94.752 91.9722 96.5274 93.8794 97.2985C95.6948 98.0333 97.9784 97.6966 99.4502 96.375Z" fill="black"/>
<path d="M95.9012 98.0797C95.145 98.0831 94.3957 97.9413 93.6943 97.6624C91.8221 96.9106 90.6731 95.1949 90.4579 92.833C90.2985 91.0924 90.6413 89.6999 91.476 88.6941C92.33 87.6645 93.6806 87.0623 95.4912 86.9036C97.6731 86.7108 99.7149 87.7098 100.821 89.5116C102.208 91.7648 101.746 94.9069 99.7718 96.6668C98.6968 97.5921 97.3212 98.0944 95.9012 98.0797ZM96.0355 87.7824C95.8807 87.7824 95.7247 87.7824 95.5675 87.8028C94.0086 87.9389 92.8675 88.4321 92.1752 89.2667C91.4987 90.082 91.2254 91.2522 91.3621 92.7456C91.468 93.9079 91.9554 95.983 94.0313 96.8165C95.7326 97.4968 97.8416 97.1567 99.1557 95.9819C100.814 94.5078 101.205 91.8668 100.036 89.972C99.1819 88.5852 97.7084 87.7869 96.0355 87.7869V87.7824Z" fill="black"/>
<path d="M94.6641 92.6506C94.7272 93.3015 94.9331 94.08 95.6452 94.08C96.3574 94.08 97.1035 93.9459 97.2602 93.3103C97.4344 92.6077 97.0263 91.7852 96.2802 91.5664C95.5341 91.3476 94.5916 91.9348 94.6641 92.6506Z" fill="#FF5400"/>
<path d="M92.8734 91.12H92.8621C92.802 91.1189 92.7431 91.1055 92.6887 91.082C92.6344 91.0586 92.5856 91.0239 92.5448 90.9815C92.5029 90.939 92.4712 90.8888 92.4497 90.834C92.4282 90.7793 92.418 90.7212 92.4202 90.662C92.4497 89.4834 93.4206 88.421 94.6317 88.2434C94.7484 88.2289 94.8673 88.2613 94.9614 88.3317C95.0554 88.402 95.1177 88.5059 95.1347 88.621C95.1528 88.7361 95.1234 88.8545 95.0543 88.9483C94.9851 89.0433 94.8809 89.107 94.7654 89.1271C93.9904 89.2388 93.3447 89.9392 93.3266 90.6843C93.3232 90.8016 93.2745 90.9122 93.1895 90.9938C93.1045 91.0742 92.9912 91.12 92.8734 91.12Z" fill="white"/>
<path d="M103.332 120.56C103.221 120.561 103.113 120.52 103.03 120.447C102.948 120.374 102.893 120.272 102.881 120.161L102.262 114.974C102.251 114.857 102.287 114.739 102.36 114.647C102.434 114.557 102.54 114.497 102.657 114.483C102.774 114.469 102.891 114.501 102.985 114.573C103.077 114.644 103.139 114.75 103.157 114.866L103.777 120.052C103.783 120.111 103.779 120.171 103.763 120.229C103.746 120.287 103.719 120.34 103.683 120.387C103.646 120.434 103.601 120.473 103.549 120.502C103.497 120.532 103.441 120.55 103.382 120.557C103.365 120.559 103.348 120.56 103.332 120.56Z" fill="white"/>
<path d="M115.331 49.12C115.222 49.1203 115.118 49.0821 115.036 49.0122C114.591 48.6389 113.98 47.0492 112.691 43.391C112.287 42.2415 111.905 41.1556 111.647 40.5282C111.606 40.4178 111.611 40.2961 111.658 40.1889C111.707 40.0818 111.795 39.9972 111.904 39.9532C112.013 39.9091 112.134 39.909 112.244 39.9526C112.353 39.9964 112.44 40.0806 112.489 40.1878C112.755 40.8368 113.14 41.9329 113.549 43.0925C114.191 44.916 115.266 47.9717 115.626 48.3257C115.694 48.3863 115.743 48.4663 115.765 48.5551C115.788 48.6441 115.782 48.7376 115.751 48.8236C115.719 48.9096 115.662 48.9839 115.587 49.0368C115.512 49.0897 115.422 49.1187 115.331 49.12Z" fill="white"/>
<path d="M118.457 44.24C118.362 44.24 118.269 44.2087 118.192 44.1511C118.116 44.0935 118.059 44.0123 118.033 43.9197C117.741 42.9265 117.06 39.2085 116.562 36.4939C116.321 35.1781 116.119 34.041 116.035 33.6849C116.019 33.6264 116.016 33.5654 116.024 33.5055C116.032 33.4456 116.052 33.3881 116.083 33.3363C116.114 33.2846 116.155 33.2398 116.204 33.2045C116.252 33.1691 116.307 33.1442 116.366 33.1309C116.423 33.1177 116.483 33.1164 116.542 33.1274C116.6 33.1383 116.657 33.1612 116.707 33.1945C116.756 33.2279 116.798 33.2711 116.832 33.3216C116.864 33.372 116.887 33.4287 116.898 33.4882C116.98 33.8601 117.18 34.9489 117.433 36.3287C117.927 39.0253 118.602 42.7141 118.881 43.6613C118.897 43.7181 118.903 43.7776 118.897 43.8366C118.892 43.8957 118.874 43.9529 118.847 44.0051C118.819 44.0574 118.781 44.1036 118.736 44.1409C118.69 44.1783 118.638 44.2063 118.583 44.2231C118.541 44.2348 118.499 44.2404 118.457 44.24Z" fill="white"/>
<path d="M124.047 72.08C123.958 72.0801 123.871 72.0544 123.797 72.0059C123.723 71.9576 123.665 71.8887 123.63 71.8077C121.936 67.9346 120.97 63.7824 120.035 59.7675C120.019 59.7088 120.015 59.6478 120.024 59.5879C120.034 59.528 120.054 59.4705 120.086 59.4186C120.116 59.3669 120.158 59.3219 120.207 59.2864C120.256 59.2509 120.312 59.2254 120.371 59.2117C120.43 59.1981 120.491 59.1963 120.551 59.2066C120.61 59.2168 120.668 59.2389 120.718 59.2716C120.769 59.3043 120.813 59.3468 120.847 59.3966C120.882 59.4466 120.906 59.5028 120.919 59.5622C121.845 63.5328 122.802 67.6476 124.462 71.4447C124.491 71.5137 124.504 71.5891 124.498 71.6641C124.491 71.7391 124.466 71.8115 124.426 71.8744C124.384 71.9375 124.328 71.9892 124.262 72.0251C124.195 72.0611 124.121 72.0799 124.047 72.08Z" fill="white"/>
<path d="M125.18 98.96H125.133C125.075 98.9544 125.019 98.9364 124.969 98.9083C124.918 98.8802 124.873 98.842 124.837 98.7959C124.801 98.7498 124.774 98.697 124.757 98.6397C124.742 98.5824 124.736 98.524 124.743 98.4644C125.063 95.401 125.332 92.2905 125.542 89.2193C125.546 89.1608 125.561 89.1024 125.587 89.0496C125.612 88.9968 125.649 88.9496 125.691 88.9114C125.735 88.872 125.786 88.8428 125.841 88.8237C125.895 88.8046 125.953 88.7967 126.012 88.8012C126.069 88.8057 126.124 88.8215 126.176 88.8473C126.229 88.8743 126.275 88.9102 126.312 88.9552C126.35 89.0001 126.379 89.0518 126.397 89.108C126.416 89.1642 126.423 89.2238 126.419 89.2822C126.208 92.3647 125.938 95.4864 125.618 98.5599C125.606 98.67 125.554 98.7723 125.473 98.8465C125.393 98.9195 125.288 98.9611 125.18 98.96Z" fill="white"/>
<path d="M124.805 104.16H124.769C124.647 104.152 124.533 104.095 124.453 104.004C124.372 103.912 124.332 103.793 124.341 103.672L124.456 101.946C124.465 101.825 124.521 101.712 124.613 101.632C124.705 101.552 124.827 101.512 124.949 101.521C125.071 101.529 125.185 101.585 125.266 101.677C125.347 101.768 125.387 101.888 125.379 102.009L125.264 103.736C125.254 103.852 125.202 103.959 125.117 104.038C125.033 104.115 124.92 104.16 124.805 104.16Z" fill="white"/>
<path d="M117.116 119.36C117.083 119.36 117.05 119.357 117.019 119.35C116.959 119.337 116.905 119.313 116.855 119.278C116.806 119.244 116.764 119.201 116.732 119.151C116.7 119.101 116.677 119.044 116.667 118.985C116.657 118.928 116.658 118.866 116.672 118.808L118 112.757C118.025 112.639 118.097 112.537 118.199 112.472C118.301 112.406 118.424 112.385 118.542 112.411C118.66 112.436 118.763 112.507 118.827 112.609C118.893 112.71 118.915 112.833 118.89 112.951L117.56 119.004C117.537 119.105 117.482 119.195 117.401 119.26C117.32 119.325 117.22 119.36 117.116 119.36Z" fill="white"/>
<path d="M130.383 135.305C130.383 135.305 128.339 136.181 128.704 138.291C129.069 140.401 131.809 140.361 132.798 139.233C134.585 137.205 133.684 135.02 130.383 135.305Z" fill="#FACBDF"/>
<path d="M130.069 138.88C129.98 138.88 129.894 138.854 129.82 138.805C129.747 138.755 129.69 138.685 129.655 138.603C129.62 138.521 129.611 138.43 129.627 138.342C129.642 138.254 129.683 138.174 129.745 138.109C130.349 137.475 131.082 136.983 131.896 136.667C132.006 136.626 132.129 136.632 132.236 136.681C132.344 136.731 132.427 136.821 132.47 136.933C132.511 137.044 132.509 137.169 132.462 137.278C132.415 137.387 132.327 137.474 132.218 137.518C131.529 137.786 130.907 138.203 130.396 138.74C130.353 138.784 130.303 138.82 130.247 138.845C130.19 138.869 130.13 138.88 130.069 138.88Z" fill="#1B5EC9"/>
<path d="M55.1264 95.12C55.0917 95.12 55.0572 95.1155 55.0232 95.1087C54.9025 95.0816 54.7978 95.0104 54.7319 94.9087C54.6661 94.8081 54.6444 94.6849 54.6717 94.5685C55.195 92.324 55.4669 90.0331 55.4826 87.7321C55.4826 87.6123 55.5321 87.497 55.62 87.4122C55.7079 87.3275 55.8271 87.28 55.9514 87.28C56.0757 87.28 56.195 87.3275 56.2829 87.4122C56.3708 87.497 56.4202 87.6123 56.4202 87.7321C56.4028 90.0998 56.1223 92.4584 55.5834 94.7674C55.5601 94.868 55.5021 94.9573 55.419 95.0217C55.3359 95.085 55.2328 95.12 55.1264 95.12Z" fill="#1B5EC9"/>
</svg>
