<svg width="161" height="160" viewBox="0 0 161 160" fill="none" xmlns="http://www.w3.org/2000/svg">
<g clip-path="url(#clip0_165_7791)">
<path d="M80.796 119.577L81.4729 126.278C81.5506 127.056 81.6519 127.887 82.164 128.476C82.9304 129.358 84.2737 129.273 85.4403 129.276C104.536 129.327 125.509 128.86 145.705 127.918C147.522 127.833 149.627 127.512 150.546 125.943C150.996 125.175 151.054 124.247 151.1 123.353C152.018 105.697 153.49 85.4509 154.408 67.7947C154.44 67.1885 154.436 66.4929 153.982 66.0903C153.635 65.7831 153.133 65.749 152.67 65.7301C128.453 64.776 104.199 65.6673 80.1183 68.3962C78.9293 68.5304 76.8455 68.5999 76.0732 69.691C75.4928 70.515 75.9307 71.7533 76.0496 72.6514C76.5441 76.3898 76.8172 80.1717 77.1963 83.9231L79.5109 106.845L80.796 119.577Z" fill="#FACBDF"/>
<path d="M68.356 70.9229C67.8651 71.3303 67.3341 71.8142 67.3023 72.4536C67.2411 73.7276 68.9929 74.1244 70.2678 74.0761L147.402 71.1242C151.384 70.9724 155.366 70.8193 159.341 70.5485C159.981 70.5049 160.73 70.3895 161.028 69.822C161.449 69.0166 160.61 68.1488 159.867 67.6248L141.149 54.4372L122.363 41.2049C120.844 40.1358 119.355 38.983 117.784 37.9904C116.607 37.2439 115.496 37.0167 114.217 37.6443C111.156 39.1479 108.28 41.4286 105.441 43.3232C99.3876 47.3619 93.4343 51.5462 87.5811 55.8761C81.7738 60.1738 76.0696 64.609 70.4691 69.1814C69.7667 69.76 69.0623 70.3405 68.356 70.9229Z" fill="#FF5400"/>
<path d="M15.6733 25.4268C14.762 28.6771 15.0729 32.199 16.2031 35.3788C17.065 37.8027 18.4401 40.1055 20.4652 41.6913C22.8658 43.5722 26.0153 44.2986 29.06 44.2363C35.5355 44.107 42.0722 40.082 44.0561 33.927C45.8315 28.4185 43.5734 21.9296 38.8933 18.5159C35.8098 16.2672 31.8386 15.4055 28.0745 15.891C24.9109 16.3001 21.2458 17.5285 18.9405 19.809C17.3857 21.37 16.2604 23.3049 15.6733 25.4268Z" fill="#FF5400"/>
<path d="M24.3422 12.32C24.2453 12.32 24.1505 12.291 24.0706 12.2369C23.9907 12.1826 23.9295 12.1058 23.8951 12.0166C22.4666 8.33291 21.2578 4.57043 20.2749 0.748218C20.2593 0.68836 20.2557 0.626033 20.2644 0.564882C20.2733 0.50373 20.2942 0.444813 20.3261 0.39154C20.358 0.338268 20.4002 0.291816 20.4504 0.254654C20.5007 0.217493 20.5578 0.190326 20.6187 0.174921C20.6795 0.159515 20.7429 0.155989 20.805 0.164574C20.8672 0.173277 20.9271 0.193855 20.9813 0.225254C21.0354 0.256654 21.0827 0.298167 21.1204 0.347559C21.1582 0.396951 21.1858 0.453161 21.2015 0.513019C22.1756 4.30007 23.3732 8.02797 24.7882 11.6779C24.8159 11.7492 24.8256 11.8261 24.8164 11.9018C24.8072 11.9776 24.7794 12.05 24.7354 12.1129C24.6913 12.1757 24.6325 12.2271 24.5638 12.2626C24.4951 12.2981 24.4186 12.3166 24.341 12.3165L24.3422 12.32Z" fill="#1B5EC9"/>
<path d="M14.5021 11.36C14.381 11.3599 14.2644 11.3152 14.176 11.2349C13.1729 10.3249 12.4378 9.17213 12.0459 7.89529C12.0248 7.83619 12.0162 7.7735 12.0207 7.71104C12.0252 7.64859 12.0428 7.58764 12.0722 7.53202C12.1017 7.47628 12.1424 7.42691 12.1921 7.38694C12.2417 7.34696 12.2992 7.31718 12.3611 7.29922C12.4229 7.28137 12.4879 7.27593 12.552 7.283C12.6161 7.29018 12.6781 7.30988 12.7342 7.34093C12.7902 7.37187 12.8392 7.41359 12.8782 7.46353C12.9172 7.51336 12.9454 7.57037 12.961 7.63109C13.3058 8.74976 13.9501 9.75974 14.8283 10.5581C14.8981 10.6217 14.9469 10.7041 14.9679 10.7948C14.9889 10.8855 14.9813 10.9802 14.9462 11.0666C14.911 11.153 14.8499 11.2273 14.7707 11.2796C14.6915 11.332 14.5979 11.36 14.5021 11.36Z" fill="#1B5EC9"/>
<path d="M8.90449 23.92C8.81628 23.92 8.72983 23.895 8.65515 23.8481L-0.00133364 18.3907C-0.0536724 18.3576 -0.0989538 18.3144 -0.134591 18.2639C-0.170229 18.2132 -0.195516 18.1561 -0.20916 18.0956C-0.222803 18.0351 -0.224329 17.9726 -0.213862 17.9115C-0.203276 17.8504 -0.180814 17.7921 -0.147764 17.7397C-0.114714 17.6874 -0.0716647 17.642 -0.0212078 17.6063C0.0293668 17.5706 0.0864076 17.5452 0.146744 17.5315C0.207081 17.518 0.269536 17.5163 0.330461 17.5269C0.391503 17.5374 0.449721 17.5599 0.502059 17.593L9.15854 23.0493C9.24522 23.1037 9.3118 23.1849 9.34837 23.2806C9.38483 23.3764 9.38918 23.4813 9.36072 23.5798C9.33226 23.6782 9.27251 23.7647 9.19065 23.8261C9.10879 23.8875 9.00905 23.9205 8.90685 23.92H8.90449Z" fill="#1B5EC9"/>
<path d="M6.08147 32.8708C6.06204 32.8725 6.04237 32.8725 6.02293 32.8708L3.47048 32.5475C3.34719 32.5317 3.23514 32.4669 3.15891 32.3673C3.08281 32.2676 3.04874 32.1414 3.06419 32.0162C3.07977 31.891 3.14358 31.7773 3.24169 31.6999C3.33993 31.6225 3.46427 31.5879 3.58756 31.6037L6.14002 31.9282C6.20149 31.932 6.26167 31.9481 6.31705 31.9755C6.37243 32.003 6.42196 32.0413 6.46282 32.0881C6.50357 32.1349 6.53495 32.1895 6.55497 32.2487C6.57511 32.3078 6.58342 32.3704 6.57967 32.4328C6.57593 32.4952 6.56012 32.5563 6.53308 32.6125C6.50603 32.6687 6.46832 32.719 6.42219 32.7605C6.37606 32.8018 6.32232 32.8337 6.26413 32.854C6.20582 32.8745 6.14412 32.8829 6.08265 32.8791L6.08147 32.8708Z" fill="#1B5EC9"/>
<path d="M3.5232 49.04C3.42867 49.0388 3.3366 49.0093 3.25916 48.9552C3.18182 48.9011 3.12274 48.825 3.08987 48.7369C3.05688 48.6487 3.05161 48.5527 3.07466 48.4616C3.0977 48.3703 3.14813 48.2882 3.21903 48.2261C5.87578 45.9653 8.68158 43.8834 11.6178 41.9947C11.7221 41.9276 11.8489 41.9045 11.9703 41.9303C12.0918 41.9561 12.1979 42.0288 12.2654 42.1325C12.3329 42.2361 12.3562 42.362 12.3302 42.4826C12.3042 42.6034 12.231 42.7089 12.1267 42.776C9.22524 44.6416 6.45255 46.6982 3.82738 48.9318C3.74245 49.0032 3.63446 49.0416 3.5232 49.04Z" fill="#1B5EC9"/>
<path d="M15.0532 54C14.9544 54.0003 14.8581 53.9702 14.7784 53.9136C14.7278 53.8783 14.6848 53.8338 14.6519 53.7824C14.619 53.7312 14.5967 53.674 14.5865 53.6142C14.5763 53.5545 14.5782 53.4934 14.5923 53.4344C14.6063 53.3755 14.6321 53.3198 14.6683 53.2706L16.2811 51.073C16.3172 51.0237 16.363 50.9819 16.4157 50.9499C16.4685 50.9178 16.5272 50.8962 16.5886 50.8863C16.6499 50.8763 16.7126 50.8782 16.7733 50.8919C16.8339 50.9055 16.8911 50.9306 16.9418 50.9659C16.9923 51.001 17.0353 51.0456 17.0682 51.0969C17.1013 51.1483 17.1234 51.2055 17.1336 51.2651C17.1439 51.3248 17.1419 51.3859 17.1279 51.4449C17.1138 51.5039 17.088 51.5596 17.0519 51.6089L15.4392 53.8064C15.3954 53.8662 15.3375 53.9151 15.2703 53.9487C15.2032 53.9825 15.1287 54 15.0532 54Z" fill="#1B5EC9"/>
<path d="M42.6788 54.96C42.5941 54.96 42.5111 54.9365 42.4388 54.8922C42.3664 54.8478 42.3075 54.7842 42.2685 54.7084C41.1496 52.5397 40.1928 50.2898 39.4059 47.9776C39.3862 47.9197 39.378 47.8585 39.3818 47.7974C39.3855 47.7362 39.4012 47.6764 39.4278 47.6215C39.4545 47.5665 39.4917 47.5173 39.5372 47.4768C39.5826 47.4362 39.6357 47.4051 39.6931 47.3852C39.7506 47.3654 39.8113 47.3571 39.872 47.3609C39.9326 47.3647 39.9919 47.3804 40.0464 47.4073C40.1009 47.4343 40.1498 47.4716 40.1899 47.5175C40.2302 47.5634 40.261 47.6168 40.2808 47.6747C41.0524 49.9435 41.9911 52.1508 43.0891 54.2785C43.1455 54.3883 43.1562 54.5161 43.1192 54.6337C43.0821 54.7515 43.0002 54.8496 42.8915 54.9064C42.8258 54.9412 42.7529 54.9596 42.6788 54.96Z" fill="#1B5EC9"/>
<path d="M49.4542 45.68C49.3886 45.6795 49.3239 45.6671 49.2636 45.6434L46.9457 44.7134C46.8301 44.6642 46.7395 44.5744 46.6933 44.4631C46.6472 44.3518 46.6493 44.2281 46.6989 44.1181C46.7486 44.0082 46.842 43.9211 46.9591 43.8751C47.0762 43.8292 47.2078 43.8283 47.3257 43.8725L49.6448 44.8025C49.7478 44.8438 49.8324 44.9174 49.8845 45.0106C49.9365 45.1039 49.9528 45.2112 49.9303 45.3145C49.9078 45.4177 49.8482 45.5104 49.7614 45.5771C49.6747 45.6437 49.5662 45.68 49.4542 45.68Z" fill="#1B5EC9"/>
<path d="M50.9037 30.4798C50.792 30.4828 50.6829 30.4446 50.5959 30.3721C50.5089 30.2997 50.4495 30.1977 50.4284 30.0841C50.4073 29.9706 50.4258 29.853 50.4808 29.7524C50.5356 29.6518 50.6231 29.5745 50.728 29.5344C52.1833 28.9244 59.5179 28.9561 60.3482 28.9622C60.4733 28.9622 60.5932 29.0136 60.6817 29.1051C60.7701 29.1966 60.8199 29.3208 60.8199 29.4502C60.8199 29.5796 60.7701 29.7037 60.6817 29.7952C60.5932 29.8867 60.4733 29.9382 60.3482 29.9382C57.1638 29.9162 52.0607 30.0309 51.0889 30.4384C51.0305 30.465 50.9675 30.4791 50.9037 30.4798Z" fill="#1B5EC9"/>
<path d="M47.8521 18.08C47.7605 18.0801 47.6707 18.0538 47.5941 18.0043C47.5174 17.9548 47.457 17.8841 47.4203 17.801C47.3836 17.718 47.3722 17.626 47.3875 17.5367C47.4027 17.4473 47.444 17.3643 47.5063 17.2978C49.0078 15.6902 50.7968 14.3714 52.7829 13.4078C52.8383 13.3808 52.8986 13.3649 52.9602 13.361C53.0218 13.357 53.0837 13.3652 53.1421 13.3848C53.2006 13.4046 53.2546 13.4356 53.301 13.476C53.3473 13.5162 53.3853 13.5654 53.4126 13.6202C53.4398 13.675 53.4559 13.7347 53.4599 13.7957C53.4639 13.8567 53.4556 13.9179 53.4357 13.9759C53.4158 14.0338 53.3845 14.0872 53.3437 14.133C53.3029 14.179 53.2534 14.2165 53.198 14.2435C51.3154 15.1565 49.6198 16.4063 48.1966 17.9298C48.1527 17.977 48.0994 18.0147 48.0401 18.0405C47.9808 18.0664 47.9169 18.0798 47.8521 18.08Z" fill="#1B5EC9"/>
<path d="M38.5747 11.84C38.5389 11.8401 38.5034 11.8361 38.4687 11.8282C38.3459 11.8001 38.2394 11.7248 38.1725 11.619C38.1056 11.5132 38.0835 11.3854 38.1114 11.2636L40.5956 0.382947C40.6076 0.32082 40.6321 0.261643 40.6678 0.209201C40.7034 0.15664 40.7492 0.11164 40.8026 0.0770328C40.856 0.0424254 40.9158 0.0188012 40.9787 0.00758033C41.0415 -0.00375861 41.1059 -0.00234165 41.1682 0.0115958C41.2303 0.0255332 41.2892 0.0517555 41.341 0.088607C41.3929 0.125577 41.4367 0.172349 41.4699 0.226445C41.5032 0.280423 41.5251 0.340543 41.5345 0.403144C41.5438 0.465744 41.5404 0.529528 41.5245 0.590829L39.0403 11.4727C39.0162 11.5772 38.9569 11.6705 38.8724 11.7372C38.7877 11.8041 38.6828 11.8402 38.5747 11.84Z" fill="#1B5EC9"/>
<path d="M29.8474 48.8797C29.6037 48.8809 29.3624 48.8294 29.1405 48.729C28.9184 48.6286 28.7209 48.4816 28.5612 48.298C27.3438 46.947 27.6138 43.4604 27.7227 42.4245C27.7294 42.3625 27.7482 42.3025 27.7781 42.2477C27.808 42.193 27.8484 42.1446 27.8971 42.1054C27.9458 42.0662 28.0016 42.037 28.0617 42.0194C28.1217 42.0018 28.1846 41.996 28.2468 42.0027C28.309 42.0093 28.3694 42.028 28.4243 42.0578C28.4792 42.0876 28.5277 42.1278 28.567 42.1763C28.6064 42.2248 28.6357 42.2805 28.6534 42.3403C28.6712 42.4002 28.6768 42.4628 28.6702 42.5248C28.4724 44.3701 28.5103 46.8243 29.2707 47.6668C29.3412 47.7521 29.4302 47.8205 29.5307 47.867C29.6314 47.9136 29.7412 47.9371 29.8522 47.9358C29.965 47.938 30.0769 47.9161 30.1806 47.8715C30.2841 47.827 30.3769 47.7608 30.4526 47.6774C31.3527 46.7453 31.2366 43.7601 31.1928 42.6369V42.4929C31.1905 42.431 31.2004 42.3691 31.2221 42.311C31.2437 42.2528 31.2767 42.1995 31.3191 42.154C31.3613 42.1085 31.4123 42.0718 31.4689 42.046C31.5255 42.0201 31.5866 42.0056 31.6488 42.0032C31.711 42.0009 31.773 42.0108 31.8314 42.0324C31.8898 42.054 31.9433 42.0868 31.9889 42.129C32.0346 42.1711 32.0715 42.2219 32.0974 42.2783C32.1233 42.3347 32.1379 42.3956 32.1403 42.4575L32.1462 42.6003C32.203 44.0645 32.3215 47.111 31.1407 48.3322C30.976 48.509 30.7756 48.6491 30.5527 48.7435C30.3299 48.8378 30.0895 48.8843 29.8474 48.8797Z" fill="black"/>
<path d="M35.854 160C35.5541 160.007 35.2615 159.907 35.0298 159.716C34.401 159.196 34.355 158.067 34.9026 156.523C35.6007 154.56 37.4413 151.557 40.5147 149.014C41.3005 148.363 42.135 147.771 43.0111 147.247C43.0111 147.158 43.0192 147.071 43.0205 146.986C43.0664 144.132 41.8429 141.152 39.6668 138.81C38.1459 137.192 36.2783 135.94 34.2043 135.146C31.8245 141.581 28.2142 147.145 23.5983 151.365C20.6827 154.033 17.8767 155.057 15.4863 154.331C13.249 153.651 11.5416 151.325 11.3272 148.677C11.1553 146.549 11.8218 144.264 13.3055 141.883C16.1457 137.328 20.877 134.133 25.9628 133.341C28.5325 132.944 31.1594 133.153 33.6344 133.951C34.8303 130.482 35.6561 126.897 36.0977 123.254C37.3058 113.485 37.32 101.541 29.3105 80.4735C25.8956 71.4773 27.1556 65.3408 28.3791 59.4057C29.1009 55.9016 29.7827 52.5919 29.4647 48.8322C29.4596 48.7704 29.4665 48.7081 29.4855 48.649C29.5043 48.5898 29.5347 48.535 29.5747 48.4875C29.6149 48.4401 29.6639 48.401 29.719 48.3727C29.7742 48.3442 29.8344 48.3268 29.8963 48.3216C29.9581 48.3165 30.0204 48.3235 30.0795 48.3424C30.1386 48.3613 30.1935 48.3916 30.2409 48.4318C30.2883 48.4718 30.3273 48.5208 30.3558 48.5761C30.3843 48.6312 30.4016 48.6915 30.4068 48.7533C30.7365 52.6484 30.0404 56.0229 29.3045 59.5965C28.1094 65.3985 26.8717 71.3984 30.1947 80.1378C38.2773 101.399 38.2596 113.48 37.0361 123.364C36.5855 127.074 35.744 130.726 34.5258 134.259C36.7414 135.103 38.7365 136.439 40.3604 138.167C42.6294 140.608 43.9342 143.703 43.9672 146.714C46.4582 145.397 49.2288 144.697 52.0462 144.674H52.1993C58.4944 144.674 61.8763 147.665 63.6084 150.186C65.0768 152.323 65.7703 154.79 65.815 156.725C68.8177 152.626 73.4607 149.558 78.5983 148.353C84.1509 147.051 90.4107 147.863 95.7743 150.583C97.0237 151.217 98.1635 151.869 99.2657 152.5C101.37 153.706 103.359 154.845 105.694 155.596C108.45 156.481 110.902 156.238 112.597 154.911C114.625 153.324 115.549 150.297 115.267 146.158C115.258 146.033 115.3 145.909 115.383 145.815C115.465 145.721 115.58 145.663 115.706 145.655C115.831 145.647 115.954 145.688 116.048 145.77C116.142 145.853 116.2 145.969 116.209 146.094C116.592 151.735 114.773 154.406 113.178 155.653C111.229 157.185 108.468 157.477 105.407 156.493C102.977 155.712 100.947 154.55 98.7982 153.313C97.7066 152.688 96.5774 152.041 95.3492 151.419C90.1775 148.806 84.1486 148.026 78.808 149.273C73.2018 150.588 68.2102 154.22 65.4654 158.976C65.4065 159.081 65.3102 159.159 65.196 159.194C65.0817 159.231 64.9582 159.221 64.8504 159.169C64.7426 159.117 64.6587 159.026 64.6157 158.914C64.5726 158.802 64.5736 158.678 64.6187 158.567C65.2487 156.966 64.7364 153.51 62.8276 150.722C61.2239 148.387 58.0798 145.618 52.1934 145.618H52.0486C49.1942 145.637 46.3922 146.387 43.9094 147.796C43.5691 151.043 41.5391 157.06 37.4649 159.457C36.842 159.816 36.3027 160 35.854 160ZM42.878 148.423C38.9921 150.957 36.577 154.623 35.7893 156.838C35.3582 158.052 35.4042 158.804 35.6291 158.99C35.774 159.108 36.2179 159.09 36.9879 158.637C40.3593 156.659 42.3516 151.658 42.878 148.423ZM28.5051 134.084C27.7019 134.084 26.9 134.146 26.1064 134.269C21.288 135.02 16.8039 138.052 14.1027 142.379C12.7285 144.584 12.1103 146.677 12.2646 148.598C12.4483 150.874 13.886 152.861 15.7595 153.427C18.35 154.216 21.109 152.367 22.9624 150.668C27.4629 146.545 30.9873 141.118 33.3141 134.831C31.7592 134.335 30.1369 134.083 28.5051 134.084Z" fill="black"/>
<path d="M129.927 127.6H129.884C129.704 127.599 129.528 127.561 129.364 127.49C129.199 127.42 129.052 127.316 128.929 127.186C128.59 126.819 128.44 126.243 128.473 125.417C128.547 123.556 128.364 121.544 128.296 120.786L126.459 100.549C126.272 98.503 126.083 96.2009 125.902 93.9742C125.72 91.7476 125.528 89.4266 125.341 87.3698C125.292 86.825 125.223 86.0796 125.577 85.4428C125.967 84.7481 126.748 84.2457 127.618 84.1313C131.291 83.6501 134.698 83.4473 138.305 83.2315C139.998 83.1301 141.749 83.0251 143.555 82.8895C144.253 82.8364 144.893 83.0074 145.361 83.3765C146.201 84.037 146.203 85.2387 146.204 85.885C146.216 92.5389 146.428 99.4476 146.634 106.116C146.83 112.484 147.032 119.064 147.061 125.428C147.061 125.766 147.061 126.187 146.743 126.497C146.502 126.733 146.153 126.831 145.643 126.812C142.157 126.682 135.806 127.166 132.393 127.429C130.945 127.543 130.193 127.6 129.927 127.6ZM126.286 87.2873C126.474 89.3441 126.663 91.658 126.847 93.8917C127.031 96.1254 127.217 98.4157 127.404 100.458L129.236 120.7C129.306 121.474 129.493 123.53 129.417 125.454C129.387 126.178 129.535 126.447 129.622 126.543C129.66 126.583 129.705 126.614 129.756 126.635C129.807 126.655 129.861 126.665 129.917 126.661C130.093 126.667 131.126 126.588 132.325 126.496C135.756 126.233 142.142 125.745 145.681 125.877C146.01 125.888 146.09 125.827 146.091 125.826C146.118 125.699 146.129 125.569 146.12 125.438C146.092 119.087 145.884 112.511 145.693 106.152C145.488 99.47 145.276 92.5614 145.264 85.8933C145.264 85.2211 145.224 84.4781 144.781 84.1243C144.504 83.9061 144.084 83.8011 143.631 83.8353C141.816 83.9733 140.062 84.0783 138.364 84.1797C134.775 84.3931 131.385 84.596 127.745 85.0725C127.172 85.1479 126.647 85.4758 126.404 85.9098C126.207 86.2636 126.232 86.7436 126.286 87.2908V87.2873Z" fill="#1B5EC9"/>
<path d="M132.933 108.112C134.554 107.857 134.958 105.088 133.601 104.135C133.276 103.91 132.897 103.782 132.507 103.763C132.116 103.743 131.728 103.834 131.383 104.026C131.039 104.216 130.752 104.501 130.554 104.848C130.356 105.194 130.254 105.59 130.26 105.993C130.26 106.971 130.796 108.445 132.933 108.112Z" fill="black"/>
<path d="M132.342 108.64C131.642 108.64 131.072 108.443 130.628 108.052C129.862 107.382 129.779 106.384 129.779 105.993C129.775 105.503 129.901 105.022 130.143 104.601C130.387 104.179 130.738 103.834 131.16 103.601C131.582 103.369 132.057 103.259 132.535 103.283C133.013 103.307 133.476 103.466 133.872 103.738C134.829 104.407 135.038 105.688 134.821 106.663C134.588 107.71 133.889 108.451 133.007 108.585C132.788 108.621 132.565 108.639 132.342 108.64ZM132.412 104.232C132.132 104.233 131.854 104.303 131.606 104.437C131.331 104.583 131.1 104.806 130.943 105.08C130.784 105.354 130.705 105.668 130.712 105.986C130.712 106.192 130.75 106.898 131.235 107.323C131.599 107.644 132.148 107.749 132.867 107.637C133.616 107.517 133.856 106.695 133.917 106.445C134.059 105.807 133.942 104.933 133.351 104.519C133.074 104.33 132.746 104.229 132.412 104.232Z" fill="black"/>
<path d="M88.4452 103.877C88.5524 104.545 88.6866 105.26 89.1683 105.735C89.7006 106.261 90.5132 106.353 91.2598 106.407C97.0468 106.823 102.12 105.298 111.928 106.004C112.929 106.076 112.627 101.873 112.647 100.742C112.799 92.2614 113.149 78.321 113.277 77.3705C113.453 76.0807 112.581 76.0748 110.656 76.0807C102.214 76.0807 92.4905 76.5813 90.976 76.5742C89.7701 76.5742 87.2487 76.0512 86.336 77.063C85.6412 77.8334 86.0628 79.645 86.1005 80.5565C86.2512 84.2115 86.5044 87.8607 86.8577 91.504C87.2593 95.6431 87.7881 99.7682 88.4452 103.877Z" fill="white"/>
<path d="M88.7704 96.2562C90.134 98.3719 92.1783 102.634 93.7065 106.03C94.1457 107.005 93.4378 107.08 92.9383 107.198C92.0931 107.398 90.746 107.513 89.6239 107.542C88.5325 107.569 88.0353 107.718 87.7891 107.397C87.5642 107.104 87.5085 106.656 87.4529 106.306C85.147 91.6662 86.5059 87.7146 85.6253 79.4445C85.572 78.9438 85.469 77.7249 85.611 77.2418C85.8478 76.4461 86.4243 76.4802 87.7216 76.4802C90.2074 76.4802 91.6835 76.5742 94.4073 76.4461C97.2186 76.3145 99.2262 75.5739 98.6356 78.0399C97.7596 81.6941 95.5472 86.1395 93.4201 89.2402C92.2932 90.8764 90.5057 93.2719 88.755 94.7352C87.93 95.4228 88.3869 95.6591 88.7704 96.2562Z" fill="#1B5EC9"/>
<path d="M100.246 106.56C100.124 106.561 100.006 106.519 99.9147 106.441C99.8237 106.363 99.7658 106.255 99.7535 106.139C99.4114 103.157 98.9339 87.3702 99.7535 77.317C99.7634 77.1917 99.8249 77.0755 99.9246 76.9938C100.024 76.9121 100.154 76.8717 100.284 76.8814C100.414 76.8911 100.535 76.9502 100.62 77.0456C100.706 77.141 100.748 77.2649 100.738 77.3902C99.9246 87.3879 100.397 103.075 100.738 106.036C100.752 106.161 100.713 106.285 100.632 106.383C100.551 106.481 100.432 106.543 100.302 106.556L100.246 106.56Z" fill="black"/>
<path d="M100.347 91.2797C100.223 91.2846 100.102 91.238 100.011 91.151C99.9195 91.0627 99.8644 90.9402 99.8597 90.8103C99.855 90.6791 99.8996 90.5529 99.9828 90.4573C100.067 90.3617 100.184 90.3041 100.309 90.2992C100.759 90.26 101.258 90.2122 101.801 90.1607C104.802 89.8739 109.338 89.4388 113.591 89.8457C113.653 89.8519 113.712 89.8702 113.768 89.8997C113.822 89.9303 113.871 89.972 113.911 90.021C113.949 90.0712 113.98 90.1276 113.999 90.1901C114.016 90.2514 114.023 90.3163 114.017 90.3813C114.011 90.445 113.994 90.5075 113.966 90.5651C113.936 90.6227 113.898 90.673 113.85 90.7147C113.802 90.7551 113.748 90.787 113.688 90.8066C113.629 90.825 113.567 90.8323 113.505 90.8262C109.338 90.4279 105.032 90.8397 101.887 91.1412C101.342 91.1926 100.839 91.2417 100.386 91.2797H100.347Z" fill="black"/>
<path d="M146.524 60.2392C146.508 60.2403 146.491 60.2403 146.476 60.2392C146.351 60.2263 146.237 60.1648 146.16 60.0679C146.081 59.971 146.044 59.8468 146.056 59.7225C146.569 54.7073 147.33 50.0485 148.067 45.5418C148.959 40.0783 149.804 34.9169 150.219 29.2612C150.242 29.012 150.288 28.7657 150.356 28.525C150.46 28.1262 150.49 27.9717 150.347 27.7723C149.805 27.3323 145.104 25.9897 137.793 25.9838C137.395 25.9838 137.278 26.0463 137.217 26.1077C137.049 26.2776 136.965 26.7967 136.967 27.6496C136.982 33.5873 136.787 38.3689 136.579 43.4312C136.462 46.4266 136.33 49.5235 136.241 53.0262C136.237 53.1513 136.184 53.27 136.094 53.3561C136.004 53.4424 135.883 53.4889 135.758 53.4857C135.633 53.4824 135.515 53.4295 135.429 53.3387C135.343 53.2479 135.297 53.1266 135.301 53.0014C135.391 49.4928 135.518 46.3948 135.64 43.3923C135.847 38.3406 136.042 33.5696 136.027 27.652C136.027 26.4439 136.17 25.8245 136.552 25.4411C136.905 25.0872 137.375 25.04 137.792 25.04C142.002 25.04 145.152 25.4765 147.052 25.8387C147.874 25.9968 150.611 26.5607 151.082 27.186C151.521 27.7688 151.378 28.3197 151.264 28.7621C151.209 28.9478 151.173 29.1381 151.154 29.3308C150.736 35.029 149.889 40.2105 148.991 45.6963C148.257 50.1877 147.498 54.8324 146.994 59.8192C146.981 59.9352 146.926 60.0422 146.839 60.1198C146.752 60.1973 146.64 60.2399 146.524 60.2392Z" fill="black"/>
<path d="M151.676 30.7176C151.483 30.7173 151.291 30.6987 151.103 30.6621C146.168 29.7175 142 29.1884 136.237 28.7645C135.212 28.6901 134.414 28.3016 133.991 27.671C133.582 27.0605 133.609 26.3107 133.629 25.7639C133.649 25.2172 133.647 24.6445 133.646 24.0493C133.646 22.7303 133.646 21.3676 133.882 20.0828C134.235 18.1875 135.741 18.2773 136.952 18.3493L151.911 19.2361H151.939C153.559 19.4334 154.43 19.7829 154.851 20.4052C155.312 21.0854 155.133 21.9757 154.911 22.8283C154.372 24.8874 153.945 26.9738 153.628 29.0786C153.568 29.5484 153.334 29.9781 152.971 30.2819C152.609 30.5859 152.146 30.7414 151.676 30.7176ZM136.167 19.2633C135.295 19.2633 134.956 19.4558 134.807 20.2552C134.584 21.4526 134.585 22.7716 134.588 24.047C134.588 24.6244 134.588 25.2278 134.569 25.797C134.55 26.3378 134.551 26.8137 134.773 27.142C135.126 27.6604 135.882 27.7903 136.302 27.8222C142.106 28.2473 146.306 28.7834 151.277 29.7328C151.725 29.8178 152.111 29.7635 152.336 29.5828C152.53 29.4216 152.66 29.1943 152.698 28.944C153.018 26.8047 153.453 24.6844 154.001 22.5921C154.206 21.8069 154.289 21.2578 154.073 20.9389C153.838 20.5847 153.101 20.332 151.837 20.1773L136.891 19.2916C136.612 19.2763 136.377 19.2645 136.164 19.2645L136.167 19.2633Z" fill="black"/>
<path d="M82.3482 95.2C82.2296 95.2012 82.1145 95.1587 82.0258 95.0809C81.9384 95.0042 81.882 94.8969 81.8688 94.7813C81.2061 89.0223 80.7183 83.1655 80.4205 77.3759C80.4174 77.314 80.4266 77.252 80.4478 77.1936C80.469 77.1352 80.5014 77.0814 80.5445 77.0354C80.5865 76.9894 80.6368 76.9521 80.6944 76.9255C80.7507 76.899 80.813 76.8837 80.8753 76.8806C80.9388 76.8775 81.0024 76.8866 81.0611 76.9075C81.121 76.9283 81.1749 76.9604 81.2217 77.0021C81.2684 77.0437 81.3068 77.0939 81.3331 77.15C81.3607 77.2061 81.3763 77.2668 81.3787 77.3288C81.6759 83.0982 82.1613 88.935 82.8168 94.6751C82.8312 94.799 82.7952 94.924 82.7161 95.0219C82.637 95.1198 82.522 95.1823 82.3962 95.1964C82.3794 95.1988 82.3638 95.2 82.3482 95.2Z" fill="white"/>
<path d="M83.1071 105.12C82.9991 105.121 82.8955 105.079 82.8159 105.003C82.7352 104.926 82.6839 104.82 82.6708 104.705L82.3435 101.812C82.3359 101.75 82.3403 101.688 82.3555 101.628C82.3697 101.569 82.3959 101.512 82.4308 101.463C82.4668 101.414 82.5104 101.373 82.5595 101.342C82.6097 101.311 82.6642 101.292 82.7221 101.284C82.7788 101.276 82.8366 101.28 82.8912 101.297C82.9468 101.314 82.9981 101.342 83.0439 101.38C83.0886 101.417 83.1268 101.465 83.1551 101.519C83.1835 101.573 83.2021 101.632 83.2097 101.694L83.537 104.587C83.55 104.711 83.5184 104.837 83.4475 104.935C83.3755 105.034 83.2719 105.098 83.1573 105.113L83.1071 105.12Z" fill="white"/>
<path d="M86.5212 126.56H86.5104C86.2174 126.556 85.9292 126.488 85.6662 126.362C85.4033 126.236 85.1715 126.055 84.9878 125.83C84.4222 125.124 84.3633 124.183 84.3189 123.495L83.8602 116.261C83.8566 116.2 83.865 116.137 83.8854 116.078C83.9058 116.02 83.9382 115.966 83.9803 115.92C84.0223 115.874 84.0727 115.835 84.1292 115.808C84.1868 115.781 84.2481 115.764 84.3105 115.761C84.3741 115.757 84.4378 115.766 84.4966 115.786C84.5567 115.806 84.6119 115.837 84.6599 115.878C84.7068 115.918 84.7452 115.969 84.7728 116.024C84.8016 116.08 84.8173 116.141 84.8209 116.202L85.2808 123.433C85.3264 124.163 85.3937 124.804 85.7479 125.248C85.8428 125.36 85.9604 125.45 86.0925 125.514C86.2258 125.577 86.3711 125.611 86.5188 125.615C86.5933 125.62 86.6677 125.607 86.735 125.58C86.8034 125.551 86.8647 125.509 86.9139 125.455C86.9535 125.404 87.0016 125.362 87.0568 125.33C87.1133 125.3 87.1745 125.278 87.2381 125.271C87.3018 125.263 87.3666 125.268 87.4291 125.284C87.4903 125.302 87.5492 125.331 87.5984 125.37C87.6488 125.41 87.6908 125.458 87.7209 125.514C87.7521 125.57 87.7701 125.63 87.7773 125.694C87.7833 125.756 87.7761 125.82 87.7569 125.88C87.7377 125.94 87.7053 125.995 87.6632 126.043C87.5263 126.209 87.3522 126.342 87.1541 126.431C86.9559 126.521 86.7398 126.564 86.5212 126.56Z" fill="white"/>
<path d="M110.423 57.44C110.316 57.4398 110.212 57.4026 110.128 57.3347C110.045 57.2668 109.987 57.1722 109.964 57.0665C109.068 52.9037 104.42 47.9371 100.017 46.4444C99.8996 46.4036 99.8019 46.317 99.7466 46.2038C99.6925 46.0906 99.6843 45.9602 99.7243 45.8409C99.7655 45.7217 99.8513 45.6237 99.9631 45.5683C100.076 45.5129 100.206 45.5049 100.323 45.5457C105.078 47.1605 109.917 52.3441 110.889 56.865C110.901 56.9259 110.903 56.9887 110.892 57.05C110.881 57.1115 110.858 57.1699 110.825 57.2223C110.791 57.2747 110.749 57.32 110.697 57.3556C110.646 57.391 110.59 57.4162 110.528 57.4293C110.494 57.4367 110.459 57.4402 110.423 57.44Z" fill="black"/>
<path d="M40.4263 26.08C40.3343 26.08 40.2444 26.0535 40.1674 26.0038C40.0903 25.954 40.0297 25.8832 39.9926 25.7998C39.3139 24.3009 38.3354 22.9532 37.1162 21.8383C35.897 20.7234 34.4623 19.864 32.8984 19.3122C32.7797 19.2714 32.6822 19.1855 32.6275 19.0734C32.5726 18.9615 32.5651 18.8325 32.6064 18.7149C32.6477 18.5975 32.7346 18.501 32.8477 18.4468C32.961 18.3927 33.0914 18.3852 33.2101 18.426C34.8964 19.0214 36.4433 19.9481 37.7579 21.1505C39.0726 22.3529 40.1278 23.806 40.86 25.4223C40.8917 25.4937 40.905 25.5718 40.8985 25.6495C40.8921 25.7271 40.8661 25.802 40.8231 25.8673C40.78 25.9326 40.7212 25.9863 40.6519 26.0234C40.5827 26.0605 40.5051 26.08 40.4263 26.08Z" fill="white"/>
<path d="M40.6829 31.92H40.6175C40.4853 31.9039 40.3654 31.8393 40.284 31.7406C40.2028 31.6418 40.1667 31.5169 40.1838 31.3933L40.5358 28.8313C40.5413 28.768 40.5607 28.7065 40.5924 28.6505C40.6241 28.5944 40.6676 28.5449 40.7202 28.5049C40.7729 28.465 40.8337 28.4354 40.899 28.418C40.9642 28.4006 41.0325 28.3958 41.0997 28.4037C41.1671 28.4117 41.232 28.4322 41.2906 28.4642C41.3491 28.4962 41.4002 28.539 41.4405 28.5899C41.481 28.6408 41.51 28.6989 41.5259 28.7606C41.5416 28.8222 41.544 28.8863 41.5327 28.9489L41.1857 31.5096C41.17 31.6237 41.1102 31.7285 41.0175 31.8041C40.9249 31.8797 40.8058 31.9209 40.6829 31.92Z" fill="white"/>
<path d="M26.4893 44.96C26.3712 44.9591 26.2577 44.9163 26.171 44.8399C26.0844 44.7634 26.0309 44.659 26.0212 44.547C26.0113 44.435 26.0459 44.3235 26.1181 44.2346C26.1903 44.1456 26.2949 44.0856 26.4112 44.0662C28.6038 43.7149 30.838 43.6656 33.0452 43.9199C33.1698 43.9347 33.283 43.9962 33.3601 44.0905C33.4371 44.1848 33.4715 44.3045 33.4558 44.423C33.4402 44.5415 33.3756 44.6493 33.2764 44.7225C33.1772 44.7958 33.0514 44.8285 32.9268 44.8137C30.8098 44.5699 28.6668 44.6173 26.5639 44.9544C26.5392 44.9577 26.5143 44.9597 26.4893 44.96Z" fill="black"/>
<path d="M108.5 135.977L109.032 141.903C109.119 142.86 109.142 144.74 109.61 145.599C110.283 146.835 111.37 147.335 113.24 147.49C114.726 147.614 116.156 147.324 117.633 147.138C118.546 147.02 119.503 146.857 120.195 146.297C121.086 145.576 121.32 144.394 121.454 143.302C121.818 140.322 121.692 136.814 121.615 135.6L108.5 135.977Z" fill="#FF5400"/>
<path d="M106.012 136.56C105.481 136.56 104.921 136.485 104.504 136.073C104.131 135.705 104.017 135.201 103.949 134.711C103.933 134.592 103.912 134.462 103.889 134.313C103.681 132.996 103.334 130.79 104.822 130.24C105.366 130.039 106.038 130.058 106.63 130.075C106.866 130.075 107.085 130.087 107.274 130.075C108.123 130.04 108.972 130.008 109.821 129.978C111.489 129.92 113.177 129.87 114.838 129.829C118.194 129.745 121.598 129.695 124.955 129.68C125.137 129.68 125.473 129.68 125.734 129.918C126.033 130.197 126.022 130.6 126.018 130.794L125.953 133.461C125.945 133.817 125.934 134.274 125.718 134.684C125.264 135.53 124.283 135.698 123.382 135.754C117.718 136.08 111.964 136.348 106.298 136.549C106.202 136.558 106.111 136.56 106.012 136.56ZM104.882 134.581C104.923 134.881 104.982 135.217 105.161 135.393C105.388 135.616 105.829 135.618 106.261 135.604C111.925 135.402 117.666 135.129 123.329 134.809C123.971 134.772 124.658 134.676 124.891 134.239C125.009 134.03 125.009 133.733 125.018 133.445L125.083 130.779C125.083 130.712 125.083 130.668 125.083 130.637C125.042 130.637 124.99 130.637 124.965 130.637C121.614 130.652 118.217 130.701 114.868 130.786C113.209 130.826 111.525 130.877 109.86 130.935C109.013 130.965 108.165 130.997 107.318 131.031C107.095 131.039 106.86 131.031 106.611 131.031C106.103 131.016 105.527 131.001 105.153 131.139C104.392 131.421 104.682 133.279 104.826 134.169C104.843 134.318 104.866 134.459 104.882 134.581Z" fill="black"/>
<path d="M108.148 132.232C108.035 132.233 107.927 132.192 107.842 132.116C107.756 132.042 107.702 131.937 107.687 131.824C107.65 131.534 107.636 131.058 107.619 130.455C107.593 129.53 107.559 128.379 107.43 127.331V127.303C107.246 125.797 107.153 124.527 107.902 124.227C108.8 123.867 110.08 123.748 110.916 124.292C111.567 124.718 111.551 125.839 111.536 126.828C111.536 126.928 111.536 127.024 111.536 127.115C111.53 128.119 111.5 128.764 111.472 129.387C111.443 130.01 111.414 130.636 111.408 131.619C111.408 131.743 111.36 131.862 111.273 131.95C111.187 132.037 111.069 132.086 110.947 132.086C110.825 132.086 110.707 132.037 110.621 131.95C110.534 131.862 110.486 131.743 110.486 131.619C110.486 130.616 110.522 129.972 110.551 129.348C110.579 128.724 110.608 128.099 110.614 127.115C110.614 127.021 110.614 126.922 110.614 126.819C110.62 126.383 110.637 125.227 110.416 125.081C109.903 124.746 108.953 124.829 108.292 125.081C108.177 125.305 108.201 126.014 108.345 127.196V127.224C108.479 128.313 108.514 129.49 108.541 130.435C108.558 130.989 108.571 131.468 108.601 131.719C108.617 131.841 108.584 131.965 108.509 132.063C108.434 132.161 108.323 132.225 108.202 132.24L108.148 132.232Z" fill="black"/>
<path d="M118.528 131.92C118.407 131.92 118.289 131.872 118.201 131.786C118.114 131.7 118.062 131.583 118.057 131.459C118.013 130.207 118.011 129.042 118.009 128.015C118.009 126.835 118.009 125.816 117.944 124.896C117.914 124.439 118.032 124.067 118.297 123.792C118.644 123.424 119.209 123.26 120.074 123.282H120.192C120.957 123.299 121.509 123.311 121.866 123.708C122.19 124.067 122.2 124.607 122.167 125.088C122.105 125.982 122.07 127.083 122.036 128.149C122.002 129.214 121.965 130.334 121.903 131.245C121.895 131.372 121.837 131.49 121.741 131.574C121.647 131.656 121.523 131.698 121.399 131.689C121.274 131.681 121.157 131.621 121.076 131.526C120.993 131.43 120.952 131.305 120.96 131.178C121.021 130.285 121.057 129.183 121.091 128.118C121.125 127.052 121.162 125.933 121.224 125.021C121.261 124.485 121.184 124.37 121.169 124.352C121.083 124.258 120.597 124.247 120.17 124.233H120.052C119.309 124.216 119.058 124.361 118.976 124.448C118.949 124.475 118.87 124.56 118.888 124.829C118.948 125.785 118.95 126.812 118.954 128.009C118.954 129.028 118.954 130.184 119.002 131.421C119.007 131.547 118.962 131.67 118.877 131.764C118.791 131.855 118.673 131.91 118.548 131.915L118.528 131.92Z" fill="black"/>
<path d="M80.5684 20.3481C79.8049 37.3756 72.7176 48.5901 71.9562 51.3457C71.9258 51.4534 71.9371 51.5684 71.9877 51.668C72.0383 51.7676 72.1246 51.8444 72.2292 51.8832C73.8769 52.4973 81.5111 55.2446 95.8245 58.804C97.1191 59.3663 97.6405 60.381 98.7232 57.4486C103.6 44.241 108.439 33.0724 109.657 28.3591C110.024 26.9366 110.059 26.4993 108.306 26.2435C104.351 25.666 94.2757 23.9028 81.0321 20.0145C80.9791 19.9991 80.9238 19.9959 80.8696 20.0052C80.8155 20.0145 80.7637 20.0361 80.719 20.0682C80.6743 20.1003 80.6378 20.1423 80.6119 20.1907C80.586 20.2393 80.5707 20.293 80.5684 20.3481Z" fill="#1B5EC9"/>
<path d="M83.4522 49.92C83.4087 49.9201 83.364 49.9138 83.3216 49.9012C83.2616 49.884 83.2063 49.8551 83.1568 49.8162C83.1086 49.7772 83.0686 49.729 83.038 49.6741C83.0086 49.6194 82.9897 49.5592 82.9827 49.4972C82.9768 49.4352 82.9827 49.3724 83.0003 49.3126L83.524 47.5094C85.9683 39.1089 86.7921 36.2781 89.4082 24.7761C89.4212 24.7148 89.4459 24.6565 89.4812 24.6048C89.5165 24.5532 89.5624 24.509 89.6142 24.4751C89.6671 24.4412 89.726 24.418 89.7883 24.4072C89.8495 24.3963 89.9131 24.3978 89.9743 24.4117C90.0355 24.4256 90.0931 24.4515 90.1437 24.488C90.1943 24.5243 90.2379 24.5706 90.2708 24.624C90.3038 24.6773 90.325 24.7367 90.3344 24.7986C90.345 24.8605 90.3414 24.9237 90.3261 24.9844C87.703 36.5194 86.878 39.3514 84.429 47.7731L83.9041 49.5751C83.8771 49.674 83.8182 49.7612 83.7358 49.8235C83.6546 49.8857 83.5546 49.9196 83.4522 49.92Z" fill="white"/>
<path d="M90.496 55.12C90.4305 55.1199 90.3662 55.1066 90.3054 55.081C90.2483 55.0563 90.1971 55.0206 90.153 54.9758C90.1101 54.9312 90.0756 54.8784 90.053 54.8207C90.0292 54.7628 90.0184 54.7012 90.0196 54.639C90.0208 54.5769 90.0339 54.5157 90.0589 54.4587C92.4919 48.9315 93.7768 44.2486 95.138 39.2917C95.6453 37.4426 96.1705 35.5309 96.7659 33.5378C96.8028 33.4177 96.885 33.3167 96.9957 33.257C97.1077 33.1974 97.2375 33.1839 97.3589 33.2196C97.4804 33.2553 97.5816 33.3373 97.6424 33.4474C97.7019 33.5576 97.7162 33.6869 97.6793 33.807C97.0838 35.7883 96.5634 37.6953 96.0573 39.5397C94.6866 44.5308 93.3922 49.2456 90.9366 54.8366C90.8997 54.9215 90.8377 54.9936 90.7603 55.0439C90.6817 55.0944 90.59 55.1208 90.496 55.12Z" fill="white"/>
<path d="M89.547 36.4C89.5033 36.4 89.4609 36.3941 89.4196 36.3827L89.3877 36.3735C84.6912 35.0968 84.6912 35.0968 79.888 34.2825L79.8526 34.2768C79.7292 34.2558 79.6193 34.1877 79.5471 34.0876C79.475 33.9875 79.4464 33.8634 79.4679 33.7428C79.4894 33.6222 79.559 33.5147 79.6614 33.4442C79.7639 33.3737 79.8908 33.3458 80.0143 33.3668L80.0497 33.3737C84.8989 34.1949 84.8989 34.1949 89.6414 35.4854L89.6733 35.4935C89.783 35.5229 89.8786 35.5905 89.9423 35.6839C90.006 35.7772 90.032 35.8899 90.0166 36.001C90.0013 36.1119 89.9447 36.2135 89.8585 36.287C89.7724 36.3604 89.6615 36.4006 89.547 36.4Z" fill="white"/>
<path d="M99.8635 39.28C99.803 39.2799 99.7413 39.2678 99.6843 39.2446C97.5293 38.3715 95.2853 37.7331 92.9914 37.3406C92.9285 37.3322 92.868 37.3112 92.8134 37.2787C92.7576 37.2464 92.7101 37.2034 92.6722 37.1522C92.6342 37.1011 92.6081 37.0429 92.5926 36.9811C92.5784 36.9193 92.576 36.8552 92.5867 36.7927C92.5974 36.7301 92.6211 36.6703 92.6555 36.6169C92.69 36.5636 92.735 36.5176 92.7873 36.4818C92.8407 36.4462 92.9 36.4214 92.9629 36.4091C93.0246 36.3967 93.0899 36.397 93.1516 36.4099C95.5131 36.8138 97.8236 37.4708 100.043 38.3694C100.146 38.4105 100.23 38.4857 100.282 38.5823C100.336 38.6788 100.352 38.7905 100.331 38.8984C100.31 39.0062 100.252 39.1033 100.166 39.1729C100.082 39.2426 99.9738 39.2805 99.8635 39.28Z" fill="white"/>
<path d="M94.0276 49.28C93.977 49.2799 93.9264 49.2715 93.8781 49.2552C89.1783 47.6687 81.1935 45.405 77.9432 44.8589C77.881 44.85 77.8214 44.8287 77.7676 44.7964C77.7139 44.764 77.6671 44.7212 77.63 44.6706C77.593 44.6199 77.5664 44.5622 77.5518 44.5011C77.5374 44.44 77.5351 44.3766 77.5455 44.3145C77.5557 44.2526 77.5782 44.1932 77.6117 44.14C77.6452 44.087 77.6888 44.041 77.7403 44.005C77.7917 43.969 77.8497 43.9436 77.9111 43.9306C77.9724 43.9173 78.0357 43.9165 78.0974 43.9282C81.3924 44.4767 89.4455 46.7592 94.1783 48.3564C94.2842 48.3921 94.3748 48.4644 94.4313 48.5603C94.489 48.6562 94.5114 48.7696 94.4925 48.88C94.4749 48.9904 94.4184 49.0908 94.3324 49.1631C94.2477 49.2355 94.1394 49.2753 94.0276 49.2753V49.28Z" fill="white"/>
<path d="M97.7359 31.92H97.6859C97.6294 31.9131 97.5751 31.894 97.5251 31.8641C97.4751 31.8342 97.4306 31.7939 97.3958 31.7456C97.36 31.6972 97.3339 31.6418 97.3176 31.5825C97.3024 31.5232 97.297 31.4611 97.3035 31.3998C97.36 30.8642 97.4784 30.3384 97.6555 29.8345C97.675 29.7754 97.7044 29.721 97.7435 29.6745C97.7826 29.628 97.8293 29.5904 97.8825 29.564C97.9347 29.5375 97.9923 29.5227 98.0499 29.5203C98.1074 29.518 98.1661 29.5282 98.2193 29.5504C98.2737 29.5726 98.3236 29.6063 98.366 29.6495C98.4073 29.6927 98.441 29.7445 98.4649 29.802C98.4877 29.8594 98.4996 29.9213 98.5007 29.984C98.5018 30.0466 98.4899 30.1089 98.4681 30.1669C98.3171 30.5983 98.2161 31.0484 98.1672 31.5067C98.1552 31.6207 98.1042 31.7257 98.0249 31.8017C97.9445 31.878 97.8424 31.92 97.7359 31.92Z" fill="white"/>
<path d="M108.013 56.24C107.906 56.2404 107.8 56.2038 107.715 56.1362C107.631 56.0685 107.572 55.9742 107.549 55.8688C107.527 55.7635 107.541 55.6534 107.59 55.5572C107.639 55.461 107.72 55.3844 107.818 55.3403C108.925 54.8452 109.794 53.8386 110.559 52.9495C110.643 52.8608 110.758 52.8075 110.88 52.8007C111.002 52.794 111.121 52.8342 111.214 52.9132C111.307 52.9921 111.365 53.1036 111.377 53.2243C111.389 53.345 111.353 53.4656 111.277 53.561C110.449 54.5254 109.503 55.6179 108.201 56.1977C108.143 56.2245 108.078 56.2389 108.013 56.24Z" fill="black"/>
<path d="M107.449 54.24C107.347 54.2403 107.245 54.2061 107.163 54.1428C107.08 54.0795 107.022 53.9907 106.996 53.8902C106.969 53.7898 106.977 53.6837 107.018 53.5883C107.059 53.493 107.132 53.414 107.222 53.3638C108.033 52.9074 108.704 52.235 109.156 51.4209C109.219 51.3191 109.32 51.2455 109.435 51.2153C109.551 51.1849 109.674 51.2002 109.779 51.2578C109.884 51.3155 109.962 51.4112 109.998 51.5252C110.035 51.6392 110.026 51.7629 109.974 51.8707C109.441 52.8407 108.646 53.6412 107.678 54.1804C107.608 54.2193 107.53 54.2398 107.449 54.24Z" fill="black"/>
<path d="M89.3746 92.08C89.2891 92.08 89.2049 92.0564 89.1301 92.0127C89.0566 91.969 88.996 91.9052 88.9557 91.8296C88.9154 91.7541 88.8964 91.6691 88.9011 91.584C88.9059 91.4978 88.9331 91.4152 88.9806 91.3443C90.293 89.4052 91.406 87.3398 92.3031 85.1799C92.3268 85.1221 92.3612 85.0678 92.4051 85.0229C92.449 84.978 92.5012 84.9426 92.5594 84.9178C92.6175 84.893 92.6804 84.88 92.7433 84.88C92.8062 84.88 92.8691 84.8918 92.9272 84.9154C92.9854 84.9402 93.0388 84.9756 93.0827 85.0193C93.1266 85.0642 93.1622 85.1174 93.1859 85.1752C93.2096 85.2343 93.2215 85.2969 93.2203 85.3594C93.2191 85.422 93.2061 85.4834 93.18 85.5413C92.258 87.7579 91.1141 89.8776 89.7661 91.8663C89.7234 91.9312 89.6653 91.9843 89.5976 92.0221C89.5288 92.0587 89.4529 92.0788 89.3746 92.08Z" fill="black"/>
<path d="M88.8857 89.12C88.8403 89.12 88.7949 89.1129 88.7506 89.1C88.6924 89.0824 88.6376 89.0529 88.5899 89.0141C88.5433 88.9741 88.5036 88.9259 88.4745 88.8718C88.4454 88.8165 88.4279 88.7565 88.4221 88.6953C88.4163 88.6329 88.4221 88.5718 88.4396 88.5118L90.5468 81.4528C90.5655 81.394 90.5946 81.3387 90.633 81.2916C90.6726 81.2434 90.7204 81.2034 90.774 81.1752C90.8287 81.1457 90.8881 81.1281 90.9487 81.1222C91.0093 81.1163 91.071 81.1222 91.1293 81.1399C91.1887 81.1587 91.2422 81.1881 91.29 81.2269C91.3378 81.2669 91.3762 81.3152 91.4053 81.3693C91.4345 81.4246 91.4519 81.4834 91.4578 81.5457C91.4636 81.6069 91.4578 81.6693 91.4391 81.7281L89.3319 88.787C89.3028 88.8835 89.2445 88.9682 89.1641 89.0282C89.0837 89.0882 88.9859 89.12 88.8857 89.12Z" fill="black"/>
<path d="M103.514 70.88C102.976 70.88 102.45 70.8776 101.933 70.8729C101.808 70.8729 101.687 70.8229 101.599 70.7338C101.51 70.6447 101.461 70.5238 101.461 70.3978C101.461 70.2719 101.51 70.151 101.599 70.0619C101.687 69.9729 101.808 69.9228 101.933 69.9228C109.03 69.9881 118.394 69.576 125.918 69.2434C130.519 69.0403 134.158 68.88 136.109 68.88C136.234 68.88 136.354 68.9301 136.443 69.0192C136.531 69.1083 136.581 69.2292 136.581 69.3551C136.581 69.4811 136.531 69.602 136.443 69.691C136.354 69.7801 136.234 69.8301 136.109 69.8301C134.179 69.8301 130.37 69.9976 125.964 70.1864C118.979 70.5011 110.404 70.88 103.514 70.88Z" fill="black"/>
<path d="M141.867 69.76H139.454C139.329 69.76 139.208 69.7094 139.119 69.6194C139.03 69.5294 138.98 69.4073 138.98 69.28C138.98 69.1527 139.03 69.0305 139.119 68.9405C139.208 68.8505 139.329 68.8 139.454 68.8H141.867C141.992 68.8 142.112 68.8505 142.201 68.9405C142.29 69.0305 142.34 69.1527 142.34 69.28C142.34 69.4073 142.29 69.5294 142.201 69.6194C142.112 69.7094 141.992 69.76 141.867 69.76Z" fill="black"/>
<path d="M153.389 69.76H144.25C144.125 69.76 144.006 69.7094 143.917 69.6194C143.829 69.5294 143.779 69.4073 143.779 69.28C143.779 69.1527 143.829 69.0305 143.917 68.9405C144.006 68.8505 144.125 68.8 144.25 68.8H153.389C153.514 68.8 153.634 68.8505 153.722 68.9405C153.81 69.0305 153.859 69.1527 153.859 69.28C153.859 69.4073 153.81 69.5294 153.722 69.6194C153.634 69.7094 153.514 69.76 153.389 69.76Z" fill="black"/>
</g>
<defs>
<clipPath id="clip0_165_7791">
<rect width="160" height="160" fill="white" transform="translate(0.5)"/>
</clipPath>
</defs>
</svg>
