<svg width="161" height="160" viewBox="0 0 161 160" fill="none" xmlns="http://www.w3.org/2000/svg">
<g clip-path="url(#clip0_165_2925)">
<path d="M95.3161 58.0034C95.1592 60.6939 96.2064 63.5597 98.441 65.0844C100.556 66.528 103.331 66.5733 105.87 66.2073C107.602 65.957 109.345 65.529 110.839 64.6302C112.333 63.7314 113.585 62.3116 113.967 60.6129C114.649 57.579 112.561 54.7156 111.296 51.8713C110.699 50.5219 110.276 49.1022 110.037 47.6466C109.787 46.116 109.926 44.6402 109.872 43.1167C107.934 42.8878 105.657 43.2097 103.744 43.5756C102.636 43.7878 101.58 44.1717 100.902 45.1182C100.279 45.9836 100.015 47.0839 99.5925 48.0507C98.9371 49.5468 97.9234 50.8211 97.1386 52.2457C96.1585 54.0183 95.4348 55.9673 95.3161 58.0034Z" fill="#FF6800"/>
<path d="M100.961 62.7199C100.682 62.717 100.406 62.6623 100.146 62.5586C99.7593 62.4092 99.3635 62.2203 99.0809 61.8582C98.5168 61.1328 98.357 60.1851 98.6301 59.2063C98.8114 58.5768 99.1321 57.9965 99.5686 57.5091C100.005 57.0216 100.546 56.6396 101.151 56.3917C101.745 56.1653 102.362 56.0088 102.992 55.9256C103.11 53.4052 103.043 50.8796 102.794 48.3689C102.781 48.2421 102.819 48.1154 102.9 48.0167C102.98 47.918 103.097 47.8553 103.223 47.8424C103.35 47.8296 103.476 47.8676 103.574 47.9482C103.673 48.0289 103.735 48.1453 103.748 48.2721C103.815 48.9378 104.145 52.455 103.973 55.8456C104.471 55.8315 104.967 55.8543 105.46 55.9137C105.417 53.0514 106.057 50.4245 107.249 49.0119C107.333 48.9206 107.447 48.8649 107.57 48.8565C107.693 48.848 107.814 48.8876 107.908 48.9668C108.003 49.0459 108.063 49.1587 108.077 49.2814C108.09 49.4041 108.055 49.5272 107.98 49.625C106.907 50.9073 106.342 53.3729 106.418 56.0786C106.726 56.1467 107.032 56.228 107.335 56.3248C108.73 56.7694 109.846 57.998 110.261 58.5035C110.502 58.8042 110.681 59.15 110.787 59.5205C110.893 59.8911 110.925 60.279 110.88 60.6619C110.849 60.945 110.761 61.2187 110.619 61.4656C110.477 61.7124 110.286 61.9272 110.057 62.0961C109.04 62.8227 107.646 62.396 106.887 61.5642C106.158 60.7683 105.891 59.6855 105.726 58.7318C105.621 58.1213 105.547 57.5058 105.505 56.8877C104.979 56.8137 104.447 56.7868 103.915 56.8076C103.715 59.2553 103.207 61.4877 102.091 62.3411C101.767 62.5904 101.369 62.7237 100.961 62.7199ZM102.923 56.9009C102.434 56.9783 101.955 57.1064 101.492 57.2833C100.595 57.6287 99.8142 58.5035 99.5483 59.4608C99.3587 60.1468 99.46 60.7886 99.8333 61.269C99.9656 61.4387 100.181 61.5463 100.489 61.6646C101.022 61.8714 101.324 61.7124 101.503 61.575C102.299 60.9655 102.733 59.1334 102.923 56.9009ZM106.464 57.0694C106.507 57.5653 106.571 58.0649 106.656 58.5633C106.805 59.4214 107.02 60.2998 107.581 60.9129C108.058 61.4292 108.933 61.7124 109.488 61.3121C109.61 61.2187 109.711 61.1012 109.785 60.9669C109.859 60.8327 109.906 60.6845 109.92 60.5316C109.976 60.0205 109.829 59.5077 109.51 59.1047C108.747 58.1725 107.841 57.4901 107.031 57.2307C106.846 57.171 106.656 57.1172 106.464 57.0694Z" fill="white"/>
<path d="M15.506 138.066C17.871 137.13 20.4809 136.679 22.9822 137.146C25.3101 137.582 27.4385 138.794 29.2539 140.315C31.3802 142.116 33.1135 144.335 34.3462 146.835C35.5789 149.334 36.2844 152.061 36.4192 154.844C27.9902 154.513 19.5584 154.586 11.1238 155.062C9.19615 155.171 7.16339 155.527 5.23578 155.42C3.54958 155.328 3.58184 154.217 3.81368 152.813C4.33663 149.738 5.58581 146.832 7.45737 144.337C9.51881 141.569 12.2973 139.351 15.506 138.066Z" fill="#1B5EC9"/>
<path d="M8.58909 144.876C8.51505 144.876 8.4421 144.86 8.37576 144.826C8.30954 144.794 8.25172 144.746 8.20689 144.688L1.81421 136.34C1.30222 135.672 0.721723 134.914 0.507792 133.984C0.256604 132.896 0.549858 131.649 1.31184 130.562C2.52571 128.829 3.66387 127.941 4.69627 127.92C4.97858 127.915 5.2579 127.979 5.51077 128.103C5.76376 128.228 5.9831 128.411 6.15052 128.637C8.22132 131.349 9.56139 134.501 10.857 137.55L12.5396 141.502C12.5651 141.56 12.5788 141.623 12.5799 141.686C12.5809 141.75 12.5693 141.812 12.5457 141.87C12.5222 141.93 12.4871 141.983 12.4425 142.028C12.3979 142.073 12.3448 142.109 12.2861 142.134C12.2275 142.158 12.1645 142.171 12.1008 142.171C12.0371 142.171 11.974 142.159 11.9152 142.136C11.8565 142.112 11.803 142.076 11.7581 142.03C11.7133 141.986 11.6779 141.932 11.6538 141.874L9.97122 137.922C8.69846 134.928 7.38242 131.828 5.38493 129.215C5.31018 129.113 5.21223 129.028 5.09889 128.969C4.98556 128.911 4.85996 128.88 4.73233 128.878H4.7155C4.31768 128.887 3.44874 129.188 2.10025 131.111C1.49932 131.979 1.25896 132.949 1.44524 133.773C1.6123 134.503 2.1267 135.174 2.5798 135.765L8.97128 144.112C9.02572 144.182 9.05925 144.267 9.0679 144.355C9.07656 144.445 9.06009 144.533 9.02031 144.614C8.98065 144.694 8.91912 144.76 8.84292 144.808C8.76672 144.855 8.67875 144.88 8.58909 144.88V144.876Z" fill="#181E32"/>
<path d="M1.69762 138.8C1.61468 138.8 1.5333 138.777 1.46135 138.737C1.3894 138.697 1.32941 138.637 1.28722 138.566C1.24504 138.496 1.22209 138.415 1.22077 138.331C1.21934 138.249 1.23954 138.169 1.27933 138.096C3.02181 134.921 4.99852 131.318 8.23249 129.043C8.33599 128.972 8.46339 128.946 8.58696 128.967C8.71054 128.99 8.82037 129.059 8.89291 129.161C8.96533 129.263 8.99473 129.389 8.97442 129.512C8.95422 129.636 8.88598 129.746 8.78463 129.82C5.73112 131.971 3.81177 135.467 2.1183 138.551C2.07719 138.626 2.01636 138.689 1.94238 138.733C1.86829 138.777 1.78379 138.8 1.69762 138.8Z" fill="#181E32"/>
<path d="M3.1409 140.32C3.06251 140.32 2.98532 140.301 2.91641 140.264C2.86058 140.234 2.81113 140.194 2.77079 140.145C2.73045 140.098 2.7002 140.041 2.68147 139.982C2.66286 139.922 2.65638 139.859 2.66226 139.796C2.66814 139.733 2.68639 139.672 2.71592 139.617C4.50025 136.263 6.79384 133.202 9.51566 130.545C9.56032 130.499 9.61374 130.462 9.67269 130.437C9.73163 130.413 9.7949 130.4 9.85889 130.4C9.92299 130.4 9.98638 130.412 10.0454 130.437C10.1045 130.461 10.1579 130.498 10.2028 130.543C10.2476 130.589 10.2829 130.643 10.3064 130.701C10.33 130.761 10.3414 130.824 10.3401 130.888C10.3386 130.952 10.3244 131.014 10.2984 131.073C10.2722 131.132 10.2348 131.183 10.1879 131.227C7.5366 133.817 5.30244 136.797 3.56469 140.065C3.52399 140.142 3.463 140.206 3.38833 140.251C3.31366 140.296 3.22818 140.32 3.1409 140.32Z" fill="#181E32"/>
<path d="M100.588 26.6072C117.521 25.3564 135.161 33.3938 144.221 47.752C144.614 48.3744 144.929 49.3301 144.31 49.7291C144.084 49.8736 143.801 49.882 143.534 49.8856L114.659 50.2619L85.7859 50.6406L71.4268 50.8282L64.0913 50.9237C63.0246 50.9369 58.7601 51.6405 60.0048 49.4233C60.8804 47.8619 62.4213 46.4164 63.6302 45.1071C64.9043 43.7237 66.2433 42.4021 67.6474 41.1422C70.4746 38.5976 73.5377 36.328 76.795 34.3639C83.201 30.5041 90.3657 27.8651 97.7932 26.8927C98.7214 26.7717 99.6531 26.6765 100.588 26.6072Z" fill="#1B5EC9"/>
<path d="M89.2257 57.04C89.1983 57.04 89.171 57.0376 89.1436 57.0328L80.0256 55.4353C79.963 55.4257 79.9029 55.4036 79.8489 55.3702C79.7947 55.3368 79.7478 55.293 79.7108 55.241C79.6737 55.1891 79.6474 55.1304 79.6331 55.068C79.619 55.0057 79.6173 54.9411 79.6281 54.8782C79.639 54.8151 79.6622 54.7549 79.6964 54.7011C79.7306 54.6473 79.7752 54.6008 79.8273 54.5647C79.8796 54.5284 79.9384 54.5031 80.0005 54.49C80.0625 54.477 80.1266 54.4766 80.1887 54.4889L89.3067 56.0863C89.4245 56.1071 89.5293 56.1714 89.6019 56.2666C89.6745 56.3617 89.7091 56.4809 89.6995 56.6006C89.6888 56.7202 89.6341 56.8317 89.5472 56.9131C89.4591 56.9944 89.3448 57.0397 89.2257 57.04Z" fill="#1B5EC9"/>
<path d="M84.2559 76.8C84.1631 76.8001 84.0727 76.7732 83.9953 76.7225C83.918 76.6719 83.8561 76.5998 83.8192 76.5147C83.7823 76.4297 83.7704 76.3359 83.7859 76.2442C83.8002 76.1527 83.8418 76.0677 83.9049 75.9994C85.8217 73.9089 87.9372 72.0108 90.2217 70.3323C90.324 70.2574 90.4513 70.2262 90.5763 70.2456C90.6381 70.2552 90.6976 70.2769 90.75 70.3095C90.8035 70.3421 90.8499 70.3848 90.888 70.4355C90.9249 70.4861 90.9511 70.5435 90.9653 70.6044C90.9808 70.6653 90.9832 70.7286 90.9737 70.7905C90.9641 70.8526 90.9427 70.912 90.9106 70.9657C90.8773 71.0193 90.8344 71.0659 90.7845 71.103C88.55 72.7443 86.4809 74.6004 84.6057 76.6449C84.5617 76.6935 84.5069 76.7324 84.4474 76.7592C84.3868 76.7859 84.3213 76.7997 84.2559 76.8Z" fill="#1B5EC9"/>
<path d="M96.9023 90.32C96.8553 90.32 96.8083 90.3128 96.7625 90.2997C96.7023 90.2818 96.6456 90.2519 96.5962 90.2113C96.5468 90.1719 96.5071 90.1229 96.4769 90.0668C96.4468 90.0119 96.4287 89.951 96.4227 89.8889C96.4155 89.8256 96.4227 89.7624 96.4408 89.7027C98.0628 84.3894 99.4535 78.9386 100.585 73.5011C100.598 73.4397 100.622 73.3814 100.659 73.3294C100.695 73.2775 100.739 73.233 100.792 73.1986C100.845 73.1641 100.904 73.1402 100.967 73.1285C101.03 73.1167 101.094 73.1171 101.155 73.1298C101.218 73.1426 101.277 73.1672 101.329 73.2025C101.38 73.2377 101.426 73.2829 101.461 73.3353C101.495 73.3877 101.519 73.4465 101.531 73.5081C101.543 73.5698 101.543 73.6331 101.53 73.6946C100.396 79.1595 98.9992 84.6389 97.3639 89.9797C97.3337 90.0776 97.2735 90.1636 97.1903 90.2256C97.1072 90.2865 97.0059 90.32 96.9023 90.32Z" fill="#1B5EC9"/>
<path d="M108.58 83.28C108.452 83.28 108.33 83.2289 108.24 83.1377C108.15 83.0465 108.1 82.9225 108.1 82.7936V80.5663C108.1 80.4374 108.15 80.3134 108.24 80.2222C108.33 80.131 108.452 80.08 108.58 80.08C108.707 80.08 108.829 80.131 108.919 80.2222C109.009 80.3134 109.06 80.4374 109.06 80.5663V82.7936C109.06 82.9225 109.009 83.0465 108.919 83.1377C108.829 83.2289 108.707 83.28 108.58 83.28Z" fill="#1B5EC9"/>
<path d="M122.428 79.6C122.314 79.5984 122.204 79.5559 122.118 79.4803C120.126 77.7778 118.306 75.8818 116.685 73.8198C116.606 73.7202 116.569 73.593 116.583 73.4664C116.597 73.3397 116.662 73.2239 116.761 73.1446C116.86 73.0652 116.988 73.0287 117.113 73.043C117.24 73.0574 117.356 73.1216 117.434 73.2212C119.016 75.2331 120.793 77.0834 122.738 78.7452C122.811 78.8092 122.862 78.8937 122.886 78.9877C122.909 79.0816 122.904 79.1804 122.871 79.2711C122.836 79.362 122.776 79.4403 122.697 79.4961C122.619 79.5517 122.524 79.5822 122.428 79.5832V79.6Z" fill="#1B5EC9"/>
<path d="M126.311 67.0303C126.288 67.0321 126.266 67.0321 126.243 67.0303C124.282 66.7434 122.366 66.1956 120.546 65.401C120.431 65.3506 120.34 65.2558 120.293 65.1374C120.247 65.0191 120.248 64.8869 120.298 64.7699C120.348 64.6531 120.441 64.5609 120.559 64.5139C120.676 64.4669 120.806 64.4688 120.921 64.5192C122.665 65.28 124.5 65.8044 126.378 66.0789C126.441 66.0835 126.501 66.1002 126.557 66.1286C126.613 66.1569 126.663 66.196 126.704 66.2437C126.744 66.2914 126.775 66.3468 126.795 66.4068C126.815 66.4668 126.822 66.53 126.819 66.593C126.814 66.6561 126.798 66.7177 126.769 66.774C126.742 66.8306 126.703 66.8809 126.655 66.9223C126.609 66.9637 126.554 66.9954 126.494 67.0153C126.435 67.0352 126.374 67.0433 126.311 67.0387V67.0303Z" fill="#1B5EC9"/>
<path d="M122.251 57.6799C122.132 57.6788 122.019 57.6335 121.931 57.5532C121.844 57.4727 121.79 57.3628 121.781 57.2452C121.771 57.1274 121.806 57.0104 121.879 56.9169C121.951 56.8235 122.057 56.7604 122.174 56.74L124.669 56.3257C124.792 56.3063 124.92 56.3363 125.021 56.4093C125.124 56.4822 125.193 56.5922 125.213 56.7153C125.233 56.8384 125.205 56.9647 125.132 57.0666C125.059 57.1686 124.95 57.238 124.826 57.2597L122.324 57.674C122.3 57.6781 122.276 57.6799 122.251 57.6799Z" fill="#1B5EC9"/>
<path d="M84.8966 65.44C84.7783 65.4397 84.6648 65.394 84.5764 65.3113C84.4893 65.2287 84.4343 65.1153 84.4224 64.993C84.4104 64.8705 84.4427 64.7481 84.5131 64.6491C84.5836 64.5502 84.6863 64.4818 84.8022 64.4574L87.2866 63.9301C87.4109 63.9036 87.5399 63.9297 87.6462 64.0023C87.7513 64.0749 87.8253 64.1881 87.8504 64.3172C87.8755 64.4461 87.8504 64.5803 87.7811 64.6901C87.7107 64.7999 87.602 64.8763 87.4778 64.9028L84.9933 65.4301C84.9611 65.4364 84.9288 65.4396 84.8966 65.44Z" fill="#1B5EC9"/>
<path d="M122.263 36.0409C122.226 37.9304 122.493 39.9249 123.635 41.433C124.689 42.8278 126.39 43.6396 128.121 43.8959C129.852 44.1522 131.623 43.9031 133.325 43.4954C135.512 42.972 137.792 42.0648 139.003 40.1764C140.044 38.5504 140.102 36.4939 139.967 34.5734C139.795 32.1427 139.369 29.7366 138.697 27.3943C138.141 25.4654 137.389 23.5329 136.028 22.0559C134.913 20.8458 133.282 19.9601 131.604 19.9207C130.316 19.8897 129.518 20.8017 128.679 21.6493C126.214 24.1421 124.299 27.0021 123.222 30.3591C122.63 32.197 122.306 34.1107 122.263 36.0409Z" fill="#F2DFE7"/>
<path d="M131.772 23.1414C139.99 25.8932 143.938 12.7446 134.271 12.5613C127.467 12.4329 125.978 21.1986 131.772 23.1414Z" fill="#F2DFE7"/>
<path d="M143.01 25.038C142.566 25.038 142.021 24.8312 141.505 24.6017C140.11 23.9775 138.298 23.131 137.203 22.5877C136.841 22.411 136.547 22.1185 136.368 21.7562C136.189 21.394 136.136 20.9826 136.216 20.5867C136.505 19.2004 137.439 18.3681 138.842 18.2445C139.961 18.1446 141.112 19.7128 142.619 21.9385C142.812 22.2215 142.995 22.4925 143.167 22.7375C143.663 23.4508 144.117 24.2403 143.689 24.7586C143.605 24.8542 143.501 24.9291 143.382 24.9775C143.264 25.026 143.137 25.0467 143.01 25.038ZM138.927 19.1921C137.934 19.28 137.351 19.7996 137.145 20.7805C137.108 20.9693 137.136 21.1649 137.221 21.3368C137.308 21.5087 137.448 21.6476 137.62 21.7316C138.708 22.2702 140.504 23.1096 141.889 23.729C142.195 23.877 142.517 23.9904 142.848 24.0667C142.723 23.7886 142.567 23.5248 142.385 23.2796C142.211 23.0311 142.029 22.7565 141.829 22.4688C141.3 21.6876 140.7 20.8043 140.132 20.1385C139.329 19.2028 138.985 19.1873 138.923 19.1873L138.927 19.1921Z" fill="#181E32"/>
<path d="M132.263 18.0752C131.906 18.0716 131.559 17.9523 131.274 17.7352C130.99 17.5182 130.782 17.2149 130.684 16.8705C130.663 16.8085 130.656 16.743 130.662 16.6781C130.668 16.6132 130.687 16.5501 130.719 16.4927C130.75 16.4354 130.792 16.3849 130.842 16.3443C130.894 16.3038 130.952 16.2741 131.016 16.257C131.078 16.2397 131.143 16.2356 131.208 16.2446C131.273 16.2536 131.334 16.2756 131.389 16.3094C131.446 16.3431 131.494 16.3878 131.532 16.4408C131.57 16.4937 131.596 16.5539 131.61 16.6175C131.656 16.7574 131.743 16.8799 131.859 16.969C131.976 17.0582 132.116 17.1095 132.263 17.1163C132.41 17.1103 132.551 17.0589 132.668 16.9692C132.785 16.8795 132.871 16.7558 132.914 16.6151C132.948 16.4916 133.029 16.3865 133.139 16.3227C133.194 16.2913 133.255 16.2708 133.317 16.2627C133.38 16.2546 133.443 16.2589 133.505 16.2754C133.566 16.2919 133.622 16.3203 133.673 16.359C133.723 16.3977 133.765 16.4459 133.797 16.5008C133.828 16.5557 133.848 16.6163 133.857 16.6792C133.864 16.742 133.86 16.8058 133.843 16.8669C133.746 17.2129 133.539 17.518 133.256 17.7367C132.971 17.9554 132.624 18.0758 132.264 18.08L132.263 18.0752Z" fill="#181E32"/>
<path d="M137.059 16.7997C136.843 16.8038 136.627 16.7632 136.428 16.6805C136.227 16.5977 136.048 16.4748 135.899 16.3195C135.816 16.227 135.773 16.106 135.78 15.9826C135.787 15.8592 135.843 15.7433 135.935 15.6601C136.028 15.577 136.151 15.5333 136.276 15.5385C136.402 15.5437 136.52 15.5973 136.606 15.6877C136.779 15.8744 137.066 15.885 137.277 15.8333C137.488 15.7817 137.736 15.6384 137.798 15.393C137.814 15.3331 137.841 15.277 137.88 15.2276C137.918 15.1783 137.964 15.1367 138.019 15.1052C138.073 15.0739 138.132 15.0532 138.195 15.0446C138.257 15.0359 138.32 15.0395 138.381 15.0548C138.441 15.0702 138.499 15.0974 138.549 15.1345C138.599 15.1716 138.642 15.2181 138.673 15.2714C138.705 15.3246 138.727 15.3834 138.735 15.4446C138.743 15.5057 138.74 15.568 138.724 15.6279C138.644 15.9055 138.489 16.1566 138.274 16.3542C138.061 16.5519 137.796 16.6888 137.51 16.7504C137.362 16.785 137.21 16.8016 137.059 16.7997Z" fill="#181E32"/>
<path d="M137.626 53.5199C137.509 53.5207 137.396 53.4778 137.308 53.3994C137.22 53.3211 137.164 53.2129 137.151 53.0958C136.591 48.0293 133.845 43.1546 129.805 40.0549C129.705 39.9779 129.64 39.8643 129.623 39.7389C129.607 39.6136 129.641 39.4869 129.717 39.3866C129.794 39.2863 129.907 39.2206 130.032 39.2041C130.157 39.1875 130.284 39.2214 130.384 39.2984C134.625 42.553 137.509 47.6707 138.096 52.991C138.11 53.1165 138.074 53.2421 137.995 53.3407C137.917 53.4391 137.801 53.5023 137.676 53.5164L137.626 53.5199Z" fill="#181E32"/>
<path d="M148.262 49.8397C148.153 49.8397 148.047 49.8028 147.963 49.7351C147.879 49.6674 147.819 49.5729 147.795 49.4671C147.228 47.0414 146.154 44.7624 144.645 42.7792C143.135 40.7959 141.223 39.1531 139.034 37.9582C138.973 37.9325 138.917 37.894 138.871 37.8456C138.825 37.797 138.79 37.7394 138.767 37.6765C138.746 37.6135 138.736 37.5467 138.742 37.4802C138.747 37.4135 138.766 37.3489 138.798 37.2902C138.829 37.2315 138.874 37.1801 138.926 37.1394C138.98 37.0986 139.04 37.0694 139.106 37.0536C139.17 37.0377 139.237 37.0357 139.303 37.0475C139.369 37.0594 139.432 37.0849 139.487 37.1223C141.797 38.3824 143.813 40.1149 145.405 42.2066C146.999 44.2982 148.13 46.702 148.728 49.2605C148.757 49.3839 148.734 49.5134 148.667 49.6207C148.6 49.7279 148.492 49.8041 148.369 49.8325C148.333 49.8385 148.297 49.8409 148.262 49.8397Z" fill="#181E32"/>
<path d="M135.068 58.7504C134.903 60.8081 137.449 60.2516 138.72 60.4675C142.308 61.0775 141.227 58.5427 140.382 56.5515C137.967 50.9562 135.474 53.6559 135.068 58.7504Z" fill="#181E32"/>
<path d="M139.686 61.04C139.337 61.0365 138.988 61.0039 138.644 60.9425C138.322 60.9012 137.998 60.8807 137.673 60.8807C136.709 60.8581 135.615 60.8307 135 60.1448C134.68 59.7882 134.542 59.3067 134.589 58.7183C134.852 55.423 135.918 53.2261 137.369 52.9836C138.602 52.7779 139.763 53.9168 140.821 56.368C141.436 57.8112 142.123 59.4363 141.369 60.4028C141.033 60.8284 140.483 61.04 139.686 61.04ZM137.633 53.9073C137.596 53.907 137.56 53.9098 137.524 53.9156C136.717 54.0499 135.774 55.7677 135.532 58.7896C135.506 59.1153 135.562 59.3495 135.703 59.5029C136.046 59.8857 136.923 59.9071 137.697 59.9249C138.066 59.9249 138.436 59.9498 138.801 59.9998C139.748 60.1615 140.401 60.0925 140.625 59.806C141.036 59.2829 140.411 57.8148 139.955 56.7425C139.181 54.9522 138.323 53.9096 137.633 53.9096V53.9073Z" fill="#181E32"/>
<path d="M145.559 55.7364C145.564 55.8328 145.583 55.9278 145.613 56.0192C146.046 57.2342 148.334 56.9023 149.458 57.1647C152.511 57.8837 151.493 55.039 151.31 54.1691C150.805 51.7726 149.827 49.5978 148.33 49.6002C148.051 49.5946 147.778 49.6786 147.55 49.8399C145.921 51.0393 145.427 53.824 145.559 55.7364Z" fill="#181E32"/>
<path d="M150.321 57.76C149.994 57.7569 149.67 57.7166 149.353 57.6401C148.988 57.5724 148.618 57.5324 148.247 57.5201C147.055 57.4446 145.578 57.351 145.165 56.1853C145.119 56.053 145.092 55.915 145.084 55.7752C144.929 53.5433 145.545 50.7226 147.272 49.4489C147.582 49.2282 147.954 49.1131 148.334 49.1203C150.43 49.1203 151.391 52.2229 151.78 54.0734C151.797 54.1537 151.821 54.2521 151.849 54.3624C152.05 55.1695 152.387 56.5211 151.634 57.2911C151.326 57.6017 150.886 57.76 150.321 57.76ZM148.337 50.0761C148.159 50.0705 147.985 50.1204 147.837 50.2189C146.406 51.2706 145.904 53.7999 146.036 55.7044C146.039 55.7569 146.048 55.809 146.064 55.8591C146.267 56.4288 147.399 56.5007 148.308 56.5583C148.731 56.5729 149.154 56.6203 149.57 56.6998C150.253 56.8605 150.744 56.8293 150.956 56.6147C151.332 56.2285 151.057 55.1227 150.925 54.5915C150.893 54.4715 150.867 54.3588 150.848 54.2689C150.295 51.6436 149.356 50.0761 148.337 50.0761Z" fill="#181E32"/>
<path d="M111.929 43.52C111.418 43.52 111.091 43.3774 110.896 43.0959C110.431 42.4179 111.043 41.4189 112.257 39.9251C114.513 37.1496 115.97 32.9162 117.038 29.8256C117.517 28.4456 117.889 27.3567 118.235 26.6955C119.448 24.3572 120.87 22.8922 122.46 22.3411C123.177 22.0869 123.947 22.0168 124.699 22.1374C125.451 22.258 126.16 22.5652 126.763 23.0311C127.446 23.5607 127.99 24.2493 128.347 25.0369C128.704 25.8246 128.863 26.6876 128.81 27.5508C128.807 27.6137 128.79 27.6753 128.762 27.7318C128.735 27.7885 128.697 27.8391 128.649 27.8808C128.602 27.9225 128.547 27.9545 128.487 27.975C128.427 27.9954 128.365 28.0038 128.301 28C128.239 27.9961 128.177 27.9798 128.121 27.9521C128.064 27.9243 128.013 27.8857 127.972 27.8384C127.93 27.7912 127.898 27.7361 127.878 27.6765C127.857 27.6169 127.849 27.5538 127.852 27.4909C127.894 26.7852 127.764 26.08 127.472 25.4364C127.179 24.7927 126.735 24.2302 126.176 23.7978C125.702 23.424 125.14 23.1776 124.544 23.0818C123.947 22.9861 123.337 23.044 122.769 23.2503C121.417 23.7187 120.176 25.0268 119.079 27.1411C118.768 27.7401 118.385 28.8529 117.941 30.1359C116.851 33.2947 115.36 37.6215 112.997 40.5288C111.884 41.8992 111.714 42.3856 111.698 42.5425C111.839 42.5832 112.375 42.6347 114.117 42.0633C114.576 41.8947 115.016 41.6824 115.434 41.4297C115.586 41.3434 115.737 41.2596 115.886 41.1805C119.708 39.1548 122.88 35.4845 123.478 34.7693C123.559 34.6717 123.677 34.6106 123.802 34.5992C123.929 34.5879 124.055 34.6273 124.153 34.7088C124.25 34.7903 124.311 34.9072 124.323 35.0338C124.334 35.1603 124.295 35.2862 124.213 35.3839C123.345 36.4224 120.215 39.9718 116.334 42.0274C116.192 42.1029 116.049 42.1831 115.903 42.267C115.431 42.5532 114.93 42.7908 114.409 42.9761C113.311 43.3403 112.505 43.52 111.929 43.52Z" fill="#181E32"/>
<path d="M63.705 48.4775C63.5782 48.4792 63.4558 48.4294 63.3651 48.3392C63.2742 48.249 63.2223 48.1258 63.2207 47.9966C63.2191 47.8676 63.268 47.743 63.3566 47.6505C63.4452 47.5581 63.5662 47.5053 63.6931 47.5036C67.0855 47.4147 70.5233 47.2601 73.911 47.0409C73.9737 47.0369 74.0367 47.0454 74.0963 47.0661C74.1558 47.0868 74.2109 47.1193 74.2581 47.1617C74.3053 47.2039 74.3439 47.2554 74.3717 47.3129C74.3994 47.3705 74.4157 47.4329 74.4198 47.4969C74.4237 47.5609 74.4153 47.6249 74.395 47.6857C74.3747 47.7463 74.3427 47.8022 74.3011 47.8504C74.2596 47.8985 74.2091 47.9377 74.1526 47.966C74.0961 47.9942 74.0347 48.0109 73.9719 48.0149C70.5724 48.234 67.1226 48.3911 63.7182 48.48L63.705 48.4775Z" fill="white"/>
<path d="M76.6065 47.9192C76.4792 47.9263 76.3544 47.8815 76.2595 47.7947C76.1646 47.7078 76.1073 47.5858 76.1003 47.4559C76.0934 47.3258 76.1371 47.1982 76.2222 47.1013C76.3072 47.0042 76.4265 46.9457 76.5537 46.9386L78.438 46.7241C78.5012 46.7157 78.5655 46.7202 78.6269 46.7375C78.6884 46.7548 78.746 46.7844 78.7962 46.8246C78.8463 46.8648 78.888 46.915 78.9191 46.972C78.95 47.0288 78.9697 47.0916 78.9767 47.1563C78.9837 47.2212 78.978 47.2866 78.96 47.3491C78.9419 47.4116 78.9118 47.4699 78.8715 47.5204C78.8312 47.5709 78.7814 47.6125 78.725 47.6432C78.6688 47.6738 78.607 47.6926 78.5436 47.6986L76.6593 47.9131C76.6419 47.9163 76.6242 47.9184 76.6065 47.9192Z" fill="white"/>
<path d="M83.9576 47.8396C83.8954 47.842 83.832 47.8324 83.7734 47.8117C83.7148 47.791 83.6598 47.7593 83.6144 47.7186C83.5677 47.678 83.5307 47.6291 83.5043 47.5747C83.478 47.5203 83.4637 47.4616 83.4613 47.4017C83.4589 47.3419 83.4685 47.2822 83.49 47.226C83.5115 47.1699 83.545 47.1183 83.5881 47.0744C83.6299 47.0305 83.6814 46.9949 83.7388 46.9699C83.7962 46.9448 83.8584 46.9308 83.9205 46.9284C86.6486 46.7221 89.3862 46.6689 92.1202 46.7689C92.2469 46.7736 92.3665 46.8261 92.4526 46.915C92.5388 47.0037 92.5854 47.1213 92.5806 47.2422C92.5746 47.363 92.5196 47.4771 92.4263 47.5592C92.3342 47.6413 92.2098 47.6848 92.0831 47.6801C89.3862 47.5824 86.6856 47.6356 83.9959 47.8396H83.9576Z" fill="white"/>
<path d="M28.3198 148.919C28.4063 150.042 28.5819 151.464 29.6748 151.781C30.2543 151.949 30.8686 151.705 31.4782 151.703C31.923 151.703 32.3871 151.822 32.8007 151.671C33.7277 151.322 33.6423 149.998 33.2997 149.077C32.3935 146.654 30.922 144.478 29.0051 142.724C28.5686 142.325 26.5897 140.347 25.9597 141.017C25.6363 141.359 26.1845 142.106 26.3456 142.396C26.6886 143.01 26.991 143.646 27.2509 144.298C27.8372 145.777 28.1974 147.334 28.3198 148.919Z" fill="white"/>
<path d="M89.6198 150.171C90.4218 150.099 91.3003 150.052 91.9505 150.529C92.5302 150.949 92.78 151.674 93.1075 152.317C93.6227 153.317 94.39 154.166 95.3331 154.782C96.2761 155.397 97.3638 155.757 98.4885 155.827C99.6144 155.898 100.738 155.675 101.75 155.181C102.764 154.688 103.63 153.94 104.266 153.012C104.772 152.275 105.208 151.364 106.059 151.104C106.451 150.985 106.872 151.027 107.28 151.07L149.519 155.503C150.14 155.569 150.79 155.629 151.366 155.393C151.942 155.157 152.405 154.516 152.217 153.922C151.996 153.22 151.105 153.033 150.37 152.969C137.303 151.722 124.278 150.102 111.299 148.106C108.413 147.663 105.153 147.291 102.855 149.087C101.949 149.794 101.289 150.784 100.359 151.46C99.4292 152.135 98.0152 152.413 97.1905 151.609C96.5546 150.992 96.514 149.996 96.0968 149.216C95.1012 147.359 92.4932 147.316 90.3919 147.526L71.6387 149.397L62.2094 150.339C59.4807 150.611 56.6001 150.65 53.9228 151.26C52.2495 151.643 49.8016 152.051 48.4175 153.113C46.6892 154.439 50.1375 154.694 51.0064 154.717C57.0782 154.883 63.2517 153.92 69.2374 153.019C75.2854 152.108 81.3093 151.05 87.3967 150.396C88.1389 150.308 88.8799 150.233 89.6198 150.171Z" fill="#FF6800"/>
<path d="M99.5391 148.24C99.4625 148.24 99.3871 148.222 99.3202 148.186C99.252 148.151 99.1934 148.101 99.1491 148.039C99.1049 147.977 99.0762 147.905 99.0654 147.83C99.0546 147.754 99.0618 147.677 99.0869 147.605C102.236 138.524 107.711 131.908 116.841 126.158C125.312 120.821 135.824 120.288 144.03 120.416C144.094 120.417 144.155 120.43 144.213 120.455C144.271 120.48 144.322 120.516 144.367 120.562C144.41 120.607 144.444 120.66 144.467 120.719C144.491 120.777 144.502 120.839 144.5 120.903C144.498 121.03 144.445 121.15 144.355 121.238C144.264 121.326 144.142 121.374 144.015 121.373C135.939 121.244 125.609 121.764 117.351 126.965C108.418 132.588 103.064 139.054 99.9912 147.916C99.9589 148.01 99.8979 148.092 99.8178 148.15C99.7364 148.209 99.6395 148.24 99.5391 148.24Z" fill="#1B5EC9"/>
<path d="M103.538 146.32C103.449 146.32 103.361 146.295 103.286 146.247C103.21 146.201 103.149 146.134 103.109 146.054C103.07 145.973 103.054 145.885 103.063 145.795C103.071 145.707 103.105 145.623 103.159 145.552C108.827 138.222 115.141 133.469 122.462 131.022C129.117 128.798 136.513 128.527 145.073 130.196C145.198 130.22 145.307 130.292 145.379 130.397C145.45 130.502 145.476 130.631 145.452 130.755C145.427 130.88 145.354 130.99 145.249 131.06C145.144 131.13 145.015 131.157 144.891 131.133C127.475 127.737 114.455 132.504 103.922 146.134C103.876 146.192 103.819 146.24 103.752 146.272C103.685 146.304 103.612 146.32 103.538 146.32Z" fill="#1B5EC9"/>
<path d="M107.7 144.88C107.598 144.88 107.498 144.848 107.415 144.787C107.334 144.727 107.273 144.641 107.242 144.544C107.212 144.446 107.213 144.34 107.247 144.245C107.28 144.148 107.345 144.064 107.428 144.007C119.329 135.82 131.718 135.681 141.181 136.471C141.244 136.476 141.305 136.494 141.361 136.522C141.417 136.551 141.466 136.592 141.507 136.639C141.548 136.687 141.579 136.744 141.598 136.803C141.617 136.863 141.624 136.927 141.619 136.989C141.613 137.052 141.597 137.113 141.567 137.169C141.538 137.226 141.499 137.275 141.451 137.315C141.403 137.357 141.347 137.387 141.287 137.406C141.228 137.425 141.164 137.433 141.101 137.428C131.797 136.648 119.622 136.779 107.969 144.794C107.891 144.849 107.796 144.879 107.7 144.88Z" fill="#1B5EC9"/>
<path d="M147.543 148.24C147.474 148.24 147.407 148.226 147.343 148.197C136.602 143.232 121.58 144.057 111.105 146.484C111.043 146.501 110.978 146.506 110.913 146.496C110.85 146.488 110.788 146.466 110.733 146.434C110.678 146.4 110.63 146.356 110.592 146.303C110.554 146.251 110.527 146.191 110.512 146.128C110.497 146.065 110.496 146 110.508 145.936C110.519 145.872 110.543 145.811 110.579 145.757C110.613 145.703 110.66 145.656 110.714 145.62C110.768 145.584 110.827 145.56 110.891 145.548C121.519 143.084 136.782 142.256 147.743 147.322C147.842 147.368 147.922 147.446 147.97 147.545C148.019 147.644 148.032 147.754 148.009 147.861C147.985 147.968 147.927 148.064 147.842 148.133C147.757 148.202 147.652 148.24 147.543 148.24Z" fill="#1B5EC9"/>
<path d="M98.1014 144.88C97.9951 144.88 97.8923 144.844 97.8087 144.779C97.7251 144.715 97.6653 144.624 97.6391 144.521C95.227 135.244 87.3648 126.135 85.0064 123.563C81.0305 119.22 74.934 115.479 66.8866 112.445C66.769 112.4 66.6739 112.31 66.6221 112.195C66.5704 112.079 66.5662 111.949 66.6105 111.83C66.6549 111.712 66.744 111.616 66.8587 111.563C66.9733 111.511 67.104 111.506 67.2223 111.549C75.4119 114.637 81.6327 118.461 85.7113 122.918C88.1007 125.53 96.0967 134.79 98.5649 144.28C98.5805 144.341 98.584 144.405 98.5757 144.467C98.5673 144.529 98.5458 144.589 98.5148 144.643C98.4825 144.698 98.4407 144.745 98.3905 144.783C98.3403 144.821 98.283 144.849 98.2221 144.864C98.1826 144.875 98.142 144.88 98.1014 144.88Z" fill="#1B5EC9"/>
<path d="M94.9812 143.28C94.9105 143.28 94.8411 143.264 94.7764 143.235C94.7129 143.205 94.6566 143.16 94.6111 143.107C87.1486 134.083 78.0839 128.697 66.7674 123.388C66.6548 123.333 66.5685 123.235 66.5269 123.116C66.4855 122.998 66.4921 122.869 66.5455 122.755C66.5988 122.641 66.6946 122.554 66.8122 122.51C66.9299 122.467 67.06 122.47 67.1746 122.522C78.6073 127.885 87.7738 133.335 95.3501 142.498C95.4315 142.596 95.4698 142.721 95.4578 142.848C95.4459 142.974 95.3836 143.09 95.2854 143.171C95.2004 143.242 95.0926 143.28 94.9812 143.28Z" fill="#1B5EC9"/>
<path d="M91.5396 143.28C91.4476 143.28 91.3567 143.252 91.279 143.202C80.8797 136.439 64.7167 130.306 50.5187 133.363C50.3947 133.389 50.2652 133.366 50.1585 133.297C50.052 133.229 49.9771 133.12 49.9503 132.996C49.9234 132.873 49.947 132.743 50.0157 132.637C50.0844 132.53 50.1927 132.455 50.3167 132.429C64.8016 129.305 81.2443 135.534 91.8026 142.402C91.8886 142.458 91.9544 142.541 91.9903 142.638C92.0261 142.734 92.0285 142.839 91.9998 142.938C91.9699 143.038 91.9102 143.124 91.8265 143.186C91.744 143.247 91.6436 143.28 91.5408 143.28H91.5396Z" fill="#1B5EC9"/>
<path d="M47.2993 147.36C47.1859 147.36 47.0761 147.321 46.9895 147.247C46.903 147.174 46.8453 147.073 46.8268 146.961C46.8081 146.85 46.8301 146.734 46.8884 146.638C46.9468 146.541 47.0378 146.467 47.1453 146.432C54.4148 143.965 62 142.547 69.6714 142.219C77.6618 141.903 85.2292 142.853 92.1663 145.039C92.226 145.058 92.2821 145.087 92.3299 145.128C92.3776 145.169 92.4171 145.217 92.4469 145.273C92.4756 145.328 92.4935 145.389 92.4983 145.452C92.5042 145.514 92.4971 145.577 92.478 145.637C92.4589 145.696 92.429 145.751 92.3884 145.8C92.3478 145.848 92.2988 145.887 92.2427 145.916C92.1878 145.945 92.1269 145.962 92.0636 145.968C92.0015 145.974 91.9382 145.967 91.8785 145.948C78.5718 141.756 62.382 142.261 47.4546 147.335C47.4044 147.352 47.3521 147.36 47.2993 147.36Z" fill="#1B5EC9"/>
<path d="M156.073 132.16H156.045C155.983 132.156 155.922 132.141 155.866 132.113C155.81 132.086 155.759 132.048 155.717 132.001C155.676 131.954 155.644 131.899 155.624 131.84C155.603 131.781 155.594 131.718 155.597 131.655C155.907 125.637 153.929 119.724 150.064 115.121C150.021 115.073 149.988 115.018 149.966 114.957C149.945 114.896 149.937 114.832 149.94 114.768C149.945 114.704 149.962 114.641 149.99 114.584C150.019 114.527 150.058 114.475 150.107 114.433C150.155 114.393 150.212 114.36 150.273 114.341C150.333 114.322 150.398 114.316 150.462 114.322C150.525 114.328 150.586 114.347 150.642 114.378C150.698 114.409 150.748 114.451 150.787 114.502C154.81 119.291 156.87 125.444 156.546 131.708C156.541 131.83 156.487 131.945 156.399 132.028C156.311 132.112 156.194 132.16 156.073 132.16Z" fill="#181E32"/>
<path d="M160.017 128C159.897 128 159.781 127.957 159.693 127.878C159.604 127.799 159.547 127.691 159.534 127.574C159.242 124.903 158.633 122.275 157.723 119.745C157.684 119.627 157.694 119.498 157.749 119.387C157.805 119.275 157.901 119.189 158.02 119.148C158.138 119.106 158.268 119.112 158.382 119.163C158.497 119.214 158.586 119.308 158.632 119.424C159.57 122.024 160.196 124.725 160.496 127.471C160.511 127.596 160.473 127.723 160.392 127.822C160.313 127.92 160.197 127.983 160.069 127.998L160.017 128Z" fill="#181E32"/>
<path d="M54.0998 114.24C54.0205 114.24 53.9424 114.22 53.8726 114.183C53.8028 114.145 53.7435 114.091 53.6999 114.025C53.6564 113.959 53.6299 113.884 53.6229 113.805C53.616 113.726 53.6287 113.648 53.6601 113.575C55.9403 108.309 59.7707 103.853 64.6472 100.793C64.7005 100.76 64.7599 100.737 64.822 100.726C64.884 100.717 64.9475 100.718 65.0089 100.732C65.0702 100.746 65.1282 100.771 65.1795 100.808C65.2309 100.844 65.2745 100.891 65.3079 100.943C65.3414 100.997 65.3639 101.055 65.3744 101.117C65.3849 101.179 65.3831 101.242 65.3689 101.303C65.3549 101.364 65.3289 101.422 65.2924 101.473C65.2559 101.524 65.2097 101.567 65.1564 101.601C60.4457 104.557 56.7459 108.863 54.5443 113.952C54.5069 114.037 54.4449 114.111 54.3658 114.162C54.2867 114.214 54.1942 114.241 54.0998 114.24Z" fill="#181E32"/>
<path d="M56.1729 104C56.077 104 55.983 103.971 55.904 103.916C55.8248 103.861 55.7641 103.782 55.73 103.69C55.6959 103.599 55.69 103.5 55.713 103.405C55.736 103.31 55.787 103.225 55.859 103.16L57.713 101.481C57.807 101.396 57.9301 101.354 58.0552 101.361C58.1804 101.369 58.2974 101.427 58.3804 101.521C58.4635 101.617 58.506 101.742 58.4983 101.869C58.4907 101.997 58.4337 102.115 58.3397 102.2L56.4857 103.88C56.3993 103.957 56.2881 104 56.1729 104Z" fill="#181E32"/>
<path d="M50.8407 155.114C50.2454 155.134 49.6499 155.08 49.0677 154.955C48.8577 154.901 48.6612 154.804 48.4899 154.672C48.3187 154.539 48.1765 154.373 48.072 154.184C47.7325 153.593 47.6881 153.049 47.94 152.565C48.6838 151.142 51.8208 150.787 56.8784 150.326C57.9653 150.228 59.0894 150.125 60.2038 150.003C60.2668 149.996 60.3305 150.002 60.3914 150.019C60.4523 150.036 60.5091 150.066 60.5585 150.106C60.608 150.145 60.6491 150.195 60.6797 150.25C60.7102 150.305 60.7295 150.366 60.7365 150.429C60.7433 150.491 60.7378 150.556 60.7201 150.616C60.7024 150.677 60.6729 150.733 60.6332 150.784C60.5936 150.833 60.5445 150.873 60.489 150.904C60.4334 150.934 60.3724 150.954 60.3094 150.961C59.1853 151.08 58.0565 151.187 56.9648 151.286C53.2112 151.628 49.3304 151.981 48.7918 153.014C48.7546 153.086 48.6538 153.277 48.9045 153.714C48.9456 153.791 49.0017 153.859 49.0698 153.913C49.1379 153.968 49.2163 154.008 49.3004 154.032C49.8306 154.163 50.4149 154.162 50.9799 154.162L56.7381 154.154C56.8654 154.154 56.9874 154.204 57.0773 154.294C57.1673 154.384 57.2179 154.506 57.2179 154.633C57.2179 154.76 57.1673 154.882 57.0773 154.972C56.9874 155.061 56.8654 155.112 56.7381 155.112H56.7225L50.9823 155.12L50.8407 155.114Z" fill="#181E32"/>
<path d="M60.1994 154.799C60.0729 154.805 59.949 154.761 59.8553 154.677C59.7616 154.593 59.7057 154.475 59.6997 154.351C59.6939 154.226 59.7387 154.105 59.824 154.013C59.9095 153.921 60.0287 153.866 60.1553 153.86C61.1535 153.768 62.1636 153.656 63.1583 153.524C63.2839 153.508 63.4109 153.541 63.5116 153.616C63.6122 153.692 63.6783 153.804 63.695 153.927C63.7118 154.05 63.678 154.176 63.6011 154.275C63.5242 154.374 63.4104 154.439 63.2848 154.455C62.2783 154.589 61.255 154.703 60.2436 154.796L60.1994 154.799Z" fill="#181E32"/>
<path d="M93.7049 153.84C93.6009 153.84 93.4992 153.806 93.4167 153.743C92.8464 153.313 92.5977 152.657 92.3789 152.079L92.312 151.904C92.0525 151.235 91.7727 150.871 91.4284 150.759C91.2168 150.689 90.943 150.711 90.6787 150.731C85.7658 151.109 69.7851 153.209 67.8924 153.666C67.8313 153.681 67.7679 153.684 67.7058 153.674C67.6437 153.664 67.5841 153.643 67.5304 153.611C67.4768 153.577 67.43 153.536 67.3929 153.485C67.3559 153.435 67.3291 153.378 67.3143 153.316C67.2994 153.255 67.2968 153.192 67.3065 153.13C67.3162 153.069 67.3379 153.01 67.3706 152.957C67.4033 152.903 67.4463 152.857 67.4971 152.82C67.5478 152.783 67.6053 152.756 67.6664 152.742C69.5794 152.281 85.6678 150.163 90.6058 149.782C90.9286 149.757 91.3327 149.726 91.7273 149.856C92.5642 150.129 92.972 150.96 93.2039 151.563C93.2278 151.622 93.2506 151.682 93.2733 151.743C93.4646 152.246 93.6439 152.722 93.9907 152.985C94.0708 153.046 94.1293 153.129 94.1592 153.224C94.1891 153.319 94.1879 153.422 94.1557 153.517C94.1234 153.611 94.0624 153.693 93.9811 153.751C93.8998 153.809 93.8017 153.84 93.7013 153.84H93.7049Z" fill="#181E32"/>
<path d="M98.7516 156.319C97.6714 156.336 96.6151 156.01 95.7335 155.389C95.6832 155.352 95.6402 155.306 95.6079 155.252C95.5756 155.199 95.554 155.139 95.5445 155.077C95.5253 154.953 95.5576 154.825 95.633 154.723C95.7083 154.622 95.8208 154.554 95.9464 154.535C96.072 154.516 96.2 154.548 96.3017 154.623C97.4142 155.439 99.0531 155.598 100.564 155.039C101.84 154.564 103.063 153.612 104.198 152.202C104.423 151.922 105.213 150.983 105.903 150.686C106.366 150.487 106.917 150.432 107.588 150.521C110.829 150.952 113.809 151.267 116.968 151.6C118.614 151.775 120.318 151.957 122.074 152.154C122.201 152.168 122.315 152.231 122.394 152.33C122.473 152.428 122.51 152.554 122.496 152.679C122.482 152.805 122.417 152.92 122.318 152.998C122.219 153.077 122.093 153.113 121.966 153.099C120.211 152.901 118.511 152.721 116.866 152.547C113.704 152.213 110.715 151.897 107.462 151.465C106.967 151.399 106.582 151.43 106.283 151.559C105.924 151.715 105.337 152.309 104.946 152.796C103.701 154.342 102.338 155.399 100.896 155.932C100.21 156.186 99.4837 156.317 98.7516 156.319Z" fill="#181E32"/>
<path d="M125.904 153.508C125.88 153.509 125.855 153.509 125.831 153.508L124.345 153.28C124.22 153.26 124.107 153.192 124.032 153.089C123.957 152.985 123.926 152.856 123.945 152.73C123.963 152.603 124.031 152.49 124.134 152.414C124.235 152.338 124.363 152.306 124.489 152.326L125.976 152.554C126.103 152.563 126.221 152.623 126.303 152.72C126.386 152.818 126.428 152.944 126.418 153.072C126.409 153.2 126.349 153.318 126.253 153.403C126.156 153.486 126.031 153.528 125.904 153.519V153.508Z" fill="#181E32"/>
<path d="M148.814 155.76C146.499 155.76 143.096 155.41 138.704 154.854C137.995 154.764 137.381 154.687 136.865 154.621C136.198 154.543 134.315 154.376 134.296 154.375C134.169 154.363 134.052 154.304 133.97 154.208C133.889 154.112 133.85 153.989 133.861 153.865C133.872 153.742 133.934 153.627 134.033 153.548C134.129 153.469 134.256 153.43 134.383 153.442C134.461 153.449 136.297 153.612 136.979 153.692C137.499 153.752 138.114 153.83 138.827 153.925C141.1 154.21 144.203 154.602 146.797 154.758C150.871 155.003 151.408 154.504 151.462 154.437C151.443 154.314 151.473 154.191 151.547 154.09C151.621 153.99 151.734 153.924 151.858 153.904C151.983 153.884 152.111 153.913 152.212 153.984C152.315 154.055 152.385 154.164 152.406 154.285C152.431 154.43 152.42 154.579 152.375 154.72C152.33 154.86 152.249 154.987 152.143 155.092C151.682 155.561 150.558 155.76 148.814 155.76Z" fill="#181E32"/>
<path d="M18.8969 138.72C18.7784 138.72 18.6639 138.677 18.5756 138.598C18.4874 138.519 18.4316 138.411 18.4192 138.292C16.6278 121.302 17.1306 106.137 20.1126 87.585C22.2407 74.3691 25.6538 62.1769 30.26 51.3451C35.4561 39.129 42.2131 28.5659 50.3446 19.9485C56.9893 12.9076 63.5803 8.25908 70.4961 5.73536C74.4908 4.27941 78.7518 3.57353 82.8168 3.69297C87.2211 3.82316 91.2469 4.8766 94.7842 6.82582C98.4887 8.89759 101.526 11.9836 103.538 15.7216C105.646 19.6439 106.387 23.8314 105.682 27.829C105.66 27.9538 105.59 28.0647 105.486 28.1374C105.382 28.2101 105.253 28.2385 105.129 28.2166C105.003 28.1945 104.892 28.1239 104.819 28.02C104.748 27.9162 104.719 27.7878 104.74 27.663C106.068 20.1384 101.687 11.7228 94.322 7.66308C87.7609 4.0477 78.9764 3.6655 70.8233 6.63831C64.0508 9.10589 57.5805 13.6756 51.0396 20.6054C35.6926 36.868 25.6025 59.4549 21.0644 87.7367C18.0967 106.202 17.5916 121.292 19.3781 138.192C19.3847 138.254 19.379 138.317 19.3612 138.377C19.3434 138.438 19.3139 138.494 19.2745 138.543C19.2349 138.592 19.1862 138.632 19.1311 138.663C19.0759 138.693 19.0153 138.71 18.953 138.718L18.8969 138.72Z" fill="#181E32"/>
</g>
<defs>
<clipPath id="clip0_165_2925">
<rect width="160" height="160" fill="white" transform="translate(0.5)"/>
</clipPath>
</defs>
</svg>
