<svg width="161" height="160" viewBox="0 0 161 160" fill="none" xmlns="http://www.w3.org/2000/svg">
<path d="M148.379 75.28C148.271 75.2809 148.166 75.2415 148.085 75.1696C148.004 75.0977 147.951 74.9981 147.938 74.8898C146.625 64.1412 146.391 53.2865 147.239 42.4906C147.249 42.3727 147.305 42.2633 147.394 42.1866C147.483 42.1098 147.599 42.072 147.716 42.0814C147.833 42.0909 147.942 42.1468 148.019 42.2369C148.095 42.3269 148.132 42.4438 148.122 42.5617C147.278 53.2976 147.511 64.092 148.817 74.7808C148.824 74.8389 148.82 74.8977 148.804 74.9539C148.789 75.0102 148.762 75.0629 148.727 75.1089C148.691 75.1549 148.647 75.1934 148.596 75.2222C148.546 75.251 148.49 75.2695 148.432 75.2767C148.415 75.2788 148.397 75.28 148.379 75.28Z" fill="black"/>
<path d="M38.135 63.6C37.0224 63.6 35.7985 63.3304 34.4967 62.788C30.514 61.1321 27.1478 58.2714 24.8692 54.6059C21.7772 49.5737 21.0139 43.2138 22.8286 37.5923C22.9933 37.08 23.2113 36.5643 23.6809 36.2558C24.1204 35.9684 24.9048 35.7857 26.1431 36.552C28.7978 38.1927 30.7049 40.7188 32.2225 43.324C31.5775 40.0839 31.5432 36.7517 32.1213 33.4991C32.9991 28.4568 35.2077 23.9035 38.5089 20.3293C39.2143 19.5652 40.0866 18.7621 41.2003 18.5939C43.6681 18.223 45.2703 20.9608 45.8934 23.4179C47.9217 31.4251 48.1632 40.1976 46.6133 49.4935C46.551 49.8688 46.4898 50.252 46.4263 50.6407C45.8422 54.2829 45.1791 58.4107 42.8337 61.3156C41.6075 62.8348 40.0154 63.6 38.135 63.6ZM25.6269 54.1381C27.8074 57.6445 31.0279 60.381 34.8383 61.9649C37.9804 63.2725 40.4371 62.866 42.1405 60.7564C44.3368 58.0365 44.9799 54.0323 45.5474 50.5004C45.6097 50.1091 45.672 49.7248 45.7343 49.3476C47.2642 40.1753 47.0272 31.5265 45.0289 23.6384C44.4982 21.5422 43.2108 19.1909 41.3316 19.4761C40.4916 19.6031 39.7917 20.2558 39.1609 20.9352C32.7009 27.9289 30.785 38.9389 34.5023 47.708C34.5513 47.8156 34.5556 47.9383 34.5143 48.049C34.4729 48.1596 34.3894 48.2494 34.282 48.2984C34.1745 48.3475 34.0521 48.3517 33.9415 48.3104C33.8309 48.269 33.7413 48.1854 33.6923 48.0778C31.8765 44.3666 29.6167 39.7476 25.6747 37.3105C25.2942 37.0766 24.5932 36.7236 24.166 37.0031C23.9167 37.1669 23.781 37.5344 23.6742 37.8663C21.9385 43.2427 22.6728 49.3264 25.6269 54.1381Z" fill="black"/>
<path d="M34.2935 56.56C34.1958 56.5598 34.1007 56.527 34.0232 56.4669C30.2544 53.5105 27.6046 49.3394 26.5164 44.6499C26.5002 44.5913 26.496 44.5301 26.5039 44.4698C26.5118 44.4096 26.5318 44.3517 26.5626 44.2994C26.5933 44.2472 26.6343 44.2017 26.6831 44.166C26.7317 44.1302 26.7871 44.1049 26.8458 44.0913C26.9046 44.0778 26.9654 44.0764 27.0246 44.0872C27.0839 44.0981 27.1404 44.121 27.1906 44.1546C27.2409 44.1881 27.2838 44.2316 27.3168 44.2824C27.3499 44.3331 27.3725 44.3902 27.383 44.45C28.4243 48.9363 30.9593 52.9264 34.565 55.7542C34.6391 55.8112 34.6936 55.8902 34.7207 55.9802C34.7479 56.0701 34.7463 56.1665 34.7164 56.2555C34.6863 56.3445 34.6294 56.4217 34.5535 56.4764C34.4776 56.5311 34.3868 56.5604 34.2935 56.56Z" fill="black"/>
<path d="M37.3652 44.3998C37.2583 44.3996 37.155 44.3621 37.0736 44.2937C36.9922 44.2254 36.938 44.1307 36.9206 44.0267C35.997 38.5097 36.6009 32.8489 38.6683 27.643C38.69 27.5886 38.7223 27.5388 38.7633 27.4966C38.8045 27.4544 38.8536 27.4207 38.9079 27.3972C38.9622 27.3738 39.0207 27.3612 39.0799 27.3601C39.1393 27.359 39.1982 27.3693 39.2533 27.3907C39.3085 27.4121 39.3589 27.444 39.4016 27.4845C39.4444 27.5251 39.4785 27.5736 39.5022 27.6272C39.526 27.6809 39.5388 27.7386 39.5399 27.7971C39.541 27.8557 39.5306 27.9138 39.5089 27.9683C37.5028 33.0253 36.918 38.5237 37.8165 43.8818C37.836 43.9984 37.8079 44.1178 37.7383 44.2139C37.6687 44.3101 37.5633 44.3749 37.4453 44.3943C37.4189 44.3987 37.392 44.4005 37.3652 44.3998Z" fill="black"/>
<path d="M39.7195 41.76H39.709C39.6541 41.7586 39.5999 41.7456 39.5497 41.7221C39.4993 41.6985 39.454 41.6647 39.416 41.6226C39.3781 41.5805 39.3485 41.531 39.3287 41.4767C39.309 41.4225 39.2995 41.3647 39.3009 41.3066C39.38 38.1773 39.7733 35.0658 40.474 32.0243C40.4864 31.9671 40.5093 31.913 40.5416 31.8652C40.5739 31.8174 40.6149 31.777 40.6621 31.7461C40.7093 31.7151 40.7619 31.6946 40.8168 31.6854C40.8717 31.6762 40.9277 31.6788 40.9817 31.6927C41.0356 31.7066 41.0864 31.7317 41.131 31.7667C41.1757 31.8015 41.2134 31.8455 41.2418 31.8959C41.2702 31.9464 41.2889 32.0022 41.2967 32.0603C41.3044 32.1184 41.3012 32.1776 41.2872 32.2344C40.5995 35.2145 40.2136 38.2635 40.136 41.3298C40.133 41.4446 40.0879 41.5536 40.0101 41.6339C39.9325 41.7142 39.8282 41.7594 39.7195 41.76Z" fill="black"/>
<path d="M146.413 103.275C146.728 104.478 147.491 105.827 148.724 105.84C149.534 105.848 150.245 105.228 150.595 104.498C150.944 103.767 151.002 102.924 151.046 102.11C151.173 99.8344 151.244 97.557 151.258 95.2763C151.272 92.9956 151.402 90.5784 151.113 88.32C149.657 88.4934 147.501 89.103 146.764 90.5292C146.281 91.4643 146.321 92.5828 146.256 93.6041C146.155 95.1398 146 96.6723 145.954 98.2114C145.901 99.906 145.981 101.623 146.413 103.275Z" fill="black"/>
<path d="M148.745 106.32H148.724C147.243 106.304 146.323 104.814 145.955 103.425C145.564 101.948 145.411 100.297 145.475 98.2339C145.506 97.2027 145.587 96.1613 145.667 95.1546C145.707 94.6496 145.748 94.1278 145.779 93.6161C145.792 93.4406 145.799 93.263 145.808 93.0831C145.851 92.1691 145.895 91.225 146.344 90.3669C147.322 88.5021 150.225 88.0205 151.09 87.9233C151.208 87.9088 151.326 87.9423 151.419 88.0149C151.512 88.0864 151.574 88.1926 151.588 88.3099C151.823 90.1189 151.79 92.0138 151.759 93.8473C151.75 94.3323 151.741 94.8339 151.739 95.3177C151.723 97.5937 151.651 99.8987 151.524 102.166C151.482 102.928 151.428 103.876 151.024 104.72C150.558 105.693 149.664 106.32 148.745 106.32ZM146.823 103.197C147.107 104.267 147.757 105.415 148.732 105.426H148.744C149.396 105.426 149.952 104.879 150.213 104.333C150.517 103.701 150.579 102.986 150.627 102.117C150.754 99.8619 150.826 97.5725 150.841 95.3121C150.841 94.8228 150.852 94.3188 150.861 93.8317C150.889 92.1848 150.918 90.4864 150.749 88.8741C149.295 89.1144 147.697 89.7166 147.14 90.7803C146.782 91.463 146.742 92.3077 146.704 93.1267C146.695 93.3121 146.686 93.4965 146.675 93.6764C146.64 94.1948 146.599 94.7188 146.563 95.2261C146.484 96.2228 146.403 97.2529 146.373 98.2641C146.311 100.24 146.455 101.808 146.822 103.199L146.823 103.197Z" fill="black"/>
<path d="M14.7454 103.459C14.4304 104.651 13.6672 105.987 12.4337 106C11.6251 106.008 10.9129 105.394 10.5646 104.665C10.2163 103.936 10.1575 103.106 10.1121 102.299C9.98561 100.045 9.91539 97.7892 9.90131 95.5299C9.88689 93.2706 9.75599 90.8761 10.0455 88.64C11.502 88.8107 13.6573 89.4157 14.3938 90.8273C14.8774 91.7537 14.8375 92.8628 14.903 93.8734C15.0028 95.3947 15.1581 96.9128 15.2058 98.4375C15.2568 100.122 15.1769 101.823 14.7454 103.459Z" fill="black"/>
<path d="M12.4602 106.48C11.5524 106.48 10.6712 105.857 10.2089 104.887C9.80878 104.047 9.75668 103.107 9.71456 102.344C9.58819 100.085 9.51725 97.7904 9.50284 95.5254C9.50284 95.0437 9.49065 94.5442 9.48289 94.0613C9.45185 92.2358 9.41859 90.349 9.65027 88.5479C9.66523 88.4322 9.72531 88.3265 9.81742 88.2542C9.90965 88.1819 10.0264 88.1496 10.1424 88.163C10.9982 88.2642 13.8636 88.7392 14.8291 90.596C15.2724 91.4503 15.3168 92.3904 15.3589 93.3004C15.3667 93.4784 15.3755 93.6564 15.3866 93.8311C15.4199 94.3406 15.4609 94.8601 15.4975 95.3629C15.5751 96.3642 15.656 97.4021 15.687 98.429C15.7502 100.485 15.5994 102.127 15.2137 103.598C14.8501 104.98 13.9412 106.464 12.4791 106.48H12.4602ZM10.4783 89.1097C10.312 90.715 10.3408 92.406 10.3674 94.0458C10.3752 94.5308 10.3841 95.0325 10.3874 95.5198C10.4018 97.7704 10.4728 100.05 10.5969 102.295C10.6457 103.16 10.7078 103.872 11.0059 104.502C11.2653 105.045 11.8129 105.59 12.458 105.59H12.4702C13.4335 105.58 14.0764 104.436 14.3546 103.371C14.7182 101.986 14.8601 100.425 14.798 98.4568C14.767 97.45 14.6872 96.4243 14.6096 95.433C14.5708 94.9269 14.5298 94.4051 14.4987 93.8889C14.4865 93.7087 14.4777 93.5262 14.4699 93.3416C14.4322 92.5283 14.3923 91.6873 14.0398 91.0053C13.4922 89.9496 11.9138 89.3489 10.4783 89.1097Z" fill="black"/>
<path d="M46.2969 39.7717C52.2073 24.0076 59.3247 17.0668 71.7569 11.974C84.1888 6.88121 99.86 8.67572 109.132 18.3957C112.662 22.0961 115.124 26.6988 116.97 31.4675C120.435 40.4178 124.09 54.8808 125.034 64.4315C127.089 85.2272 131.293 105.231 129.219 126.023C101.652 130.784 31.8271 125.74 31.7024 123.461C31.5421 120.53 37.4424 63.3867 46.2969 39.7717Z" fill="#1B5EC9"/>
<path d="M88.5797 121.52C88.2053 121.52 87.7885 121.298 87.4275 121.098C87.1946 120.973 86.7589 120.737 86.6285 120.765C85.9532 121.083 85.2044 121.098 84.5436 121.122L71.2457 121.489C70.566 121.508 69.7971 121.529 69.0616 121.33C67.9317 121.025 67.0158 120.239 66.2458 119.526C61.3774 115.017 57.6656 109.663 53.6619 103.637C45.9731 92.0703 38.1986 79.6137 35.0183 65.8627C34.2383 62.4849 34.5002 60.2361 35.7984 59.1795C36.438 58.6601 37.1968 58.8848 37.8041 59.0683C37.9668 59.1161 38.1206 59.1617 38.2588 59.1895L38.3044 59.1995C39.4578 59.4342 40.6512 59.6789 41.829 59.8424C64.0328 62.9365 81.1494 64.17 94.1557 63.6117C104.803 63.1546 114.993 62.2625 122.629 56.4458C123.084 56.0988 124.254 55.3069 125.281 55.4592C125.481 55.4869 125.673 55.5552 125.846 55.6598C126.018 55.7644 126.168 55.9032 126.283 56.0676C126.902 56.9207 126.395 58.0495 126.181 58.5322C120.663 70.8541 115.293 81.5235 109.763 91.1506C103.105 102.74 96.3687 112.581 89.1669 121.239C89.0978 121.328 89.0087 121.399 88.9062 121.448C88.8048 121.497 88.6933 121.521 88.5797 121.52ZM86.6419 119.874C87.0341 119.874 87.4487 120.096 87.852 120.319C88.0526 120.43 88.3769 120.604 88.5206 120.627C101.656 104.823 113.37 84.9735 125.368 58.1708C125.606 57.638 125.843 56.9774 125.563 56.5903C125.516 56.5218 125.454 56.4641 125.383 56.421C125.312 56.3778 125.232 56.3502 125.149 56.3401C124.678 56.2711 123.923 56.5827 123.169 57.1543C115.326 63.1279 104.988 64.0377 94.1969 64.5014C81.1361 65.0575 63.967 63.8263 41.7131 60.72C40.5063 60.5521 39.2995 60.3062 38.1328 60.067L38.086 60.0581C37.91 60.0226 37.7306 59.9692 37.5567 59.9169C36.9996 59.7534 36.6218 59.6611 36.3667 59.8691C35.6691 60.4352 35.0206 61.8999 35.8897 65.6613C39.0365 79.2723 46.7632 91.6422 54.4085 103.142C58.381 109.119 62.0593 114.429 66.8553 118.871C67.5785 119.538 68.363 120.215 69.2979 120.468C69.9052 120.632 70.576 120.614 71.2245 120.596L84.5225 120.229C85.1242 120.212 85.7482 120.195 86.2608 119.953C86.3811 119.898 86.5104 119.872 86.6419 119.874Z" fill="black"/>
<path d="M62.966 34.2734C62.4341 33.7719 61.8421 33.3027 61.1433 33.0876C59.5265 32.5916 57.7817 33.6091 56.7791 34.9721C54.8506 37.5945 55.0053 41.4015 56.7012 44.181C58.397 46.9605 61.2468 49.2831 64.4015 50.0721C66.4946 50.5959 69.5202 51.0919 71.6678 50.9916C72.2242 50.9648 74.877 51.6491 74.2439 50.9982C71.4475 48.1296 70.7476 46.4924 67.0109 39.8156C66.1018 38.193 64.3247 35.5528 62.966 34.2734Z" fill="#FACBDF"/>
<path d="M66.3763 48.8C66.2634 48.8001 66.1548 48.7569 66.0724 48.6791C63.7837 46.5081 60.8385 43.3602 59.8095 40.6901C59.7668 40.5793 59.7695 40.4561 59.8169 40.3475C59.8644 40.2387 59.9527 40.1535 60.0623 40.1105C60.172 40.0674 60.2941 40.0701 60.4019 40.118C60.5095 40.1657 60.594 40.2548 60.6367 40.3656C61.6059 42.879 64.4579 45.9195 66.6801 48.0267C66.7446 48.0881 66.7895 48.1678 66.8087 48.2552C66.828 48.3427 66.8208 48.4341 66.7881 48.5173C66.7554 48.6006 66.6986 48.6721 66.6252 48.7224C66.5518 48.7729 66.4651 48.7999 66.3763 48.8Z" fill="black"/>
<path d="M77.1846 51.6799C68.9628 51.6923 60.7991 50.2863 53.0439 47.522C52.9879 47.503 52.9361 47.4729 52.8918 47.4335C52.8473 47.394 52.8112 47.346 52.7852 47.2923C52.7593 47.2385 52.7443 47.1801 52.741 47.1204C52.7375 47.0607 52.746 47.0009 52.7657 46.9445C52.7855 46.8881 52.816 46.8363 52.8557 46.7921C52.8954 46.7478 52.9435 46.7119 52.9971 46.6867C53.0506 46.6614 53.1085 46.6472 53.1676 46.6448C53.2266 46.6424 53.2854 46.6521 53.3408 46.6731C70.1445 52.7058 89.173 52.0674 105.545 44.9234C105.6 44.8975 105.658 44.8829 105.718 44.8804C105.778 44.8779 105.837 44.8877 105.892 44.909C105.949 44.9304 106 44.9628 106.042 45.0046C106.086 45.0462 106.12 45.0963 106.145 45.1518C106.168 45.2073 106.18 45.2671 106.18 45.3276C106.181 45.3879 106.169 45.4478 106.147 45.5037C106.123 45.5595 106.089 45.61 106.047 45.6523C106.004 45.6945 105.953 45.7277 105.898 45.7498C96.8593 49.6939 87.0202 51.6799 77.1846 51.6799Z" fill="white"/>
<path d="M112.42 45.1199C112.382 45.1206 112.346 45.1161 112.31 45.1067C112.198 45.078 112.101 45.0056 112.041 44.9052C111.982 44.8048 111.963 44.6848 111.992 44.5713C112.395 42.9487 111.636 41.0589 110.223 40.1747C110.126 40.1124 110.057 40.0136 110.03 39.8999C110.005 39.7863 110.025 39.667 110.086 39.5681C110.146 39.4691 110.244 39.3986 110.357 39.3717C110.47 39.345 110.588 39.3642 110.687 39.4252C112.436 40.5202 113.343 42.7743 112.843 44.7866C112.819 44.8815 112.765 44.9658 112.688 45.0261C112.612 45.0865 112.517 45.1195 112.42 45.1199Z" fill="white"/>
<path d="M74.9272 31.4275C73.9778 31.8227 73.0806 33.0104 73.6271 33.8886C73.8096 34.1506 74.0726 34.3442 74.3751 34.4392C75.4103 34.8163 76.7827 34.2849 77.0232 33.2007C77.2636 32.1165 76.3319 30.842 74.9272 31.4275Z" fill="black"/>
<path d="M75.0402 34.88C74.7476 34.8813 74.457 34.8322 74.1814 34.7349C73.7846 34.612 73.4417 34.3594 73.2092 34.0186C72.5081 32.9199 73.5425 31.7114 74.6425 31.0126C74.6648 30.9981 74.6887 30.9861 74.7136 30.9764C75.4547 30.6742 76.1947 30.7632 76.7436 31.2203C76.9994 31.4355 77.1976 31.71 77.3201 32.0193C77.4428 32.3286 77.486 32.6631 77.446 32.9929C77.4061 33.3228 77.2842 33.6377 77.0912 33.9096C76.8983 34.1815 76.6403 34.402 76.3402 34.5515C75.9416 34.767 75.4946 34.88 75.0402 34.88ZM75.088 31.7751C74.5169 32.1476 73.5892 32.9661 73.9614 33.5506C74.0926 33.721 74.275 33.846 74.4825 33.9076C74.7167 33.9853 74.9647 34.0141 75.2108 33.9923C75.4569 33.9706 75.6958 33.8987 75.9125 33.7813C76.0667 33.7052 76.2027 33.597 76.311 33.4643C76.4193 33.3316 76.4974 33.1775 76.5402 33.0122C76.5856 32.8095 76.5752 32.5984 76.5101 32.4009C76.4451 32.2034 76.3277 32.0268 76.1702 31.8894C75.8836 31.6554 75.5102 31.6136 75.088 31.7751Z" fill="black"/>
<path d="M93.5572 30.8104C92.6364 31.5003 91.9389 32.7138 92.8373 33.5622C93.0683 33.762 93.3485 33.8949 93.6487 33.9462C94.507 34.1249 95.478 33.8569 96.0226 33.1648C96.5673 32.4726 96.5661 31.3786 95.9311 30.7702C95.296 30.1618 94.4199 30.1651 93.5572 30.8104Z" fill="black"/>
<path d="M94.1733 34.4C93.9648 34.4003 93.7564 34.3793 93.5513 34.3375C93.1639 34.2711 92.8025 34.0995 92.508 33.8419C92.3188 33.6746 92.1692 33.4674 92.0707 33.2357C91.9732 33.0039 91.9291 32.7534 91.9415 32.5026C91.9834 31.7816 92.4819 30.9992 93.2749 30.4121C94.3092 29.6498 95.4557 29.6487 96.268 30.4121C97.0531 31.1488 97.1154 32.5205 96.4028 33.4067C95.8998 34.0339 95.0513 34.4 94.1733 34.4ZM93.8221 31.1231C93.2557 31.5416 92.8761 32.1019 92.8501 32.5495C92.8433 32.6706 92.866 32.7917 92.9147 32.9031C92.9622 33.0146 93.037 33.1136 93.1299 33.1925C93.3032 33.3353 93.5128 33.4291 93.736 33.4637C94.4882 33.6177 95.2767 33.3699 95.697 32.8476C96.1173 32.3253 96.1003 31.478 95.6472 31.0539C94.9844 30.4322 94.2197 30.8307 93.8221 31.1231Z" fill="black"/>
<path d="M89.6567 24.6397C89.2842 24.6448 88.914 24.5817 88.5648 24.4538C87.7944 24.1624 87.0717 23.343 87.2473 22.4005C87.5253 20.9147 89.5277 20.7706 90.2815 20.7167C92.3417 20.5693 94.1307 19.4486 95.4359 18.6271C96.4977 17.9672 97.1993 17.5272 97.7852 17.7296C97.9064 17.7746 98.0154 17.8451 98.1054 17.936C98.1966 18.027 98.2655 18.1363 98.3089 18.2564C98.9627 19.1363 98.3267 20.2823 97.5662 21.0059C95.6983 22.7714 93.3668 23.9817 90.8363 24.4989C90.4494 24.5845 90.0536 24.6317 89.6567 24.6397ZM97.4606 18.5622C97.2115 18.5622 96.4599 19.0296 95.9118 19.3749C94.5265 20.2427 92.6286 21.4305 90.346 21.5943C88.9329 21.6955 88.2268 22.0035 88.1223 22.56C88.0378 23.012 88.4559 23.4684 88.8828 23.6323C89.4387 23.8423 90.0925 23.7544 90.6618 23.64C93.0266 23.1563 95.2058 22.0252 96.9525 20.3757C97.3972 19.9567 97.9209 19.1792 97.5718 18.7535C97.5384 18.7123 97.5117 18.6653 97.4951 18.615C97.4895 18.5968 97.4817 18.5792 97.4728 18.5622H97.4606Z" fill="black"/>
<path d="M77.4446 24.64C76.7002 24.6399 75.9576 24.5662 75.2281 24.4201C73.8758 24.1496 72.5845 23.6387 71.4174 22.9125L71.3059 22.8443C70.5042 22.3528 68.6301 21.2015 69.2723 19.9733C69.7662 19.0309 71.5467 19.7666 72.8467 20.3032C73.0541 20.39 73.2347 20.4637 73.3339 20.4978C74.6082 20.9288 75.9662 21.3368 77.3387 21.1762C77.5728 21.1499 77.807 21.1059 78.0545 21.0608C78.661 20.9508 79.2876 20.8332 79.9409 20.9508C80.2583 21.0132 80.5583 21.1441 80.8181 21.3343C81.0779 21.5244 81.292 21.7689 81.4447 22.0504C81.5517 22.2436 81.6119 22.4589 81.6197 22.6792C81.6276 22.8993 81.583 23.1181 81.4893 23.3183C81.1738 23.978 80.437 24.2221 79.9108 24.3497C79.1035 24.5435 78.2754 24.6411 77.4446 24.64ZM70.0538 20.4043C69.978 20.611 70.1363 21.0894 71.7786 22.0966L71.8901 22.167C72.9661 22.8362 74.1565 23.3072 75.4032 23.5569C76.8218 23.8479 78.288 23.8277 79.6978 23.4975C80.2553 23.3633 80.565 23.1874 80.6821 22.9477C80.7167 22.869 80.7323 22.7832 80.7267 22.6975C80.7211 22.6119 80.6944 22.5288 80.6498 22.4551C80.5583 22.2939 80.433 22.1538 80.2821 22.0444C80.1311 21.9349 79.9581 21.8587 79.7748 21.8206C79.2864 21.7304 78.7714 21.8261 78.2139 21.9306C77.9619 21.9768 77.7021 22.0251 77.4335 22.0559C75.8726 22.2374 74.3462 21.7788 73.0351 21.3357C72.9069 21.2917 72.724 21.2158 72.491 21.1158C71.1353 20.5484 70.3125 20.3087 70.0538 20.4043Z" fill="black"/>
<path d="M109.624 24.4798C109.526 24.4801 109.431 24.4479 109.353 24.3882C109.275 24.3286 109.22 24.2448 109.194 24.1501C109.169 24.0552 109.175 23.9547 109.213 23.864C109.251 23.7735 109.318 23.6978 109.402 23.649C112.795 21.6949 116.474 18.2314 118.557 15.0305C118.656 14.8792 118.754 14.7268 118.853 14.5733C119.684 13.2754 120.544 11.934 121.92 11.1422C122.501 10.8085 123.133 10.5994 123.745 10.3981C124.49 10.1534 125.189 9.92094 125.767 9.48384C126.501 8.92773 126.923 8.02795 126.958 6.96355C126.998 5.72343 126.487 4.48554 125.624 3.73257C124.037 2.34897 121.397 2.17546 119.205 3.30325C117.732 4.0629 116.812 5.23962 116.74 6.45082C116.696 7.22937 116.985 7.98457 117.296 8.78647C117.57 9.50608 117.852 10.249 117.908 11.0509C118.039 12.9895 116.824 14.6612 115.749 15.9024C113.61 18.3762 111.079 20.4804 108.255 22.1308C108.154 22.1792 108.04 22.1878 107.932 22.1549C107.825 22.1218 107.735 22.0496 107.679 21.9528C107.623 21.8559 107.605 21.7415 107.63 21.6322C107.654 21.523 107.719 21.4269 107.811 21.3634C110.55 19.7619 113.007 17.7201 115.083 15.3196C116.045 14.2074 117.135 12.7248 117.026 11.111C116.98 10.4437 116.733 9.79192 116.47 9.10902C116.144 8.25373 115.804 7.36951 115.863 6.403C115.95 4.87481 117.052 3.42226 118.806 2.51691C121.314 1.22229 124.361 1.44808 126.218 3.06635C127.277 3.98949 127.905 5.49543 127.856 6.99581C127.814 8.31379 127.252 9.4805 126.317 10.1945C125.624 10.724 124.814 10.9898 124.032 11.2478C123.437 11.4436 122.876 11.6293 122.373 11.9151C121.185 12.5992 120.385 13.8471 119.61 15.0549L119.313 15.5176C117.126 18.8776 113.413 22.3722 109.855 24.422C109.785 24.4619 109.705 24.482 109.624 24.4798Z" fill="black"/>
<path d="M122.441 7.91996C122.003 7.91896 121.573 7.80044 121.196 7.5769C120.924 7.42573 120.691 7.21226 120.516 6.95385C120.341 6.69545 120.228 6.39942 120.188 6.08956C120.112 5.38131 120.541 4.65977 121.258 4.29237C121.912 3.96037 122.616 4.02013 123.096 4.45394C123.139 4.49289 123.174 4.53992 123.198 4.59249C123.224 4.64495 123.238 4.70183 123.241 4.75993C123.243 4.81803 123.236 4.87601 123.216 4.93079C123.197 4.98557 123.166 5.03604 123.128 5.0792C123.089 5.12235 123.042 5.15743 122.99 5.18233C122.938 5.20734 122.881 5.22173 122.823 5.22472C122.765 5.2277 122.708 5.21919 122.652 5.19971C122.598 5.18034 122.548 5.15024 122.505 5.11129C122.2 4.83684 121.78 5.01944 121.658 5.08141C121.343 5.24298 121.022 5.59821 121.065 5.99439C121.091 6.16692 121.157 6.33103 121.258 6.47335C121.359 6.61578 121.492 6.73253 121.645 6.81442C121.836 6.93206 122.049 7.00465 122.272 7.02679C122.495 7.04881 122.719 7.0197 122.928 6.94168C123.036 6.89642 123.157 6.8962 123.267 6.94091C123.375 6.98573 123.461 7.07171 123.506 7.18017C123.551 7.28862 123.551 7.41057 123.506 7.51913C123.462 7.6278 123.376 7.71424 123.268 7.7595C123.005 7.86684 122.724 7.9214 122.441 7.91996Z" fill="black"/>
<path d="M59.2651 24.2367C59.2097 24.2365 59.1547 24.2263 59.103 24.2066C55.403 22.7437 52.3615 17.4709 51.3832 14.1939V14.1749C50.9602 12.7567 50.5226 11.2916 49.3845 10.598C48.7282 10.2 47.9242 10.1164 47.0725 10.0283C46.1764 9.93573 45.2492 9.83984 44.4297 9.35928C43.6102 8.87872 43.0461 8.08484 42.794 7.06239C42.4845 5.6992 42.7164 4.26844 43.4403 3.07405C44.7628 0.937722 47.4179 -0.302152 49.8964 0.0635661C52.3749 0.429284 54.5691 2.37272 55.2264 4.79895C55.544 5.95854 55.5285 7.15716 55.5129 8.31564C55.5129 8.68359 55.5041 9.0638 55.5129 9.43064C55.594 14.1593 57.7338 18.5034 61.0973 20.769C61.1468 20.8011 61.1895 20.8429 61.2227 20.8918C61.256 20.9407 61.2792 20.9957 61.2911 21.0538C61.303 21.1118 61.3032 21.1715 61.2917 21.2296C61.2804 21.2877 61.2575 21.343 61.2247 21.3922C61.1918 21.4414 61.1495 21.4834 61.1003 21.516C61.051 21.5485 60.9958 21.5709 60.9379 21.5819C60.8799 21.5928 60.8204 21.5919 60.7626 21.5795C60.705 21.567 60.6505 21.5433 60.602 21.5094C57.0009 19.0843 54.7101 14.4615 54.6246 9.44625C54.6179 9.0638 54.6246 8.6769 54.6246 8.30338C54.639 7.15605 54.6523 6.07339 54.3692 5.0331C53.7973 2.93914 51.904 1.25773 49.7631 0.945527C47.6222 0.633329 45.3314 1.70261 44.1887 3.54681C43.5879 4.5357 43.3951 5.72105 43.6513 6.85054C43.7856 7.39689 44.1066 8.1417 44.8728 8.59216C45.5257 8.97572 46.3163 9.05712 47.158 9.14408C48.0697 9.23886 49.0125 9.33586 49.8386 9.83872C51.2711 10.7095 51.7808 12.4155 52.2294 13.9218V13.9408C53.3032 17.5367 56.358 22.1672 59.4239 23.3792C59.52 23.4174 59.5999 23.488 59.6497 23.5789C59.6996 23.6699 59.7163 23.7755 59.6969 23.8774C59.6776 23.9794 59.6234 24.0714 59.5438 24.1376C59.4642 24.2038 59.364 24.24 59.2607 24.24L59.2651 24.2367Z" fill="black"/>
<path d="M50.3701 7.5167H50.3634C49.3055 7.50132 47.8572 7.48155 46.7749 6.69289C46.4474 6.44442 46.1806 6.12621 45.9943 5.76165C45.8081 5.39709 45.7072 4.99562 45.6992 4.58723C45.6992 3.94575 45.9498 3.39874 46.4189 3.04945C46.5127 2.97893 46.631 2.94818 46.7476 2.9641C46.8643 2.97992 46.9699 3.0411 47.041 3.13403C47.1122 3.22695 47.1432 3.34404 47.1272 3.4596C47.1111 3.57515 47.0495 3.67972 46.9557 3.75023C46.8321 3.85052 46.7343 3.97827 46.6701 4.12326C46.6059 4.26814 46.5773 4.42598 46.5864 4.58393C46.5929 4.85568 46.6605 5.12259 46.784 5.36545C46.9074 5.6082 47.084 5.82074 47.3005 5.9877C48.0901 6.56327 49.1602 6.62369 50.3756 6.64126C50.4933 6.64126 50.6061 6.6875 50.6892 6.76988C50.7724 6.85226 50.8192 6.96408 50.8192 7.08063C50.8192 7.19717 50.7724 7.30888 50.6892 7.39126C50.6061 7.47364 50.4933 7.51999 50.3756 7.51999L50.3701 7.5167Z" fill="black"/>
<path d="M55.5047 86.48C55.398 86.4789 55.2953 86.4399 55.2154 86.3687C49.6383 81.53 45.4971 75.2421 43.2465 68.1947C43.2264 68.1384 43.218 68.0786 43.2215 68.0189C43.225 67.9593 43.2404 67.9009 43.2669 67.8473C43.2933 67.7938 43.3302 67.7462 43.3754 67.7072C43.4206 67.6684 43.4731 67.639 43.5299 67.6209C43.5865 67.6027 43.6463 67.5964 43.7056 67.602C43.7649 67.6075 43.8224 67.6251 43.8748 67.6535C43.9272 67.682 43.9733 67.7207 44.0104 67.7673C44.0475 67.8141 44.0749 67.8678 44.091 67.9254C46.2914 74.8149 50.3394 80.9624 55.7906 85.6932C55.8579 85.7533 55.9055 85.8312 55.9273 85.9191C55.9492 86.0059 55.9442 86.0983 55.9129 86.1818C55.8818 86.2663 55.8258 86.3398 55.7526 86.391C55.6792 86.4433 55.592 86.4711 55.5024 86.4722L55.5047 86.48Z" fill="black"/>
<path d="M51.7315 74.8C51.6384 74.8 51.5475 74.7715 51.4716 74.7184C49.4043 73.269 47.7189 71.3544 46.5557 69.1341C46.5268 69.0825 46.5087 69.0256 46.5024 68.9669C46.4962 68.9083 46.5019 68.849 46.5194 68.7925C46.5369 68.7361 46.5657 68.6837 46.6041 68.6384C46.6426 68.5931 46.6898 68.556 46.7431 68.5289C46.7964 68.5019 46.8546 68.4857 46.9144 68.4813C46.9742 68.4768 47.0342 68.4842 47.091 68.503C47.1478 68.5218 47.2003 68.5515 47.2452 68.5907C47.29 68.6297 47.3266 68.6773 47.3524 68.7305C48.4498 70.8256 50.0404 72.6321 51.9915 73.9994C52.0689 74.0536 52.127 74.1306 52.157 74.2194C52.187 74.3082 52.1877 74.404 52.1587 74.4932C52.1298 74.5823 52.0729 74.6601 51.996 74.7152C51.9192 74.7703 51.8266 74.8 51.7315 74.8Z" fill="black"/>
<path d="M103.348 83.04C103.258 83.04 103.17 83.0133 103.096 82.9632C103.022 82.9131 102.965 82.8418 102.931 82.7583C102.899 82.6748 102.892 82.5835 102.911 82.4966C102.931 82.4087 102.977 82.3296 103.043 82.2684C109.181 76.5727 114.48 70.041 118.784 62.8671C118.813 62.8152 118.853 62.7697 118.9 62.7333C118.947 62.6969 119.002 62.6702 119.059 62.6549C119.117 62.6396 119.177 62.6361 119.237 62.6444C119.296 62.6527 119.353 62.6727 119.403 62.7033C119.454 62.7339 119.499 62.7745 119.535 62.8225C119.569 62.8706 119.595 62.9251 119.609 62.983C119.622 63.0409 119.624 63.1011 119.614 63.1597C119.604 63.2184 119.583 63.2745 119.55 63.3248C115.203 70.571 109.851 77.1687 103.652 82.922C103.569 82.9977 103.461 83.04 103.348 83.04Z" fill="black"/>
<path d="M110.465 70C110.377 69.9998 110.291 69.9731 110.217 69.923C110.144 69.873 110.087 69.8019 110.053 69.7189C110.02 69.6359 110.011 69.5444 110.029 69.4564C110.045 69.3682 110.088 69.2873 110.15 69.2238L113.657 65.6532C113.698 65.6109 113.747 65.5774 113.802 65.5546C113.857 65.5317 113.915 65.52 113.973 65.52C114.032 65.52 114.09 65.5317 114.144 65.5546C114.198 65.5774 114.248 65.6109 114.289 65.6532C114.33 65.6954 114.364 65.7455 114.386 65.8007C114.408 65.8559 114.42 65.915 114.42 65.9748C114.42 66.0345 114.408 66.0937 114.386 66.1488C114.364 66.204 114.33 66.2541 114.289 66.2964L110.781 69.8659C110.74 69.9083 110.691 69.9419 110.636 69.9649C110.582 69.988 110.524 69.9999 110.465 70Z" fill="black"/>
<path d="M103.365 74.96C103.263 74.9607 103.163 74.9283 103.082 74.8678C103 74.8074 102.943 74.7225 102.916 74.6261C102.89 74.5299 102.897 74.4278 102.937 74.3359C102.976 74.244 103.045 74.1675 103.134 74.1183L105.248 72.9402C105.301 72.9106 105.358 72.8915 105.418 72.8838C105.478 72.8762 105.54 72.88 105.598 72.8954C105.657 72.9107 105.712 72.9373 105.76 72.9733C105.808 73.0094 105.849 73.0543 105.879 73.1056C105.909 73.1569 105.928 73.2135 105.936 73.2721C105.944 73.3309 105.941 73.3904 105.925 73.4476C105.909 73.5047 105.882 73.5583 105.845 73.6053C105.808 73.6522 105.762 73.6915 105.709 73.7211L103.595 74.9004C103.525 74.9396 103.445 74.9602 103.365 74.96Z" fill="black"/>
<path d="M152.759 66.6213C152.541 66.3322 152.232 66.1266 151.881 66.0386C150.512 65.7166 149.966 67.4803 150.064 68.7604C150.169 70.1028 150.456 71.4245 150.917 72.6889C150.992 72.8826 151.029 73.0886 151.028 73.2962C151.011 74.6744 149.237 74.7357 147.97 74.8048C146.314 74.8961 144.615 75.735 143.887 77.229C143.286 78.4546 143.574 80.1113 144.554 80.9914C144.62 81.0516 144.674 81.1252 144.709 81.2065C144.746 81.2889 144.764 81.3781 144.763 81.4672C144.763 81.5563 144.743 81.6455 144.706 81.7268C144.668 81.8081 144.615 81.8805 144.547 81.9396C144.181 82.256 143.883 82.6437 143.67 83.0783C143.457 83.5128 143.333 83.9863 143.306 84.4699C143.28 84.9523 143.35 85.4369 143.513 85.8926C143.677 86.3483 143.93 86.7661 144.258 87.1216C144.392 87.2742 144.462 87.4725 144.454 87.6764C144.444 87.8792 144.356 88.0708 144.207 88.209C143.244 89.1181 143.196 91.0066 144.153 92.064C145.331 93.3642 147.327 93.5614 149.045 93.1993C152.885 92.3871 157.461 91.8701 157.461 80.0054C157.461 77.8407 157.033 75.6872 156.382 73.6237C155.592 71.0954 154.366 68.7255 152.759 66.6213Z" fill="#1B5EC9"/>
<path d="M148.309 82C148.215 82 148.124 81.971 148.047 81.9175C147.971 81.8628 147.913 81.7859 147.883 81.6978C147.853 81.6096 147.852 81.5137 147.879 81.4245C147.907 81.3353 147.962 81.2561 148.036 81.1992C148.179 81.0888 148.298 80.9505 148.386 80.7921C148.475 80.6349 148.531 80.4609 148.55 80.2813C148.576 80.0917 148.562 79.8991 148.512 79.7143C148.461 79.5296 148.375 79.3566 148.257 79.2052C148.183 79.1128 148.149 78.9948 148.162 78.8771C148.176 78.7594 148.235 78.6518 148.328 78.5779C148.421 78.5039 148.539 78.4697 148.658 78.4827C148.775 78.4959 148.884 78.5551 148.958 78.6476C149.151 78.8917 149.292 79.1716 149.375 79.4706C149.458 79.7696 149.48 80.0817 149.44 80.3895C149.406 80.6873 149.313 80.975 149.165 81.236C149.017 81.497 148.819 81.7245 148.58 81.9074C148.503 81.9677 148.408 82 148.309 82Z" fill="white"/>
<path d="M148.321 89.28C148.233 89.28 148.148 89.256 148.074 89.2122C148 89.1674 147.941 89.104 147.903 89.0286C147.866 88.9532 147.852 88.8701 147.863 88.7882C147.874 88.7051 147.91 88.6275 147.965 88.5641C148.341 88.1356 148.543 87.8176 148.196 87.0022C148.173 86.9487 148.163 86.8918 148.163 86.8339C148.164 86.7771 148.175 86.7202 148.2 86.6667C148.224 86.6142 148.257 86.5661 148.301 86.5257C148.344 86.4852 148.396 86.4535 148.453 86.4317C148.508 86.4109 148.57 86.4 148.63 86.4C148.691 86.4011 148.751 86.4131 148.806 86.435C148.863 86.4579 148.914 86.4907 148.957 86.5311C148.998 86.5727 149.032 86.6208 149.055 86.6743C149.531 87.8034 149.262 88.4461 148.674 89.1171C148.631 89.1674 148.578 89.2079 148.516 89.2352C148.456 89.2636 148.389 89.2789 148.321 89.28Z" fill="white"/>
<path d="M147.054 54.72C146.638 54.7203 146.224 54.6544 145.828 54.5249C144.815 54.1904 143.905 53.4634 143.043 52.2894C140.623 48.9868 139.947 44.3006 141.19 39.4327C141.204 39.376 141.23 39.3227 141.266 39.2759C141.301 39.2291 141.345 39.1896 141.395 39.1598C141.446 39.1301 141.502 39.1106 141.56 39.1024C141.618 39.0942 141.677 39.0975 141.733 39.1121C141.79 39.1268 141.843 39.1525 141.889 39.1877C141.936 39.2229 141.976 39.2671 142.005 39.3175C142.035 39.368 142.055 39.4239 142.063 39.4818C142.071 39.5399 142.068 39.599 142.053 39.6557C140.877 44.2638 141.496 48.6781 143.761 51.7643C144.507 52.7823 145.272 53.4088 146.101 53.6797C147.788 54.2305 149.504 53.178 150.462 52.1099C151.476 50.9782 153.852 48.3279 152.633 37.5573C152.624 37.4978 152.626 37.4369 152.641 37.3782C152.655 37.3197 152.682 37.2646 152.717 37.2166C152.754 37.1684 152.8 37.1283 152.852 37.0984C152.905 37.0685 152.963 37.0496 153.023 37.0428C153.083 37.036 153.143 37.0415 153.201 37.0588C153.259 37.0762 153.312 37.1051 153.359 37.1439C153.405 37.1826 153.443 37.2303 153.471 37.2841C153.497 37.338 153.514 37.3967 153.517 37.4569C154.782 48.6256 152.219 51.4844 151.125 52.7053C150.214 53.7165 148.7 54.72 147.054 54.72Z" fill="black"/>
<path d="M145.394 58.08C145.321 58.08 145.249 58.08 145.173 58.08C145.055 58.0773 144.944 58.0271 144.863 57.9407C144.782 57.8543 144.738 57.7385 144.74 57.6189C144.744 57.4994 144.792 57.3859 144.877 57.3031C144.961 57.2205 145.075 57.1757 145.192 57.1784C146.526 57.2094 147.849 56.9319 149.062 56.3668C149.115 56.3401 149.173 56.3244 149.232 56.3208C149.291 56.3172 149.351 56.3258 149.406 56.3459C149.462 56.3661 149.513 56.3976 149.557 56.4382C149.6 56.479 149.636 56.5282 149.66 56.5831C149.686 56.638 149.699 56.6974 149.7 56.7576C149.702 56.8179 149.692 56.878 149.67 56.9343C149.649 56.9905 149.617 57.0418 149.575 57.0851C149.534 57.1283 149.485 57.1627 149.43 57.1861C148.163 57.7748 146.787 58.0797 145.394 58.08Z" fill="black"/>
<path d="M145.741 60.16C145.633 60.1596 145.529 60.1165 145.448 60.0387C145.368 59.9608 145.316 59.8538 145.304 59.7377C145.292 59.6217 145.318 59.5045 145.38 59.4087C145.443 59.313 145.535 59.245 145.64 59.2178L149.396 58.2529C149.511 58.2236 149.63 58.2445 149.731 58.3111C149.83 58.3776 149.902 58.4842 149.929 58.6076C149.956 58.7309 149.936 58.8609 149.876 58.9688C149.814 59.0768 149.715 59.1539 149.6 59.1832L145.844 60.1469C145.811 60.1553 145.777 60.1598 145.741 60.16Z" fill="black"/>
<path d="M12.4896 75.28H12.4766C12.4145 75.2783 12.3532 75.2653 12.2965 75.2413C12.2397 75.2175 12.1886 75.1834 12.1458 75.1408C12.1031 75.0982 12.0697 75.0481 12.0475 74.9934C12.0253 74.9387 12.0147 74.8804 12.0165 74.8218C12.1987 68.7298 12.1182 62.5597 11.78 56.4699C11.7733 56.3516 11.8169 56.2357 11.901 56.1478C11.985 56.0597 12.1027 56.0069 12.2282 56.0006C12.3537 55.9944 12.4766 56.0354 12.57 56.1147C12.6634 56.1939 12.7195 56.3048 12.7262 56.4231C13.0668 62.533 13.1472 68.732 12.9627 74.8464C12.9593 74.9625 12.908 75.0728 12.8196 75.1537C12.7313 75.2347 12.6129 75.28 12.4896 75.28Z" fill="black"/>
<path d="M8.56765 26.32C13.5882 33.6171 16.6155 42.1201 17.3445 50.9731C17.5592 53.6333 16.841 56.4275 13.8032 56.8228C12.0326 57.0518 10.2951 56.6285 9.46183 54.9109C8.99703 53.956 8.85648 52.8739 8.76463 51.8263C8.62519 50.2293 8.52228 48.6278 8.43264 47.0241C8.25557 43.7765 8.17147 40.526 8.18032 37.2723C8.1936 33.6198 8.32275 29.9689 8.56765 26.32Z" fill="black"/>
<path d="M12.9376 57.36C11.1129 57.36 9.7444 56.5927 9.03394 55.1462C8.51754 54.0927 8.37812 52.9257 8.2889 51.9167C8.16287 50.498 8.05691 48.9724 7.9543 47.1149C7.77585 43.8855 7.68997 40.6026 7.70001 37.3654C7.71005 33.7262 7.84054 30.0413 8.08703 26.4133C8.09372 26.3215 8.12863 26.234 8.18718 26.1629C8.24563 26.0918 8.32481 26.0403 8.41359 26.0159C8.50248 25.9915 8.59684 25.9952 8.6835 26.0265C8.77027 26.0578 8.84511 26.115 8.89787 26.1905C14.0125 33.5262 17.0909 42.0831 17.8205 50.9915C18.1194 54.6396 16.6784 56.9402 13.8666 57.301C13.5586 57.3408 13.2482 57.3607 12.9376 57.36ZM8.89452 27.7696C8.70268 30.9567 8.60119 34.1783 8.59227 37.3654C8.58334 40.5859 8.66811 43.8489 8.84545 47.0638C8.94806 48.9113 9.0529 50.4268 9.18005 51.8354C9.26258 52.7675 9.3875 53.8399 9.83809 54.7542C10.6645 56.4368 12.4245 56.586 13.7562 56.4145C16.8702 56.0136 17.0844 52.8878 16.9349 51.0604C16.2528 42.7465 13.4879 34.7375 8.89452 27.7696Z" fill="black"/>
<path d="M14.4354 63.3597H14.3996L10.5941 63.059C10.5353 63.0544 10.478 63.0383 10.4254 63.0115C10.3728 62.9847 10.326 62.9478 10.2876 62.9029C10.2493 62.858 10.2201 62.806 10.2019 62.7497C10.1836 62.6935 10.1764 62.6343 10.181 62.5754C10.1856 62.5165 10.2017 62.459 10.2284 62.4063C10.2551 62.3536 10.292 62.3067 10.3367 62.2683C10.3815 62.2298 10.4334 62.2005 10.4895 62.1822C10.5456 62.1639 10.6047 62.1568 10.6634 62.1614L14.469 62.4621C14.5877 62.4667 14.6998 62.5184 14.7805 62.6058C14.8612 62.6933 14.9039 62.8092 14.8994 62.9283C14.8948 63.0473 14.8432 63.1596 14.756 63.2405C14.6688 63.3214 14.553 63.3643 14.4343 63.3597H14.4354Z" fill="black"/>
<path d="M13.8162 65.12H10.6232C10.5055 65.12 10.3928 65.0736 10.3095 64.9911C10.2264 64.9086 10.1797 64.7966 10.1797 64.68C10.1797 64.5633 10.2264 64.4514 10.3095 64.3688C10.3928 64.2863 10.5055 64.24 10.6232 64.24H13.8162C13.9338 64.24 14.0466 64.2863 14.1297 64.3688C14.2129 64.4514 14.2597 64.5633 14.2597 64.68C14.2597 64.7966 14.2129 64.9086 14.1297 64.9911C14.0466 65.0736 13.9338 65.12 13.8162 65.12Z" fill="black"/>
<path d="M14.2888 46.64C14.1781 46.6412 14.0709 46.6033 13.9868 46.5334C13.9028 46.4634 13.8476 46.3663 13.8316 46.2599C13.186 42.0397 11.9155 37.9328 10.0596 34.0668C10.0105 33.9603 10.0063 33.8391 10.0482 33.7296C10.0901 33.6201 10.1747 33.531 10.2835 33.4817C10.3925 33.4323 10.5169 33.4265 10.6301 33.4658C10.7433 33.5049 10.8359 33.5858 10.8883 33.6911C12.7809 37.6351 14.0764 41.8247 14.7345 46.1297C14.7443 46.1934 14.7398 46.2583 14.7212 46.3201C14.7026 46.3818 14.6705 46.439 14.627 46.4874C14.5835 46.536 14.5298 46.5748 14.4694 46.6011C14.409 46.6274 14.3435 46.6407 14.2773 46.64H14.2888Z" fill="white"/>
<path d="M14.9302 52.4H14.9042C14.7847 52.3918 14.6733 52.336 14.5945 52.2449C14.5156 52.1538 14.476 52.0349 14.484 51.9143C14.493 51.7786 14.5032 51.6521 14.5111 51.5346C14.5823 50.5507 14.6094 50.1825 14.2851 49.1666C14.2653 49.1093 14.2569 49.0484 14.2606 48.9878C14.2645 48.927 14.2802 48.8677 14.3069 48.8132C14.3337 48.7588 14.371 48.7102 14.4166 48.6706C14.4623 48.6309 14.5154 48.6008 14.5727 48.5821C14.6301 48.5634 14.6905 48.5564 14.7505 48.5617C14.8106 48.5669 14.8689 48.5842 14.9222 48.6125C14.9755 48.6408 15.0228 48.6796 15.0609 48.7267C15.0992 48.7736 15.1277 48.8279 15.1449 48.8862C15.5245 50.0719 15.4838 50.5826 15.4138 51.6008C15.4047 51.7148 15.3957 51.8425 15.3866 51.9758C15.3786 52.0919 15.3268 52.2006 15.2419 52.2795C15.1571 52.3582 15.0456 52.4013 14.9302 52.4Z" fill="white"/>
<path d="M82.9373 104.104C59.1121 104.863 34.0096 107.306 14.9125 122.69L14.8457 122.749C8.257 128.559 7.50883 138.634 13.2403 145.288C27.0156 161.283 75.0674 160.396 91.5078 159.688C187.049 155.914 166.267 105.07 83.6944 104.08L82.9373 104.104Z" fill="#FF5400"/>
<path d="M32.4328 135.583C32.1253 135.977 31.7988 136.451 32.22 136.987C32.3647 137.164 32.5533 137.301 32.7671 137.382C49.7759 144.143 68.1096 146.682 86.2391 149.171C87.3779 149.327 88.5468 149.482 89.6656 149.217C90.8512 148.935 91.873 148.206 92.8536 147.483C104.124 139.192 114.527 129.801 124.885 120.394C125.014 120.279 125.111 120.132 125.166 119.968C125.221 119.803 125.234 119.628 125.203 119.458C125.172 119.288 125.098 119.128 124.988 118.995C124.878 118.861 124.736 118.758 124.575 118.694C122.977 118.066 120.117 117.497 118.102 116.995C111.965 115.467 105.762 114.243 99.4926 113.321C91.2802 112.096 83.2951 110.795 75.0639 109.728C72.7618 109.429 68.9007 108.669 67.6159 108.936C65.6001 109.355 63.3459 110.434 61.1061 111.813C58.5209 113.405 55.9001 115.042 53.5835 116.49C50.9927 118.116 41.4375 125.713 39.2747 127.86C37.1058 130.018 35.0596 132.295 33.146 134.681C32.9075 134.979 32.6698 135.28 32.4328 135.583Z" fill="#FACBDF"/>
<path d="M42.1797 125.418C47.1228 125.682 52.6119 126.507 57.3175 128.049C57.7859 128.202 58.2709 128.364 58.7603 128.309C59.2952 128.249 59.7647 127.938 60.203 127.632C63.7705 125.164 67.1129 122.385 70.1913 119.327C70.2502 119.27 70.2936 119.198 70.3178 119.119C70.3421 119.04 70.3462 118.956 70.3301 118.875C70.3139 118.793 70.2778 118.718 70.2252 118.654C70.1725 118.59 70.1048 118.54 70.0282 118.509C69.6708 118.365 69.3035 118.206 69.2214 118.176C68.6598 117.979 68.0949 117.79 67.5267 117.609C66.4058 117.253 65.2752 116.931 64.1351 116.641C62.0331 116.108 58.2986 115.43 56.1855 114.96C56.1855 114.96 52.1236 117.503 49.2081 119.551C47.1372 121.002 43.9598 123.607 42.1797 125.418Z" fill="white"/>
<path d="M83.4968 125.49C82.4264 126.657 81.484 128.021 81.2103 129.582C80.9366 131.143 81.4695 132.922 82.8125 133.763C83.4211 134.144 84.1421 134.308 84.8576 134.37C87.9863 134.64 91.025 133.055 93.3427 130.933C94.6 129.781 95.7327 128.412 96.2078 126.773C96.6829 125.134 96.3802 123.191 95.1218 122.039C93.8089 120.838 90.304 120.17 85.8623 123.323C84.9888 123.942 84.22 124.699 83.4968 125.49Z" fill="#1B5EC9"/>
<path d="M88.3956 125.669C87.8983 126.032 87.3857 126.413 87.0831 126.954C86.7805 127.495 86.3833 128.922 86.9379 129.188C88.7444 130.054 90.5939 127.386 90.7083 126.901C91.3684 124.096 88.9205 125.347 88.2251 125.732L88.3956 125.669Z" fill="white"/>
<path d="M36.6894 134.56C36.6549 134.56 36.6206 134.557 36.587 134.549L32.4369 133.64C32.3233 133.612 32.2255 133.542 32.1647 133.448C32.1039 133.353 32.0847 133.239 32.1113 133.13C32.1378 133.021 32.2081 132.927 32.307 132.867C32.4059 132.808 32.5256 132.786 32.6406 132.809L36.7895 133.717C36.8974 133.741 36.9925 133.801 37.0566 133.886C37.1206 133.972 37.1492 134.077 37.1368 134.181C37.1244 134.285 37.072 134.382 36.9894 134.451C36.9069 134.522 36.8 134.56 36.6894 134.56Z" fill="#1B5EC9"/>
<path d="M43.0874 136.32C43.0414 136.32 42.9958 136.314 42.9519 136.301L39.3849 135.239C39.3273 135.223 39.2737 135.196 39.2271 135.161C39.1805 135.124 39.142 135.079 39.1137 135.03C39.0855 134.98 39.0681 134.924 39.0625 134.868C39.0569 134.811 39.0633 134.754 39.0814 134.7C39.0993 134.646 39.1286 134.596 39.1674 134.552C39.2062 134.508 39.2537 134.473 39.3072 134.447C39.3607 134.422 39.4191 134.405 39.479 134.401C39.5388 134.397 39.599 134.404 39.6559 134.423L43.2229 135.484C43.3262 135.515 43.4146 135.579 43.4718 135.665C43.5292 135.752 43.5518 135.856 43.5353 135.957C43.5189 136.058 43.4647 136.151 43.3825 136.217C43.3002 136.284 43.1955 136.32 43.0874 136.32Z" fill="#1B5EC9"/>
<path d="M50.2738 138.157H50.2359C48.7581 138.031 47.2964 137.76 45.872 137.35C45.8143 137.336 45.7604 137.309 45.7131 137.273C45.666 137.237 45.6265 137.192 45.5971 137.141C45.5678 137.089 45.5491 137.033 45.5421 136.974C45.5351 136.915 45.5401 136.856 45.5567 136.799C45.5734 136.742 45.6012 136.69 45.6388 136.643C45.6764 136.598 45.7227 136.559 45.7752 136.532C45.8278 136.504 45.8855 136.487 45.9448 136.482C46.0041 136.476 46.0638 136.483 46.1206 136.501C47.4886 136.894 48.8924 137.154 50.3117 137.275C50.43 137.28 50.5414 137.331 50.6215 137.417C50.7015 137.505 50.7437 137.619 50.7387 137.736C50.7336 137.853 50.6818 137.964 50.5946 138.043C50.5075 138.123 50.3921 138.165 50.2738 138.16V138.157Z" fill="#1B5EC9"/>
<path d="M58.6175 140.64C58.5874 140.64 58.5573 140.638 58.5279 140.631L53.893 139.679C53.778 139.656 53.677 139.587 53.6123 139.489C53.5477 139.39 53.5246 139.27 53.548 139.155C53.5714 139.04 53.6397 138.939 53.7375 138.873C53.8354 138.809 53.9549 138.786 54.0699 138.809L58.7048 139.761C58.8122 139.783 58.9077 139.844 58.9727 139.933C59.0378 140.021 59.0677 140.131 59.0569 140.24C59.0461 140.349 58.9951 140.451 58.9138 140.525C58.8327 140.599 58.7271 140.64 58.6175 140.64Z" fill="#1B5EC9"/>
<path d="M65.6232 141.833C65.6 141.833 65.5768 141.831 65.5538 141.828L61.9016 141.26C61.7882 141.241 61.6874 141.178 61.6205 141.085C61.5538 140.992 61.5265 140.878 61.5444 140.766C61.5625 140.654 61.6244 140.553 61.7169 140.485C61.8094 140.418 61.9251 140.389 62.0393 140.404L65.6915 140.972C65.8083 140.98 65.9167 141.035 65.9929 141.122C66.0691 141.21 66.1068 141.324 66.0977 141.439C66.0887 141.554 66.0337 141.661 65.9446 141.736C65.8556 141.811 65.74 141.847 65.6232 141.839V141.833Z" fill="#1B5EC9"/>
<path d="M73.0022 143.36C72.9432 143.36 72.8846 143.348 72.8298 143.327C72.0009 142.999 71.1169 142.819 70.2212 142.796C70.1617 142.794 70.1029 142.782 70.0485 142.758C69.994 142.735 69.9449 142.701 69.9039 142.659C69.8629 142.618 69.8308 142.568 69.8094 142.515C69.7881 142.461 69.7779 142.404 69.7795 142.346C69.781 142.289 69.7943 142.232 69.8186 142.18C69.8427 142.127 69.8776 142.08 69.9208 142.041C69.964 142 70.0149 141.97 70.0705 141.949C70.1262 141.928 70.1855 141.918 70.245 141.92C71.2522 141.945 72.2462 142.147 73.178 142.517C73.2751 142.555 73.3554 142.625 73.4051 142.714C73.4549 142.804 73.471 142.907 73.4508 143.006C73.4306 143.106 73.3754 143.195 73.2944 143.259C73.2134 143.324 73.1118 143.36 73.0068 143.36H73.0022Z" fill="#1B5EC9"/>
<path d="M80.7742 144.96C80.7229 144.96 80.6716 144.951 80.6225 144.932C79.4145 144.483 78.1443 144.235 76.8603 144.199C76.742 144.198 76.6292 144.148 76.5466 144.06C76.464 143.973 76.4185 143.856 76.42 143.734C76.4214 143.612 76.4698 143.496 76.5545 143.411C76.6391 143.325 76.7532 143.279 76.8714 143.28H76.8837C78.2633 143.318 79.6281 143.583 80.9258 144.067C81.025 144.104 81.1075 144.175 81.1599 144.269C81.2123 144.363 81.2312 144.472 81.2134 144.579C81.1944 144.685 81.1409 144.782 81.0607 144.851C80.9804 144.921 80.8789 144.959 80.7742 144.959V144.96Z" fill="#1B5EC9"/>
<path d="M86.6099 146.32C86.5829 146.32 86.557 146.318 86.53 146.312L83.1916 145.71C83.0746 145.689 82.9699 145.621 82.9013 145.521C82.8326 145.422 82.8068 145.299 82.827 145.179C82.8484 145.059 82.9148 144.953 83.0127 144.883C83.1106 144.813 83.2321 144.786 83.3491 144.807L86.6875 145.41C86.7989 145.43 86.8979 145.491 86.9666 145.582C87.0352 145.674 87.0678 145.787 87.0588 145.902C87.0487 146.015 86.997 146.122 86.9137 146.2C86.8316 146.276 86.7224 146.32 86.6099 146.32Z" fill="#1B5EC9"/>
<path d="M93.7294 148.237C93.6765 148.237 93.6236 148.227 93.5729 148.208C92.0766 147.643 91.4134 147.469 89.8338 147.229C89.7178 147.208 89.6154 147.143 89.5467 147.046C89.478 146.948 89.4487 146.828 89.4656 146.71C89.4836 146.592 89.5456 146.486 89.639 146.414C89.7325 146.341 89.8507 146.309 89.9666 146.324C91.6037 146.572 92.3367 146.764 93.8871 147.353C93.9861 147.391 94.0695 147.462 94.1213 147.556C94.1742 147.648 94.1922 147.758 94.1742 147.864C94.155 147.97 94.0999 148.065 94.0188 148.134C93.9377 148.202 93.8353 148.24 93.7294 148.24V148.237Z" fill="#1B5EC9"/>
<path d="M15.7205 137.36C15.6279 137.36 15.5377 137.331 15.4622 137.278C15.3869 137.224 15.33 137.147 15.2997 137.06C14.2197 133.948 14.9946 130.067 17.3204 126.93C19.5204 123.964 22.6645 121.965 25.4479 120.402C33.5159 115.886 42.3711 112.954 51.5381 111.762C51.6525 111.752 51.7662 111.787 51.8554 111.86C51.9447 111.932 52.0025 112.036 52.0168 112.149C52.0312 112.264 52.001 112.379 51.9325 112.471C51.8641 112.564 51.7626 112.626 51.6494 112.645C42.5962 113.823 33.851 116.719 25.8832 121.179C23.1833 122.697 20.1405 124.633 18.0396 127.462C15.8864 130.364 15.1605 133.931 16.1469 136.767C16.1704 136.834 16.1774 136.907 16.1674 136.977C16.1575 137.047 16.1308 137.114 16.0896 137.173C16.0484 137.231 15.9939 137.278 15.9306 137.31C15.8674 137.343 15.7972 137.36 15.7261 137.36H15.7205Z" fill="white"/>
<path d="M21.5836 127.6C21.4999 127.6 21.4178 127.575 21.347 127.531C21.2762 127.486 21.2195 127.422 21.1836 127.346C21.1477 127.27 21.1338 127.185 21.1438 127.102C21.1536 127.018 21.1869 126.939 21.2397 126.873C22.1815 125.707 24.9215 123.49 29.5451 121.075C34.9095 118.309 40.6307 116.308 46.5441 115.126C46.6577 115.107 46.7742 115.133 46.8689 115.199C46.9638 115.264 47.0293 115.365 47.052 115.478C47.0746 115.592 47.0524 115.71 46.9902 115.807C46.9278 115.904 46.8304 115.973 46.7183 116C33.7516 118.609 24.0274 124.833 21.9286 127.432C21.8873 127.484 21.8349 127.526 21.7752 127.555C21.7154 127.584 21.65 127.6 21.5836 127.6Z" fill="white"/>
<path d="M18.7564 134.56C18.6803 134.56 18.6055 134.541 18.5387 134.507C18.4718 134.471 18.4151 134.42 18.3737 134.358C17.4596 132.983 18.5222 130.116 19.2294 129.42C19.2713 129.377 19.3214 129.342 19.3772 129.318C19.4329 129.295 19.493 129.281 19.5539 129.28C19.6149 129.279 19.6755 129.29 19.7322 129.312C19.7887 129.333 19.8403 129.367 19.8837 129.409C19.927 129.45 19.9614 129.5 19.9847 129.555C20.0081 129.609 20.0199 129.668 20.0195 129.728C20.0191 129.787 20.0065 129.846 19.9825 129.9C19.9585 129.955 19.9234 130.003 19.8796 130.045C19.3814 130.536 18.5393 132.976 19.1392 133.873C19.184 133.941 19.2093 134.018 19.2127 134.098C19.216 134.178 19.197 134.258 19.1578 134.328C19.1186 134.398 19.0607 134.457 18.99 134.498C18.9194 134.539 18.8387 134.56 18.7564 134.56Z" fill="white"/>
<path d="M118.948 152.64C118.837 152.64 118.73 152.6 118.647 152.525C118.565 152.452 118.513 152.349 118.502 152.24C118.491 152.13 118.521 152.02 118.587 151.931C118.652 151.842 118.749 151.78 118.857 151.758C125.29 150.422 137.263 147.932 144.328 140.321C146.665 137.803 147.237 133.617 145.751 129.907C144.493 126.766 141.792 123.915 138.146 121.876C138.094 121.847 138.05 121.809 138.013 121.762C137.977 121.717 137.949 121.664 137.934 121.608C137.918 121.552 137.912 121.493 137.92 121.434C137.927 121.376 137.945 121.319 137.974 121.268C138.002 121.217 138.041 121.172 138.087 121.135C138.132 121.1 138.186 121.073 138.242 121.056C138.299 121.041 138.358 121.036 138.416 121.043C138.475 121.05 138.531 121.067 138.582 121.096C141.288 122.609 144.872 125.308 146.581 129.574C148.191 133.598 147.549 138.158 144.983 140.923C141.886 144.263 137.747 146.896 132.329 148.98C127.71 150.762 123.047 151.795 119.039 152.628C119.009 152.636 118.979 152.639 118.948 152.64Z" fill="white"/>
<path d="M88.888 156.48C88.6073 156.48 88.331 156.48 88.0603 156.48C87.9422 156.479 87.8297 156.43 87.7462 156.343C87.6637 156.257 87.618 156.141 87.6192 156.02C87.6203 155.9 87.6682 155.785 87.7528 155.699C87.8375 155.615 87.9511 155.568 88.0692 155.569C95.5142 155.647 106.302 154.605 111.629 153.293C111.743 153.264 111.865 153.284 111.966 153.346C112.066 153.41 112.139 153.511 112.167 153.629C112.194 153.746 112.176 153.87 112.114 153.974C112.052 154.076 111.953 154.15 111.838 154.178C106.649 155.452 96.3453 156.48 88.888 156.48Z" fill="white"/>
<path d="M45.2337 154.64H45.1924C36.8349 153.866 28.7527 151.255 21.5262 146.993C21.4748 146.964 21.4296 146.924 21.3934 146.877C21.3572 146.831 21.3309 146.777 21.3157 146.72C21.3005 146.662 21.2968 146.603 21.3051 146.544C21.3132 146.486 21.333 146.429 21.3632 146.378C21.3935 146.328 21.4336 146.283 21.4811 146.248C21.5288 146.213 21.5829 146.188 21.6405 146.173C21.6981 146.159 21.7579 146.156 21.8165 146.165C21.8751 146.174 21.9312 146.195 21.9817 146.227C29.0943 150.419 37.0488 152.988 45.2739 153.748C45.3325 153.75 45.3901 153.765 45.4432 153.789C45.4964 153.815 45.5441 153.85 45.5838 153.893C45.6233 153.936 45.654 153.987 45.674 154.041C45.6941 154.097 45.703 154.155 45.7003 154.214C45.6976 154.272 45.6835 154.33 45.6587 154.383C45.6338 154.436 45.5986 154.484 45.5553 154.523C45.512 154.563 45.4613 154.593 45.4061 154.613C45.3509 154.633 45.2923 154.642 45.2337 154.64Z" fill="white"/>
<path d="M104.95 151.918C104.832 151.919 104.719 151.873 104.634 151.79C104.549 151.708 104.501 151.595 104.5 151.476C104.498 151.357 104.544 151.243 104.627 151.159C104.71 151.074 104.822 151.026 104.94 151.025C115.029 150.77 124.949 148.365 134.037 143.97C139.909 141.12 143.021 137.717 143.287 133.857C143.295 133.739 143.351 133.629 143.44 133.55C143.529 133.472 143.646 133.433 143.764 133.441C143.883 133.45 143.993 133.505 144.07 133.594C144.148 133.683 144.187 133.801 144.179 133.919C143.89 138.12 140.612 141.773 134.428 144.774C125.225 149.226 115.181 151.662 104.965 151.92L104.95 151.918Z" fill="white"/>
<path d="M8.0358 66.8594C8.2529 66.5713 8.56186 66.3663 8.91128 66.2784C10.2755 65.9574 10.8207 67.7159 10.7221 68.9922C10.6181 70.3307 10.3318 71.6485 9.87098 72.909C9.79795 73.1026 9.76038 73.3076 9.76016 73.5145C9.779 74.8886 11.5455 74.9497 12.8099 75.0185C14.4611 75.1096 16.1545 75.9461 16.8803 77.4357C17.4876 78.681 17.1829 80.3596 16.1656 81.2249C16.1029 81.276 16.0521 81.3393 16.0167 81.4126C15.9814 81.4849 15.9622 81.5648 15.9605 81.6448C15.959 81.7259 15.9751 81.8059 16.0075 81.8803C16.0401 81.9547 16.0883 82.0203 16.1489 82.0736C16.5309 82.388 16.844 82.779 17.0685 83.2211C17.2931 83.6621 17.4245 84.1453 17.4544 84.6407C17.4842 85.1351 17.4119 85.6316 17.2421 86.0971C17.0722 86.5625 16.8083 86.988 16.467 87.3468C16.4034 87.4156 16.3543 87.4956 16.3225 87.5834C16.2908 87.6711 16.277 87.7656 16.2822 87.8589C16.2875 87.9522 16.3114 88.0433 16.3526 88.1266C16.3938 88.211 16.4516 88.2854 16.5224 88.3465C17.5198 89.2352 17.5841 91.1592 16.6155 92.2278C15.443 93.5241 13.4527 93.7208 11.7394 93.3597C7.91168 92.5499 5.27638 89.5473 4.25573 85.9171C3.14143 81.9614 3.19994 77.7669 4.42417 73.8444C5.21221 71.3227 6.43456 68.9587 8.0358 66.8594Z" fill="#1B5EC9"/>
<path d="M12.5205 82.16C12.454 82.16 12.3885 82.1457 12.3285 82.1182C12.2195 82.0686 12.1352 81.9795 12.0941 81.8705C12.053 81.7604 12.0584 81.6393 12.1092 81.5336C12.5568 80.6056 12.4444 80.4129 12.0251 79.6976C11.9604 79.5875 11.8911 79.4675 11.8172 79.3365C11.7718 79.2355 11.767 79.1217 11.8039 79.0174C11.8407 78.9133 11.9166 78.8263 12.0165 78.7736C12.1164 78.721 12.2329 78.7064 12.3432 78.733C12.4536 78.7595 12.5497 78.8252 12.6125 78.917C12.683 79.0425 12.7489 79.157 12.8113 79.2627C13.3135 80.119 13.5464 80.6254 12.925 81.9046C12.8891 81.9795 12.8321 82.0433 12.7606 82.0885C12.6891 82.1336 12.6058 82.1589 12.5205 82.16Z" fill="white"/>
<path d="M12.5198 89.44C12.4132 89.44 12.3101 89.4017 12.2296 89.3328C12.149 89.2639 12.0962 89.1699 12.0807 89.066C12.05 88.7827 12.1028 88.4961 12.233 88.2413C12.3664 87.9252 12.4275 87.7809 11.9218 87.3193C11.8352 87.2406 11.7842 87.1312 11.7796 87.0153C11.7752 86.8983 11.8177 86.7856 11.8979 86.7003C11.978 86.615 12.0893 86.5647 12.2072 86.5603C12.325 86.5559 12.44 86.5986 12.5264 86.6773C13.4157 87.4856 13.2734 88.0587 13.0544 88.5771C12.9844 88.7422 12.9433 88.8407 12.9599 88.9391C12.9684 88.996 12.9655 89.0539 12.9512 89.1097C12.9369 89.1655 12.9116 89.218 12.8767 89.2639C12.8418 89.3098 12.798 89.3492 12.7479 89.3787C12.6976 89.4072 12.642 89.4269 12.5842 89.4356C12.5629 89.4389 12.5413 89.44 12.5198 89.44Z" fill="white"/>
<path d="M59.4782 39.3599C59.39 39.3599 59.3034 39.3357 59.229 39.2901C59.1546 39.2445 59.0954 39.1793 59.0582 39.1024C58.8014 38.571 58.6658 37.9931 58.6602 37.4074C58.6592 37.2896 58.7071 37.1763 58.7934 37.0924C58.8794 37.0085 58.9968 36.9609 59.1195 36.96C59.2423 36.9591 59.3605 37.0051 59.4478 37.0877C59.5353 37.1704 59.5849 37.2829 59.5859 37.4007C59.5895 37.8609 59.6956 38.3151 59.8971 38.7327C59.9487 38.8395 59.9542 38.9615 59.9121 39.0721C59.8699 39.1826 59.7839 39.2725 59.6727 39.3222C59.6116 39.3485 59.5452 39.3612 59.4782 39.3599Z" fill="black"/>
<path d="M54.6143 128C54.5677 128 54.5214 127.993 54.477 127.979C50.5911 126.718 46.1874 125.289 41.8942 125.946C41.8363 125.955 41.7772 125.953 41.7203 125.939C41.6633 125.924 41.6098 125.899 41.5626 125.864C41.5154 125.829 41.4754 125.784 41.4452 125.734C41.4148 125.683 41.3947 125.628 41.3859 125.569C41.3771 125.511 41.3799 125.451 41.3939 125.394C41.4079 125.337 41.4331 125.283 41.4678 125.234C41.5026 125.187 41.5463 125.146 41.5965 125.116C41.6467 125.086 41.7024 125.065 41.7603 125.056C46.2611 124.368 50.7708 125.831 54.7504 127.121C54.8518 127.154 54.9383 127.222 54.9942 127.314C55.0503 127.405 55.0719 127.514 55.0555 127.62C55.0391 127.725 54.9855 127.822 54.9046 127.892C54.8237 127.962 54.7207 128 54.6143 128Z" fill="#1B5EC9"/>
<path d="M58.2592 128.8C57.7677 128.8 57.282 128.693 56.8369 128.487C56.7294 128.437 56.6465 128.346 56.6064 128.235C56.5663 128.124 56.5722 128.002 56.623 127.895C56.6738 127.789 56.7653 127.706 56.8771 127.666C56.9891 127.626 57.1124 127.633 57.2199 127.683C57.8166 127.956 58.4979 127.983 59.1147 127.759C59.7139 127.536 60.2122 127.092 60.7396 126.618C60.8639 126.507 60.9883 126.396 61.1137 126.285C61.9323 125.58 62.8371 124.982 63.7117 124.403C63.7606 124.369 63.8159 124.344 63.8745 124.331C63.933 124.318 63.9936 124.316 64.0527 124.328C64.1118 124.339 64.168 124.361 64.2181 124.393C64.2683 124.426 64.3113 124.469 64.3447 124.517C64.3779 124.567 64.4009 124.623 64.4122 124.682C64.4234 124.74 64.4226 124.799 64.41 124.858C64.3973 124.916 64.373 124.972 64.3385 125.019C64.3039 125.068 64.2599 125.11 64.209 125.141C63.3568 125.706 62.4765 126.287 61.7016 126.956C61.5795 127.06 61.4597 127.167 61.3399 127.274C60.7732 127.781 60.1876 128.305 59.4361 128.587C59.0601 128.728 58.6613 128.8 58.2592 128.8Z" fill="#1B5EC9"/>
<path d="M65.7398 123.92C65.6581 123.92 65.5778 123.896 65.5084 123.85C65.4388 123.804 65.3828 123.739 65.3464 123.661C65.3101 123.584 65.295 123.497 65.3028 123.411C65.3106 123.325 65.3408 123.242 65.3904 123.174C65.6447 122.82 65.9787 122.541 66.3618 122.36C66.4683 122.31 66.5894 122.307 66.6984 122.351C66.8073 122.395 66.8952 122.483 66.9427 122.595C66.9901 122.708 66.9934 122.837 66.9517 122.952C66.9099 123.067 66.8266 123.16 66.7201 123.21C66.4723 123.327 66.2562 123.509 66.0915 123.738C66.0502 123.794 65.997 123.841 65.936 123.872C65.8749 123.904 65.8079 123.92 65.7398 123.92Z" fill="#1B5EC9"/>
<path d="M85.8037 134.88C85.0182 134.882 84.236 134.773 83.4804 134.552C82.3809 134.217 81.5943 133.679 81.3147 133.078C81.0795 132.533 80.9663 131.943 80.9819 131.349C80.9819 128.575 82.6971 126.181 84.3026 124.154C84.3758 124.062 84.4834 124.002 84.5999 123.989C84.7175 123.976 84.8351 124.01 84.9272 124.084C85.0193 124.159 85.0781 124.266 85.0903 124.385C85.1036 124.502 85.0692 124.621 84.996 124.713C83.4838 126.622 81.8706 128.866 81.8695 131.35C81.8539 131.814 81.9383 132.276 82.118 132.703C82.2511 132.993 82.8037 133.413 83.7356 133.697C84.7275 133.983 85.7682 134.059 86.7912 133.921C87.8141 133.781 88.796 133.429 89.6769 132.886C95.3564 129.38 95.9422 125.641 96.001 124.928C96.0765 124.025 95.8024 123.158 95.2665 122.609C95.2244 122.568 95.19 122.518 95.1667 122.463C95.1434 122.408 95.1323 122.349 95.1312 122.29C95.1312 122.23 95.1434 122.171 95.1656 122.116C95.1889 122.06 95.2222 122.011 95.2643 121.969C95.3065 121.927 95.3564 121.894 95.4108 121.872C95.4663 121.85 95.5251 121.839 95.5839 121.84C95.6438 121.842 95.7015 121.855 95.7558 121.879C95.8102 121.904 95.859 121.938 95.899 121.982C96.6135 122.714 96.9818 123.844 96.8853 125.001C96.8198 125.79 96.1841 129.92 90.1396 133.648C88.8359 134.457 87.3348 134.883 85.8037 134.88Z" fill="black"/>
<path d="M89.5893 122.08C89.484 122.08 89.3821 122.044 89.3015 121.98C89.2208 121.915 89.1659 121.826 89.148 121.726C89.129 121.627 89.1469 121.525 89.1995 121.436C89.2511 121.348 89.3339 121.281 89.4325 121.246C90.7005 120.791 92.0748 120.682 93.4033 120.929C93.4626 120.939 93.5197 120.959 93.5702 120.989C93.6217 121.021 93.6654 121.061 93.7001 121.108C93.7337 121.155 93.7583 121.208 93.7707 121.265C93.783 121.321 93.7841 121.38 93.7729 121.436C93.7606 121.493 93.7382 121.547 93.7046 121.594C93.671 121.643 93.6273 121.684 93.5769 121.715C93.5265 121.746 93.4705 121.768 93.4111 121.779C93.3528 121.788 93.2912 121.787 93.233 121.774C92.0659 121.557 90.8595 121.654 89.7461 122.053C89.6957 122.071 89.6431 122.08 89.5893 122.08Z" fill="black"/>
<path d="M87.7019 123.04C87.6129 123.04 87.5263 123.017 87.4505 122.973C87.3747 122.929 87.3133 122.867 87.2724 122.792C87.2327 122.718 87.2159 122.634 87.2219 122.552C87.2291 122.468 87.2616 122.389 87.3133 122.321C87.3915 122.223 87.4926 122.142 87.6081 122.086C87.7248 122.031 87.8535 122.001 87.9834 122C88.0905 122.064 88.1723 122.158 88.2192 122.269C88.2649 122.38 88.2733 122.501 88.2421 122.616C88.2108 122.731 88.141 122.834 88.0436 122.911C87.9461 122.987 87.8258 123.032 87.6995 123.04H87.7019Z" fill="black"/>
</svg>
