<svg width="161" height="160" viewBox="0 0 161 160" fill="none" xmlns="http://www.w3.org/2000/svg">
<g clip-path="url(#clip0_165_7923)">
<path d="M27.1554 121.546C27.4902 123.56 27.9098 125.726 29.4075 127.115C30.6351 128.256 32.3727 128.647 34.0266 128.933C40.2974 130.015 46.6842 130.19 53.0454 130.315C74.0477 130.727 95.0502 130.619 116.054 129.991C118.275 129.924 120.608 129.821 122.508 128.67C125.876 126.629 126.671 122.175 127.116 118.264C129.885 93.9717 132.053 69.6172 134.222 45.264C134.811 38.6356 135.402 31.9715 134.926 25.3331C134.777 23.2653 134.48 21.0948 133.241 19.4386C131.133 16.6302 126.462 15.4948 122.952 15.342C90.8508 13.9445 59.6755 12.9998 27.8205 17.2258C24.5964 17.6529 21.1893 17.8504 18.8926 20.3208C17.4228 21.9012 17.2443 24.4085 17.3748 26.4986C17.8011 33.2865 18.4239 40.3688 18.8379 47.3218C19.3111 55.2814 19.9174 63.2323 20.657 71.1742C21.3965 79.116 22.2681 87.0422 23.2717 94.9521C24.2761 102.863 25.4108 110.755 26.6755 118.629C26.8348 119.602 26.9947 120.573 27.1554 121.546Z" fill="#1B5EC9"/>
<path d="M31.6551 103.556C31.9708 105.876 32.3489 108.331 33.8626 110.116C35.4946 112.041 38.1014 112.783 40.5811 113.274C48.4419 114.836 56.5157 114.857 64.5304 114.872C79.9608 114.905 95.4558 114.932 110.73 112.744C113.278 112.379 116.025 111.844 117.739 109.923C118.91 108.609 119.412 106.838 119.788 105.119C120.965 99.7871 121.336 94.3143 121.703 88.866L124.501 47.3935C124.871 41.8995 125.241 36.3843 124.86 30.8914C124.726 28.9693 124.472 26.9725 123.41 25.3684C121.459 22.429 117.51 21.7239 113.998 21.3826C100.314 20.0518 86.5309 20.267 72.7827 20.4757C58.8393 20.691 44.8523 20.9085 31.0293 22.7681C29.4587 22.9789 27.8167 23.2422 26.5551 24.1993C24.5027 25.7611 23.8579 28.1304 23.9025 31.197C23.9628 35.4506 24.7168 45.0899 25.8122 55.9485C26.3276 61.0576 26.9534 66.1567 27.5557 71.257C28.1581 76.3572 28.7827 81.4555 29.4264 86.5501C30.07 91.6448 30.7371 96.7383 31.4242 101.833L31.6551 103.556Z" fill="#FF5400"/>
<path d="M46.2854 50.9483C42.3164 56.5952 40.4372 65.7554 49.7549 77.4779C55.8005 85.0833 66.1487 93.2935 74.1783 100.069C75.9036 101.52 76.218 103.763 80.1459 100.055C85.839 94.6745 94.7663 87.1342 101.2 79.8603C106.194 74.2179 110.966 66.2009 112.533 58.8269C114.1 51.4529 111.906 42.8453 105.605 38.7157C100.475 35.3519 93.5128 35.5897 88.0516 38.3807C84.31 40.2932 81.2108 43.2751 78.7953 46.6836C77.6545 48.2923 75.8311 50.9506 75.8311 50.9506C74.3289 48.8997 71.2118 47.0085 68.9167 46.0785C57.983 41.6519 49.4214 46.4815 46.2854 50.9483Z" fill="#FACBDF"/>
<path d="M64.2351 84.96H64.2005C64.0959 84.9522 63.9975 84.9075 63.9225 84.8338C63.8475 84.7601 63.8007 84.6629 63.7903 84.559C63.3141 79.8367 62.8737 74.0848 62.449 68.5216C62.1751 64.9409 61.9125 61.5189 61.6587 58.6228C61.3234 60.1998 60.807 63.1216 60.0693 68.5362C59.326 73.9887 58.7124 79.3341 58.7068 79.3877C58.6982 79.463 58.6706 79.5348 58.6266 79.5963C58.5825 79.658 58.5236 79.7075 58.4552 79.7401C58.3868 79.7727 58.3112 79.7873 58.2356 79.7827C58.1599 79.7782 58.0867 79.7545 58.0228 79.7138L50.6502 75.0353L44.8771 77.1729C44.7728 77.2119 44.6578 77.2107 44.5544 77.1694C44.451 77.1281 44.3668 77.0496 44.3182 76.9496L43.6308 75.4976L40.5716 77.2366C40.5206 77.266 40.4644 77.285 40.4061 77.2926C40.3478 77.3003 40.2887 77.2964 40.2319 77.2811C40.1751 77.2659 40.1219 77.2395 40.0753 77.2038C40.0287 77.1679 39.9896 77.1234 39.9602 77.0724C39.9308 77.0216 39.9118 76.9654 39.9042 76.9071C39.8966 76.8489 39.9005 76.7898 39.9157 76.733C39.931 76.6763 39.9573 76.6231 39.993 76.5765C40.0289 76.53 40.0735 76.4909 40.1245 76.4615L43.6017 74.4757C43.6553 74.4452 43.7144 74.426 43.7757 74.4194C43.8369 74.4128 43.8989 74.419 43.9577 74.4374C44.0164 74.4558 44.0707 74.4862 44.1172 74.5266C44.1637 74.5671 44.2013 74.6166 44.2277 74.6723L44.9464 76.189L50.544 74.1161C50.6087 74.0922 50.6782 74.0836 50.7469 74.0909C50.8155 74.0983 50.8814 74.1214 50.9397 74.1585L57.8987 78.5769C58.0954 76.8937 58.6252 72.4642 59.2321 68.0392C60.816 56.5019 61.3558 56.2394 61.7146 56.0652C61.7796 56.0337 61.8512 56.0184 61.9233 56.0205C61.9955 56.0226 62.066 56.0423 62.1291 56.0776C62.192 56.1129 62.2454 56.163 62.2848 56.2234C62.3241 56.2838 62.3483 56.353 62.3551 56.4248C62.6681 59.7006 62.9933 63.9514 63.3387 68.4524C63.6908 73.0517 64.0541 77.7816 64.4374 81.9467L68.6625 65.6211C68.6865 65.529 68.7394 65.4468 68.8135 65.3868C68.8875 65.3267 68.9788 65.2919 69.0741 65.2874C69.1694 65.2829 69.2636 65.309 69.3429 65.3618C69.4223 65.4146 69.4827 65.4913 69.5153 65.5809L72.5153 73.819L74.3897 72.2475C74.4408 72.2049 74.5007 72.174 74.5652 72.1575C74.6297 72.1409 74.697 72.1389 74.7624 72.1516C74.8277 72.1643 74.8894 72.1915 74.9429 72.2311C74.9963 72.2707 75.0404 72.3217 75.0716 72.3804L76.1826 74.4645L79.8856 66.6319C79.9227 66.5533 79.9819 66.487 80.0561 66.4416C80.1302 66.396 80.216 66.3731 80.303 66.3756C80.39 66.378 80.4744 66.4058 80.5462 66.4555C80.6166 66.5052 80.6725 66.5747 80.7049 66.6554L84.114 75.0408L89.3562 58.5848C89.3875 58.4845 89.4546 58.3988 89.5429 58.3425C89.6323 58.2862 89.7385 58.2631 89.8424 58.2772C89.9464 58.2914 90.0425 58.3419 90.114 58.4197C90.1844 58.4977 90.2247 58.5981 90.2292 58.7032L90.5857 68.0269L95.8044 51.5139C95.8357 51.4144 95.9005 51.3288 95.9877 51.2721C96.0749 51.2153 96.18 51.1909 96.2839 51.2031C96.3868 51.2152 96.4829 51.2633 96.5555 51.3389C96.6271 51.4144 96.6707 51.5127 96.6774 51.6167L98.449 76.055L102.808 62.0293C102.836 61.9396 102.891 61.8608 102.966 61.8043C103.041 61.7477 103.131 61.7161 103.225 61.714C103.319 61.7119 103.412 61.7393 103.489 61.7926C103.566 61.8458 103.625 61.9219 103.657 62.0103C104.262 63.6979 105.628 70.2483 106.445 74.163C106.569 74.7583 106.679 75.2798 106.771 75.7154L109.463 72.7803C109.528 72.7095 109.614 72.6614 109.709 72.6432C109.803 72.6252 109.901 72.638 109.987 72.6798L115.739 75.4496C115.842 75.5031 115.921 75.5948 115.958 75.7053C115.994 75.8156 115.986 75.936 115.936 76.0407C115.886 76.1454 115.796 76.2263 115.687 76.2662C115.577 76.3059 115.456 76.3015 115.35 76.2538L109.904 73.6258L106.849 76.9574C106.793 77.0176 106.722 77.0614 106.644 77.084C106.566 77.1067 106.482 77.1075 106.403 77.0862C106.325 77.0648 106.253 77.0224 106.196 76.9632C106.14 76.9041 106.101 76.8306 106.083 76.7508C105.971 76.2705 105.8 75.4206 105.576 74.3439C104.959 71.3887 103.911 66.365 103.228 63.7124L98.601 78.5769C98.5697 78.6764 98.5049 78.7619 98.4177 78.8188C98.3305 78.8756 98.2266 78.9002 98.1226 78.8882C98.0198 78.8763 97.9236 78.8286 97.851 78.7534C97.7795 78.6783 97.7359 78.5802 97.728 78.4763L95.9542 54.0056L90.6628 70.7465C90.6315 70.8464 90.5656 70.9321 90.4773 70.9886C90.389 71.045 90.2839 71.0687 90.18 71.0554C90.076 71.0421 89.9799 70.9926 89.9084 70.9158C89.8368 70.8389 89.7955 70.7394 89.7899 70.6348L89.4333 61.2944L84.5958 76.4928C84.5678 76.5803 84.5142 76.6573 84.4404 76.7129C84.3678 76.7686 84.2783 76.8005 84.1867 76.8039C84.095 76.8075 84.0045 76.7826 83.9274 76.7328C83.8502 76.6829 83.7899 76.6104 83.7552 76.5252L80.259 67.9375L76.6118 75.654C76.5764 75.7289 76.5208 75.7925 76.4514 75.8376C76.3819 75.8828 76.3012 75.9078 76.2184 75.9098C76.1355 75.9119 76.0537 75.891 75.9821 75.8495C75.9104 75.8078 75.8517 75.7471 75.8126 75.6741L74.5418 73.2896L72.6002 74.9169C72.5451 74.963 72.4798 74.9953 72.4096 75.0108C72.3394 75.0263 72.2665 75.0246 72.197 75.006C72.1276 74.9873 72.0636 74.9523 72.0108 74.9037C71.9578 74.8552 71.9173 74.7946 71.8927 74.727L69.1677 67.2439L64.6677 84.625C64.643 84.721 64.587 84.8059 64.5087 84.8662C64.4304 84.9265 64.3342 84.96 64.2351 84.96Z" fill="#1B5EC9"/>
<path d="M116.38 117.44C114.916 117.44 113.632 118.842 113.509 120.296C113.387 121.751 114.483 123.224 115.929 123.484C117.376 123.743 119.418 122.566 119.687 121.134C119.957 119.702 119.242 117.44 116.38 117.44Z" fill="black"/>
<path d="M116.284 123.92C116.125 123.92 115.966 123.907 115.81 123.88C114.161 123.587 112.892 121.93 113.03 120.262C113.17 118.623 114.601 117.208 116.295 117.04H116.34C117.962 117.04 118.864 117.703 119.337 118.266C120.122 119.195 120.235 120.393 120.08 121.206C119.786 122.752 117.83 123.92 116.284 123.92ZM116.363 117.921C115.119 118.056 114.028 119.136 113.926 120.336C113.823 121.537 114.777 122.798 115.971 123.011C117.233 123.232 118.983 122.167 119.198 121.041C119.31 120.426 119.231 119.521 118.646 118.832C118.138 118.231 117.374 117.926 116.363 117.921Z" fill="black"/>
<path d="M105.087 120.77C103.969 120.476 102.926 121.538 103.124 122.466C103.321 123.394 104.506 124.046 105.364 123.634C106.497 123.089 107.026 121.277 105.087 120.77Z" fill="#FF5400"/>
<path d="M40.2513 125.12C39.3911 125.12 38.5317 125.066 37.6778 124.961C37.3279 124.919 36.6001 124.829 36.1955 124.284C35.9236 123.917 35.8891 123.472 35.8612 123.146L35.5814 119.583C35.5722 119.465 35.6102 119.348 35.6872 119.257C35.7642 119.167 35.8739 119.111 35.9921 119.101C36.0508 119.096 36.1096 119.103 36.1655 119.122C36.2213 119.14 36.273 119.169 36.3177 119.207C36.4079 119.284 36.4638 119.395 36.4731 119.513L36.7539 123.075C36.7762 123.368 36.803 123.602 36.9122 123.745C37.0682 123.954 37.4249 124.025 37.7871 124.069C39.3518 124.262 40.9337 124.27 42.5003 124.095C42.6166 124.08 42.7252 124.03 42.8104 123.95C42.8957 123.869 42.9529 123.763 42.974 123.648C43.2424 122.242 43.2329 120.797 42.9461 119.396C42.9342 119.335 42.9018 119.282 42.8544 119.243C42.8071 119.204 42.7476 119.184 42.6865 119.184C41.7681 119.207 40.979 119.184 40.2156 119.163C39.3128 119.138 38.3789 119.111 37.232 119.163C37.1138 119.169 36.9983 119.127 36.9109 119.046C36.8236 118.967 36.7715 118.855 36.7662 118.737C36.7609 118.619 36.8027 118.502 36.8826 118.415C36.9624 118.327 37.0737 118.276 37.1919 118.27C38.3711 118.218 39.3217 118.244 40.2412 118.27C40.9924 118.291 41.7692 118.314 42.6631 118.29C42.9334 118.285 43.1972 118.374 43.4086 118.543C43.62 118.711 43.7655 118.949 43.8199 119.215C44.1297 120.732 44.1399 122.296 43.85 123.818C43.7947 124.123 43.6422 124.402 43.4154 124.613C43.1884 124.824 42.8996 124.956 42.5917 124.988C41.8146 125.075 41.0333 125.119 40.2513 125.12Z" fill="white"/>
<path d="M73.0864 123.28C67.1454 123.28 61.1943 123.205 55.2946 123.056C55.236 123.054 55.1782 123.041 55.1247 123.018C55.0711 122.993 55.0227 122.96 54.9823 122.917C54.9419 122.875 54.9103 122.824 54.8892 122.769C54.8681 122.714 54.8581 122.655 54.8595 122.597C54.861 122.538 54.874 122.48 54.8978 122.427C54.9215 122.372 54.9557 122.324 54.9981 122.283C55.0838 122.202 55.1985 122.157 55.3169 122.16C64.8062 122.4 74.4305 122.447 83.922 122.3H83.9287C84.0469 122.299 84.1607 122.345 84.2455 122.428C84.3303 122.512 84.3782 122.625 84.3794 122.744C84.3805 122.862 84.3336 122.978 84.2511 123.062C84.1685 123.147 84.0548 123.195 83.9365 123.196C80.3336 123.252 76.7169 123.28 73.0864 123.28Z" fill="black"/>
<path d="M80.1723 126.48H57.066C56.9475 126.48 56.8339 126.43 56.7501 126.34C56.6663 126.25 56.6191 126.127 56.6191 126C56.6191 125.873 56.6663 125.75 56.7501 125.66C56.8339 125.57 56.9475 125.52 57.066 125.52H80.1723C80.2908 125.52 80.4044 125.57 80.4882 125.66C80.5721 125.75 80.6191 125.873 80.6191 126C80.6191 126.127 80.5721 126.25 80.4882 126.34C80.4044 126.43 80.2908 126.48 80.1723 126.48Z" fill="black"/>
<path d="M18.5118 117.44C17.5079 117.44 16.4672 117.231 15.8448 116.384C15.064 115.319 15.4488 113.783 16.2754 112.913C17.0785 112.069 18.1861 111.685 19.2625 111.397C22.3522 110.57 24.728 110.445 26.1703 110.487C26.2886 110.49 26.4007 110.541 26.482 110.628C26.5632 110.714 26.6071 110.83 26.6036 110.95C26.6002 111.069 26.5499 111.183 26.4638 111.265C26.3777 111.347 26.2629 111.391 26.1446 111.388C24.7581 111.347 22.4771 111.468 19.4911 112.267C18.5408 112.522 17.5704 112.852 16.919 113.537C16.3612 114.123 16.0657 115.174 16.5609 115.847C17.1186 116.606 18.3623 116.59 19.3829 116.492C22.6087 116.182 24.4436 115.975 27.4608 115.489C27.5188 115.479 27.5781 115.481 27.6355 115.495C27.6927 115.508 27.7468 115.533 27.7945 115.568C27.8423 115.603 27.8828 115.647 27.9135 115.696C27.9444 115.747 27.9651 115.803 27.9743 115.862C27.9836 115.92 27.9814 115.981 27.9675 116.038C27.9538 116.096 27.9288 116.151 27.8942 116.198C27.8596 116.247 27.8158 116.287 27.7655 116.318C27.7153 116.349 27.6595 116.369 27.6013 116.378C24.5797 116.865 22.65 117.083 19.4677 117.392C19.161 117.416 18.8375 117.44 18.5118 117.44Z" fill="black"/>
<path d="M86.6698 145.839C85.2195 145.854 83.7827 145.564 82.4518 144.988C81.3965 144.524 80.4439 143.873 79.5236 143.239C79.286 143.076 79.0482 142.912 78.8084 142.753C72.1306 138.291 63.7348 136.344 55.7754 137.404C51.0453 138.034 46.4257 139.691 41.9578 141.294C36.9378 143.095 31.747 144.957 26.34 145.393C22.4767 145.706 19.2003 145.17 16.601 143.803C13.5388 142.193 10.6516 139.055 11.1035 135.677C11.1125 135.607 11.1225 135.538 11.1326 135.468C9.97705 135.412 8.82801 135.262 7.6966 135.022C3.33362 134.13 0.524616 131.161 0.539118 127.446C0.549159 124.815 1.98924 122.147 4.58182 119.934C7.53027 117.421 11.9123 115.543 17.2547 114.5C17.371 114.476 17.4916 114.501 17.5899 114.567C17.6882 114.634 17.7562 114.735 17.779 114.852C17.8019 114.968 17.7775 115.089 17.7114 115.187C17.6452 115.285 17.5428 115.353 17.4266 115.377C5.64619 117.675 1.44719 123.317 1.43157 127.449C1.41819 130.72 3.94718 133.35 7.87509 134.142C8.99992 134.381 10.143 134.524 11.2921 134.569C12.1711 130.412 14.5929 128.39 16.6846 127.887C18.0569 127.553 19.274 127.877 19.8596 128.725C20.1864 129.198 20.5725 130.23 19.4826 131.837C19.0251 132.507 18.3826 133.359 17.4623 133.945C15.7342 135.047 13.8321 135.433 12.0338 135.471C12.0182 135.575 12.0027 135.681 11.9882 135.789C11.5933 138.741 14.2294 141.541 17.0161 143.007C19.4646 144.294 22.5772 144.792 26.2686 144.499C31.5586 144.071 36.6924 142.23 41.6634 140.448C46.1748 138.829 50.8401 137.156 55.6649 136.514C63.8365 135.425 72.4553 137.426 79.315 142.005C79.5569 142.167 79.798 142.332 80.039 142.497C80.9313 143.106 81.8416 143.736 82.8211 144.171C87.1997 146.096 92.2822 144.059 96.2224 142.077L97.1617 141.6C101.269 139.511 105.516 137.351 110.074 137.965C112.77 138.328 115.184 139.646 117.517 140.921C118.37 141.386 119.251 141.868 120.128 142.292C124.813 144.557 129.532 145.091 133.403 143.795C137.977 142.265 141.125 137.931 140.731 133.713C140.496 131.184 138.913 128.693 137.385 126.276C135.719 123.652 133.997 120.936 133.877 118.043C133.759 115.184 134.422 113.023 135.793 111.802C136.915 110.798 138.446 110.445 140.342 110.742C140.459 110.759 140.564 110.824 140.634 110.919C140.703 111.015 140.732 111.134 140.715 111.251C140.696 111.368 140.632 111.473 140.536 111.544C140.44 111.613 140.321 111.642 140.204 111.624C138.584 111.37 137.303 111.654 136.387 112.468C135.222 113.508 134.663 115.422 134.769 118.006C134.88 120.661 136.536 123.272 138.138 125.798C139.725 128.3 141.366 130.887 141.623 133.629C141.837 135.936 141.101 138.342 139.548 140.405C138.064 142.372 136.021 143.849 133.688 144.644C129.59 146.015 124.636 145.466 119.743 143.099C118.851 142.666 117.958 142.178 117.094 141.708C114.83 140.472 112.491 139.193 109.954 138.853C105.671 138.276 101.55 140.372 97.5644 142.399L96.6229 142.877C93.6934 144.347 90.1615 145.839 86.6698 145.839ZM17.7099 128.66C17.4346 128.661 17.1604 128.696 16.8933 128.763C15.1017 129.194 13.0268 130.949 12.208 134.577C14.0777 134.515 15.6394 134.058 16.9848 133.201C17.7657 132.702 18.3369 131.947 18.7463 131.344C19.3331 130.48 19.4681 129.732 19.1278 129.24C18.8623 128.862 18.3447 128.658 17.7099 128.658V128.66Z" fill="black"/>
<path d="M150.549 117.6H150.517C147.962 117.523 146.431 117.212 143.779 116.568C141.894 116.113 139.583 115.346 138.423 113.427C137.418 111.77 137.53 109.425 138.71 107.594C139.939 105.68 141.95 104.644 143.424 104.112C144.867 103.589 149.69 102.929 151.377 103.741C152.159 104.12 152.243 106.215 151.767 113.933C151.701 115.013 151.643 115.947 151.621 116.571C151.611 116.846 151.494 117.109 151.294 117.3C151.094 117.492 150.827 117.599 150.549 117.6ZM148.873 104.249C147.042 104.249 144.704 104.594 143.734 104.947C142.394 105.431 140.564 106.368 139.469 108.072C138.471 109.629 138.361 111.592 139.194 112.964C140.184 114.598 142.28 115.285 143.998 115.7C146.589 116.328 148.08 116.633 150.551 116.707C150.598 116.707 150.644 116.691 150.679 116.658C150.713 116.626 150.733 116.583 150.737 116.536C150.758 115.9 150.816 114.961 150.883 113.868C150.995 112.078 151.13 109.85 151.166 107.994C151.217 105.283 151.015 104.648 150.942 104.508C150.493 104.325 149.739 104.25 148.872 104.25L148.873 104.249Z" fill="black"/>
<path d="M152.216 121.44C151.881 121.44 151.569 121.428 151.286 121.418L150.989 121.408C150.416 121.391 149.632 121.366 149.018 120.923C148.126 120.278 147.995 119.038 147.923 118.373C147.657 115.888 147.758 113.438 147.855 111.069C147.912 109.692 147.967 108.268 147.958 106.834C147.958 106.316 147.909 105.665 147.863 104.976C147.7 102.552 147.517 99.8047 148.623 98.8296C150.123 97.5101 154.169 98.0573 155.297 98.4853C156.662 99.0046 156.499 100.817 156.391 102.016C156.37 102.252 156.35 102.476 156.344 102.658L155.81 118.136C155.787 118.839 155.754 119.807 155.192 120.528C154.597 121.302 153.333 121.44 152.216 121.44ZM148.809 118.277C148.887 119.008 149.015 119.821 149.54 120.201C149.902 120.463 150.423 120.498 151.015 120.516L151.319 120.527C152.321 120.564 153.993 120.625 154.487 119.988C154.843 119.525 154.894 118.863 154.92 118.109L155.453 102.631C155.459 102.425 155.481 102.185 155.503 101.94C155.592 100.954 155.713 99.5997 154.98 99.3233C154.012 98.9555 150.334 98.5165 149.213 99.5038C148.433 100.188 148.619 102.923 148.752 104.921C148.799 105.623 148.844 106.287 148.849 106.831C148.862 108.28 148.802 109.716 148.746 111.105C148.645 113.549 148.551 115.857 148.809 118.278V118.277Z" fill="black"/>
<path d="M160.098 106.88H154.663C154.546 106.88 154.433 106.83 154.35 106.74C154.267 106.65 154.221 106.527 154.221 106.4C154.221 106.273 154.267 106.15 154.35 106.06C154.433 105.97 154.546 105.92 154.663 105.92H160.098C160.215 105.92 160.328 105.97 160.411 106.06C160.494 106.15 160.541 106.273 160.541 106.4C160.541 106.527 160.494 106.65 160.411 106.74C160.328 106.83 160.215 106.88 160.098 106.88Z" fill="black"/>
<path d="M154.365 114.32C154.307 114.322 154.248 114.312 154.193 114.292C154.137 114.273 154.087 114.242 154.044 114.204C154 114.165 153.966 114.118 153.941 114.066C153.916 114.013 153.903 113.958 153.901 113.9C153.898 113.843 153.907 113.785 153.928 113.732C153.948 113.678 153.979 113.628 154.019 113.587C154.059 113.544 154.107 113.511 154.161 113.487C154.214 113.463 154.272 113.449 154.331 113.447C156.075 113.31 158.22 113.36 159.712 113.426C159.831 113.431 159.943 113.481 160.022 113.567C160.103 113.652 160.145 113.766 160.14 113.881C160.134 113.997 160.082 114.106 159.993 114.184C159.906 114.262 159.79 114.303 159.671 114.298C158.205 114.232 156.101 114.183 154.408 114.318L154.365 114.32Z" fill="black"/>
<path d="M124.67 22.6628C125.456 23.4795 126.503 24.0233 127.253 24.8711C128.783 26.6044 128.746 29.149 129.399 31.3561C129.511 31.7567 129.702 32.194 130.095 32.3471C130.745 32.599 131.357 31.9032 131.641 31.2707C133.084 28.0681 132.367 24.0321 129.906 21.5054C128.744 20.3136 127.048 19.408 125.334 19.5312C124.678 19.5789 123.956 19.5989 123.783 20.308C123.581 21.1247 124.124 22.0935 124.67 22.6628Z" fill="white"/>
<path d="M130.889 51.36H130.859C130.746 51.3518 130.641 51.2969 130.566 51.2078C130.492 51.1185 130.454 51.0021 130.462 50.8841C130.765 46.4328 130.804 41.9664 130.582 37.5098C130.579 37.4513 130.587 37.3928 130.606 37.3375C130.625 37.2822 130.653 37.2313 130.691 37.1877C130.729 37.1443 130.774 37.1088 130.826 37.0835C130.876 37.0583 130.932 37.0437 130.987 37.0406C131.044 37.0376 131.1 37.0461 131.153 37.0657C131.206 37.0852 131.255 37.1155 131.297 37.1546C131.339 37.1938 131.373 37.2413 131.397 37.2943C131.421 37.3471 131.435 37.4045 131.438 37.463C131.663 41.9544 131.622 46.4559 131.317 50.9421C131.311 51.0554 131.263 51.1618 131.182 51.2395C131.103 51.3171 130.998 51.3602 130.889 51.36Z" fill="white"/>
<path d="M130.043 59.6C129.931 59.6002 129.823 59.5568 129.74 59.4782C129.657 59.3996 129.607 59.2921 129.599 59.177C129.533 58.2181 129.638 57.2548 129.908 56.3342C129.924 56.2757 129.951 56.221 129.988 56.1735C130.025 56.1259 130.07 56.0862 130.121 56.0568C130.173 56.0275 130.23 56.0091 130.289 56.0026C130.348 55.9961 130.407 56.0018 130.464 56.0192C130.521 56.0366 130.573 56.0655 130.618 56.1041C130.665 56.1427 130.702 56.1902 130.729 56.244C130.757 56.2977 130.774 56.3565 130.778 56.4169C130.784 56.4772 130.777 56.5381 130.758 56.5957C130.52 57.411 130.426 58.2641 130.485 59.1133C130.493 59.2334 130.454 59.3519 130.378 59.4427C130.3 59.5335 130.191 59.5893 130.073 59.5977L130.043 59.6Z" fill="white"/>
<path d="M73.4807 59.6C73.3583 59.6 73.2411 59.5528 73.1546 59.4687C73.0681 59.3846 73.0195 59.2705 73.0195 59.1515C73.0195 57.3058 73.7377 52.9191 75.4681 50.6608C75.5043 50.6136 75.5497 50.5737 75.6017 50.5435C75.6537 50.5132 75.7114 50.4934 75.7713 50.4847C75.8312 50.4762 75.8923 50.4792 75.9511 50.4937C76.0098 50.5082 76.065 50.5336 76.1137 50.5688C76.1623 50.604 76.2033 50.6482 76.2343 50.6988C76.2654 50.7495 76.2859 50.8054 76.2947 50.8637C76.3034 50.9221 76.3003 50.9815 76.2855 51.0387C76.2707 51.0957 76.2444 51.1496 76.2082 51.1968C74.7487 53.1008 73.9418 57.1095 73.9418 59.1515C73.9418 59.2705 73.8932 59.3846 73.8067 59.4687C73.7202 59.5528 73.603 59.6 73.4807 59.6Z" fill="white"/>
<path d="M27.5147 71.68C27.4048 71.6804 27.2987 71.639 27.2174 71.5639C27.1361 71.4888 27.0855 71.3855 27.0756 71.2744C26.5356 65.1541 25.8683 58.9381 25.2294 52.926C24.5906 46.9138 23.9222 40.6911 23.3833 34.5631C23.1572 32.01 22.9014 29.1171 23.9321 26.506C24.8683 24.1369 27.0921 22.6904 30.3641 22.3237C30.4219 22.3161 30.4807 22.3203 30.537 22.336C30.5932 22.3517 30.6459 22.3786 30.6918 22.4152C30.7377 22.4518 30.776 22.4973 30.8043 22.5491C30.8327 22.6009 30.8506 22.6578 30.857 22.7168C30.8635 22.7756 30.8582 22.8352 30.8417 22.8921C30.8252 22.9489 30.7976 23.0017 30.7607 23.0476C30.7239 23.0936 30.6783 23.1316 30.6267 23.1593C30.5752 23.1872 30.5188 23.2043 30.4606 23.2097C28.418 23.4381 25.7673 24.2539 24.7531 26.8381C23.8004 29.2508 24.0462 32.0301 24.2635 34.4828C24.8047 40.6031 25.4709 46.8191 26.1097 52.8301C26.7485 58.8411 27.417 65.0661 27.9581 71.1941C27.9685 71.3117 27.9324 71.4287 27.858 71.5194C27.7835 71.61 27.6766 71.6671 27.5608 71.6778L27.5147 71.68Z" fill="black"/>
<path d="M32.02 106.16C31.9225 106.159 31.8279 106.126 31.7509 106.066C31.674 106.005 31.619 105.921 31.5946 105.826C31.3521 104.923 31.0975 102.374 30.8507 99.9087C30.714 98.5471 30.5862 97.26 30.4748 96.4308L28.0645 78.3442C28.0489 78.2272 28.0799 78.1089 28.1508 78.0151C28.2217 77.9213 28.3266 77.8597 28.4425 77.844C28.5585 77.8282 28.6757 77.8595 28.7688 77.931C28.8618 78.0025 28.9228 78.1083 28.9385 78.2252L31.3488 96.3141C31.459 97.1589 31.5913 98.4526 31.728 99.822C31.9594 102.138 32.2217 104.764 32.4454 105.602C32.4757 105.715 32.4601 105.836 32.4018 105.939C32.3435 106.041 32.2474 106.115 32.1346 106.146C32.0973 106.156 32.0587 106.161 32.02 106.16Z" fill="black"/>
<path d="M42.1464 114.148C42.1232 114.149 42.0999 114.149 42.0768 114.148C39.6136 113.767 38.5191 113.274 37.6391 112.879L37.5175 112.824C37.4646 112.8 37.4172 112.767 37.3777 112.725C37.3381 112.684 37.3075 112.634 37.2873 112.581C37.2672 112.528 37.2579 112.472 37.2601 112.415C37.2623 112.359 37.2759 112.303 37.3002 112.251C37.3244 112.2 37.3588 112.154 37.4014 112.115C37.4441 112.076 37.4939 112.046 37.5484 112.026C37.6029 112.007 37.6607 111.998 37.7188 112C37.7768 112.002 37.8339 112.015 37.8867 112.039L38.0093 112.094C38.8827 112.487 39.8722 112.932 42.2105 113.295C42.3278 113.304 42.4367 113.358 42.5132 113.445C42.5897 113.532 42.6276 113.646 42.6184 113.76C42.6094 113.875 42.5541 113.981 42.4647 114.056C42.3753 114.131 42.2592 114.167 42.1419 114.159L42.1464 114.148Z" fill="black"/>
<path d="M65.7322 115.52C59.75 115.52 53.8726 115.354 48.3087 114.848C48.2502 114.842 48.1932 114.825 48.141 114.798C48.0889 114.77 48.0426 114.733 48.0049 114.687C47.9671 114.643 47.9386 114.59 47.921 114.534C47.9034 114.478 47.8969 114.419 47.9022 114.359C47.9074 114.301 47.924 114.244 47.9512 114.191C47.9785 114.138 48.0157 114.093 48.0609 114.054C48.106 114.016 48.158 113.987 48.2142 113.97C48.2703 113.952 48.3294 113.946 48.3879 113.951C59.3194 114.937 71.5058 114.616 83.2895 114.304C86.9404 114.208 90.7162 114.108 94.4095 114.048C100.321 113.951 107.823 113.23 112.241 112.33C112.299 112.318 112.358 112.317 112.416 112.328C112.474 112.339 112.53 112.36 112.579 112.393C112.628 112.425 112.671 112.468 112.704 112.517C112.736 112.565 112.76 112.621 112.771 112.678C112.783 112.737 112.783 112.797 112.772 112.854C112.761 112.913 112.738 112.969 112.705 113.018C112.672 113.066 112.629 113.109 112.58 113.141C112.531 113.175 112.477 113.197 112.419 113.208C107.957 114.117 100.385 114.848 94.424 114.944C90.7352 115.003 86.9616 115.103 83.3129 115.201C77.4858 115.363 71.5593 115.52 65.7322 115.52Z" fill="black"/>
<path d="M115.626 112C115.519 111.999 115.416 111.961 115.335 111.892C115.255 111.823 115.201 111.727 115.185 111.622C115.168 111.516 115.191 111.409 115.247 111.318C115.303 111.228 115.389 111.161 115.491 111.129C118.675 110.125 119.558 106.412 119.702 105.676C120.951 99.3171 121.16 94.1348 121.384 88.649C121.457 86.8941 121.531 85.0789 121.642 83.2213C121.645 83.1622 121.661 83.1053 121.687 83.0528C121.711 82.9993 121.749 82.9524 121.792 82.9134C121.836 82.8743 121.888 82.8442 121.944 82.8252C121.999 82.8063 122.058 82.7973 122.117 82.8007C122.176 82.804 122.234 82.8196 122.287 82.8453C122.339 82.871 122.388 82.9067 122.427 82.9502C122.465 82.9937 122.495 83.045 122.515 83.1008C122.534 83.1566 122.542 83.2146 122.539 83.2737C122.427 85.1246 122.354 86.9353 122.281 88.6858C122.057 94.2062 121.84 99.4219 120.578 105.847C120.417 106.669 119.424 110.829 115.757 111.983C115.714 111.994 115.671 112 115.626 112Z" fill="black"/>
<path d="M35.3871 22.72C35.2684 22.72 35.1544 22.6728 35.0705 22.5889C34.9866 22.5051 34.9395 22.3913 34.9395 22.2727C34.9395 22.154 34.9866 22.0403 35.0705 21.9563C35.1544 21.8725 35.2684 21.8254 35.3871 21.8254C36.2365 21.8254 37.7003 21.6912 38.6683 21.6017C39.2379 21.5503 39.5412 21.5223 39.6822 21.5201C39.8009 21.5175 39.9158 21.5623 40.0015 21.6443C40.0872 21.7265 40.1368 21.8392 40.1394 21.9579C40.1418 22.0765 40.0972 22.1913 40.0149 22.2769C39.9328 22.3626 39.82 22.4121 39.7012 22.4147C39.5893 22.4147 39.1976 22.4516 38.75 22.493C37.7652 22.5836 36.2768 22.72 35.3871 22.72Z" fill="black"/>
<path d="M42.294 22.3992C42.1758 22.4064 42.0597 22.3661 41.971 22.2872C41.8823 22.2082 41.8284 22.097 41.8211 21.9782C41.8139 21.8593 41.8539 21.7422 41.9324 21.653C42.0109 21.5638 42.1213 21.5096 42.2394 21.5023C47.0786 20.8925 58.1927 20.314 64.1692 20.24C64.2282 20.2392 64.2867 20.2503 64.3414 20.2725C64.3961 20.2947 64.4459 20.3276 64.4879 20.3693C64.5299 20.411 64.5632 20.4608 64.5859 20.5155C64.6086 20.5703 64.6203 20.629 64.6203 20.6884C64.6203 20.8073 64.5734 20.9214 64.4899 21.0055C64.4062 21.0896 64.2929 21.1369 64.1747 21.1369C58.2216 21.2097 47.1565 21.7859 42.3408 22.3924C42.3253 22.3955 42.3097 22.3977 42.294 22.3992Z" fill="black"/>
<path d="M72.4207 21.12H70.6607C70.544 21.12 70.432 21.0778 70.3495 21.0028C70.267 20.9278 70.2207 20.8261 70.2207 20.72C70.2207 20.6139 70.267 20.5121 70.3495 20.4371C70.432 20.3621 70.544 20.32 70.6607 20.32H72.4207C72.5374 20.32 72.6493 20.3621 72.7318 20.4371C72.8143 20.5121 72.8607 20.6139 72.8607 20.72C72.8607 20.8261 72.8143 20.9278 72.7318 21.0028C72.6493 21.0778 72.5374 21.12 72.4207 21.12Z" fill="black"/>
</g>
<defs>
<clipPath id="clip0_165_7923">
<rect width="160" height="160" fill="white" transform="translate(0.5)"/>
</clipPath>
</defs>
</svg>
