<svg width="161" height="160" viewBox="0 0 161 160" fill="none" xmlns="http://www.w3.org/2000/svg">
<g clip-path="url(#clip0_165_7955)">
<path d="M133.765 90.9744C133.703 90.9371 133.637 90.9063 133.57 90.88C132.67 92.9176 131.353 94.7544 129.699 96.2785C131.672 98.1646 136.178 101.906 138.634 99.4067C141.732 96.2554 136.066 92.3602 133.765 90.9744Z" fill="black"/>
<path d="M136.592 100.72C134.05 100.72 131.021 98.1636 129.435 96.6324C129.391 96.5918 129.357 96.5413 129.334 96.4864C129.311 96.4315 129.3 96.3733 129.301 96.3129C129.301 96.2548 129.314 96.1955 129.339 96.1417C129.363 96.0879 129.398 96.0385 129.443 95.9979C131.035 94.5128 132.305 92.7247 133.173 90.7413C133.219 90.6392 133.303 90.5569 133.409 90.5141C133.515 90.4702 133.634 90.4691 133.741 90.5086C133.833 90.5448 133.924 90.5876 134.009 90.6392C136.067 91.8905 139.572 94.3844 139.914 97.0187C140.043 98.022 139.709 98.9407 138.921 99.7508C138.629 100.057 138.278 100.301 137.886 100.468C137.496 100.634 137.074 100.721 136.649 100.72H136.592ZM130.39 96.3184C131.76 97.5939 134.51 99.8704 136.639 99.8419C136.945 99.8452 137.251 99.7837 137.534 99.6641C137.816 99.5433 138.069 99.3666 138.279 99.1438C138.881 98.5258 139.127 97.8672 139.031 97.1296C138.741 94.8893 135.445 92.57 133.787 91.5371C132.947 93.3153 131.797 94.9332 130.39 96.3195V96.3184Z" fill="black"/>
<path d="M145.494 143.68C145.102 143.68 144.71 143.672 144.325 143.66C141.299 143.565 130.989 143.007 125.334 139.795C125.24 139.743 125.168 139.657 125.133 139.555C125.097 139.454 125.1 139.343 125.141 139.243C125.493 138.359 125.677 136.813 125.645 135.887C125.642 135.813 125.658 135.739 125.693 135.671C125.726 135.605 125.776 135.548 125.838 135.506C125.9 135.464 125.972 135.438 126.046 135.432C126.121 135.424 126.196 135.436 126.265 135.466C131.259 137.643 139.226 139.76 144.917 139.266C145.876 139.183 147.211 138.991 147.726 138.295C148.083 137.814 147.948 137.206 147.785 136.503C147.712 136.208 147.657 135.91 147.618 135.608C147.458 134.128 148.237 132.568 149.867 131.098C152.503 128.724 154.132 127.041 154.108 125.989C154.096 125.498 153.747 125.032 152.818 124.271C151.016 122.794 148.058 122.789 144.627 122.784C140.368 122.777 135.541 122.77 131.304 119.971C126.212 116.612 124.417 112.048 122.831 108.021C121.245 103.995 119.999 100.833 115.912 100.368C115.345 100.304 114.843 100.01 114.402 99.752L114.191 99.6328C112.752 98.8178 112.752 97.042 112.74 95.9807C112.739 95.92 112.752 95.8604 112.776 95.804C112.8 95.7488 112.835 95.698 112.881 95.6561C112.925 95.6152 112.977 95.5832 113.035 95.5633C113.091 95.5423 113.152 95.5346 113.213 95.5379C113.383 95.518 113.552 95.4838 113.717 95.4341C115.28 95.0365 118.941 94.1089 124.538 99.6858C126.158 101.3 126.963 103.397 127.816 105.618C129.069 108.88 130.488 112.575 134.877 115.81C137.487 117.73 141.076 117.774 144.878 117.819C147.306 117.848 149.816 117.877 152.087 118.436C154.069 118.913 155.944 119.759 157.612 120.929C159.07 121.974 159.986 123.093 160.332 124.254C160.908 126.184 160.008 128.33 157.581 130.817C157.312 131.093 157.028 131.369 156.76 131.643C155.301 133.093 153.792 134.592 153.341 136.321C153.19 136.897 153.151 137.506 153.111 138.15C153.027 139.442 152.941 140.778 151.904 141.874C150.49 143.37 147.975 143.68 145.494 143.68ZM126.094 139.204C131.638 142.159 141.436 142.686 144.352 142.777C146.985 142.858 149.864 142.745 151.261 141.268C152.079 140.403 152.146 139.28 152.227 138.093C152.269 137.431 152.314 136.757 152.485 136.098C152.998 134.136 154.588 132.551 156.138 131.018C156.407 130.749 156.686 130.473 156.95 130.202C159.132 127.965 159.962 126.102 159.486 124.507C159.198 123.538 158.394 122.576 157.099 121.648C155.523 120.542 153.75 119.745 151.877 119.295C149.707 118.761 147.248 118.731 144.87 118.703C141.097 118.658 137.194 118.612 134.354 116.521C129.757 113.136 128.288 109.311 126.992 105.935C126.139 103.713 125.402 101.794 123.915 100.312C118.675 95.0884 115.355 95.931 113.938 96.2911C113.827 96.3198 113.725 96.3452 113.633 96.3661C113.661 97.4086 113.816 98.4047 114.629 98.8663L114.85 98.9967C115.233 99.2175 115.625 99.4538 116.011 99.4969C120.627 100.023 122.031 103.583 123.649 107.705C125.188 111.61 126.932 116.035 131.787 119.241C135.802 121.892 140.488 121.9 144.628 121.907C148.226 121.907 151.333 121.917 153.373 123.596C154.353 124.4 154.965 125.078 154.985 125.975C155.014 127.238 153.913 128.643 150.453 131.761C149.469 132.644 148.33 134.02 148.491 135.516C148.526 135.784 148.575 136.049 148.642 136.31C148.823 137.109 149.028 138.016 148.43 138.823C147.71 139.795 146.211 140.038 144.986 140.148C139.37 140.636 131.631 138.663 126.516 136.539C126.48 137.442 126.338 138.336 126.094 139.204Z" fill="#1B5EC9"/>
<path d="M113.591 109.84C112.383 109.84 111.479 108.5 110.869 107.596C110.759 107.437 110.66 107.286 110.572 107.166C108.957 104.949 107.409 102.414 105.701 99.1857C104.681 97.2595 103.702 95.2756 102.755 93.356C102.342 92.5181 101.914 91.6525 101.489 90.8068C100.67 89.1698 99.9909 87.8576 99.3511 86.6761C98.96 85.9524 98.5877 85.2852 98.2131 84.6357C98.1866 84.5914 98.0783 84.4307 97.9723 84.2766C97.0022 82.848 96.8796 82.5853 97.0387 82.2728L103.536 69.4676C103.637 69.2703 103.805 68.94 104.155 68.7926C104.597 68.6053 105.03 68.8259 105.26 68.9434C110.241 71.4846 115.399 73.6605 120.695 75.4536C121.322 75.6664 121.967 75.8781 122.59 76.0832C126.276 77.2968 130.088 78.5525 133.341 80.7976C134.042 81.2797 134.75 81.8372 135.193 82.6341C135.679 83.5097 135.812 84.5858 135.609 86.0222C134.836 91.5184 130.748 95.8719 126.86 99.4041C126.537 99.7 126.213 99.9915 125.888 100.277C123.644 102.272 121.109 104.386 117.911 106.927C117.295 107.417 116.638 107.936 115.903 108.513C115.793 108.603 115.669 108.707 115.541 108.818C115.047 109.248 114.487 109.735 113.801 109.823C113.731 109.834 113.66 109.84 113.591 109.84ZM97.9016 82.5222C98.0496 82.817 98.5125 83.4975 98.7004 83.7746C98.8539 83.9962 98.9346 84.1203 98.9755 84.1891C99.3544 84.8452 99.7301 85.519 100.127 86.2505C100.77 87.4409 101.453 88.7609 102.277 90.4078C102.703 91.259 103.131 92.1268 103.545 92.9647C104.489 94.8788 105.465 96.8572 106.479 98.7712C108.167 101.96 109.694 104.46 111.284 106.64C111.382 106.776 111.487 106.932 111.599 107.098C112.122 107.874 112.914 109.046 113.688 108.946C114.11 108.89 114.564 108.502 114.964 108.15C115.1 108.031 115.229 107.919 115.359 107.817C116.092 107.241 116.748 106.722 117.363 106.234C120.548 103.7 123.071 101.596 125.303 99.6124C125.626 99.3265 125.947 99.0372 126.268 98.7457C130.043 95.3188 134.002 91.1127 134.735 85.897C134.909 84.6623 134.809 83.7624 134.422 83.0652C134.067 82.4268 133.453 81.948 132.842 81.5269C129.693 79.3538 125.942 78.1191 122.315 76.9244C121.69 76.7193 121.045 76.5065 120.413 76.2926C115.078 74.4856 109.88 72.2939 104.861 69.7347C104.603 69.6017 104.522 69.5995 104.498 69.6106C104.445 69.6327 104.354 69.8112 104.324 69.8699L97.9016 82.5222Z" fill="#1B5EC9"/>
<path d="M21.5012 54.8227C20.7607 54.5203 19.9492 54.4705 19.1522 54.3664C14.3589 53.7372 9.9104 50.8571 7.37187 46.7487C6.87082 45.9367 6.56376 44.6351 7.48273 44.2497C7.78037 44.1316 8.11237 44.134 8.40835 44.2563C11.2772 45.3773 13.4267 48.2551 16.5361 48.4534C16.7196 48.4687 16.9044 48.4526 17.0826 48.4058C18.108 48.1078 18.0426 46.886 17.7787 45.9854C16.7559 42.5507 14.5811 39.5725 11.6198 37.5514C9.6244 36.1989 7.06481 34.9826 6.7511 32.5467C6.7246 32.3687 6.74677 32.187 6.81539 32.0206C7.09807 31.387 7.92946 31.5199 8.53028 31.7481C12.8768 33.3975 16.3011 35.6107 18.793 39.5342C19.3074 40.1833 19.569 39.5186 19.3152 39.0324C15.7878 32.3928 14.0242 32.0139 11.2029 28.6199C9.89045 27.0414 9.49914 23.9764 12.4811 25.5028C17.1447 27.8888 20.1831 32.0848 22.582 36.7272C22.7649 37.0817 22.9921 37.8349 23.3868 37.7729C24.0619 37.6743 24.1217 36.8679 24.0286 36.262C23.2526 31.2142 19.8062 26.9196 18.7853 21.915C18.6157 21.0853 18.7975 19.879 19.681 19.9211C19.9625 19.9344 20.6786 20.0695 20.8571 20.2855C23.4688 23.396 25.4109 27.469 26.5616 31.6617C26.8886 32.8547 27.332 33.7663 27.8486 34.7954C27.908 34.9139 28.0046 35.0098 28.1236 35.0685C28.2427 35.1271 28.3776 35.1453 28.508 35.1203C28.6382 35.0951 28.7568 35.0282 28.8455 34.9295C28.9342 34.8308 28.9882 34.706 28.9993 34.5738C29.0403 34.1119 28.9084 33.5581 28.8086 32.9677C28.4095 30.5861 28.01 28.2041 27.6103 25.8218C27.5249 25.309 27.444 24.7507 27.8963 24.3386C28.0782 24.1806 28.3004 24.0761 28.5382 24.037C28.7761 23.9979 29.0201 24.0256 29.2431 24.1171C30.1122 24.4494 30.5157 25.3178 30.825 26.1442C32.5244 30.6969 32.7261 35.6882 34.3069 40.2819C35.3046 43.1874 36.8465 45.9312 37.3199 48.9685C37.3908 49.426 37.4307 49.9112 37.2556 50.3398C37.0804 50.7685 36.6858 51.0898 36.3122 51.3844L29.742 56.5652L28.0991 57.8612C27.6557 58.2101 27.199 58.6643 26.6248 58.7761C25.6149 58.9722 24.8345 57.9155 24.2636 57.2497C23.4666 56.3215 22.6673 55.3002 21.5012 54.8227Z" fill="#FF5400"/>
<path d="M42.2039 54.9223C40.9513 50.9369 39.4243 47.0425 37.6338 43.2669C37.5801 43.1535 37.5009 43.0539 37.4023 42.9761C37.3037 42.8982 37.1884 42.844 37.0654 42.8179C36.9424 42.7918 36.815 42.7942 36.6931 42.8253C36.5713 42.8563 36.4582 42.9149 36.3629 42.9967L20.537 56.5691C20.3774 56.7064 20.2786 56.901 20.2622 57.1105C20.2458 57.32 20.313 57.5275 20.4494 57.6877C27.3005 65.7504 34.0025 73.9393 40.5555 82.254L57.9398 87.92L42.2039 54.9223Z" fill="#FACBDF"/>
<path d="M27.4611 47.12C27.3591 47.1198 27.2605 47.0824 27.1823 47.0144C27.1042 46.9465 27.0517 46.8521 27.0338 46.7481C26.7728 45.2483 26.7521 44.0437 26.9663 42.945C27.2447 41.5251 27.945 40.3408 28.9238 39.6106C28.9701 39.5744 29.0229 39.5483 29.0791 39.5336C29.1354 39.519 29.1939 39.5161 29.2512 39.5252C29.3085 39.5342 29.3634 39.5552 29.4129 39.5865C29.4623 39.6179 29.5051 39.6593 29.5389 39.7081C29.5726 39.7569 29.5967 39.8122 29.6095 39.8708C29.6223 39.9294 29.6237 39.99 29.6137 40.0492C29.6036 40.1083 29.5822 40.1648 29.5508 40.2153C29.5193 40.2658 29.4785 40.3091 29.4305 40.3431C28.6388 40.9313 28.0527 41.9455 27.8211 43.1242C27.6297 44.1034 27.6514 45.2043 27.8918 46.5892C27.9121 46.7068 27.8864 46.8279 27.8206 46.9259C27.7547 47.024 27.654 47.0909 27.5405 47.1121C27.5144 47.1171 27.4878 47.1196 27.4611 47.12Z" fill="black"/>
<path d="M9.93049 34.48C9.49599 34.482 9.07025 34.3648 8.70446 34.1427C8.60453 34.0812 8.53458 33.9846 8.50977 33.8741C8.48507 33.7637 8.50764 33.6484 8.57253 33.5537C8.63743 33.459 8.73937 33.3928 8.85591 33.3692C8.97245 33.3458 9.09405 33.3672 9.19397 33.4287C9.40696 33.5548 9.65205 33.6237 9.90321 33.6282C10.1543 33.6327 10.4019 33.5726 10.6199 33.4543C10.7221 33.3963 10.8445 33.3791 10.9602 33.4067C11.0757 33.4343 11.1751 33.5042 11.2362 33.6011C11.2974 33.698 11.3155 33.814 11.2864 33.9236C11.2574 34.0331 11.1836 34.1272 11.0813 34.1852C10.7327 34.3799 10.3351 34.4818 9.93049 34.48Z" fill="black"/>
<path d="M12.9486 28.2396C12.3768 28.2396 11.7902 27.976 11.3332 27.6362C11.2858 27.6033 11.2451 27.5603 11.2136 27.5101C11.1819 27.4598 11.1598 27.4033 11.1488 27.3436C11.1377 27.2841 11.1379 27.2227 11.1492 27.1632C11.1606 27.1036 11.1828 27.0471 11.2147 26.997C11.2466 26.9469 11.2875 26.9043 11.335 26.8716C11.3825 26.8388 11.4354 26.8167 11.491 26.8065C11.5465 26.7962 11.6034 26.7982 11.6582 26.812C11.713 26.8259 11.7647 26.8516 11.8102 26.8874C11.9155 26.9669 12.8854 27.6567 13.4952 27.1374C13.5827 27.062 13.6944 27.0272 13.8057 27.0408C13.9169 27.0544 14.0187 27.1151 14.0886 27.2095C14.1584 27.3039 14.1905 27.4245 14.178 27.5446C14.1654 27.6647 14.1092 27.7745 14.0217 27.8498C13.7168 28.1104 13.3374 28.2482 12.9486 28.2396Z" fill="black"/>
<path d="M21.6735 23.84C21.3722 23.8378 21.076 23.7658 20.8098 23.6303C20.5752 23.5195 20.369 23.3602 20.2059 23.1639C20.0429 22.9676 19.927 22.739 19.8665 22.4946C19.8462 22.3878 19.8698 22.2774 19.9325 22.1869C19.9951 22.0964 20.0919 22.0329 20.2022 22.0097C20.3127 21.9864 20.4282 22.0053 20.5244 22.0624C20.6207 22.1193 20.69 22.21 20.7182 22.3153C20.7553 22.4379 20.8179 22.552 20.9021 22.6506C20.9864 22.7493 21.0906 22.8306 21.2084 22.8894C21.3263 22.9482 21.4553 22.9834 21.5878 22.9929C21.7202 23.0023 21.8532 22.9859 21.9789 22.9445C22.0851 22.9029 22.2041 22.9034 22.3101 22.9455C22.4161 22.9878 22.5005 23.0683 22.5451 23.17C22.5897 23.2716 22.5908 23.386 22.5484 23.4885C22.5058 23.5909 22.423 23.6731 22.318 23.7173C22.1139 23.7994 21.8947 23.8411 21.6735 23.84Z" fill="black"/>
<path d="M30.2663 27.52C29.9187 27.52 29.586 27.3307 29.3315 26.9825C28.9956 26.5227 28.7742 25.7429 28.9796 25.3023C29.0031 25.2485 29.0365 25.2001 29.0776 25.1599C29.1189 25.1197 29.1674 25.0885 29.2201 25.0679C29.2728 25.0474 29.3289 25.0381 29.385 25.0403C29.4412 25.0427 29.4964 25.0567 29.5475 25.0815C29.5985 25.1061 29.6444 25.1413 29.6826 25.1848C29.7208 25.2283 29.7504 25.2793 29.7699 25.3349C29.7893 25.3905 29.7983 25.4495 29.7961 25.5087C29.7939 25.5678 29.7807 25.626 29.7572 25.6798C29.7677 25.9881 29.8813 26.2827 30.078 26.5115C30.1978 26.6377 30.2738 26.6242 30.3069 26.614C30.362 26.6021 30.4187 26.6018 30.4739 26.6131C30.5291 26.6244 30.5816 26.6469 30.6284 26.6796C30.6753 26.7123 30.7156 26.7543 30.7471 26.8033C30.7785 26.8525 30.8005 26.9076 30.8118 26.9656C30.823 27.0235 30.8232 27.0833 30.8126 27.1415C30.8019 27.1995 30.7804 27.2549 30.7494 27.3043C30.7185 27.3537 30.6785 27.3962 30.632 27.4293C30.5854 27.4624 30.5331 27.4855 30.4781 27.4975C30.4083 27.5123 30.3374 27.5199 30.2663 27.52Z" fill="black"/>
<path d="M35.2627 17.68C35.2029 17.6801 35.1437 17.6679 35.0888 17.6441C35.0339 17.6204 34.9843 17.5856 34.9432 17.542C32.7959 15.2615 30.145 13.5213 27.2049 12.4622C27.1489 12.444 27.0971 12.4147 27.0526 12.376C27.008 12.3374 26.9717 12.2901 26.9457 12.237C26.9196 12.1839 26.9045 12.1261 26.9011 12.0671C26.8978 12.008 26.9063 11.9489 26.926 11.8931C26.9458 11.8374 26.9765 11.7862 27.0164 11.7427C27.0563 11.6991 27.1043 11.6641 27.1579 11.6396C27.2114 11.6151 27.2694 11.6017 27.3282 11.6002C27.387 11.5986 27.4455 11.609 27.5003 11.6306C30.5704 12.7352 33.3387 14.551 35.5812 16.9313C35.6398 16.994 35.6789 17.0725 35.6937 17.1573C35.7086 17.242 35.6985 17.3294 35.6646 17.4085C35.6308 17.4875 35.5748 17.5549 35.5033 17.6024C35.432 17.6499 35.3483 17.6753 35.2627 17.6756V17.68Z" fill="#1B5EC9"/>
<path d="M34.0517 10.88C33.9912 10.8801 33.9313 10.8678 33.8756 10.8441C33.8198 10.8202 33.7695 10.7852 33.7277 10.7414C33.0317 10.019 32.0882 9.59028 31.089 9.54216C31.03 9.53945 30.9723 9.52525 30.9189 9.50012C30.8654 9.47498 30.8175 9.43948 30.7777 9.39575C30.7379 9.35202 30.707 9.30085 30.687 9.24506C30.6669 9.18938 30.6579 9.13021 30.6606 9.07103C30.6632 9.01186 30.6774 8.9537 30.7024 8.90005C30.7275 8.8464 30.7627 8.79816 30.8063 8.75815C30.8498 8.71825 30.9007 8.68726 30.9561 8.66708C31.0116 8.64679 31.0704 8.63778 31.1294 8.64048C32.3582 8.69966 33.5185 9.2268 34.3747 10.1147C34.4155 10.1574 34.4477 10.2078 34.4692 10.2629C34.4908 10.3182 34.5012 10.377 34.5001 10.4363C34.499 10.4956 34.4862 10.5539 34.4625 10.6083C34.439 10.6625 34.4049 10.7116 34.3624 10.7527C34.279 10.8339 34.1677 10.8796 34.0517 10.88Z" fill="#1B5EC9"/>
<path d="M6.13584 56.8732C6.02702 56.8739 5.92163 56.8338 5.83996 56.7605C3.65164 54.7535 2.05698 52.1652 1.23549 49.2866C1.20579 49.1725 1.22119 49.0509 1.27848 48.9483C1.33578 48.8456 1.43041 48.7699 1.54201 48.7374C1.6536 48.7049 1.77328 48.7182 1.87535 48.7746C1.97741 48.8309 2.05365 48.9257 2.08767 49.0385C2.86185 51.7548 4.36597 54.1972 6.43062 56.0908C6.49833 56.1515 6.5462 56.2319 6.56781 56.321C6.58942 56.4102 6.58377 56.504 6.55163 56.5898C6.51949 56.6756 6.46231 56.7493 6.38784 56.8012C6.31326 56.853 6.22505 56.8806 6.13473 56.88L6.13584 56.8732Z" fill="#1B5EC9"/>
<path d="M3.24403 59.36C3.14885 59.3601 3.05616 59.3303 2.97889 59.2747C1.75673 58.3768 0.884815 57.0789 0.513274 55.6047C0.48438 55.4874 0.503074 55.3634 0.565281 55.26C0.627375 55.1567 0.727994 55.0822 0.844702 55.0533C0.961411 55.0243 1.08492 55.0431 1.1878 55.1056C1.2908 55.1679 1.36479 55.2689 1.39369 55.3862C1.71322 56.6519 2.46253 57.7659 3.51257 58.5361C3.59008 58.5924 3.64786 58.672 3.67755 58.7634C3.70735 58.8547 3.70746 58.9533 3.678 59.0448C3.64854 59.1363 3.59109 59.2161 3.5137 59.2726C3.43631 59.3293 3.34318 59.3598 3.24743 59.36H3.24403Z" fill="#1B5EC9"/>
<path d="M9.10363 48.72C9.02044 48.7195 8.93919 48.6951 8.86937 48.6497C8.79955 48.6042 8.74419 48.5397 8.70982 48.4636C8.67557 48.3875 8.66361 48.3033 8.67557 48.2206C8.68753 48.1379 8.72288 48.0606 8.77736 47.9975C9.01445 47.7225 9.11342 47.0152 8.78715 46.6649C8.74593 46.6234 8.71341 46.574 8.69166 46.5196C8.6698 46.4654 8.65914 46.4071 8.66023 46.3486C8.66132 46.29 8.67404 46.2323 8.69786 46.1787C8.72168 46.1252 8.75594 46.0771 8.79857 46.0371C8.84131 45.9972 8.89167 45.9663 8.94648 45.9462C9.00141 45.9263 9.0597 45.9175 9.11799 45.9206C9.17629 45.9236 9.23338 45.9385 9.2858 45.9641C9.33833 45.9899 9.3851 46.0259 9.42338 46.0701C10.0574 46.7533 9.94868 47.9757 9.43317 48.5705C9.39217 48.6176 9.34149 48.6554 9.28461 48.6812C9.22784 48.707 9.16606 48.7202 9.10363 48.72Z" fill="black"/>
<path d="M50.1857 88.6636L32.9967 52.5255C32.8501 52.2178 32.7003 51.8869 32.7499 51.5494C32.7995 51.2119 33.0618 50.9142 33.312 50.6641C38.3277 45.5992 44.7501 42.2218 51.0523 38.9219C55.7196 36.4807 60.4223 34.024 65.4832 32.56L75.0252 59.0711C75.2378 59.6631 75.454 60.2883 75.3559 60.908C75.2677 61.479 74.5842 61.8708 74.5963 62.4484C74.766 70.8343 75.971 92.6883 54.9359 95.28C52.0228 92.7381 49.7907 89.5046 48.4429 85.8738L50.1857 88.6636Z" fill="black"/>
<path d="M54.942 95.5996C54.835 95.5996 54.7318 95.5597 54.6516 95.4889C51.666 92.9008 49.3794 89.6045 48.0014 85.9032C47.9671 85.8113 47.9647 85.7095 47.9947 85.6155C48.0246 85.5214 48.0851 85.4406 48.1666 85.3842L32.4811 52.5963C32.3304 52.281 32.1231 51.8472 32.194 51.3648C32.265 50.8823 32.5742 50.5415 32.8845 50.2306C38.0218 45.0742 44.5334 41.6872 50.8311 38.4108C55.474 35.9964 60.2754 33.4989 65.4226 32.0173C65.5307 31.9862 65.6466 31.9973 65.7468 32.0482C65.847 32.0992 65.924 32.1862 65.9624 32.2917L75.5552 58.8006C75.7658 59.3826 76.0274 60.1063 75.911 60.8554C75.8523 61.2316 75.6361 61.5193 75.4444 61.7738C75.2925 61.9741 75.1496 62.1644 75.1518 62.3193C75.157 62.5878 75.1636 62.8697 75.1717 63.1647C75.379 72.1042 75.8655 93.0402 54.9996 95.5963C54.9805 95.5996 54.9613 95.6007 54.942 95.5996ZM50.3855 88.924C51.6232 91.0916 53.2106 93.0413 55.0838 94.6922C63.5905 93.5935 69.3395 89.1276 72.1736 81.414C74.5577 74.927 74.3903 67.5753 74.285 63.1824C74.2784 62.8874 74.2722 62.6044 74.2662 62.3337C74.2562 61.8723 74.5222 61.5204 74.7361 61.2371C74.8769 61.0501 75.011 60.8731 75.0354 60.7171C75.1163 60.1915 74.9068 59.6105 74.7206 59.0982L65.2697 32.9844C60.3563 34.4539 55.7245 36.8639 51.2401 39.1964C45.0033 42.4407 38.5538 45.7968 33.513 50.8547C33.298 51.0693 33.104 51.2807 33.0696 51.4942C33.0353 51.7078 33.1472 51.9368 33.2791 52.2157L50.564 88.3508C50.6118 88.4515 50.62 88.5666 50.5869 88.6728C50.5539 88.779 50.4819 88.8686 50.3855 88.924Z" fill="black"/>
<path d="M47.8896 60.56C46.625 60.56 45.4658 60.0923 44.753 59.285C43.5405 57.9127 43.7348 55.8471 44.32 54.372C45.0539 52.522 46.4118 50.819 48.5958 49.0111C49.7541 48.0536 50.9821 47.1832 52.2698 46.4069L52.6584 46.1714C54.2062 45.2303 56.1337 44.0593 58.0578 44.0803C59.2026 44.0925 62.689 44.1323 63.7926 46.5418C64.8019 48.7468 63.0909 51.1154 61.9806 52.3318C59.2292 55.3462 55.5907 57.874 51.4593 59.6422C50.4245 60.0845 49.3042 60.5025 48.1172 60.5556C48.0417 60.5589 47.9651 60.56 47.8896 60.56ZM49.1643 49.6922C47.0991 51.4007 45.8222 52.9908 45.146 54.6971C44.6575 55.9289 44.4721 57.6285 45.4203 58.7012C45.9988 59.3569 46.9925 59.7196 48.0784 59.671C49.1221 59.6256 50.1513 59.2397 51.1095 58.8294C55.1244 57.111 58.6596 54.6584 61.3244 51.7368C62.2881 50.6819 63.7837 48.6517 62.9898 46.9089C62.4047 45.6306 60.7903 44.9948 58.0534 44.9649C56.3791 44.9439 54.6536 45.9978 53.127 46.9266L52.735 47.1644C51.4848 47.9172 50.2931 48.7621 49.1698 49.6922H49.1643Z" fill="white"/>
<path d="M51.4302 52.8C51.3435 52.8007 51.2586 52.7761 51.1857 52.7293C51.1128 52.6824 51.0551 52.6154 51.0196 52.5363C50.9841 52.4573 50.9724 52.3695 50.9859 52.2838C50.9993 52.1982 51.0374 52.1183 51.0955 52.054C52.2176 50.81 53.6127 49.8436 55.1712 49.2308C55.2814 49.1876 55.4043 49.1899 55.5127 49.2374C55.6213 49.2847 55.7064 49.3734 55.7497 49.4838C55.7929 49.5941 55.7905 49.717 55.7431 49.8256C55.6957 49.9343 55.6071 50.0196 55.497 50.0628C54.0686 50.6256 52.7901 51.5121 51.7616 52.6526C51.7196 52.699 51.6685 52.7361 51.6115 52.7615C51.5544 52.7869 51.4926 52.8 51.4302 52.8Z" fill="white"/>
<path d="M51.9859 55.6C51.8998 55.601 51.8153 55.5766 51.7428 55.53C51.6701 55.4833 51.6128 55.4163 51.5776 55.3372C51.5425 55.2581 51.531 55.1703 51.5447 55.0847C51.5585 54.9991 51.5966 54.9194 51.6548 54.8555C53.701 52.6037 56.1662 50.778 58.9104 49.4819C59.0165 49.4319 59.1379 49.4264 59.2481 49.4667C59.3581 49.5069 59.4479 49.5895 59.4975 49.6963C59.5471 49.8031 59.5525 49.9255 59.5126 50.0363C59.4726 50.1471 59.3906 50.2375 59.2845 50.2875C56.6453 51.5329 54.2749 53.2884 52.3081 55.4544C52.2673 55.4996 52.2175 55.536 52.1621 55.561C52.1066 55.5861 52.0467 55.5993 51.9859 55.6Z" fill="white"/>
<path d="M36.1525 54.48C36.0696 54.48 35.9883 54.4548 35.9188 54.4076C35.8493 54.3603 35.7944 54.2929 35.7608 54.2137L35.0118 52.4557C34.9701 52.348 34.97 52.2275 35.0117 52.1198C35.0533 52.012 35.1335 51.9254 35.235 51.8783C35.3367 51.8313 35.4518 51.8274 35.556 51.8675C35.6604 51.9075 35.7458 51.9884 35.794 52.0932L36.543 53.85C36.5894 53.958 36.5928 54.0808 36.5527 54.1916C36.5126 54.3023 36.4322 54.3919 36.329 54.4408C36.2736 54.4671 36.2134 54.4804 36.1525 54.48Z" fill="white"/>
<path d="M39.0453 60.24C38.9659 60.2402 38.8881 60.2159 38.8212 60.17C38.7543 60.1241 38.7009 60.0584 38.6676 59.9809L37.5833 57.4471C37.5583 57.3935 37.5435 57.3352 37.5399 57.2754C37.5364 57.2156 37.5439 57.1557 37.5624 57.0992C37.5808 57.0425 37.6095 56.9906 37.647 56.9463C37.6843 56.9019 37.7297 56.8662 37.7802 56.8411C37.8308 56.816 37.8855 56.8021 37.9412 56.8002C37.9968 56.7983 38.0522 56.8085 38.1041 56.8301C38.156 56.8518 38.2033 56.8844 38.2432 56.9262C38.2832 56.9678 38.3149 57.0179 38.3366 57.073L39.422 59.6046C39.4445 59.6581 39.4571 59.7158 39.4588 59.7745C39.4606 59.8333 39.4516 59.8918 39.4323 59.9469C39.4131 60.0018 39.3838 60.0522 39.3465 60.0949C39.3091 60.1378 39.2642 60.1723 39.2145 60.1964C39.1618 60.2242 39.104 60.2391 39.0453 60.24Z" fill="white"/>
<path d="M42.3779 68C42.2906 67.9999 42.2054 67.9744 42.1329 67.9266C42.0606 67.8789 42.0041 67.811 41.9708 67.7317L40.2167 63.5686C40.1932 63.5157 40.1806 63.4586 40.1797 63.4009C40.1789 63.3432 40.1898 63.2857 40.2117 63.2321C40.2336 63.1786 40.2662 63.1298 40.3075 63.0887C40.3487 63.0478 40.3979 63.0152 40.4521 62.9931C40.5064 62.971 40.5645 62.9598 40.6232 62.96C40.6819 62.9603 40.7398 62.9722 40.7939 62.9948C40.8478 63.0174 40.8967 63.0504 40.9375 63.0919C40.9785 63.1333 41.0106 63.1824 41.0318 63.2362L42.786 67.3992C42.8082 67.452 42.8197 67.5086 42.8197 67.5658C42.8196 67.6229 42.8082 67.6795 42.7859 67.7322C42.7638 67.785 42.7311 67.8329 42.6901 67.8733C42.649 67.9136 42.6003 67.9457 42.5466 67.9674C42.4929 67.9888 42.4357 67.9999 42.3779 68Z" fill="white"/>
<path d="M44.6342 72.88C44.5516 72.8801 44.4708 72.856 44.4015 72.8106C44.3321 72.7651 44.2774 72.7003 44.2437 72.6239L43.4969 70.9261C43.4516 70.8215 43.449 70.7028 43.4898 70.5962C43.5304 70.4897 43.6112 70.4038 43.7143 70.3573C43.8174 70.3108 43.9344 70.3077 44.0399 70.3484C44.1453 70.3893 44.2305 70.4707 44.2768 70.5748L45.0236 72.2726C45.0698 72.377 45.0733 72.4957 45.0333 72.6026C44.9933 72.7096 44.913 72.7961 44.8102 72.8433C44.7547 72.8679 44.6948 72.8803 44.6342 72.88Z" fill="white"/>
<path d="M46.7737 80.24C46.6977 80.24 46.623 80.2207 46.5564 80.1844C46.4898 80.147 46.4336 80.0937 46.3929 80.029C45.8257 79.1346 45.4072 78.1526 45.1537 77.1222C45.1395 77.0643 45.1369 77.0042 45.1458 76.9452C45.1548 76.8863 45.1751 76.8297 45.2058 76.7788C45.2365 76.7277 45.2768 76.6834 45.3245 76.6481C45.3721 76.6128 45.4263 76.5873 45.4838 76.5731C45.5412 76.5588 45.6009 76.5562 45.6594 76.5652C45.718 76.5742 45.7741 76.5947 45.8248 76.6255C45.8754 76.6564 45.9195 76.697 45.9546 76.7451C45.9896 76.7931 46.0148 76.8475 46.029 76.9055C46.2579 77.8401 46.6365 78.7309 47.15 79.5428C47.1934 79.6113 47.2177 79.6904 47.2204 79.7716C47.223 79.853 47.2039 79.9334 47.1652 80.0052C47.1263 80.0755 47.0692 80.1356 46.9998 80.1765C46.9303 80.2184 46.8511 80.24 46.7703 80.24H46.7737Z" fill="white"/>
<path d="M114.387 51.2826C115.035 50.076 115.442 48.7586 115.938 47.4801C117.995 42.1333 121.727 37.2803 126.842 34.6966C127.258 34.4874 127.704 34.2892 128.172 34.3291C128.639 34.3689 129.101 34.7331 129.089 35.197C129.079 35.5623 128.794 35.8545 128.527 36.1069L124.186 40.2083C123.733 40.6356 123.24 41.24 123.494 41.809C123.694 42.2518 124.295 42.4023 124.762 42.2518C125.23 42.1012 125.595 41.7437 125.942 41.3961C128.201 39.1378 130.548 36.915 133.321 35.3287C134.494 34.6568 135.781 34.0944 137.132 34.08C137.507 34.08 137.908 34.1265 138.188 34.3756C138.609 34.752 138.575 35.4527 138.27 35.9254C137.965 36.398 137.465 36.7058 136.984 37.0025C134.197 38.7259 131.588 40.7208 129.195 42.958C128.863 43.2735 128.514 43.6112 128.364 44.0473C128.215 44.4835 128.329 45.0436 128.738 45.265C129.17 45.4941 129.694 45.2539 130.111 45.0004C133.605 42.8806 136.479 39.5164 140.457 38.5799C141.373 38.364 142.635 38.4958 142.844 39.4124C142.986 40.0334 142.519 40.6179 142.062 41.0618C139.316 43.7274 135.733 45.379 132.849 47.893C132.579 48.1277 132.307 48.3845 132.193 48.7221C132.079 49.0598 132.185 49.497 132.512 49.6431C132.733 49.7394 132.983 49.6841 133.213 49.6199C137.312 48.462 140.484 44.5964 144.734 44.3606C145.025 44.3451 145.332 44.3506 145.585 44.4968C146.319 44.9218 146.018 46.0676 145.474 46.7218C144.794 47.5443 143.896 48.1553 143.009 48.7487C139.737 50.9361 136.417 53.0504 133.05 55.0917C131.655 55.9375 130.24 56.7788 129.034 57.878C128.444 58.4149 127.877 59.2794 128.316 59.9458C128.648 60.4551 129.377 60.4993 129.977 60.4196C132.762 60.0565 135.125 58.2942 137.51 56.812C137.817 56.6205 138.156 56.4267 138.515 56.4644C139.026 56.5186 139.382 57.05 139.401 57.5636C139.42 58.0773 139.199 58.5665 138.951 59.0171C137.474 61.7015 135.043 63.828 132.231 65.0479C129.418 66.2678 126.249 66.5977 123.219 66.0918C121.484 65.8029 119.761 65.2483 118.012 65.39C117.097 65.4631 116.181 65.7221 115.275 65.5793C113.957 65.3657 112.935 64.3328 112.109 63.2834C111.436 62.4251 110.826 61.5178 110.288 60.5691C109.837 59.7765 109.175 58.7979 109.142 57.8603C109.116 57.143 109.621 56.6315 110.115 56.1821C110.854 55.509 111.602 54.8537 112.285 54.1253C113.105 53.2725 113.812 52.3169 114.387 51.2826Z" fill="#FF5400"/>
<path d="M62.8265 91.9044C69.4927 66.0967 76.1446 39.2713 84.2602 13.8768C84.4083 13.4113 84.5829 12.9115 84.9864 12.6361C85.3898 12.3608 85.9513 12.3818 86.4542 12.4272C90.1018 12.7589 94.2047 13.879 97.3461 15.1053C97.6677 15.2313 98.0568 15.2789 98.237 15.5741C98.4171 15.8693 98.3265 16.2862 98.2171 16.6345C97.524 18.8637 96.7868 21.0785 96.0606 23.2955C89.8653 42.2052 84.4171 61.3376 79.7159 80.6921C79.0239 83.5405 78.3516 86.3922 77.6986 89.2473C77.6047 89.6597 77.5019 90.0921 77.2167 90.405C76.8343 90.823 76.2219 90.9236 75.6693 91.0076C70.9479 91.7142 66.3174 92.9327 61.8594 94.64L62.8265 91.9044Z" fill="#FF5400"/>
<path d="M87.883 20.16C87.8296 20.1599 87.7773 20.1513 87.7285 20.1345L84.3204 18.9838C84.2067 18.9456 84.1136 18.8668 84.0625 18.7649C84.0113 18.663 84.0057 18.5462 84.0466 18.4403C84.0875 18.3344 84.1727 18.2481 84.2817 18.2002C84.3908 18.1524 84.5157 18.147 84.6294 18.1852L88.0375 19.3359C88.1386 19.3694 88.2238 19.4354 88.2783 19.5219C88.3317 19.6085 88.351 19.7102 88.3329 19.8089C88.3147 19.9077 88.259 19.9972 88.1761 20.0615C88.0943 20.1257 87.9898 20.1606 87.883 20.16Z" fill="black"/>
<path d="M86.2393 24.88C86.1676 24.8799 86.0982 24.8637 86.0343 24.8324C85.9716 24.8012 85.9167 24.7559 85.8753 24.7005C85.2515 24.4478 83.1551 23.8243 82.7878 23.82C82.6691 23.82 82.5549 23.7746 82.4709 23.694C82.3869 23.6134 82.3398 23.5041 82.3398 23.39C82.3398 23.2759 82.3869 23.1665 82.4709 23.0859C82.5549 23.0052 82.6691 22.96 82.7878 22.96C83.1842 22.96 84.3724 23.3062 84.8652 23.4545C85.2885 23.5824 85.6827 23.7104 85.9739 23.8157C86.4218 23.9759 86.7398 24.092 86.7398 24.4349C86.7398 24.531 86.7063 24.6244 86.6458 24.7009C86.5853 24.7773 86.5002 24.8327 86.4039 24.8585C86.3501 24.8729 86.2941 24.8801 86.2393 24.88Z" fill="black"/>
<path d="M85.1776 29.92C85.1146 29.9202 85.0516 29.9077 84.9952 29.8835C83.8666 29.4169 82.6904 29.054 81.4844 28.8001C81.4269 28.7882 81.3739 28.7661 81.3263 28.7354C81.2788 28.7045 81.239 28.6654 81.208 28.6203C81.1771 28.5753 81.1561 28.5251 81.1472 28.4726C81.1373 28.4202 81.1384 28.3664 81.1517 28.3145C81.1649 28.2627 81.1892 28.2137 81.2224 28.1703C81.2567 28.127 81.2987 28.0901 81.3484 28.0619C81.3971 28.0335 81.4523 28.0145 81.5098 28.0056C81.5662 27.9968 81.6248 27.9984 81.6823 28.0103C82.9458 28.2764 84.1772 28.6566 85.36 29.1454C85.4517 29.1833 85.528 29.2493 85.5733 29.3321C85.6186 29.4149 85.6319 29.5096 85.6109 29.6003C85.5899 29.6911 85.5346 29.7724 85.4561 29.8306C85.3766 29.8887 85.2782 29.9203 85.1776 29.92Z" fill="black"/>
<path d="M83.5868 34.72C83.5369 34.7201 83.4892 34.7122 83.4425 34.6968L80.323 33.6255C80.2675 33.6085 80.2161 33.5807 80.1718 33.544C80.1275 33.5072 80.0913 33.4621 80.0653 33.4114C80.0392 33.3606 80.024 33.3053 80.0204 33.2487C80.0168 33.1922 80.0249 33.1355 80.0443 33.082C80.0636 33.0285 80.0939 32.9794 80.1332 32.9376C80.1725 32.8956 80.22 32.862 80.2729 32.8384C80.3259 32.8147 80.383 32.8017 80.4416 32.8002C80.4991 32.7986 80.5577 32.8084 80.612 32.829L83.7311 33.8992C83.8277 33.9325 83.908 33.9978 83.96 34.0837C84.0121 34.1697 84.0305 34.2706 84.0132 34.3687C83.9958 34.467 83.9438 34.556 83.8656 34.6203C83.7875 34.6845 83.6888 34.7199 83.5868 34.72Z" fill="black"/>
<path d="M81.8159 39.2C81.7758 39.1999 81.7357 39.1942 81.6967 39.1833L79.147 38.475C79.0906 38.4593 79.0378 38.4327 78.9916 38.3967C78.9455 38.3606 78.9069 38.3159 78.878 38.2649C78.8493 38.214 78.8308 38.1579 78.8236 38.0998C78.8165 38.0417 78.8209 37.9828 78.8366 37.9264C78.8522 37.8701 78.8788 37.8173 78.9149 37.7712C78.9509 37.7251 78.9958 37.6865 79.0468 37.6577C79.0977 37.6289 79.1539 37.6105 79.212 37.6033C79.2702 37.5962 79.3292 37.6005 79.3856 37.6162L81.9352 38.3257C82.0389 38.3549 82.1281 38.4204 82.1871 38.5103C82.2462 38.6001 82.2707 38.7082 82.2562 38.8146C82.2406 38.9211 82.1882 39.0188 82.108 39.0895C82.0266 39.1604 81.9229 39.1996 81.8159 39.2Z" fill="black"/>
<path d="M80.7529 43.6786H80.7258C79.6168 43.6086 78.5417 43.2519 77.5956 42.64C77.5451 42.6072 77.5012 42.5643 77.4665 42.5137C77.4317 42.4632 77.4067 42.4058 77.393 42.3451C77.3794 42.2843 77.3772 42.2214 77.3866 42.1597C77.3961 42.098 77.417 42.039 77.4482 41.9858C77.4792 41.9327 77.5201 41.8866 77.5683 41.85C77.6163 41.8134 77.6709 41.7873 77.7286 41.7729C77.7863 41.7584 77.8462 41.7561 77.9049 41.7661C77.9634 41.776 78.0197 41.798 78.0702 41.8308C78.8898 42.3609 79.8214 42.6695 80.7823 42.7291C80.902 42.7329 81.015 42.7866 81.0975 42.8785C81.18 42.9702 81.2241 43.0926 81.2207 43.2187C81.2162 43.3448 81.1653 43.4642 81.0783 43.5507C80.9913 43.6371 80.8749 43.6836 80.7552 43.6798L80.7529 43.6786Z" fill="black"/>
<path d="M80.7491 47.7586C80.7242 47.7586 80.7003 47.7566 80.6765 47.7524C79.1471 47.5055 77.6501 47.1041 76.2105 46.5553C76.1578 46.5349 76.1097 46.5049 76.069 46.467C76.0284 46.4289 75.9961 46.3837 75.9739 46.3339C75.9516 46.284 75.94 46.2303 75.9395 46.1762C75.939 46.122 75.9498 46.0682 75.9711 46.018C75.9924 45.9678 76.024 45.922 76.0638 45.8833C76.1038 45.8448 76.1513 45.814 76.2037 45.7928C76.2561 45.7717 76.3124 45.7605 76.3693 45.76C76.4262 45.7596 76.4828 45.7698 76.5355 45.7901C77.917 46.3149 79.3534 46.6983 80.8206 46.9337C80.9354 46.9427 81.0416 46.9948 81.1163 47.0786C81.1911 47.1623 81.2268 47.2708 81.2182 47.3802C81.2084 47.4896 81.1532 47.5908 81.0654 47.6619C80.9777 47.7328 80.8639 47.7676 80.7491 47.7586Z" fill="black"/>
<path d="M78.4729 51.9199C78.4362 51.9206 78.3997 51.9162 78.3641 51.9069L74.9988 51.0142C74.9424 51.0002 74.8893 50.9743 74.8423 50.9378C74.7953 50.9013 74.7555 50.855 74.7251 50.8017C74.6948 50.7483 74.6745 50.6889 74.6655 50.6269C74.6565 50.5648 74.6589 50.5016 74.6726 50.4405C74.6863 50.3796 74.711 50.3222 74.7454 50.2718C74.7796 50.2213 74.8229 50.1787 74.8725 50.1466C74.9221 50.1145 74.977 50.0934 75.0342 50.0846C75.0913 50.0759 75.1495 50.0795 75.2054 50.0954L78.5708 50.9881C78.6735 51.0162 78.7633 51.0838 78.8234 51.1786C78.8834 51.2733 78.9096 51.3888 78.8971 51.503C78.8846 51.6172 78.8341 51.7227 78.7553 51.7994C78.6763 51.8762 78.5744 51.919 78.4686 51.9199H78.4729Z" fill="black"/>
<path d="M77.2515 56.64C77.2044 56.6397 77.1576 56.6321 77.1127 56.6176L73.4608 55.4364C73.4036 55.4194 73.3504 55.3911 73.3042 55.3533C73.2581 55.3153 73.22 55.2687 73.1922 55.2159C73.1644 55.1631 73.1474 55.1053 73.1422 55.0459C73.1372 54.9865 73.144 54.9265 73.1624 54.8698C73.1807 54.813 73.2102 54.7605 73.2493 54.7153C73.2882 54.6701 73.3358 54.6332 73.3893 54.6067C73.4428 54.5801 73.501 54.5645 73.5606 54.5609C73.6201 54.5572 73.6799 54.5654 73.7362 54.5851L77.3892 55.7664C77.4911 55.7988 77.5779 55.8667 77.634 55.9576C77.6901 56.0486 77.7118 56.1565 77.6951 56.2621C77.6786 56.3676 77.6247 56.4637 77.5433 56.5331C77.462 56.6023 77.3584 56.6402 77.2515 56.64Z" fill="black"/>
<path d="M75.7365 60.4C75.6892 60.3998 75.6421 60.3919 75.5972 60.3768L72.9626 59.5015C72.8514 59.4644 72.7594 59.3847 72.7068 59.2798C72.6544 59.1749 72.6458 59.0535 72.6828 58.9423C72.72 58.831 72.7997 58.7391 72.9047 58.6867C73.0097 58.6343 73.1312 58.6256 73.2425 58.6627L75.8759 59.538C75.976 59.5708 76.061 59.6383 76.1157 59.7282C76.1704 59.8181 76.1913 59.9246 76.1745 60.0285C76.1577 60.1323 76.1044 60.2268 76.0241 60.2949C75.9438 60.363 75.8418 60.4003 75.7365 60.4Z" fill="black"/>
<path d="M74.4398 64.6389H74.4118C73.582 64.5949 72.2054 64.2671 71.4651 63.9383C71.3593 63.8912 71.2794 63.8096 71.2427 63.7111C71.2059 63.6126 71.2156 63.5055 71.2694 63.4133C71.3232 63.321 71.4169 63.2512 71.5296 63.2192C71.6425 63.1871 71.7653 63.1955 71.871 63.2425C72.5006 63.5226 73.761 63.8221 74.4666 63.8592C74.5853 63.8623 74.6975 63.9064 74.7789 63.9818C74.8603 64.0572 74.9041 64.1577 74.9005 64.2612C74.8969 64.3648 74.8464 64.4627 74.7599 64.5338C74.6736 64.6048 74.5584 64.643 74.4398 64.6398V64.6389Z" fill="black"/>
<path d="M85.7625 89.76C85.5698 89.7578 85.3771 89.7445 85.1856 89.7212C84.6452 89.6659 83.9111 89.5462 83.0618 89.379C81.124 88.9947 79.2109 88.4974 77.3313 87.8905C73.7702 86.7177 72.2765 85.6534 72.6308 84.5381C73.3982 82.1271 78.2979 69.5719 83.6797 57.1125C88.5827 45.7629 95.2032 31.4374 98.9004 27.6531C98.9657 27.5857 99.0521 27.541 99.1451 27.5257C99.2381 27.5106 99.3345 27.5256 99.4186 27.5687C99.5028 27.6117 99.5703 27.6806 99.6124 27.7651C99.6556 27.8496 99.6689 27.9455 99.6534 28.0385C99.5515 28.6199 99.3422 29.5203 99.0997 30.5625C98.7365 32.123 98.0854 34.9227 98.1142 35.7511C98.3434 35.6758 98.896 35.4078 100.096 34.4653C101.105 33.6712 102.19 32.7044 102.908 32.0643L102.931 32.0443C102.994 31.988 103.072 31.951 103.156 31.9377C103.24 31.9244 103.325 31.9353 103.403 31.9695C103.481 32.0035 103.547 32.0592 103.594 32.1297C103.641 32.2004 103.666 32.283 103.668 32.3677C103.677 32.9336 103.648 33.6159 103.617 34.338C103.568 35.523 103.512 36.8331 103.617 37.8653C104.028 37.4345 104.623 36.7268 105.133 36.121C106.078 34.9969 107.149 33.7222 107.927 33.0688C107.991 33.0151 108.069 32.9805 108.152 32.9692C108.235 32.958 108.319 32.9705 108.395 33.0052C108.472 33.04 108.536 33.0957 108.581 33.1657C108.628 33.2358 108.652 33.3174 108.654 33.401C108.681 38.0315 108.606 38.2685 108.581 38.3471C105.678 47.5925 101.354 56.4525 97.1764 65.0201C93.3418 72.8833 89.3755 81.003 86.5276 89.3845C86.4213 89.678 86.1434 89.76 85.7625 89.76ZM98.4066 29.6267C94.6739 34.6924 88.8939 47.2779 84.4935 57.4647C78.7785 70.6927 74.1201 82.7817 73.4757 84.8073C73.4436 84.9058 73.561 85.0553 73.634 85.1395C75.1986 86.8584 84.1901 88.905 85.758 88.8817C88.6182 80.5235 92.5601 72.4469 96.3736 64.6346C100.538 56.1069 104.843 47.2802 107.727 38.1068C107.761 37.8354 107.774 36.1753 107.771 34.4409C107.159 35.0822 106.453 35.9217 105.809 36.6892C104.156 38.655 103.725 39.1146 103.291 39.1146C103.19 39.1145 103.091 39.0799 103.014 39.0167C102.935 38.9534 102.88 38.8653 102.859 38.7668C102.594 37.5696 102.669 35.832 102.733 34.2992C102.746 33.978 102.759 33.6646 102.769 33.3678C99.4851 36.2473 98.174 37.0225 97.5163 36.5175C97.0169 36.1509 97.1443 35.0567 98.2371 30.3587C98.2958 30.1073 98.3523 29.8626 98.4066 29.6267Z" fill="#1B5EC9"/>
<path d="M108.088 38.56C108.016 38.56 107.945 38.5425 107.882 38.5089C107.818 38.4754 107.763 38.427 107.722 38.3675C107.683 38.3082 107.656 38.2399 107.648 38.1683C107.639 38.0967 107.648 38.024 107.674 37.9567C109.505 33.1224 110.727 27.4298 112.02 21.4022C112.249 20.3351 112.482 19.2512 112.721 18.1508C113.518 14.502 112.943 13.9632 112.818 13.892C112.717 13.833 112.107 13.6382 110.093 15.5216C109.982 15.6329 109.848 15.7442 109.704 15.8789C108.109 17.326 104.787 20.3515 98.031 30.4074C97.9646 30.5053 97.8628 30.5729 97.7477 30.5953C97.6326 30.6177 97.5131 30.5932 97.4157 30.5271C97.3183 30.461 97.2519 30.3587 97.2287 30.2427C97.2065 30.1267 97.2309 30.0066 97.2973 29.9088C104.115 19.7637 107.489 16.6937 109.11 15.2155C109.251 15.0875 109.378 14.9717 109.49 14.8671C111.26 13.2119 112.456 12.6553 113.253 13.115C114.156 13.6337 114.257 15.2444 113.585 18.3389C113.345 19.4379 113.112 20.5207 112.884 21.587C111.584 27.648 110.355 33.3728 108.5 38.2706C108.468 38.3552 108.412 38.4283 108.339 38.48C108.265 38.5317 108.177 38.5595 108.088 38.56Z" fill="#1B5EC9"/>
<path d="M113.338 24.88C108.529 24.8579 105.12 23.575 102.917 20.9572C102.844 20.8674 102.811 20.753 102.822 20.6385C102.833 20.524 102.888 20.4183 102.976 20.3441C103.063 20.2698 103.176 20.2329 103.29 20.2411C103.404 20.2493 103.511 20.302 103.588 20.388C105.615 22.7961 108.805 23.9776 113.341 23.9975C113.457 23.9975 113.569 24.0439 113.652 24.1268C113.734 24.2095 113.78 24.3217 113.78 24.4387C113.78 24.5558 113.734 24.668 113.652 24.7507C113.569 24.8335 113.457 24.88 113.341 24.88H113.338Z" fill="#1B5EC9"/>
<path d="M98.6114 56C98.5359 55.9999 98.4625 55.9799 98.3977 55.9422C98.333 55.9044 98.279 55.85 98.2402 55.7844C98.2024 55.7188 98.1819 55.6443 98.1797 55.568C98.1787 55.4917 98.197 55.4163 98.2326 55.3494C99.2308 53.478 101.751 48.5319 103.575 43.1125C103.592 43.0558 103.62 43.0032 103.658 42.9579C103.694 42.9124 103.741 42.8752 103.791 42.8482C103.843 42.8212 103.9 42.8052 103.958 42.8011C104.016 42.7969 104.074 42.8046 104.129 42.8239C104.183 42.8431 104.234 42.8734 104.277 42.9131C104.32 42.9527 104.355 43.0008 104.379 43.0544C104.404 43.1081 104.417 43.1662 104.419 43.2254C104.422 43.2845 104.412 43.3435 104.391 43.3987C102.546 48.8809 99.9992 53.8765 98.9956 55.7699C98.9578 55.8402 98.9017 55.8988 98.8348 55.9393C98.7668 55.9799 98.6891 56.0008 98.6114 56Z" fill="#1B5EC9"/>
<path d="M96.3751 59.68C96.3311 59.6798 96.2882 59.6755 96.2465 59.6671C96.1346 59.6454 96.0357 59.5893 95.9643 59.5085C95.894 59.4279 95.8571 59.3274 95.8595 59.2244C95.8595 59.157 95.8762 59.0905 95.9095 59.0302C95.9428 58.97 95.9917 58.9178 96.0524 58.8776C96.1989 58.6353 96.5287 57.9987 96.7871 57.4581C96.8121 57.4063 96.8479 57.3594 96.8931 57.3202C96.9384 57.281 96.9919 57.2502 97.0491 57.2296C97.1074 57.2091 97.1706 57.1989 97.2325 57.2001C97.2956 57.2013 97.3575 57.2135 97.4147 57.2362C97.4718 57.2589 97.523 57.2917 97.5671 57.3324C97.61 57.3732 97.6445 57.4213 97.6671 57.4741C97.6898 57.5268 97.7005 57.583 97.6993 57.6396C97.6981 57.6962 97.685 57.752 97.66 57.8038C97.66 57.8038 97.4576 58.2206 97.2492 58.6267C96.8645 59.3752 96.7073 59.68 96.3751 59.68Z" fill="#1B5EC9"/>
<path d="M95.0433 23.04C94.9991 23.0403 94.9549 23.0339 94.913 23.0212C94.8551 23.0044 94.8019 22.9769 94.7554 22.9399C94.7089 22.903 94.6715 22.8575 94.6431 22.806C94.6148 22.7546 94.5966 22.6981 94.591 22.64C94.5853 22.5819 94.591 22.5232 94.6091 22.4674L95.7304 18.8268C95.8437 18.4613 95.9707 18.046 95.8834 17.7048C95.8607 17.6173 95.8471 17.5365 95.8358 17.4645C95.7893 17.1887 95.7598 17.006 94.8948 16.7047C94.837 16.6865 94.7826 16.6572 94.7372 16.6183C94.6907 16.5796 94.6533 16.5322 94.6273 16.479C94.6001 16.4257 94.5842 16.3678 94.5808 16.3085C94.5774 16.2493 94.5864 16.1899 94.6068 16.134C94.6273 16.0782 94.659 16.0268 94.6998 15.9831C94.7406 15.9395 94.7905 15.9043 94.8461 15.8797C94.9016 15.8552 94.9606 15.8417 95.0218 15.8401C95.083 15.8386 95.1431 15.849 95.1998 15.8707C96.4661 16.3137 96.6419 16.7889 96.7303 17.3227C96.7405 17.3825 96.7496 17.4335 96.7632 17.4889C96.9117 18.067 96.7382 18.6297 96.5999 19.0815L95.4775 22.7221C95.4492 22.8138 95.3925 22.8942 95.3143 22.9515C95.2361 23.0088 95.1408 23.0399 95.0433 23.04Z" fill="white"/>
<path d="M93.826 27.12H93.7793C93.7204 27.114 93.6648 27.0971 93.6137 27.07C93.5614 27.043 93.517 27.0064 93.4803 26.9623C93.4425 26.9183 93.4158 26.8676 93.3992 26.8132C93.3825 26.7588 93.3769 26.7018 93.3836 26.6453C93.4425 26.282 93.5403 25.9258 93.6781 25.5828C93.7904 25.3 93.8738 25.0074 93.9293 24.709C93.9416 24.5946 93.9994 24.4896 94.0916 24.417C94.1839 24.3445 94.3017 24.3105 94.4195 24.3223C94.5373 24.3342 94.6462 24.391 94.7207 24.4804C94.7951 24.5697 94.8307 24.6841 94.8185 24.7986C94.7596 25.1623 94.6607 25.5189 94.524 25.8622C94.4117 26.1451 94.3272 26.4377 94.2728 26.736C94.2605 26.8424 94.2083 26.9406 94.1249 27.0116C94.0427 27.0825 93.936 27.1212 93.826 27.12Z" fill="white"/>
<path d="M51.0175 85.2C50.9324 85.2 50.849 85.1758 50.7773 85.1306C50.7058 85.0844 50.6491 85.0183 50.6139 84.9412L48.8598 81.1018C48.8112 80.9961 48.8073 80.8749 48.8488 80.7648C48.8903 80.6558 48.9738 80.5676 49.081 80.5192C49.1882 80.4707 49.3103 80.4674 49.4204 80.5082C49.5305 80.5489 49.6195 80.6326 49.6681 80.7384L51.4211 84.5755C51.4695 84.6824 51.4732 84.8035 51.4316 84.9126C51.3901 85.0227 51.3065 85.1108 51.1994 85.1582C51.1426 85.1857 51.0805 85.2 51.0175 85.2Z" fill="black"/>
<path d="M100.826 86.1037C107.286 77.8087 116.048 73.1103 125.275 68.1574C125.339 68.1229 125.395 68.0744 125.44 68.0154C125.484 67.9565 125.515 67.8884 125.529 67.8163C125.544 67.744 125.542 67.6694 125.526 67.5978C125.508 67.5261 125.475 67.4591 125.43 67.4018C121.718 62.74 117.86 55.8447 114.93 50.6617C114.895 50.6023 114.85 50.5503 114.797 50.5084C114.743 50.4666 114.682 50.4358 114.616 50.418C114.55 50.4002 114.482 50.3955 114.414 50.4044C114.347 50.4132 114.281 50.4353 114.223 50.4695C111.477 52.0608 90.0525 67.5762 77.8408 80.9864C75.0475 84.0534 99.5732 91.6 99.5732 91.6L100.826 86.1037Z" fill="#FACBDF"/>
<path d="M127.056 36.72C126.399 36.72 125.91 36.4542 125.75 36.0085C125.672 35.7966 125.578 35.2421 126.347 34.6601C126.446 34.5841 126.572 34.5492 126.699 34.5629C126.825 34.5767 126.94 34.638 127.02 34.7334C127.099 34.8288 127.136 34.9505 127.121 35.0717C127.107 35.1928 127.043 35.3036 126.944 35.3796C126.722 35.548 126.665 35.6717 126.66 35.7084C126.686 35.7347 126.804 35.8035 127.062 35.8035C127.188 35.8035 127.31 35.8518 127.4 35.9377C127.489 36.0237 127.539 36.1402 127.539 36.2617C127.539 36.3833 127.489 36.4999 127.4 36.5858C127.31 36.6718 127.188 36.72 127.062 36.72H127.056Z" fill="black"/>
<path d="M136.16 36.4C136.135 36.4 136.109 36.3979 136.085 36.3935C135.805 36.3428 134.955 36.1885 134.834 35.5475C134.746 35.0845 135.079 34.6259 135.849 34.1446C135.945 34.0843 136.061 34.0652 136.171 34.0916C136.281 34.1179 136.377 34.1874 136.437 34.2849C136.496 34.3823 136.515 34.4997 136.489 34.6113C136.462 34.7228 136.394 34.8193 136.298 34.8795C135.895 35.1309 135.749 35.2993 135.699 35.3759C135.866 35.4634 136.046 35.5204 136.233 35.5442C136.336 35.5642 136.429 35.6226 136.493 35.7082C136.557 35.7936 136.588 35.9001 136.579 36.0069C136.569 36.1136 136.52 36.213 136.442 36.2857C136.364 36.3584 136.263 36.3992 136.157 36.4H136.16Z" fill="black"/>
<path d="M140.368 41.28C139.22 41.28 138.852 40.7849 138.733 40.4903C138.523 39.9654 138.771 39.3329 139.416 38.757C139.459 38.7177 139.512 38.687 139.567 38.6671C139.623 38.647 139.683 38.638 139.743 38.6404C139.803 38.6428 139.861 38.6567 139.916 38.6812C139.97 38.7056 140.019 38.7403 140.059 38.783C140.1 38.8259 140.131 38.8761 140.151 38.9308C140.173 38.9854 140.182 39.0435 140.18 39.1017C140.176 39.1598 140.163 39.2169 140.137 39.2697C140.112 39.3225 140.076 39.3701 140.033 39.4094C139.625 39.7738 139.541 40.0628 139.578 40.1691C139.614 40.2755 139.886 40.3907 140.365 40.3907C140.486 40.3907 140.602 40.4374 140.687 40.5205C140.772 40.6035 140.82 40.7163 140.82 40.8337C140.82 40.9512 140.772 41.0639 140.687 41.147C140.602 41.2301 140.486 41.2767 140.365 41.2767L140.368 41.28Z" fill="black"/>
<path d="M143.45 46.64C143.425 46.64 143.399 46.6378 143.375 46.6334C142.643 46.4901 142.221 46.187 142.121 45.7297C142.051 45.409 142.121 44.9043 142.856 44.3213C142.943 44.2546 143.053 44.2274 143.159 44.2454C143.266 44.2635 143.362 44.3255 143.426 44.4179C143.491 44.5105 143.519 44.6262 143.505 44.7404C143.489 44.8545 143.433 44.9581 143.348 45.0288C143.019 45.2911 142.935 45.4773 142.928 45.528C142.949 45.5545 143.068 45.6768 143.523 45.7661C143.623 45.7864 143.714 45.8462 143.775 45.9335C143.837 46.0207 143.867 46.1295 143.858 46.2385C143.849 46.3476 143.801 46.449 143.726 46.5233C143.65 46.5975 143.552 46.6391 143.45 46.64Z" fill="black"/>
<path d="M137.418 61.12C137.335 61.1199 137.253 61.097 137.184 61.0537C137.002 60.9325 136.849 60.775 136.734 60.5916C136.618 60.4082 136.544 60.203 136.514 59.9892C136.485 59.7756 136.502 59.5581 136.563 59.3513C136.625 59.1445 136.731 58.9528 136.874 58.7889C136.913 58.7451 136.96 58.7095 137.013 58.684C137.066 58.6586 137.124 58.6439 137.182 58.6407C137.241 58.6375 137.301 58.646 137.356 58.6656C137.411 58.6851 137.462 58.7154 137.506 58.7546C137.549 58.7939 137.584 58.8413 137.609 58.8941C137.633 58.9468 137.647 59.0039 137.649 59.0619C137.65 59.1199 137.64 59.1777 137.619 59.2318C137.598 59.286 137.566 59.3353 137.525 59.3771C137.47 59.447 137.43 59.5269 137.407 59.6122C137.384 59.6974 137.378 59.7863 137.39 59.8739C137.402 59.9613 137.431 60.0455 137.477 60.1218C137.522 60.1979 137.583 60.2644 137.654 60.3176C137.735 60.3679 137.797 60.4428 137.831 60.5309C137.866 60.6191 137.869 60.7156 137.842 60.8062C137.816 60.8967 137.76 60.9763 137.683 61.0328C137.607 61.0895 137.513 61.12 137.418 61.12Z" fill="black"/>
<path d="M122.269 45.8398C122.158 45.8398 122.053 45.802 121.968 45.7329C121.884 45.6638 121.826 45.5678 121.806 45.4616C121.746 45.2185 121.598 45.0056 121.39 44.8642C121.18 44.7228 120.925 44.6628 120.674 44.6959C120.612 44.7096 120.548 44.7108 120.486 44.6996C120.423 44.6883 120.364 44.6648 120.311 44.6304C120.258 44.5961 120.212 44.5515 120.178 44.4996C120.143 44.4476 120.119 44.3892 120.108 44.3279C120.096 44.2665 120.097 44.2035 120.111 44.1426C120.124 44.0817 120.15 44.0241 120.188 43.9733C120.224 43.9225 120.271 43.8796 120.325 43.8471C120.378 43.8145 120.44 43.793 120.502 43.784C120.999 43.7062 121.507 43.8192 121.922 44.0999C122.336 44.3805 122.627 44.8072 122.732 45.2922C122.754 45.4131 122.728 45.5381 122.658 45.6397C122.587 45.7413 122.479 45.8112 122.356 45.834C122.327 45.8387 122.297 45.8407 122.269 45.8398Z" fill="black"/>
<path d="M126.066 49.92H126.059C126.001 49.919 125.945 49.9058 125.893 49.8812C125.841 49.8568 125.793 49.8213 125.754 49.777C125.714 49.7329 125.683 49.6805 125.662 49.6234C125.641 49.5661 125.631 49.505 125.632 49.4434C125.628 49.2336 125.562 49.0305 125.444 48.864C125.325 48.6975 125.16 48.5764 124.974 48.5184C124.865 48.4847 124.774 48.4075 124.718 48.3025C124.663 48.1977 124.646 48.0735 124.672 47.9559C124.699 47.8384 124.768 47.7366 124.862 47.6721C124.958 47.6076 125.071 47.5852 125.182 47.6097C125.56 47.7178 125.894 47.9579 126.132 48.2926C126.371 48.6273 126.5 49.0377 126.5 49.4598C126.498 49.5826 126.451 49.6997 126.37 49.7858C126.289 49.8719 126.18 49.9201 126.066 49.92Z" fill="black"/>
<path d="M129.189 53.76C129.075 53.76 128.965 53.7137 128.884 53.6315C128.803 53.5492 128.758 53.4377 128.758 53.3214C128.758 52.5812 128.758 52.4869 128.22 52.1688C128.126 52.1081 128.058 52.0129 128.032 51.903C128.005 51.7932 128.021 51.677 128.077 51.5791C128.133 51.4812 128.224 51.4089 128.331 51.3773C128.437 51.3459 128.551 51.3575 128.65 51.41C129.62 51.9813 129.62 52.5154 129.62 53.3214C129.62 53.4377 129.574 53.5492 129.494 53.6315C129.413 53.7137 129.303 53.76 129.189 53.76Z" fill="black"/>
<path d="M31.5509 91.5066C31.6151 93.8384 32.501 96.1336 32.2422 98.4531C32.042 100.251 31.1715 101.893 30.5223 103.583C27.7261 110.868 29.0656 118.991 28.684 126.786C28.5391 129.744 28.1398 132.713 28.4627 135.658C28.7857 138.603 29.9438 141.61 32.3097 143.39C34.6037 145.117 37.6719 145.434 40.5322 145.197C43.3926 144.96 46.2042 144.239 49.0723 144.133C53.1161 143.984 57.0902 145.061 61.03 145.988C70.1994 148.144 79.7349 149.519 89.0296 147.992C92.8599 147.362 96.6914 146.241 100.552 146.64C102.704 146.862 104.798 147.555 106.96 147.637C109.533 147.747 112.056 146.986 114.509 146.204C118.575 144.907 122.61 143.516 126.614 142.029C127.083 141.855 127.579 141.659 127.874 141.254C128.217 140.785 128.206 140.146 128.15 139.574C127.427 132.104 121.743 126.134 119.164 119.091C116.042 110.566 117.638 100.985 115.374 92.1865C113.965 86.7114 112.29 82.5351 108.263 78.5686C105.866 80.9042 101.118 84.2856 97.2654 83.2802C95.4161 82.7975 93.9107 81.3128 92.0215 81.0227C88.9953 80.5599 86.1814 83.2957 83.1453 82.9049C80.4041 82.5506 78.5536 79.7965 75.899 79.0303C72.4989 78.0438 69.1973 80.5145 65.9443 81.9184C60.9504 84.0741 55.1634 83.7353 49.9748 82.1055C45.4709 80.6905 41.3242 78.3726 37.2859 75.9678C36.6389 75.5825 35.6345 75.1541 35.1678 76.0498C34.9609 76.4473 35.0572 76.9599 35.0373 77.3906C35.0104 77.8908 34.9524 78.3889 34.8636 78.882C34.5019 80.9219 33.71 82.8562 33.0054 84.7949C32.2245 86.9461 31.4868 89.1882 31.5509 91.5066Z" fill="#1B5EC9"/>
<path d="M93.4459 108.96C93.3329 108.961 93.2253 108.918 93.1441 108.84C93.0618 108.762 93.0135 108.656 93.007 108.542C92.5735 100.719 93.4646 92.8799 95.6406 85.3587C95.6725 85.2467 95.7482 85.1514 95.8502 85.0948C95.9523 85.0383 96.073 85.025 96.1849 85.0571C96.2969 85.0904 96.3901 85.1669 96.4461 85.27C96.5021 85.3731 96.5152 85.4951 96.4834 85.607C94.3348 93.0307 93.4547 100.77 93.8826 108.492C93.8859 108.551 93.8772 108.609 93.8585 108.664C93.8399 108.719 93.8102 108.769 93.7718 108.814C93.7334 108.857 93.6862 108.892 93.6346 108.917C93.5831 108.942 93.526 108.958 93.469 108.96H93.4459Z" fill="black"/>
<path d="M95.4125 122.24C95.2999 122.241 95.1928 122.2 95.1103 122.128C95.0267 122.055 94.9754 121.955 94.9665 121.847L94.6621 118.47C94.6509 118.356 94.6888 118.243 94.7647 118.155C94.8416 118.067 94.9509 118.012 95.0691 118.002C95.1873 117.992 95.3043 118.027 95.3958 118.102C95.4861 118.175 95.543 118.281 95.5541 118.395L95.8585 121.771C95.8686 121.886 95.8318 121.999 95.7548 122.086C95.679 122.173 95.5697 122.228 95.4526 122.238L95.4125 122.24Z" fill="black"/>
<path d="M105.989 144.639C105.136 144.647 104.284 144.582 103.442 144.444C102.024 144.199 100.044 143.565 98.6567 141.929C97.3324 140.363 96.896 138.272 96.5616 136.26C95.9367 132.506 95.4861 128.676 95.2219 124.877C95.2175 124.819 95.2252 124.76 95.2427 124.704C95.2614 124.649 95.2899 124.598 95.3283 124.553C95.3666 124.51 95.4127 124.473 95.4642 124.446C95.5157 124.421 95.5716 124.405 95.6297 124.401C95.6868 124.398 95.7449 124.404 95.7997 124.423C95.8545 124.442 95.9049 124.471 95.9488 124.51C95.9915 124.548 96.0277 124.594 96.054 124.646C96.0792 124.7 96.0946 124.757 96.099 124.814C96.361 128.584 96.8083 132.386 97.4288 136.112C97.7424 137.995 98.1469 139.951 99.3255 141.344C100.272 142.463 101.787 143.251 103.591 143.567C105.258 143.855 106.99 143.744 108.674 143.636C108.79 143.629 108.904 143.668 108.992 143.747C109.08 143.825 109.132 143.935 109.14 144.053C109.147 144.17 109.108 144.287 109.03 144.375C108.954 144.464 108.845 144.518 108.729 144.525C107.827 144.576 106.91 144.639 105.989 144.639Z" fill="black"/>
<path d="M121.683 141.6C121.587 141.6 121.495 141.573 121.416 141.52C121.339 141.469 121.28 141.396 121.248 141.311C121.216 141.227 121.212 141.134 121.237 141.047C121.263 140.96 121.316 140.884 121.39 140.826C121.852 140.466 122.507 140.35 123.2 140.225C124.456 140 125.23 139.798 125.394 138.896C125.547 138.062 124.859 136.998 124.132 135.871C123.554 134.986 122.968 134.071 122.675 133.118C122.641 133.007 122.655 132.888 122.715 132.786C122.774 132.684 122.873 132.609 122.991 132.577C123.109 132.545 123.236 132.559 123.343 132.615C123.449 132.67 123.529 132.764 123.564 132.876C123.821 133.716 124.379 134.58 124.92 135.416C125.741 136.687 126.517 137.887 126.306 139.045C126.02 140.609 124.49 140.884 123.372 141.083C122.794 141.186 122.256 141.283 121.977 141.501C121.894 141.565 121.79 141.6 121.683 141.6Z" fill="black"/>
<path d="M43.9191 131.76H43.8676C43.747 131.748 43.6367 131.69 43.561 131.601C43.4853 131.511 43.4503 131.397 43.4638 131.282L43.6685 129.583C43.6823 129.47 43.7433 129.366 43.8382 129.295C43.9332 129.222 44.0542 129.19 44.1748 129.203C44.2954 129.216 44.4056 129.273 44.4812 129.363C44.5568 129.453 44.5917 129.567 44.578 129.681L44.3732 131.379C44.3599 131.484 44.3063 131.582 44.2226 131.652C44.139 131.722 44.031 131.76 43.9191 131.76Z" fill="black"/>
<path d="M46.0662 142.879C45.9688 142.879 45.8742 142.847 45.7973 142.787C43.6024 141.09 42.5676 138.036 43.2875 135.364C43.3177 135.252 43.3912 135.157 43.492 135.098C43.542 135.07 43.5972 135.051 43.6544 135.044C43.7114 135.036 43.7696 135.04 43.8252 135.055C43.881 135.07 43.9332 135.096 43.979 135.13C44.0247 135.165 44.063 135.209 44.0919 135.259C44.1208 135.308 44.1395 135.364 44.147 135.42C44.1546 135.477 44.1507 135.535 44.1358 135.59C43.5048 137.933 44.4101 140.611 46.3307 142.098C46.4031 142.155 46.456 142.231 46.4822 142.319C46.5084 142.406 46.5065 142.5 46.4767 142.585C46.447 142.671 46.3909 142.747 46.3163 142.799C46.2417 142.853 46.1523 142.881 46.0607 142.88L46.0662 142.879Z" fill="black"/>
<path d="M84.3135 132.48C84.2038 132.481 84.0984 132.439 84.018 132.363C83.9376 132.287 83.8876 132.183 83.8789 132.07C83.4356 126.592 83.8137 121.077 84.999 115.716C85.0099 115.658 85.0327 115.604 85.0653 115.554C85.099 115.505 85.1403 115.463 85.1892 115.431C85.2381 115.399 85.2924 115.377 85.3489 115.367C85.4054 115.357 85.464 115.358 85.5205 115.371C85.577 115.385 85.6303 115.409 85.677 115.443C85.7248 115.477 85.7639 115.522 85.7943 115.572C85.8247 115.623 85.8454 115.679 85.8541 115.738C85.8628 115.797 85.8606 115.857 85.8465 115.914C84.6818 121.186 84.3113 126.61 84.7481 131.996C84.7578 132.115 84.7209 132.232 84.647 132.322C84.5721 132.413 84.4656 132.469 84.3515 132.479L84.3135 132.48Z" fill="black"/>
<path d="M85.8222 145.84C85.7395 145.84 85.659 145.817 85.5894 145.772C85.5197 145.727 85.4642 145.664 85.4294 145.588C83.9574 142.431 83.4079 138.911 83.8453 135.445C83.8497 135.387 83.866 135.328 83.8943 135.276C83.9215 135.223 83.9596 135.176 84.0042 135.139C84.0499 135.101 84.1032 135.074 84.1597 135.057C84.2152 135.04 84.2751 135.036 84.3327 135.044C84.3915 135.05 84.447 135.07 84.4981 135.1C84.5492 135.13 84.5928 135.171 84.6276 135.218C84.6635 135.266 84.6885 135.321 84.7016 135.379C84.7157 135.438 84.7179 135.497 84.7081 135.556C84.2914 138.852 84.8147 142.2 86.215 145.202C86.24 145.255 86.2541 145.311 86.2585 145.37C86.2617 145.427 86.2541 145.486 86.2356 145.541C86.2161 145.597 86.1878 145.647 86.1497 145.691C86.1116 145.734 86.0648 145.769 86.0137 145.795C85.9538 145.826 85.8886 145.841 85.8222 145.84Z" fill="black"/>
<path d="M89.9248 148.96C89.3654 148.957 88.815 148.822 88.3263 148.569C87.8364 148.316 87.4227 147.952 87.1223 147.511C87.0629 147.418 87.0461 147.305 87.073 147.2C87.101 147.094 87.1728 147.002 87.2714 146.944C87.37 146.886 87.4889 146.866 87.6032 146.889C87.7176 146.912 87.8173 146.976 87.8823 147.066C88.1144 147.399 88.4339 147.67 88.8094 147.853C89.1861 148.037 89.6064 148.127 90.0313 148.114C90.0896 148.112 90.149 148.121 90.2039 148.14C90.26 148.158 90.3104 148.187 90.3541 148.223C90.3978 148.261 90.4326 148.306 90.4584 148.355C90.483 148.406 90.4976 148.459 90.4999 148.515C90.5032 148.569 90.4943 148.625 90.4741 148.676C90.4539 148.728 90.4236 148.776 90.3833 148.816C90.344 148.857 90.2958 148.891 90.242 148.914C90.1893 148.937 90.131 148.951 90.0728 148.953L89.9248 148.96Z" fill="black"/>
<path d="M74.9865 97.3348C75.2742 96.2073 75.6441 94.966 76.6526 94.3664C77.6611 93.7667 78.9196 94.0229 80.0514 94.2924L86.1608 95.7501C86.6439 95.8605 87.1482 95.9908 87.517 96.321C88.31 97.0278 88.1401 98.2834 87.8935 99.3127C86.1663 106.527 83.8871 113.599 81.0759 120.468C80.8926 120.91 80.6827 121.391 80.2658 121.639C79.8904 121.86 79.4228 121.853 78.9851 121.828C76.8107 121.703 74.6532 121.37 72.5429 120.834C71.751 120.632 70.4525 120.49 69.8505 119.892C69.374 119.417 69.5506 118.697 69.6884 118.117C70.7369 113.688 71.9442 109.289 73.0716 104.88L74.9865 97.3348Z" fill="#FACBDF"/>
<path d="M84.7127 104.88C84.6822 104.88 84.6528 104.878 84.6234 104.871C84.5059 104.849 84.4019 104.78 84.3352 104.681C84.2697 104.582 84.2448 104.462 84.2686 104.345C84.3409 103.983 84.6076 103.18 84.9127 102.253C85.124 101.612 85.3432 100.948 85.5139 100.387C86.0789 98.5001 85.9275 98.1264 85.7839 98.0716C85.7263 98.0526 85.6721 98.0224 85.6269 97.9821C85.5817 97.9418 85.5444 97.8926 85.5195 97.8389C85.4935 97.7841 85.4788 97.7248 85.4766 97.6643C85.4743 97.6039 85.4845 97.5435 85.506 97.4876C85.5286 97.4316 85.5613 97.3801 85.6043 97.3365C85.6461 97.2929 85.6969 97.2593 85.7534 97.2358C85.8099 97.2123 85.8698 97.2 85.9308 97.2C85.9919 97.2011 86.0518 97.2134 86.1083 97.2369C87.2756 97.6845 86.7365 99.4635 86.3795 100.643C86.2066 101.216 85.9851 101.885 85.7715 102.531C85.4992 103.356 85.2178 104.21 85.1556 104.519C85.1353 104.62 85.0799 104.712 84.9997 104.778C84.9183 104.844 84.8166 104.88 84.7127 104.88Z" fill="white"/>
<path d="M79.3322 108C79.2853 108 79.2388 107.993 79.1942 107.979C77.095 107.335 73.5693 106.47 71.8199 106.129C71.7033 106.107 71.6009 106.041 71.5353 105.946C71.4697 105.851 71.4462 105.735 71.47 105.623C71.4938 105.513 71.5629 105.414 71.6622 105.352C71.7615 105.289 71.8827 105.266 71.9993 105.289C73.7722 105.634 77.3428 106.509 79.469 107.163C79.5709 107.195 79.6578 107.259 79.714 107.346C79.7702 107.434 79.7921 107.537 79.7756 107.638C79.759 107.739 79.7053 107.831 79.624 107.897C79.5427 107.964 79.4392 108.001 79.3322 108Z" fill="black"/>
<path d="M82.2636 109.04C82.2207 109.04 82.1778 109.032 82.137 109.017L81.0933 108.628C80.9926 108.591 80.9099 108.511 80.862 108.405C80.8152 108.299 80.8072 108.177 80.8411 108.065C80.874 107.953 80.9458 107.86 81.0405 107.807C81.1352 107.754 81.2448 107.746 81.3455 107.782L82.3892 108.171C82.4779 108.206 82.5536 108.274 82.6025 108.364C82.6513 108.454 82.6703 108.561 82.6553 108.665C82.6404 108.769 82.5925 108.864 82.5208 108.932C82.449 109.001 82.3573 109.039 82.2636 109.04Z" fill="black"/>
<path d="M48.4258 107.281C44.2221 96.7842 39.8541 86.3556 35.3213 75.9947C35.1334 75.5646 34.7898 75.2215 34.3597 75.0343C33.9297 74.8471 33.4448 74.8296 33.0023 74.9854C27.1993 77.0329 27.5914 77.265 29.2831 80.2197C29.6652 80.8831 30.5398 83.6779 29.9214 84.1378C20.1518 91.3947 19.8559 104.685 28.8491 110.978C30.3509 112.029 35.3235 114.507 42.7929 112.662C42.9929 112.614 43.2038 112.641 43.3844 112.74C43.565 112.839 43.7023 113.002 43.7691 113.196C44.1997 114.457 45.2609 116.82 46.9494 115.986C52.8496 114.431 52.1428 115.146 48.4258 107.281ZM33.6285 89.7187L40.3071 105.959C40.3588 106.084 40.3836 106.218 40.3795 106.354C40.3755 106.489 40.3429 106.62 40.284 106.742C40.225 106.864 40.1409 106.971 40.0374 107.057C39.9338 107.143 39.8131 107.207 39.6832 107.243C29.6045 109.962 23.4746 96.5731 32.3453 89.387C32.4457 89.3074 32.563 89.2532 32.6883 89.2267C32.8135 89.2002 32.9431 89.2024 33.067 89.2344C33.1909 89.2665 33.3058 89.3273 33.4024 89.4113C33.499 89.4953 33.5749 89.6004 33.624 89.7187H33.6285Z" fill="#FF5400"/>
<path d="M33.4987 85.6C33.3957 85.6 33.2961 85.5637 33.2173 85.4978C33.1385 85.4307 33.0855 85.3395 33.0673 85.2384C33.0493 85.1362 33.0674 85.0318 33.1185 84.9427C33.1697 84.8526 33.2506 84.7845 33.3471 84.7482L37.0148 83.3919C37.0693 83.37 37.1278 83.359 37.1868 83.3601C37.2458 83.3601 37.304 83.3732 37.3581 83.3963C37.412 83.4205 37.4606 83.4546 37.5011 83.4974C37.5415 83.5414 37.5729 83.592 37.5933 83.6469C37.6138 83.7019 37.6229 83.7612 37.62 83.8206C37.6173 83.8788 37.6026 83.9371 37.577 83.9898C37.5514 84.0437 37.5153 84.091 37.4711 84.1294C37.4267 84.169 37.375 84.1987 37.3191 84.2162L33.6514 85.5725C33.6025 85.5912 33.5508 85.6 33.4987 85.6Z" fill="white"/>
<path d="M35.8926 87.1999C35.7874 87.1999 35.686 87.1616 35.6072 87.0905C35.5284 87.0205 35.4777 86.9232 35.4644 86.8182C35.4512 86.7132 35.4763 86.606 35.5351 86.5175C35.5941 86.43 35.6826 86.3665 35.7843 86.3392L37.6239 85.858C37.6797 85.8416 37.7383 85.8361 37.7962 85.8427C37.854 85.8493 37.9099 85.8679 37.9607 85.8963C38.0114 85.9258 38.0558 85.9641 38.0913 86.0111C38.1268 86.0581 38.1525 86.1106 38.1671 86.1686C38.1818 86.2255 38.1848 86.2845 38.1761 86.3425C38.1675 86.4004 38.1472 86.4562 38.1167 86.5065C38.0862 86.5568 38.0461 86.6006 37.9986 86.6345C37.951 86.6684 37.8973 86.6924 37.8403 86.7045L36.0008 87.1856C35.9655 87.1955 35.9291 87.201 35.8926 87.1999Z" fill="white"/>
<path d="M37.7179 89.5995C37.6172 89.5995 37.52 89.5625 37.4442 89.496C37.3683 89.4284 37.3188 89.3366 37.3049 89.2363C37.2908 89.136 37.3133 89.0336 37.368 88.9481C37.4226 88.8636 37.5059 88.8003 37.6026 88.7718L38.8457 88.416C38.9526 88.3854 39.0672 88.3991 39.1646 88.453C39.2619 88.5068 39.3338 88.5976 39.3645 88.7053C39.3952 88.813 39.3822 88.9291 39.3283 89.0273C39.2744 89.1255 39.1842 89.1973 39.0773 89.2279L37.8343 89.5868C37.7963 89.5974 37.7571 89.6016 37.7179 89.5995Z" fill="white"/>
<path d="M38.3025 92.3999C38.1991 92.401 38.099 92.3649 38.0195 92.2991C37.94 92.2345 37.886 92.1435 37.867 92.0427C37.8479 91.9419 37.865 91.8389 37.9152 91.749C37.9655 91.6592 38.0457 91.5901 38.1421 91.5529L39.8013 90.9151C39.8558 90.8921 39.9147 90.8801 39.9742 90.8801C40.0336 90.879 40.0925 90.891 40.1474 90.914C40.2024 90.936 40.252 90.9699 40.2935 91.0116C40.3351 91.0543 40.3676 91.1036 40.3892 91.1595C40.4108 91.2143 40.4209 91.2724 40.4192 91.3315C40.4173 91.3907 40.4035 91.4488 40.3786 91.5014C40.3536 91.5551 40.3181 91.6033 40.2739 91.6427C40.2299 91.6822 40.1783 91.7129 40.1221 91.7315L38.4628 92.3703C38.4116 92.3901 38.3573 92.401 38.3025 92.3999Z" fill="white"/>
<path d="M39.5105 95.1199C39.4023 95.1199 39.2981 95.0763 39.2166 94.9991C39.1349 94.9207 39.0814 94.8136 39.0654 94.6953C39.0496 94.5783 39.0726 94.4575 39.1301 94.358C39.1876 94.2571 39.2759 94.1824 39.3791 94.1463L40.7162 93.7006C40.8312 93.6633 40.9553 93.677 41.0612 93.7392C41.1672 93.8014 41.2462 93.9073 41.2811 94.033C41.3159 94.16 41.3036 94.2969 41.247 94.4127C41.1903 94.5297 41.0938 94.6169 40.9788 94.6543L39.6418 95.0987C39.5992 95.1136 39.555 95.1211 39.5105 95.1199Z" fill="white"/>
<path d="M38.7098 98.3998C38.5995 98.3998 38.4932 98.3596 38.4108 98.2871C38.3284 98.2145 38.2757 98.1141 38.2629 98.0058C38.2499 97.8975 38.2776 97.7881 38.3408 97.6977C38.4038 97.6084 38.4979 97.5448 38.6051 97.5192C40.1133 97.162 41.5773 96.6407 42.9709 95.9654C43.0781 95.9141 43.2018 95.9052 43.3148 95.9442C43.4278 95.9822 43.521 96.0637 43.5736 96.1697C43.6263 96.2757 43.6342 96.3985 43.5957 96.5101C43.5572 96.6229 43.4754 96.7155 43.3682 96.7668C41.9157 97.4712 40.3893 98.0147 38.8167 98.3875C38.7817 98.3965 38.7458 98.4009 38.7098 98.3998Z" fill="white"/>
<path d="M41.5733 100.56C41.4676 100.559 41.3659 100.521 41.2871 100.453C41.2083 100.386 41.1575 100.293 41.1441 100.192C41.1308 100.09 41.1558 99.9881 41.2145 99.9037C41.2733 99.8194 41.3618 99.7582 41.4638 99.7307L43.1344 99.2982C43.1906 99.2824 43.2497 99.2761 43.3081 99.2824C43.3666 99.2888 43.4232 99.3056 43.4747 99.3331C43.5261 99.3605 43.5712 99.3974 43.6074 99.4417C43.6437 99.486 43.6703 99.5377 43.6856 99.5925C43.7008 99.6474 43.7046 99.7044 43.6965 99.7603C43.6883 99.8162 43.6686 99.87 43.6384 99.9185C43.6083 99.967 43.5683 100.009 43.5207 100.043C43.4733 100.077 43.4194 100.1 43.3621 100.113L41.6904 100.546C41.6522 100.556 41.6128 100.561 41.5733 100.56Z" fill="white"/>
<path d="M42.5665 103.04C42.4587 103.041 42.3542 103.007 42.2707 102.944C42.1873 102.883 42.13 102.796 42.1088 102.7C42.0875 102.604 42.1035 102.504 42.1539 102.417C42.2045 102.33 42.2864 102.262 42.3859 102.224L43.9325 101.633C43.9889 101.612 44.0495 101.601 44.1108 101.6C44.172 101.6 44.2327 101.611 44.2895 101.632C44.3463 101.653 44.3978 101.684 44.4414 101.723C44.4848 101.762 44.5195 101.809 44.5432 101.86C44.5669 101.912 44.5793 101.967 44.5796 102.023C44.58 102.079 44.5682 102.134 44.545 102.186C44.5218 102.237 44.4878 102.284 44.4446 102.324C44.4015 102.363 44.3502 102.395 44.2938 102.416L42.746 103.006C42.6894 103.029 42.6283 103.041 42.5665 103.04Z" fill="white"/>
<path d="M43.5341 105.6C43.4236 105.601 43.3167 105.565 43.2317 105.499C43.1467 105.434 43.0891 105.343 43.0686 105.242C43.0483 105.141 43.0666 105.037 43.1203 104.947C43.174 104.857 43.2597 104.788 43.3626 104.75L45.136 104.11C45.2529 104.068 45.3832 104.07 45.498 104.117C45.6129 104.165 45.703 104.253 45.7484 104.36C45.7939 104.469 45.791 104.591 45.7404 104.698C45.6898 104.804 45.5957 104.888 45.4788 104.93L43.7055 105.569C43.651 105.59 43.5928 105.6 43.5341 105.6Z" fill="white"/>
<path d="M44.7347 107.76C44.6243 107.761 44.5173 107.725 44.4322 107.661C44.347 107.597 44.289 107.507 44.2683 107.408C44.2474 107.309 44.2652 107.206 44.3184 107.118C44.3715 107.029 44.4567 106.96 44.5594 106.922L46.3276 106.271C46.3854 106.251 46.4473 106.24 46.5096 106.24C46.5718 106.241 46.6334 106.253 46.6908 106.275C46.7482 106.297 46.8002 106.33 46.8438 106.37C46.8875 106.411 46.9219 106.459 46.9453 106.512C46.9686 106.565 46.9803 106.622 46.9797 106.679C46.9793 106.736 46.9664 106.792 46.9421 106.845C46.9177 106.897 46.8823 106.945 46.8379 106.985C46.7933 107.025 46.7407 107.057 46.6829 107.078L44.9135 107.728C44.8567 107.75 44.7959 107.76 44.7347 107.76Z" fill="white"/>
<path d="M153.765 53.76C153.728 53.7603 153.691 53.7562 153.657 53.7477C153.598 53.7347 153.542 53.7103 153.492 53.6762C153.443 53.642 153.402 53.5986 153.37 53.5487C153.338 53.4987 153.316 53.4431 153.307 53.385C153.297 53.3269 153.299 53.2676 153.314 53.2103C153.858 51.0285 154.421 48.7721 154.581 46.5102C154.731 44.3851 154.5 42.487 153.895 40.8526C153.825 40.7986 153.773 40.7258 153.745 40.6434L153.508 39.9402C153.473 39.8329 153.481 39.7164 153.53 39.6146C153.58 39.5127 153.667 39.4329 153.775 39.3913C153.884 39.3498 154.004 39.3495 154.111 39.3907C154.219 39.432 154.307 39.5114 154.357 39.6131C155.3 41.5669 155.683 43.9078 155.494 46.5714C155.328 48.9079 154.756 51.2021 154.204 53.4195C154.18 53.5158 154.124 53.6014 154.044 53.6631C153.965 53.7247 153.866 53.7589 153.765 53.76Z" fill="#1B5EC9"/>
<path d="M158.787 51.12C158.71 51.1199 158.635 51.1005 158.568 51.0635C158.501 51.0266 158.445 50.9734 158.405 50.9092C158.365 50.8448 158.343 50.7715 158.34 50.6963C158.337 50.6211 158.354 50.5463 158.39 50.4794C159.199 48.924 159.346 47.1174 158.798 45.456C158.761 45.3451 158.77 45.2244 158.823 45.1204C158.878 45.0165 158.971 44.9378 159.085 44.9016C159.198 44.8655 159.321 44.8749 159.428 44.9278C159.533 44.9806 159.614 45.0726 159.651 45.1835C160.272 47.0671 160.104 49.1152 159.187 50.8783C159.148 50.9508 159.092 51.0118 159.022 51.0544C158.951 51.097 158.87 51.1198 158.787 51.12Z" fill="#1B5EC9"/>
<path d="M88.4779 151.277C87.7928 151.277 87.111 151.241 86.438 151.206L62.6638 149.958C61.9532 149.921 61.07 149.875 60.3239 149.454C59.3189 148.889 58.6781 147.759 58.4169 146.093C57.8811 142.678 58.8153 139.281 59.7174 135.997C59.8901 135.369 60.0683 134.721 60.231 134.087C62.0954 126.806 62.5248 119.231 61.495 111.784C61.4812 111.686 61.5006 111.587 61.5502 111.5C61.5999 111.415 61.6767 111.349 61.7686 111.312C61.8606 111.275 61.9621 111.27 62.0572 111.298C62.1522 111.325 62.2352 111.384 62.293 111.464C62.5144 111.587 63.2228 111.808 64.4182 112.128C64.582 112.171 64.7037 112.203 64.7602 112.22C65.6523 112.489 66.5699 112.73 67.4863 112.937C73.0944 114.197 78.9037 114.273 84.5431 113.158C85.4906 112.971 86.4425 112.746 87.37 112.494C87.5825 112.436 87.8271 112.344 88.0861 112.246C88.7093 112.013 89.4143 111.748 90.0574 111.811C90.2068 111.82 90.3518 111.86 90.4858 111.928C90.6186 111.996 90.737 112.09 90.8322 112.205C91.1908 112.658 91.1034 113.325 91.0336 113.865C91.0148 114.009 90.9971 114.145 90.9916 114.252C90.9429 115.228 90.9285 116.244 90.9473 117.263C91.0126 120.827 91.4841 124.725 92.4305 129.528C92.9297 132.057 93.513 134.619 94.0763 137.089C94.4239 138.614 94.7836 140.188 95.1201 141.745C95.2286 142.247 95.3348 142.749 95.4389 143.25C95.7521 144.761 95.9923 146.231 95.4909 147.619C94.9297 149.169 93.4421 150.41 91.5129 150.939C90.5201 151.187 89.4996 151.301 88.4779 151.277ZM62.4856 112.486C63.3882 119.784 62.916 127.185 61.0932 134.308C60.9283 134.949 60.749 135.601 60.5752 136.231C59.6975 139.425 58.7899 142.729 59.2957 145.957C59.4451 146.908 59.8203 148.153 60.7623 148.683C61.3279 149.001 62.065 149.04 62.7147 149.075L86.4889 150.322C88.0861 150.406 89.7386 150.492 91.2816 150.072C92.9341 149.62 94.197 148.586 94.6597 147.305C95.0836 146.136 94.8611 144.799 94.5744 143.417C94.4704 142.917 94.3641 142.418 94.2568 141.919C93.9247 140.369 93.5628 138.795 93.2152 137.271C92.6496 134.791 92.0652 132.225 91.5638 129.683C90.6064 124.828 90.1304 120.882 90.064 117.263C90.0452 116.221 90.064 115.188 90.1094 114.193C90.1161 114.051 90.1371 113.897 90.1581 113.735C90.1991 113.424 90.2688 112.904 90.1404 112.745C90.1304 112.732 90.1006 112.693 89.9744 112.681C89.5372 112.638 88.9339 112.865 88.4016 113.064C88.1226 113.175 87.8603 113.268 87.608 113.336C86.6605 113.596 85.6887 113.827 84.7191 114.018C78.959 115.158 73.0249 115.083 67.296 113.797C66.3596 113.585 65.4221 113.34 64.5089 113.064L64.1968 112.98C63.4242 112.776 62.8752 112.619 62.4856 112.486Z" fill="black"/>
<path d="M40.993 147.84C40.5435 147.84 40.1129 147.829 39.7034 147.808C35.3483 147.595 31.1198 146.397 27.03 145.238C25.757 144.878 24.3131 144.466 23.1388 143.606C20.4297 141.615 19.9547 137.928 20.4131 135.14C20.7371 133.173 21.463 131.299 22.1644 129.486C22.5218 128.561 22.8914 127.605 23.1999 126.656C25.1566 120.634 24.9424 114.194 24.7359 107.975C24.7324 107.858 24.7755 107.745 24.8561 107.659C24.9366 107.574 25.0479 107.525 25.1654 107.52C25.2513 107.517 25.3362 107.539 25.4096 107.583C25.8757 107.711 28.5882 108.054 29.627 108.185C30.0188 108.235 30.3018 108.271 30.4039 108.286L35.5614 109.047C36.3882 109.169 37.2262 109.305 38.043 109.435C40.2361 109.788 42.5046 110.152 44.7332 110.299C45.7112 110.349 46.691 110.347 47.6688 110.294L48.1715 110.276H48.2825C49.0527 110.25 49.9251 110.22 50.6998 110.561C51.4933 110.909 51.985 111.618 52.1625 112.667C52.3845 113.981 52.3712 115.347 52.359 116.668V117.032C52.3446 118.769 52.248 120.527 52.1581 122.228C52.0871 123.542 52.0149 124.901 51.9794 126.235C51.8436 131.349 52.2681 136.462 53.2458 141.484C53.3567 142.074 53.5044 142.808 53.1936 143.478C52.9772 143.945 52.5843 144.276 52.1947 144.562C48.6021 147.199 44.3192 147.84 40.993 147.84ZM25.6427 108.527C25.8436 114.645 25.9878 120.948 24.0445 126.927C23.7293 127.9 23.3542 128.867 22.9923 129.802C22.3076 131.573 21.5984 133.405 21.2898 135.283C20.8736 137.813 21.2798 141.141 23.6671 142.893C24.7115 143.665 26.0145 144.029 27.2742 144.386C31.3151 145.531 35.4937 146.714 39.7478 146.922C43.0518 147.085 47.8008 146.683 51.6653 143.849C51.9417 143.646 52.248 143.408 52.3867 143.106C52.5776 142.693 52.47 142.137 52.3734 141.648C51.3819 136.564 50.9495 131.386 51.0838 126.208C51.1193 124.861 51.1948 123.496 51.2636 122.176C51.3546 120.485 51.4489 118.738 51.4633 117.021V116.655C51.4755 115.373 51.4889 114.046 51.2791 112.808C51.1526 112.061 50.8429 111.588 50.3324 111.363C49.7442 111.105 49.0128 111.129 48.3047 111.153H48.1937L47.6932 111.171C46.685 111.223 45.6748 111.223 44.6666 111.171C42.3959 111.021 40.1073 110.652 37.8965 110.297C37.0863 110.167 36.2473 110.033 35.426 109.911L30.2719 109.157C30.1808 109.144 29.8878 109.106 29.516 109.06C28.788 108.967 27.687 108.828 26.7681 108.699C26.2942 108.632 25.9157 108.575 25.6427 108.527ZM25.5972 107.809C25.6119 107.851 25.6206 107.894 25.6227 107.938C25.621 107.894 25.6124 107.851 25.5972 107.809Z" fill="black"/>
<path d="M44.2043 126.4H44.1799C44.0673 126.393 43.9621 126.34 43.8871 126.252C43.8121 126.163 43.7736 126.047 43.78 125.929C44.0343 121.247 44.6892 116.598 45.7369 112.038C45.7483 111.98 45.7708 111.924 45.8031 111.874C45.8356 111.825 45.8771 111.782 45.9253 111.75C45.9736 111.717 46.0276 111.696 46.0841 111.686C46.1405 111.676 46.1983 111.678 46.254 111.693C46.3096 111.706 46.3619 111.733 46.4078 111.769C46.4537 111.804 46.4923 111.849 46.5211 111.902C46.5501 111.953 46.5687 112.011 46.5759 112.07C46.5831 112.129 46.5788 112.191 46.5632 112.248C45.5281 116.754 44.8803 121.348 44.6276 125.976C44.6222 126.091 44.5753 126.198 44.4965 126.277C44.4178 126.355 44.3132 126.4 44.2043 126.4Z" fill="black"/>
</g>
<defs>
<clipPath id="clip0_165_7955">
<rect width="160" height="160" fill="white" transform="translate(0.5)"/>
</clipPath>
</defs>
</svg>
