<svg width="161" height="160" viewBox="0 0 161 160" fill="none" xmlns="http://www.w3.org/2000/svg">
<path d="M54.505 146.935C54.6878 147.361 54.9263 147.813 55.3521 147.994C55.7484 148.161 56.2004 148.052 56.6149 147.94L119.827 130.938C120.705 130.702 121.644 130.431 122.223 129.732C122.873 128.951 122.917 127.844 122.898 126.828C122.841 123.859 122.51 120.9 121.91 117.991C121.747 117.207 121.522 116.356 120.875 115.886C120.349 115.504 119.66 115.459 119.012 115.431C113.073 115.193 102.826 115.409 84.4218 118.368C78.5093 119.318 64.9827 123.446 57.1486 131.418C53.7238 134.903 52.6064 140.475 53.9089 145.233C54.0674 145.813 54.2667 146.382 54.505 146.935Z" fill="#FACBDF"/>
<path d="M95.1702 63.7129C102.88 57.2433 107.228 46.9615 106.501 36.9187C106.09 31.2465 103.5 25.0329 98.127 23.1797C97.4927 22.9613 96.7549 22.8214 96.1819 23.1695C95.5555 23.5506 95.3657 24.3617 95.2725 25.0886C94.9565 27.5709 95.094 30.0898 95.6772 32.5229C93.7321 27.6096 89.4895 23.8327 84.6683 21.6758C79.8475 19.5189 74.4783 18.8557 69.1978 18.8807C66.8401 18.8921 63.8855 19.5041 63.3592 21.8032C63.1159 22.8669 63.5194 23.9704 64.0162 24.9419C65.5067 27.8352 67.8518 30.1987 70.7325 31.7107C58.2935 26.1216 43.3138 26.5459 31.2102 32.8301C28.0385 34.4774 24.9793 36.5842 23.0456 39.5898C22.2305 40.8571 21.6587 42.5908 22.5511 43.8046C23.1547 44.626 24.2336 44.9184 25.2362 45.0992C31.1032 46.1327 37.1469 45.1685 42.4021 42.361C37.044 43.6876 32.2211 46.6257 28.583 50.7793C28.1737 51.2492 27.7634 51.7748 27.7122 52.3948C27.586 53.918 29.5311 54.6905 31.0544 54.7246C33.9745 54.7833 36.8444 53.9594 39.2895 52.3606C34.2238 54.443 29.8628 57.938 26.7254 62.4296C25.7262 63.8653 24.8497 65.7754 25.7296 67.2872C26.514 68.6364 28.3045 68.9561 29.863 68.9732C34.8548 69.0166 39.7259 67.4391 43.7458 64.4773C44.5518 63.8801 45.6045 63.2021 46.465 63.7174C46.8686 63.9586 47.0925 64.4057 47.3074 64.8232C49.2086 68.5205 51.9143 71.7441 55.2253 74.2563C55.6584 74.5839 56.1199 74.9081 56.6531 75.0071C57.9536 75.246 59.0563 74.1379 59.984 73.1983C66.6195 66.5091 76.5007 64.5046 85.7653 62.813C87.9548 62.4137 90.2341 62.0167 92.3804 62.6048C93.2899 62.8551 94.18 63.2874 95.1236 63.2453C96.0671 63.2032 97.0834 62.4558 96.9425 61.5218L95.1702 63.7129Z" fill="#FACBDF"/>
<path d="M46.8197 76.27C46.7765 77.7197 46.4641 79.5326 45.0676 79.9141C43.5906 80.3152 42.4146 78.7469 41.1249 77.9224C37.8901 75.8555 33.4918 78.8722 32.2431 82.5085C31.1921 85.5673 31.6227 89.2718 33.8997 91.5642C36.1767 93.8565 40.4012 94.1207 42.535 91.6917C43.3508 90.7636 43.861 89.5121 44.937 88.9062C47.1787 87.6445 49.7762 90.1099 50.6295 92.5412C51.8657 96.0635 51.7202 100.211 54.1006 103.085C57.031 106.625 62.3848 106.626 66.9332 106.013C78.7158 104.423 90.122 100.764 101.288 96.6614C105.558 95.0921 110.541 92.4741 110.658 87.9166C110.709 85.9067 109.734 84.0368 108.944 82.1874C108.153 80.338 107.529 78.2185 108.277 76.352C109.024 74.4855 111.738 73.4094 113.115 74.8716C113.683 75.482 113.958 76.3156 114.463 76.9829C115.813 78.7662 119.155 77.7949 120.66 76.7415C125.332 73.472 124.996 65.923 121.145 61.7175C119.299 59.6984 115.793 58.6313 113.949 60.6493C112.237 62.5214 112.487 66.3808 109.982 66.7577C108.755 66.9422 107.652 66.0221 106.823 65.0962C105.321 63.4173 104.094 61.51 103.187 59.4456C102.774 58.5027 102.346 57.439 101.41 57.0131C100.83 56.7478 100.161 56.7854 99.5266 56.8366C82.7547 58.1214 66.2005 61.4484 50.2307 66.7441C48.7263 67.2429 47.256 67.5036 47.0492 69.2893C46.7856 71.5782 46.889 73.9663 46.8197 76.27Z" fill="#FF5400"/>
<path d="M119.091 74.56C119.005 74.56 118.921 74.5349 118.849 74.4874C118.776 74.4399 118.719 74.3722 118.683 74.2924C118.649 74.2125 118.636 74.124 118.649 74.0374C118.662 73.9508 118.699 73.8699 118.756 73.8043C119.628 72.8044 120.691 70.3669 120.047 67.751C119.581 65.8533 118.395 64.4375 117.519 64.1647C117.215 64.0704 116.976 64.1147 116.767 64.3056C116.679 64.3861 116.561 64.4273 116.443 64.4203C116.324 64.4132 116.213 64.3585 116.133 64.2681C116.054 64.1777 116.014 64.0591 116.02 63.9381C116.028 63.8174 116.082 63.7043 116.17 63.6238C116.385 63.4269 116.647 63.292 116.931 63.2333C117.214 63.1744 117.508 63.194 117.781 63.2897C119.072 63.692 120.421 65.5124 120.911 67.5249C121.694 70.7135 120.28 73.4169 119.421 74.4009C119.381 74.4494 119.331 74.4888 119.274 74.5162C119.217 74.5437 119.155 74.5585 119.091 74.56Z" fill="black"/>
<path d="M38.5205 89.92C38.4883 89.92 38.4562 89.9166 38.4248 89.9099C36.2278 89.4475 34.5034 87.3483 34.5 85.1298C34.4966 82.9113 36.2084 80.8053 38.4066 80.335C38.466 80.3193 38.528 80.3159 38.5888 80.3249C38.6495 80.3339 38.7079 80.3553 38.7602 80.3868C38.8126 80.4183 38.858 80.4599 38.8936 80.5094C38.9291 80.5589 38.9543 80.6152 38.9673 80.6748C38.9804 80.7333 38.9811 80.7952 38.9696 80.8548C38.958 80.9144 38.9345 80.9707 38.9002 81.0213C38.8659 81.0719 38.8216 81.1147 38.77 81.1473C38.7185 81.181 38.6607 81.2035 38.6002 81.2137C36.8086 81.5984 35.4112 83.3174 35.4112 85.1275C35.4112 86.9376 36.8212 88.6521 38.615 89.029C38.726 89.0515 38.8247 89.1134 38.8916 89.2034C38.9587 89.2934 38.9894 89.4059 38.9775 89.5172C38.9657 89.6275 38.9124 89.731 38.8278 89.8052C38.7433 89.8795 38.6338 89.9211 38.5205 89.92Z" fill="black"/>
<path d="M75.6201 86.9598C75.1736 86.9655 74.735 86.8424 74.3585 86.6042C74.1679 86.4834 74.009 86.3204 73.8946 86.1267C73.7804 85.9329 73.7141 85.7153 73.7014 85.4919C73.6464 84.4126 74.6441 83.9647 75.4457 83.6057C75.838 83.4301 76.2485 83.2478 76.518 83.0153C77.3208 82.3315 77.1442 80.941 76.8988 79.8045L74.7668 69.9028C74.7439 69.7856 74.7682 69.6642 74.8344 69.5646C74.9005 69.465 75.0034 69.3952 75.1207 69.3702C75.2382 69.3451 75.3608 69.3667 75.4622 69.4306C75.5637 69.4943 75.6361 69.5951 75.6636 69.7113L77.8013 79.6199C78.0995 81.0037 78.291 82.719 77.1132 83.7139C76.7405 84.0308 76.2726 84.2405 75.8219 84.4422C74.987 84.8172 74.5959 85.0383 74.6166 85.452C74.6213 85.534 74.647 85.615 74.6912 85.6845C74.7356 85.7551 74.7971 85.8133 74.87 85.8531C75.0498 85.9591 75.2504 86.0241 75.4581 86.0469C75.6659 86.0686 75.8759 86.0458 76.0742 85.9808C76.4459 85.8338 76.7998 85.6457 77.1293 85.4212C77.5272 85.1511 77.9566 84.9289 78.408 84.7613C79.017 84.5584 79.6374 84.5482 80.2429 84.5334C80.566 84.5334 80.871 84.5231 81.1704 84.4901C81.8745 84.4103 82.6807 84.0342 82.7874 83.4039C82.7977 83.3447 82.8184 83.2877 82.8505 83.2364C82.8814 83.1851 82.9239 83.1395 82.9732 83.1053C83.0214 83.07 83.0776 83.0449 83.136 83.0312C83.1957 83.0176 83.2565 83.0153 83.3161 83.0255C83.3769 83.0347 83.4331 83.0563 83.4847 83.0882C83.5363 83.1213 83.581 83.1623 83.6154 83.2113C83.651 83.2615 83.675 83.3162 83.6888 83.3754C83.7014 83.4336 83.7026 83.4951 83.6923 83.5544C83.5065 84.6587 82.3436 85.2742 81.2736 85.395C80.9295 85.4337 80.5855 85.4394 80.2578 85.4451C79.7028 85.4543 79.1798 85.4634 78.705 85.6218C78.3231 85.7688 77.9602 85.9591 77.6236 86.1916C77.2355 86.4538 76.8184 86.6715 76.3804 86.8401C76.1354 86.9222 75.8784 86.9621 75.6201 86.9598Z" fill="black"/>
<path d="M75.3201 94.56C74.6498 94.56 73.9821 94.5306 73.317 94.474C73.2574 94.4683 73.1994 94.4525 73.1463 94.4242C73.0933 94.397 73.0461 94.3597 73.0076 94.3144C72.969 94.268 72.9399 94.2159 72.9218 94.1582C72.9037 94.1016 72.8969 94.0416 72.902 93.9828C72.9071 93.9228 72.9238 93.8651 72.9514 93.8119C72.9788 93.7587 73.0164 93.7123 73.0621 93.6738C73.1078 93.6353 73.1606 93.6059 73.2175 93.5878C73.2746 93.5697 73.3345 93.5629 73.394 93.5685C78.9585 94.0167 84.5035 92.5001 89.0631 89.2846C89.1617 89.2144 89.283 89.1861 89.4021 89.2065C89.52 89.2257 89.6265 89.2914 89.6957 89.3898C89.766 89.4872 89.7943 89.6083 89.7739 89.7271C89.7547 89.846 89.6889 89.9512 89.5903 90.0214C85.4853 92.9517 80.3785 94.56 75.3201 94.56Z" fill="black"/>
<path d="M95.6494 87.76C95.5818 87.76 95.5154 87.7446 95.4546 87.716C95.3938 87.6874 95.3409 87.6468 95.2981 87.5951L94.118 86.1551C94.0809 86.11 94.0539 86.0583 94.037 86.0023C94.0212 85.9473 94.0156 85.8891 94.0223 85.8319C94.0291 85.7736 94.0471 85.7187 94.0753 85.6681C94.1045 85.6175 94.1428 85.5725 94.189 85.5362C94.2351 85.4999 94.2881 85.4735 94.3444 85.457C94.4018 85.4416 94.4615 85.4362 94.52 85.4427C94.5786 85.4493 94.636 85.4669 94.6878 85.4944C94.7396 85.523 94.7846 85.5604 94.8218 85.6054L96.0007 87.0444C96.0536 87.1092 96.0874 87.1862 96.0964 87.2686C96.1065 87.3511 96.0919 87.4346 96.0559 87.5094C96.0187 87.5841 95.9613 87.6468 95.8892 87.6907C95.8171 87.7347 95.7349 87.7589 95.6494 87.7589V87.76Z" fill="white"/>
<path d="M63.127 95.84C63.0908 95.84 63.0548 95.8366 63.0195 95.8288C62.9601 95.8155 62.9037 95.791 62.8541 95.7576C62.8044 95.723 62.7622 95.6796 62.7301 95.6295C62.6978 95.5794 62.6761 95.5248 62.6662 95.4658C62.6564 95.4078 62.6585 95.3488 62.6726 95.292C62.8908 94.4177 63.3864 93.6315 64.0903 93.0423C64.1838 92.9777 64.2987 92.9499 64.4125 92.9632C64.5263 92.9766 64.631 93.0301 64.7063 93.1125C64.7816 93.196 64.8222 93.3029 64.8201 93.4132C64.818 93.5245 64.7735 93.6292 64.6951 93.7105C64.1377 94.1772 63.7454 94.8009 63.5722 95.4925C63.5494 95.5894 63.493 95.6774 63.4122 95.7408C63.3315 95.8032 63.231 95.8389 63.127 95.84Z" fill="white"/>
<path d="M81.0372 98.56C80.9454 98.5611 80.8547 98.5329 80.7788 98.4809C80.7017 98.429 80.6427 98.3555 80.6099 98.2697C80.577 98.1839 80.5713 98.089 80.5929 97.9998C80.6155 97.9106 80.6643 97.8304 80.7334 97.7694C81.3456 97.2284 82.0869 96.8512 82.8849 96.6739C83.6841 96.4977 84.515 96.5259 85.2994 96.7586C85.3573 96.7755 85.4094 96.8038 85.4559 96.8422C85.5012 96.8794 85.5398 96.9257 85.567 96.9788C85.5953 97.0308 85.6123 97.0884 85.618 97.1471C85.6236 97.207 85.618 97.2668 85.5998 97.3233C85.5828 97.3798 85.5545 97.4328 85.5159 97.478C85.4785 97.5243 85.4321 97.5616 85.3788 97.5898C85.3266 97.6169 85.2688 97.635 85.2099 97.6406C85.1498 97.6463 85.0909 97.6395 85.033 97.6226C84.3994 97.434 83.7272 97.4114 83.0822 97.5537C82.436 97.6971 81.8375 98.0009 81.3422 98.4391C81.2594 98.5159 81.1506 98.5588 81.0372 98.56Z" fill="white"/>
<path d="M45.0445 79.1364C47.0926 83.8712 50.5266 88.2491 55.6845 87.9889C58.1434 87.8651 60.4634 86.8019 62.5662 85.5319C64.7406 84.2211 66.8638 82.549 67.8003 80.1931C68.4261 78.6196 68.4694 76.8771 68.9472 75.2527C69.9611 71.8029 73.0845 69.0665 76.6425 68.5099C80.2006 67.9533 84.012 69.6072 86.034 72.5833C86.7929 73.6999 87.3209 74.9858 88.2482 75.9684C90.3441 78.1879 93.81 78.2675 96.8538 78.0051C99.8975 77.7427 103.09 77.236 105.573 75.4333C108.839 73.0615 110.291 68.8041 110.26 64.7727C110.229 60.7413 108.93 56.8405 107.643 53.0193C107.24 51.8209 106.796 50.5611 105.835 49.7387C104.306 48.4301 102.034 48.6505 100.042 48.9436L82.7661 51.5005C74.3202 52.75 65.8318 54.0109 57.6359 56.4668C53.6227 57.6686 49.4513 59.0647 45.8148 61.1752C43.456 62.5383 42.911 63.7878 42.9008 66.6367C42.8848 70.801 43.3855 75.2936 45.0445 79.1364Z" fill="#1B5EC9"/>
<path d="M103.166 52.4688C108.668 57.1518 106.104 73.33 103.393 59.4625C103.012 56.8103 100.981 55.4568 100.187 55.3768C90.7559 53.346 98.7261 48.3329 103.166 52.4688Z" fill="white"/>
<path d="M49.4884 70.1597C48.7116 70.1692 47.9514 69.9319 47.3149 69.4812C46.5153 68.8761 45.9837 67.9761 45.8357 66.9767C45.6654 65.9957 45.8843 64.9861 46.4451 64.1674C47.4644 62.7794 48.597 62.4011 49.3729 62.3335C49.876 62.2896 50.3827 62.3532 50.86 62.5202C51.3371 62.6873 51.7744 62.954 52.1432 63.3032C53.593 64.6614 53.798 67.1315 52.5963 68.696C51.8589 69.6485 50.6708 70.1597 49.4884 70.1597ZM47.1779 64.7073C46.7566 65.327 46.5939 66.0897 46.7248 66.83C46.8337 67.5893 47.2341 68.2742 47.8393 68.7362C49.0365 69.6061 50.9596 69.3184 51.8748 68.1321C52.7899 66.9458 52.6257 65.0064 51.5259 63.976C51.2513 63.7129 50.925 63.5112 50.5683 63.3839C50.2117 63.2565 49.8326 63.2063 49.4555 63.2367C48.6129 63.3169 47.8234 63.8316 47.1779 64.7073Z" fill="white"/>
<path d="M55.7258 60.2037C54.6954 60.8284 54.7526 62.4955 55.7784 62.7555C56.0081 62.8084 56.2463 62.8142 56.4784 62.7725C56.7104 62.7309 56.9312 62.6427 57.1271 62.5135C58.3865 61.7256 57.6846 59.7692 56.2169 60.0225C56.0429 60.0513 55.8761 60.1128 55.7258 60.2037Z" fill="black"/>
<path d="M56.1727 63.28C56.0039 63.2797 55.8359 63.2585 55.6723 63.2172C55.0397 63.0537 54.5831 62.4638 54.5106 61.7139C54.429 60.876 54.8223 60.1204 55.5136 59.7797C55.7095 59.6658 55.9247 59.5884 56.1485 59.5511C56.5584 59.4732 56.983 59.5429 57.3459 59.7481C57.7086 59.9532 57.9859 60.2802 58.128 60.6702C58.289 61.0717 58.3032 61.5165 58.168 61.9272C58.0329 62.338 57.7569 62.6885 57.3884 62.9176C57.0258 63.1503 56.6042 63.276 56.1727 63.28ZM56.4832 60.4325C56.4242 60.4324 56.3652 60.4377 56.3072 60.4485C56.1895 60.4681 56.0766 60.5101 55.9748 60.5719C55.961 60.5799 55.9472 60.5879 55.9323 60.5948C55.5044 60.7983 55.3928 61.2807 55.4262 61.6236C55.4538 61.8991 55.5941 62.2501 55.9024 62.3289C56.0723 62.3669 56.2484 62.3694 56.4193 62.3366C56.5903 62.3038 56.7526 62.2361 56.8961 62.138C57.0868 62.0245 57.2298 61.8463 57.2986 61.6361C57.3673 61.426 57.3571 61.1983 57.27 60.9949C57.2135 60.8318 57.1075 60.69 56.9666 60.5893C56.8257 60.4886 56.6568 60.4338 56.4832 60.4325Z" fill="black"/>
<path d="M55.1979 85.36C54.7224 85.3611 54.2476 85.3231 53.7785 85.2448C51.3988 84.837 49.4053 83.2797 48.6888 81.2616C48.6677 81.204 48.6581 81.1429 48.6605 81.083C48.6629 81.022 48.6771 80.9621 48.7027 80.9068C48.7281 80.8515 48.7641 80.802 48.8086 80.7605C48.8531 80.7191 48.9052 80.6879 48.962 80.6672C49.0188 80.6465 49.079 80.6373 49.1392 80.6407C49.1994 80.6442 49.2585 80.6592 49.3128 80.6856C49.3671 80.711 49.4159 80.749 49.456 80.7939C49.4961 80.84 49.5268 80.893 49.5465 80.9506C50.1503 82.6554 51.8704 83.9835 53.9289 84.3337C55.6536 84.6262 57.6198 84.3014 59.7728 83.3672C59.828 83.3407 59.8879 83.3269 59.9489 83.3246C60.0098 83.3223 60.0705 83.3327 60.1275 83.3546C60.1843 83.3764 60.2364 83.4099 60.2803 83.4525C60.3242 83.4951 60.3592 83.5469 60.3832 83.6034C60.4073 83.6598 60.4198 83.7209 60.4202 83.7831C60.4204 83.8441 60.4084 83.9052 60.385 83.9628C60.3615 84.0192 60.327 84.071 60.2835 84.1137C60.2399 84.1574 60.1883 84.1908 60.1316 84.2139C58.3762 84.9764 56.7221 85.36 55.1979 85.36Z" fill="black"/>
<path d="M62.6374 82.48C62.5664 82.4789 62.4965 82.4632 62.4328 82.433C62.379 82.4061 62.331 82.3703 62.2917 82.3255C62.2522 82.2808 62.2221 82.2293 62.2032 82.1733C62.1842 82.1173 62.1765 82.0591 62.1809 81.9998C62.1851 81.9416 62.2012 81.8845 62.2281 81.8319L62.8272 80.6598C62.853 80.605 62.8896 80.5568 62.935 80.5165C62.9802 80.4763 63.0334 80.4449 63.0913 80.4248C63.1491 80.4046 63.2104 80.3968 63.2715 80.4012C63.3326 80.4046 63.3923 80.4203 63.4471 80.4471C63.5019 80.474 63.5506 80.511 63.5904 80.5568C63.63 80.6027 63.6601 80.6554 63.6785 80.7124C63.6969 80.7695 63.7034 80.83 63.6976 80.8904C63.6919 80.9498 63.6738 81.008 63.6448 81.0606L63.0468 82.2326C63.0087 82.3065 62.9503 82.3692 62.878 82.4129C62.8057 82.4565 62.7224 82.48 62.6374 82.48Z" fill="black"/>
<path d="M86.9465 33.44C86.899 33.44 86.8516 33.4326 86.8053 33.418C85.439 32.9821 84.5521 32.0224 84.4328 30.8533C84.361 30.1596 84.5938 29.5375 85.0117 29.3027C85.2885 29.1573 85.6023 29.0966 85.9126 29.1281C87.5671 29.2287 88.6439 30.7181 89.4776 32.1623C89.5389 32.2685 89.5563 32.3948 89.5239 32.5133C89.4926 32.6317 89.4151 32.7328 89.3085 32.7942C89.202 32.8555 89.0758 32.8721 88.9565 32.8403C88.8384 32.8085 88.7366 32.7311 88.6752 32.6248C87.9284 31.3321 87.0692 30.1249 85.8558 30.0509C85.7238 30.034 85.5895 30.054 85.4668 30.1087C85.41 30.1596 85.2885 30.4741 85.3799 30.9181C85.4714 31.3621 85.8049 32.1276 87.0889 32.5369C87.1943 32.5705 87.2846 32.6405 87.3425 32.7344C87.4004 32.8283 87.4224 32.9398 87.4062 33.0488C87.3888 33.1579 87.3332 33.2572 87.2499 33.3289C87.1653 33.4006 87.0588 33.44 86.9477 33.44H86.9465Z" fill="white"/>
<path d="M56.3389 43.2C56.3141 43.2003 56.2893 43.1983 56.2648 43.1942C52.7039 42.6093 50.8493 41.8431 50.4313 40.7816C50.3014 40.4543 50.2456 39.9355 50.7149 39.3266C51.4269 38.3997 52.5569 37.8238 53.8954 37.7041C55.6622 37.5468 57.5532 38.167 58.8302 39.3244C58.9197 39.4058 58.9734 39.5193 58.9793 39.6403C58.9851 39.7612 58.9427 39.8795 58.8615 39.9692C58.7803 40.0588 58.6667 40.1125 58.5459 40.1184C58.4251 40.1242 58.3069 40.0819 58.2173 40.0005C57.1408 39.0233 55.4754 38.4772 53.9763 38.6129C53.2108 38.6813 52.1537 38.9549 51.436 39.8831C51.1854 40.2103 51.2526 40.3813 51.2788 40.4463C51.4371 40.8477 52.3143 41.6219 56.4129 42.2946C56.5249 42.3142 56.6255 42.375 56.695 42.465C56.7645 42.555 56.7979 42.6677 56.7885 42.7811C56.7793 42.8945 56.728 43.0003 56.6449 43.0778C56.5616 43.1552 56.4526 43.1988 56.3389 43.2Z" fill="white"/>
<path d="M64.8946 51.2798C63.9989 51.2798 63.0451 50.9183 62.571 50.3635C62.2748 50.0168 62.1865 49.6211 62.3213 49.2494C62.7035 48.1944 63.9327 47.7715 64.5926 47.5509C64.6508 47.5288 64.7128 47.5184 64.7752 47.5202C64.8376 47.5222 64.8991 47.5363 64.9556 47.5619C65.0123 47.5875 65.0632 47.624 65.1052 47.6693C65.1471 47.7145 65.1793 47.7675 65.1997 47.8252C65.2203 47.8829 65.2288 47.944 65.2246 48.005C65.2205 48.0659 65.2038 48.1254 65.1757 48.1799C65.1476 48.2344 65.1084 48.2828 65.0608 48.3222C65.013 48.3616 64.9577 48.3912 64.8981 48.4092C64.1883 48.6514 63.4122 48.9595 63.1973 49.5529C63.1763 49.612 63.2054 49.6882 63.2844 49.7803C63.5958 50.1452 64.4694 50.4624 65.2258 50.3487C65.2868 50.337 65.3496 50.3375 65.4105 50.35C65.4714 50.3625 65.5291 50.3868 65.5801 50.4215C65.6312 50.4563 65.6747 50.5006 65.7079 50.5521C65.7411 50.6036 65.7634 50.661 65.7735 50.721C65.7837 50.7812 65.7814 50.8426 65.7668 50.9017C65.7522 50.9609 65.7256 51.0166 65.6886 51.0655C65.6516 51.1145 65.605 51.1557 65.5514 51.1866C65.4979 51.2175 65.4385 51.2376 65.3768 51.2457C65.2174 51.2704 65.056 51.2817 64.8946 51.2798Z" fill="white"/>
<path d="M136.738 44.2061C145.935 48.6975 152.453 41.1854 154.313 37.865C156.948 33.158 156.205 23.34 148.773 19.9107C145.054 18.1938 135.368 17.3405 131.475 26.0964C126.752 36.7212 133.576 42.6628 136.738 44.2061Z" fill="#FACBDF"/>
<path d="M154.992 41.52C153.66 41.5057 152.332 41.3863 151.018 41.163C148.53 40.7525 143.602 39.6257 138.57 36.6945C136.003 35.1798 133.576 33.4402 131.317 31.4962C128.204 28.7674 126.536 26.3796 126.35 24.4013C126.318 24.071 126.364 23.7377 126.486 23.4287C126.607 23.1197 126.799 22.8437 127.047 22.623C127.751 21.9772 129.264 21.3279 132.473 21.901C132.592 21.9222 132.698 21.9898 132.766 22.0889C132.836 22.188 132.862 22.3103 132.841 22.4291C132.82 22.5479 132.753 22.6535 132.654 22.7225C132.553 22.7914 132.432 22.8182 132.312 22.7969C130.128 22.4069 128.433 22.5877 127.663 23.2927C127.517 23.4177 127.405 23.5761 127.334 23.7543C127.263 23.9325 127.236 24.1252 127.256 24.316C127.597 27.9874 134.482 33.2597 139.028 35.9066C147.541 40.8651 156.786 41.1539 157.682 40.1135C158.722 38.906 156.808 36.4649 156.031 35.7588C155.987 35.7189 155.949 35.6703 155.923 35.6162C155.897 35.562 155.882 35.5031 155.879 35.443C155.875 35.3829 155.885 35.3228 155.905 35.266C155.926 35.2094 155.956 35.1572 155.997 35.1127C156.037 35.0682 156.086 35.0321 156.141 35.0065C156.195 34.9811 156.255 34.9666 156.315 34.9641C156.375 34.9616 156.436 34.9711 156.491 34.992C156.548 35.0128 156.601 35.0446 156.644 35.0857C157.422 35.7929 159.997 38.8196 158.372 40.707C157.868 41.3017 156.544 41.52 154.992 41.52Z" fill="#1B5EC9"/>
<path d="M120.512 4.88001C120.359 4.87956 120.207 4.86716 120.055 4.84315C119.086 4.69011 118.34 4.09359 118.097 3.27924C117.855 2.4649 118.191 1.5422 118.948 0.923339C119.705 0.304481 120.639 0.152557 121.411 0.510021C121.731 0.625079 122.02 0.808616 122.257 1.04711C122.494 1.28572 122.674 1.57325 122.782 1.88849C122.899 2.23322 122.929 2.59995 122.871 2.95831C122.813 3.31666 122.669 3.65648 122.45 3.94949C122.02 4.546 121.311 4.88001 120.512 4.88001ZM120.539 1.22048C120.168 1.23578 119.811 1.37441 119.53 1.61369C119.165 1.91195 118.8 2.46378 118.97 3.03684C119.139 3.61001 119.712 3.8847 120.194 3.96177C120.677 4.03885 121.337 3.94513 121.68 3.44915C122.045 2.92971 122 2.47272 121.9 2.18116C121.836 1.99249 121.73 1.82023 121.589 1.67714C121.447 1.53404 121.274 1.42379 121.084 1.35453C121.063 1.34838 121.042 1.34056 121.023 1.33107C120.873 1.25868 120.707 1.22081 120.539 1.22048Z" fill="black"/>
<path d="M144.677 89.68C144.418 89.6777 144.167 89.598 143.953 89.4522C142.818 88.6957 142.251 86.1869 141.683 83.2316C141.524 82.4056 141.343 81.4703 141.236 81.2868C140.968 80.8938 138.545 80.5121 137.097 80.2831C135.954 80.1031 134.773 79.916 133.905 79.6859C133.393 79.5503 132.835 79.1447 132.821 78.5717C132.81 78.1957 133.027 77.6728 134.123 77.3185C135.266 76.947 136.587 76.7716 137.868 76.603C138.53 76.5152 139.154 76.4321 139.75 76.325C140.252 76.2341 140.717 75.9989 141.088 75.6481C141.459 75.2972 141.722 74.8457 141.842 74.3483C142.075 73.3867 142.244 72.195 142.409 71.0444C142.811 68.2052 143.061 66.715 143.899 66.4291C143.977 66.4033 144.06 66.3946 144.142 66.4033C144.223 66.4122 144.303 66.4384 144.373 66.4803C144.955 66.8142 145.395 68.4627 146.355 72.939C146.61 74.1341 146.83 75.1652 146.962 75.5594C146.962 75.5662 147.094 75.8066 148.259 76.1028C149.071 76.3102 150.131 76.4833 151.157 76.652C154.314 77.1681 156.1 77.5144 156.1 78.6161C156.1 79.139 155.469 79.3327 154.644 79.5275C153.963 79.6916 153.055 79.8557 152.096 80.0313C150.608 80.3013 148.123 80.7536 147.753 81.0932C147.656 81.321 147.475 82.2951 147.315 83.1598C146.535 87.3752 145.981 89.426 144.944 89.6538C144.857 89.6709 144.767 89.68 144.677 89.68ZM133.734 78.5523C133.835 78.6822 133.98 78.7718 134.14 78.8052C134.964 79.024 136.121 79.2074 137.242 79.384C139.89 79.8021 141.537 80.0929 141.996 80.7844C142.192 81.0772 142.323 81.73 142.579 83.063C142.94 84.9428 143.543 88.0884 144.455 88.6957C144.497 88.7276 144.546 88.7504 144.597 88.7617C144.649 88.7731 144.702 88.7743 144.753 88.7629C144.765 88.7629 145.121 88.6102 145.618 86.7839C145.937 85.6116 146.205 84.1636 146.421 82.9981C146.677 81.6081 146.808 80.928 146.963 80.642C147.291 80.0405 148.728 79.7212 151.931 79.1379C152.996 78.9442 154.383 78.6924 155.005 78.4919C154.654 78.3144 154.283 78.1824 153.898 78.0989C153.089 77.8938 152.032 77.7206 151.01 77.5531C148.16 77.0872 146.398 76.7556 146.098 75.8442C145.951 75.3999 145.736 74.3962 145.465 73.1247C145.103 71.4329 144.466 68.4536 144.039 67.5C143.735 68.1403 143.482 69.9256 143.306 71.1663C143.139 72.3409 142.966 73.5588 142.724 74.5602C142.562 75.2292 142.21 75.8365 141.709 76.3083C141.21 76.7801 140.584 77.0962 139.909 77.2182C139.293 77.3321 138.629 77.4176 137.986 77.503C136.749 77.6671 135.47 77.8357 134.405 78.1866C133.879 78.3529 133.756 78.5147 133.734 78.5489V78.5523Z" fill="#1B5EC9"/>
<path d="M30.9412 133.038C35.0427 133.124 39.0633 130.859 41.3088 127.432C42.5791 125.486 43.3162 123.116 42.9767 120.826C42.6349 118.501 41.2302 116.45 39.5589 114.792C38.0618 113.309 36.2959 112.056 34.301 111.369C30.3135 109.998 25.5786 111.164 22.6916 114.224C20.0917 116.982 19.3501 120.799 20.0029 124.44C20.4905 127.157 22.858 129.707 25.0978 131.184C26.8329 132.336 28.8577 132.977 30.9412 133.038Z" fill="#1B5EC9"/>
<path d="M10.5078 125.451C9.24638 125.898 8.87484 127.75 9.86904 128.628C10.8632 129.506 12.8287 129.169 13.2805 127.938C13.714 126.757 12.7335 124.669 10.5078 125.451Z" fill="black"/>
<path d="M11.2896 129.6C10.6525 129.611 10.0335 129.391 9.55069 128.983C8.94217 128.443 8.68814 127.561 8.88675 126.684C9.07496 125.853 9.62459 125.224 10.3578 124.999C11.8023 124.492 12.6845 125.069 13.0829 125.46C13.7757 126.133 14.0436 127.244 13.7306 128.1C13.4789 128.79 12.8565 129.305 12.0252 129.51C11.7847 129.569 11.5377 129.598 11.2896 129.6ZM11.434 125.709C11.1698 125.714 10.9085 125.763 10.6615 125.855L10.6407 125.862C10.2227 125.988 9.90402 126.369 9.78855 126.882C9.66385 127.434 9.81396 127.996 10.1708 128.313C10.5576 128.653 11.1961 128.781 11.8 128.633C12.3277 128.503 12.7145 128.198 12.8612 127.797C13.0298 127.336 12.9143 126.577 12.4305 126.103C12.3002 125.974 12.1448 125.873 11.9734 125.805C11.8022 125.737 11.6186 125.705 11.434 125.709Z" fill="black"/>
<path d="M29.9591 143.12C26.4574 143.12 23.1183 142.29 20.5452 140.638C16.6583 138.141 13.6635 134.689 11.8849 130.649C10.1801 126.789 9.68569 122.656 10.4472 118.706C11.0063 115.806 12.2895 112.954 14.1579 110.461C15.7966 108.281 17.8206 106.417 20.1304 104.964C22.6569 103.365 25.3584 102.401 28.1713 102.101C30.5769 101.855 33.0071 102.06 35.3382 102.701C40.3753 104.049 43.6349 106.778 43.994 107.085C49.055 111.454 51.8588 117.83 51.3121 123.727C50.5893 131.535 46.5194 137.62 39.8639 140.86C36.7739 142.346 33.3886 143.118 29.9591 143.12ZM30.1034 102.896C26.7734 102.896 23.5956 103.843 20.6134 105.734C18.3981 107.13 16.4568 108.917 14.8853 111.01C13.0998 113.394 11.8735 116.118 11.3405 118.882C9.80048 126.865 13.6067 135.107 21.0362 139.878C23.4672 141.439 26.6302 142.222 29.9522 142.222C33.2467 142.219 36.4983 141.475 39.4661 140.047C45.825 136.951 49.7085 131.128 50.4017 123.647C50.9223 118.038 48.2367 111.954 43.3951 107.775C42.1631 106.713 39.0308 104.633 35.0984 103.575C33.4703 103.131 31.791 102.903 30.1034 102.896Z" fill="black"/>
<path d="M97.7911 160C92.468 160 86.9904 158.577 82.1255 155.817C81.1796 155.281 80.2488 154.692 79.3483 154.123C77.9351 153.231 76.4742 152.309 74.953 151.586C69.5628 149.027 63.079 148.922 57.6081 151.306C56.7099 151.697 55.8015 152.166 54.9216 152.62C52.4385 153.902 49.8702 155.228 47.0222 155.114C45.0759 155.03 43.22 154.272 41.7742 152.97C38.9319 154.615 35.8167 155.478 32.6788 155.478H32.6595C29.2669 155.478 26.1563 154.435 23.8984 152.553C22.1596 151.129 20.9706 149.147 20.5342 146.946C20.0613 144.54 20.4524 141.912 21.6962 139.134C21.748 139.029 21.8389 138.947 21.9496 138.907C22.0603 138.868 22.1823 138.871 22.2899 138.92C22.3974 138.967 22.4822 139.055 22.5262 139.163C22.5704 139.272 22.5702 139.395 22.5261 139.504C20.3046 144.466 21.0174 148.969 24.4816 151.862C28.1004 154.879 34.8015 155.865 41.1148 152.307C40.0108 151.026 39.0763 148.943 39.8642 146.978C40.2826 145.931 41.3228 145.101 42.5132 144.862C43.5182 144.659 44.4607 144.915 45.1008 145.563C45.4008 145.864 45.6282 146.231 45.766 146.633C45.9038 147.036 45.9485 147.464 45.8967 147.886C45.7261 149.628 44.3243 151.308 43.01 152.195C42.8705 152.29 42.73 152.383 42.5882 152.475C43.8451 153.528 45.4159 154.138 47.0563 154.209C49.6644 154.312 52.0144 153.099 54.5032 151.815C55.3945 151.354 56.3222 150.877 57.2432 150.475C62.9516 147.987 69.7175 148.093 75.3418 150.766C76.9142 151.512 78.3978 152.45 79.8338 153.357C80.7248 153.924 81.6525 154.503 82.5746 155.029C90.0203 159.251 98.9235 160.254 106.392 157.711C115.01 154.775 121.449 148.115 122.798 140.742C122.819 140.623 122.888 140.518 122.986 140.45C123.086 140.381 123.208 140.355 123.328 140.377C123.446 140.398 123.551 140.466 123.62 140.565C123.688 140.665 123.714 140.786 123.692 140.905C122.969 144.863 120.868 148.655 117.617 151.869C114.661 154.797 110.775 157.175 106.686 158.569C103.82 159.529 100.815 160.012 97.7911 160ZM43.1908 145.697C43.0262 145.697 42.862 145.714 42.7008 145.746C41.8038 145.927 41.025 146.54 40.7169 147.309C40.0563 148.959 40.9442 150.76 41.9175 151.829C42.113 151.707 42.3082 151.579 42.503 151.446C43.8502 150.531 44.8757 149.029 44.9962 147.793C45.0357 147.504 45.0079 147.209 44.9151 146.931C44.8222 146.655 44.6668 146.403 44.4608 146.195C44.2941 146.031 44.0955 145.902 43.8772 145.816C43.6589 145.729 43.4254 145.69 43.1908 145.697Z" fill="black"/>
<path d="M134.209 116.568C115.709 112.507 106.561 111.123 102.372 115.926C99.0067 119.783 99.0136 138.481 98.9806 144.791C98.9555 149.404 103.618 151.912 106.272 147.994C110.964 141.064 110.821 132.801 116.333 133.486C122.484 134.251 130.35 136.344 135.728 139.772C136.035 139.967 136.283 140.242 136.446 140.565C136.61 140.889 136.684 141.251 136.659 141.613C136.443 144.903 135.233 151.232 135.233 155.164C135.233 168.026 158.142 139.889 157.106 131.69C156.349 125.688 150.047 120.044 134.209 116.568Z" fill="#1B5EC9"/>
<path d="M108.294 129.422C114.337 131.932 120.474 122.389 112.362 120.644C105.871 119.251 103 127.103 108.294 129.422Z" fill="black"/>
<path d="M110.373 130.32C109.596 130.319 108.826 130.164 108.108 129.865H108.1C105.248 128.627 104.642 125.999 105.305 123.942C106.063 121.593 108.626 119.438 112.466 120.257C115.368 120.876 116.328 122.361 116.622 123.498C117.06 125.192 116.261 127.226 114.585 128.677C113.337 129.758 111.857 130.32 110.373 130.32ZM108.464 129.028C110.301 129.784 112.367 129.395 113.99 127.99C115.407 126.762 116.095 125.088 115.741 123.724C115.413 122.451 114.215 121.564 112.278 121.145C108.993 120.445 106.813 122.247 106.178 124.216C105.676 125.762 105.977 127.948 108.464 129.028Z" fill="black"/>
<path d="M142.682 133.204C141.576 135.676 142.328 138.913 144.628 140.322C146.928 141.731 150.277 140.995 151.769 138.739C153.262 136.483 152.626 133.071 150.412 131.528C148.198 129.985 144.305 129.585 142.682 133.204Z" fill="black"/>
<path d="M147.255 141.52C146.238 141.529 145.238 141.257 144.364 140.734C143.164 140 142.245 138.737 141.843 137.266C141.442 135.794 141.585 134.246 142.233 132.998C142.906 131.511 144.01 130.511 145.431 130.114C147.417 129.561 149.443 130.28 150.677 131.143C153.118 132.842 153.811 136.517 152.157 139.011C151.093 140.618 149.167 141.52 147.255 141.52ZM146.863 130.84C146.462 130.838 146.063 130.89 145.675 130.996C144.503 131.323 143.627 132.126 143.058 133.386C143.055 133.394 143.051 133.402 143.047 133.41C141.898 135.61 142.735 138.67 144.838 139.952C146.964 141.251 150.031 140.573 151.403 138.5C152.775 136.427 152.174 133.293 150.16 131.891C149.189 131.219 148.041 130.853 146.863 130.84Z" fill="black"/>
<path d="M129.716 120.894C129.512 121.508 129.272 122.19 129.044 122.779C128.999 122.897 128.977 123.024 128.981 123.15C128.984 123.277 129.014 123.402 129.068 123.516C129.121 123.631 129.196 123.732 129.29 123.813C129.382 123.895 129.491 123.954 129.607 123.989C130.622 124.289 131.555 124.833 132.246 124.57C132.962 124.296 133.134 122.568 133.641 121.212C133.684 121.095 133.704 120.971 133.7 120.846C133.694 120.722 133.665 120.6 133.613 120.488C133.561 120.377 133.487 120.277 133.397 120.196C133.306 120.115 133.2 120.056 133.086 120.02L131.34 119.596C130.391 119.296 130.042 119.914 129.716 120.894Z" fill="#FF5400"/>
<path d="M121.689 122.351C121.508 122.884 121.301 123.56 121.155 124.201C121.001 124.874 120.962 125.339 121.62 125.516C121.961 125.607 122.733 125.904 123.076 125.975C123.722 126.114 124.17 126.319 124.546 125.076L125.064 123.261C125.56 122.027 124.787 121.751 124.026 121.642L122.689 121.288C122.091 121.204 121.885 121.773 121.689 122.351Z" fill="#FF5400"/>
<path d="M134.441 125.748C134.179 126.39 133.954 127.241 133.505 128.068C132.976 129.042 133.595 129.108 134.002 129.242L135.946 129.884C136.111 129.938 136.29 129.931 136.451 129.863C136.61 129.796 136.741 129.672 136.817 129.515C137.133 128.862 137.539 127.76 137.88 126.969C137.919 126.879 137.941 126.781 137.941 126.682C137.942 126.583 137.923 126.485 137.885 126.394C137.846 126.302 137.79 126.221 137.719 126.152C137.648 126.084 137.564 126.03 137.472 125.996C136.843 125.76 136.065 125.495 135.528 125.316C135.169 125.194 134.586 125.395 134.441 125.748Z" fill="#FF5400"/>
<path d="M126.05 129.939C125.901 130.409 125.736 130.913 125.581 131.35C125.548 131.438 125.535 131.532 125.54 131.625C125.545 131.719 125.569 131.811 125.612 131.895C125.653 131.978 125.713 132.052 125.784 132.112C125.856 132.172 125.939 132.215 126.028 132.241C126.94 132.511 127.84 132.724 128.311 132.847C129.24 133.091 129.29 131.97 129.905 129.93C129.934 129.84 129.944 129.746 129.937 129.652C129.928 129.558 129.901 129.468 129.857 129.385C129.812 129.302 129.752 129.23 129.679 129.171C129.606 129.113 129.522 129.07 129.432 129.046L127.482 128.528C126.557 128.283 126.341 129.014 126.05 129.939Z" fill="#FF5400"/>
<path d="M107.117 126C106.996 126 106.88 125.952 106.794 125.866C106.708 125.78 106.66 125.663 106.66 125.542C106.66 122.992 108.474 121.6 109.403 121.6C109.524 121.6 109.641 121.648 109.726 121.734C109.812 121.82 109.86 121.937 109.86 122.058C109.86 122.18 109.812 122.297 109.726 122.383C109.641 122.469 109.524 122.517 109.403 122.517C109.027 122.517 107.574 123.455 107.574 125.542C107.574 125.663 107.526 125.78 107.441 125.866C107.355 125.952 107.238 126 107.117 126Z" fill="white"/>
<path d="M144.713 135.68C144.679 135.68 144.646 135.677 144.612 135.67C144.495 135.643 144.394 135.571 144.33 135.471C144.265 135.369 144.245 135.248 144.271 135.132C144.366 134.716 144.544 134.323 144.793 133.976C145.043 133.628 145.36 133.332 145.725 133.107C145.776 133.076 145.833 133.055 145.892 133.045C145.951 133.036 146.012 133.039 146.07 133.052C146.128 133.066 146.182 133.09 146.231 133.125C146.279 133.159 146.321 133.203 146.352 133.253C146.384 133.304 146.404 133.359 146.414 133.418C146.423 133.476 146.421 133.536 146.407 133.593C146.394 133.651 146.369 133.706 146.335 133.753C146.299 133.801 146.255 133.842 146.204 133.873C145.676 134.202 145.3 134.724 145.158 135.326C145.136 135.426 145.08 135.516 144.999 135.58C144.918 135.645 144.818 135.68 144.713 135.68Z" fill="white"/>
<path d="M102.639 120.64C102.611 120.64 102.584 120.638 102.557 120.633C102.498 120.622 102.441 120.6 102.39 120.568C102.34 120.535 102.295 120.493 102.261 120.444C102.227 120.395 102.203 120.339 102.19 120.281C102.177 120.223 102.176 120.162 102.187 120.104C102.482 118.469 103.759 116.871 105.362 116.126C105.417 116.1 105.477 116.084 105.537 116.081C105.598 116.077 105.659 116.086 105.716 116.107C105.773 116.127 105.825 116.158 105.87 116.199C105.915 116.24 105.952 116.289 105.977 116.344C106.002 116.398 106.017 116.458 106.019 116.518C106.022 116.578 106.012 116.639 105.991 116.695C105.97 116.752 105.938 116.804 105.896 116.847C105.854 116.892 105.805 116.927 105.749 116.952C104.424 117.567 103.329 118.929 103.089 120.265C103.071 120.37 103.015 120.465 102.932 120.533C102.851 120.602 102.747 120.64 102.639 120.64Z" fill="white"/>
<path d="M101.368 139.117C101.255 139.117 101.147 139.07 101.066 138.987C100.985 138.904 100.938 138.792 100.935 138.674C100.848 134.815 100.925 129.019 101.158 127.038C101.165 126.979 101.184 126.921 101.212 126.87C101.24 126.817 101.277 126.772 101.322 126.736C101.367 126.699 101.418 126.672 101.474 126.656C101.528 126.64 101.585 126.636 101.641 126.644C101.698 126.651 101.753 126.67 101.801 126.699C101.851 126.729 101.894 126.769 101.929 126.815C101.965 126.863 101.99 126.916 102.005 126.974C102.02 127.032 102.024 127.092 102.017 127.151C101.788 129.096 101.715 134.829 101.8 138.656C101.804 138.776 101.76 138.892 101.681 138.979C101.602 139.067 101.493 139.117 101.378 139.12L101.368 139.117Z" fill="white"/>
<path d="M100.78 144.8C100.663 144.8 100.551 144.753 100.469 144.67C100.386 144.587 100.34 144.473 100.34 144.355V142.445C100.34 142.327 100.386 142.213 100.469 142.13C100.551 142.047 100.663 142 100.78 142C100.896 142 101.009 142.047 101.091 142.13C101.174 142.213 101.22 142.327 101.22 142.445V144.355C101.22 144.473 101.174 144.587 101.091 144.67C101.009 144.753 100.896 144.8 100.78 144.8Z" fill="white"/>
<path d="M125.191 101.679C124.878 101.677 124.568 101.619 124.275 101.508C123.352 101.16 122.749 100.375 122.74 99.5172C122.74 98.9393 123.01 98.3137 123.477 97.8446C123.877 97.4434 124.363 97.2122 124.812 97.2077C125.655 97.1306 126.486 97.6394 126.931 98.512C127.377 99.3846 127.304 100.378 126.734 101.021C126.539 101.235 126.3 101.404 126.033 101.517C125.767 101.631 125.481 101.686 125.191 101.679ZM124.824 98.1143C124.615 98.1143 124.345 98.2559 124.115 98.486C123.821 98.7818 123.639 99.1739 123.643 99.5059C123.65 100.094 124.158 100.493 124.592 100.657C125.025 100.822 125.67 100.856 126.058 100.416C126.446 99.9762 126.339 99.337 126.127 98.9234C125.915 98.5098 125.463 98.0474 124.886 98.1097C124.869 98.1109 124.851 98.1109 124.833 98.1097L124.824 98.1143Z" fill="black"/>
<path d="M7.18244 75.8267C8.52238 75.0002 8.2623 72.8031 7.24916 71.7952C5.26696 69.8248 3.11062 71.4721 2.4921 72.6693C1.2856 75.0002 3.72688 77.9558 7.18244 75.8267Z" fill="#1B5EC9"/>
<path d="M26.5703 7.68364C26.1497 10.133 22.452 10.2218 19.4931 10.7239C16.9026 11.1635 18.0779 11.9298 19.2465 12.4024C21.5881 13.3509 24.2321 13.5775 25.3847 14.8756C28.3981 18.2552 27.2307 23.04 28.3731 23.04C29.6735 23.04 29.9042 18.1311 32.1879 14.9428C33.4746 13.1482 35.5366 12.9558 38.4989 11.9025C39.1491 11.6747 40.4733 10.8936 38.4989 10.5178C32.6642 9.41103 31.3274 9.80502 30.8181 7.48892C28.7971 -1.68777 28.464 -3.34342 26.5703 7.68364Z" fill="#FF5400"/>
<path d="M4.49261 31.4987C3.96214 32.9753 4.33727 34.4954 5.62605 35.432C6.76524 36.2603 9.12533 35.7674 10.0631 34.4954C11.001 33.2234 10.8123 31.292 9.64429 30.2156C8.092 28.7871 5.12895 29.7294 4.49261 31.4987Z" fill="black"/>
<path d="M7.02306 36.32C6.3441 36.32 5.74549 36.1475 5.3053 35.8206C3.91683 34.7845 3.43024 33.0698 4.03451 31.3427C4.39889 30.3021 5.41506 29.4656 6.68811 29.1579C7.90344 28.8648 9.05201 29.1241 9.8396 29.8704C11.1523 31.1105 11.3616 33.3122 10.3081 34.7766C9.75812 35.5421 8.76798 36.1001 7.66128 36.2704C7.45012 36.3033 7.2367 36.3199 7.02306 36.32ZM4.88887 31.6403C4.41247 33.0022 4.77571 34.2952 5.84846 35.0979C6.22868 35.382 6.83974 35.4846 7.52209 35.3798C8.38097 35.2467 9.1663 34.8161 9.57254 34.2524C10.3647 33.1589 10.1961 31.452 9.21722 30.5254C8.65142 29.9944 7.81178 29.8163 6.90198 30.0361C5.93899 30.2683 5.14914 30.8985 4.88887 31.6414V31.6403Z" fill="black"/>
<path d="M88.7195 121.04C87.3888 121.04 86.001 120.827 85.2649 119.64C84.9727 119.169 84.8529 118.627 84.7467 118.148C84.0825 115.16 83.4057 112.555 82.7518 110.034C82.0978 107.514 81.4188 104.893 80.7511 101.89C80.7249 101.771 80.7465 101.648 80.8116 101.546C80.8767 101.444 80.9794 101.371 81.0981 101.345C81.2156 101.319 81.34 101.341 81.4416 101.405C81.5443 101.47 81.6162 101.573 81.6424 101.691C82.3067 104.68 82.9823 107.286 83.6363 109.806C84.2902 112.327 84.9704 114.947 85.6381 117.951C85.7328 118.378 85.8309 118.821 86.0421 119.161C86.5967 120.057 87.8122 120.154 89.0413 120.124C90.3858 120.092 91.3844 119.911 91.8945 119.125C92.3887 118.36 92.2255 117.226 92.0338 116.224C91.2349 112.083 90.1438 108.623 88.982 104.959C88.4422 103.251 87.8841 101.493 87.3374 99.6059C87.3089 99.4909 87.326 99.3702 87.3854 99.2677C87.4447 99.1663 87.5406 99.0911 87.6536 99.0581C87.7677 99.0251 87.8887 99.0376 87.9937 99.0923C88.0987 99.1481 88.1774 99.2415 88.2139 99.3531C88.7583 101.234 89.3141 102.99 89.8528 104.688C91.0226 108.378 92.1274 111.863 92.9343 116.057C93.1625 117.232 93.3428 118.574 92.6649 119.623C91.898 120.812 90.4839 121.007 89.0699 121.04C88.95 121.034 88.8348 121.04 88.7195 121.04Z" fill="black"/>
<path d="M88.4972 129.12C83.6781 129.12 79.913 126.028 78.9221 122.559C78.9034 122.501 78.8967 122.44 78.9023 122.378C78.9078 122.318 78.9255 122.259 78.9543 122.205C78.9832 122.152 79.0226 122.104 79.0701 122.066C79.1177 122.028 79.1725 122 79.2312 121.983C79.2899 121.965 79.3514 121.961 79.4121 121.969C79.4727 121.976 79.5311 121.996 79.584 122.026C79.6369 122.056 79.6831 122.097 79.7199 122.146C79.7566 122.195 79.7832 122.251 79.798 122.31C80.3299 124.17 81.7453 125.863 83.6827 126.956C85.8149 128.158 88.3787 128.507 90.9027 127.937C96.2969 126.718 98.6033 122.424 98.4621 118.954C98.4575 118.834 98.5008 118.716 98.5828 118.627C98.6648 118.538 98.7787 118.486 98.8994 118.48C99.0202 118.476 99.1375 118.519 99.2263 118.601C99.3163 118.683 99.3687 118.796 99.3733 118.917C99.4598 121.04 98.7571 123.182 97.3937 124.95C95.8925 126.898 93.7171 128.24 91.1043 128.83C90.2489 129.022 89.3742 129.12 88.4972 129.12Z" fill="white"/>
<path d="M124.841 142.319C124.742 142.319 124.643 142.319 124.545 142.307C123.562 142.243 122.59 142.07 121.645 141.793C121.26 141.68 120.87 141.526 120.626 141.189C120.261 140.675 120.469 140.071 120.582 139.747C120.858 138.945 121.215 137.962 121.559 137.011C121.903 136.061 122.257 135.085 122.531 134.289C122.574 134.18 122.657 134.092 122.764 134.042C122.87 133.993 122.991 133.987 123.102 134.024C123.212 134.063 123.305 134.142 123.358 134.247C123.411 134.35 123.421 134.471 123.387 134.583C123.111 135.386 122.755 136.368 122.41 137.319C122.066 138.269 121.712 139.246 121.438 140.04C121.35 140.294 121.281 140.547 121.365 140.666C121.449 140.784 121.766 140.892 121.898 140.927C122.779 141.185 123.685 141.347 124.601 141.407C124.846 141.422 125.094 141.426 125.245 141.344C125.395 141.263 125.471 141.094 125.584 140.873C126.037 139.928 126.556 138.489 126.97 137.333C127.235 136.594 127.464 135.955 127.63 135.569C127.678 135.458 127.769 135.372 127.879 135.328C127.992 135.283 128.116 135.285 128.227 135.333C128.337 135.381 128.424 135.47 128.468 135.581C128.512 135.693 128.51 135.817 128.463 135.928C128.306 136.287 128.082 136.912 127.823 137.637C127.402 138.812 126.877 140.276 126.401 141.264C126.276 141.524 126.087 141.916 125.679 142.137C125.42 142.267 125.132 142.33 124.841 142.319Z" fill="black"/>
<path d="M13.1654 106.941C11.835 108.951 13.2892 112.122 15.6935 112.452C18.0977 112.782 20.369 110.124 19.6425 107.83C18.9159 105.537 15.517 104.641 13.735 106.273L13.1654 106.941Z" fill="#FACBDF"/>
<path d="M29.8937 114.957C29.4509 114.957 29.0657 114.642 28.8975 114.168C28.7293 113.694 28.8422 113.199 29.1764 112.909C29.2661 112.83 29.3823 112.792 29.4993 112.801C29.6164 112.812 29.7248 112.87 29.8007 112.963C29.8765 113.055 29.9137 113.176 29.904 113.296C29.8942 113.417 29.8383 113.529 29.7487 113.608C29.6944 113.655 29.6989 113.771 29.7299 113.861C29.7609 113.952 29.8306 114.044 29.9003 114.044C30.0178 114.044 30.1301 114.094 30.2126 114.181C30.295 114.266 30.3411 114.383 30.3403 114.504C30.3395 114.626 30.2922 114.743 30.2087 114.827C30.1251 114.913 30.0122 114.96 29.8948 114.96L29.8937 114.957Z" fill="white"/>
<path d="M24.9144 123.68C24.5116 123.689 24.1156 123.572 23.78 123.347C23.4445 123.121 23.1853 122.797 23.0375 122.418C22.8898 122.038 22.8607 121.622 22.9538 121.226C23.0471 120.829 23.2583 120.471 23.5591 120.2C23.6491 120.118 23.7675 120.075 23.8885 120.081C24.0095 120.087 24.123 120.142 24.2042 120.233C24.2854 120.324 24.3274 120.443 24.3212 120.566C24.3151 120.688 24.261 120.804 24.1711 120.886C23.9765 121.063 23.8531 121.306 23.824 121.569C23.795 121.832 23.8625 122.097 24.0136 122.313C24.1648 122.529 24.389 122.681 24.6439 122.741C24.8988 122.801 25.1665 122.764 25.3962 122.637C25.449 122.603 25.5081 122.58 25.57 122.569C25.632 122.559 25.6952 122.562 25.7561 122.577C25.8169 122.593 25.8739 122.621 25.9235 122.66C25.973 122.7 26.0142 122.748 26.0443 122.804C26.0744 122.859 26.0929 122.92 26.0985 122.984C26.1042 123.048 26.0969 123.111 26.077 123.171C26.0573 123.231 26.0254 123.287 25.9835 123.334C25.9416 123.381 25.8906 123.42 25.8335 123.446C25.5513 123.601 25.2352 123.681 24.9144 123.68Z" fill="white"/>
<path d="M38.2578 123.834C38.2467 123.992 38.2017 124.146 38.1256 124.288C38.0369 124.441 37.9064 124.568 37.7475 124.658C37.5887 124.748 37.4071 124.797 37.2216 124.799C37.0709 124.805 36.9216 124.771 36.7904 124.701C36.659 124.631 36.5509 124.529 36.4781 124.405C36.4219 124.309 36.4056 124.197 36.4327 124.09C36.4596 123.984 36.5277 123.889 36.6239 123.827C36.72 123.765 36.8375 123.739 36.9532 123.753C37.0691 123.768 37.1752 123.821 37.2511 123.905C37.2646 123.899 37.2767 123.892 37.2865 123.882C37.3585 123.75 37.3019 123.509 37.237 123.274C37.2057 123.16 37.2239 123.039 37.2875 122.937C37.3511 122.837 37.4549 122.764 37.5763 122.734C37.6976 122.705 37.8263 122.722 37.9342 122.781C38.0421 122.841 38.1203 122.939 38.1516 123.053C38.2335 123.305 38.2694 123.57 38.2578 123.834Z" fill="white"/>
<path d="M30.5495 131.2C30.2643 131.2 29.9811 131.152 29.7114 131.061C29.4663 130.977 29.2408 130.845 29.049 130.672C28.8573 130.499 28.7033 130.288 28.5966 130.054C28.5289 129.898 28.4961 129.73 28.5004 129.56C28.5047 129.391 28.5462 129.224 28.6217 129.072C28.676 128.965 28.7711 128.883 28.8858 128.846C29.0006 128.807 29.1258 128.818 29.2337 128.871C29.3417 128.925 29.4237 129.019 29.4616 129.134C29.4994 129.248 29.4902 129.373 29.4359 129.48C29.4187 129.515 29.4097 129.554 29.4097 129.594C29.4097 129.632 29.4187 129.672 29.4359 129.707C29.5531 129.939 29.7578 130.116 30.0052 130.198C30.6019 130.402 31.2897 130.246 31.6769 129.82C32.0641 129.394 32.1016 128.687 31.7577 128.274C31.7172 128.229 31.6863 128.175 31.6669 128.118C31.6474 128.06 31.6398 128 31.6444 127.939C31.6491 127.879 31.6658 127.82 31.6938 127.765C31.7219 127.711 31.7606 127.663 31.8075 127.625C31.8544 127.586 31.9087 127.557 31.9671 127.539C32.0257 127.522 32.0871 127.516 32.1477 127.523C32.2084 127.53 32.2671 127.548 32.3205 127.577C32.3738 127.607 32.4206 127.647 32.4581 127.695C33.0866 128.447 33.0388 129.673 32.3521 130.427C32.1222 130.673 31.8431 130.869 31.5327 131.003C31.2224 131.135 30.8875 131.203 30.5495 131.2Z" fill="white"/>
<path d="M34.1541 117.84H33.7274C33.6143 117.84 33.5058 117.79 33.4257 117.7C33.3457 117.61 33.3008 117.487 33.3008 117.36C33.3008 117.233 33.3457 117.11 33.4257 117.02C33.5058 116.93 33.6143 116.88 33.7274 116.88H34.1541C34.2673 116.88 34.3758 116.93 34.4558 117.02C34.5358 117.11 34.5808 117.233 34.5808 117.36C34.5808 117.487 34.5358 117.61 34.4558 117.7C34.3758 117.79 34.2673 117.84 34.1541 117.84Z" fill="white"/>
<path d="M106.439 39.0366C106.327 39.0374 106.219 38.9974 106.135 38.924C106.052 38.8505 105.998 38.749 105.984 38.6386C105.57 35.2868 104.426 29.1491 101.41 25.7123C99.168 23.1532 97.6983 22.5023 96.4937 23.5376C95.6496 24.2621 95.3857 26.8519 95.5837 28.2466C95.6428 28.7438 95.6747 29.2437 95.6792 29.7444C95.7031 30.6459 95.7247 31.4985 96.0489 32.2061C96.0682 32.2446 96.0864 32.2821 96.1046 32.3195C96.1536 32.4267 96.1592 32.5489 96.1194 32.6599C96.0796 32.771 95.9989 32.8623 95.8919 32.9144C95.7861 32.9666 95.6644 32.9757 95.5518 32.9395C95.4392 32.9033 95.3448 32.825 95.289 32.7209C95.2674 32.6789 95.247 32.6358 95.2265 32.5939C90.0895 22.0907 77.8775 18.3807 68.6728 19.3841C68.5545 19.394 68.437 19.3575 68.3454 19.2822C68.2538 19.207 68.1953 19.0991 68.1824 18.9815C68.1694 18.8639 68.2032 18.7459 68.2763 18.6527C68.3494 18.5596 68.4562 18.4985 68.5738 18.4827C77.3964 17.52 88.8997 20.7652 94.7738 29.9349C94.7738 29.8794 94.7738 29.8215 94.7738 29.7671C94.7715 29.2992 94.7431 28.8317 94.6896 28.3668C94.4939 26.9744 94.6509 23.9253 95.9079 22.8448C98.3114 20.7799 101.068 23.9253 102.105 25.1125C105.28 28.7409 106.47 35.0759 106.896 38.5309C106.904 38.5949 106.898 38.6599 106.879 38.7215C106.86 38.7832 106.828 38.84 106.785 38.8882C106.742 38.9364 106.689 38.9748 106.63 39.001C106.571 39.0272 106.506 39.0404 106.441 39.04L106.439 39.0366Z" fill="black"/>
<path d="M69.9594 31.36C69.9027 31.3601 69.8464 31.3494 69.7938 31.3283C63.3376 28.7938 53.2088 26.4106 41.611 29.4548C41.4963 29.4798 41.3765 29.4594 41.2765 29.3982C41.1766 29.337 41.1043 29.2395 41.075 29.1263C41.0456 29.0131 41.0615 28.8931 41.1191 28.7912C41.1767 28.6894 41.2718 28.6138 41.3842 28.5802C53.219 25.475 63.5486 27.9022 70.1307 30.4865C70.2296 30.5247 70.3121 30.5962 70.3635 30.6887C70.415 30.7811 70.4324 30.8887 70.4125 30.9925C70.3927 31.0964 70.337 31.19 70.255 31.2572C70.1731 31.3243 70.0701 31.3607 69.964 31.36H69.9594Z" fill="black"/>
<path d="M32.5574 32.5599C32.4569 32.5612 32.3588 32.5292 32.2786 32.4693C32.1985 32.4093 32.1409 32.3248 32.1149 32.2292C32.089 32.1334 32.0961 32.0318 32.1353 31.9405C32.1744 31.8492 32.2433 31.7734 32.3311 31.7249C32.4805 31.6424 32.6412 31.5477 32.8143 31.4462C33.8496 30.8409 35.2663 30.0103 37.4659 29.6112C37.5254 29.5978 37.5871 29.5964 37.6472 29.607C37.7073 29.6177 37.7646 29.6402 37.8156 29.6733C37.8667 29.7063 37.9104 29.7492 37.9442 29.7993C37.9779 29.8495 38.001 29.9059 38.0121 29.9649C38.0232 30.0241 38.022 30.0849 38.0086 30.1437C37.9952 30.2024 37.9699 30.2578 37.9342 30.3066C37.8985 30.3555 37.8531 30.3966 37.8008 30.4277C37.7485 30.4588 37.6904 30.4791 37.63 30.4875C35.5933 30.8587 34.2536 31.6413 33.2771 32.2132C33.0972 32.318 32.9308 32.4161 32.7747 32.5031C32.7082 32.5394 32.6335 32.5589 32.5574 32.5599Z" fill="black"/>
<path d="M27.7197 53.2C27.6035 53.2002 27.4918 53.1564 27.4071 53.0774C27.3225 52.9985 27.2715 52.8904 27.2646 52.7753C27.1121 50.2484 30.2045 47.7655 33.595 45.686C30.7358 46.0644 27.1497 46.1084 25.2451 45.9119C24.1916 45.8046 22.7068 45.5256 21.9946 44.3406C21.5395 43.5725 21.494 42.5886 21.8808 41.3303C22.2594 40.078 22.8669 38.9056 23.6727 37.8715C23.7081 37.8216 23.7533 37.7795 23.8055 37.7474C23.8577 37.7153 23.916 37.6942 23.9766 37.6851C24.0374 37.6759 24.0993 37.6792 24.1588 37.6944C24.2182 37.7097 24.2739 37.7368 24.3225 37.774C24.3712 37.8112 24.4117 37.8578 24.4417 37.911C24.4718 37.9642 24.4905 38.0228 24.4971 38.0835C24.5037 38.144 24.4979 38.2054 24.48 38.2636C24.4621 38.3219 24.4324 38.376 24.3929 38.4227C23.6561 39.3687 23.1 40.4407 22.7523 41.5855C22.4497 42.5875 22.4588 43.3353 22.7819 43.873C23.1642 44.5089 23.9788 44.8704 25.3441 45.0082C27.9029 45.268 33.5358 45.0692 36.0661 44.2604C36.1735 44.2265 36.2898 44.2334 36.3923 44.2797C36.4949 44.326 36.5765 44.4085 36.6215 44.5111C36.6664 44.6138 36.6713 44.7292 36.6353 44.8353C36.5994 44.9413 36.5251 45.0303 36.4268 45.085C34.3436 46.2428 28.0007 49.7649 28.1793 52.7143C28.1828 52.7736 28.1745 52.833 28.155 52.889C28.1354 52.9452 28.1049 52.9969 28.0652 53.0413C28.0254 53.0856 27.9773 53.1218 27.9234 53.1477C27.8696 53.1736 27.8113 53.1887 27.7515 53.1921L27.7197 53.2Z" fill="black"/>
<path d="M105.846 46.32C105.814 46.3199 105.78 46.3165 105.747 46.3099C105.628 46.2851 105.522 46.2154 105.455 46.1162C105.389 46.017 105.365 45.8963 105.391 45.7808L105.739 44.2057C105.751 44.147 105.774 44.0911 105.808 44.0412C105.843 43.9913 105.887 43.9485 105.938 43.9153C105.99 43.8821 106.048 43.8592 106.109 43.8479C106.17 43.8367 106.233 43.8374 106.293 43.8498C106.355 43.8622 106.412 43.8863 106.463 43.9205C106.514 43.9547 106.557 43.9983 106.59 44.0489C106.623 44.0995 106.645 44.1558 106.655 44.2148C106.665 44.2736 106.662 44.3338 106.647 44.3918L106.299 45.968C106.277 46.0674 106.22 46.1566 106.138 46.2206C106.055 46.2847 105.953 46.3196 105.846 46.32Z" fill="black"/>
</svg>
