<svg width="161" height="160" viewBox="0 0 161 160" fill="none" xmlns="http://www.w3.org/2000/svg">
<path d="M44.5827 41.4103C48.3324 50.7228 54.5648 59.3917 63.4082 64.1398C65.7543 65.4012 68.31 66.4152 70.1815 68.3093C73.777 71.9489 73.8581 77.6772 73.7094 82.7916C73.6769 83.9056 73.631 85.0737 73.0685 86.0364C72.4316 87.1288 71.2457 87.7655 70.1044 88.3131C64.4346 91.0319 58.3118 92.9504 53.2734 96.7116C45.5131 102.498 41.3104 111.943 39.0833 121.362C37.3957 128.493 37.055 138.025 37.2848 145.349C37.3322 146.857 37.4566 148.467 38.3855 149.654C39.6269 151.241 41.8648 151.56 43.8742 151.729C70.1964 153.937 91.6077 153.385 115.488 150.999C116.805 150.864 118.173 150.715 119.297 150.017C121.558 148.613 121.907 142.495 122.096 139.841C122.768 130.407 122.396 120.927 120.986 111.574C120.28 106.899 119.228 102.079 116.333 98.3448C111.657 92.3271 103.487 90.5979 96.1606 88.5064C94.3919 88.0008 92.5935 87.433 91.1317 86.3162C87.5281 83.5649 86.9696 78.4505 86.7086 73.9241C86.6261 72.5018 86.5572 71.0106 87.167 69.7235C87.9486 68.0714 89.6605 67.1115 91.202 66.1286C99.7642 60.672 105.561 51.6354 108.938 42.0633C112.314 32.4913 113.499 22.3028 114.57 12.2076C114.705 10.8975 114.777 9.38597 113.826 8.47473C113.048 7.72844 111.861 7.66355 110.785 7.64327L86.5369 7.16737C80.7995 7.05516 75.0603 6.94429 69.3201 6.96187C63.5502 6.97944 57.7776 7.12681 52.0199 7.53781C49.1437 7.74196 46.273 8.01236 43.4117 8.36522C41.7674 8.56802 38.0029 8.50989 37.3268 10.5162C37.105 11.1841 37.3565 11.9331 37.5566 12.5739C37.842 13.4933 38.1584 14.3924 38.3206 15.3441C38.7885 18.0833 39.1698 20.8332 39.6728 23.5655C40.6748 28.9843 41.9513 34.3706 43.8579 39.5473C44.0923 40.171 44.3339 40.7919 44.5827 41.4103Z" fill="#1B5EC9"/>
<path d="M114.567 135.86C113.083 133.86 109.894 134.055 108.11 132.317C107.358 131.584 106.937 130.583 106.588 129.592C105.889 127.616 105.373 125.531 104.152 123.823C102.931 122.115 100.739 120.889 98.7544 121.544C97.7518 121.875 96.911 122.645 95.8706 122.828C94.258 123.114 92.7426 121.881 91.8628 120.501C90.983 119.122 90.4756 117.498 89.45 116.215C88.4244 114.932 86.5797 114.049 85.1426 114.84C84.7377 115.06 84.391 115.399 83.9443 115.489C82.7217 115.738 82.0227 114.136 81.8742 112.899C81.2697 107.852 81.7865 102.747 82.1077 97.6792C82.6299 89.4225 82.6299 81.1415 82.1077 72.885C81.9255 70.0182 81.7164 66.9753 83.0604 64.4373C83.4247 63.7654 83.8714 63.1408 84.3882 62.5776C85.5798 61.2714 87.0305 60.2274 88.6457 59.5119C92.8776 57.6007 96.5791 54.5457 99.0634 50.611C99.6733 49.6459 100.228 48.4803 99.8596 47.3989C99.6612 46.8168 99.2213 46.3566 98.7935 45.9099C96.4698 43.5115 94.1447 41.1126 91.821 38.7133C90.9452 37.8104 89.9129 36.8399 88.6579 36.8832C87.2045 36.9333 86.0804 38.3424 84.6298 38.452C82.8985 38.5874 81.661 36.9076 80.3801 35.7354C78.5193 34.034 75.7178 33.1921 73.4035 34.1843C69.6926 35.7747 68.5172 41.2118 64.6065 42.2134C63.5405 42.4841 62.4097 42.3719 61.3301 42.5925C60.1777 42.828 59.1508 43.4358 58.2264 44.1451C57.3385 44.8286 56.2157 45.6434 55.6462 46.6261C54.5559 48.5116 56.7002 50.6257 57.8269 51.9495C60.8286 55.4787 64.6411 58.2228 68.9355 59.9449C70.5025 60.5684 72.1257 61.0394 73.7827 61.3513C74.4645 61.4765 75.1144 61.7374 75.6939 62.119C76.2734 62.5006 76.7707 62.9947 77.1563 63.5726L77.1698 63.5942C77.8893 64.6906 78.4594 65.8787 78.8647 67.1269C79.8862 70.2305 80.0252 73.5454 80.1183 76.8129C80.4494 88.5305 80.2757 100.25 79.5975 111.967C79.5057 113.555 79.391 115.194 78.661 116.606C77.9727 117.938 76.792 118.949 75.5411 119.769C69.6561 123.628 61.9967 123.857 56.0066 127.549C50.6371 130.859 47.0814 136.954 46.8304 143.271C46.8142 143.663 46.6495 145.189 48.5927 145.189C50.5575 145.189 58.0037 144.187 63.002 144.918C69.2729 145.843 75.649 145.629 81.9835 145.414L94.5333 144.986C99.0121 144.833 103.51 144.679 107.921 143.88C109.976 143.508 112.104 142.946 113.628 141.511C115.151 140.076 115.814 137.54 114.567 135.86Z" fill="#FACBDF"/>
<path d="M55.045 139.2C54.9019 139.2 54.7646 139.143 54.6626 139.041C54.5607 138.939 54.5023 138.801 54.5002 138.656C54.4922 138.094 54.6872 137.549 55.0484 137.122C55.4098 136.695 55.9123 136.418 56.4616 136.342C57.0108 136.265 57.5688 136.394 58.0303 136.705C58.4919 137.017 58.8252 137.489 58.9675 138.032C58.9975 138.171 58.9731 138.318 58.8991 138.439C58.8253 138.561 58.7079 138.649 58.5714 138.685C58.4351 138.721 58.2903 138.702 58.1676 138.631C58.0448 138.561 57.9537 138.445 57.9133 138.308C57.8394 138.025 57.666 137.779 57.4259 137.618C57.1856 137.455 56.8951 137.387 56.6093 137.427C56.3232 137.467 56.0616 137.612 55.8736 137.834C55.6856 138.055 55.5841 138.34 55.5885 138.633C55.5897 138.706 55.5769 138.777 55.5506 138.845C55.5244 138.913 55.4854 138.974 55.4356 139.026C55.3859 139.078 55.3265 139.12 55.2609 139.149C55.1952 139.178 55.1247 139.193 55.0532 139.194L55.045 139.2Z" fill="black"/>
<path d="M73.4559 136.32C73.3651 136.32 73.2756 136.299 73.1951 136.257C73.1146 136.215 73.0453 136.155 72.9935 136.081C72.7954 135.821 72.5131 135.635 72.194 135.557C71.8748 135.477 71.5378 135.509 71.2395 135.646C71.106 135.713 70.951 135.725 70.8088 135.679C70.6665 135.632 70.5486 135.533 70.481 135.4C70.4133 135.268 70.4013 135.114 70.448 134.974C70.4945 134.833 70.5956 134.716 70.7291 134.648C71.2708 134.393 71.8854 134.333 72.4673 134.477C73.0492 134.622 73.5621 134.963 73.9184 135.441C73.9773 135.525 74.0121 135.623 74.0188 135.725C74.0254 135.827 74.0037 135.929 73.956 136.02C73.9084 136.11 73.8365 136.186 73.7483 136.239C73.6601 136.292 73.559 136.32 73.4559 136.32Z" fill="black"/>
<path d="M95.6825 135.12C95.5499 135.121 95.4225 135.073 95.3243 134.986C95.2261 134.898 95.1651 134.778 95.1518 134.648C95.0988 134.14 95.2354 133.628 95.5339 133.212C95.8324 132.794 96.2729 132.498 96.7744 132.379C97.2773 132.259 97.8066 132.324 98.263 132.56C98.7207 132.797 99.0763 133.19 99.2647 133.667C99.2899 133.731 99.3018 133.799 99.3005 133.869C99.2992 133.937 99.2833 134.006 99.2554 134.069C99.2276 134.132 99.1864 134.19 99.136 134.237C99.0856 134.286 99.0272 134.322 98.9622 134.347C98.8972 134.372 98.8269 134.384 98.7579 134.383C98.6876 134.381 98.6199 134.367 98.5549 134.338C98.4912 134.31 98.4342 134.271 98.3864 134.221C98.3373 134.171 98.3002 134.112 98.275 134.048C98.1808 133.808 98.0017 133.61 97.7721 133.49C97.5413 133.371 97.2759 133.338 97.0225 133.398C96.7704 133.459 96.5489 133.607 96.3976 133.818C96.2477 134.028 96.18 134.284 96.2066 134.54C96.2132 134.609 96.2066 134.678 96.1867 134.745C96.1668 134.811 96.1336 134.873 96.0898 134.927C96.046 134.981 95.9917 135.024 95.9293 135.057C95.8683 135.09 95.8006 135.111 95.7316 135.117C95.7144 135.12 95.6984 135.12 95.6825 135.12Z" fill="black"/>
<path d="M79.3371 128.56C79.2393 128.56 79.1434 128.533 79.0599 128.481C78.9765 128.429 78.909 128.355 78.8647 128.266C78.727 127.975 78.657 127.655 78.6603 127.331C78.6634 127.008 78.7397 126.689 78.8832 126.4C79.05 126.042 79.2937 125.726 79.5966 125.474C79.8995 125.223 80.2539 125.043 80.6343 124.949C82.0118 124.639 83.3298 125.424 84.1039 126.261C84.1542 126.312 84.1939 126.372 84.2217 126.439C84.2481 126.506 84.2614 126.577 84.2601 126.65C84.2601 126.722 84.2442 126.793 84.2151 126.859C84.1873 126.925 84.1449 126.984 84.0933 127.034C84.0417 127.083 83.9809 127.122 83.9134 127.146C83.8472 127.172 83.7757 127.182 83.7043 127.178C83.6342 127.174 83.564 127.157 83.5005 127.125C83.4357 127.094 83.3788 127.05 83.3325 126.995C82.7568 126.374 81.8067 125.787 80.8646 125.997C80.6409 126.056 80.4344 126.163 80.2574 126.312C80.0804 126.462 79.9379 126.649 79.84 126.859C79.7665 127 79.7256 127.157 79.7203 127.317C79.7152 127.476 79.7456 127.634 79.8095 127.781C79.841 127.844 79.8599 127.912 79.8654 127.982C79.8707 128.053 79.8623 128.124 79.8406 128.191C79.8191 128.258 79.7845 128.32 79.7393 128.374C79.694 128.427 79.6387 128.47 79.5766 128.502C79.5024 128.54 79.4203 128.56 79.3371 128.56Z" fill="black"/>
<path d="M86.9148 140.64C86.7964 140.64 86.6819 140.6 86.5888 140.527C86.477 140.439 86.4051 140.31 86.3865 140.168C86.3692 140.027 86.4078 139.884 86.4943 139.771C86.6766 139.532 86.6433 139.404 86.6274 139.366C86.6021 139.273 86.453 138.938 85.5521 138.558C85.4869 138.531 85.4271 138.492 85.3778 138.441C85.3273 138.391 85.2873 138.331 85.2607 138.265C85.2341 138.199 85.2195 138.128 85.2208 138.056C85.2208 137.985 85.2341 137.915 85.262 137.849C85.29 137.783 85.3299 137.724 85.3792 137.674C85.4297 137.624 85.4896 137.585 85.5548 137.558C85.6213 137.531 85.6905 137.519 85.7611 137.52C85.8316 137.52 85.9008 137.536 85.966 137.565C86.9441 137.982 87.4977 138.484 87.6574 139.098C87.7372 139.411 87.7465 139.897 87.33 140.446C87.2794 140.508 87.2155 140.556 87.1437 140.59C87.0718 140.624 86.9933 140.641 86.9148 140.64Z" fill="black"/>
<path d="M45.5794 38.0087C53.8127 58.2601 46.0875 29.6123 44.1668 21.8714C44.1315 21.7205 44.0666 21.5779 43.9759 21.4521C43.8852 21.3262 43.7704 21.2192 43.638 21.1374C43.5057 21.0557 43.3583 21.0007 43.2046 20.9756C43.0508 20.9505 42.8936 20.9558 42.7419 20.9911C39.4725 21.8402 44.8778 35.0049 45.5222 37.8245C45.5359 37.8873 45.555 37.9489 45.5794 38.0087Z" fill="white"/>
<path d="M47.9826 105.338C45.2017 109.691 43.8493 114.77 42.6888 119.79C42.5527 120.399 42.4085 121.04 42.5745 121.645C42.9119 122.883 44.5024 123.482 45.7309 123.071C46.9595 122.661 47.8058 121.509 48.2207 120.294C48.6357 119.08 48.6956 117.779 48.8479 116.505C49.4275 111.685 51.4548 107.065 54.5228 103.285C55.2875 102.34 56.118 101.448 57.0085 100.617C57.6888 99.9843 58.7554 99.4324 58.5554 98.3595C58.1473 96.1748 54.4221 98.8724 53.5214 99.4984C51.3046 101.065 49.4224 103.049 47.9826 105.338Z" fill="white"/>
<path d="M34.9218 16.9587C33.9625 16.9587 32.9924 16.863 32.2658 16.2069C31.6448 15.6464 31.412 14.8434 31.2646 14.132C30.9164 12.3569 30.888 10.5344 31.1807 8.7495C31.2375 8.38438 31.2646 7.98289 31.293 7.55848C31.3836 6.2489 31.4851 4.76282 32.5283 3.74829C34.4969 1.83377 37.8429 1.43092 40.0564 1.16415C52.124 -0.289593 64.4513 -0.0578565 76.3727 0.165797C89.0223 0.402923 102.103 0.649483 114.934 1.62493C116.455 1.7408 117.91 1.92404 119.01 2.88063C120.297 4.00159 120.593 5.79216 120.769 7.38198C121.04 9.81657 121.116 13.2441 118.686 14.8825C117.354 15.7784 115.686 15.8027 114.345 15.8256L35.1937 16.96L34.9218 16.9587ZM32.3253 13.9164C32.4363 14.4554 32.6027 15.0563 32.9937 15.4092C33.497 15.8633 34.3129 15.8916 35.1775 15.8781L114.329 14.7437C115.526 14.7262 117.016 14.706 118.078 13.9892C120.025 12.6783 119.933 9.65759 119.694 7.4992C119.534 6.04815 119.288 4.55803 118.299 3.69171C117.45 2.95338 116.184 2.80113 114.853 2.70008C102.046 1.72598 88.9817 1.48751 76.347 1.24364C64.4621 1.01999 52.174 0.789602 40.1809 2.23392C38.1122 2.48317 34.9853 2.86041 33.2805 4.52434C32.5323 5.25054 32.4498 6.46312 32.37 7.63663C32.3402 8.06372 32.3104 8.50699 32.2468 8.91657C31.9734 10.5756 31.9987 12.27 32.3213 13.9205L32.3253 13.9164Z" fill="black"/>
<path d="M33.607 13.28C33.5359 13.2807 33.4653 13.2669 33.3993 13.2396C33.3334 13.2122 33.2734 13.1719 33.2226 13.1208C33.1718 13.0696 33.1314 13.0088 33.1035 12.9416C33.0757 12.8745 33.0611 12.8024 33.0606 12.7294C33.0599 12.6565 33.0733 12.5841 33.1 12.5165C33.1265 12.4489 33.166 12.3872 33.2158 12.3353C33.2658 12.2832 33.3251 12.2419 33.3905 12.2133C33.4561 12.1848 33.5264 12.1698 33.5976 12.1691L74.029 11.4401C74.1728 11.4376 74.3116 11.4935 74.4149 11.5959C74.5184 11.6982 74.5779 11.8386 74.5805 11.9858C74.5829 12.1331 74.5282 12.2755 74.4284 12.3814C74.3285 12.4875 74.1917 12.5485 74.0481 12.551L33.6234 13.28H33.607Z" fill="black"/>
<path d="M79.9271 12.4797C79.7909 12.4804 79.6593 12.4272 79.5586 12.3303C79.4578 12.2334 79.3951 12.1001 79.383 11.9569C79.3708 11.8135 79.4102 11.6706 79.4931 11.5565C79.576 11.4422 79.6964 11.365 79.8307 11.3402C81.2824 11.0658 82.7608 10.979 84.2325 11.0819C84.3032 11.0869 84.3738 11.1067 84.4377 11.1401C84.5016 11.1736 84.5586 11.2201 84.6062 11.2769C84.6524 11.3337 84.6891 11.3999 84.7122 11.4715C84.7353 11.543 84.7448 11.6186 84.7394 11.694C84.7353 11.7695 84.7163 11.8431 84.685 11.9108C84.6524 11.9786 84.6089 12.039 84.5546 12.0888C84.5016 12.1386 84.4391 12.1767 84.3711 12.2009C84.3032 12.2251 84.2311 12.235 84.1605 12.23C82.7771 12.1334 81.3884 12.2148 80.0236 12.4725C79.9918 12.4784 79.9595 12.4808 79.9271 12.4797Z" fill="black"/>
<path d="M102.674 12.4799H102.662L89.9101 12.1738C89.7667 12.1706 89.63 12.1075 89.5313 11.9988C89.4311 11.8901 89.377 11.7446 89.3811 11.5942C89.3838 11.444 89.4447 11.3012 89.5475 11.1971C89.6517 11.0933 89.7911 11.0369 89.9345 11.0401L102.686 11.3462C102.83 11.3479 102.966 11.4093 103.067 11.5168C103.167 11.6243 103.222 11.7692 103.221 11.9196C103.219 12.0698 103.161 12.2134 103.058 12.3185C102.956 12.4235 102.818 12.4816 102.674 12.4799Z" fill="black"/>
<path d="M109.98 12.24C109.85 12.239 109.724 12.1859 109.629 12.091C109.533 11.9961 109.473 11.8664 109.463 11.7273C109.452 11.5882 109.49 11.4498 109.57 11.3394C109.65 11.2289 109.765 11.1544 109.894 11.1303L111.264 10.8857C111.399 10.8649 111.536 10.9016 111.647 10.988C111.757 11.0743 111.832 11.2034 111.854 11.3475C111.876 11.4916 111.845 11.6395 111.766 11.7593C111.689 11.8791 111.57 11.9613 111.436 11.9884L110.067 12.233C110.038 12.2375 110.009 12.2399 109.98 12.24Z" fill="black"/>
<path d="M76.3164 160C67.039 160 57.7616 159.73 48.552 159.181C43.0127 158.852 37.6293 158.399 32.6484 156.491C31.8907 156.202 29.588 155.32 29.9851 152.801C30.1722 151.613 30.633 150.192 31.2835 148.799C32.5033 146.178 34.7559 146.051 36.7917 146.273C43.9913 147.059 51.279 147.617 58.4515 147.932C65.6931 148.251 73.0405 148.338 80.2902 148.181C87.5037 148.028 94.8022 147.64 101.984 147.017C109.215 146.393 116.511 145.529 123.67 144.43L123.93 144.389C124.669 144.277 125.432 144.161 126.179 144.037C126.679 143.955 127.247 143.865 127.821 143.962C129.621 144.266 130.761 146.195 130.871 149.118C130.917 150.355 130.907 151.61 130.842 152.846C130.803 153.603 130.707 154.468 130.144 155.109C129.582 155.75 128.679 155.964 128.091 156.096C118.671 158.218 109.201 158.936 100.37 159.383C92.3897 159.79 84.3498 160 76.3164 160ZM35.5719 147.29C33.856 147.29 32.914 147.878 32.2662 149.263C31.6576 150.566 31.228 151.884 31.0558 152.976C30.8729 154.136 31.4624 154.888 33.036 155.488C37.8732 157.34 43.1659 157.787 48.6225 158.107C65.8394 159.125 83.0988 159.193 100.324 158.31C109.107 157.858 118.522 157.151 127.862 155.048C128.46 154.913 129.022 154.763 129.339 154.402C129.678 154.018 129.738 153.397 129.769 152.796C129.833 151.592 129.842 150.37 129.797 149.165C129.763 148.276 129.51 145.351 127.649 145.036C127.251 144.968 126.818 145.036 126.36 145.11C125.607 145.236 124.841 145.354 124.099 145.466L123.839 145.506C116.656 146.602 109.337 147.475 102.085 148.101C94.8795 148.723 87.5565 149.115 80.3201 149.269C73.0473 149.424 65.6755 149.34 58.4108 149.021C51.2139 148.704 43.9086 148.144 36.6805 147.356C36.3127 147.311 35.9425 147.287 35.5719 147.283V147.29Z" fill="black"/>
<path d="M56.3902 156C52.4037 155.984 48.421 155.745 44.4605 155.286C35.5071 154.219 34.741 152.678 34.4889 152.172C34.4533 152.108 34.4309 152.037 34.423 151.963C34.4152 151.89 34.4221 151.816 34.4435 151.745C34.4649 151.676 34.5 151.61 34.5471 151.553C34.594 151.497 34.6519 151.451 34.717 151.418C34.7822 151.385 34.8532 151.365 34.9261 151.361C34.9988 151.357 35.0717 151.366 35.1404 151.392C35.209 151.417 35.2721 151.455 35.3255 151.505C35.3791 151.554 35.4221 151.616 35.4518 151.682C35.6298 152.039 36.8152 153.278 44.5872 154.204C49.5933 154.8 54.9418 154.977 58.0247 154.886C58.1678 154.881 58.3067 154.935 58.4108 155.034C58.5148 155.133 58.5756 155.27 58.5797 155.416C58.5839 155.56 58.531 155.7 58.4327 155.805C58.3345 155.91 58.1988 155.971 58.0558 155.975C57.5554 155.99 56.9971 156 56.3902 156Z" fill="black"/>
<path d="M69.4899 156.88C68.614 156.88 67.7402 156.795 66.8807 156.625C66.8079 156.613 66.7383 156.586 66.676 156.546C66.6139 156.506 66.5602 156.454 66.5181 156.393C66.4761 156.332 66.4468 156.263 66.4316 156.191C66.4165 156.117 66.4161 156.043 66.4302 155.97C66.4443 155.897 66.4727 155.828 66.5139 155.766C66.555 155.705 66.6081 155.652 66.6697 155.611C66.7314 155.57 66.8006 155.542 66.8733 155.528C66.9458 155.516 67.0204 155.517 67.0925 155.533C68.4734 155.804 69.8898 155.839 71.2825 155.637C71.356 155.623 71.4315 155.625 71.5046 155.64C71.5777 155.657 71.6468 155.687 71.7077 155.73C71.7686 155.775 71.8201 155.831 71.859 155.895C71.898 155.959 71.9236 156.03 71.9343 156.105C71.9449 156.178 71.9405 156.255 71.9211 156.327C71.9019 156.4 71.8681 156.468 71.8219 156.528C71.7758 156.586 71.7181 156.636 71.6524 156.673C71.5868 156.709 71.5147 156.731 71.4403 156.738C70.7944 156.833 70.1426 156.88 69.4899 156.88Z" fill="black"/>
<path d="M121.43 154.64C121.289 154.64 121.154 154.583 121.055 154.48C120.956 154.377 120.9 154.238 120.9 154.092C120.9 153.947 120.956 153.808 121.055 153.705C121.154 153.602 121.289 153.545 121.43 153.545C123.225 153.545 125.254 152.881 126.105 152.265C127.204 151.468 126.983 149.527 126.836 148.728C126.81 148.586 126.84 148.438 126.92 148.319C126.998 148.199 127.119 148.116 127.257 148.089C127.394 148.063 127.537 148.093 127.654 148.175C127.769 148.256 127.85 148.382 127.876 148.524C128.106 149.774 128.26 152.04 126.711 153.163C125.708 153.89 123.458 154.64 121.43 154.64Z" fill="black"/>
<path d="M61.0844 50.3198C60.7848 50.3252 60.492 50.2274 60.251 50.0414C60.0101 49.8552 59.8347 49.5912 59.752 49.2903C59.6694 48.9894 59.684 48.6683 59.7937 48.3771C59.9034 48.0857 60.1021 47.8404 60.3589 47.6792C60.4177 47.6419 60.4829 47.6172 60.5508 47.6062C60.6188 47.5955 60.6882 47.5986 60.7549 47.6157C60.8217 47.6329 60.8845 47.6636 60.94 47.7061C60.9954 47.7486 61.0422 47.8021 61.0779 47.8636C61.1134 47.9249 61.1372 47.9931 61.1476 48.0641C61.158 48.1352 61.1549 48.2076 61.1385 48.2774C61.1222 48.3472 61.0928 48.4129 61.052 48.4708C61.0113 48.5287 60.9602 48.5776 60.9014 48.6149C60.8279 48.6586 60.7741 48.7313 60.7517 48.8166C60.7294 48.9019 60.7405 48.9929 60.7824 49.0698C60.8244 49.1466 60.8938 49.2029 60.9754 49.2261C61.0571 49.2495 61.1442 49.2379 61.2178 49.1941C61.3373 49.1428 61.4706 49.1396 61.5922 49.185C61.7138 49.2303 61.8151 49.3212 61.8764 49.4399C61.9378 49.5587 61.9549 49.697 61.9245 49.8281C61.8942 49.9593 61.8185 50.074 61.7119 50.1504C61.5192 50.2599 61.3037 50.3181 61.0844 50.3198Z" fill="black"/>
<path d="M67.5597 53.5973C67.5046 53.5973 67.4498 53.5889 67.3973 53.5723C67.1223 53.4757 66.8709 53.3232 66.66 53.1249C66.449 52.9265 66.2829 52.6869 66.1727 52.4213C66.0626 52.1557 66.0108 51.8704 66.0207 51.5839C66.0307 51.2974 66.102 51.0162 66.2301 50.7586C66.2972 50.6354 66.4115 50.5433 66.5477 50.5028C66.684 50.4621 66.831 50.4763 66.9566 50.5421C67.0823 50.6079 67.1761 50.7199 67.2174 50.8536C67.2589 50.9872 67.2444 51.1316 67.1773 51.2548C67.1227 51.376 67.0936 51.5066 67.0916 51.6392C67.0894 51.7717 67.1146 51.9032 67.1654 52.026C67.2162 52.1488 67.2917 52.2602 67.3873 52.3538C67.4829 52.4475 67.5968 52.5212 67.722 52.5708C67.8449 52.6082 67.9499 52.6877 68.0181 52.7948C68.0862 52.9018 68.1129 53.0293 68.0932 53.154C68.0736 53.2787 68.0088 53.3924 67.9109 53.4743C67.8129 53.556 67.6883 53.6008 67.5597 53.6V53.5973Z" fill="black"/>
<path d="M75.3938 47.36C75.2951 47.3599 75.1983 47.3328 75.1141 47.2815C75.03 47.2304 74.9619 47.1572 74.9174 47.07C74.8728 46.9828 74.8536 46.8853 74.8617 46.7879C74.87 46.6906 74.9053 46.5974 74.9638 46.5188C74.9973 46.4665 75.0193 46.4079 75.0283 46.3466C75.0372 46.2855 75.0331 46.223 75.0159 46.1636C74.9902 46.0762 74.9372 45.9991 74.8645 45.9433C74.7918 45.8876 74.7031 45.856 74.6111 45.8533C74.5192 45.8505 74.4286 45.8765 74.3526 45.9278C74.2765 45.979 74.2188 46.0528 74.1878 46.1385C74.148 46.2729 74.0558 46.3862 73.9314 46.4534C73.8071 46.5207 73.6608 46.5364 73.5248 46.497C73.3888 46.4575 73.2741 46.3664 73.2061 46.2434C73.1381 46.1204 73.1224 45.9758 73.1622 45.8414C73.2272 45.6364 73.3364 45.448 73.4821 45.2889C73.628 45.1298 73.8068 45.0036 74.0065 44.9194C74.2063 44.8352 74.4221 44.7946 74.6391 44.8006C74.8561 44.8066 75.0694 44.8591 75.264 44.9543C75.4586 45.0496 75.6301 45.1854 75.7665 45.3524C75.903 45.5193 76.0012 45.7136 76.0546 45.9218C76.1079 46.1299 76.115 46.347 76.0754 46.558C76.0358 46.7692 75.9504 46.9692 75.8252 47.1447C75.7755 47.2116 75.7105 47.2658 75.6355 47.3033C75.5606 47.3407 75.4778 47.3601 75.3938 47.36Z" fill="black"/>
<path d="M89.8367 50.72C89.7146 50.7198 89.5967 50.6806 89.5006 50.6087C89.4046 50.5367 89.336 50.4359 89.3058 50.3223C89.2756 50.2087 89.2852 50.0886 89.3333 49.9808C89.3813 49.873 89.465 49.7836 89.572 49.7268C89.7462 49.6341 89.8848 49.4878 89.963 49.3112C90.0425 49.1344 90.059 48.9372 90.0096 48.7508C89.9588 48.5643 89.8463 48.3991 89.6899 48.2812C89.5322 48.1632 89.3374 48.0993 89.1384 48.0994H89.1288C88.9834 48.0994 88.8435 48.0436 88.7406 47.9443C88.6377 47.845 88.5801 47.7102 88.5801 47.5697C88.5801 47.4292 88.6377 47.2945 88.7406 47.1952C88.8435 47.0959 88.9834 47.04 89.1288 47.04C89.5733 47.0369 90.0055 47.1767 90.3581 47.4376C90.7106 47.6986 90.9631 48.0655 91.0756 48.4805C91.1881 48.8955 91.1524 49.3347 90.9768 49.7285C90.8012 50.1225 90.4953 50.4485 90.1056 50.6551C90.0233 50.6982 89.93 50.7205 89.8367 50.72Z" fill="black"/>
<path d="M79.5204 58.479C79.2362 58.4881 78.9532 58.4359 78.691 58.326C78.4288 58.2162 78.1934 58.0512 78.0009 57.8423C77.8271 57.6356 77.7074 57.3893 77.6528 57.1252C77.5981 56.8611 77.6103 56.5876 77.6879 56.3293C77.7443 56.107 77.8564 55.903 78.0139 55.7362C78.1715 55.5694 78.3691 55.4456 78.5879 55.3763C78.7226 55.3425 78.865 55.3617 78.9858 55.43C79.1064 55.4982 79.1961 55.6102 79.2362 55.7428C79.2764 55.8753 79.2637 56.0181 79.2011 56.1416C79.1385 56.2651 79.0306 56.3597 78.8997 56.406C78.855 56.4261 78.8159 56.4566 78.7856 56.4951C78.7553 56.5335 78.7348 56.5787 78.7256 56.6268C78.699 56.712 78.6931 56.8023 78.7083 56.8903C78.7235 56.9784 78.7596 57.0614 78.8133 57.1329C79.0832 57.4411 79.623 57.4586 80.0278 57.316C80.5435 57.1302 80.9902 56.7183 81.4234 56.3212C81.4747 56.271 81.5354 56.2316 81.6029 56.2053C81.6703 56.1792 81.7419 56.1667 81.8147 56.1686C81.8862 56.1704 81.9578 56.1869 82.0225 56.2166C82.0887 56.2464 82.148 56.2889 82.1966 56.3418C82.2452 56.3948 82.283 56.4569 82.3073 56.5246C82.3316 56.5924 82.3424 56.6643 82.3383 56.7362C82.3343 56.8079 82.3167 56.8783 82.2843 56.943C82.2533 57.0077 82.2088 57.0653 82.1548 57.1127C81.6676 57.5609 81.1157 58.0698 80.4002 58.3242C80.1182 58.4261 79.8205 58.4784 79.5204 58.479Z" fill="black"/>
</svg>
