<svg width="161" height="160" viewBox="0 0 161 160" fill="none" xmlns="http://www.w3.org/2000/svg">
<g clip-path="url(#clip0_165_8138)">
<path d="M134.244 87.2C133.126 87.2 131.998 87.0295 130.992 86.4648C129.367 85.5533 128.456 83.8491 127.78 82.3018C126.866 80.2124 126.157 78.0106 125.471 75.8738C124.49 72.8244 123.476 69.67 121.86 66.8781C120 63.665 117.346 60.9285 114.772 58.2812C113.139 56.5995 111.449 54.8591 109.961 52.999C108.617 51.3196 108.578 49.3635 108.544 47.6378C108.507 45.789 108.635 43.7979 109.804 41.7943C110.401 40.7741 111.151 39.852 112.028 39.0601C113.993 37.2824 116.394 36.0988 118.718 34.9536C119.314 34.6599 119.93 34.3561 120.524 34.0501C121.033 33.7881 121.549 33.5102 122.048 33.2426C123.702 32.3548 125.41 31.4355 127.239 30.8347C130.492 29.7618 134.141 29.7222 137.796 30.7217C141.285 31.6925 144.507 33.4482 147.215 35.8548C151.825 39.9308 155.39 45.8387 158.111 53.9161C159.31 57.4714 160.859 62.8304 160.481 68.2978C160.114 73.6929 157.857 78.4522 154.291 81.3531C151.381 83.7249 147.725 84.8204 144.534 85.5838C141.857 86.2242 139.148 86.7121 136.417 87.0464C135.697 87.1424 134.971 87.1932 134.244 87.2ZM132.532 30.9126C130.832 30.9037 129.141 31.1664 127.523 31.6908C125.771 32.2679 124.098 33.1669 122.478 34.0365C121.976 34.3064 121.463 34.5854 120.941 34.8508C120.337 35.1625 119.717 35.4686 119.118 35.7645C116.85 36.8815 114.505 38.0368 112.635 39.7298C111.827 40.4597 111.136 41.3095 110.585 42.2495C109.587 43.9628 109.409 45.6377 109.448 47.6197C109.488 49.6018 109.597 51.0983 110.666 52.4343C112.133 54.2606 113.802 55.9851 115.421 57.651C118.029 60.3378 120.725 63.1161 122.643 66.4253C124.308 69.3007 125.337 72.5014 126.331 75.5971C127.008 77.7079 127.712 79.8888 128.608 81.9404C129.225 83.3499 130.042 84.896 131.43 85.6764C132.866 86.4817 134.702 86.3394 136.309 86.1429C139.005 85.8131 141.68 85.3309 144.322 84.6984C147.414 83.9586 150.95 82.8993 153.719 80.645C157.092 77.901 159.227 73.3756 159.578 68.23C159.939 62.9219 158.422 57.6804 157.248 54.1973C154.578 46.2746 151.099 40.4933 146.61 36.5246C142.515 32.8981 137.368 30.9126 132.532 30.9126Z" fill="black"/>
<path d="M22.7342 89.9177C22.7069 89.9188 22.6797 89.9155 22.653 89.9098C16.6151 88.8063 13.7293 87.8654 6.23726 83.7551C4.86318 83.0006 3.30971 82.079 2.27407 80.6716C0.872912 78.7666 0.621334 76.3246 0.559286 73.9696C0.17233 59.3685 5.35392 44.6026 14.774 33.4499C15.6099 32.4593 16.6162 31.3704 17.9745 30.9729C19.2854 30.5877 20.6426 30.9153 21.923 31.2823C24.3621 31.9849 26.7989 32.8207 29.1635 33.7673C33.7573 35.605 36.8033 37.1286 40.4066 39.3797C40.5083 39.4432 40.5805 39.5445 40.6075 39.6613C40.6344 39.7782 40.614 39.901 40.5505 40.0027C40.4871 40.1043 40.3859 40.1767 40.2692 40.2037C40.1526 40.2307 40.0299 40.2102 39.9283 40.1467C36.3791 37.9261 33.3704 36.425 28.8284 34.6121C26.4862 33.6742 24.0982 32.8546 21.6737 32.1566C20.523 31.8256 19.3103 31.5286 18.2306 31.8448C17.1137 32.1724 16.253 33.1087 15.4655 34.0395C6.18424 45.0216 1.08049 59.5662 1.46068 73.9515C1.51934 76.1586 1.74723 78.4368 3.0006 80.1419C3.92681 81.4001 5.32233 82.2281 6.6716 82.9656C14.0508 87.0138 16.8892 87.9354 22.8154 89.0231C22.927 89.0435 23.0271 89.1045 23.0959 89.1937C23.1648 89.284 23.1973 89.397 23.187 89.51C23.1769 89.6218 23.1246 89.7268 23.0407 89.8036C22.9569 89.8793 22.8475 89.9211 22.7342 89.92V89.9177Z" fill="#1B5EC9"/>
<path d="M85.6869 55.6596C94.1445 48.7118 105.039 44.7913 115.984 44.7575C118.855 44.7484 125.406 40.7613 128.053 41.877C130.283 42.8153 133.01 45.5558 134.619 47.3636C137.429 50.5185 139.414 53.3663 140.9 56.6996C143.007 61.4297 144.413 65.5173 143.409 68.0884C142.468 70.5014 140.398 69.4649 136.237 75.0994C134.055 78.0533 131.607 80.7922 129.26 83.6174C122.146 92.1845 112.278 97.9263 102.629 103.491C96.7777 106.865 90.9094 110.248 84.7 112.908C82.8493 113.699 80.8698 114.443 78.8722 114.19C76.8747 113.937 74.9031 112.354 74.9133 110.34C72.9937 111.974 70.2351 113.071 67.7295 113.308C65.2238 113.545 61.4061 111.875 61.8261 109.393C57.0768 112.254 52.4223 111.049 51.9673 108.481C51.6895 106.913 52.6312 105.38 53.2692 103.921C51.2243 105.268 48.3313 103.108 48.0874 100.672C47.8435 98.2368 49.3024 95.9785 50.8087 94.0487C58.8925 83.6976 70.0996 76.0953 78.0524 65.6483C81.6207 60.9599 84.7531 55.5106 90.0433 52.9157L85.6869 55.6596Z" fill="#FACBDF"/>
<path d="M52.6694 105.04C52.5867 105.04 52.5057 105.017 52.4351 104.972C52.3647 104.929 52.3075 104.866 52.2698 104.79C52.2322 104.716 52.2157 104.631 52.222 104.547C52.2283 104.464 52.2572 104.383 52.3056 104.314C54.9332 100.579 56.412 99.8066 59.098 98.4058L59.1553 98.376C59.208 98.3473 59.2659 98.329 59.3258 98.3221C59.3855 98.3164 59.4459 98.3221 59.5034 98.3405C59.5608 98.3576 59.6141 98.3874 59.6602 98.4275C59.7062 98.4665 59.7441 98.5146 59.7715 98.5695C59.7989 98.6245 59.8151 98.6841 59.8195 98.7448C59.8239 98.8055 59.8161 98.8674 59.7968 98.9258C59.7774 98.983 59.7469 99.0369 59.7069 99.0827C59.6669 99.1285 59.6184 99.1652 59.564 99.1915L59.5068 99.2213C56.8623 100.596 55.535 101.293 53.0354 104.849C52.9938 104.908 52.9388 104.956 52.8751 104.99C52.8114 105.023 52.7409 105.04 52.6694 105.04Z" fill="#1B5EC9"/>
<path d="M62.1918 109.52C62.108 109.52 62.0259 109.498 61.9547 109.454C61.8834 109.41 61.8258 109.347 61.7882 109.273C61.7507 109.199 61.7346 109.115 61.742 109.032C61.7492 108.95 61.7796 108.87 61.8296 108.803L61.9154 108.691C63.1157 107.083 64.7605 104.882 69.2753 101.997C69.3252 101.964 69.3812 101.94 69.4404 101.929C69.4995 101.916 69.5603 101.918 69.6193 101.929C69.6784 101.941 69.7343 101.965 69.7841 101.998C69.8339 102.032 69.8762 102.076 69.9088 102.126C69.9414 102.177 69.9634 102.233 69.9736 102.292C69.9839 102.352 69.9822 102.412 69.9686 102.471C69.955 102.529 69.9297 102.584 69.8943 102.632C69.859 102.681 69.8142 102.722 69.7627 102.752C65.3866 105.549 63.7993 107.674 62.6408 109.226L62.5539 109.338C62.5119 109.395 62.4574 109.44 62.3945 109.472C62.3316 109.504 62.2622 109.52 62.1918 109.52Z" fill="#1B5EC9"/>
<path d="M75.3131 110.4C75.2257 110.401 75.1403 110.375 75.0668 110.329C74.9935 110.281 74.9354 110.213 74.8995 110.134C74.8636 110.055 74.8514 109.966 74.8645 109.88C74.8775 109.793 74.9152 109.713 74.9731 109.647L75.0864 109.516C76.2604 108.194 78.2264 105.98 81.1535 104.533C81.2067 104.505 81.2656 104.488 81.3257 104.482C81.3869 104.476 81.4469 104.483 81.5047 104.502C81.5625 104.52 81.6169 104.551 81.6622 104.591C81.7087 104.63 81.7461 104.678 81.7721 104.732C81.7993 104.787 81.8152 104.847 81.8186 104.907C81.822 104.968 81.8141 105.028 81.7937 105.085C81.7733 105.142 81.7416 105.194 81.7008 105.239C81.6588 105.284 81.6101 105.32 81.5546 105.345C78.7862 106.711 76.895 108.841 75.7652 110.113L75.6519 110.245C75.6096 110.294 75.5576 110.332 75.4991 110.359C75.4408 110.386 75.3773 110.4 75.3131 110.4Z" fill="#1B5EC9"/>
<path d="M81.2285 52.9235C84.3064 54.2364 87.108 56.111 89.8881 57.9742L105.033 68.1242C105.734 68.5932 106.476 69.1152 106.759 69.9106C107.371 71.6259 105.502 73.2111 103.768 73.7625C99.9388 74.9806 95.7957 74.2055 91.8546 73.4236C99.2065 75.7512 106.646 77.7718 114.173 79.4856C116.613 80.041 119.227 80.658 120.903 82.5167C122.58 84.3754 122.569 87.9154 120.278 88.9245C122.393 88.7697 124.478 90.6193 124.461 92.7458C124.444 94.8723 122.196 96.7118 120.138 96.2011C120.68 97.9435 119.825 99.9299 118.367 101.02C116.909 102.111 114.975 102.42 113.166 102.206C112.442 102.121 111.675 101.965 111.011 102.265C110.519 102.491 110.167 102.931 109.792 103.323C106.658 106.608 101.519 106.713 96.9996 106.321C75.4855 104.456 55.0152 96.5593 34.8798 88.7425C34.0303 88.4126 33.1073 88.0183 32.7011 87.2002C32.4258 86.6465 32.4439 85.9957 32.4834 85.3777C32.7891 80.5529 33.9693 75.8258 35.6775 71.314C37.4095 66.739 39.6638 62.3797 42.1087 58.1516C43.342 56.0228 44.6259 53.9234 45.9302 51.8376C46.4199 51.0534 47.0393 48.1168 47.8009 47.562C48.5106 47.0445 55.0219 47.6061 55.4225 48.2908C56.6771 50.4467 60.3564 49.8659 65.2791 50.0512C70.1161 50.232 75.0162 50.6614 79.6083 52.2918C80.1551 52.4862 80.6948 52.6967 81.2285 52.9235Z" fill="#1B5EC9"/>
<path d="M120.644 89.04C120.616 89.04 120.589 89.0377 120.562 89.0321C109.385 86.9688 98.1547 84.4168 87.1835 81.4463C87.0705 81.4135 86.9744 81.3366 86.9167 81.2337C86.8591 81.1307 86.8444 81.0086 86.8749 80.8943C86.9054 80.7801 86.98 80.6828 87.0818 80.6228C87.1835 80.5629 87.3045 80.5448 87.4198 80.5731C98.3672 83.5368 109.577 86.0831 120.726 88.1418C120.838 88.1622 120.938 88.2221 121.007 88.3126C121.076 88.4031 121.108 88.5162 121.098 88.6294C121.087 88.7413 121.035 88.8465 120.952 88.9235C120.867 88.9993 120.757 89.0411 120.644 89.04Z" fill="black"/>
<path d="M120.074 96.5597H120.044C108.197 95.7694 96.3942 93.412 83.9704 89.3531C83.8565 89.3161 83.7628 89.2355 83.7087 89.1292C83.6545 89.024 83.6455 88.9008 83.6827 88.7878C83.7211 88.6747 83.8023 88.5818 83.9095 88.5281C84.0155 88.4744 84.1396 88.4654 84.2536 88.5024C96.5995 92.5299 108.333 94.8806 120.103 95.6642C120.223 95.6686 120.336 95.719 120.418 95.8063C120.5 95.8925 120.543 96.0078 120.54 96.1265C120.537 96.2451 120.485 96.3582 120.398 96.4388C120.31 96.5205 120.194 96.5641 120.074 96.5597Z" fill="black"/>
<path d="M112.886 102.4H112.868C103.109 102.008 93.4325 100.426 84.0493 97.6858C83.9392 97.6494 83.847 97.5711 83.7919 97.4666C83.7379 97.3632 83.7255 97.2416 83.7581 97.128C83.7907 97.0156 83.8649 96.9202 83.9661 96.8611C84.0662 96.802 84.1865 96.785 84.299 96.8134C93.6113 99.5316 103.214 101.103 112.899 101.491C113.019 101.494 113.132 101.544 113.214 101.631C113.297 101.718 113.342 101.834 113.34 101.955C113.338 102.075 113.288 102.19 113.202 102.274C113.116 102.357 113.001 102.403 112.881 102.4H112.886Z" fill="black"/>
<path d="M115.469 87.84C115.361 87.84 115.257 87.7997 115.176 87.7279C114.59 87.2221 114.242 86.27 114.309 85.3571C114.362 84.6382 114.661 84.0719 115.15 83.7601C116.099 83.1579 117.434 83.1209 118.814 83.6569C118.926 83.7007 119.014 83.7859 119.063 83.8958C119.111 84.0046 119.113 84.1279 119.069 84.239C119.027 84.35 118.941 84.4386 118.831 84.4868C118.722 84.535 118.599 84.5373 118.487 84.4935C117.962 84.2894 116.633 83.8823 115.633 84.5171C115.393 84.6696 115.236 84.9993 115.206 85.4221C115.16 86.0457 115.395 86.7298 115.768 87.0483C115.837 87.1088 115.885 87.1885 115.906 87.2759C115.929 87.3645 115.923 87.4576 115.892 87.5429C115.86 87.6281 115.803 87.701 115.728 87.7526C115.653 87.8053 115.565 87.8333 115.474 87.8333L115.469 87.84Z" fill="black"/>
<path d="M118.044 96.4754C117.985 96.4754 117.927 96.4639 117.872 96.441C117.248 96.1856 116.675 95.5486 116.342 94.7364C116.009 93.9242 115.969 93.0971 116.235 92.475C116.533 91.8312 117.069 91.3272 117.731 91.0694C118.391 90.8105 119.127 90.8174 119.783 91.0878C119.839 91.1118 119.89 91.1473 119.932 91.1909C119.974 91.2344 120.008 91.2859 120.029 91.3432C120.051 91.3993 120.063 91.4601 120.06 91.5208C120.059 91.5815 120.045 91.6411 120.02 91.6972C119.996 91.7522 119.961 91.8026 119.916 91.8438C119.871 91.8851 119.82 91.9172 119.763 91.9389C119.705 91.9595 119.645 91.9699 119.584 91.9676C119.523 91.9653 119.464 91.9504 119.409 91.924C118.976 91.7556 118.497 91.7568 118.065 91.9263C117.633 92.0959 117.281 92.4224 117.079 92.8405C116.915 93.2254 116.958 93.8211 117.194 94.3927C117.43 94.9644 117.826 95.4352 118.224 95.5967C118.323 95.6368 118.405 95.7101 118.455 95.8041C118.506 95.898 118.523 96.0057 118.502 96.1111C118.482 96.2153 118.426 96.3093 118.342 96.3769C118.26 96.4445 118.157 96.4811 118.05 96.48L118.044 96.4754Z" fill="black"/>
<path d="M112.821 102.4C112.753 102.4 112.686 102.385 112.624 102.355C112.345 102.215 112.1 102.017 111.907 101.773C111.714 101.53 111.576 101.249 111.505 100.948C111.413 100.612 111.396 100.259 111.454 99.9154C111.513 99.5705 111.647 99.2436 111.846 98.9547C112.557 97.9693 114.036 97.5718 115.284 98.0287C115.397 98.0701 115.489 98.1541 115.539 98.2627C115.589 98.3702 115.593 98.4934 115.551 98.6053C115.509 98.7162 115.424 98.8069 115.315 98.8561C115.205 98.9054 115.08 98.9099 114.967 98.8685C114.091 98.5482 113.068 98.808 112.587 99.4742C112.465 99.6567 112.383 99.8628 112.348 100.078C112.313 100.293 112.324 100.513 112.382 100.724C112.421 100.898 112.498 101.063 112.607 101.205C112.716 101.347 112.856 101.465 113.016 101.548C113.11 101.593 113.185 101.665 113.23 101.757C113.275 101.849 113.287 101.953 113.264 102.053C113.24 102.151 113.185 102.24 113.103 102.304C113.022 102.366 112.922 102.401 112.819 102.4H112.821Z" fill="black"/>
<path d="M102.548 106.477C102.452 106.477 102.359 106.445 102.282 106.387C102.119 106.261 101.986 106.099 101.893 105.915C101.799 105.73 101.748 105.526 101.742 105.318C101.73 105.058 101.773 104.799 101.87 104.557C101.965 104.315 102.11 104.097 102.297 103.916C102.813 103.433 103.585 103.218 104.531 103.295C104.588 103.301 104.646 103.317 104.698 103.344C104.749 103.37 104.796 103.407 104.834 103.452C104.872 103.497 104.9 103.55 104.919 103.605C104.937 103.661 104.943 103.721 104.939 103.779C104.934 103.838 104.918 103.895 104.891 103.948C104.865 104.001 104.828 104.048 104.784 104.086C104.739 104.124 104.688 104.153 104.632 104.171C104.576 104.189 104.517 104.197 104.46 104.191C103.977 104.152 103.315 104.191 102.901 104.575C102.81 104.667 102.739 104.775 102.692 104.896C102.645 105.017 102.625 105.146 102.631 105.274C102.631 105.351 102.647 105.427 102.68 105.495C102.712 105.564 102.758 105.626 102.816 105.674C102.89 105.731 102.946 105.81 102.973 105.899C103.001 105.989 103 106.085 102.97 106.174C102.941 106.264 102.885 106.341 102.809 106.396C102.734 106.451 102.643 106.48 102.55 106.48L102.548 106.477Z" fill="black"/>
<path d="M101.55 73.1155C101.503 73.1155 96.8203 72.6686 96.2426 70.1893C96.0859 69.5189 96.7836 67.7423 97.9413 66.8373C98.8034 66.1591 99.7566 66.0552 100.698 66.5423C102.204 67.3244 103.253 68.0485 104.093 68.9066C104.134 68.9485 104.166 68.998 104.188 69.0524C104.211 69.1068 104.222 69.165 104.221 69.2238C104.221 69.2824 104.208 69.3405 104.186 69.3946C104.163 69.4487 104.13 69.4977 104.088 69.539C104.046 69.5802 103.997 69.6128 103.943 69.635C103.89 69.657 103.832 69.6681 103.773 69.6677C103.715 69.6673 103.657 69.6554 103.603 69.6325C103.55 69.6096 103.501 69.5763 103.46 69.5345C102.689 68.7468 101.711 68.0697 100.292 67.3378C99.6844 67.0239 99.1123 67.0775 98.5434 67.4999C97.5746 68.2183 97.0558 69.6865 97.1091 69.9915C97.4746 71.5636 100.99 72.2261 101.553 72.2261C101.671 72.2261 101.784 72.2733 101.868 72.3571C101.951 72.4409 101.998 72.5545 101.998 72.6731C101.998 72.7916 101.951 72.9054 101.868 72.9892C101.784 73.073 101.671 73.12 101.553 73.12L101.55 73.1155Z" fill="black"/>
<path d="M66.9598 73.1561C66.2545 73.4419 65.5085 73.7186 64.9964 74.2744C64.1408 75.2115 64.2244 76.7493 64.9557 77.791C65.6871 78.8328 66.9236 79.4121 68.1704 79.6652C71.9095 80.423 75.6305 78.5785 78.9989 76.7898L88.0609 71.9772C87.8834 72.0717 86.1393 70.8229 85.885 70.6778C85.1254 70.2413 84.359 69.8184 83.5848 69.4089C82.0373 68.5899 80.4616 67.8249 78.8588 67.1139C78.2992 66.8653 77.5024 66.3366 76.8547 66.4063C76.207 66.4761 75.7402 67.2478 75.3208 67.6606C74.1942 68.7699 72.9672 69.7731 71.6552 70.6576C70.182 71.6515 68.6084 72.4889 66.9598 73.1561Z" fill="#FACBDF"/>
<path d="M107.246 66.1598C107.126 66.1636 107.01 66.1194 106.922 66.0368C106.835 65.9544 106.784 65.8403 106.779 65.7199C106.776 65.5995 106.82 65.4825 106.903 65.3946C106.984 65.3068 107.098 65.2554 107.218 65.2515C113.659 64.8257 119.798 62.3535 124.75 58.1922C124.795 58.1525 124.849 58.1223 124.905 58.1032C124.962 58.0842 125.023 58.0768 125.082 58.0813C125.142 58.086 125.2 58.1025 125.254 58.13C125.307 58.1576 125.355 58.1955 125.393 58.2417C125.433 58.2879 125.461 58.3414 125.479 58.399C125.497 58.4566 125.503 58.5173 125.497 58.5773C125.492 58.6375 125.475 58.6957 125.446 58.749C125.418 58.8021 125.379 58.8491 125.332 58.887C120.232 63.1718 113.909 65.7163 107.276 66.153L107.246 66.1598Z" fill="#1B5EC9"/>
<path d="M48.8951 43.8992C47.7211 43.4478 45.0033 41.8396 43.7323 41.9231C42.2539 42.0213 40.913 42.8779 39.8327 43.8935C30.5492 52.6216 24.4381 68.4402 25.6537 82.4888C25.9075 85.423 26.5774 88.5569 28.7561 90.5375C30.5921 92.2066 32.9986 93.6534 35.4424 94.0788C36.6919 94.2966 38.0091 94.4964 39.2023 94.0642C40.3954 93.6319 41.3743 92.3364 41.0066 91.1221L40.9807 91.113C40.2285 90.8456 39.5826 90.3423 39.1385 89.6787C38.6946 89.0151 38.476 88.2251 38.5155 87.4273C39.0793 76.4268 42.3125 65.0693 47.6501 55.5298C48.5015 54.0097 49.4116 52.5155 50.4908 51.1466C50.9058 50.6196 51.3558 50.1027 51.923 49.7427C52.8726 49.1423 54.0195 49.0656 55.1077 49.2112C55.5836 49.2744 56.382 49.6626 56.8309 49.5892C57.2414 49.5238 57.1072 49.1491 56.9211 48.8579C55.8317 47.1426 53.5616 45.9689 51.7911 45.1338C50.8415 44.6767 49.8751 44.2727 48.8951 43.8992Z" fill="#FF5400"/>
<path d="M49.7837 48.72C49.7048 48.72 49.6273 48.6987 49.5593 48.6583C49.4912 48.618 49.4349 48.56 49.3964 48.4905C49.3579 48.4209 49.3384 48.3421 49.3399 48.2623C49.3415 48.1826 49.364 48.1047 49.4052 48.0367C49.7929 47.4056 50.3241 46.8771 50.9544 46.4952C51.5848 46.1133 52.2962 45.8889 53.0295 45.8408C53.0879 45.8374 53.1463 45.8456 53.2015 45.865C53.2565 45.8844 53.3074 45.9147 53.351 45.954C53.3946 45.9933 53.4301 46.0408 53.4556 46.0939C53.481 46.1471 53.4958 46.2048 53.4991 46.2638C53.5025 46.3227 53.4943 46.3817 53.4751 46.4375C53.4559 46.4933 53.426 46.5446 53.3871 46.5887C53.3482 46.6327 53.3012 46.6686 53.2486 46.6943C53.196 46.72 53.139 46.7351 53.0806 46.7384C52.4904 46.7768 51.9177 46.957 51.4102 47.2639C50.9027 47.5709 50.4749 47.9958 50.1623 48.5035C50.1229 48.5693 50.0673 48.6239 50.0011 48.6618C49.9348 48.6997 49.86 48.7198 49.7837 48.72Z" fill="black"/>
<path d="M46.8167 52.24C46.7435 52.24 46.6715 52.2212 46.6073 52.1853C46.5431 52.1495 46.4888 52.0978 46.4494 52.0349C46.4101 51.9721 46.3867 51.9001 46.3818 51.8257C46.3769 51.7512 46.3905 51.6767 46.4212 51.609C46.7051 50.9838 47.1527 50.4502 47.7146 50.0672C47.8107 50.0061 47.9263 49.9857 48.0369 50.01C48.1476 50.0343 48.2446 50.1016 48.3075 50.1976C48.3704 50.2936 48.3941 50.4108 48.3737 50.5243C48.3534 50.6378 48.2905 50.7388 48.1984 50.8059C47.7704 51.0994 47.4288 51.506 47.2101 51.9823C47.1753 52.0588 47.1199 52.1238 47.0501 52.1695C46.9805 52.2151 46.8995 52.2396 46.8167 52.24Z" fill="black"/>
<path d="M43.6973 57.6C43.6267 57.5999 43.5572 57.5819 43.4946 57.5476C43.4322 57.5132 43.3785 57.4633 43.3381 57.4023C43.2978 57.3414 43.2721 57.271 43.2632 57.1973C43.2544 57.1236 43.2625 57.0487 43.287 56.9792C43.6941 55.8175 44.3 54.7443 45.0747 53.8129C45.1534 53.731 45.2586 53.6837 45.3692 53.6802C45.4798 53.6767 45.5874 53.7175 45.6706 53.7943C45.7537 53.8711 45.8063 53.9782 45.8175 54.0939C45.8287 54.2098 45.7978 54.3258 45.7311 54.4187C45.0272 55.2663 44.4762 56.2421 44.1053 57.2982C44.0746 57.3862 44.019 57.4624 43.9462 57.5163C43.8732 57.5702 43.7864 57.5994 43.6973 57.6Z" fill="black"/>
<path d="M41.5686 62.16C41.4918 62.1601 41.416 62.1418 41.3482 62.1067C41.2803 62.0716 41.2224 62.0208 41.1794 61.9588C41.1366 61.8967 41.11 61.8254 41.1021 61.751C41.0942 61.6766 41.1053 61.6016 41.1342 61.5323L41.9642 59.5489C42.014 59.4413 42.1045 59.3568 42.2169 59.3128C42.3293 59.269 42.4549 59.2691 42.5671 59.3134C42.6794 59.3576 42.7697 59.4425 42.8189 59.55C42.8683 59.6577 42.8729 59.7798 42.8317 59.8906L42.0017 61.8752C41.9668 61.9592 41.907 62.0312 41.8299 62.0819C41.7527 62.1326 41.6617 62.1598 41.5686 62.16Z" fill="black"/>
<path d="M42.2466 64.8778C43.3157 65.444 44.4458 66.1868 44.7656 67.3588C44.9724 68.1152 44.7972 68.9169 44.6221 69.6813C43.3284 75.3325 42.0337 80.9841 40.7379 86.6357C40.5831 87.3151 40.3695 88.0692 39.7581 88.3942C39.2925 88.6422 38.7275 88.563 38.2088 88.4701C34.3218 87.7748 30.5148 86.6878 26.8456 85.2259C25.9303 84.8613 24.9979 84.4559 24.3108 83.7538C23.1807 82.592 22.9242 80.8504 22.8349 79.2248C22.5558 74.1688 23.3254 68.9769 25.1821 64.2595C25.7709 62.7625 26.6072 60.8137 28.4696 60.8001C29.3138 60.7934 30.1704 61.0028 30.9999 61.1342C32.2091 61.3256 33.4081 61.5702 34.5925 61.8816C37.2512 62.5791 39.8199 63.5846 42.2466 64.8778Z" fill="black"/>
<path d="M38.9904 88.9595C38.6949 88.9538 38.4005 88.9211 38.1107 88.8624C34.2118 88.1642 30.3929 87.0722 26.712 85.6058C25.7637 85.2279 24.7749 84.7947 24.0324 84.0265C22.7894 82.7462 22.5284 80.8838 22.4373 79.2316C22.1493 74.0246 22.9671 68.8028 24.7996 64.1316C25.3463 62.7419 26.262 60.4169 28.4871 60.4H28.5355C29.1814 60.4178 29.8244 60.4933 30.4568 60.6256C30.6672 60.664 30.8775 60.7023 31.0856 60.7384C32.3444 60.9381 33.5604 61.1897 34.7067 61.492C37.3866 62.1953 39.9757 63.2094 42.4214 64.514C43.5677 65.1265 44.7837 65.932 45.1527 67.2642C45.3923 68.1452 45.183 69.0623 45.0143 69.7989L41.1457 86.6921C40.968 87.4682 40.7138 88.33 39.9432 88.7406C39.6488 88.8929 39.3212 88.9674 38.9904 88.9595ZM28.5355 61.3058H28.5017C27.0078 61.3171 26.271 62.8727 25.6444 64.4644C23.8558 69.0149 23.0571 74.1047 23.3395 79.182C23.4216 80.6683 23.6443 82.331 24.6804 83.3982C25.3002 84.0355 26.154 84.4134 27.0483 84.7654C30.6731 86.2093 34.4335 87.2832 38.2727 87.9713C38.744 88.0559 39.1951 88.1179 39.5236 87.942C39.9601 87.7096 40.1389 87.0688 40.2728 86.4879L44.138 69.5981C44.2921 68.9213 44.4665 68.1655 44.2854 67.5033C44.012 66.5016 42.9771 65.8338 42.0007 65.3115C39.6161 64.0405 37.092 63.0521 34.4795 62.3662C33.3647 62.0729 32.1757 61.8259 30.9473 61.6307C30.7324 61.5969 30.5153 61.5574 30.2982 61.5179C29.718 61.3958 29.1281 61.3248 28.5355 61.3058Z" fill="black"/>
<path d="M44.0645 80.8794C43.1743 80.8794 42.3031 80.4963 41.8518 80.2973C41.7423 80.2501 41.6561 80.1592 41.612 80.0453C41.5679 79.932 41.5696 79.8054 41.6166 79.6932C41.6636 79.5812 41.7522 79.4927 41.8628 79.4476C41.9735 79.4024 42.0971 79.404 42.2066 79.4522C42.7387 79.6823 43.9837 80.234 44.801 79.7973C45.259 79.5511 45.5734 78.992 45.7373 78.1546C45.8361 77.6426 45.9315 77.2342 46.0067 76.9098C46.2076 76.0505 46.2829 75.7284 46.1111 75.0784C45.9304 74.3882 44.6326 73.928 43.5043 73.7992C43.4437 73.7949 43.3848 73.7781 43.3308 73.7497C43.2768 73.7214 43.2289 73.6822 43.1901 73.6344C43.1514 73.5866 43.1224 73.5313 43.105 73.4717C43.0877 73.4121 43.0823 73.3495 43.0893 73.2878C43.0961 73.2261 43.1152 73.1664 43.1452 73.1123C43.1753 73.0583 43.2157 73.0112 43.264 72.9736C43.3124 72.9359 43.3676 72.9089 43.4264 72.8937C43.4854 72.8786 43.5465 72.876 43.6065 72.8858C44.298 72.9663 46.586 73.3459 46.9744 74.8414C47.2046 75.7169 47.0867 76.2219 46.8767 77.1261C46.7982 77.462 46.7095 77.8417 46.614 78.3363C46.3951 79.466 45.9236 80.2317 45.2152 80.6136C44.8585 80.7977 44.4634 80.8886 44.0645 80.8794Z" fill="white"/>
<path d="M32.3788 75.84C32.3264 75.8401 32.2743 75.8306 32.2252 75.812C32.1478 75.7833 32.0799 75.7335 32.0291 75.6682C31.9782 75.603 31.9462 75.5246 31.9369 75.4421C31.918 75.2819 31.7487 74.7361 31.5695 74.1589C31.0017 72.3253 30.1423 69.5537 30.4429 68.1068C30.4693 67.9928 30.5389 67.8936 30.6369 67.8305C30.7349 67.7675 30.8536 67.7455 30.9675 67.7694C31.0812 67.7933 31.1813 67.8611 31.2462 67.9583C31.3111 68.0554 31.3356 68.1744 31.3146 68.2895C31.0619 69.5111 31.9124 72.2547 32.42 73.8932C32.498 74.1443 32.5636 74.3584 32.6182 74.541C33.7647 73.3948 34.8214 72.1609 35.7787 70.8504L35.9134 70.6711C35.9869 70.5824 36.0914 70.5256 36.2054 70.5126C36.3194 70.4996 36.434 70.5314 36.5253 70.6014C36.6165 70.6713 36.6775 70.7739 36.6954 70.888C36.7133 71.002 36.6868 71.1187 36.6215 71.2135L36.4923 71.3872C35.3552 72.945 34.0802 74.3956 32.6828 75.7212C32.6 75.7981 32.4914 75.8406 32.3788 75.84Z" fill="white"/>
<path d="M34.5794 66.32H34.5739C34.4585 66.3186 34.3483 66.2708 34.2672 66.1869C34.1861 66.1031 34.1406 65.99 34.1406 65.8722C34.1406 65.6695 34.3414 63.9073 34.7231 63.4427C34.7973 63.3511 34.9041 63.2933 35.0201 63.282C35.136 63.2708 35.2515 63.3071 35.3413 63.3828C35.431 63.4585 35.4876 63.5675 35.4987 63.6859C35.5096 63.8041 35.4741 63.9221 35.3999 64.0137C35.2486 64.2477 35.0226 65.5497 35.0182 65.8834C35.0153 66.0002 34.9678 66.1112 34.8859 66.1928C34.8039 66.2745 34.6939 66.32 34.5794 66.32Z" fill="white"/>
<path d="M30.8391 84.3991C30.8197 84.4003 30.8001 84.4003 30.7807 84.3991C30.721 84.3921 30.6634 84.3723 30.6112 84.342C30.5589 84.3118 30.5131 84.271 30.4764 84.2221C30.4395 84.1744 30.4125 84.1185 30.3968 84.0591C30.381 84.0009 30.3769 83.9392 30.3847 83.8775L30.5884 82.2475C30.6035 82.1253 30.666 82.0135 30.762 81.9378C30.8579 81.8621 30.9796 81.8284 31.1001 81.8435C31.2205 81.8598 31.3302 81.9227 31.4046 82.0205C31.4791 82.1183 31.5124 82.2417 31.4973 82.3639L31.2935 83.9939C31.279 84.1069 31.225 84.2093 31.1413 84.2838C31.0577 84.3583 30.9503 84.4003 30.8391 84.3991Z" fill="white"/>
<path d="M26.3492 72.64C25.7701 72.64 24.9333 72.3248 24.6085 72.1369C24.5568 72.1067 24.5114 72.0666 24.4751 72.0188C24.4386 71.971 24.4119 71.9164 24.3964 71.8582C24.3809 71.8 24.377 71.7392 24.3847 71.6795C24.3924 71.6197 24.4118 71.562 24.4416 71.5099C24.4714 71.4576 24.5112 71.4119 24.5585 71.3751C24.6059 71.3384 24.6599 71.3114 24.7176 71.2958C24.7753 71.2801 24.8355 71.2761 24.8946 71.284C24.9539 71.2918 25.011 71.3113 25.0627 71.3414C25.3398 71.5007 26.054 71.7403 26.3822 71.7231C26.4419 71.7199 26.5015 71.7286 26.5578 71.7488C26.6142 71.7688 26.6659 71.8 26.7103 71.8403C26.7547 71.8807 26.7908 71.9294 26.8166 71.9838C26.8423 72.0383 26.8572 72.0973 26.8602 72.1575C26.8634 72.2177 26.8548 72.2779 26.8348 72.3348C26.8149 72.3915 26.784 72.4439 26.7441 72.4887C26.7041 72.5335 26.6558 72.5699 26.6019 72.5959C26.548 72.6218 26.4896 72.6368 26.4299 72.64H26.3492Z" fill="white"/>
<path d="M38.8712 76.3897C38.8505 76.3915 38.8297 76.3915 38.809 76.3897L37.4747 76.1897C37.36 76.1727 37.2565 76.1086 37.187 76.0116C37.1175 75.9147 37.0876 75.7927 37.104 75.6727C37.1204 75.5526 37.1816 75.4442 37.2742 75.3715C37.3669 75.2987 37.4834 75.2675 37.5981 75.2846L38.9324 75.4846C39.0482 75.4932 39.1561 75.5494 39.2322 75.6412C39.3084 75.7329 39.3466 75.8526 39.3385 75.9739C39.3305 76.095 39.2766 76.2079 39.189 76.2877C39.1014 76.3675 38.9871 76.4075 38.8712 76.3989V76.3897Z" fill="white"/>
<path d="M136.858 83.1199C136.77 83.1199 136.685 83.0928 136.612 83.0444C136.54 82.9959 136.483 82.9271 136.448 82.847C136.414 82.7669 136.404 82.6779 136.418 82.591C136.434 82.5053 136.474 82.4252 136.533 82.361C139.251 79.5015 140.01 74.4675 138.422 69.8258C136.661 64.6812 134.273 59.6403 132.035 56.3395C129.968 53.2947 127.667 50.1213 124.848 47.576C121.772 44.7996 118.368 43.0708 115.005 42.578C114.946 42.5693 114.89 42.5492 114.839 42.5189C114.789 42.4886 114.744 42.4484 114.709 42.4009C114.673 42.3533 114.648 42.2993 114.633 42.2418C114.618 42.1843 114.615 42.1246 114.624 42.0659C114.633 42.0073 114.652 41.951 114.683 41.9C114.713 41.8491 114.754 41.8047 114.801 41.7693C114.897 41.6978 115.017 41.6675 115.135 41.6847C118.675 42.2046 122.243 44.0091 125.45 46.9062C128.342 49.5157 130.682 52.7387 132.78 55.8332C135.061 59.196 137.488 64.318 139.275 69.5325C140.964 74.4811 140.13 79.8862 137.187 82.9835C137.144 83.0275 137.093 83.0624 137.036 83.0861C136.979 83.1098 136.918 83.121 136.858 83.1199Z" fill="black"/>
<path d="M143.461 73.9789C142.813 74.9545 142.278 76.2488 142.885 77.2513C143.549 78.3459 145.131 78.3739 146.373 78.0832C148.266 77.6435 150.041 76.7952 151.572 75.5977C152.535 74.8433 153.487 73.8464 153.705 72.5936C153.891 71.5058 153.295 70.2013 152.387 69.5626C151.65 69.0484 150.737 69.1775 149.916 69.365C148.698 69.6226 147.541 70.1158 146.512 70.8165C145.305 71.6691 144.27 72.7421 143.461 73.9789Z" fill="#FF5400"/>
<path d="M145.554 76.4C145.441 76.4003 145.333 76.3563 145.251 76.2768C145.168 76.1975 145.118 76.0886 145.11 75.9723C145.045 74.9494 145.285 73.9305 145.801 73.0554C145.835 72.9985 145.879 72.9496 145.932 72.9123C145.986 72.8749 146.045 72.85 146.109 72.839C146.172 72.8281 146.236 72.8314 146.298 72.849C146.361 72.8665 146.418 72.8978 146.467 72.9404L147.595 73.9062L148.382 71.8195C148.406 71.7556 148.443 71.6982 148.492 71.6511C148.54 71.6042 148.597 71.5691 148.661 71.5481C148.724 71.5278 148.79 71.522 148.855 71.5311C148.92 71.5403 148.983 71.5641 149.039 71.601C149.393 71.8418 149.716 72.1272 150.002 72.4507C150.202 72.0019 150.366 71.5365 150.491 71.0595C150.508 70.9946 150.539 70.9344 150.58 70.883C150.622 70.8316 150.674 70.7905 150.733 70.7623C150.793 70.7341 150.856 70.7196 150.922 70.72C150.986 70.7203 151.05 70.7353 151.109 70.764C151.519 70.9653 151.873 71.2725 152.134 71.6562C152.169 71.7055 152.194 71.7614 152.208 71.8207C152.221 71.88 152.223 71.9416 152.214 72.0017C152.204 72.0619 152.183 72.1195 152.152 72.1713C152.121 72.223 152.08 72.2677 152.032 72.3029C151.985 72.3382 151.93 72.3632 151.873 72.3764C151.815 72.3896 151.756 72.391 151.697 72.3802C151.64 72.3695 151.584 72.3468 151.535 72.3137C151.485 72.2807 151.443 72.2377 151.41 72.1874C151.34 72.0841 151.259 71.9889 151.169 71.9034C150.984 72.4628 150.75 73.0038 150.471 73.5199C150.435 73.5884 150.381 73.646 150.317 73.6872C150.253 73.7284 150.178 73.7518 150.103 73.7553C150.027 73.7587 149.952 73.742 149.884 73.7069C149.817 73.6718 149.759 73.6192 149.717 73.5544C149.513 73.2444 149.271 72.9634 148.997 72.7185L148.403 74.2914C148.349 74.4374 148.202 74.8237 147.807 74.9088C147.459 74.9835 147.196 74.757 147.083 74.6604L146.323 74.0108C146.07 74.6066 145.959 75.2573 146.002 75.9067C146.007 75.9671 145.999 76.0277 145.98 76.0851C145.961 76.1424 145.932 76.1953 145.893 76.241C145.856 76.2866 145.809 76.3239 145.757 76.3508C145.705 76.3777 145.647 76.3937 145.589 76.3977L145.554 76.4Z" fill="white"/>
<path d="M70.2898 74.32C70.1074 74.32 69.9317 74.3143 69.7662 74.3052C69.6467 74.2986 69.5348 74.2443 69.4549 74.1544C69.3751 74.0645 69.334 73.9461 69.3405 73.8255C69.3472 73.7049 69.4009 73.5919 69.49 73.5113C69.5791 73.4307 69.6963 73.3893 69.8157 73.3958C70.9024 73.4584 72.4463 73.3402 73.6253 72.4319C74.6884 71.6135 75.1827 70.1801 74.774 69.0969C74.7314 68.9841 74.735 68.859 74.7839 68.7488C74.8327 68.6387 74.9229 68.5527 75.0346 68.5098C75.1464 68.4668 75.2705 68.4705 75.3795 68.5198C75.4886 68.5691 75.5737 68.6602 75.6163 68.7729C76.1703 70.2415 75.5622 72.0841 74.1715 73.1549C72.9609 74.0881 71.4711 74.32 70.2898 74.32Z" fill="black"/>
<path d="M64.413 40.16C64.3133 40.1601 64.2165 40.126 64.1387 40.0631C61.5469 38.0082 59.1461 35.7185 56.9663 33.2228C56.8903 33.133 56.8522 33.0165 56.8605 32.8985C56.8688 32.7806 56.9227 32.6707 57.0104 32.5925C57.0983 32.5143 57.213 32.4741 57.3298 32.4807C57.4466 32.4871 57.5563 32.5398 57.6351 32.6272C59.7785 35.082 62.1394 37.3339 64.6883 39.3549C64.7614 39.4128 64.8148 39.4922 64.8411 39.5821C64.8675 39.6721 64.8652 39.768 64.8349 39.8568C64.8046 39.9454 64.7476 40.0223 64.672 40.0765C64.5963 40.1309 64.5058 40.1601 64.413 40.16Z" fill="black"/>
<path d="M71.6019 34C71.5142 34 71.4285 33.9749 71.3548 33.9278C71.2811 33.8805 71.2229 33.8133 71.1868 33.734C67.8562 26.3763 64.7405 18.8101 61.9285 11.2472C61.9079 11.1916 61.8984 11.1326 61.9007 11.0733C61.9031 11.0141 61.9172 10.956 61.9422 10.9022C61.9672 10.8484 62.0027 10.8 62.0466 10.7598C62.0905 10.7196 62.1419 10.6884 62.198 10.6679C62.2541 10.6474 62.3137 10.638 62.3734 10.6404C62.4331 10.6426 62.4918 10.6566 62.546 10.6814C62.6004 10.7062 62.6492 10.7414 62.6898 10.7849C62.7302 10.8284 62.7619 10.8794 62.7824 10.935C65.59 18.4787 68.6954 26.0258 72.0203 33.3643C72.0515 33.433 72.0648 33.5083 72.0591 33.5833C72.0533 33.6584 72.0286 33.7309 71.9874 33.7941C71.9461 33.8573 71.8896 33.9093 71.8228 33.9452C71.7561 33.9812 71.6813 34 71.6053 34H71.6019Z" fill="black"/>
<path d="M81.6827 33.1989C81.5672 33.1991 81.4562 33.1553 81.3712 33.0766C81.2874 32.9981 81.2364 32.8904 81.2296 32.7757L80.6201 22.9585C80.6122 22.8391 80.653 22.7218 80.7334 22.6322C80.8127 22.5426 80.9249 22.4881 81.0449 22.4808C81.1662 22.4735 81.284 22.5139 81.3735 22.5931C81.4641 22.6725 81.5185 22.784 81.5264 22.9034L82.1382 32.7229C82.1461 32.8419 82.1053 32.9591 82.026 33.0485C81.9467 33.138 81.8346 33.1924 81.7145 33.2L81.6827 33.1989Z" fill="black"/>
<path d="M93.7038 21.3591C93.6861 21.3603 93.6673 21.3603 93.6495 21.3591C93.5919 21.352 93.5355 21.3333 93.4845 21.3042C93.4347 21.2752 93.3892 21.2361 93.3538 21.1894C93.3184 21.1427 93.2918 21.0893 93.2763 21.0322C93.2597 20.975 93.2563 20.9153 93.263 20.8565C93.86 15.8917 94.6232 10.8819 95.5292 5.96785C95.5491 5.86032 95.6067 5.76385 95.6909 5.69622C95.7751 5.62871 95.8814 5.59467 95.9889 5.60065C96.0963 5.60662 96.1971 5.65204 96.2746 5.72846C96.3511 5.80499 96.3987 5.90721 96.4065 6.01631L96.4585 6.71059C96.4652 6.79974 96.4452 6.88889 96.402 6.96677C96.3588 7.04465 96.2946 7.10765 96.2159 7.14789C95.393 11.7182 94.6963 16.3617 94.1424 20.9658C94.1291 21.0743 94.0771 21.1742 93.9962 21.2465C93.9154 21.3189 93.8113 21.3589 93.7038 21.3591Z" fill="black"/>
<path d="M99.2287 36.16C99.1702 36.1602 99.1128 36.1487 99.0588 36.1262C98.9485 36.0809 98.8607 35.9936 98.8146 35.8836C98.7685 35.7734 98.7674 35.6494 98.8124 35.5388C102.271 27.0691 106.202 18.8009 110.587 10.7732C110.648 10.675 110.743 10.6039 110.855 10.5747C110.966 10.5454 111.085 10.5602 111.186 10.6158C111.287 10.6715 111.363 10.7638 111.398 10.8738C111.433 10.9839 111.424 11.1031 111.375 11.2072C107.006 19.2046 103.092 27.4416 99.6462 35.8793C99.6124 35.9624 99.5539 36.0334 99.4796 36.0834C99.4054 36.1335 99.3176 36.1601 99.2287 36.16Z" fill="black"/>
<path d="M59.3146 129.04C59.2299 129.04 59.1469 129.018 59.0749 128.973C59.0029 128.929 58.9448 128.866 58.9071 128.792C58.8694 128.717 58.8535 128.634 58.8613 128.551C58.8691 128.467 58.9004 128.389 58.9514 128.322L60.8405 125.857C60.8766 125.811 60.9217 125.771 60.9734 125.742C61.025 125.711 61.0821 125.692 61.1414 125.685C61.2006 125.676 61.261 125.68 61.3188 125.695C61.3766 125.709 61.4311 125.735 61.4788 125.771C61.5265 125.807 61.5666 125.85 61.5969 125.902C61.6271 125.952 61.6469 126.008 61.6551 126.067C61.6633 126.125 61.6597 126.184 61.6446 126.241C61.6295 126.299 61.6031 126.352 61.567 126.398L59.6779 128.863C59.6353 128.919 59.5804 128.963 59.5173 128.994C59.4543 129.024 59.3849 129.041 59.3146 129.04Z" fill="black"/>
<path d="M65.9545 143.28C65.8803 143.281 65.8072 143.263 65.7417 143.228C65.6761 143.193 65.62 143.143 65.5783 143.082C65.5367 143.021 65.5107 142.951 65.5026 142.877C65.4947 142.804 65.5048 142.729 65.5323 142.66C67.6441 137.372 69.4718 131.974 71.0081 126.491C71.0405 126.375 71.1176 126.277 71.2226 126.218C71.3274 126.159 71.4516 126.145 71.5678 126.176C71.6838 126.209 71.7822 126.286 71.8414 126.39C71.9006 126.495 71.9157 126.619 71.8833 126.734C70.3383 132.25 68.4998 137.679 66.3757 142.999C66.3414 143.083 66.2829 143.154 66.208 143.204C66.133 143.254 66.0447 143.281 65.9545 143.28Z" fill="black"/>
<path d="M79.8817 154.32H79.839C79.7786 154.315 79.7198 154.297 79.6661 154.27C79.6124 154.242 79.5648 154.205 79.5261 154.158C79.4874 154.113 79.4583 154.06 79.4404 154.003C79.4225 153.946 79.4162 153.887 79.422 153.827L81.4539 132.492C81.4597 132.434 81.477 132.376 81.5059 132.323C81.5336 132.269 81.5729 132.223 81.6191 132.185C81.6664 132.147 81.7207 132.118 81.7785 132.101C81.8362 132.083 81.8974 132.077 81.9586 132.082C82.0187 132.087 82.0776 132.104 82.1319 132.132C82.1862 132.161 82.2336 132.198 82.2728 132.244C82.3121 132.29 82.341 132.343 82.3595 132.401C82.3768 132.457 82.3837 132.517 82.3779 132.576L80.3437 153.909C80.3331 154.022 80.2798 154.126 80.1942 154.203C80.1087 154.279 79.9972 154.321 79.8817 154.32Z" fill="black"/>
<path d="M94.6567 146.64C94.5487 146.641 94.443 146.603 94.3617 146.53C94.2793 146.458 94.2258 146.358 94.2114 146.248C93.6413 141.988 93.187 137.654 92.8607 133.369C92.8563 133.311 92.8629 133.251 92.8807 133.194C92.8997 133.137 92.9286 133.084 92.9665 133.039C93.0043 132.993 93.0511 132.957 93.1034 132.93C93.1558 132.903 93.2126 132.886 93.2716 132.881C93.3295 132.877 93.3885 132.885 93.4442 132.903C93.4998 132.921 93.5522 132.95 93.5967 132.99C93.6413 133.028 93.678 133.076 93.7047 133.129C93.7303 133.183 93.747 133.24 93.7515 133.299C94.0755 137.567 94.5309 141.883 95.0954 146.126C95.111 146.245 95.0799 146.366 95.0086 146.461C94.9373 146.557 94.8316 146.62 94.7146 146.635C94.6957 146.639 94.6757 146.64 94.6567 146.64Z" fill="black"/>
<path d="M104.331 130.32C104.245 130.32 104.16 130.295 104.088 130.247C104.015 130.199 103.958 130.132 103.922 130.052C102.431 126.68 101.224 123.186 100.315 119.608C100.285 119.492 100.303 119.368 100.363 119.264C100.424 119.16 100.523 119.084 100.637 119.055C100.753 119.024 100.875 119.042 100.978 119.103C101.081 119.165 101.155 119.265 101.185 119.381C102.082 122.909 103.271 126.354 104.741 129.679C104.79 129.789 104.794 129.914 104.751 130.027C104.71 130.14 104.625 130.231 104.517 130.28C104.458 130.307 104.395 130.321 104.331 130.32Z" fill="black"/>
<path d="M91.7807 73.8388C91.7424 73.8391 91.7052 73.8345 91.6681 73.8253C88.9007 73.1328 86.6818 71.8314 84.3335 70.4543C83.3997 69.9076 82.4356 69.3416 81.405 68.7994C78.2693 67.1421 74.1436 65.3403 70.0505 66.139C69.9916 66.1524 69.9306 66.1539 69.8712 66.1432C69.8118 66.1326 69.755 66.11 69.7044 66.0769C69.6538 66.0439 69.6104 66.0008 69.5767 65.9506C69.543 65.9003 69.5197 65.8438 69.5082 65.7843C69.4967 65.7249 69.4973 65.6637 69.5099 65.6044C69.5224 65.5452 69.5467 65.4891 69.5814 65.4395C69.616 65.3898 69.6602 65.3477 69.7114 65.3155C69.7625 65.2834 69.8196 65.2618 69.8793 65.2522C74.2484 64.4016 78.5588 66.2689 81.8251 68.0007C82.8681 68.552 83.8412 69.1225 84.7829 69.6737C87.0749 71.018 89.2397 72.2867 91.8787 72.9498C91.9857 72.9767 92.0792 73.042 92.1411 73.1331C92.2031 73.2244 92.2301 73.3353 92.2166 73.445C92.202 73.5547 92.149 73.6555 92.0657 73.7282C91.9835 73.801 91.8764 73.8408 91.7661 73.84L91.7807 73.8388Z" fill="black"/>
<path d="M44.0156 78.8C43.9041 78.8001 43.797 78.7564 43.7164 78.678C43.6359 78.5998 43.5882 78.4928 43.5835 78.3796C43.5394 77.2129 43.9271 76.0717 44.6704 75.1811C44.7462 75.0978 44.8508 75.0474 44.9623 75.0407C45.0738 75.034 45.1836 75.0714 45.2685 75.1451C45.3534 75.2188 45.407 75.3229 45.418 75.4359C45.4289 75.5488 45.3964 75.6617 45.3273 75.7508C44.7255 76.4726 44.4114 77.3971 44.4467 78.3423C44.4518 78.4586 44.4111 78.5721 44.3337 78.6579C44.2562 78.7438 44.1485 78.7949 44.034 78.8H44.0156Z" fill="white"/>
<path d="M87.8159 100.079C87.7033 100.08 87.5942 100.04 87.51 99.9653C87.4259 99.8898 87.3725 99.7872 87.3611 99.6756C86.9813 95.9396 87.6738 92.172 89.3587 88.8081C89.4133 88.7021 89.5076 88.6209 89.6225 88.5826C89.7362 88.5454 89.8612 88.5544 89.9692 88.6074C90.0773 88.6615 90.1591 88.7551 90.1966 88.869C90.2342 88.9828 90.2262 89.1068 90.1716 89.2128C88.5628 92.4234 87.9023 96.0185 88.2661 99.5843C88.2718 99.644 88.2661 99.7038 88.249 99.7601C88.232 99.8165 88.2047 99.8695 88.166 99.9157C88.1285 99.9619 88.0819 100 88.0296 100.027C87.9773 100.055 87.9193 100.074 87.8602 100.079C87.8454 100.08 87.8306 100.08 87.8159 100.079Z" fill="white"/>
<path d="M85.8265 94.5127C85.8788 95.3824 86.5926 96.1411 87.437 96.3311C88.2814 96.5211 88.9509 96.3162 89.5964 95.7395C89.9476 95.4282 90.1681 94.9945 90.2124 94.5253C90.2556 94.0562 90.1204 93.587 89.8328 93.2151C89.4623 92.7665 88.6963 92.1611 88.1178 92.16C86.0118 92.1554 85.7742 93.6431 85.8265 94.5127Z" fill="black"/>
<path d="M87.9822 96.8C87.752 96.7989 87.5217 96.772 87.2971 96.7206C86.2294 96.4846 85.4088 95.5652 85.3468 94.5339C85.3118 93.9512 85.393 93.128 85.9799 92.5105C86.454 92.0128 87.156 91.76 88.0657 91.76H88.0759C88.849 91.76 89.7249 92.4747 90.1255 92.9535C90.8829 93.8572 90.7553 95.243 89.8434 96.0417C89.2598 96.5517 88.656 96.8 87.9822 96.8ZM86.2486 94.4802C86.2869 95.1111 86.8219 95.6994 87.4901 95.8482C88.1583 95.9969 88.6876 95.8549 89.2407 95.3706C89.5014 95.1435 89.6662 94.827 89.7012 94.4847C89.735 94.1424 89.6368 93.7991 89.4269 93.525C89.0826 93.1145 88.4416 92.6559 88.0725 92.6548H88.0635C87.4122 92.6548 86.9348 92.8125 86.6346 93.1246C86.2497 93.5295 86.226 94.148 86.2463 94.4802H86.2486Z" fill="black"/>
<path d="M13.1573 81.12C11.4532 81.12 9.72784 80.1034 8.77354 78.5145C7.89903 77.046 7.93276 75.172 8.86233 73.4866C9.81552 71.7606 11.4948 70.6694 13.2461 70.64H13.309C14.8388 70.64 16.3327 71.625 17.4174 73.3511C18.3964 74.911 19.1124 77.3047 17.9097 78.9155C17.5377 79.4148 17.0318 79.7469 16.5406 80.0311C15.4166 80.6829 14.4567 81.0251 13.5192 81.1053C13.4001 81.1155 13.2787 81.12 13.1573 81.12ZM13.309 71.5426H13.2607C11.8287 71.5674 10.4439 72.4813 9.64691 73.9249C8.8747 75.3245 8.83536 76.8619 9.54238 78.0491C10.3899 79.4667 11.9546 80.3316 13.4405 80.2039C14.2409 80.135 15.0828 79.8316 16.0888 79.2476C16.4968 79.0104 16.9127 78.7415 17.1881 78.3721C18.057 77.2075 17.5466 75.2533 16.6542 73.8323C16.2237 73.141 15.0333 71.5426 13.309 71.5426Z" fill="#1B5EC9"/>
<path d="M11.8693 78.08C11.7501 78.08 11.6357 78.0321 11.5515 77.947C11.4672 77.8619 11.4199 77.7465 11.4199 77.6262C11.4199 76.6947 11.6446 75.0972 12.0704 73.9728C12.1126 73.8602 12.1976 73.7693 12.3062 73.7199C12.4149 73.6705 12.5386 73.6668 12.6501 73.7096C12.7615 73.7522 12.8515 73.838 12.9004 73.9477C12.9493 74.0576 12.953 74.1825 12.9107 74.295C12.5411 75.281 12.3187 76.7627 12.3187 77.6262C12.3187 77.7465 12.2713 77.8619 12.187 77.947C12.1027 78.0321 11.9885 78.08 11.8693 78.08Z" fill="#1B5EC9"/>
<path d="M13.5283 78.64C13.4933 78.6403 13.4584 78.6374 13.4242 78.6309C13.3588 78.6188 13.2967 78.5953 13.2414 78.5617C13.1862 78.5281 13.1389 78.4852 13.1023 78.4353C13.0658 78.3854 13.0406 78.3295 13.0283 78.2709C13.016 78.2123 13.0166 78.1522 13.0305 78.0938L13.8548 74.5982C13.8828 74.481 13.962 74.3786 14.0745 74.3133C14.1872 74.2479 14.3242 74.225 14.4557 74.2496C14.5871 74.2742 14.7023 74.3442 14.7761 74.4444C14.8498 74.5445 14.8761 74.6666 14.8493 74.784L14.0288 78.2808C14.0044 78.383 13.9414 78.4744 13.8502 78.5399C13.759 78.6054 13.6453 78.6408 13.5283 78.64Z" fill="#1B5EC9"/>
</g>
<defs>
<clipPath id="clip0_165_8138">
<rect width="160" height="160" fill="white" transform="translate(0.5)"/>
</clipPath>
</defs>
</svg>
