<svg width="161" height="160" viewBox="0 0 161 160" fill="none" xmlns="http://www.w3.org/2000/svg">
<g clip-path="url(#clip0_165_1964)">
<path d="M44.4558 94.72C37.3844 100.694 31.9386 108.356 28.6237 116.993C27.7432 119.296 26.2842 122.523 23.8205 122.391C22.8998 122.343 21.9475 122.068 21.0938 121.72C19.6323 121.125 18.8895 119.668 16.9092 120.115C16.0567 120.308 14.6806 122.133 16.8715 123.287C16.8715 123.287 22.3262 125.003 19.5727 126.022C17.1467 126.92 14.0997 126.981 12.128 128.367C11.2438 128.988 11.3059 130.301 12.6516 130.534C13.6892 130.712 14.8572 130.43 15.8765 130.09C17.1552 129.663 18.49 129.117 19.8028 129.106C20.3423 129.106 20.5214 129.653 20.3058 130.147C19.0015 133.137 16.6437 132.78 16.0056 134.903C15.4149 136.869 18.1502 137.651 19.1513 137.055C20.3838 136.325 20.6273 135.278 21.8038 133.809C23.2311 132.026 24.2894 131.287 25.4719 131.31C25.6674 131.316 25.8536 131.395 25.9932 131.531C27.2025 132.707 26.473 134.499 26.227 136.062C25.9944 137.544 27.2573 139.406 29.1791 138.31C31.0655 137.233 29.8939 134.174 30.051 132.053C30.1996 130.039 31.3602 127.703 33.3831 127.655C34.6228 127.625 35.686 128.484 36.8625 128.871C38.1863 129.311 40.2042 128.64 39.6355 127.038C39.5051 126.688 39.282 126.379 38.9899 126.145C38.6979 125.911 38.3478 125.761 37.9768 125.71C34.5169 125.189 29.5883 125.16 30.2081 122.721C30.3494 122.165 30.8098 120.979 30.9827 120.433C33.7837 111.553 39.0522 102.845 47.2191 98.3557L44.4558 94.72Z" fill="#FF6800"/>
<path d="M145.501 26.2374C153.148 27.2918 160.329 25.4602 158.318 35.7022C150.877 73.5859 148.376 95.8565 149.889 126.696C150.198 132.996 151.389 136.618 145.129 135.469C110.987 129.199 91.8063 120.022 63.0944 111.307C60.4541 94.8252 58.2421 77.692 51.274 62.1301C49.1508 56.9452 46.6919 51.6034 47.1068 46.016C48.0497 34.4616 58.9089 28.502 68.7521 25.0965C70.9422 24.0116 73.5801 24.3351 75.9636 24.2999C79.0994 24.2537 82.2356 24.2342 85.3711 24.2415C104.871 24.2913 126.123 24.0736 145.501 26.2374Z" fill="#F2DFE7"/>
<path d="M116.977 141.042C117.233 141.137 123.725 143.786 124.787 144.19C124.904 144.235 125.031 144.249 125.155 144.235C125.279 144.219 125.397 144.173 125.499 144.101C125.601 144.029 125.684 143.933 125.741 143.821C125.797 143.709 125.825 143.585 125.821 143.46C125.807 142.634 125.793 141.808 125.78 140.982C127.276 141.542 128.753 142.15 130.21 142.807C130.412 142.899 130.633 142.937 130.854 142.918C131.075 142.9 131.286 142.825 131.47 142.701C131.654 142.575 131.802 142.406 131.901 142.208C131.999 142.01 132.045 141.79 132.034 141.568C131.966 140.19 131.905 138.811 131.852 137.433C131.953 137.452 132.053 137.473 132.154 137.497C134.871 138.137 137.542 139.381 139.999 140.806C140.168 140.904 140.36 140.955 140.556 140.954C140.752 140.953 140.944 140.899 141.112 140.798C141.28 140.699 141.418 140.555 141.511 140.382C141.605 140.211 141.651 140.017 141.644 139.822C140.306 104.593 143.212 68.9852 152.559 35.0005C153.458 31.7285 151.869 31.8976 150.271 31.7334C135.263 30.1862 80.3029 26.3255 66.0996 24.4L116.977 141.042Z" fill="white"/>
<path d="M140.832 141.52C140.454 141.505 140.088 141.394 139.766 141.199C138.577 140.54 137.74 140.104 137.731 140.095C137.673 140.066 137.622 140.026 137.579 139.977C137.537 139.929 137.505 139.871 137.484 139.809C137.465 139.747 137.458 139.683 137.462 139.618C137.468 139.554 137.487 139.491 137.517 139.433C137.546 139.375 137.588 139.325 137.639 139.284C137.689 139.242 137.746 139.212 137.808 139.193C137.87 139.174 137.936 139.168 138 139.176C138.064 139.183 138.126 139.202 138.184 139.234C138.192 139.234 139.035 139.683 140.238 140.347C140.568 140.531 140.839 140.59 140.968 140.517C141.097 140.444 141.181 140.201 141.166 139.806C139.693 101.729 142.747 71.1948 151.383 37.7251C151.399 37.6633 151.427 37.6052 151.466 37.5541C151.503 37.503 151.552 37.4599 151.607 37.4275C151.663 37.395 151.723 37.3737 151.787 37.3648C151.85 37.3558 151.914 37.3595 151.976 37.3754C152.037 37.3914 152.096 37.4194 152.147 37.4579C152.198 37.4963 152.242 37.5445 152.273 37.5996C152.306 37.6546 152.327 37.7155 152.336 37.7788C152.345 37.8422 152.341 37.9066 152.326 37.9684C143.714 71.3469 140.666 101.791 142.135 139.768C142.163 140.498 141.924 141.07 141.476 141.349C141.282 141.466 141.058 141.525 140.832 141.52Z" fill="#181E32"/>
<path d="M139.577 62.4001C139.504 62.4002 139.434 62.3841 139.368 62.353C139.302 62.3218 139.244 62.2765 139.198 62.2201C139.152 62.1638 139.119 62.0978 139.102 62.0274C139.086 61.9568 139.085 61.8834 139.1 61.8124C140.615 54.6098 142.415 46.8014 144.603 37.9393C144.69 37.5869 144.638 37.2142 144.454 36.9006C144.27 36.5872 143.971 36.3578 143.62 36.2615C140.817 35.4768 137.837 34.9938 132.219 34.4159C132.09 34.4028 131.972 34.339 131.889 34.2385C131.807 34.138 131.768 34.009 131.782 33.8799C131.794 33.7508 131.859 33.6322 131.959 33.5502C132.06 33.4682 132.189 33.4295 132.318 33.4425C137.999 34.0265 141.025 34.5168 143.885 35.3186C144.48 35.4827 144.987 35.8726 145.297 36.4047C145.608 36.9369 145.698 37.5692 145.548 38.1668C143.364 47.0167 141.567 54.8155 140.054 62.0071C140.032 62.1174 139.974 62.217 139.886 62.2886C139.799 62.3603 139.691 62.3996 139.577 62.4001Z" fill="#181E32"/>
<path d="M137.449 73.12C137.414 73.1198 137.38 73.1156 137.346 73.1078C137.141 73.0616 136.914 72.9033 136.999 72.4141C137.018 72.3021 137.054 72.1037 137.118 71.7568C137.276 70.9048 137.556 69.4527 137.954 67.4322C137.966 67.3694 137.991 67.3098 138.026 67.2566C138.06 67.2034 138.105 67.1578 138.157 67.1222C138.21 67.0867 138.268 67.062 138.329 67.0494C138.391 67.0369 138.454 67.0369 138.517 67.0494C138.577 67.0619 138.636 67.0866 138.689 67.1221C138.741 67.1577 138.785 67.2033 138.82 67.2565C138.854 67.3097 138.88 67.3693 138.892 67.432C138.903 67.4948 138.903 67.5593 138.892 67.6221C138.13 71.5353 137.968 72.4299 137.936 72.6319C137.935 72.6664 137.93 72.7007 137.922 72.7342C137.899 72.8442 137.839 72.9429 137.753 73.0133C137.667 73.0836 137.56 73.1213 137.449 73.12Z" fill="#181E32"/>
<path d="M130.738 143.356C130.432 143.355 130.13 143.275 129.864 143.123C129.347 142.83 129.255 142.777 127.169 142.109C127.107 142.091 127.049 142.061 126.999 142.019C126.949 141.978 126.908 141.928 126.877 141.871C126.847 141.813 126.828 141.75 126.822 141.685C126.816 141.621 126.824 141.556 126.843 141.494C126.863 141.432 126.894 141.375 126.937 141.326C126.979 141.276 127.03 141.236 127.089 141.207C127.146 141.178 127.209 141.161 127.274 141.156C127.338 141.152 127.404 141.161 127.465 141.181C129.524 141.84 129.724 141.924 130.343 142.277C130.468 142.348 130.611 142.385 130.754 142.382C130.898 142.38 131.039 142.338 131.162 142.262C131.284 142.186 131.384 142.079 131.451 141.952C131.518 141.824 131.55 141.681 131.542 141.537C130.726 124.02 131.716 106.121 134.571 86.8159C134.591 86.6881 134.659 86.5724 134.764 86.4956C134.867 86.4189 134.997 86.386 135.125 86.4055C135.253 86.425 135.368 86.4932 135.445 86.5979C135.521 86.7014 135.554 86.8318 135.535 86.9596C132.689 106.201 131.7 124.038 132.514 141.491C132.525 141.732 132.488 141.972 132.402 142.197C132.318 142.422 132.19 142.629 132.024 142.803C131.857 142.978 131.658 143.118 131.438 143.213C131.216 143.309 130.979 143.359 130.738 143.36V143.356Z" fill="#181E32"/>
<path d="M125.061 144.639C124.871 144.641 124.684 144.6 124.513 144.517C123.365 143.961 122.188 143.467 120.987 143.036C120.925 143.018 120.867 142.987 120.816 142.945C120.766 142.904 120.726 142.853 120.696 142.794C120.667 142.737 120.649 142.674 120.644 142.609C120.638 142.545 120.646 142.479 120.667 142.417C120.687 142.356 120.719 142.299 120.763 142.251C120.805 142.202 120.858 142.162 120.916 142.134C120.974 142.105 121.038 142.089 121.102 142.085C121.166 142.081 121.232 142.091 121.293 142.113C122.538 142.557 123.757 143.068 124.947 143.644C124.988 143.664 125.034 143.674 125.082 143.672C125.128 143.668 125.173 143.655 125.212 143.629C125.252 143.602 125.283 143.566 125.305 143.523C125.326 143.481 125.336 143.433 125.333 143.386C124.9 115.838 127.196 90.1884 129.626 63.0315C130.319 55.283 131.037 47.2704 131.682 39.2336C131.709 38.9121 131.617 38.5919 131.422 38.3347C131.228 38.0777 130.944 37.9016 130.628 37.8405C128.103 37.3539 123.956 36.7724 118.54 36.7724C90.5757 36.7724 66.6077 34.164 45.2683 28.7987C45.1432 28.7672 45.0356 28.6874 44.9694 28.5766C44.9032 28.4659 44.8836 28.3333 44.9151 28.2081C44.9465 28.0829 45.0263 27.9754 45.137 27.909C45.2477 27.8427 45.3801 27.8232 45.5054 27.8547C66.7658 33.2004 90.6559 35.7991 118.54 35.7991C124.032 35.7991 128.245 36.3891 130.813 36.8855C131.365 36.9918 131.857 37.2983 132.197 37.746C132.537 38.1939 132.699 38.7513 132.653 39.3114C132.006 47.3532 131.288 55.3706 130.595 63.1179C128.164 90.2481 125.874 115.875 126.306 143.37C126.308 143.535 126.279 143.7 126.217 143.854C126.156 144.007 126.065 144.147 125.95 144.266C125.833 144.384 125.696 144.478 125.542 144.543C125.39 144.607 125.226 144.64 125.061 144.64V144.639Z" fill="#181E32"/>
<path d="M30.9004 39.4575C33.3679 68.1553 39.1834 96.4644 48.2283 123.808C49.085 126.393 50.0401 129.082 52.0378 130.931C53.982 132.73 56.6408 133.487 59.1999 134.157C76.9957 138.503 95.2896 143.989 113.517 145.921C117.295 146.321 120.995 145.352 120.755 139.635C118.967 96.9024 122.664 68.9546 124.013 44.8495C124.228 40.9883 119.586 41.5274 113.912 41.6162C89.8725 41.9922 62.4394 36.2206 49.2041 31.7364C44.2451 30.0559 36.5909 27.8546 34.1278 33.8927L30.9004 39.4575Z" fill="#F2DFE7"/>
<path d="M105.258 67.12C104.574 67.12 104.076 66.5854 103.684 66.1648C103.58 66.0533 103.472 65.9381 103.362 65.829C101.609 64.0944 99.0851 63.0532 95.8538 62.7344C95.6779 62.7162 95.5007 62.7029 95.3235 62.6896C94.6757 62.6411 94.0072 62.5914 93.3595 62.3514C92.812 62.1477 91.1451 61.5307 90.875 59.8543C90.71 58.8301 90.7723 57.4034 93.2141 56.8409C95.519 56.31 100.236 57.5585 102.869 59.9634C103.083 60.1598 103.299 60.3525 103.516 60.5441C104.564 61.475 105.648 62.4362 106.347 63.7247L106.388 63.8011C106.839 64.6278 107.592 66.0108 106.085 66.8763C105.836 67.0297 105.551 67.1138 105.258 67.12ZM94.4594 57.6846C94.116 57.6801 93.7738 57.7139 93.4377 57.7852C91.6046 58.2082 91.7414 59.0713 91.849 59.7016C92.0103 60.7041 92.9892 61.1756 93.7115 61.4423C94.2284 61.635 94.8004 61.6774 95.4065 61.7235C95.5911 61.7368 95.7732 61.7514 95.9589 61.7695C99.4175 62.1114 102.144 63.2459 104.062 65.1417C104.184 65.263 104.306 65.3842 104.41 65.5054C105.021 66.1563 105.186 66.2739 105.6 66.0363C106.2 65.6908 106.126 65.3478 105.533 64.2605L105.491 64.1841C104.873 63.0447 103.903 62.1805 102.869 61.2653C102.649 61.0701 102.428 60.8738 102.211 60.675C100.173 58.8204 96.6922 57.6846 94.4594 57.6846Z" fill="white"/>
<path d="M91.3254 70.9572C89.9249 71.3575 89.3662 73.4101 90.3702 74.4626C91.3742 75.515 93.4592 75.0551 93.9264 73.679C94.3937 72.3029 93.02 70.6749 91.5804 70.9012L91.3254 70.9572Z" fill="#181E32"/>
<path d="M91.8146 75.5196C91.4825 75.5259 91.1528 75.4645 90.8462 75.3394C90.5385 75.2143 90.2599 75.0281 90.0275 74.7919C89.4387 74.1747 89.2355 73.259 89.4861 72.3398C89.7368 71.4205 90.3767 70.7317 91.1978 70.4964C91.2501 70.482 91.3049 70.4759 91.3584 70.4782C91.4059 70.4534 91.457 70.4366 91.5105 70.4285C92.3548 70.2915 93.2295 70.6553 93.8377 71.3829C94.446 72.1106 94.6565 73.0286 94.3828 73.8339C94.1091 74.6391 93.3876 75.2443 92.4545 75.4505C92.2441 75.4962 92.0299 75.5193 91.8146 75.5196ZM91.5604 71.3963C91.5299 71.4122 91.4983 71.4253 91.4655 71.4351C90.9788 71.5721 90.5835 72.0184 90.4253 72.5981C90.2672 73.1778 90.3852 73.7647 90.7319 74.1274C91.0786 74.49 91.6601 74.6343 92.2489 74.5045C92.8377 74.3748 93.3037 74 93.4655 73.5258C93.6273 73.0517 93.4862 72.4708 93.1005 72.0111C92.7149 71.5515 92.1626 71.3138 91.665 71.3914C91.6309 71.3957 91.5956 71.3962 91.5604 71.3926V71.3963Z" fill="#181E32"/>
<path d="M49.9503 145.92C49.1152 145.92 48.2802 145.554 47.8985 144.759C47.6384 144.215 47.6323 143.539 47.8839 142.761C48.567 140.631 50.3612 139.177 52.1383 137.87C55.2403 135.591 58.4833 133.425 61.7762 131.43C61.8309 131.398 61.8915 131.376 61.9547 131.366C62.0178 131.356 62.0822 131.358 62.1444 131.374C62.2063 131.39 62.2647 131.417 62.3162 131.455C62.3676 131.493 62.4112 131.542 62.4441 131.596C62.4772 131.651 62.4992 131.711 62.5088 131.775C62.5184 131.838 62.5155 131.903 62.5001 131.965C62.4848 132.027 62.4575 132.086 62.4197 132.138C62.3817 132.19 62.3341 132.234 62.2794 132.267C59.0108 134.246 55.7921 136.397 52.712 138.659C51.0625 139.871 49.4021 141.209 48.8077 143.061C48.6363 143.596 48.6242 144.024 48.7737 144.337C49.0545 144.925 49.9345 145.069 50.5787 144.836C51.2971 144.576 51.8927 143.968 52.4701 143.381L52.5722 143.277C56.8332 138.964 61.9873 135.644 67.669 133.554C67.7297 133.53 67.7946 133.518 67.86 133.518C67.9254 133.519 67.9899 133.534 68.0497 133.56C68.1095 133.586 68.1634 133.625 68.208 133.673C68.2527 133.72 68.2873 133.778 68.3098 133.839C68.3321 133.901 68.342 133.967 68.3386 134.032C68.335 134.097 68.3185 134.162 68.2898 134.221C68.2611 134.279 68.2208 134.332 68.1714 134.376C68.122 134.418 68.0645 134.451 68.0021 134.471C62.4558 136.512 57.4242 139.752 53.2638 143.963L53.1617 144.067C52.509 144.732 51.8344 145.42 50.9094 145.754C50.6017 145.865 50.2772 145.921 49.9503 145.92Z" fill="#181E32"/>
<path d="M79.9472 151.92C79.8702 151.92 79.7942 151.903 79.7255 151.867C78.8009 151.394 78.5207 150.248 78.7217 149.361C78.9154 148.505 79.4672 147.81 79.9703 147.226C83.4322 143.203 87.8309 140.101 92.7754 138.196C92.8351 138.171 92.8996 138.159 92.9642 138.16C93.0288 138.161 93.0933 138.175 93.1518 138.2C93.2115 138.227 93.2651 138.264 93.3102 138.312C93.354 138.358 93.3893 138.413 93.4125 138.474C93.4356 138.536 93.4466 138.6 93.4441 138.665C93.4429 138.73 93.4271 138.794 93.4003 138.852C93.3735 138.912 93.3357 138.965 93.2882 139.009C93.2407 139.053 93.1847 139.087 93.1238 139.109C88.3304 140.956 84.0656 143.964 80.7084 147.864C80.2627 148.383 79.8156 148.942 79.6719 149.577C79.5732 150.014 79.6719 150.566 79.9861 150.864C82.3833 149.655 84.6223 147.951 86.7894 146.302C90.4572 143.51 94.2506 140.623 98.8978 140.077C98.9624 140.067 99.0294 140.069 99.0927 140.087C99.1561 140.102 99.2157 140.131 99.2681 140.171C99.3193 140.21 99.3631 140.26 99.396 140.318C99.4289 140.375 99.4496 140.438 99.4569 140.504C99.4642 140.568 99.4594 140.634 99.4399 140.698C99.4216 140.762 99.3912 140.82 99.3497 140.871C99.3083 140.922 99.2559 140.963 99.1987 140.994C99.1402 141.025 99.0769 141.043 99.0111 141.048C94.6258 141.564 91.1065 144.244 87.3778 147.081C85.0974 148.817 82.739 150.613 80.1591 151.87C80.0931 151.903 80.0206 151.92 79.9472 151.92Z" fill="#181E32"/>
<path d="M40.7051 131.355C40.265 132.41 40.2188 133.588 40.2832 134.729C40.4341 137.39 41.1438 139.988 42.3661 142.355C43.2573 144.079 44.4939 145.728 46.257 146.531C48.02 147.333 50.3825 147.032 51.4999 145.447C52.0921 144.608 52.2684 143.547 52.351 142.52C52.5241 140.388 52.3699 138.244 51.8939 136.16C51.4075 134.046 50.5466 131.936 48.9453 130.478C47.9818 129.597 46.764 129.046 45.4678 128.906C44.3991 128.801 42.9996 129.012 42.0876 129.622C41.4687 130.052 40.9883 130.655 40.7051 131.355Z" fill="#181E32"/>
<path d="M48.2613 147.44C47.5018 147.444 46.7501 147.285 46.0555 146.977C44.4533 146.245 43.0674 144.768 41.9389 142.586C40.6889 140.159 39.9618 137.494 39.8048 134.766C39.7465 133.744 39.7477 132.412 40.2627 131.175C40.5824 130.386 41.1239 129.708 41.8211 129.224C42.9338 128.477 44.5068 128.328 45.5149 128.427C46.914 128.576 48.2289 129.171 49.267 130.124C50.7246 131.45 51.7644 133.446 52.3608 136.057C52.8486 138.189 53.0064 140.384 52.8285 142.564C52.7446 143.59 52.5685 144.769 51.8907 145.735C51.0538 146.918 49.6484 147.44 48.2613 147.44ZM41.1591 131.548C40.7206 132.602 40.7231 133.79 40.7741 134.707C40.9236 137.299 41.6143 139.83 42.8014 142.135C43.8277 144.121 45.057 145.452 46.4563 146.089C47.9418 146.766 50.0845 146.607 51.0976 145.169C51.6393 144.399 51.7875 143.381 51.8604 142.486C52.0297 140.405 51.8794 138.311 51.4146 136.277C50.8631 133.863 49.9205 132.037 48.6148 130.847C47.7324 130.036 46.6148 129.529 45.425 129.399C44.508 129.309 43.2058 129.471 42.3653 130.036C41.8271 130.413 41.4092 130.938 41.1628 131.548H41.1591Z" fill="#181E32"/>
<path d="M49.8432 144.318C49.8215 144.321 49.7999 144.321 49.7784 144.318C49.6499 144.301 49.5335 144.234 49.4547 144.133C49.3759 144.031 49.3411 143.901 49.3582 143.774C49.7125 141.132 49.4901 138.758 48.6986 136.717C47.7947 134.384 46.1079 132.537 44.0716 131.65C43.9529 131.598 43.8597 131.502 43.8127 131.382C43.7655 131.262 43.7685 131.128 43.8206 131.011C43.8728 130.892 43.9699 130.8 44.0907 130.754C44.2116 130.706 44.3462 130.709 44.4649 130.761C46.7381 131.752 48.618 133.792 49.6111 136.369C50.4661 138.562 50.7019 141.098 50.3269 143.901C50.3104 144.017 50.2524 144.123 50.1634 144.199C50.0746 144.276 49.9608 144.318 49.8432 144.318Z" fill="white"/>
<path d="M46.3363 136.8C46.304 136.8 46.272 136.796 46.2406 136.79L42.9574 136.14C42.8341 136.112 42.7265 136.039 42.6578 135.934C42.5891 135.83 42.5647 135.703 42.5896 135.582C42.6146 135.46 42.687 135.352 42.7916 135.283C42.896 135.213 43.0243 135.186 43.1488 135.207L46.432 135.858C46.5496 135.882 46.6542 135.947 46.7255 136.042C46.7967 136.136 46.8296 136.254 46.8177 136.372C46.8058 136.488 46.75 136.598 46.6609 136.676C46.572 136.756 46.4563 136.8 46.3363 136.8Z" fill="white"/>
<path d="M46.4889 139.36C46.4299 139.36 46.3713 139.35 46.316 139.33C45.4897 139.023 44.6267 138.825 43.7486 138.738C43.6836 138.732 43.6206 138.712 43.5631 138.683C43.5056 138.653 43.4548 138.611 43.4134 138.561C43.372 138.511 43.341 138.454 43.3221 138.393C43.3032 138.331 43.2968 138.266 43.3032 138.203C43.3095 138.138 43.3286 138.076 43.3594 138.02C43.3902 137.962 43.4319 137.912 43.4823 137.871C43.5329 137.831 43.5909 137.8 43.6533 137.781C43.7157 137.762 43.7812 137.756 43.8462 137.762C44.8094 137.86 45.7559 138.079 46.6619 138.416C46.7698 138.456 46.86 138.533 46.9168 138.632C46.9736 138.732 46.9934 138.847 46.9729 138.959C46.9524 139.071 46.8927 139.173 46.8044 139.247C46.7159 139.32 46.6043 139.36 46.4889 139.36Z" fill="white"/>
<path d="M46.3106 142.239C46.2941 142.24 46.2775 142.24 46.2609 142.239L44.6185 142.066C44.4899 142.053 44.3717 141.986 44.2899 141.881C44.208 141.774 44.1693 141.639 44.1821 141.503C44.195 141.367 44.2583 141.243 44.3585 141.156C44.4585 141.069 44.5868 141.03 44.7154 141.042L46.3579 141.215C46.4865 141.222 46.6073 141.282 46.6939 141.383C46.7803 141.484 46.8254 141.617 46.8191 141.753C46.8129 141.888 46.7557 142.015 46.6604 142.107C46.565 142.198 46.4392 142.245 46.3106 142.239Z" fill="white"/>
<path d="M75.2051 148.919C75.6531 150.008 76.1487 151.105 76.9413 151.973C77.7339 152.842 78.8821 153.461 80.051 153.346C81.1297 153.241 82.077 152.528 82.7053 151.643C83.3335 150.759 83.6891 149.711 84.0044 148.671C84.735 146.28 85.2999 143.792 85.1002 141.301C84.7776 137.277 81.9686 133.308 77.5635 133.617C74.0898 133.861 73.2643 138.249 73.302 141.059C73.3373 143.777 74.1823 146.427 75.2051 148.919Z" fill="#181E32"/>
<path d="M79.7849 153.84C78.661 153.84 77.4885 153.279 76.592 152.296C75.7321 151.354 75.2188 150.202 74.7675 149.101C73.8857 146.954 72.8676 144.098 72.8214 141.07C72.8104 140.227 72.8712 138.061 73.6728 136.189C74.4744 134.317 75.8123 133.26 77.5298 133.138C82.3088 132.805 85.2426 137.074 85.5783 141.262C85.7948 143.963 85.1368 146.591 84.4629 148.806C84.1455 149.854 83.7769 150.958 83.097 151.916C82.3149 153.014 81.2214 153.709 80.0963 153.819C79.993 153.831 79.889 153.839 79.7849 153.84ZM75.6664 148.724C76.0848 149.743 76.5569 150.807 77.3098 151.632C78.087 152.487 79.0977 152.938 80.0111 152.853C80.8553 152.77 81.6945 152.224 82.3124 151.354C82.9085 150.516 83.2466 149.498 83.541 148.527C84.1868 146.4 84.8205 143.882 84.6162 141.345C84.3182 137.623 81.7602 133.827 77.6066 134.117C73.8225 134.382 73.792 140.375 73.8005 141.058C73.8382 143.922 74.8174 146.662 75.6664 148.729V148.724Z" fill="#181E32"/>
<path d="M81.9689 148.64C81.9314 148.64 81.8952 148.636 81.859 148.627C81.7974 148.612 81.7382 148.585 81.6875 148.549C81.6355 148.511 81.5908 148.464 81.5582 148.41C81.5244 148.356 81.5015 148.295 81.4906 148.232C81.4809 148.168 81.4821 148.104 81.4966 148.041C81.9459 146.044 81.9773 143.974 81.586 141.964C81.1959 139.953 80.3933 138.048 79.2296 136.37C79.1929 136.318 79.1668 136.259 79.1527 136.196C79.1386 136.134 79.1369 136.069 79.1475 136.006C79.1581 135.943 79.1809 135.882 79.2148 135.828C79.2486 135.774 79.2927 135.726 79.3444 135.69C79.3962 135.653 79.4548 135.626 79.5166 135.612C79.5786 135.598 79.6426 135.596 79.7051 135.607C79.7677 135.618 79.8276 135.641 79.8813 135.675C79.9351 135.709 79.9816 135.753 80.0183 135.806C81.2599 137.598 82.115 139.631 82.5317 141.776C82.9472 143.922 82.9146 146.132 82.4339 148.263C82.4097 148.369 82.3505 148.464 82.266 148.533C82.1814 148.601 82.0776 148.639 81.9689 148.64Z" fill="white"/>
<path d="M79.8485 141.52C79.8122 141.52 79.776 141.516 79.7407 141.508L75.2081 140.541C75.0798 140.513 74.9681 140.438 74.8976 140.331C74.8271 140.225 74.8036 140.096 74.8322 139.972C74.8607 139.849 74.9391 139.742 75.05 139.674C75.1609 139.607 75.2952 139.584 75.4235 139.611L79.955 140.58C80.0734 140.606 80.1778 140.673 80.2484 140.768C80.3188 140.863 80.3505 140.98 80.3374 141.095C80.3243 141.212 80.2672 141.319 80.177 141.397C80.0869 141.476 79.97 141.519 79.8485 141.52Z" fill="white"/>
<path d="M79.3261 143.828C79.3014 143.83 79.2764 143.83 79.2516 143.828L75.8844 143.345C75.7539 143.326 75.6367 143.258 75.5583 143.158C75.48 143.057 75.4469 142.93 75.4664 142.805C75.486 142.679 75.5567 142.568 75.6628 142.493C75.7689 142.418 75.9018 142.386 76.0322 142.405L79.3994 142.889C79.4647 142.894 79.5283 142.911 79.5868 142.939C79.6452 142.967 79.6972 143.006 79.7401 143.053C79.7828 143.101 79.8154 143.155 79.8358 143.215C79.8563 143.274 79.8644 143.337 79.8596 143.4C79.8549 143.461 79.8372 143.522 79.8078 143.578C79.7783 143.633 79.7377 143.683 79.6882 143.725C79.6386 143.765 79.5812 143.796 79.5191 143.816C79.457 143.835 79.3914 143.843 79.3261 143.839V143.828Z" fill="white"/>
<path d="M78.2505 146.96C78.2068 146.96 78.1631 146.954 78.121 146.942L76.2994 146.458C76.1744 146.424 76.068 146.344 76.0037 146.234C75.9395 146.124 75.9226 145.994 75.9567 145.872C75.9909 145.749 76.0734 145.645 76.186 145.582C76.2987 145.52 76.4322 145.503 76.5572 145.537L78.3788 146.022C78.4926 146.052 78.5914 146.121 78.657 146.218C78.7226 146.313 78.7504 146.429 78.7355 146.544C78.7207 146.657 78.664 146.762 78.576 146.84C78.488 146.916 78.3745 146.959 78.2566 146.96H78.2505Z" fill="white"/>
<path d="M109.983 160C109.116 160 108.403 159.894 108.007 159.621C107.469 159.25 107.272 158.634 107.13 158.086C106.748 156.617 106.537 155.61 106.258 153.939C106.243 153.854 106.227 153.767 106.211 153.681C106.1 153.076 105.968 152.383 106.384 151.899C106.642 151.594 107.035 151.447 107.599 151.455C112.071 151.501 114.581 150.652 116.415 150.032C116.801 149.902 117.165 149.778 117.516 149.67C117.737 149.603 117.97 149.584 118.2 149.614C118.429 149.643 118.65 149.719 118.847 149.839C119.045 149.959 119.215 150.118 119.348 150.307C119.479 150.497 119.57 150.711 119.613 150.937C119.791 151.865 120.034 153.313 120.22 154.541C120.575 156.892 120.52 157 120.44 157.162C120.128 157.784 118.708 158.421 116.221 159.055C114.648 159.465 111.93 160 109.983 160ZM107.569 152.423C107.306 152.423 107.168 152.474 107.126 152.523C107.012 152.659 107.102 153.149 107.168 153.507C107.185 153.599 107.202 153.69 107.216 153.78C107.431 155.147 107.716 156.504 108.067 157.843C108.17 158.24 108.293 158.643 108.553 158.825C109.024 159.151 111.265 159.134 114.489 158.462C117.454 157.847 119.178 157.124 119.519 156.782C119.489 156.127 119.017 153.041 118.65 151.121C118.632 151.028 118.596 150.94 118.541 150.862C118.488 150.784 118.417 150.718 118.336 150.67C118.254 150.62 118.163 150.589 118.07 150.577C117.975 150.565 117.879 150.572 117.788 150.6C117.453 150.699 117.097 150.82 116.719 150.947C114.818 151.589 112.223 152.467 107.581 152.422L107.569 152.423Z" fill="#181E32"/>
<path d="M68.3956 34.9364C67.0828 38.0414 64.4815 40.3957 61.8669 42.5262C56.2771 47.0791 49.6011 51.2864 42.4172 50.6574C41.9886 50.6197 41.5404 50.5576 41.1885 50.3106C40.6867 49.9578 40.4919 49.3214 40.3129 48.735C38.3648 42.4064 34.5896 36.7934 29.4609 32.6003L61.9107 22.161C62.3979 22.004 62.9081 21.8471 63.4062 21.9566C64.3183 22.1573 64.6995 23.0844 65.0612 23.8388C65.5155 24.789 69.1567 29.3663 69.1409 31.3179C69.1305 32.561 68.8773 33.7902 68.3956 34.9364Z" fill="#1B5EC9"/>
<path d="M55.2013 63.28C55.051 63.281 54.9019 63.2545 54.7611 63.2019C54.5868 63.1387 54.4311 63.0329 54.3084 62.8941C54.1855 62.7554 54.0995 62.5881 54.0581 62.4076C53.8894 61.7109 54.3026 60.8532 54.7513 60.3505C57.2215 57.6175 60.3721 55.5851 63.8835 54.4596C65.0279 54.0936 66.9402 53.4835 68.2754 54.4035C69.4797 55.2369 69.9224 57.2281 69.168 58.43C68.3122 59.7904 66.6908 59.7294 65.3911 59.6806C65.0964 59.6696 64.8189 59.6587 64.5658 59.6648C62.5911 59.7087 60.8269 60.6567 58.9599 61.6597C58.0099 62.1697 57.028 62.698 56.0119 63.0982C55.7558 63.2096 55.4807 63.2714 55.2013 63.28ZM55.4788 61.0032C55.1622 61.3559 54.9422 61.9049 55.0082 62.1782C55.0124 62.2046 55.0242 62.2292 55.0422 62.249C55.0603 62.2687 55.0837 62.2827 55.1096 62.2893C55.2318 62.3369 55.4544 62.2636 55.6524 62.1843C56.6147 61.8049 57.5708 61.2912 58.4952 60.7946C60.383 59.7807 62.3344 58.7326 64.5438 58.6825C64.8262 58.6764 65.1184 58.6825 65.4277 58.6996C66.5856 58.7423 67.7814 58.7875 68.3402 57.9029C68.8146 57.1513 68.4893 55.7396 67.7178 55.2051C66.7825 54.5585 65.2174 55.0575 64.1818 55.3894C60.8357 56.4618 57.8332 58.3981 55.4788 61.002V61.0032Z" fill="white"/>
<path d="M66.9821 68.9472C66.3063 69.7186 65.6775 70.6583 66.2327 71.5173C66.7878 72.3764 68.0104 72.6821 68.9879 72.3468C70.0922 71.9629 70.5919 70.6808 70.2153 69.5906C69.8388 68.5005 67.7461 68.0751 66.9821 68.9472Z" fill="#181E32"/>
<path d="M68.1525 73.12C67.2065 73.12 66.2932 72.6703 65.8075 71.8945C65.6267 71.5934 65.5133 71.2559 65.4753 70.9058C65.4371 70.5556 65.4753 70.2013 65.5871 69.8676C65.671 69.5866 65.811 69.3259 65.9985 69.1019C66.186 68.8778 66.417 68.6951 66.6772 68.5649C67.1532 68.0857 67.9526 67.8921 68.7993 68.0588C69.7174 68.2389 70.4321 68.783 70.6658 69.4791C71.1503 70.9166 70.4611 72.4729 69.136 72.9484C68.82 73.0613 68.4875 73.1194 68.1525 73.12ZM68.2082 68.9816C67.8303 68.9816 67.5081 69.0919 67.3349 69.2953C67.2834 69.3561 67.2182 69.4031 67.1448 69.4325C66.9918 69.5004 66.8554 69.6014 66.7453 69.7285C66.6352 69.8556 66.554 70.0056 66.5076 70.1678C66.4417 70.3643 66.4185 70.5728 66.4393 70.7792C66.4603 70.9856 66.5248 71.185 66.6288 71.3639C67.043 72.0232 68.0059 72.3112 68.8223 72.0195C69.6387 71.7279 70.0651 70.7058 69.7574 69.7892C69.6363 69.4362 69.1833 69.1262 68.6237 69.0159C68.4866 68.9901 68.3475 68.9774 68.2082 68.9779V68.9816Z" fill="#181E32"/>
<path d="M81.4465 97.44C80.3519 97.44 79.2403 97.3893 78.1153 97.2843C72.128 96.7241 67.2133 94.831 64.6314 92.0929C64.5432 91.9999 64.496 91.8756 64.5003 91.7476C64.5044 91.6184 64.5597 91.4977 64.6539 91.4108C64.7481 91.3226 64.8735 91.2755 65.0024 91.2804C65.1315 91.284 65.2535 91.3395 65.3416 91.4325C67.729 93.9678 72.5378 95.7933 78.2065 96.3233C83.6405 96.8315 88.83 96.0589 91.7476 94.3083C91.8024 94.2733 91.8632 94.2491 91.9276 94.237C91.9921 94.2262 92.0578 94.2274 92.1222 94.2419C92.1855 94.2564 92.245 94.2829 92.2986 94.3216C92.3509 94.359 92.3959 94.4073 92.4299 94.4628C92.464 94.5183 92.4859 94.5799 92.4956 94.6439C92.5041 94.7079 92.5004 94.7731 92.4834 94.8359C92.4676 94.8986 92.4384 94.9578 92.3983 95.0085C92.3582 95.0604 92.3083 95.1027 92.2511 95.1341C89.7798 96.6166 85.8175 97.44 81.4465 97.44Z" fill="#1B5EC9"/>
<path d="M78.3482 89.1999C78.296 89.1999 78.2439 89.1975 78.1921 89.1914C77.5004 89.1172 77.1101 88.5747 76.7965 88.1393C76.6686 87.9459 76.5206 87.7671 76.355 87.6041C75.7084 87.0312 74.5764 87.3292 73.5761 87.5907L73.4541 87.6223C71.9903 88.0055 70.2935 87.7987 69.8092 86.4753C69.7124 86.2138 69.6788 85.934 69.7112 85.6579C69.7436 85.3806 69.8412 85.1167 69.9959 84.8843C70.4838 84.1132 71.5756 83.4965 72.66 83.3858C72.9381 83.3578 73.2273 83.3408 73.5054 83.325C74.5496 83.2654 75.5352 83.2033 76.1183 82.572C76.6611 81.9785 76.699 81.0017 76.6916 80.132C76.666 76.7263 76.5697 74.0284 76.4879 71.8609C76.3403 67.7776 76.244 65.3132 76.7563 62.7248C76.7671 62.661 76.7908 62.5998 76.8257 62.5451C76.8607 62.4903 76.9063 62.4433 76.9598 62.4063C77.0133 62.3694 77.0737 62.3435 77.1374 62.3303C77.2011 62.317 77.2668 62.3165 77.3306 62.3289C77.3945 62.3413 77.4551 62.3664 77.5092 62.4025C77.5632 62.4388 77.6095 62.4852 77.6452 62.5395C77.6808 62.5937 77.7053 62.6545 77.7172 62.7184C77.7289 62.7821 77.7278 62.8477 77.7139 62.9109C77.2259 65.3899 77.3174 67.8116 77.4699 71.8256C77.5492 74.0041 77.648 76.7153 77.6736 80.1296C77.6822 81.183 77.6261 82.3787 76.8453 83.2325C75.9914 84.163 74.7045 84.236 73.5676 84.3017C73.287 84.3175 73.0223 84.3321 72.7649 84.3589C71.9854 84.4379 71.1535 84.888 70.829 85.4049C70.7541 85.512 70.7062 85.6348 70.6895 85.7638C70.6726 85.8927 70.6875 86.0241 70.7327 86.1457C71.0462 86.9971 72.4917 86.8755 73.2126 86.6858L73.3346 86.6541C74.5093 86.3464 75.9719 85.9632 77.01 86.8816C77.2305 87.0908 77.4265 87.3231 77.5943 87.5761C77.8749 87.9654 78.0628 88.2038 78.3018 88.2293C78.5885 88.2585 78.8227 87.986 79.1826 87.5287C79.5424 87.0713 79.9328 86.5787 80.5585 86.4157C81.2233 86.243 81.81 86.5313 82.3272 86.7806C82.4883 86.8609 82.6407 86.9363 82.7883 86.9947C83.1445 87.1346 84.301 87.1322 84.7987 86.794C84.9633 86.6821 84.9633 86.5909 84.9633 86.5507C84.9633 86.4218 85.0146 86.2977 85.1061 86.2065C85.1976 86.1153 85.322 86.0642 85.4513 86.0642C85.5806 86.0642 85.705 86.1153 85.7965 86.2065C85.888 86.2977 85.9392 86.4218 85.9392 86.5507C85.9392 86.7624 85.8843 86.9692 85.7807 87.154C85.677 87.3377 85.5281 87.4922 85.3476 87.6029C84.562 88.1369 83.0579 88.1527 82.4285 87.9033C82.2431 87.8303 82.0625 87.7428 81.8942 87.6601C81.477 87.4545 81.1171 87.2769 80.8049 87.3584C80.4927 87.4399 80.2304 87.7756 79.9511 88.132C79.5607 88.6076 79.0923 89.1999 78.3482 89.1999Z" fill="#1B5EC9"/>
<path d="M37.5709 53.7401C38.0577 54.1054 38.609 54.4818 39.203 54.3844C39.719 54.2992 40.1024 53.8753 40.4444 53.4807C51.7072 40.4512 65.6659 29.9424 80.8209 21.774C82.5248 20.8534 81.5913 20.2787 80.8209 19.889C69.2769 14.0768 57.9569 7.80926 46.9862 0.965711C44.2904 -0.71717 44.1796 0.164456 42.9041 0.879254C38.0066 3.62715 33.1197 6.39428 28.2432 9.18041C22.7031 12.3465 17.1763 15.536 11.663 18.7492C8.98538 20.3067 5.97068 21.6924 3.49637 23.5458C1.07804 25.3565 2.45333 25.8412 5.49115 28.3399C10.4045 32.3827 15.7231 36.954 20.7387 40.8678C25.732 44.7645 30.7601 48.618 35.8232 52.4287C36.4061 52.8659 37.0037 53.2871 37.5709 53.7401Z" fill="#1B5EC9"/>
<path d="M33.5476 9.84003C33.4429 9.84039 33.3408 9.80712 33.2567 9.74503C33.1726 9.68305 33.111 9.59576 33.0809 9.49605C33.0509 9.39635 33.0541 9.28964 33.0901 9.19199C33.1262 9.09421 33.193 9.01065 33.2806 8.95386C36.0412 7.15501 40.1547 4.93778 42.6749 4.18062C42.7982 4.14361 42.9312 4.15687 43.0447 4.2174C43.1581 4.2778 43.2427 4.38064 43.2798 4.50314C43.3171 4.62552 43.3037 4.75766 43.2428 4.87039C43.182 4.98312 43.0785 5.06715 42.9552 5.10417C40.8099 5.74799 36.9646 7.7072 33.8133 9.76046C33.7345 9.81206 33.6421 9.83979 33.5476 9.84003Z" fill="white"/>
<path d="M26.0331 14.56C25.93 14.5601 25.8296 14.529 25.7459 14.471C25.6622 14.4131 25.5995 14.3311 25.5667 14.2368C25.5338 14.1425 25.5325 14.0406 25.5629 13.9456C25.5932 13.8505 25.6538 13.7671 25.7359 13.707C26.7453 12.9668 28.1917 12.2337 28.6657 12.1008C28.7281 12.0823 28.7936 12.076 28.8586 12.0823C28.9237 12.0885 28.9867 12.1072 29.044 12.1374C29.1015 12.1674 29.1521 12.2083 29.1929 12.2575C29.2338 12.3066 29.264 12.3632 29.2821 12.424C29.3 12.4846 29.3053 12.548 29.2976 12.6107C29.2898 12.6733 29.2692 12.7338 29.2369 12.7887C29.2047 12.8435 29.1615 12.8917 29.1097 12.9301C29.058 12.9687 28.9989 12.9969 28.9358 13.0131C28.635 13.0961 27.3052 13.7474 26.3302 14.4627C26.2448 14.5257 26.1404 14.5598 26.0331 14.56Z" fill="white"/>
<path d="M19.4806 66.08C19.4188 66.0801 19.3575 66.0681 19.3002 66.0447C19.1803 65.9969 19.0842 65.9036 19.033 65.785C18.9818 65.6664 18.9798 65.5324 19.0273 65.4124C20.1994 62.4631 18.635 58.2054 16.7793 55.2037C14.4399 51.4199 13.4566 46.7603 14.0098 42.0847C14.5703 37.3531 16.6575 33.1089 19.8863 30.1328C26.2587 24.2609 33.5485 24.0283 41.991 23.7602C42.1208 23.7562 42.2468 23.8035 42.3418 23.8918C42.4369 23.98 42.4934 24.1021 42.4991 24.2317C42.5035 24.36 42.4569 24.4847 42.3698 24.5789C42.2827 24.6731 42.1619 24.7291 42.0336 24.7348H42.0215C33.434 25.0077 26.6522 25.2221 20.5467 30.8491C14.2316 36.6649 12.9376 47.1379 17.6078 54.6884C19.5878 57.8911 21.2387 62.485 19.9338 65.7742C19.8975 65.8646 19.835 65.9421 19.7541 65.9967C19.6733 66.0511 19.578 66.0803 19.4806 66.08Z" fill="#181E32"/>
<path d="M18.6475 71.2C18.3939 71.2 18.1407 71.1811 17.89 71.1436C17.2081 71.0593 16.5584 70.804 16.0012 70.4011C14.6303 69.3561 14.3273 67.1911 15.339 65.6731C16.2541 64.3021 18.0476 63.5964 19.8021 63.9162C21.1643 64.1771 22.215 64.8853 22.7624 65.9108C22.9879 66.332 23.116 66.7987 23.1371 67.2764C23.1582 67.754 23.072 68.2303 22.8846 68.6699C22.2517 70.1929 20.507 71.2 18.6475 71.2ZM18.9749 64.8216C17.8326 64.8216 16.7318 65.3484 16.1514 66.2183C15.4294 67.3014 15.6358 68.8905 16.5925 69.6207C17.0194 69.9231 17.515 70.1135 18.0342 70.1745C19.4783 70.3901 21.3537 69.8069 21.9902 68.2901C22.1219 67.9852 22.1828 67.6541 22.168 67.3221C22.1531 66.9901 22.0631 66.6658 21.9047 66.3739C21.4991 65.6143 20.6903 65.085 19.6249 64.8804C19.4105 64.8408 19.1929 64.8211 18.9749 64.8216Z" fill="#181E32"/>
<path d="M43.9037 26.88C42.8457 26.88 41.7338 26.6585 40.9787 26.0337C40.3535 25.514 40.0041 24.8063 40.0201 24.0912C40.0267 23.7894 40.1016 23.4932 40.239 23.2251C40.3765 22.9571 40.5729 22.7243 40.8132 22.5446C41.762 21.8282 43.2711 21.488 44.85 21.6328C44.9025 21.6375 44.9539 21.6508 45.0021 21.6723C45.0461 21.6642 45.0911 21.6621 45.1357 21.6662C46.5602 21.8023 47.8572 22.5236 48.3634 23.4614C48.6295 23.9563 48.6503 24.4698 48.4235 24.9115C47.9822 25.7664 46.9059 26.4259 45.4679 26.7228C44.9529 26.8274 44.429 26.8801 43.9037 26.88ZM44.1488 22.5904C43.0517 22.5904 42.0354 22.8614 41.4041 23.3327C41.2828 23.4227 41.1838 23.5395 41.1145 23.6742C41.0451 23.809 41.0075 23.9579 41.0044 24.1097C40.9946 24.5193 41.2141 24.9399 41.6051 25.2641C42.3112 25.8506 43.8203 26.0498 45.2754 25.7491C46.4045 25.5165 47.2577 25.0303 47.5568 24.4512C47.6316 24.3065 47.6144 24.132 47.5053 23.9303C47.2185 23.3983 46.3272 22.7698 45.0474 22.6485C44.9958 22.6433 44.9453 22.63 44.8979 22.609C44.8541 22.6166 44.8096 22.6187 44.7655 22.6151C44.5546 22.6003 44.3487 22.5904 44.1452 22.5904H44.1488Z" fill="#181E32"/>
<path d="M5.4738 79.8401C5.43254 79.8402 5.39141 79.8353 5.35137 79.8255C5.2254 79.7944 5.11706 79.7149 5.05022 79.6047C4.9835 79.4944 4.96354 79.3624 4.99513 79.2377C6.10427 74.8612 10.4552 70.4702 13.6038 69.4691C13.6657 69.4469 13.7314 69.4373 13.7972 69.4408C13.8629 69.4443 13.9272 69.4609 13.9863 69.4895C14.0454 69.5182 14.0981 69.5583 14.141 69.6077C14.1841 69.6569 14.2167 69.7143 14.2369 69.7762C14.2571 69.8383 14.2644 69.9037 14.2584 69.9686C14.2526 70.0336 14.2335 70.0966 14.2024 70.154C14.1713 70.2113 14.1288 70.262 14.0775 70.3029C14.0262 70.3436 13.9671 70.3737 13.9038 70.3914C11.0587 71.2968 6.96245 75.4612 5.94635 79.4728C5.9199 79.5773 5.85918 79.6701 5.77361 79.7366C5.68804 79.8031 5.58251 79.8394 5.4738 79.8401Z" fill="#181E32"/>
<path d="M9.46557 82.4C9.39399 82.4 9.32325 82.3842 9.25845 82.354C9.19377 82.3237 9.13648 82.2789 9.09106 82.2232C9.04552 82.1687 9.01282 82.1033 8.99525 82.0342C8.97769 81.9652 8.97575 81.8926 8.98956 81.8223C10.0506 76.3943 12.2695 74.0957 13.4977 73.2079C13.6019 73.1348 13.7306 73.1056 13.8561 73.1267C13.9816 73.1478 14.0939 73.2173 14.1685 73.3203C14.2431 73.4235 14.2741 73.5518 14.2549 73.6776C14.2357 73.8034 14.1677 73.9165 14.0658 73.9927C12.9526 74.7969 10.9384 76.9066 9.94036 82.0076C9.91892 82.1178 9.85994 82.2171 9.77334 82.2886C9.68674 82.36 9.57785 82.4 9.46557 82.4Z" fill="#181E32"/>
<path d="M13.3094 85.92C13.1797 85.92 13.0552 85.8689 12.9635 85.7777C12.8718 85.6866 12.8203 85.5626 12.8203 85.4337C12.8203 82.3876 13.9208 77.1682 15.2059 75.4141C15.2426 75.3601 15.29 75.3137 15.3452 75.2782C15.4003 75.2426 15.4621 75.2186 15.5267 75.2073C15.5915 75.196 15.6578 75.1978 15.7219 75.2126C15.786 75.2273 15.8462 75.2548 15.8994 75.2933C15.9525 75.3317 15.9973 75.3805 16.031 75.4366C16.0648 75.4927 16.0868 75.5549 16.0957 75.6197C16.1047 75.6844 16.1005 75.7502 16.0833 75.8133C16.0661 75.8763 16.0364 75.9354 15.9958 75.9867C14.9479 77.4161 13.7948 82.3597 13.7948 85.4337C13.7948 85.5626 13.7437 85.6854 13.6529 85.7765C13.5619 85.8677 13.4384 85.9187 13.3094 85.92Z" fill="#181E32"/>
<path d="M17.8778 85.0391C17.856 85.0403 17.834 85.0403 17.812 85.0391C17.6816 85.0221 17.5633 84.9552 17.4832 84.8531C17.4031 84.751 17.3679 84.6209 17.3851 84.4933L17.446 84.041C17.992 80.0073 18.5082 76.1972 18.2315 73.8217C18.2166 73.6936 18.2542 73.5648 18.3361 73.4638C18.418 73.3629 18.5375 73.2979 18.6683 73.2832C18.7991 73.2686 18.9305 73.3054 19.0336 73.3856C19.1368 73.4659 19.2031 73.583 19.218 73.7111C19.5084 76.207 18.9847 80.0741 18.43 84.1662L18.3692 84.6185C18.3531 84.7352 18.2944 84.8422 18.2041 84.9188C18.1137 84.9966 17.9978 85.0391 17.8778 85.0391Z" fill="#181E32"/>
<path d="M21.4039 82.48C21.2819 82.48 21.1649 82.4282 21.0788 82.3357C20.9926 82.2432 20.9442 82.1173 20.9442 81.9865C20.9442 80.9637 20.9442 78.8367 20.5994 77.4351C20.5816 77.3715 20.5761 77.3047 20.5829 77.2387C20.5898 77.1727 20.609 77.1089 20.6394 77.0512C20.6698 76.9933 20.7107 76.9426 20.7597 76.9021C20.8087 76.8618 20.8649 76.8323 20.9248 76.8158C20.9846 76.7991 21.047 76.7957 21.1082 76.8055C21.1693 76.8154 21.2279 76.8385 21.2807 76.8733C21.3333 76.9081 21.3789 76.9538 21.4147 77.008C21.4504 77.0622 21.4757 77.1235 21.4889 77.1884C21.8601 78.7134 21.8601 80.9267 21.8601 81.9902C21.8592 82.1198 21.8108 82.2444 21.7254 82.3357C21.64 82.427 21.5245 82.4788 21.4039 82.48Z" fill="#181E32"/>
<path d="M25.5373 86.24H25.5266C25.4637 86.2388 25.4019 86.2254 25.3444 86.1997C25.2869 86.1728 25.2349 86.1361 25.1914 86.0897C25.148 86.0432 25.1139 85.9894 25.091 85.9295C25.0682 85.8696 25.0571 85.8061 25.0584 85.7413C25.1695 80.485 23.4185 75.6479 21.6329 73.1799C21.5955 73.1283 21.5685 73.0697 21.5533 73.0074C21.5381 72.945 21.5351 72.8803 21.5443 72.8168C21.5536 72.7533 21.575 72.6923 21.6072 72.6372C21.6396 72.5822 21.6821 72.5342 21.7326 72.4959C21.783 72.4578 21.8402 72.43 21.9011 72.4145C21.9621 72.399 22.0252 72.3959 22.0873 72.4054C22.1495 72.4149 22.2091 72.4368 22.2628 72.4698C22.3166 72.5029 22.3635 72.5464 22.4009 72.598C24.2832 75.2005 26.1297 80.2796 26.0139 85.7621C26.011 85.8892 25.9597 86.0114 25.8706 86.1007C25.7816 86.1899 25.6619 86.24 25.5373 86.24Z" fill="#181E32"/>
<path d="M28.4068 83.12C28.3348 83.1212 28.2632 83.1066 28.1974 83.0775C28.1316 83.0484 28.073 83.0059 28.0258 82.9538C27.9784 82.9004 27.9434 82.8373 27.9234 82.7706C27.9032 82.7026 27.8984 82.6311 27.9092 82.5619C28.5449 78.4664 25.0829 72.5231 23.4147 71.2699C23.363 71.231 23.3196 71.1825 23.287 71.1273C23.2544 71.0721 23.2332 71.0111 23.2249 70.9479C23.2164 70.8847 23.2208 70.8205 23.2378 70.759C23.2549 70.6975 23.2841 70.6397 23.3239 70.5893C23.3639 70.5388 23.4135 70.4965 23.4701 70.4647C23.5268 70.4329 23.5893 70.4123 23.6541 70.404C23.7189 70.3959 23.7847 70.4001 23.8479 70.4168C23.9109 70.4333 23.97 70.4619 24.0218 70.5007C25.7696 71.8134 29.6072 78.1024 28.8932 82.7075C28.8755 82.8215 28.8169 82.9259 28.7277 83.0011C28.6387 83.0763 28.525 83.1187 28.4068 83.12Z" fill="#181E32"/>
<path d="M140.345 102.023C139.859 101.312 138.994 100.683 138.51 102.278C137.201 106.563 134.849 110.16 131.345 113.025C128.56 115.299 124.244 117.28 120.657 117.055C115.722 116.744 115.592 113.607 110.66 113.242C111.484 120.218 113.141 124.385 113.963 131.36C119.251 131.036 118.128 129.146 120.53 124.414C121.106 123.278 123.08 122.072 123.956 121.149C125.034 120.012 126.592 119.51 128.029 118.894C134.059 116.308 138.959 111.612 140.873 105.331C141.145 104.442 140.873 102.8 140.348 102.029L140.345 102.023Z" fill="#FF6800"/>
<path d="M38.9699 54.88H38.925C38.1572 54.8604 37.4221 54.3084 36.8314 53.864C36.721 53.7808 36.6155 53.7012 36.5148 53.6302C33.8244 51.7084 31.2613 49.6446 29.5655 48.2798C28.8377 47.6934 28.2604 47.2295 27.894 46.9541C27.843 46.9156 27.7999 46.8674 27.7674 46.8121C27.7349 46.7568 27.7134 46.6956 27.7042 46.6319C27.6951 46.5682 27.6985 46.5034 27.7143 46.4411C27.7299 46.3788 27.7577 46.3201 27.7958 46.2686C27.834 46.2172 27.8818 46.1737 27.9366 46.1408C27.9913 46.108 28.052 46.0863 28.115 46.0771C28.1781 46.0678 28.2424 46.0713 28.3041 46.0872C28.366 46.103 28.424 46.131 28.4751 46.1694C28.8535 46.4547 29.4345 46.9223 30.1732 47.5159C31.8605 48.8734 34.4103 50.9262 37.0776 52.8321C37.1844 52.908 37.2972 52.9925 37.4136 53.0769C37.8988 53.4442 38.492 53.8885 38.9517 53.9008C39.2998 53.9154 39.6953 53.6841 40.0131 53.2973C40.5808 52.6044 41.0466 52.0916 41.4966 51.5958C42.159 50.8868 42.783 50.1423 43.3658 49.3655C45.5662 46.4069 49.893 42.6735 51.3267 41.6146C51.4307 41.5379 51.5606 41.5059 51.6878 41.5258C51.7508 41.5356 51.8113 41.5578 51.8658 41.5913C51.9204 41.6247 51.9678 41.6686 52.0054 41.7205C52.0431 41.7725 52.0703 41.8314 52.0853 41.8938C52.1005 41.9564 52.1033 42.0214 52.0935 42.0849C52.0838 42.1486 52.0617 42.2095 52.0286 42.2645C51.9955 42.3196 51.9519 42.3674 51.9005 42.4054C50.5007 43.4385 46.2807 47.0789 44.1373 49.9531C43.5355 50.7555 42.8913 51.5244 42.2074 52.2568C41.7659 52.7464 41.3086 53.2471 40.7518 53.9216C40.2618 54.5324 39.6128 54.88 38.9699 54.88Z" fill="#181E32"/>
<path d="M53.9203 40.24C53.829 40.2401 53.7397 40.2129 53.6638 40.1619C53.5878 40.1109 53.5286 40.0385 53.4938 39.9537C53.459 39.869 53.45 39.7757 53.4681 39.6859C53.4862 39.596 53.5306 39.5135 53.5953 39.4489L54.6727 38.3744C54.7157 38.3316 54.7668 38.2977 54.8228 38.2746C54.8788 38.2516 54.9388 38.2398 54.9994 38.24C55.0599 38.2402 55.1199 38.2524 55.1757 38.2758C55.2316 38.2993 55.2823 38.3336 55.325 38.3767C55.3677 38.4198 55.4015 38.471 55.4244 38.5273C55.4475 38.5835 55.4591 38.6438 55.459 38.7045C55.4588 38.7653 55.4465 38.8255 55.4233 38.8816C55.3999 38.9377 55.3656 38.9886 55.3227 39.0313L54.2452 40.1047C54.159 40.1912 54.0422 40.2398 53.9203 40.24Z" fill="#181E32"/>
<path d="M58.6755 36.24C58.5736 36.2405 58.4741 36.2096 58.3906 36.1517C58.3071 36.0937 58.2437 36.0115 58.209 35.9163C58.1744 35.8211 58.1703 35.7177 58.1973 35.6201C58.2243 35.5226 58.2811 35.4356 58.3597 35.3714C58.8013 35.01 59.313 34.5726 59.8557 34.1108C61.4774 32.7288 63.3149 31.1632 64.7073 30.3129C64.8187 30.2447 64.9528 30.2233 65.0801 30.2532C65.2074 30.2832 65.3175 30.3622 65.3862 30.4728C65.4549 30.5835 65.4766 30.7166 65.4464 30.8432C65.4162 30.9696 65.3366 31.079 65.2253 31.1472C63.8983 31.9607 62.0126 33.5668 60.4982 34.8581C59.9519 35.3236 59.4364 35.7634 58.9887 36.131C58.9002 36.2021 58.7894 36.2407 58.6755 36.24Z" fill="#181E32"/>
<path d="M88.6557 112.8C88.6266 112.8 88.5974 112.798 88.5695 112.793C81.0496 111.415 73.3938 110.245 65.8059 109.311C65.6781 109.295 65.5619 109.227 65.483 109.122C65.4039 109.019 65.3686 108.886 65.3846 108.755C65.4008 108.625 65.467 108.505 65.5688 108.425C65.6706 108.344 65.7995 108.308 65.9273 108.324C73.531 109.256 81.2075 110.43 88.7455 111.812C88.8633 111.834 88.9701 111.901 89.0418 111.999C89.1146 112.099 89.1498 112.221 89.1389 112.344C89.1292 112.467 89.0746 112.581 88.9859 112.665C88.8973 112.749 88.782 112.796 88.6618 112.798L88.6557 112.8Z" fill="white"/>
<path d="M83.1313 118.08C83.0824 118.08 83.0334 118.074 82.9857 118.059C79.1166 116.875 75.136 116.081 71.1049 115.691C71.0406 115.685 70.9782 115.667 70.9212 115.637C70.8641 115.606 70.8136 115.565 70.7726 115.517C70.7314 115.467 70.7006 115.41 70.6817 115.35C70.6628 115.288 70.6563 115.224 70.6624 115.161C70.6686 115.097 70.6875 115.035 70.7177 114.978C70.7481 114.922 70.7893 114.872 70.8391 114.831C70.889 114.79 70.9465 114.76 71.0082 114.742C71.07 114.722 71.1349 114.716 71.1991 114.722C75.2965 115.12 79.3426 115.925 83.2758 117.128C83.3872 117.162 83.4839 117.236 83.5451 117.334C83.6075 117.432 83.632 117.548 83.6148 117.663C83.5977 117.777 83.5389 117.883 83.4508 117.958C83.3615 118.034 83.2488 118.075 83.1313 118.075V118.08Z" fill="white"/>
<path d="M91.6141 125.52C91.5534 125.52 91.4939 125.509 91.438 125.487C89.4001 124.695 87.1763 124.374 85.0267 124.063L65.777 121.282C65.6537 121.259 65.5443 121.19 65.4714 121.088C65.3985 120.986 65.3678 120.86 65.3859 120.735C65.4039 120.611 65.4693 120.5 65.5681 120.422C65.6671 120.345 65.7919 120.31 65.9167 120.322L85.1651 123.103C87.3694 123.421 89.649 123.75 91.7902 124.582C91.8959 124.623 91.9845 124.7 92.0392 124.799C92.095 124.898 92.1133 125.013 92.0926 125.125C92.072 125.236 92.0124 125.337 91.925 125.408C91.8376 125.481 91.727 125.52 91.6141 125.52Z" fill="white"/>
<path d="M100.61 75.993C100.656 75.7159 100.711 75.4254 100.865 75.2357C101.103 74.9416 101.509 75.0036 101.79 75.2588C102.07 75.5141 102.256 75.914 102.425 76.3054C103.991 79.8864 105.72 85.4619 105.937 87.7203C106.06 89.0234 101.51 89.8499 100.98 89.23C100.31 88.4557 100.379 87.0129 100.315 85.9773C100.22 84.419 100.164 82.8582 100.184 81.3011C100.195 79.5239 100.337 77.7498 100.61 75.993Z" fill="#1B5EC9"/>
<path d="M112.063 156.56C110.855 156.56 109.814 156.27 109.399 155.537C109.105 155.018 108.83 153.41 108.329 150.376C107.916 147.872 107.402 144.756 106.783 142.152C105.996 138.844 105.612 135.417 105.239 132.104C105.054 130.458 104.863 128.756 104.629 127.095L100.311 96.9629C100.189 96.1395 100.053 95.2953 99.9164 94.4779C99.6392 92.8103 99.3523 91.0867 99.2278 89.3862C99.1338 88.0974 99.9945 87.7027 100.651 87.5188C101.445 87.2958 102.269 87.1472 103.066 87.0035C103.426 86.9389 103.799 86.8719 104.156 86.8001C104.314 86.7684 104.487 86.7221 104.67 86.6783C105.071 86.5552 105.484 86.4797 105.901 86.4529C106.199 86.3737 106.514 86.3835 106.807 86.4821C107.52 86.766 107.621 87.6272 107.662 87.9524C110.605 113.009 113.219 131.727 117.867 153.252C118.023 153.695 118.111 154.734 116.168 155.656C114.876 156.235 113.479 156.543 112.063 156.56ZM106.352 87.3702C106.249 87.375 106.147 87.3896 106.046 87.4128C106.015 87.4201 105.983 87.4238 105.95 87.4225C105.6 87.4469 105.253 87.5115 104.918 87.6162C104.729 87.6662 104.534 87.7173 104.347 87.7551C103.981 87.8294 103.602 87.8976 103.238 87.9634C102.463 88.1022 101.662 88.2472 100.919 88.4579C100.264 88.6407 100.173 88.8612 100.206 89.3106C100.328 90.9661 100.61 92.6678 100.883 94.3135C101.021 95.1357 101.163 95.986 101.281 96.8204L105.592 126.959C105.836 128.634 106.024 130.345 106.21 131.998C106.576 135.287 106.961 138.679 107.734 141.929C108.36 144.566 108.878 147.701 109.293 150.22C109.659 152.412 110.025 154.668 110.249 155.061C110.713 155.878 113.745 155.718 115.743 154.771C116.423 154.449 117.093 153.962 116.935 153.552C116.927 153.528 116.92 153.504 116.913 153.479C112.252 131.904 109.633 113.159 106.685 88.0547C106.626 87.5504 106.519 87.4079 106.441 87.3762C106.411 87.3689 106.381 87.3665 106.352 87.3702Z" fill="#181E32"/>
<path d="M99.6253 79.9176C99.4968 79.9176 99.3733 79.8678 99.2824 79.779C99.1915 79.6902 99.1406 79.5698 99.1406 79.4442C99.1406 79.3186 99.1915 79.1983 99.2824 79.1095C99.3733 79.0208 99.4968 78.9708 99.6253 78.9708C100.87 78.9708 103.193 78.5199 104.067 78.1175C104.182 78.0697 104.312 78.0675 104.429 78.111C104.546 78.1546 104.641 78.2407 104.695 78.3514C104.748 78.4621 104.755 78.5886 104.715 78.7045C104.675 78.8204 104.592 78.9167 104.48 78.9732C103.477 79.4359 101.028 79.9129 99.6338 79.92L99.6253 79.9176Z" fill="#181E32"/>
<path d="M99.953 82.08C99.8202 82.08 99.7021 82.08 99.5998 82.0716C99.5364 82.0679 99.4731 82.0522 99.4159 82.0244C99.3574 81.9966 99.3063 81.9579 99.2636 81.9095C99.221 81.8623 99.1881 81.8066 99.1674 81.7461C99.1467 81.6869 99.137 81.6227 99.1419 81.5598C99.1455 81.4957 99.1613 81.434 99.1894 81.3759C99.2174 81.3191 99.2563 81.2682 99.3038 81.2259C99.3526 81.1836 99.4074 81.1509 99.4683 81.1291C99.5291 81.1085 99.5937 81.1001 99.657 81.1037C100.676 81.163 103.452 80.9101 105.349 80.1963C105.409 80.1721 105.473 80.16 105.539 80.16C105.604 80.1612 105.668 80.1746 105.728 80.2012C105.788 80.2266 105.841 80.2641 105.886 80.3113C105.931 80.3572 105.965 80.4129 105.989 80.4734C106.012 80.5339 106.023 80.598 106.02 80.6621C106.018 80.7274 106.002 80.7904 105.975 80.8484C105.947 80.9077 105.908 80.9597 105.86 81.0033C105.812 81.0468 105.755 81.0795 105.694 81.1013C103.859 81.7945 101.24 82.08 99.953 82.08Z" fill="#181E32"/>
<path d="M103.946 118.652C103.021 118.085 101.994 117.387 100.948 117.662C100.514 117.795 100.124 118.043 99.8229 118.381C98.2465 120.034 98.5784 123.085 100.472 124.362C99.9889 124.679 99.6045 125.127 99.3629 125.652C99.1226 126.176 99.0335 126.758 99.1079 127.331C99.1823 127.904 99.4154 128.444 99.7827 128.891C100.15 129.337 100.636 129.671 101.183 129.855C100.329 131.318 101.305 133.48 102.97 133.803C102.389 135.467 103.615 136.875 105.243 137.559C108.493 138.921 115.161 137.606 118.093 133.684C120.316 130.711 119.965 124.488 123.94 121.139C123.361 118.713 110.519 120.346 108.302 120.132C106.757 119.973 105.267 119.467 103.946 118.652Z" fill="#FF6800"/>
<path d="M111.384 120.64C111.256 120.64 111.133 120.584 111.042 120.484C110.951 120.384 110.9 120.247 110.9 120.106C110.9 119.964 110.951 119.828 111.042 119.728C111.133 119.628 111.256 119.572 111.384 119.572C111.708 119.572 113.501 119.253 113.889 119.139C113.951 119.12 114.015 119.115 114.078 119.125C114.142 119.134 114.202 119.157 114.258 119.191C114.313 119.226 114.362 119.273 114.4 119.329C114.439 119.385 114.468 119.449 114.484 119.517C114.501 119.585 114.504 119.656 114.496 119.725C114.488 119.796 114.467 119.863 114.434 119.923C114.403 119.984 114.359 120.038 114.309 120.081C114.258 120.123 114.2 120.154 114.138 120.171C113.756 120.283 111.852 120.64 111.384 120.64Z" fill="white"/>
<path d="M104.345 125.84C104.236 125.84 104.13 125.801 104.045 125.728C103.923 125.619 103.821 125.485 103.749 125.334C103.676 125.183 103.633 125.018 103.622 124.85C103.61 124.681 103.632 124.511 103.683 124.351C103.736 124.192 103.819 124.044 103.925 123.918C104.012 123.821 104.133 123.764 104.26 123.76C104.387 123.758 104.51 123.807 104.602 123.899C104.694 123.991 104.748 124.119 104.752 124.253C104.755 124.386 104.707 124.517 104.62 124.614C104.585 124.662 104.57 124.722 104.573 124.782C104.577 124.842 104.601 124.899 104.642 124.942C104.718 125.008 104.774 125.097 104.801 125.197C104.828 125.298 104.825 125.406 104.791 125.504C104.759 125.603 104.698 125.687 104.617 125.748C104.536 125.808 104.439 125.84 104.34 125.84H104.345Z" fill="white"/>
<path d="M105.318 130.64C105.221 130.64 105.126 130.607 105.047 130.548C104.967 130.489 104.908 130.405 104.878 130.308C104.743 129.877 104.707 129.418 104.772 128.97C104.79 128.843 104.856 128.73 104.956 128.654C105.054 128.578 105.178 128.546 105.3 128.566C105.422 128.585 105.53 128.654 105.603 128.758C105.676 128.86 105.707 128.989 105.688 129.116C105.645 129.414 105.669 129.72 105.759 130.007C105.796 130.128 105.784 130.26 105.73 130.372C105.674 130.486 105.578 130.571 105.462 130.611C105.416 130.629 105.367 130.639 105.318 130.64Z" fill="white"/>
<path d="M106.884 134.72C106.783 134.72 106.682 134.687 106.599 134.627C106.516 134.567 106.453 134.481 106.418 134.383L106.054 133.336C106.03 133.272 106.018 133.205 106.02 133.136C106.022 133.069 106.037 133.001 106.064 132.939C106.091 132.876 106.131 132.822 106.181 132.774C106.229 132.729 106.286 132.693 106.349 132.67C106.411 132.647 106.478 132.637 106.544 132.641C106.61 132.645 106.675 132.662 106.734 132.693C106.794 132.724 106.847 132.766 106.89 132.817C106.934 132.869 106.967 132.929 106.987 132.993L107.351 134.04C107.378 134.116 107.386 134.199 107.375 134.279C107.365 134.361 107.335 134.437 107.289 134.505C107.243 134.571 107.183 134.626 107.112 134.663C107.041 134.701 106.963 134.72 106.884 134.72Z" fill="white"/>
<path d="M22.6786 126.24C22.5966 126.241 22.5161 126.219 22.445 126.174C22.374 126.13 22.315 126.067 22.2741 125.991C22.1127 125.675 22.061 125.308 22.1285 124.955C22.1539 124.825 22.2259 124.712 22.3288 124.641C22.4316 124.568 22.5568 124.544 22.6768 124.571C22.7968 124.598 22.9017 124.676 22.9687 124.787C23.0354 124.897 23.0588 125.032 23.0334 125.162C23.0106 125.279 23.0275 125.4 23.0807 125.504C23.1405 125.62 23.1555 125.756 23.1223 125.883C23.0892 126.011 23.0106 126.118 22.9039 126.183C22.8345 126.222 22.7569 126.242 22.6786 126.24Z" fill="white"/>
<path d="M24.9121 129.12C24.8775 129.12 24.8431 129.116 24.8093 129.108L23.8306 128.869C23.7083 128.839 23.6018 128.757 23.5346 128.64C23.4674 128.524 23.445 128.382 23.4723 128.248C23.4994 128.113 23.5742 127.996 23.6798 127.921C23.7856 127.847 23.9137 127.822 24.036 127.852L25.0136 128.092C25.1265 128.12 25.226 128.193 25.2933 128.297C25.3605 128.402 25.3907 128.529 25.3782 128.655C25.3655 128.783 25.3112 128.9 25.2253 128.986C25.1393 129.072 25.0279 129.119 24.9121 129.12Z" fill="white"/>
<path d="M27.4651 129.76C27.3474 129.761 27.2335 129.72 27.1449 129.647C27.0562 129.574 26.9991 129.472 26.9843 129.361C26.9695 129.25 26.998 129.139 27.0644 129.046C27.1308 128.955 27.2306 128.889 27.3448 128.862L28.2304 128.652C28.3534 128.625 28.4826 128.645 28.5903 128.707C28.698 128.769 28.7755 128.87 28.8061 128.986C28.8367 129.101 28.818 129.224 28.754 129.328C28.6899 129.431 28.5859 129.506 28.4638 129.537L27.577 129.746C27.5404 129.755 27.5029 129.76 27.4651 129.76Z" fill="white"/>
<path d="M106.04 32.56C96.5665 32.56 86.7149 31.8503 74.9267 30.3422C74.8632 30.334 74.8019 30.3133 74.7462 30.2813C74.6906 30.2493 74.6418 30.2064 74.6025 30.1553C74.5631 30.1041 74.5343 30.0457 74.5173 29.9833C74.5004 29.9208 74.4959 29.8556 74.5038 29.7914C74.5118 29.7271 74.5323 29.6651 74.564 29.6088C74.5957 29.5526 74.6381 29.5032 74.6887 29.4636C74.7393 29.4239 74.797 29.3946 74.8588 29.3774C74.9206 29.3604 74.9851 29.3557 75.0486 29.3639C89.2829 31.1825 100.679 31.8343 111.996 31.477C112.126 31.4728 112.251 31.5208 112.346 31.6104C112.44 31.6998 112.495 31.8237 112.5 31.9544C112.503 32.085 112.456 32.212 112.367 32.3074C112.279 32.4026 112.156 32.4585 112.027 32.4626C110.039 32.528 108.048 32.56 106.04 32.56Z" fill="#181E32"/>
<path d="M122.254 32.4799H119.066C118.937 32.4799 118.813 32.4252 118.722 32.3277C118.631 32.2302 118.58 32.0979 118.58 31.9599C118.58 31.822 118.631 31.6898 118.722 31.5923C118.813 31.4948 118.937 31.4399 119.066 31.4399H122.254C122.383 31.4399 122.507 31.4948 122.598 31.5923C122.689 31.6898 122.74 31.822 122.74 31.9599C122.74 32.0979 122.689 32.2302 122.598 32.3277C122.507 32.4252 122.383 32.4799 122.254 32.4799Z" fill="#181E32"/>
<path d="M136.248 139.36C136.206 139.36 136.165 139.355 136.124 139.344C135.885 139.281 135.485 139.157 135.061 139.026C134.667 138.903 134.26 138.78 134.042 138.719C133.922 138.68 133.821 138.598 133.76 138.488C133.699 138.379 133.683 138.25 133.716 138.129C133.747 138.007 133.824 137.903 133.932 137.836C134.039 137.769 134.167 137.745 134.291 137.769C134.53 137.832 134.93 137.956 135.353 138.087C135.747 138.21 136.155 138.333 136.372 138.393C136.488 138.424 136.589 138.496 136.656 138.595C136.722 138.694 136.75 138.813 136.735 138.931C136.72 139.048 136.662 139.156 136.573 139.236C136.483 139.315 136.369 139.359 136.248 139.36Z" fill="#181E32"/>
</g>
<defs>
<clipPath id="clip0_165_1964">
<rect width="160" height="160" fill="white" transform="translate(0.5)"/>
</clipPath>
</defs>
</svg>
