<svg width="161" height="160" viewBox="0 0 161 160" fill="none" xmlns="http://www.w3.org/2000/svg">
<g clip-path="url(#clip0_165_7375)">
<path d="M107.616 127.274C107.913 125.445 108.191 123.519 107.547 121.783C107.016 120.353 105.924 119.221 105.006 118.005C102.384 114.506 101.113 110.178 101.428 105.816C101.702 102.222 144.538 48.8082 148.199 44.08C156.328 52.8247 159.768 68.1007 160.323 77.5123C160.645 82.9521 160.686 88.5163 159.066 93.7252C156.991 100.399 152.366 105.928 148.593 111.817C144.326 118.466 140.575 125.633 138.918 133.358C138.303 136.223 138.491 139.089 137.826 139.495C137.395 139.758 136.866 139.791 136.362 139.831C131.101 140.252 127.175 139.591 121.698 139.831C118.094 139.991 113.79 140.772 110.179 140.363C109.296 140.267 108.423 140.104 107.566 139.873C105.18 139.219 105.871 137.38 105.985 136.757C106.161 135.797 106.333 134.836 106.502 133.874C106.888 131.677 107.258 129.476 107.616 127.274Z" fill="#1B5EC9"/>
<path d="M13.6126 48.452C11.1169 41.464 7.26571 36.9949 3.32595 32.5315C2.7886 31.9228 3.51696 30.9666 4.27062 30.6617C22.7198 23.1893 38.6664 17.9722 61.0715 18.2346C68.0628 18.314 75.7467 18.0873 81.0121 22.6876C87.0161 16.5512 96.5652 15.8988 105.143 16.229C122.348 16.8911 139.38 19.9296 155.754 25.2582C155.958 25.3259 156.146 25.439 156.302 25.5891C156.458 25.7394 156.577 25.9227 156.652 26.1256C156.727 26.3285 156.755 26.5457 156.734 26.7608C156.713 26.9761 156.644 27.1838 156.531 27.3685C152.176 34.5785 150.492 43.1682 149.784 51.5956C149.032 60.6271 149.295 69.7472 147.987 78.7142C145.696 94.4056 138.476 109.34 127.601 120.88C128.531 118.187 127.173 115.127 125.028 113.25C122.884 111.373 120.092 110.445 117.367 109.616C107.986 106.765 91.0755 102.972 86.4948 101.09C74.4626 102.627 55.9213 109.96 44.0583 115.711C42.1321 116.644 40 117.635 37.9335 117.078C36.2996 116.636 35.073 115.311 34.0133 113.992C31.083 110.343 28.6856 106.298 26.8932 101.975C25.6493 98.976 24.05 96.1063 22.9166 93.0697C21.3563 88.9055 20.4704 84.5077 19.8433 80.1191C19.1736 75.4636 17.412 59.0875 13.6126 48.452Z" fill="#F2DFE7"/>
<path d="M83.2463 62.6399C83.1353 62.6411 83.0277 62.6019 82.9441 62.5295C82.8594 62.4571 82.8045 62.3565 82.7884 62.2464C81.0143 50.0518 80.116 37.7446 80.0996 25.4203C80.0996 25.2982 80.1479 25.181 80.2338 25.0947C80.3196 25.0084 80.4361 24.96 80.5575 24.96C80.6789 24.96 80.7957 25.0084 80.8815 25.0947C80.9674 25.181 81.0154 25.2982 81.0154 25.4203C81.0314 37.6988 81.9277 49.9601 83.695 62.1094C83.7121 62.23 83.6812 62.3528 83.6091 62.4505C83.5359 62.5482 83.4283 62.613 83.3081 62.6307C83.2875 62.6352 83.2669 62.6383 83.2463 62.6399Z" fill="#1B5EC9"/>
<path d="M84.6676 69.52C84.5639 69.5196 84.4649 69.4854 84.3834 69.4228C84.3018 69.3601 84.2436 69.2725 84.2179 69.1737C83.8801 67.9364 83.7799 66.6472 83.922 65.3731C83.936 65.2507 83.9977 65.1386 84.0956 65.0617C84.1923 64.9847 84.3158 64.9492 84.4393 64.9628C84.5639 64.9764 84.6769 65.0381 84.7538 65.1343C84.8319 65.2306 84.868 65.3534 84.854 65.4758C84.7247 66.6341 84.8167 67.8063 85.1231 68.9313C85.1394 68.9899 85.143 69.0509 85.136 69.111C85.1278 69.1712 85.108 69.2292 85.0777 69.2819C85.0474 69.3345 85.0066 69.3806 84.9589 69.4177C84.9099 69.4549 84.8552 69.4821 84.7958 69.498C84.7538 69.5114 84.7107 69.5188 84.6676 69.52Z" fill="#1B5EC9"/>
<path d="M85.6438 92.32C85.5255 92.32 85.4129 92.2741 85.3276 92.1914C85.2423 92.1087 85.1934 91.9962 85.1889 91.8768L84.5804 74.2357C84.5758 74.1138 84.6202 73.9953 84.7021 73.9061C84.7851 73.817 84.8989 73.7645 85.0194 73.7603C85.14 73.756 85.2571 73.8003 85.3458 73.8834C85.4345 73.9665 85.4857 74.0817 85.4903 74.2035L86.0999 91.8458C86.1033 91.9675 86.0601 92.0858 85.9771 92.1742C85.8952 92.2637 85.7814 92.3154 85.6609 92.32H85.6438Z" fill="#1B5EC9"/>
<path d="M37.3275 119.04C34.7364 119.04 32.1521 112.465 28.2417 101.71C25.8046 95.028 23.0478 87.4543 21.2594 86.672C18.3645 85.4065 15.1362 82.4485 14.4496 78.6992C14.2541 77.6315 14.4208 76.6283 14.5818 75.6515C14.606 75.5008 14.6313 75.3513 14.6543 75.1994C14.8659 73.851 14.7774 72.5268 14.3748 71.0312C13.7998 68.9028 13.3121 66.7974 12.8371 64.7599C11.702 59.8933 10.5288 54.8656 8.16077 49.1063C7.3925 47.2413 5.3568 43.5839 4.07443 41.9732L4.00542 41.8869C2.25956 39.6906 1.32682 38.6046 0.851821 38.0811C0.716568 37.9314 0.616279 37.7537 0.557969 37.5605C0.499773 37.3675 0.485166 37.1638 0.515184 36.9643C0.545202 36.7648 0.619157 36.5745 0.731752 36.4071C0.844233 36.2397 0.992481 36.0995 1.1658 35.9964C13.6146 28.5654 28.4476 22.9878 42.932 20.2819C50.241 18.9151 57.1232 18.3502 63.3867 18.5998C69.8504 18.8576 75.4686 19.9804 80.0955 21.9432C82.6581 18.8472 86.4845 16.5554 91.476 15.1288C96.0557 13.8196 101.759 13.2006 108.43 13.288C119.075 13.4272 132.528 15.3463 149.557 19.1555C152.932 19.9103 154.165 20.436 154.628 21.3162C155.063 22.1411 154.696 23.058 154.142 24.4443L154.134 24.4639C151.42 31.2414 149.571 37.8499 148.638 44.1039C148.51 44.9599 148.351 45.9447 148.168 47.0952C146.924 54.8702 144.603 69.3411 145.548 83.3942C146.322 94.9394 142.839 98.6314 139.766 101.887C137.776 103.996 136.057 105.817 135.701 109.52C135.694 109.587 135.674 109.653 135.639 109.712C135.605 109.769 135.557 109.82 135.501 109.858C135.445 109.896 135.38 109.921 135.314 109.931C135.246 109.942 135.178 109.937 135.112 109.918C123.247 106.421 113.218 105.273 104.369 104.262C98.1432 103.55 92.2627 102.881 86.3453 101.501C85.6691 101.344 84.9606 101.401 84.3166 101.661C80.6121 103.156 76.6257 105.081 72.4059 107.123C61.7099 112.3 49.5831 118.168 37.4426 119.039L37.3275 119.04ZM60.4333 19.4765C55.068 19.4765 49.2346 20.0518 43.1 21.1919C28.7236 23.8783 13.9953 29.4202 1.6362 36.796C1.57961 36.8294 1.53108 36.8751 1.49427 36.9296C1.45747 36.9841 1.43332 37.0461 1.42343 37.1112C1.4133 37.1756 1.4179 37.2415 1.43677 37.3038C1.45574 37.3662 1.48852 37.4235 1.53269 37.4714C2.01688 38.0063 2.96342 39.1073 4.72424 41.3232L4.79325 41.4083C6.11933 43.0719 8.22058 46.8421 9.00955 48.7623C11.4064 54.5861 12.5887 59.6551 13.7319 64.5562C14.2057 66.5868 14.6945 68.6853 15.2627 70.7988C15.6986 72.4221 15.794 73.8671 15.5629 75.3478C15.5387 75.502 15.5134 75.655 15.4881 75.808C15.3329 76.7457 15.1868 77.6304 15.3536 78.5404C15.9792 81.9573 18.9557 84.6667 21.6274 85.8356C23.632 86.7134 25.7885 92.3013 29.1031 101.402C30.627 105.585 32.2015 109.915 33.6829 113.114C35.7381 117.556 36.8767 118.159 37.3724 118.124C49.3427 117.269 61.3833 111.441 72.0068 106.298C76.2404 104.249 80.2404 102.313 83.9681 100.81C84.7869 100.479 85.6886 100.408 86.5489 100.608C92.4191 101.967 98.2743 102.634 104.473 103.347C113.229 104.348 123.135 105.481 134.849 108.881C135.35 105.226 137.172 103.294 139.096 101.256C142.041 98.1355 145.377 94.6 144.631 83.4564C143.683 69.2985 146.011 54.7609 147.26 46.9502C147.443 45.8078 147.605 44.8207 147.728 43.9705C148.671 37.6428 150.54 30.9699 153.279 24.1245L153.287 24.1049C153.748 22.9545 154.051 22.1963 153.815 21.7476C153.47 21.0941 151.783 20.5971 149.355 20.0564C132.39 16.2597 118.999 14.3499 108.417 14.2119C94.6066 14.0312 85.2447 16.9178 80.5936 22.7934C80.5305 22.8728 80.443 22.9291 80.3446 22.9536C80.2463 22.9783 80.1426 22.9696 80.0495 22.9291C74.7935 20.627 68.0907 19.4765 60.4333 19.4765Z" fill="#1B5EC9"/>
<path d="M40.802 34.32C40.6945 34.3205 40.5901 34.2835 40.5072 34.2155C40.4242 34.1476 40.3678 34.0529 40.3479 33.948C40.3278 33.8432 40.3456 33.7347 40.3978 33.6414C40.4501 33.5481 40.5337 33.476 40.6339 33.4374C50.3168 29.683 60.4049 28.0137 70.6197 28.475C70.6802 28.4777 70.7395 28.4922 70.7943 28.5176C70.8492 28.543 70.8983 28.579 70.9392 28.6233C70.9801 28.6676 71.0117 28.7195 71.0323 28.776C71.0529 28.8324 71.0621 28.8923 71.0594 28.9523C71.0567 29.0122 71.0421 29.0711 71.0164 29.1255C70.9908 29.1798 70.9546 29.2287 70.91 29.2692C70.8652 29.3097 70.8129 29.3411 70.7561 29.3615C70.6992 29.3821 70.6388 29.3912 70.5782 29.3885C60.4924 28.9317 50.5309 30.5817 40.97 34.2892C40.9165 34.31 40.8595 34.3204 40.802 34.32Z" fill="white"/>
<path d="M47.8407 38.4C47.7325 38.3997 47.6278 38.3615 47.545 38.2918C47.4621 38.2221 47.4065 38.1253 47.3878 38.0186C47.3691 37.9119 47.3886 37.802 47.4428 37.7082C47.497 37.6144 47.5825 37.5427 47.6842 37.5058C53.3384 35.4648 59.3315 34.5299 65.3379 34.752C65.46 34.7567 65.5753 34.8098 65.6584 34.8996C65.7414 34.9894 65.7853 35.1085 65.7805 35.2308C65.7758 35.3529 65.7227 35.4684 65.6331 35.5514C65.5434 35.6345 65.4244 35.6785 65.3022 35.6738C59.4146 35.4553 53.5397 36.3715 47.9972 38.3723C47.9472 38.3909 47.8942 38.4003 47.8407 38.4Z" fill="white"/>
<path d="M51.3593 42.2399C51.2512 42.24 51.1464 42.2016 51.0637 42.1315C50.981 42.0616 50.9255 41.9644 50.907 41.8572C50.8887 41.7501 50.9086 41.6398 50.9632 41.546C51.0179 41.4522 51.1037 41.3807 51.2057 41.3444C55.4037 39.8392 59.818 39.0338 64.2743 38.96C64.396 38.9581 64.5135 39.0047 64.6008 39.0898C64.6882 39.1747 64.7384 39.2912 64.7403 39.4135C64.7424 39.5358 64.696 39.6538 64.6114 39.7416C64.5268 39.8295 64.4109 39.88 64.2892 39.882C59.9348 39.9553 55.6216 40.7432 51.5198 42.2145C51.4683 42.2325 51.4138 42.241 51.3593 42.2399Z" fill="white"/>
<path d="M140.523 29.2799C140.477 29.2803 140.431 29.2737 140.387 29.2603C127.515 25.3107 113.966 23.2753 104.144 23.8165C102.072 23.9319 100.076 24.112 98.3891 25.0731C98.2821 25.1335 98.1555 25.1489 98.0381 25.1159C97.9195 25.0829 97.8194 25.0043 97.7584 24.8972C97.6986 24.79 97.6836 24.6633 97.7158 24.5448C97.7492 24.4263 97.8275 24.3258 97.9345 24.2654C99.7944 23.2062 101.997 23.0042 104.094 22.8888C109.342 22.6003 115.501 23.0146 122.394 24.1234C128.57 25.1234 134.671 26.5429 140.655 28.372C140.76 28.4046 140.85 28.474 140.909 28.5673C140.967 28.6606 140.99 28.7719 140.974 28.8809C140.958 28.99 140.903 29.0896 140.82 29.1618C140.737 29.2339 140.63 29.2738 140.521 29.2743L140.523 29.2799Z" fill="white"/>
<path d="M130.357 32.64C130.301 32.6397 130.246 32.6296 130.194 32.6103C123.637 30.1446 112.915 28.8067 105.244 29.4962C105.183 29.5015 105.122 29.4951 105.064 29.4771C105.007 29.4592 104.953 29.4301 104.907 29.3915C104.86 29.3529 104.822 29.3056 104.793 29.2523C104.765 29.1989 104.748 29.1407 104.742 29.0806C104.736 29.0207 104.743 28.9602 104.762 28.9028C104.779 28.8454 104.809 28.7919 104.848 28.7457C104.886 28.6995 104.934 28.6613 104.988 28.6334C105.041 28.6055 105.1 28.5883 105.161 28.5829C112.953 27.8831 123.855 29.245 130.52 31.7519C130.622 31.7892 130.707 31.8609 130.76 31.9543C130.814 32.0477 130.832 32.1567 130.813 32.2623C130.793 32.368 130.737 32.4633 130.654 32.5318C130.57 32.6003 130.465 32.6374 130.357 32.6366V32.64Z" fill="white"/>
<path d="M138.513 40.4799C138.474 40.4791 138.436 40.4738 138.398 40.4639C125.385 36.9814 110.888 35.0559 101.465 35.555C101.343 35.5613 101.224 35.5192 101.133 35.4378C101.042 35.3565 100.988 35.2425 100.981 35.1211C100.974 34.9996 101.017 34.8806 101.098 34.7903C101.18 34.6998 101.295 34.6454 101.416 34.6391C110.928 34.1343 125.533 36.0736 138.637 39.5778C138.745 39.6059 138.839 39.6723 138.901 39.7644C138.964 39.8565 138.991 39.9682 138.977 40.0786C138.962 40.1889 138.908 40.2904 138.825 40.364C138.741 40.4376 138.634 40.4784 138.522 40.4788L138.513 40.4799Z" fill="white"/>
<path d="M127.96 43.3599C127.926 43.36 127.891 43.3561 127.858 43.3484C122.465 42.1167 111.813 40.9529 108.66 41.0932C108.538 41.0986 108.419 41.0552 108.329 40.9727C108.24 40.8902 108.186 40.7753 108.18 40.6533C108.175 40.5313 108.218 40.4122 108.301 40.3221C108.383 40.2321 108.498 40.1786 108.619 40.1732C112.176 40.0168 122.897 41.2715 128.062 42.4514C128.172 42.4766 128.269 42.5414 128.334 42.6337C128.4 42.7259 128.429 42.8391 128.417 42.9514C128.404 43.0638 128.35 43.1676 128.267 43.243C128.182 43.3183 128.073 43.3599 127.96 43.3599Z" fill="white"/>
<path d="M96.4009 68.6399C96.2947 68.6397 96.1931 68.6037 96.1112 68.5379C96.0292 68.472 95.9715 68.3802 95.9496 68.2779C95.9276 68.1756 95.9415 68.069 95.99 67.9757C96.0373 67.8824 96.1158 67.8082 96.2128 67.7655C101.716 65.3375 115.4 59.4722 123.606 57.4535C123.665 57.439 123.726 57.4361 123.786 57.445C123.846 57.4539 123.904 57.4745 123.956 57.5055C124.008 57.5365 124.053 57.5773 124.089 57.6256C124.125 57.674 124.151 57.7288 124.166 57.7873C124.181 57.8456 124.183 57.9061 124.174 57.9656C124.165 58.025 124.145 58.0821 124.113 58.1335C124.082 58.1851 124.041 58.2299 123.992 58.2657C123.943 58.3013 123.888 58.3271 123.829 58.3417C115.465 60.3993 100.865 66.7138 96.5856 68.6011C96.5268 68.6261 96.4644 68.6394 96.4009 68.6399Z" fill="#181E32"/>
<path d="M111.197 80.9597C108.851 80.9597 106.49 80.0623 104.872 78.3683C104.83 78.3249 104.796 78.2736 104.773 78.2172C104.751 78.1608 104.74 78.1005 104.74 78.0399C104.741 77.9792 104.755 77.9193 104.779 77.8636C104.803 77.808 104.839 77.7577 104.882 77.7158C104.926 77.6738 104.977 77.6409 105.035 77.6192C105.091 77.5974 105.151 77.5871 105.212 77.5888C105.273 77.5905 105.332 77.6043 105.387 77.6292C105.442 77.6542 105.493 77.69 105.534 77.7345C107.919 80.2296 112.105 80.7912 115.064 79.0136C116.293 78.2743 117.584 76.5471 116.804 75.2313C116.46 74.6479 115.817 74.3384 115.337 74.1814C113.377 73.5384 111.236 74.2788 109.165 74.994C108.905 75.0834 108.647 75.1728 108.391 75.2588C108.134 75.3447 107.659 75.5006 107.201 75.284C107.063 75.2205 106.943 75.1272 106.847 75.011C106.75 74.8949 106.681 74.7586 106.644 74.6124C106.49 74.0393 106.776 73.3447 107.093 72.8828L111.462 66.5183C111.701 66.1744 111.971 65.7744 112.393 65.5051C112.919 65.1681 113.527 65.1211 114.054 65.12H114.081C115.667 65.12 120.291 65.5945 121.87 66.4954C121.976 66.5561 122.052 66.6564 122.084 66.7741C122.116 66.8917 122.099 67.0172 122.039 67.1229C121.978 67.2284 121.878 67.3056 121.76 67.3373C121.643 67.3691 121.517 67.3527 121.412 67.2919C120.142 66.5699 115.762 66.0312 114.05 66.0381C113.655 66.0381 113.207 66.069 112.88 66.2787C112.615 66.4484 112.409 66.7487 112.21 67.0386L107.852 73.4043C107.623 73.7482 107.478 74.1734 107.533 74.3774C107.536 74.3956 107.544 74.4128 107.556 74.427C107.567 74.4414 107.583 74.4522 107.6 74.4588C107.715 74.5126 107.974 74.4255 108.1 74.3843L108.866 74.1218C111.08 73.3562 113.37 72.5653 115.624 73.3035C116.254 73.5109 117.113 73.9304 117.595 74.7614C118.617 76.4955 117.323 78.727 115.534 79.7987C114.22 80.5712 112.72 80.9723 111.197 80.9597Z" fill="#181E32"/>
<path d="M123.679 76.8799C123.636 76.88 123.592 76.8739 123.55 76.8617C123.492 76.845 123.438 76.8168 123.391 76.779C123.343 76.7413 123.304 76.6946 123.276 76.6418C123.247 76.5889 123.229 76.5309 123.223 76.4709C123.216 76.4111 123.223 76.3507 123.24 76.293C123.806 74.3793 124.585 72.5346 125.563 70.7935C125.622 70.688 125.72 70.6102 125.838 70.5772C125.954 70.5442 126.08 70.5589 126.185 70.6178C126.291 70.6768 126.37 70.7753 126.403 70.8917C126.437 71.0081 126.422 71.1327 126.362 71.2383C125.418 72.9201 124.665 74.7018 124.118 76.5501C124.09 76.6451 124.033 76.7285 123.953 76.788C123.874 76.8476 123.778 76.8798 123.679 76.8799Z" fill="#181E32"/>
<path d="M127.882 74.16C127.847 74.1601 127.812 74.1563 127.779 74.1487C125.833 73.7208 123.843 73.5181 121.849 73.5451C121.727 73.5467 121.609 73.5008 121.52 73.4173C121.433 73.3338 121.383 73.2197 121.381 73.1C121.38 72.9803 121.427 72.8648 121.512 72.779C121.598 72.6932 121.714 72.644 121.836 72.6425C123.903 72.6146 125.966 72.8248 127.982 73.2687C128.093 73.2933 128.19 73.3567 128.255 73.4469C128.321 73.5372 128.35 73.648 128.338 73.7581C128.326 73.8682 128.273 73.97 128.188 74.0441C128.104 74.1183 127.995 74.1594 127.882 74.16Z" fill="#181E32"/>
<path d="M15.9276 109.727C13.3003 105.763 10.2752 101.927 8.96152 97.3594C8.01217 94.054 8.02021 90.5612 7.80414 87.127C7.52508 82.5776 6.81698 78.0636 5.68937 73.6467C5.14113 71.5117 4.48601 69.3848 4.31016 67.1865C4.11363 64.7215 4.52739 62.2531 4.93885 59.8146C5.81694 54.6156 6.69503 50.1904 7.57313 44.9914C7.62059 44.7074 7.7292 44.4371 7.89149 44.1992C8.75234 42.9345 10.9361 44.7741 11.374 45.3225C13.9968 48.5934 14.0761 55.6423 14.2669 61.9301L18.4976 38.3897C18.8021 36.6928 19.4044 34.6624 21.0801 34.2611C21.9387 34.0553 22.8455 34.3761 23.5799 34.8636C26.1533 36.5697 26.9371 39.9545 27.275 43.0265C27.9026 48.7377 27.7222 54.5089 26.7394 60.1698C29.153 51.9667 31.4666 43.7347 33.9699 35.5592C35.456 30.7074 39.7419 32.2514 40.7751 36.5674C43.0025 45.8709 40.8579 54.4397 37.6202 63.4408L45.3288 56.1815C46.0965 55.4583 46.8988 54.7145 47.901 54.3845C48.7802 54.0959 49.7296 54.1546 50.6525 54.2166C55.8141 54.5616 61.0689 54.9778 65.8708 56.9047C70.6727 58.8316 74.9506 62.1244 76.3746 67.1014C76.5022 67.5487 76.6838 68.4397 76.5792 68.8927C76.3378 69.9355 75.1379 70.4287 74.0771 70.569C72.7549 70.7353 71.4125 70.6161 70.1401 70.2195C68.8679 69.8228 67.6954 69.1579 66.7018 68.2695C65.8294 67.4785 65.087 66.5036 64.0342 65.9782C63.1963 65.5597 62.2401 65.4666 61.308 65.3803L56.7624 64.948C55.9394 64.8722 55.0878 64.7997 54.3051 65.063C53.4879 65.3401 52.8374 65.9552 52.2144 66.5576L46.1011 72.4212C45.6253 72.881 45.1299 73.3639 44.9368 73.994C44.7495 74.6045 44.8702 75.2586 45.0012 75.8875C45.8644 80.0003 47.0953 84.0274 48.6791 87.9191C49.2537 89.3298 49.9629 90.8198 51.3019 91.5453C52.7029 92.3041 54.4395 92.0201 55.9383 91.4752C63.3975 88.7596 67.3546 80.8898 72.237 74.6286C73.5013 73.0087 75.4103 71.3036 77.3446 71.9935C78.4193 72.3775 79.1204 73.4226 79.5353 74.486C81.0203 78.3008 79.6916 82.6006 78.0492 86.3509C73.4072 96.9202 66.348 106.25 57.4405 113.589C56.7152 114.185 55.9601 114.789 55.505 115.611C54.8395 116.816 54.9303 118.283 55.0751 119.652C55.5788 124.255 56.5808 128.789 58.0634 133.175C58.2818 133.822 58.5139 134.504 58.3772 135.173C58.1025 136.519 56.5578 137.12 55.2314 137.473C49.2812 139.061 43.2319 140.252 37.1237 141.037C35.5008 141.245 33.8619 141.42 32.2241 141.34C31.2678 141.294 30.2277 141.181 29.4093 140.638C27.8531 139.603 27.6428 137.261 27.2417 135.613C26.5234 132.658 25.6408 129.746 24.5982 126.889C23.5545 124.033 22.3536 121.237 21.0008 118.513C19.6458 115.79 18.1399 113.146 16.4897 110.591C16.3051 110.301 16.1177 110.013 15.9276 109.727Z" fill="#1B5EC9"/>
<path d="M15.4838 80.9597C15.378 80.9597 15.2754 80.9218 15.1937 80.854C15.1121 80.7862 15.0565 80.6921 15.0363 80.5876C14.6938 78.7823 14.4655 76.2513 14.2257 73.5732C14.0967 72.1148 13.962 70.607 13.8033 69.1692C13.7177 68.3871 13.5955 67.7647 13.4882 67.2169C13.1857 65.6632 12.9665 64.54 13.8307 61.7805C13.8467 61.7205 13.8746 61.6645 13.9127 61.6157C13.9508 61.5669 13.9983 61.5263 14.0524 61.4965C14.1064 61.4666 14.166 61.4481 14.2275 61.4421C14.2888 61.4361 14.3508 61.4426 14.4095 61.4613C14.4685 61.48 14.5228 61.5105 14.5696 61.551C14.6164 61.5914 14.6545 61.641 14.6817 61.6966C14.709 61.7523 14.7246 61.8131 14.728 61.875C14.7312 61.937 14.7219 61.9989 14.7007 62.0572C13.9015 64.5929 14.0956 65.5667 14.3821 67.0401C14.4963 67.6074 14.6185 68.2505 14.7087 69.0704C14.8685 70.5174 15.0032 72.0298 15.1334 73.4928C15.3697 76.1479 15.59 78.6606 15.9325 80.4165C15.9553 80.5359 15.93 80.6599 15.8622 80.761C15.7943 80.8609 15.6895 80.9309 15.5706 80.9539C15.542 80.9585 15.513 80.9608 15.4838 80.9597Z" fill="#181E32"/>
<path d="M25.3739 79.8399C25.2559 79.8403 25.1421 79.7964 25.0556 79.717C24.969 79.6377 24.9162 79.5289 24.9075 79.4125C24.7723 77.5001 24.5356 75.9356 24.3246 74.5554C23.674 70.2386 23.2449 67.3872 26.3276 59.9517C26.3772 59.8431 26.4673 59.7575 26.5792 59.7131C26.6912 59.6687 26.8163 59.6689 26.9281 59.7136C27.0399 59.7583 27.1298 59.8441 27.1789 59.953C27.2281 60.0619 27.2326 60.1853 27.1916 60.2974C24.2045 67.499 24.6195 70.2501 25.2468 74.416C25.4578 75.8134 25.6957 77.3964 25.8298 79.3434C25.8385 79.4653 25.7977 79.5857 25.7167 79.678C25.6355 79.7701 25.5207 79.8268 25.3972 79.8353L25.3739 79.8399Z" fill="#181E32"/>
<path d="M33.2884 80.08H33.2627C33.2015 80.0765 33.1414 80.0617 33.086 80.0353C33.0306 80.0102 32.981 79.9735 32.9399 79.9287C32.8989 79.8839 32.8674 79.8317 32.8469 79.775C32.8265 79.7182 32.8177 79.6581 32.821 79.5981C32.8467 79.114 32.8701 78.5269 32.8958 77.8459C33.0033 75.0637 33.1493 71.2537 33.7231 69.3035C34.4383 66.8669 34.8765 66.1207 37.3258 63.1611C37.3621 63.1087 37.409 63.0641 37.4637 63.0304C37.5184 62.9966 37.5796 62.9744 37.6435 62.965C37.7074 62.9556 37.7727 62.9593 37.8351 62.9759C37.8975 62.9924 37.9556 63.0214 38.006 63.0612C38.0564 63.1009 38.0978 63.1503 38.1275 63.2065C38.1573 63.2627 38.175 63.3243 38.1793 63.3875C38.1835 63.4506 38.1744 63.5139 38.1524 63.5734C38.1305 63.6331 38.0961 63.6874 38.0515 63.7333C35.6828 66.5945 35.2983 67.2492 34.6217 69.5519C34.0795 71.3956 33.9288 75.2949 33.8295 77.8757C33.8037 78.5624 33.7804 79.1506 33.7547 79.6416C33.7496 79.7594 33.6982 79.8708 33.6114 79.9524C33.5246 80.0342 33.4089 80.08 33.2884 80.08Z" fill="#181E32"/>
<path d="M13.5989 87.52C13.5454 87.52 13.4922 87.5106 13.4417 87.4919C13.3275 87.4498 13.2345 87.3622 13.1832 87.2501C13.132 87.1379 13.1268 87.0094 13.1685 86.8926C13.4486 86.1086 14.2497 85.5198 15.208 85.3913C16.0113 85.2838 16.7986 85.4742 17.4953 85.6425C17.5554 85.6553 17.6123 85.6799 17.6628 85.7161C17.7132 85.7511 17.7562 85.7967 17.7891 85.8493C17.8219 85.9018 17.8442 85.9614 17.8543 86.0233C17.8645 86.0841 17.8623 86.1472 17.8482 86.2079C17.834 86.2687 17.8079 86.3259 17.7716 86.3762C17.7354 86.4264 17.6895 86.4696 17.6368 86.5012C17.5841 86.5339 17.5257 86.5538 17.4649 86.5631C17.4042 86.5713 17.3423 86.5678 17.283 86.5514C16.6345 86.3949 15.9631 86.2336 15.3319 86.3178C14.8591 86.382 14.2359 86.6542 14.035 87.2127C14.0026 87.3038 13.9431 87.3821 13.8651 87.437C13.7869 87.4919 13.6939 87.5211 13.5989 87.52Z" fill="#181E32"/>
<path d="M24.1579 85.6C24.0698 85.6 23.9834 85.5724 23.9093 85.5232C23.8352 85.4728 23.7765 85.4021 23.7402 85.3181C23.7038 85.2341 23.6913 85.1418 23.7041 85.0506C23.717 84.9595 23.7547 84.8743 23.8127 84.8047C24.6067 83.8535 26.12 83.7252 27.0522 84.5288C27.0989 84.5696 27.1375 84.6188 27.1658 84.674C27.194 84.7304 27.2115 84.7915 27.2172 84.8539C27.2229 84.9163 27.2165 84.9799 27.1987 85.0398C27.1809 85.101 27.1519 85.1562 27.1132 85.2054C27.0746 85.2545 27.0272 85.2941 26.9737 85.3241C26.9202 85.3529 26.8616 85.3709 26.8013 85.3769C26.741 85.3829 26.6802 85.3769 26.6225 85.3577C26.5646 85.3397 26.5109 85.3097 26.4641 85.2689C25.9117 84.7891 24.9784 84.8707 24.5078 85.4345C24.4644 85.4872 24.4106 85.528 24.3502 85.5568C24.2899 85.5856 24.2243 85.6 24.1579 85.6Z" fill="#181E32"/>
<path d="M34.2381 85.68C34.1577 85.68 34.0785 85.6587 34.0088 85.6173C33.939 85.5759 33.8811 85.5156 33.8408 85.4434C33.8005 85.3713 33.7793 85.2897 33.7793 85.2069C33.7792 85.1241 33.8004 85.0425 33.8406 84.9704C34.0116 84.6606 34.2522 84.3968 34.5422 84.2017C34.8323 84.0078 35.1632 83.8883 35.5074 83.8528C35.8918 83.8126 36.2799 83.867 36.6402 84.0101C37.0005 84.1544 37.3228 84.3838 37.5808 84.6807C37.6213 84.7268 37.6524 84.7812 37.6727 84.8391C37.6928 84.8983 37.7018 84.9598 37.6987 85.0224C37.6957 85.0839 37.6808 85.1454 37.655 85.201C37.6292 85.2578 37.5928 85.3075 37.5482 85.35C37.5035 85.3914 37.4514 85.4233 37.3945 85.4446C37.3378 85.4647 37.2777 85.4742 37.2176 85.4707C37.1574 85.4683 37.0984 85.4529 37.044 85.4257C36.9896 85.3997 36.9408 85.3619 36.9004 85.3157C36.7402 85.1289 36.5396 84.9834 36.3149 84.8924C36.0902 84.8001 35.8477 84.7646 35.607 84.7883C35.4072 84.8084 35.2149 84.877 35.0461 84.9893C34.8773 85.1017 34.737 85.2542 34.6367 85.434C34.5976 85.5085 34.5399 85.57 34.4698 85.6126C34.3998 85.6563 34.3198 85.68 34.2381 85.68Z" fill="#181E32"/>
<path d="M26.589 146.72C26.4671 146.72 26.35 146.672 26.2637 146.585C26.1775 146.499 26.1289 146.382 26.1289 146.26C26.0944 143.286 24.9086 140.574 23.6538 137.702C22.9108 136.002 22.1425 134.243 21.6411 132.432C21.3765 131.478 21.1569 130.256 21.8078 129.274C22.529 128.185 23.8976 127.972 25.2686 127.901L42.9808 127.002C44.5358 126.924 46.2897 126.937 47.4215 128.105C48.2864 128.996 48.4819 130.243 48.6705 131.449C48.7373 131.942 48.8332 132.431 48.958 132.913C49.0938 133.389 49.3318 133.789 49.4756 133.926C49.5458 133.825 49.6826 133.559 49.8149 132.899C50.1473 131.236 50.2036 129.691 49.9828 128.306L49.9748 128.257C49.8931 127.745 49.7907 127.107 50.1289 126.562C50.444 126.05 51.0053 125.842 51.509 125.687C55.2347 124.533 59.0809 123.812 62.9713 123.539C63.4003 123.509 64.1997 123.453 64.7552 123.943C65.2498 124.379 65.3418 125.035 65.3889 125.615C65.8181 130.881 65.8949 136.168 65.619 141.444C65.6159 141.505 65.6008 141.564 65.5748 141.619C65.5487 141.673 65.5121 141.722 65.4671 141.763C65.4222 141.803 65.3697 141.834 65.3127 141.855C65.2556 141.874 65.1953 141.883 65.1348 141.88C65.0744 141.877 65.0151 141.862 64.9606 141.836C64.906 141.81 64.857 141.773 64.8166 141.728C64.7761 141.683 64.7449 141.63 64.7247 141.574C64.7045 141.517 64.6957 141.457 64.6989 141.396C64.9702 136.165 64.8915 130.92 64.4631 125.699C64.4297 125.28 64.3757 124.852 64.1387 124.643C63.9018 124.433 63.436 124.438 63.0277 124.465C59.2079 124.734 55.4316 125.442 51.7736 126.574C51.417 126.689 51.0559 126.814 50.9075 127.054C50.7592 127.294 50.8155 127.722 50.8788 128.12L50.8868 128.17C51.1249 129.665 51.0662 131.318 50.712 133.089C50.5602 133.849 50.2715 134.862 49.5228 134.892C48.5969 134.933 48.1196 133.354 48.069 133.175C47.9337 132.658 47.8296 132.131 47.7573 131.601C47.5825 130.488 47.418 129.437 46.7567 128.754C45.8929 127.862 44.3759 127.861 43.0222 127.93L25.31 128.829C24.1806 128.887 23.0661 129.043 22.5704 129.791C22.1253 130.465 22.3116 131.429 22.5232 132.196C23.0074 133.944 23.7631 135.671 24.4923 137.342C25.7287 140.172 27.0076 143.099 27.0444 146.259C27.0445 146.38 26.9968 146.496 26.9118 146.582C26.8267 146.668 26.7112 146.718 26.5901 146.719L26.589 146.72Z" fill="#181E32"/>
<path d="M40.9618 132.992C41.4512 134.199 43.312 134.565 44.2361 133.639C45.1602 132.713 44.7517 130.886 43.5185 130.426C42.2852 129.967 40.753 131.068 40.8226 132.367L40.9618 132.992Z" fill="white"/>
<path d="M34.1098 131.607C35.1432 130.38 36.6555 131.374 36.8057 132.423C36.9559 133.472 35.8322 134.485 34.8428 134.187C33.8534 133.889 33.4333 132.413 34.1098 131.607Z" fill="#181E32"/>
<path d="M35.2036 134.72C35.0363 134.718 34.8701 134.692 34.7098 134.643C34.0877 134.457 33.595 133.926 33.3934 133.223C33.1917 132.519 33.3235 131.8 33.7486 131.3C33.7628 131.284 33.778 131.268 33.7944 131.254C34.4543 130.669 35.254 130.491 35.9884 130.768C36.3222 130.892 36.6178 131.104 36.845 131.383C37.0723 131.662 37.223 131.996 37.2818 132.354C37.3769 133.01 37.11 133.688 36.5681 134.17C36.1936 134.516 35.7087 134.712 35.2036 134.72ZM34.4153 131.943C34.3181 132.094 34.2547 132.264 34.2297 132.443C34.2048 132.622 34.2189 132.805 34.271 132.977C34.3231 133.15 34.4119 133.309 34.5312 133.442C34.6504 133.576 34.7971 133.68 34.9607 133.749C35.2769 133.844 35.6607 133.736 35.9609 133.468C36.261 133.2 36.4191 132.828 36.3699 132.496C36.3345 132.304 36.2507 132.126 36.127 131.978C36.0032 131.829 35.8437 131.717 35.6641 131.65C35.2574 131.497 34.8152 131.601 34.4153 131.943Z" fill="#181E32"/>
<path d="M123.135 108.037C126.455 102.052 132.408 97.3809 133.793 90.6781C134.713 86.2587 131.993 82.2628 130.943 77.8735C129.893 73.484 129.4 69.1658 130.943 64.9248C131.944 62.1788 133.494 61.9003 134.591 62.0234C135.562 62.1316 136.139 63.1329 136.558 64.0168C141.827 75.1044 147.148 86.3519 149.367 98.4282C149.44 98.8207 149.507 99.2338 149.414 99.6159C149.269 100.217 148.772 100.652 148.303 101.058C139.756 108.393 132.391 117.006 126.472 126.593C126.152 127.112 125.752 127.69 125.146 127.754C124.808 127.791 124.477 127.653 124.173 127.502C122.056 126.455 119.965 124.663 120.106 122.141C120.276 119.083 120.221 116.138 121.048 113.152C121.54 111.37 122.241 109.654 123.135 108.037Z" fill="#1B5EC9"/>
<path d="M144.756 142.96C144.711 142.96 144.668 142.954 144.625 142.94C144.566 142.923 144.512 142.895 144.465 142.857C144.418 142.819 144.379 142.772 144.35 142.718C144.321 142.665 144.304 142.606 144.298 142.545C144.291 142.486 144.298 142.425 144.315 142.366L148.23 129.249C148.345 128.861 148.46 128.427 148.29 128.172C148.167 127.982 147.873 127.871 147.608 127.78C144.293 126.654 140.7 126.599 136.997 126.642C131.545 126.704 126.023 126.923 120.585 127.294C120.039 127.331 119.434 127.401 119.159 127.754C118.941 128.033 118.928 128.468 118.918 128.929V129.021C118.862 130.839 118.43 132.624 117.652 134.268C117.409 134.781 116.939 135.397 116.352 135.586C116.202 135.637 116.043 135.656 115.885 135.642C115.728 135.629 115.574 135.582 115.436 135.505C114.095 134.769 113.669 132.315 114.138 127.999C114.179 127.613 114.174 127.097 113.913 126.83C113.731 126.644 113.411 126.568 112.962 126.606C111.91 126.696 110.853 126.712 109.798 126.655C108.744 126.605 107.69 126.609 106.637 126.669C106.422 126.681 106.204 126.68 105.994 126.677C105.21 126.677 104.716 126.696 104.464 127.071C104.073 127.655 104.077 128.468 104.08 129.254V129.338C104.087 133.749 103.226 138.12 101.547 142.199C101.501 142.312 101.411 142.402 101.298 142.449C101.186 142.496 101.059 142.496 100.945 142.45C100.832 142.403 100.742 142.313 100.695 142.201C100.649 142.088 100.648 141.962 100.695 141.849C102.33 137.883 103.171 133.636 103.167 129.347V129.264C103.167 128.381 103.159 127.382 103.706 126.565C104.253 125.748 105.184 125.76 106.009 125.76C106.215 125.76 106.409 125.76 106.596 125.754C107.677 125.693 108.761 125.687 109.842 125.739C110.858 125.794 111.878 125.778 112.894 125.693C113.63 125.631 114.197 125.798 114.581 126.19C114.992 126.609 115.156 127.253 115.062 128.1C114.494 133.339 115.451 134.461 115.889 134.7C115.918 134.716 115.949 134.727 115.982 134.729C116.014 134.731 116.048 134.727 116.078 134.714C116.319 134.636 116.635 134.284 116.828 133.877C117.55 132.347 117.95 130.687 118 128.997V128.907C118.015 128.346 118.033 127.709 118.436 127.192C118.946 126.539 119.782 126.43 120.527 126.38C125.982 126.007 131.521 125.788 136.991 125.725C140.776 125.682 144.458 125.74 147.911 126.913C148.352 127.063 148.798 127.257 149.068 127.673C149.479 128.306 149.244 129.091 149.119 129.512L145.204 142.628C145.176 142.724 145.117 142.81 145.036 142.869C144.955 142.929 144.856 142.961 144.756 142.96Z" fill="#181E32"/>
<path d="M123.024 131.717C122.409 132.492 122.606 133.756 123.373 134.389C124.187 135.06 125.57 134.886 126.181 134.038C126.792 133.189 126.492 131.855 125.573 131.335C124.654 130.815 123.583 131.006 123.024 131.717Z" fill="white"/>
<path d="M130.435 131.989C131.01 130.597 132.603 130.916 133.123 131.799C133.642 132.682 132.951 134.004 131.933 134.077C130.915 134.15 130.045 132.937 130.435 131.989Z" fill="#181E32"/>
<path d="M131.844 134.56C131.532 134.552 131.225 134.469 130.951 134.319C130.677 134.17 130.443 133.957 130.267 133.698C129.85 133.116 129.745 132.419 129.988 131.822C130.256 131.092 130.821 130.635 131.54 130.568C131.931 130.535 132.323 130.609 132.675 130.785C133.027 130.959 133.324 131.228 133.534 131.56C133.863 132.117 133.861 132.829 133.528 133.466C133.195 134.103 132.611 134.512 131.966 134.555C131.921 134.56 131.885 134.56 131.844 134.56ZM131.728 131.489C131.695 131.489 131.664 131.489 131.632 131.489C131.267 131.524 131.008 131.744 130.863 132.145L130.856 132.163C130.74 132.457 130.799 132.835 131.026 133.15C131.252 133.465 131.59 133.648 131.907 133.624C132.223 133.601 132.531 133.374 132.711 133.03C132.799 132.879 132.848 132.708 132.854 132.534C132.858 132.359 132.82 132.185 132.741 132.03C132.628 131.863 132.476 131.727 132.299 131.635C132.12 131.54 131.923 131.493 131.722 131.494L131.728 131.489Z" fill="#181E32"/>
<path d="M8.76683 52.3611C9.06803 51.901 9.40916 51.4248 9.46735 50.875C9.95908 46.2302 7.80618 46.336 7.30989 47.1573C7.09425 47.5139 7.01781 47.9372 6.94707 48.3502C6.76453 49.3953 6.58278 50.4409 6.40172 51.4869C6.33954 51.754 6.32402 52.03 6.35608 52.3025C6.38769 52.4726 6.45865 52.6327 6.56316 52.77C6.66767 52.9073 6.80298 53.0178 6.9578 53.0925C7.11262 53.1671 7.28285 53.2038 7.45444 53.1997C7.62603 53.1955 7.79432 53.1505 7.94537 53.0685C8.27692 52.9108 8.56055 52.6665 8.76683 52.3611Z" fill="#FF6800"/>
<path d="M17.7054 43.0895C17.6894 43.513 17.6917 43.9563 17.8769 44.3354C18.3182 45.2384 19.641 45.3355 20.4528 44.7623C21.2645 44.1891 21.6658 43.1866 21.9517 42.2203C22.2364 41.2557 22.4481 40.2701 22.5851 39.2724C22.6994 38.4699 22.7383 37.5797 22.2718 36.9234C21.6693 36.0765 19.8457 35.5957 19.0614 36.4461C18.7367 36.7971 18.6315 37.3212 18.5331 37.7774C18.3799 38.4863 18.2164 39.1964 18.0758 39.9088C17.8686 40.9571 17.7447 42.0208 17.7054 43.0895Z" fill="#FF6800"/>
<path d="M32.8821 39.6801C32.6913 40.4025 32.4994 41.1513 32.6152 41.8897C32.731 42.6282 33.2455 43.3402 33.9723 43.478C37.3499 44.1143 37.4862 37.3062 37.3453 36.4724C37.2045 35.6386 36.6639 34.8278 35.8564 34.6073C34.7333 34.3007 34.0223 35.5054 33.4374 37.5439C33.2353 38.2491 33.0695 38.9715 32.8821 39.6801Z" fill="#FF6800"/>
<path d="M70.8582 62.2139C71.0267 63.1161 71.413 64.1807 72.0274 64.864C72.957 65.8895 74.1675 67.1178 75.3516 67.3448C75.4962 67.3729 75.6456 67.3618 75.7845 67.3128C75.9234 67.2638 76.047 67.1785 76.1424 67.0657C76.2377 66.953 76.3016 66.8168 76.3274 66.671C76.3533 66.5253 76.3401 66.3753 76.2892 66.2363C75.8548 65.0691 74.775 63.3788 74.3967 62.9421C73.6803 62.1125 72.9066 61.1734 72.0216 60.5224C70.9464 59.7331 70.7161 61.4545 70.8582 62.2139Z" fill="#FF6800"/>
<path d="M77.4491 78.0706C77.0807 79.2078 76.7122 80.3448 76.3437 81.4832C76.0656 82.343 75.7863 83.261 76.0373 84.1288C76.2883 84.9965 77.3042 85.7147 78.148 85.3368C78.7372 85.0742 79 84.4233 79.2015 83.833C79.6164 82.6193 80.5862 79.3425 80.281 76.9071C80.1632 75.9343 79.046 75.7116 78.3153 76.3967C77.8439 76.8386 77.64 77.4803 77.4491 78.0706Z" fill="#FF6800"/>
<path d="M135.797 71.6178C136.187 72.1762 136.689 72.6816 137.324 72.9441C137.959 73.2066 138.737 73.1917 139.29 72.7876C139.904 72.3397 140.044 71.6846 139.873 70.9455C139.757 70.4343 139.208 69.2611 138.862 68.5899C138.395 67.6941 138.011 66.8928 137.548 65.9971C137.231 65.3835 137.149 64.7007 136.339 64.9229C134.747 65.3604 134.615 67.8012 134.809 69.0918C134.944 69.9957 135.281 70.8585 135.797 71.6178Z" fill="#FF6800"/>
<path d="M148.358 94.1599C148.251 94.1599 148.148 94.1228 148.066 94.0531C147.983 93.9846 147.928 93.8894 147.907 93.7837C147.364 90.9738 145.304 85.2598 144.133 82.3186C144.11 82.2617 144.099 82.2014 144.1 82.141C144.1 82.0794 144.112 82.0191 144.137 81.9633C144.16 81.9064 144.194 81.8553 144.238 81.8124C144.281 81.7694 144.332 81.7357 144.388 81.7137C144.444 81.6905 144.504 81.6788 144.565 81.68C144.626 81.68 144.686 81.6928 144.742 81.716C144.797 81.7404 144.848 81.7752 144.89 81.8182C144.933 81.8623 144.966 81.9134 144.989 81.9703C146.173 84.944 148.256 90.7311 148.811 93.6037C148.834 93.7245 148.809 93.8499 148.741 93.9521C148.673 94.0543 148.567 94.1251 148.447 94.1483C148.418 94.1553 148.388 94.1588 148.358 94.1599Z" fill="#181E32"/>
<path d="M121.364 114.559C121.344 114.56 121.326 114.56 121.306 114.559C121.246 114.552 121.187 114.533 121.134 114.502C121.082 114.472 121.036 114.432 120.998 114.385C120.961 114.336 120.933 114.282 120.917 114.223C120.901 114.164 120.896 114.102 120.904 114.042C121.446 109.707 124.22 105.66 126.863 102.273C126.899 102.222 126.945 102.179 126.998 102.147C127.052 102.114 127.112 102.093 127.173 102.084C127.234 102.076 127.298 102.08 127.358 102.096C127.418 102.112 127.474 102.14 127.523 102.178C127.572 102.216 127.613 102.265 127.643 102.319C127.673 102.373 127.691 102.433 127.698 102.496C127.704 102.557 127.698 102.619 127.68 102.68C127.661 102.738 127.631 102.794 127.591 102.841C125.026 106.129 122.334 110.045 121.817 114.158C121.802 114.268 121.748 114.37 121.665 114.443C121.582 114.516 121.475 114.558 121.364 114.559Z" fill="#181E32"/>
<path d="M120.637 118.799C120.613 118.8 120.59 118.8 120.566 118.799C120.507 118.79 120.45 118.77 120.399 118.738C120.347 118.707 120.303 118.666 120.267 118.618C120.232 118.569 120.207 118.514 120.192 118.456C120.178 118.398 120.176 118.338 120.185 118.279C120.215 118.088 120.231 117.937 120.247 117.788C120.263 117.638 120.281 117.465 120.314 117.252C120.336 117.136 120.402 117.032 120.499 116.964C120.596 116.896 120.716 116.867 120.834 116.885C120.951 116.904 121.057 116.967 121.128 117.062C121.2 117.157 121.231 117.276 121.216 117.393C121.186 117.584 121.172 117.729 121.156 117.883C121.14 118.037 121.121 118.206 121.088 118.419C121.07 118.525 121.015 118.621 120.933 118.691C120.85 118.762 120.746 118.799 120.637 118.799Z" fill="#181E32"/>
<path d="M85.5005 96.9599C85.3839 96.9599 85.2718 96.9101 85.1893 96.8209C85.1068 96.7318 85.0605 96.6106 85.0605 96.4847V94.7952C85.0605 94.6693 85.1068 94.5481 85.1893 94.459C85.2718 94.3699 85.3839 94.3199 85.5005 94.3199C85.6171 94.3199 85.7293 94.3699 85.8118 94.459C85.8943 94.5481 85.9406 94.6693 85.9406 94.7952V96.4847C85.9406 96.6106 85.8943 96.7318 85.8118 96.8209C85.7293 96.9101 85.6171 96.9599 85.5005 96.9599Z" fill="#1B5EC9"/>
<path d="M149.717 101.6C149.597 101.6 149.481 101.555 149.395 101.473C149.308 101.39 149.257 101.279 149.254 101.161C149.195 99.3137 148.947 97.4767 148.512 95.6783C148.484 95.5614 148.504 95.4377 148.569 95.3356C148.634 95.2324 148.737 95.1597 148.856 95.1325C148.976 95.1041 149.102 95.1246 149.207 95.1881C149.311 95.2505 149.386 95.3526 149.414 95.4695C149.863 97.3269 150.118 99.224 150.18 101.133C150.183 101.253 150.138 101.37 150.055 101.457C149.97 101.544 149.855 101.597 149.732 101.6H149.717Z" fill="#181E32"/>
</g>
<defs>
<clipPath id="clip0_165_7375">
<rect width="160" height="160" fill="white" transform="translate(0.5)"/>
</clipPath>
</defs>
</svg>
