<svg width="161" height="160" viewBox="0 0 161 160" fill="none" xmlns="http://www.w3.org/2000/svg">
<g clip-path="url(#clip0_165_7423)">
<path d="M36.4941 52.3521C36.1796 50.6695 35.8709 48.9139 36.3398 47.2667C36.9713 45.0577 38.8821 43.4646 40.8306 42.246C49.288 36.958 59.7811 36.2162 69.75 36.5471C86.9064 37.117 104.996 40.9484 117.39 52.8254C119.428 54.7788 121.325 56.996 122.251 59.6629C123.311 62.7243 123 66.0848 122.648 69.3122C120.145 92.273 116.482 115.096 112.819 137.903C112.466 140.107 112.068 142.415 110.699 144.179C109.674 145.501 107.722 147.167 106.283 148.021C100.472 151.472 94.8266 154.239 88.0727 154.539C83.2814 154.752 78.5749 153.295 74.1147 151.533C68.1396 149.178 62.281 146.163 57.7902 141.571C54.0286 137.724 51.3638 132.652 50.8572 127.256C50.6805 125.388 50.8101 123.522 50.5274 121.658C50.0561 118.53 49.222 115.434 48.5564 112.342C47.1789 105.957 45.8312 99.5697 44.5133 93.1784C43.1844 86.7354 41.8847 80.2876 40.6139 73.8348C39.3533 67.4318 38.1207 61.0224 36.9159 54.6069C36.7762 53.8549 36.6355 53.1033 36.4941 52.3521Z" fill="#F2DFE7"/>
<path d="M16.0875 76.8975C14.6745 77.7221 13.2157 78.629 12.395 80.0454C11.2458 82.0268 11.6061 84.5029 12.0029 86.7599L18.8321 125.67C19.9118 131.821 21.021 138.066 23.7562 143.68C39.5634 136.078 50.9187 120.695 67.3523 114.565C67.9034 114.36 68.5121 114.119 68.7653 113.588C68.936 113.235 68.9065 112.816 68.8748 112.422C68.2123 104.416 67.5471 96.4123 66.879 88.4114C66.8001 87.4691 66.7153 86.4937 66.3009 85.6385C65.7828 84.5689 64.8114 83.802 63.8718 83.0752C58.0505 78.5655 52.2045 74.0421 45.8568 70.2949C44.2744 69.3608 43.0887 68.4832 41.4532 67.6492C40.3087 67.0602 39.0453 66 39.0453 66C37.3333 66.3534 34.1083 67.9931 32.5058 68.6717C30.7742 69.4044 29.0575 70.1708 27.3556 70.9711C23.5124 72.7805 19.7564 74.7559 16.0875 76.8975Z" fill="#1B5EC9"/>
<path d="M65.5246 93.7938C66.1067 93.7337 66.7759 93.7077 67.1824 94.1285C67.4794 94.4361 67.5359 94.8945 67.589 95.3188C68.6746 105.036 69.7614 114.753 70.8493 124.47C70.9789 125.625 71.1038 126.827 70.7432 127.926C70.1341 129.791 68.3171 130.944 66.644 131.968C56.4571 138.196 46.8479 145.324 37.9314 153.267C37.4789 153.671 36.9888 154.092 36.3808 154.153C35.8199 154.207 35.2861 153.929 34.7901 153.661C30.7438 151.462 26.5503 149.137 23.8991 145.369C21.8866 142.508 20.9381 139.049 20.118 135.647C18.7458 129.954 17.6318 124.204 16.7764 118.401C16.3459 115.479 15.9822 112.548 15.6853 109.609C15.5368 108.139 14.6602 101.966 14.6602 101.966C15.6676 100.497 19.556 100.718 21.0701 100.641C23.9192 100.497 27.0428 100.124 29.8683 99.7338C35.5984 98.9418 40.6473 98.2323 46.3114 97.0678C51.9754 95.9034 57.6654 94.7519 63.4143 94.0354C64.115 93.9482 64.8184 93.868 65.5246 93.7938Z" fill="#FF6800"/>
<path d="M64.1875 67.36C64.0889 67.3605 63.9927 67.3295 63.9127 67.2716C61.2746 65.375 57.8169 63.0445 54.4783 60.8049C49.6997 57.5856 44.7596 54.2579 41.7205 51.8839C41.6219 51.8069 41.5579 51.6937 41.5426 51.5695C41.5273 51.4453 41.5621 51.3201 41.6391 51.2214C41.7163 51.1229 41.8294 51.0589 41.9537 51.0435C42.078 51.0283 42.2032 51.0631 42.3019 51.1401C45.3139 53.4976 50.241 56.8135 55.0054 60.0222C58.3488 62.276 61.8077 64.6052 64.4623 66.5054C64.5434 66.5637 64.604 66.646 64.6353 66.7408C64.6665 66.8356 64.667 66.9378 64.6365 67.0328C64.6059 67.1278 64.5459 67.2107 64.4654 67.2695C64.3847 67.3283 64.2874 67.36 64.1875 67.36Z" fill="#1B5EC9"/>
<path d="M40.5161 50.8C40.4035 50.7999 40.2948 50.7577 40.2102 50.6813C38.7771 49.3881 38.5801 48.8585 38.5801 48.4786C38.5792 48.3527 38.6271 48.2314 38.7134 48.1417C38.7996 48.0519 38.9171 48.001 39.0401 48C39.163 47.9992 39.2813 48.0482 39.3689 48.1367C39.4563 48.225 39.506 48.3456 39.507 48.4714C39.5162 48.5201 39.6228 48.8823 40.8231 49.9676C40.8938 50.0315 40.9437 50.1159 40.9664 50.2096C40.9892 50.3033 40.9834 50.4018 40.95 50.4921C40.9167 50.5823 40.8573 50.66 40.7798 50.7149C40.7023 50.7697 40.6103 50.7989 40.5161 50.7989V50.8Z" fill="#1B5EC9"/>
<path d="M105.129 75.196H105.089C92.1213 74.1141 82.2423 72.6716 72.0575 70.3876C71.938 70.3574 71.835 70.281 71.7701 70.1744C71.7053 70.0679 71.6838 69.9399 71.7103 69.8175C71.7367 69.6952 71.809 69.588 71.9118 69.5193C72.0145 69.4504 72.1397 69.425 72.2604 69.4487C82.4028 71.7231 92.2429 73.1549 105.167 74.238C105.292 74.2432 105.41 74.2989 105.495 74.3928C105.58 74.4867 105.625 74.6111 105.619 74.7386C105.614 74.8662 105.56 74.9864 105.468 75.0728C105.374 75.1593 105.253 75.2049 105.128 75.1997L105.129 75.196Z" fill="#1B5EC9"/>
<path d="M110.576 74.08C110.474 74.0803 110.375 74.0479 110.293 73.9877C110.21 73.9274 110.151 73.8425 110.121 73.7455C110.09 73.6484 110.093 73.5445 110.127 73.4488C110.162 73.3533 110.226 73.2711 110.31 73.2144C114.685 70.2448 117.741 65.7068 118.837 60.5473C118.849 60.4854 118.873 60.4262 118.908 60.3736C118.942 60.3209 118.987 60.2756 119.039 60.2405C119.092 60.2052 119.151 60.1809 119.213 60.1688C119.276 60.1567 119.34 60.1571 119.401 60.17C119.463 60.1828 119.522 60.2078 119.574 60.2437C119.626 60.2794 119.671 60.3253 119.704 60.3783C119.739 60.4314 119.762 60.4908 119.773 60.5529C119.784 60.6151 119.781 60.6787 119.767 60.7401C118.619 66.1404 115.422 70.8903 110.842 73.9984C110.763 74.0515 110.671 74.0799 110.576 74.08Z" fill="#1B5EC9"/>
<path d="M105.774 129.68H105.726C105.664 129.673 105.604 129.655 105.549 129.626C105.494 129.596 105.446 129.556 105.406 129.508C105.367 129.46 105.339 129.404 105.32 129.345C105.302 129.286 105.297 129.224 105.303 129.162C107.386 109.117 108.198 90.1332 108.513 77.74C108.515 77.6781 108.529 77.6172 108.554 77.5605C108.58 77.5039 108.615 77.4527 108.66 77.41C108.705 77.3673 108.758 77.3339 108.817 77.3117C108.875 77.2894 108.936 77.2786 108.999 77.2802C109.06 77.2818 109.122 77.2955 109.179 77.3206C109.236 77.3457 109.288 77.3818 109.33 77.4267C109.373 77.4715 109.406 77.5245 109.429 77.5823C109.451 77.64 109.462 77.7017 109.461 77.7636C109.146 90.178 108.331 109.188 106.246 129.259C106.233 129.375 106.178 129.482 106.091 129.559C106.004 129.636 105.892 129.68 105.774 129.68Z" fill="#1B5EC9"/>
<path d="M100.399 133.787C101.223 134.259 101.99 134.613 102.636 135.307C103.784 136.551 104.101 137.127 103.683 139.449C103.041 143.009 102.478 147.253 101.787 150.177C101.787 150.177 95.9728 153.555 92.9561 154.641C75.5648 160.895 56.9667 161.132 39.4024 155.379C38.5722 155.107 35.9877 153.806 35.9877 153.806C35.9877 153.806 35.8452 152.097 35.8005 151.289L35.565 147.013C35.5285 146.342 35.4943 145.648 35.7322 145.019C36.0195 144.255 36.6636 143.694 37.2841 143.166C41.1085 139.923 44.9887 136.748 48.9246 133.641C52.8797 130.519 57.1127 127.976 61.1761 124.994C63.2167 123.498 66.6796 120.72 68.7543 119.272C70.5523 118.018 70.5205 118.638 72.4045 119.469C76.9672 121.475 81.0001 123.795 85.4969 125.949C89.9936 128.103 94.4127 130.401 98.7528 132.849C99.3027 133.158 99.8514 133.471 100.399 133.787Z" fill="#181E32"/>
<path d="M65.165 160C56.3623 159.988 47.6169 158.578 39.2549 155.822C38.3998 155.542 35.8771 154.276 35.7699 154.222C35.6979 154.185 35.6364 154.131 35.5912 154.063C35.5461 153.997 35.5187 153.919 35.512 153.839C35.5061 153.77 35.3672 152.115 35.3236 151.309L35.088 147.033C35.0503 146.351 35.0079 145.579 35.2835 144.846C35.6239 143.944 36.3718 143.311 36.9736 142.799C40.8071 139.548 44.729 136.339 48.6332 133.262C50.9521 131.432 53.4018 129.774 55.7702 128.17C57.4626 127.025 59.2127 125.841 60.9016 124.603C61.7472 123.984 62.8331 123.147 63.9814 122.261C65.5984 121.014 67.2708 119.725 68.4909 118.873C69.9973 117.823 70.4931 117.929 71.6166 118.536C71.8899 118.682 72.1996 118.849 72.6048 119.027C75.3136 120.218 77.8834 121.543 80.3672 122.824C82.0939 123.713 83.8782 124.635 85.7142 125.513C90.2014 127.661 94.6721 129.988 99.0014 132.428C99.555 132.741 100.111 133.057 100.65 133.373C100.797 133.456 100.942 133.538 101.086 133.617C101.771 133.997 102.418 134.356 102.996 134.981C104.202 136.28 104.615 137.016 104.161 139.529C103.933 140.796 103.711 142.174 103.496 143.506C103.109 145.906 102.709 148.386 102.26 150.283C102.245 150.346 102.218 150.404 102.18 150.455C102.142 150.507 102.094 150.55 102.039 150.583C101.803 150.721 96.1501 153.996 93.1269 155.084C84.1596 158.328 74.6989 159.992 65.165 160ZM36.4283 153.496C37.0819 153.82 38.9015 154.714 39.5469 154.925C57.0952 160.67 75.5114 160.417 92.8066 154.192C95.46 153.237 100.397 150.433 101.389 149.863C101.812 148.025 102.194 145.651 102.566 143.352C102.781 142.016 103.005 140.637 103.234 139.358C103.629 137.168 103.346 136.746 102.305 135.62C101.834 135.105 101.273 134.794 100.63 134.44L100.182 134.188C99.6421 133.878 99.0886 133.563 98.5327 133.251C94.221 130.821 89.7704 128.504 85.302 126.366C83.453 125.48 81.6617 124.556 79.9291 123.664C77.4559 122.388 74.9013 121.067 72.2196 119.887C71.7804 119.694 71.4388 119.511 71.1597 119.363C70.2882 118.891 70.1763 118.836 69.0174 119.644C67.8149 120.482 66.1531 121.768 64.542 123.004C63.389 123.894 62.3043 124.734 61.4434 125.365C59.7404 126.613 57.9832 127.802 56.2837 128.951C53.9283 130.546 51.4939 132.194 49.202 134.002C45.3155 137.07 41.3983 140.275 37.5731 143.518C36.9135 144.077 36.3953 144.554 36.1598 145.177C35.9537 145.724 35.989 146.358 36.0231 146.98L36.2587 151.256C36.3011 151.86 36.3882 152.985 36.4295 153.496H36.4283Z" fill="#181E32"/>
<path d="M96.0161 142.56C95.9112 142.561 95.8086 142.527 95.7261 142.463C95.6424 142.401 95.5823 142.311 95.5552 142.209C95.5281 142.108 95.5352 142 95.5764 141.904C95.6165 141.807 95.6884 141.727 95.7803 141.676C96.8706 141.063 100.196 139.099 101.139 138.135C101.227 138.048 101.345 138 101.469 138C101.591 138.001 101.709 138.05 101.798 138.136C101.885 138.222 101.935 138.339 101.939 138.463C101.941 138.585 101.895 138.705 101.812 138.796C100.596 140.035 96.2848 142.471 96.2412 142.496C96.1728 142.535 96.095 142.558 96.0161 142.56Z" fill="white"/>
<path d="M57.1247 84.88C43.0572 84.8776 28.9988 84.1523 15.0051 82.7076C14.8803 82.6946 14.7656 82.632 14.6863 82.5351C14.6071 82.4371 14.5698 82.3118 14.5825 82.1866C14.5953 82.0614 14.6573 81.9456 14.7546 81.8665C14.8519 81.7873 14.9767 81.7495 15.1016 81.7625C29.7352 83.2722 44.4388 83.994 59.1493 83.9255C59.2741 83.9255 59.394 83.9751 59.4822 84.0637C59.5705 84.1523 59.6201 84.2728 59.6201 84.398C59.6201 84.5233 59.5705 84.6426 59.4822 84.7323C59.394 84.8209 59.2741 84.8706 59.1493 84.8706C58.4783 84.8777 57.8004 84.88 57.1247 84.88Z" fill="#181E32"/>
<path d="M67.1457 82.16C67.0282 82.16 66.9146 82.1187 66.8267 82.0407C66.7387 81.9639 66.6826 81.8576 66.669 81.7418C66.2376 78.0271 66.0207 74.2914 66.0195 70.5526C66.0195 70.4272 66.0698 70.307 66.1592 70.2184C66.2486 70.1298 66.3698 70.08 66.4962 70.08C66.6226 70.08 66.744 70.1298 66.8333 70.2184C66.9227 70.307 66.9729 70.4272 66.9729 70.5526C66.974 74.255 67.1888 77.9545 67.6164 81.6331C67.6236 81.6946 67.6184 81.7572 67.6012 81.8162C67.5839 81.8765 67.555 81.932 67.5161 81.9804C67.4771 82.0289 67.4288 82.0702 67.3741 82.0998C67.3193 82.1305 67.2591 82.1494 67.1969 82.1565C67.18 82.1588 67.1628 82.16 67.1457 82.16Z" fill="#1B5EC9"/>
<path d="M30.4255 113.84C30.3687 113.84 30.3125 113.83 30.2595 113.81C23.5184 111.277 18.0384 107.182 15.5986 102.855C15.5685 102.801 15.5493 102.742 15.5422 102.681C15.535 102.62 15.5401 102.559 15.5571 102.499C15.574 102.44 15.6025 102.385 15.6409 102.337C15.6794 102.289 15.7271 102.248 15.7811 102.219C15.8353 102.189 15.8949 102.17 15.9564 102.163C16.0179 102.156 16.0802 102.161 16.1398 102.177C16.1994 102.195 16.2551 102.223 16.3037 102.261C16.3522 102.298 16.3927 102.346 16.4229 102.4C18.7578 106.54 24.0565 110.48 30.5951 112.937C30.6981 112.976 30.7842 113.049 30.8383 113.144C30.8925 113.239 30.9112 113.35 30.8913 113.457C30.8714 113.565 30.8142 113.662 30.7295 113.732C30.6449 113.802 30.5381 113.84 30.4279 113.84H30.4255Z" fill="#181E32"/>
<path d="M45.0494 108.8C44.9434 108.799 44.8406 108.764 44.7577 108.698C44.6748 108.632 44.6165 108.539 44.5924 108.437C44.5683 108.333 44.5798 108.225 44.6249 108.129C44.67 108.034 44.7462 107.956 44.841 107.909C46.7913 106.945 50.6118 104.244 54.3157 101.634C56.1742 100.322 58.0962 98.9661 59.7651 97.8413C59.8687 97.7708 59.9958 97.745 60.1184 97.7685C60.2411 97.7932 60.3493 97.8637 60.4193 97.9671C60.4892 98.0705 60.5153 98.1975 60.4915 98.3197C60.4678 98.4419 60.3963 98.5501 60.2927 98.6206C58.6321 99.7395 56.7148 101.089 54.8598 102.402C51.1312 105.033 47.2753 107.755 45.2579 108.748C45.1934 108.781 45.122 108.799 45.0494 108.8Z" fill="#181E32"/>
<path d="M33.8684 136.08C33.742 136.08 33.6208 136.031 33.5314 135.941C33.4421 135.853 33.3918 135.734 33.3918 135.609C33.3918 135.048 33.3406 133.899 33.2619 132.158C33.1118 128.82 32.8593 123.234 32.6603 114.963C32.6573 114.838 32.7046 114.717 32.7919 114.626C32.8792 114.535 32.9991 114.484 33.1255 114.48C33.2519 114.478 33.3743 114.524 33.4658 114.611C33.5573 114.697 33.6104 114.816 33.6134 114.941C33.8124 123.201 34.0637 128.78 34.2091 132.115C34.2877 133.868 34.3402 135.027 34.3402 135.608C34.3405 135.731 34.2911 135.852 34.2027 135.94C34.1144 136.028 33.9942 136.079 33.8684 136.08Z" fill="#181E32"/>
<path d="M91.2287 1.49263C96.465 0.866459 102.543 2.41484 105.007 7.06588C106.01 8.95965 106.389 11.2952 108.054 12.6544C109.777 14.0583 112.344 13.8891 114.392 13.0221C116.44 12.1551 118.183 10.7066 120.134 9.63869C125.705 6.58421 132.989 7.08585 138.19 10.6784C138.314 10.7643 138.408 10.8868 138.459 11.0286C138.508 11.1704 138.513 11.3245 138.471 11.469C138.429 11.6135 138.342 11.7413 138.224 11.8343C138.105 11.9272 137.96 11.9807 137.81 11.9871C133.309 12.1914 128.959 13.6672 125.267 16.2422C120.412 19.6492 117.018 24.7537 112.472 28.5577C107.926 32.3617 101.133 34.7301 96.1114 31.571C94.2835 30.4209 92.9164 28.6693 91.1757 27.3911C86.8751 24.2367 80.3424 24.6421 76.4319 28.2463C76.4084 28.268 76.379 28.2824 76.3476 28.2878C76.316 28.2933 76.2834 28.2897 76.254 28.2774C76.2244 28.2649 76.1991 28.2443 76.1809 28.218C76.1628 28.1917 76.1525 28.1608 76.1514 28.1289L76.0619 12.0764C76.0533 10.7011 76.0454 9.32501 76.0383 7.94815C76.0383 7.12579 75.8674 6.08139 76.5569 5.46815C77.1756 4.91717 78.2658 4.82083 79.0318 4.61642C80.2646 4.28747 81.4845 3.91741 82.7043 3.54853C85.4974 2.6968 88.3165 1.84154 91.2287 1.49263Z" fill="#FF6800"/>
<path d="M144.008 19.1201C143.924 19.1199 143.842 19.0971 143.769 19.0539C143.698 19.0106 143.638 18.9486 143.597 18.8741C143.557 18.7998 143.537 18.7158 143.539 18.6311C143.543 18.5462 143.567 18.4637 143.613 18.3923C144.584 16.8538 145.685 15.1106 145.979 13.2231C146.231 11.6042 145.758 9.45866 144.123 8.5711C144.069 8.54152 144.021 8.50152 143.981 8.45324C143.943 8.40507 143.913 8.34957 143.896 8.28992C143.878 8.23028 143.872 8.1678 143.879 8.10578C143.885 8.04389 143.903 7.9839 143.932 7.9291C143.962 7.87431 144.001 7.82591 144.049 7.78662C144.098 7.74721 144.153 7.71786 144.211 7.69999C144.27 7.68212 144.332 7.67621 144.394 7.68248C144.455 7.68887 144.515 7.70721 144.569 7.7368C146.605 8.84329 147.208 11.4326 146.906 13.3698C146.581 15.4527 145.424 17.2846 144.404 18.9011C144.361 18.9681 144.303 19.0234 144.234 19.0616C144.164 19.0999 144.087 19.1199 144.008 19.1201Z" fill="#181E32"/>
<path d="M145.853 22.48C145.756 22.4806 145.663 22.4516 145.584 22.3968C145.504 22.3421 145.444 22.2642 145.41 22.1736C145.376 22.0831 145.37 21.984 145.392 21.8899C145.416 21.7958 145.466 21.711 145.538 21.6468C146.464 20.7993 147.206 19.7673 147.719 18.616C148.231 17.4646 148.503 16.2186 148.516 14.9562C148.516 14.83 148.566 14.7088 148.654 14.6195C148.743 14.5303 148.863 14.48 148.988 14.48C149.113 14.48 149.233 14.5303 149.321 14.6195C149.409 14.7088 149.459 14.83 149.459 14.9562C149.445 16.3529 149.146 17.7316 148.579 19.0057C148.012 20.2799 147.191 21.4219 146.167 22.3598C146.08 22.4377 145.968 22.4805 145.853 22.48Z" fill="#181E32"/>
<path d="M64.1447 142.4C63.9052 142.387 63.6754 142.299 63.4867 142.149C62.7002 141.595 61.718 140.904 61.3442 139.891C61.24 139.599 61.2009 139.288 61.2301 138.978C61.2593 138.669 61.3559 138.371 61.5128 138.105C61.772 137.654 62.1959 137.326 62.692 137.193C62.7618 137.132 62.8474 137.094 62.9384 137.082C64.7426 136.842 66.6811 137.662 67.5478 139.034C67.6056 139.126 67.6301 139.236 67.6175 139.345C67.6047 139.455 67.5557 139.557 67.4782 139.633C66.6174 140.473 65.7095 141.313 64.7956 142.112C64.6506 142.252 64.4683 142.348 64.2709 142.386C64.2294 142.394 64.1872 142.399 64.1447 142.4ZM63.2816 138.01C63.2201 138.053 63.1494 138.081 63.0752 138.092C62.9207 138.111 62.7728 138.167 62.6429 138.255C62.513 138.342 62.4047 138.459 62.3265 138.597C62.2412 138.738 62.1881 138.899 62.1709 139.065C62.1538 139.231 62.1732 139.398 62.2274 139.557C62.4986 140.288 63.3453 140.885 64.0244 141.365C64.059 141.389 64.0948 141.411 64.1317 141.433L64.1801 141.391C64.9784 140.696 65.7649 139.975 66.5207 139.245C65.805 138.42 64.5091 137.921 63.2816 138.01Z" fill="white"/>
<path d="M68.8994 144.08C68.0909 144.08 67.5832 143.714 67.2039 143.44C67.0874 143.345 66.9596 143.265 66.8234 143.202C66.7535 143.179 66.69 143.139 66.638 143.086C66.586 143.033 66.5469 142.97 66.5238 142.9C66.5007 142.83 66.4943 142.755 66.505 142.683C66.5159 142.609 66.5434 142.54 66.5856 142.479C67.1855 141.625 67.919 140.874 68.7579 140.254C68.8364 140.196 68.9309 140.163 69.0286 140.16C69.1263 140.158 69.2222 140.185 69.3037 140.24C69.8102 140.575 70.4404 140.993 70.7804 141.667C71.1561 142.41 71.0182 143.491 70.2228 143.915C69.9603 144.032 69.6725 144.081 69.3857 144.06C69.3001 144.06 69.2193 144.06 69.1479 144.06C69.0766 144.06 68.9779 144.08 68.8994 144.08ZM67.6771 142.609L67.7616 142.668C68.1183 142.929 68.4607 143.176 69.0611 143.121C69.1691 143.111 69.2774 143.106 69.3857 143.108C69.5194 143.121 69.6542 143.106 69.7817 143.064C70.0706 142.911 70.1015 142.413 69.9362 142.087C69.7579 141.73 69.4155 141.458 69.0647 141.215C68.5513 141.625 68.0858 142.093 67.6771 142.609Z" fill="white"/>
<path d="M65.0028 130.24C64.7629 130.227 64.5358 130.13 64.3636 129.967C63.6431 129.365 63.0365 128.646 62.5714 127.841C62.3647 127.481 62.1329 127 62.1879 126.474C62.2095 126.27 62.2777 126.074 62.3875 125.9C62.4973 125.725 62.646 125.577 62.8223 125.466C62.8549 125.412 62.8982 125.365 62.9497 125.328C63.0012 125.291 63.06 125.264 63.1222 125.25C64.0552 125.043 65.0281 125.084 65.9394 125.367C66.8507 125.652 67.667 126.168 68.3028 126.864C68.3782 126.948 68.4197 127.056 68.4197 127.169C68.4197 127.28 68.3782 127.388 68.3028 127.473C67.4817 128.391 66.5772 129.236 65.6002 129.997C65.4439 130.135 65.2456 130.22 65.0351 130.24H65.0028ZM63.3994 126.238C63.3002 126.238 63.1604 126.393 63.1437 126.564C63.1162 126.832 63.2632 127.129 63.4102 127.386C63.8201 128.095 64.3538 128.728 64.9873 129.259L65.0028 129.271C65.8209 128.633 66.5863 127.933 67.292 127.179C66.8243 126.76 66.2687 126.443 65.6637 126.253C65.0585 126.062 64.4182 126.002 63.7865 126.075C63.7391 126.129 63.6796 126.172 63.6124 126.199C63.5453 126.228 63.4725 126.241 63.3994 126.238Z" fill="white"/>
<path d="M69.6197 132C68.8782 132 67.9718 131.596 67.087 131.166L66.9282 131.088C66.8649 131.057 66.8092 131.014 66.7652 130.96C66.7211 130.906 66.6898 130.842 66.6733 130.775C66.657 130.707 66.6558 130.637 66.6701 130.569C66.6844 130.501 66.7138 130.437 66.7562 130.382C67.2763 129.703 67.8648 129.079 68.5128 128.518C68.5986 128.442 68.7087 128.401 68.8231 128.4C68.9375 128.399 69.0486 128.438 69.1361 128.511C69.7665 129.033 70.2981 129.661 70.7064 130.367C70.8557 130.588 70.9219 130.855 70.8939 131.12C70.8626 131.275 70.7948 131.422 70.6959 131.547C70.597 131.673 70.4697 131.774 70.3243 131.842C70.1067 131.951 69.8643 132.005 69.6197 132ZM67.8775 130.5C68.514 130.796 69.4991 131.206 69.8621 131.013C69.8904 130.999 69.9166 130.981 69.9398 130.96C69.9212 130.915 69.8993 130.871 69.8741 130.83C69.5905 130.341 69.2378 129.894 68.8268 129.502C68.4907 129.815 68.1736 130.149 67.8775 130.5Z" fill="white"/>
<path d="M34.7662 105.68C34.7111 105.68 34.6565 105.671 34.6049 105.652C34.5051 105.687 34.3962 105.688 34.2953 105.655C34.1944 105.624 34.1074 105.56 34.0479 105.474L33.9056 105.27C33.4084 104.559 32.9781 103.945 32.8526 102.953C32.8035 102.562 32.7713 101.983 33.0605 101.487C33.1733 101.295 33.3246 101.127 33.5054 100.994C33.6862 100.862 33.8927 100.766 34.1124 100.713C34.7925 100.537 35.6663 100.685 36.3835 101.101C37.1719 101.558 37.8368 102.194 38.3223 102.955C38.3904 103.06 38.5948 103.382 38.449 103.738C38.3602 103.929 38.2031 104.084 38.0067 104.171C37.4031 104.49 36.931 104.703 36.4767 104.91C36.0225 105.117 35.5767 105.318 34.9981 105.624C34.9268 105.66 34.8472 105.68 34.7662 105.68ZM34.7136 101.576C34.5928 101.573 34.4723 101.587 34.3551 101.617C34.2579 101.636 34.1662 101.677 34.0858 101.735C34.0052 101.791 33.9378 101.864 33.8877 101.948C33.7395 102.204 33.7682 102.579 33.798 102.839C33.8937 103.599 34.2068 104.05 34.679 104.725C35.2157 104.447 35.6472 104.252 36.0655 104.061C36.5078 103.862 36.925 103.672 37.4653 103.391C37.064 102.783 36.5238 102.273 35.8874 101.905C35.5316 101.698 35.1273 101.585 34.7136 101.576Z" fill="white"/>
<path d="M38.2699 108.799C37.9752 108.799 37.6846 108.726 37.422 108.586C36.8637 108.282 36.4887 107.745 36.1888 107.321C36.1507 107.266 36.1238 107.205 36.1101 107.14C36.0964 107.074 36.0962 107.007 36.1092 106.942C36.1218 106.876 36.1471 106.814 36.1839 106.759C36.2206 106.705 36.2679 106.658 36.3226 106.624C36.6941 106.392 37.0148 106.204 37.3182 106.023C37.6216 105.843 37.9331 105.663 38.2953 105.429C38.39 105.369 38.5018 105.348 38.6106 105.367C38.7194 105.387 38.8179 105.446 38.8883 105.535C39.75 106.617 39.9323 107.59 39.4016 108.277C39.2633 108.448 39.0894 108.583 38.8934 108.674C38.6973 108.764 38.4841 108.806 38.2699 108.799ZM37.2409 107.175C37.4061 107.401 37.6127 107.591 37.8488 107.734C38.1153 107.88 38.5133 107.889 38.6818 107.672C38.9125 107.367 38.6529 106.837 38.413 106.469C38.1822 106.608 37.9792 106.733 37.775 106.854C37.6043 106.957 37.4278 107.062 37.2409 107.175Z" fill="white"/>
<path d="M42.5941 78.24H42.5659C42.3169 78.2161 42.083 78.1092 41.9012 77.9366C41.4315 77.5552 41.0275 77.2648 40.593 76.9566C40.1585 76.6484 39.724 76.3402 39.2331 75.9376C39.1513 75.8704 39.0944 75.7774 39.0716 75.6737C39.0488 75.5701 39.0615 75.4617 39.1074 75.3661C39.5032 74.5396 41.0709 73.2149 42.499 72.7496C42.8971 72.6198 43.3938 72.4568 43.9223 72.4828C44.5729 72.5147 45.1342 72.8488 45.3856 73.3554C45.7155 74.0201 45.4501 74.738 45.2223 75.2197C44.7613 76.195 44.1372 77.0835 43.3774 77.8469C43.2553 77.9602 42.9828 78.24 42.5941 78.24ZM40.1538 75.4689C40.4885 75.7286 40.8032 75.9518 41.132 76.1856C41.5595 76.489 42.001 76.8019 42.4919 77.2045C42.5131 77.2223 42.5589 77.26 42.5941 77.2836C42.6358 77.2519 42.675 77.2172 42.7115 77.1797C43.3956 76.4937 43.9576 75.6951 44.3733 74.8183C44.5976 74.346 44.6539 74.0036 44.5435 73.7816C44.4331 73.5596 44.1278 73.4439 43.8753 73.4274C43.523 73.4109 43.1308 73.5372 42.7867 73.6494C41.7509 73.9788 40.64 74.8584 40.1538 75.463V75.4689Z" fill="white"/>
<path d="M38.5561 80.16C38.1795 80.1623 37.81 80.0575 37.4919 79.8592C37.323 79.7557 37.1778 79.6186 37.0658 79.4565C36.9538 79.2945 36.8775 79.1111 36.8416 78.9184C36.7388 78.3269 36.9599 77.4734 38.5821 76.7608C38.643 76.7339 38.7088 76.72 38.7754 76.72C38.8421 76.72 38.9079 76.7339 38.9687 76.7608C39.593 77.0368 39.9406 77.3698 40.3095 77.7226C40.4632 77.8693 40.6229 78.0218 40.8132 78.1813C40.8628 78.2227 40.9032 78.2737 40.9318 78.3311C40.9604 78.3885 40.9767 78.4511 40.9798 78.5151C40.9828 78.579 40.9724 78.6428 40.9492 78.7025C40.926 78.7624 40.8907 78.8168 40.8452 78.8625C40.3793 79.3283 39.7999 79.9105 39.003 80.1064C38.8569 80.1414 38.7067 80.16 38.5561 80.16ZM38.7748 77.6993C38.3433 77.9112 37.6989 78.3083 37.7769 78.7577C37.792 78.8239 37.8208 78.8863 37.8614 78.9409C37.9022 78.9956 37.9539 79.0415 38.0134 79.0756C38.1261 79.1449 38.2516 79.1915 38.3827 79.2126C38.5139 79.2338 38.6479 79.2292 38.7772 79.199C39.152 79.107 39.4771 78.8683 39.8236 78.5481L39.6533 78.3874C39.3976 78.1156 39.1014 77.8835 38.7748 77.6993Z" fill="white"/>
<path d="M58.2514 50C58.182 50 58.1136 49.9847 58.0508 49.955C57.9882 49.9254 57.9328 49.8823 57.8888 49.8288C57.5073 49.3666 57.1846 48.9478 56.8771 48.5442C56.5696 48.1407 56.2563 47.7348 55.8866 47.2855C55.8469 47.2373 55.8171 47.1818 55.7992 47.1221C55.7812 47.0623 55.7753 46.9997 55.7819 46.9376C55.7884 46.8755 55.8073 46.8154 55.8373 46.7607C55.8675 46.706 55.9081 46.6579 55.957 46.6192C56.7173 46.0313 57.6151 45.6472 58.5654 45.5035C59.5158 45.3598 60.4871 45.4612 61.3873 45.7981C61.6531 45.8809 61.8833 46.0506 62.041 46.2802C62.2909 46.6861 62.1994 47.2081 61.7886 47.7114C60.8955 48.8082 59.5963 49.4194 58.4509 49.9578C58.3884 49.9863 58.3202 50.0007 58.2514 50ZM56.9287 47.0814C57.1776 47.3923 57.3982 47.6867 57.6223 47.973C57.8571 48.2862 58.1082 48.6076 58.3828 48.949C59.3499 48.4879 60.378 47.9495 61.061 47.1154C61.21 46.9324 61.2464 46.7975 61.2394 46.7635C61.1811 46.7232 61.117 46.692 61.0493 46.6708C60.3768 46.4198 59.6556 46.3262 58.9412 46.3974C58.227 46.4686 57.5384 46.7026 56.9287 47.0814Z" fill="white"/>
<path d="M53.8098 51.92C53.168 51.92 52.5825 51.6184 52.2939 51.1093C51.949 50.5013 52.0722 49.6513 52.5931 49.0409C53.0049 48.5581 53.5681 48.2815 54.1078 48.0407C54.1921 48.0029 54.2853 47.9911 54.3762 48.0067C54.4668 48.0224 54.5511 48.0649 54.6182 48.1289C55.1908 48.6749 55.4782 49.246 55.7833 49.8492C55.8642 50.0113 55.9487 50.1782 56.0426 50.3523C56.0963 50.4526 56.1127 50.569 56.089 50.6806C56.0653 50.7921 56.0032 50.8914 55.9135 50.9603C55.4548 51.318 54.9338 51.7149 54.2803 51.8664C54.1259 51.9016 53.9681 51.9196 53.8098 51.92ZM54.1911 49.0493C53.8566 49.1913 53.5541 49.401 53.3018 49.6656C53.0859 49.9195 52.9439 50.3451 53.107 50.6325C53.2701 50.9198 53.7324 51.0151 54.0714 50.9353C54.4191 50.8364 54.7441 50.6687 55.0277 50.4417C55.0007 50.3893 54.9737 50.3368 54.9479 50.2843C54.7085 49.8087 54.5103 49.4165 54.1911 49.0493Z" fill="white"/>
<path d="M70.1999 54.96C69.6139 54.96 69.0292 54.9368 68.4454 54.8903C68.3791 54.8849 68.3146 54.8651 68.2565 54.8325C68.1984 54.7998 68.148 54.7551 68.1087 54.7012C68.0695 54.6473 68.0422 54.5856 68.0289 54.5202C68.0156 54.4549 68.0165 54.3874 68.0315 54.3224L68.7272 51.3223C68.7492 51.2279 68.8003 51.1428 68.8731 51.0788C68.9458 51.0149 69.0368 50.9753 69.1331 50.9658C71.0127 50.7753 72.4425 50.8438 73.7563 51.7788C74.1517 52.0587 74.6422 52.6104 74.7257 53.2387C74.7515 53.4081 74.7411 53.5809 74.6956 53.7461C74.65 53.9112 74.5702 54.0648 74.4613 54.1969C74.1019 54.6336 73.5232 54.7126 73.2125 54.7556C72.2141 54.8923 71.2075 54.9606 70.1999 54.96ZM69.06 54.0006C70.4051 54.0728 71.7539 54.0168 73.0884 53.8334C73.3632 53.7962 73.6334 53.7416 73.747 53.6011C73.7747 53.5677 73.7946 53.5283 73.805 53.486C73.8154 53.4438 73.8163 53.3998 73.8073 53.3572C73.7725 53.0959 73.5255 52.7486 73.2275 52.5326C72.2152 51.8136 71.0997 51.7195 69.5621 51.8554L69.06 54.0006Z" fill="white"/>
<path d="M65.5066 54.64C65.4047 54.638 65.3033 54.624 65.2045 54.5984C64.7708 54.4986 64.2309 54.3737 63.7924 54.0302C63.2303 53.5903 62.9983 52.8747 63.2292 52.2875C63.3528 51.9713 63.5988 51.7062 63.9813 51.4791C64.9002 50.9311 65.9264 50.8954 66.9479 51.3757C67.0595 51.4275 67.1465 51.5222 67.1901 51.6389C67.2337 51.7557 67.2305 51.8853 67.1811 51.9998L66.303 54.0207C66.2217 54.2572 66.0549 54.4532 65.8366 54.5687C65.7329 54.6165 65.6204 54.6407 65.5066 54.64ZM65.5264 51.9879C65.1471 51.9908 64.7754 52.0983 64.4512 52.2994C64.3003 52.3729 64.1757 52.4925 64.0944 52.6417C64.0245 52.8212 64.1434 53.1065 64.3603 53.2765C64.6367 53.4929 65.0296 53.5832 65.4098 53.6712H65.4319L65.4483 53.6343L66.1269 52.0711C65.9316 52.0149 65.7294 51.9868 65.5264 51.9879Z" fill="white"/>
<path d="M44.7113 148.553C44.6863 148.554 44.6612 148.554 44.6362 148.553C41.7726 148.102 39.0003 147.207 36.4226 145.904C36.3156 145.846 36.2357 145.75 36.2001 145.635C36.1644 145.52 36.1758 145.397 36.2318 145.289C36.2878 145.183 36.384 145.102 36.4998 145.064C36.6157 145.026 36.7424 145.034 36.8526 145.086C39.3426 146.342 42.0201 147.203 44.7853 147.637C44.91 147.647 45.0256 147.704 45.1069 147.798C45.188 147.891 45.2281 148.012 45.2182 148.134C45.2085 148.256 45.1495 148.37 45.0545 148.449C44.9594 148.529 44.836 148.568 44.7113 148.559V148.553Z" fill="white"/>
<path d="M48.1767 149.52C48.0969 149.52 48.0182 149.501 47.9477 149.465C47.7569 149.369 47.5429 149.323 47.3273 149.331C47.1987 149.335 47.0732 149.292 46.9782 149.209C46.8832 149.126 46.8266 149.01 46.8208 148.887C46.8151 148.764 46.8605 148.643 46.9474 148.553C47.0342 148.461 47.1551 148.407 47.2837 148.402C47.6739 148.386 48.0614 148.47 48.4058 148.647C48.5006 148.696 48.5758 148.774 48.6191 148.868C48.6626 148.963 48.672 149.068 48.6457 149.168C48.6194 149.268 48.559 149.357 48.4741 149.421C48.3892 149.485 48.2846 149.519 48.1767 149.52Z" fill="white"/>
<path d="M74.4054 150.4C74.2889 150.399 74.1768 150.354 74.091 150.274C74.0053 150.195 73.9519 150.086 73.9413 149.968C73.9309 149.851 73.9639 149.733 74.0341 149.639C74.1043 149.545 74.2066 149.48 74.321 149.459C77.1946 148.926 80.0137 148.128 82.7423 147.072C82.8584 147.027 82.9873 147.029 83.101 147.081C83.2147 147.132 83.3038 147.227 83.3484 147.345C83.3929 147.462 83.3894 147.593 83.339 147.708C83.2886 147.823 83.1948 147.913 83.0788 147.958C80.2938 149.036 77.4168 149.851 74.484 150.394C74.4581 150.398 74.4318 150.4 74.4054 150.4Z" fill="white"/>
<path d="M80.4163 60.8001C80.3059 60.7997 80.199 60.7619 80.1136 60.693C80.0283 60.6241 79.9697 60.5284 79.9479 60.422C75.8941 40.6921 74.6271 20.5068 76.1829 0.436622C76.1926 0.31166 76.2524 0.19553 76.3492 0.114027C76.4459 0.0324074 76.5715 -0.00810744 76.6986 0.00143256C76.8257 0.0109726 76.9438 0.0697429 77.0267 0.164789C77.1097 0.259836 77.151 0.383503 77.1413 0.508465C75.5919 20.4923 76.8532 40.5908 80.8896 60.2359C80.9147 60.3583 80.8896 60.4855 80.8189 60.5896C80.7482 60.6936 80.6392 60.7659 80.5145 60.7906C80.4822 60.7968 80.4493 60.7999 80.4163 60.8001Z" fill="#181E32"/>
<path d="M80.7251 62.96C80.2677 62.9601 79.812 62.9062 79.3674 62.7995C78.9251 62.7102 78.5115 62.5143 78.1628 62.2288C77.956 62.0552 77.7991 61.8299 77.7081 61.576C77.6172 61.3222 77.5954 61.049 77.6452 60.784C77.6567 60.7219 77.6806 60.6629 77.7156 60.6103C77.7505 60.5577 77.7957 60.5126 77.8485 60.4777C77.9013 60.4429 77.9607 60.4192 78.0229 60.4078C78.0853 60.3963 78.1493 60.3976 78.2111 60.4114C78.2728 60.4252 78.3313 60.4513 78.3827 60.4882C78.4341 60.525 78.4775 60.5717 78.5104 60.6256C78.5433 60.6796 78.5648 60.7396 78.5738 60.8021C78.5828 60.8646 78.5791 60.9282 78.5628 60.9891C78.553 61.091 78.5687 61.1939 78.6085 61.2884C78.6483 61.3829 78.711 61.466 78.791 61.5305C79.0235 61.7133 79.2973 61.8364 79.5886 61.889C80.5769 62.124 81.6133 62.0478 82.5556 61.6711C82.6132 61.6452 82.6756 61.6312 82.7391 61.63C82.8026 61.6287 82.865 61.6401 82.9238 61.6636C82.9826 61.6871 83.0356 61.7222 83.0803 61.7667C83.1261 61.8112 83.1614 61.8642 83.185 61.9227C83.2085 61.9811 83.2202 62.0437 83.2191 62.1067C83.2179 62.1698 83.2038 62.232 83.1779 62.2895C83.152 62.3471 83.1155 62.3989 83.0685 62.4419C83.0226 62.4848 82.9685 62.5179 82.9085 62.5394C82.2144 62.8178 81.4733 62.9605 80.7251 62.96Z" fill="#1B5EC9"/>
<path d="M111.046 14.4001C109.751 14.4001 108.549 13.9862 107.72 12.9629C106.832 11.8684 105.881 10.117 105.043 8.57543C104.593 7.74537 104.168 6.9663 103.79 6.35324C102.663 4.48407 100.862 3.12491 98.7651 2.5587C92.1422 0.9389 83.5269 3.55121 75.2023 6.61531C75.0858 6.65503 74.9587 6.64732 74.8477 6.59384C74.7368 6.54048 74.6511 6.44538 74.6088 6.32917C74.5665 6.21284 74.5711 6.08454 74.6214 5.97166C74.6718 5.85877 74.7641 5.77007 74.8785 5.72477C83.342 2.61087 92.1211 -0.0358239 98.9877 1.63971C99.8202 1.84248 102.683 2.74843 104.592 5.85877C104.982 6.49436 105.416 7.28172 105.868 8.12482C106.693 9.6296 107.616 11.336 108.449 12.3629C109.802 14.0313 112.73 13.583 114.925 12.2775C115.318 12.0403 115.734 11.783 116.176 11.5079C118.247 10.2166 120.824 8.60981 123.986 7.76316C128.558 6.53704 132.7 6.94377 135.655 8.90508C135.757 8.97516 135.828 9.08295 135.851 9.20508C135.875 9.3271 135.85 9.45375 135.782 9.55774C135.715 9.66162 135.609 9.73442 135.488 9.76051C135.367 9.7866 135.241 9.76383 135.137 9.69719C131.459 7.25445 126.724 8.01099 124.227 8.67977C121.201 9.48967 118.693 11.0514 116.673 12.3142C116.227 12.5929 115.805 12.855 115.405 13.0933C114.096 13.8712 112.514 14.4001 111.046 14.4001Z" fill="#181E32"/>
<path d="M75.0456 29.7598C74.9506 29.759 74.858 29.7291 74.7802 29.6742C74.7023 29.6194 74.6429 29.5421 74.6097 29.4525C74.5765 29.3629 74.5711 29.2654 74.5942 29.1725C74.6173 29.0798 74.6678 28.9963 74.7391 28.9331C78.7387 25.474 81.6886 25.1965 83.841 24.9946C84.1933 24.9603 84.5291 24.9296 84.8368 24.8859C84.8978 24.876 84.9612 24.8786 85.0223 24.8935C85.0822 24.9084 85.1397 24.9352 85.1891 24.9725C85.2395 25.0097 85.2818 25.0567 85.3135 25.1105C85.3464 25.1644 85.3664 25.2241 85.3758 25.2863C85.384 25.3484 85.3805 25.4116 85.3652 25.4723C85.3488 25.533 85.3217 25.5899 85.283 25.6396C85.2454 25.6895 85.1984 25.7311 85.1444 25.7623C85.0904 25.7935 85.0305 25.8136 84.9683 25.8213C84.6383 25.8685 84.2943 25.9004 83.9279 25.9394C81.9011 26.1307 79.125 26.3917 75.3556 29.6535C75.2683 29.7252 75.1583 29.7629 75.0456 29.7598Z" fill="#181E32"/>
<path d="M88.3458 26.56C88.2381 26.5599 88.1328 26.5234 88.0488 26.4564C87.6205 26.1192 87.0963 25.9218 86.5496 25.8919C86.4869 25.8887 86.4266 25.8736 86.3698 25.8473C86.3142 25.821 86.2633 25.7841 86.2219 25.7386C86.1805 25.6932 86.1485 25.6401 86.1272 25.5823C86.1059 25.5247 86.0976 25.4635 86.1 25.4024C86.1036 25.3413 86.1189 25.2813 86.1461 25.226C86.1722 25.1707 86.21 25.1212 86.2562 25.0802C86.3023 25.0391 86.3568 25.0074 86.4147 24.9869C86.4739 24.9665 86.5354 24.9575 86.5981 24.9606C87.3448 25.0003 88.0595 25.269 88.6428 25.7289C88.7197 25.7893 88.7753 25.8716 88.8013 25.9644C88.8286 26.0572 88.825 26.1559 88.7931 26.2469C88.7599 26.3379 88.6996 26.4167 88.6191 26.4724C88.5399 26.528 88.444 26.5578 88.3458 26.5577V26.56Z" fill="#181E32"/>
</g>
<defs>
<clipPath id="clip0_165_7423">
<rect width="160" height="160" fill="white" transform="translate(0.5)"/>
</clipPath>
</defs>
</svg>
