<svg width="161" height="160" viewBox="0 0 161 160" fill="none" xmlns="http://www.w3.org/2000/svg">
<g clip-path="url(#clip0_165_7468)">
<path d="M62.619 115.675C64.7535 124.733 67.4304 134.614 75.075 139.913C81.9393 144.668 91.0876 144.413 99.2713 142.751C111.739 140.218 123.446 134.918 135.03 129.66L156.014 120.134C158.16 119.16 160.667 117.617 160.491 115.265C160.37 113.626 158.949 112.435 157.732 111.334C151.691 105.841 148.488 97.965 145.616 90.3236C144.351 86.9643 142.688 83.177 139.255 82.1274C137.523 81.5976 135.658 81.901 133.876 82.2339C110.725 86.6042 88.892 96.4195 68.5798 108.355C66.4917 109.582 64.3787 110.863 62.8047 112.702C61.2307 114.541 60.2512 117.058 60.8265 119.409L62.619 115.675Z" fill="#1B5EC9"/>
<path d="M138.199 13.7647C138.598 17.0619 139.463 20.2851 140.772 23.3364C140.805 23.4142 140.822 23.4982 140.819 23.5827C140.818 23.6673 140.798 23.7506 140.763 23.8271C140.727 23.9036 140.675 23.9715 140.61 24.0263C140.546 24.0813 140.471 24.1218 140.39 24.1455C129.845 27.2744 119.794 31.885 110.537 37.84C110.623 37.7856 110.137 34.0175 110.123 33.5834C110.098 32.7901 110.023 31.9968 110.396 31.267C110.907 30.2765 111.972 29.5274 112.786 28.8055C113.807 27.8989 114.85 27.0187 115.916 26.165C120.212 22.715 124.83 19.691 129.708 17.1351C132.307 15.7728 134.976 14.5476 137.703 13.4644C137.755 13.4444 137.811 13.4365 137.867 13.4414C137.922 13.4464 137.976 13.4641 138.024 13.493C138.072 13.522 138.113 13.5615 138.143 13.6086C138.173 13.6557 138.192 13.7091 138.199 13.7647Z" fill="#F2DFE7"/>
<path d="M133.331 23.6C132.807 23.5939 132.301 23.4109 131.892 23.0802C131.631 22.8819 131.416 22.6294 131.259 22.3401C131.103 22.0506 131.01 21.7306 130.985 21.4016C130.926 20.3197 131.438 19.7448 132.078 19.3628C132.123 19.2822 132.191 19.2174 132.274 19.1769C132.567 19.0387 132.887 18.9649 133.21 18.9603C133.534 18.9556 133.854 19.0203 134.152 19.1499C134.449 19.2797 134.716 19.4715 134.936 19.7129C135.154 19.9542 135.321 20.2398 135.423 20.5508C135.525 20.8617 135.561 21.191 135.529 21.5171C135.498 21.8433 135.398 22.1589 135.237 22.4433C135.076 22.7278 134.857 22.9746 134.596 23.1676C134.334 23.3606 134.036 23.4954 133.718 23.5633C133.59 23.5881 133.461 23.6005 133.331 23.6ZM133.084 19.8848C132.121 20.299 131.851 20.634 131.891 21.3512C131.895 21.6091 131.968 21.861 132.102 22.0801C132.237 22.2991 132.428 22.4771 132.654 22.5949C132.881 22.7126 133.135 22.7659 133.39 22.7489C133.644 22.7319 133.888 22.6453 134.098 22.4983C134.308 22.3513 134.473 22.1496 134.579 21.9145C134.683 21.6794 134.724 21.4199 134.694 21.1637C134.665 20.9075 134.567 20.6641 134.411 20.4596C134.256 20.2553 134.048 20.0974 133.811 20.003C133.582 19.9031 133.332 19.8624 133.084 19.8848Z" fill="#1B5EC9"/>
<path d="M149.08 34.5384C147.216 36.5865 145.529 38.6358 144.07 41.1441C144.037 41.2007 144.021 41.2653 144.023 41.3307C144.027 41.396 144.047 41.4593 144.084 41.5131C144.121 41.5671 144.173 41.6095 144.232 41.6353C144.292 41.6613 144.358 41.6698 144.422 41.6598C148.15 41.0795 151.937 41.2404 155.725 41.2585C159.805 41.2789 156.949 42.6357 156.044 43.0086C145.363 47.4074 134.733 52.1679 125.786 59.44L122.423 55.184C121.47 53.9768 120.192 52.7425 119.599 51.2997C118.414 48.3856 122.347 46.7183 124.281 45.4625C129.809 41.8715 135.579 38.6713 141.551 35.8849C143.69 34.8864 145.805 33.8073 148.042 33.0513C151.829 31.7762 149.743 33.8062 149.08 34.5384Z" fill="#FF6800"/>
<path d="M37.4941 13.6308C40.9404 10.2503 44.9617 7.51473 49.3682 5.55317C49.5485 5.47336 49.7443 5.43487 49.9413 5.44055C50.1382 5.44634 50.3315 5.49595 50.5069 5.58609C50.6823 5.67612 50.8355 5.8043 50.9553 5.9612C51.075 6.11809 51.1584 6.29985 51.1992 6.4932L51.9919 10.2522C53.4787 17.2512 55.0051 24.3616 58.4192 30.6454C58.5189 30.8282 53.199 33.7107 52.7008 33.9616C52.0055 34.317 51.0022 35.1321 50.2424 34.653C49.4826 34.1739 48.8348 32.8366 48.3174 32.1179C45.6563 28.4683 43.1348 24.7218 40.7531 20.8785C39.5641 18.9576 38.4109 17.0146 37.2937 15.0499C37.1656 14.8244 37.1159 14.5629 37.1522 14.3059C37.1885 14.0491 37.3088 13.8116 37.4941 13.6308Z" fill="#181E32"/>
<path d="M50.7712 35.28C50.5021 35.282 50.238 35.2066 50.0108 35.0628C49.3876 34.6715 48.8757 33.8527 48.4217 33.1312C48.2548 32.8643 48.0971 32.6132 47.9552 32.421C45.2935 28.7918 42.734 25.0145 40.3504 21.1942C39.1586 19.2829 37.9884 17.3242 36.8726 15.3733C36.695 15.062 36.6259 14.7007 36.6761 14.3461C36.7265 13.9915 36.8934 13.6635 37.1507 13.4134C40.6389 10.0026 44.7143 7.24453 49.1822 5.27071C49.4249 5.16429 49.6882 5.11306 49.9532 5.12075C50.2181 5.12844 50.4782 5.19483 50.7142 5.31516C50.9501 5.43549 51.1562 5.60671 51.3175 5.81638C51.4787 6.02606 51.5911 6.26887 51.6464 6.52717L52.4466 10.2717C53.9108 17.1251 55.4249 24.2115 58.8437 30.4645C58.8735 30.5194 58.8919 30.5797 58.8979 30.6419C58.9041 30.704 58.8975 30.7667 58.8789 30.8263C58.8119 31.0412 58.7654 31.1713 55.9527 32.741C54.6088 33.4886 53.1855 34.2519 52.9187 34.3877C52.795 34.4499 52.6531 34.5324 52.5033 34.6206C52.0153 34.9158 51.3932 35.28 50.7712 35.28ZM49.9029 6.0307C49.782 6.03081 49.6625 6.05626 49.5522 6.10534C45.1817 8.03222 41.1951 10.7272 37.7829 14.0614C37.6696 14.1718 37.5961 14.3163 37.574 14.4726C37.5517 14.6289 37.5821 14.7882 37.6603 14.9255C38.7704 16.8661 39.9304 18.8147 41.12 20.717C43.4899 24.518 46.0336 28.2761 48.6828 31.8872C48.8428 32.1054 49.0096 32.3701 49.1856 32.6517C49.5681 33.259 50.0437 34.0156 50.4909 34.2972C50.87 34.5347 51.4943 34.1694 52.0448 33.8448C52.2071 33.7498 52.3592 33.6605 52.5079 33.5858C53.1253 33.2714 56.8664 31.2437 57.8732 30.5798C54.5135 24.293 53.0118 17.2654 51.559 10.4651L50.7588 6.72057C50.7172 6.52503 50.6095 6.34962 50.4538 6.22363C50.298 6.09765 50.1036 6.02877 49.9029 6.02843V6.0307Z" fill="#181E32"/>
<path d="M41.8296 16.16C41.7354 16.1601 41.6434 16.1308 41.5669 16.0761C41.4903 16.0216 41.4328 15.9444 41.4027 15.8555C41.3725 15.7667 41.371 15.6707 41.3985 15.5811C41.4261 15.4914 41.4811 15.4126 41.5561 15.3557L46.8845 11.3006C46.9312 11.2628 46.9851 11.2346 47.043 11.2178C47.1008 11.201 47.1615 11.1961 47.2212 11.2031C47.2811 11.2101 47.339 11.2289 47.3913 11.2586C47.4438 11.2883 47.4896 11.3281 47.5263 11.3758C47.5629 11.4234 47.5895 11.4778 47.6046 11.5359C47.6197 11.594 47.6228 11.6545 47.6141 11.7138C47.6052 11.7731 47.5845 11.83 47.5532 11.8813C47.5218 11.9325 47.4803 11.9769 47.4315 12.0119L42.1031 16.0682C42.0245 16.1277 41.9284 16.1601 41.8296 16.16Z" fill="white"/>
<path d="M43.6731 18.4C43.582 18.4012 43.4926 18.3738 43.4171 18.3212C43.3415 18.2686 43.2835 18.1936 43.2506 18.1061C43.2178 18.0185 43.2118 17.9227 43.2335 17.8316C43.2551 17.7404 43.3035 17.6583 43.3719 17.5963C44.6176 16.4248 46.0213 15.4446 47.5395 14.6861C47.6461 14.6329 47.7687 14.6254 47.8807 14.6654C47.9925 14.7053 48.0843 14.7894 48.136 14.899C48.1876 15.0087 48.1949 15.1348 48.156 15.25C48.1172 15.365 48.0355 15.4595 47.929 15.5126C46.488 16.2319 45.1559 17.1623 43.9744 18.2748C43.8928 18.3539 43.7853 18.3987 43.6731 18.4Z" fill="white"/>
<path d="M146.51 105.846C148.036 110.882 152.274 115.494 157.54 115.738C138.447 126.367 118.038 134.446 96.8363 139.764C90.858 141.262 83.6812 142.244 79.2766 137.944C75.0237 133.799 75.7272 126.419 79.2312 121.627C82.7352 116.835 88.2773 114.027 93.6393 111.469C106.191 105.482 118.926 99.9024 131.847 94.7305C135.564 93.2432 139.531 91.4665 143.531 90.9247C145.047 90.72 146.031 91.1961 145.91 92.8134C145.75 94.8899 145.532 96.946 145.558 99.0338C145.581 101.334 145.843 103.639 146.51 105.846Z" fill="white"/>
<path d="M76.4868 121.866C79.3388 117.717 85.7572 114.881 90.2996 112.702C107.492 104.429 127.5 102.51 145.231 95.4639C146.537 94.9457 147.905 94.3552 148.716 93.2103C150.317 90.9478 149.029 87.8571 147.719 85.4203L132.698 57.5038C127.629 48.0825 122.53 38.5887 119.355 28.3732C117.746 23.1986 116.638 17.8737 114.906 12.741C114.566 11.7296 114.113 10.6334 113.16 10.1594C112.084 9.62771 110.806 10.0847 109.693 10.5316C86.0142 20.0344 59.591 23.8107 38.779 38.5604C35.2217 41.082 31.7526 44.0596 30.0611 48.0768C27.1536 54.9856 30.2208 62.8559 33.6287 69.5328C39.9056 81.8284 61.7003 130.254 64.344 133.971C73.7729 147.218 89.1787 144.54 95.6084 143.345C101.442 143.436 71.3512 144.069 74.0967 131.424C74.5541 129.3 75.255 123.658 76.4868 121.866Z" fill="#1B5EC9"/>
<path d="M43.7551 55.12C43.6413 55.1206 43.5315 55.0788 43.4473 55.0027C43.3632 54.9267 43.3107 54.8221 43.3006 54.7097C43.2905 54.5971 43.3233 54.4849 43.3926 54.3954C43.4618 54.3057 43.5625 54.2451 43.6745 54.2256C45.9443 53.819 48.8418 51.0977 49.5239 48.7301C50.0573 46.8794 49.659 44.736 48.4843 43.1343C48.3473 42.9481 48.2511 42.7355 48.2018 42.5101C48.1527 42.2849 48.1515 42.0518 48.1985 41.826C48.2456 41.6001 48.3397 41.3867 48.475 41.1991C48.6102 41.0117 48.7835 40.8544 48.9837 40.7373C56.2116 36.5329 63.733 32.8466 71.4905 29.7068C71.6009 29.6672 71.7226 29.6716 71.8299 29.719C71.937 29.7666 72.0216 29.8534 72.0657 29.9614C72.1097 30.0695 72.1098 30.1902 72.0661 30.2984C72.0223 30.4066 71.9381 30.4936 71.831 30.5414C64.1138 33.665 56.6314 37.332 49.4411 41.5145C49.3505 41.5668 49.272 41.6375 49.2108 41.7219C49.1495 41.8064 49.1069 41.9027 49.0858 42.0045C49.0638 42.1081 49.064 42.2151 49.0865 42.3185C49.109 42.4221 49.1532 42.5196 49.2163 42.6049C50.551 44.4251 51.0027 46.8671 50.3944 48.9779C49.6204 51.6665 46.4312 54.648 43.8334 55.1132C43.8075 55.1176 43.7814 55.1199 43.7551 55.12Z" fill="white"/>
<path d="M76.4074 29.1199C76.2999 29.1201 76.1957 29.083 76.1122 29.0149C76.0288 28.9469 75.9712 28.852 75.9493 28.7462C75.9273 28.6404 75.9424 28.5304 75.9918 28.4343C76.0413 28.3385 76.122 28.2626 76.2206 28.2197L78.4929 27.2362C78.6062 27.1887 78.7335 27.188 78.8473 27.2341C78.9611 27.2802 79.0522 27.3696 79.101 27.4828C79.1498 27.596 79.1522 27.724 79.1079 27.8391C79.0635 27.9541 78.976 28.0469 78.8641 28.0976L76.5918 29.087C76.5332 29.1104 76.4704 29.1215 76.4074 29.1199Z" fill="white"/>
<path d="M108.334 26.08C105.477 26.08 103.562 25.2328 102.339 24.3428C100.779 23.2108 99.9288 21.6784 99.7025 20.4733C95.0244 21.8721 90.4775 23.6751 86.115 25.8617C86.0075 25.9154 85.8831 25.9245 85.77 25.887C85.6558 25.8497 85.5608 25.7687 85.5076 25.662C85.4533 25.5553 85.4443 25.4317 85.4816 25.3183C85.5189 25.2049 85.6004 25.1109 85.7078 25.0572C90.2785 22.7673 95.0493 20.8935 99.9593 19.4584C100.026 19.439 100.096 19.4348 100.164 19.4465C100.232 19.4582 100.296 19.4853 100.353 19.5257C100.409 19.5661 100.455 19.6189 100.488 19.6797C100.519 19.7406 100.537 19.8081 100.54 19.877C100.568 20.9133 101.301 22.4716 102.873 23.6159C104.58 24.8536 107.799 25.999 113.441 24.3855C113.556 24.3523 113.679 24.3662 113.784 24.4239C113.89 24.4816 113.968 24.5785 114.002 24.6932C114.034 24.8079 114.021 24.9311 113.962 25.0357C113.904 25.1403 113.807 25.2176 113.692 25.2508C111.618 25.8437 109.844 26.08 108.334 26.08Z" fill="white"/>
<path d="M137.088 76.88C137.013 76.8801 136.938 76.8611 136.871 76.8247C136.805 76.7885 136.748 76.7359 136.707 76.6721C125.213 58.788 118.265 43.9485 113.478 27.0551C113.462 26.9981 113.457 26.9383 113.464 26.8793C113.471 26.8204 113.489 26.7634 113.519 26.7116C113.547 26.6597 113.587 26.6141 113.633 26.5774C113.679 26.5405 113.733 26.5133 113.79 26.4971C113.848 26.4809 113.907 26.4762 113.967 26.483C114.025 26.4901 114.082 26.5085 114.134 26.5374C114.186 26.5664 114.231 26.6053 114.269 26.6518C114.306 26.6984 114.333 26.7518 114.349 26.8088C119.111 43.6118 126.025 58.378 137.468 76.183C137.512 76.2512 137.537 76.3301 137.541 76.4113C137.543 76.4925 137.525 76.5729 137.485 76.6442C137.447 76.7156 137.389 76.7751 137.319 76.8166C137.249 76.8582 137.17 76.88 137.088 76.88Z" fill="white"/>
<path d="M118.393 96.32C118.29 96.32 118.189 96.2847 118.108 96.2188C118.027 96.154 117.971 96.063 117.95 95.9606C117.927 95.8594 117.942 95.7525 117.988 95.6592C118.035 95.5671 118.113 95.4932 118.207 95.45C123.942 92.8774 129.859 90.7369 135.911 89.0469C136.01 89.0196 136.1 88.9707 136.177 88.9036C136.254 88.8365 136.316 88.7535 136.355 88.6591C136.396 88.5658 136.414 88.4634 136.411 88.3611C136.406 88.2599 136.379 88.1598 136.332 88.0688C135.388 86.2753 134.98 84.6398 135.084 83.0703C135.224 80.931 136.698 78.4304 139.153 78.0096C139.214 77.9971 139.275 77.9968 139.335 78.0087C139.394 78.0207 139.452 78.0445 139.502 78.0789C139.551 78.1132 139.594 78.1575 139.627 78.2089C139.66 78.2603 139.683 78.3178 139.693 78.3781C139.703 78.4384 139.701 78.5 139.687 78.5595C139.674 78.619 139.648 78.6751 139.611 78.7243C139.575 78.7736 139.53 78.8151 139.478 78.8462C139.426 78.8774 139.367 78.8976 139.307 78.9058C137.309 79.247 136.107 81.3382 135.989 83.1306C135.898 84.5272 136.274 86.0035 137.136 87.6446C137.246 87.855 137.309 88.0881 137.318 88.3247C137.327 88.5624 137.283 88.799 137.189 89.0173C137.095 89.2357 136.953 89.4302 136.774 89.586C136.596 89.7418 136.384 89.8555 136.156 89.9192C130.149 91.599 124.275 93.7235 118.583 96.2768C118.524 96.3052 118.459 96.32 118.393 96.32Z" fill="white"/>
<path d="M107.993 99.92C107.894 99.92 107.799 99.8888 107.721 99.8308C107.641 99.7728 107.584 99.6914 107.557 99.5988C107.53 99.5051 107.533 99.407 107.568 99.3166C107.604 99.2263 107.667 99.1493 107.75 99.0969C108.512 98.6229 109.402 98.3352 110.186 98.082C110.823 97.8757 111.425 97.6816 111.789 97.4374C111.838 97.405 111.893 97.3816 111.952 97.3693C112.01 97.3571 112.071 97.3571 112.13 97.3682C112.187 97.3783 112.244 97.4006 112.294 97.4329C112.344 97.4653 112.386 97.5065 112.42 97.5545C112.454 97.6035 112.477 97.6582 112.489 97.7151C112.502 97.772 112.502 97.8311 112.492 97.8891C112.48 97.9471 112.458 98.0017 112.425 98.0508C112.393 98.0998 112.35 98.1422 112.301 98.1746C111.831 98.4891 111.166 98.7032 110.47 98.9296C109.699 99.1783 108.902 99.4371 108.235 99.8508C108.162 99.8966 108.078 99.92 107.993 99.92Z" fill="white"/>
<path d="M83.8483 109.6C83.6021 109.601 83.3604 109.541 83.1425 109.429C82.9258 109.315 82.7397 109.15 82.6002 108.949C81.9931 108.069 80.6407 106.956 78.6676 106.47C77.1154 106.087 74.6374 105.985 71.6442 107.661C71.3135 107.848 70.9287 107.917 70.5534 107.856C70.1779 107.796 69.8344 107.612 69.5792 107.331C66.0732 103.518 63.3093 98.1478 60.8709 93.416C60.6539 92.9946 60.4402 92.5811 60.2299 92.1767C60.1748 92.0708 60.1646 91.9469 60.2014 91.8331C60.2382 91.7193 60.3191 91.6246 60.4262 91.5694C60.5333 91.5153 60.658 91.5052 60.7727 91.5413C60.8873 91.5784 60.9827 91.6584 61.0377 91.7643C61.2481 92.1711 61.4617 92.5856 61.6788 93.0093C64.0921 97.696 66.8266 103.008 70.2486 106.732C70.3667 106.859 70.5245 106.943 70.6965 106.97C70.8685 106.999 71.0448 106.968 71.1972 106.884C74.449 105.062 77.1721 105.181 78.8854 105.603C81.1047 106.149 82.6456 107.43 83.3479 108.447C83.4375 108.575 83.5714 108.664 83.7246 108.695C83.8778 108.727 84.0366 108.699 84.1694 108.618C89.6451 105.306 96.5561 102.452 104.148 100.354C104.206 100.336 104.267 100.329 104.328 100.335C104.388 100.34 104.447 100.358 104.502 100.386C104.555 100.416 104.603 100.455 104.64 100.502C104.679 100.55 104.707 100.604 104.723 100.662C104.74 100.721 104.744 100.782 104.736 100.842C104.728 100.901 104.708 100.96 104.678 101.012C104.646 101.064 104.605 101.11 104.556 101.146C104.508 101.182 104.451 101.208 104.392 101.221C96.8738 103.298 90.0422 106.119 84.6357 109.379C84.3986 109.523 84.1263 109.6 83.8483 109.6Z" fill="white"/>
<path d="M55.1615 81.68C55.0815 81.68 55.003 81.6586 54.9339 81.619C54.8647 81.5795 54.8074 81.5231 54.7674 81.4542C50.5205 74.3263 46.2404 64.4045 43.3185 54.9028C43.2833 54.7882 43.2957 54.6643 43.3529 54.5586C43.4101 54.4531 43.5074 54.3741 43.6235 54.3394C43.7394 54.3047 43.8647 54.3169 43.9716 54.3735C44.0785 54.43 44.1583 54.5262 44.1935 54.6408C47.0948 64.0737 51.3429 73.9265 55.5556 80.9958C55.5861 81.0477 55.6061 81.1041 55.6144 81.1629C55.6227 81.2216 55.6193 81.2814 55.6042 81.339C55.5891 81.3966 55.5628 81.4497 55.5265 81.4971C55.4903 81.5445 55.4451 81.5852 55.3934 81.6145C55.3232 81.6563 55.2433 81.6789 55.1615 81.68Z" fill="white"/>
<path d="M57.4108 86C57.307 86 57.2065 85.9648 57.1264 85.8997C57.0463 85.8347 56.9916 85.7444 56.9716 85.6441C56.9716 85.6441 56.827 84.9829 56.0607 83.3452C56.0109 83.2394 56.0061 83.1182 56.0473 83.008C56.0884 82.8989 56.1723 82.8096 56.2803 82.76C56.3883 82.7115 56.5116 82.7071 56.6232 82.7468C56.7348 82.7876 56.8255 82.8702 56.8752 82.976C57.6987 84.7393 57.8455 85.4457 57.8511 85.4744C57.8626 85.5317 57.8623 85.5912 57.8505 85.6474C57.8386 85.7047 57.8154 85.7587 57.7821 85.8072C57.7489 85.8557 57.7064 85.8964 57.6568 85.9284C57.6073 85.9604 57.5519 85.9824 57.4937 85.9923C57.4664 85.9978 57.4387 86 57.4108 86Z" fill="white"/>
<path d="M69.952 63.12C66.5915 63.12 64.3211 62.1907 63.049 60.3072C61.8833 58.5816 61.7837 56.1162 62.7911 53.8786C63.7172 51.8136 65.3623 50.2064 66.8492 48.9072C72.752 43.754 79.8821 40.1984 87.5567 38.5809C89.705 38.1298 91.4814 37.92 93.1605 37.92C98.2294 37.92 101.287 39.4572 102.96 40.7474C104.894 42.2384 106.067 44.2324 106.099 46.0798C106.153 49.2376 102.292 52.3053 100.63 53.476C93.6467 58.3944 84.5502 61.4835 72.8149 62.9339C71.8652 63.0542 70.9091 63.1164 69.952 63.12ZM87.7433 39.4595C80.2193 41.0464 73.2293 44.5332 67.4428 49.5861C66.0294 50.8268 64.4703 52.3414 63.6144 54.2474C62.7347 56.2087 62.8036 58.3403 63.7963 59.8087C65.1927 61.8771 68.1077 62.6068 72.7051 62.0395C84.2901 60.6072 93.2498 57.5655 100.107 52.735C101.313 51.8858 105.243 48.9004 105.196 46.091C105.144 43.0707 101.375 38.8177 93.1616 38.8177C91.547 38.8177 89.8249 39.0219 87.7444 39.4595H87.7433Z" fill="#181E32"/>
<path d="M78.5575 47.92C78.4592 47.9201 78.3633 47.8888 78.2843 47.8308C78.2054 47.7726 78.1474 47.6907 78.1191 47.5973C78.0906 47.5038 78.0935 47.4039 78.1269 47.3121C78.1605 47.2204 78.223 47.1417 78.3051 47.0881C79.9142 46.0353 84.0153 44.3683 85.5 44.1643C85.6199 44.1477 85.7421 44.1791 85.8381 44.2518C85.9351 44.3243 85.9991 44.4321 86.0151 44.5513C86.0322 44.6704 86.0002 44.7913 85.9271 44.8872C85.8541 44.9832 85.7456 45.0464 85.6256 45.063C84.2552 45.25 80.3083 46.8615 78.8076 47.8452C78.7334 47.8937 78.6463 47.9196 78.5575 47.92Z" fill="white"/>
<path d="M70.7103 55.84C70.6133 55.8397 70.5188 55.8078 70.4411 55.7491C70.3633 55.6903 70.3064 55.6079 70.2786 55.5138C70.2509 55.4198 70.2538 55.3192 70.287 55.227C70.3202 55.1348 70.3819 55.0559 70.4629 55.0019C78.3919 49.777 87.397 46.453 96.791 45.2836C96.8498 45.2761 96.9096 45.2804 96.9672 45.2962C97.0248 45.3121 97.0779 45.3392 97.1254 45.376C97.1717 45.4128 97.2112 45.4586 97.2406 45.5106C97.27 45.5628 97.2892 45.6203 97.296 45.6799C97.3039 45.7393 97.2993 45.7998 97.2835 45.8576C97.2677 45.9155 97.2406 45.9697 97.2045 46.017C97.1683 46.0644 97.1231 46.1042 97.0712 46.1339C97.0203 46.1635 96.9627 46.1827 96.904 46.1903C87.6467 47.3406 78.7719 50.6147 70.9577 55.7624C70.8845 55.8121 70.7985 55.8391 70.7103 55.84Z" fill="white"/>
<path d="M80.1492 55.12C80.0515 55.1199 79.9564 55.0883 79.8784 55.0299C79.8004 54.9716 79.7437 54.8896 79.7166 54.7965C79.6897 54.7032 79.6941 54.6039 79.729 54.5134C79.764 54.4229 79.8278 54.3461 79.9105 54.2947C83.028 52.3709 86.5103 51.1015 90.1424 50.5648C90.2606 50.5475 90.3811 50.5774 90.4768 50.6481C90.5725 50.7188 90.6366 50.8243 90.6547 50.9417C90.6715 51.059 90.6411 51.1783 90.5702 51.2735C90.4993 51.3687 90.3923 51.432 90.2741 51.4493C86.7659 51.9674 83.4018 53.1935 80.3901 55.0519C80.318 55.0967 80.2344 55.1203 80.1492 55.12Z" fill="white"/>
<path d="M89.1886 123.12C89.097 123.12 89.0076 123.09 88.933 123.038C88.8583 122.985 88.8007 122.911 88.769 122.825C88.7362 122.739 88.7317 122.646 88.7543 122.556C88.7758 122.467 88.8244 122.387 88.8934 122.326C93.0033 118.788 100.142 115.361 110.715 111.851C119.693 108.872 129.582 106.359 137.527 104.339L138.494 104.094C138.552 104.08 138.612 104.076 138.671 104.084C138.73 104.093 138.786 104.113 138.837 104.143C138.889 104.174 138.933 104.213 138.969 104.261C139.004 104.309 139.03 104.363 139.046 104.421C139.061 104.479 139.064 104.539 139.055 104.598C139.047 104.657 139.027 104.714 138.998 104.765C138.967 104.816 138.927 104.861 138.88 104.896C138.832 104.932 138.778 104.959 138.72 104.973L137.754 105.219C122.162 109.182 98.5994 115.169 89.4872 123.014C89.4035 123.085 89.2972 123.122 89.1886 123.12Z" fill="#1B5EC9"/>
<path d="M89.1862 130.32C89.0882 130.319 88.9924 130.286 88.9147 130.226C88.8369 130.166 88.7817 130.082 88.7558 129.986C88.7299 129.892 88.7366 129.792 88.7738 129.7C88.811 129.609 88.8764 129.533 88.9609 129.482C92.9181 127.145 97.504 124.574 101.505 123.223C101.562 123.205 101.62 123.197 101.68 123.201C101.738 123.205 101.796 123.221 101.85 123.247C101.903 123.273 101.95 123.31 101.989 123.354C102.028 123.399 102.057 123.451 102.076 123.506C102.096 123.562 102.103 123.622 102.099 123.681C102.096 123.74 102.08 123.798 102.054 123.851C102.027 123.904 101.991 123.951 101.946 123.99C101.902 124.029 101.85 124.059 101.794 124.077C97.8702 125.401 93.3361 127.945 89.4183 130.258C89.3485 130.3 89.2685 130.322 89.1862 130.32Z" fill="#1B5EC9"/>
<path d="M112.37 132.506C114.243 130.593 116.658 129.3 119.289 128.801C119.369 128.787 119.446 128.753 119.51 128.701C119.575 128.65 119.624 128.584 119.657 128.509C119.691 128.433 119.705 128.352 119.698 128.269C119.691 128.188 119.665 128.109 119.621 128.039C117.683 124.98 116.329 122.433 114.44 118.097C113.658 116.305 106.1 119.822 106.1 121.361C106.1 123.755 107.825 126.686 108.756 128.763C109.333 130.05 110.048 131.271 110.888 132.402C110.972 132.516 111.079 132.611 111.203 132.679C111.326 132.748 111.464 132.788 111.605 132.798C111.747 132.808 111.888 132.786 112.02 132.736C112.152 132.686 112.272 132.608 112.37 132.506Z" fill="#FF6800"/>
<path d="M137.924 140.74C138.393 138.818 138.959 136.497 139.247 135.047C139.268 134.946 139.308 134.852 139.368 134.768C139.428 134.685 139.505 134.615 139.594 134.564C139.684 134.513 139.782 134.482 139.885 134.473C139.986 134.464 140.089 134.476 140.186 134.51C141.986 135.145 144.269 136.337 146.318 137.094C146.405 137.126 146.499 137.133 146.59 137.114C146.681 137.095 146.765 137.05 146.832 136.985C146.898 136.921 146.945 136.838 146.966 136.748C146.989 136.657 146.984 136.562 146.955 136.474C145.876 133.292 143.974 130.435 142.354 127.476C139.348 121.992 135.694 111.12 135.694 111.12C135.884 112.15 124.536 115.62 124.909 115.462C124.909 115.462 125.278 117.679 125.822 119.3C127.511 124.328 129.523 128.451 132.204 133.208C133.56 135.609 135.303 138.592 137.041 140.919C137.097 140.994 137.174 141.053 137.262 141.087C137.35 141.121 137.446 141.129 137.539 141.11C137.632 141.092 137.717 141.046 137.785 140.981C137.853 140.915 137.902 140.833 137.924 140.74Z" fill="#F2DFE7"/>
<path d="M121.761 117.36C121.66 117.361 121.561 117.33 121.481 117.269C121.4 117.208 121.342 117.123 121.316 117.028C121.29 116.931 121.297 116.829 121.337 116.737C121.377 116.645 121.445 116.569 121.533 116.52C125.416 114.378 138.432 109.759 140.102 109.372C140.219 109.345 140.343 109.365 140.445 109.428C140.548 109.491 140.621 109.59 140.649 109.706C140.676 109.823 140.657 109.944 140.593 110.046C140.529 110.147 140.427 110.219 140.31 110.246C138.692 110.62 125.688 115.256 121.978 117.303C121.912 117.34 121.837 117.36 121.761 117.36Z" fill="#1B5EC9"/>
<path d="M16.5239 130.917C18.0787 136.611 20.6711 142.215 25.0957 146.112C29.7703 150.228 36.3245 152.085 42.4679 151.102C48.6113 150.118 54.2364 146.319 57.518 141.023C60.5609 136.114 61.5725 130.227 62.0965 124.467C62.5841 119.107 62.7031 113.719 62.4529 108.34C62.3737 106.64 62.3929 105.832 61.5986 104.323C59.8355 100.972 55.2254 99.4741 51.6349 98.7166C43.7013 97.0418 33.4989 97.4636 25.649 99.4979C19.0292 101.214 17.3171 102.365 15.7125 106.435C15.0958 107.997 14.5809 111.696 14.5809 113.359C14.5809 116.058 14.5538 118.744 14.8072 121.435C15.1024 124.641 15.6768 127.814 16.5239 130.917Z" fill="#FF6800"/>
<path d="M55.1397 107.609C55.0912 107.548 51.2712 109.121 50.8896 109.244C49.3996 109.722 47.712 110.616 46.1768 110.92C43.1052 111.529 40.9999 111.835 37.8697 111.744C34.7394 111.654 31.0437 111.322 28.0218 110.517C26.7417 110.178 20.8842 108.44 22.4408 107.688C36.9644 100.668 52.2973 104.085 55.1397 107.609Z" fill="#F2DFE7"/>
<path d="M37.8234 111.92C30.3322 111.92 23.3758 110.127 18.1405 106.831C18.0422 106.766 17.9736 106.665 17.9491 106.551C17.9248 106.437 17.9467 106.317 18.01 106.218C18.0734 106.12 18.1733 106.049 18.2884 106.022C18.4034 105.995 18.5245 106.014 18.6256 106.075C29.3586 112.829 47.5863 112.613 58.428 105.601C58.4776 105.567 58.5337 105.542 58.5929 105.53C58.6522 105.518 58.7132 105.517 58.7727 105.528C58.8322 105.539 58.8887 105.563 58.9391 105.596C58.9894 105.63 59.0323 105.672 59.0656 105.723C59.0987 105.773 59.1213 105.829 59.1322 105.889C59.143 105.947 59.1417 106.009 59.1285 106.067C59.1152 106.125 59.0901 106.18 59.055 106.229C59.0197 106.278 58.9749 106.319 58.9232 106.35C53.7059 109.724 46.3719 111.751 38.8128 111.909C38.4861 111.917 38.1468 111.92 37.8234 111.92Z" fill="white"/>
<path d="M13.734 143.52C13.4911 143.52 13.2483 143.506 13.007 143.478C12.3323 143.4 11.8165 143.21 11.4292 142.897C11.201 142.706 11.0142 142.473 10.8803 142.207C10.7462 141.943 10.6679 141.653 10.6499 141.357C10.5945 140.535 10.8675 139.723 11.4099 139.098C11.8707 138.602 12.4306 138.207 13.0536 137.939C8.95732 137.169 5.86297 135.746 3.62513 133.61C2.146 132.165 1.13272 130.316 0.714577 128.296C0.29643 126.276 0.492269 124.178 1.2771 122.27C2.12112 120.263 4.43848 118.758 7.63847 118.141C10.7056 117.549 14.1009 117.838 16.9624 118.932C17.0749 118.975 17.1656 119.061 17.2146 119.171C17.2637 119.28 17.2669 119.405 17.2237 119.517C17.1804 119.628 17.0943 119.719 16.9841 119.767C16.8739 119.816 16.7489 119.819 16.6364 119.776C10.9566 117.604 3.62513 119.04 2.11885 122.62C0.653462 126.103 1.53269 130.355 4.25786 132.96C6.65133 135.248 10.1308 136.675 14.895 137.322C14.9969 137.336 15.0912 137.384 15.162 137.458C15.233 137.532 15.2765 137.628 15.2855 137.731C15.2945 137.832 15.2684 137.934 15.2115 138.02C15.1545 138.105 15.0701 138.168 14.9722 138.2C13.959 138.523 12.8139 138.889 12.0914 139.699C11.711 140.136 11.5185 140.704 11.5553 141.281C11.5636 141.456 11.6074 141.626 11.6841 141.783C11.7609 141.94 11.8689 142.079 12.0017 142.194C12.2505 142.395 12.614 142.52 13.1127 142.578C16.0014 142.917 18.5789 140.849 20.0261 138.806C20.4226 138.247 20.8111 137.596 20.6918 137.014C20.4953 136.054 18.1506 135.357 15.6674 134.619C13.132 133.864 10.2569 133.01 7.96676 131.52C5.24046 129.749 4.04884 126.849 5.12005 124.628C5.53922 123.757 6.49343 122.633 8.65743 122.222C10.5545 121.863 12.9434 122.141 15.7583 123.048C15.8702 123.088 15.9624 123.168 16.0153 123.274C16.068 123.379 16.0771 123.501 16.0406 123.614C16.0041 123.726 15.925 123.82 15.82 123.875C15.7149 123.93 15.5926 123.942 15.4789 123.908C9.73205 122.055 6.7831 123.266 5.93681 125.019C5.07802 126.802 6.164 129.273 8.46091 130.769C10.6408 132.187 13.4478 133.021 15.9242 133.757C18.914 134.645 21.2745 135.348 21.579 136.838C21.7675 137.758 21.2734 138.614 20.7656 139.332C19.2946 141.422 16.7137 143.52 13.734 143.52Z" fill="#181E32"/>
<path d="M57.4526 131.597C59.6463 131.823 59.2159 120.371 59.519 118.272C59.5392 116.133 60.195 112.504 57.8965 111.357C56.2471 110.535 55.1542 111.316 55.1407 113.649C55.1283 115.93 56.9006 116.707 57.4256 122.321C57.9168 127.574 56.0702 130.545 57.4526 131.597Z" fill="white"/>
<path d="M37.8236 154.96C31.3377 154.96 25.5385 153.495 21.3741 150.768C19.5458 149.573 19.5979 148.314 19.7902 147.67C20.2642 146.092 22.5201 144.942 25.1527 144.942C25.2727 144.942 25.3878 144.989 25.4726 145.074C25.5575 145.158 25.6052 145.273 25.6052 145.393C25.6052 145.512 25.5575 145.627 25.4726 145.712C25.3878 145.796 25.2727 145.844 25.1527 145.844C22.6389 145.844 20.9668 146.917 20.6579 147.928C20.3898 148.822 21.1693 149.557 21.8707 150.014C26.1992 152.842 32.0527 154.072 37.9254 154.072C44.4871 154.072 51.0884 152.541 55.6329 150.002C57.0324 149.219 57.7383 148.311 57.5698 147.498C57.391 146.639 56.1149 145.612 53.0727 145.304C52.9527 145.293 52.8424 145.233 52.7661 145.14C52.6899 145.047 52.6538 144.927 52.666 144.808C52.6781 144.688 52.7375 144.578 52.831 144.502C52.9244 144.426 53.0443 144.391 53.1644 144.402C56.1612 144.705 58.1422 145.793 58.4556 147.31C58.7101 148.531 57.8424 149.797 56.0798 150.783C51.7955 153.177 45.5087 154.728 39.2626 154.934C38.7761 154.952 38.2965 154.96 37.8236 154.96Z" fill="#181E32"/>
<path d="M11.9045 124.72C11.8312 124.72 11.7591 124.702 11.6948 124.666C11.6305 124.63 11.5761 124.578 11.5364 124.513C11.4966 124.45 11.473 124.378 11.4675 124.302C11.4621 124.226 11.475 124.15 11.5053 124.082C11.9274 123.112 12.5103 118.997 11.3183 115.465C11.2849 115.353 11.2947 115.232 11.3458 115.129C11.397 115.023 11.4853 114.944 11.5923 114.905C11.6993 114.866 11.8167 114.873 11.9196 114.922C12.0225 114.97 12.1028 115.06 12.144 115.168C13.3468 118.737 12.8887 123.11 12.3036 124.453C12.269 124.534 12.213 124.6 12.1421 124.648C12.0713 124.695 11.9888 124.72 11.9045 124.72Z" fill="#181E32"/>
<path d="M138.208 128.16C138.123 128.16 138.039 128.136 137.967 128.09C137.895 128.043 137.837 127.978 137.801 127.9L133.665 119.052C133.639 118.999 133.624 118.94 133.62 118.88C133.616 118.82 133.625 118.76 133.644 118.703C133.664 118.646 133.695 118.594 133.735 118.55C133.776 118.504 133.824 118.468 133.878 118.443C133.932 118.417 133.991 118.403 134.05 118.4C134.11 118.398 134.17 118.407 134.226 118.429C134.282 118.449 134.334 118.481 134.377 118.523C134.421 118.563 134.456 118.613 134.481 118.667L138.616 127.514C138.642 127.568 138.655 127.627 138.659 127.686C138.661 127.746 138.653 127.805 138.633 127.861C138.613 127.917 138.581 127.969 138.542 128.013C138.502 128.057 138.454 128.092 138.4 128.117C138.34 128.145 138.275 128.16 138.208 128.16Z" fill="#181E32"/>
<path d="M133.321 127.2C133.234 127.2 133.149 127.175 133.075 127.129C133.002 127.082 132.944 127.015 132.908 126.936C132.295 125.58 131.838 124.157 131.548 122.698C131.524 122.581 131.549 122.459 131.616 122.36C131.683 122.261 131.787 122.192 131.905 122.169C132.023 122.145 132.145 122.17 132.245 122.236C132.344 122.303 132.414 122.405 132.437 122.522C132.715 123.915 133.152 125.271 133.739 126.565C133.77 126.634 133.783 126.709 133.778 126.784C133.772 126.859 133.748 126.931 133.706 126.994C133.666 127.057 133.61 127.109 133.543 127.145C133.476 127.181 133.403 127.2 133.327 127.2H133.321Z" fill="#181E32"/>
</g>
<defs>
<clipPath id="clip0_165_7468">
<rect width="160" height="160" fill="white" transform="translate(0.5)"/>
</clipPath>
</defs>
</svg>
