<svg width="161" height="160" viewBox="0 0 161 160" fill="none" xmlns="http://www.w3.org/2000/svg">
<path d="M131.582 121.518C143.838 118.78 148.19 131.048 148.098 131.362C144.769 135.13 138.19 136.753 133.225 136.719C129.013 136.646 122.046 133.783 119.649 131.411C119.163 130.923 124.621 123.071 131.582 121.518Z" fill="#181E32"/>
<path d="M133.382 137.2H133.221C129.052 137.127 121.905 134.319 119.303 131.736C119.136 131.57 119.097 131.331 119.19 131.025C119.452 130.118 120.968 127.976 123.051 125.976C124.935 124.162 127.926 121.843 131.485 121.046C138.103 119.572 142.42 122.39 144.876 125.022C146.012 126.249 146.972 127.629 147.728 129.122C147.827 129.319 148.698 131.056 148.567 131.502C148.549 131.566 148.516 131.625 148.472 131.675C145.093 135.5 138.49 137.2 133.382 137.2ZM120.069 131.217C122.416 133.409 129.085 136.222 133.232 136.293H133.387C138.211 136.293 144.404 134.736 147.645 131.235C147.365 130.313 145.645 126.21 141.925 123.657C138.997 121.647 135.55 121.066 131.682 121.931C125.404 123.336 120.475 129.992 120.069 131.217Z" fill="#181E32"/>
<path d="M25.4788 123.816C33.0165 120.216 41.1656 126.861 43.3008 133.197C30.9255 141.626 17.305 133.848 17.305 133.848C17.1623 131.862 20.6763 126.11 25.4788 123.816Z" fill="#FF6800"/>
<path d="M77.687 146.432C81.1735 144.36 85.6337 143.828 89.3897 145.366C93.3631 147.008 96.9742 152.209 97.3002 155.377C97.3002 155.377 83.8768 163.315 72.3824 156.55C71.9103 156.272 71.024 156.1 70.7976 155.537C70.5712 154.975 71.0726 154.171 71.3081 153.667C72.679 150.72 74.8683 148.107 77.687 146.432Z" fill="#1B5EC9"/>
<path d="M61.0834 33.7822C61.0743 34.0818 61.0608 34.3995 60.8947 34.6493C60.5942 35.1015 59.9097 35.1365 59.4149 34.9071C58.9201 34.6776 58.5407 34.2593 58.1024 33.9326C56.5876 32.8021 54.2763 32.905 52.871 34.1711C51.4658 35.4373 51.1191 37.7276 52.0872 39.3544C53.0553 40.9812 55.2331 41.7646 57.0145 41.1304C58.0311 40.7686 58.9281 39.9999 60.0068 39.9253C62.0752 39.7772 63.4036 42.1772 63.5538 44.2472C63.7041 46.3171 63.2647 48.5249 64.1774 50.388C65.4979 53.0865 68.9613 53.8066 71.956 54.0123C78.9212 54.4928 85.9699 54.6341 92.9024 53.8043C95.5796 53.4833 98.5776 52.9271 100.086 50.691C101.826 48.1089 100.697 43.8255 101.861 40.9371C102.035 40.5052 102.276 40.0745 102.67 39.8269C103.617 39.2334 105.134 40.2882 106.014 40.9767C107.219 41.9206 109.474 41.8528 111.154 39.8665C112.833 37.8802 112.424 34.3395 110.111 33.1525C108.471 32.3103 106.463 32.2968 105.044 33.4736C103.914 34.4119 103.47 35.4949 102.801 35.0642C101.999 34.5476 102.236 33.1277 102.312 32.1781C102.529 29.5559 102.546 26.921 102.363 24.2963C102.282 23.1206 102.128 21.868 101.363 20.9715C100.64 20.1236 99.5118 19.7619 98.4397 19.4634C89.2447 16.9161 79.641 16.1865 70.1666 17.3155C67.6815 17.6128 65.0495 18.1068 62.9766 19.59C62.4977 19.9292 61.9215 20.3678 61.5962 20.8698C61.2506 21.4045 61.4144 22.3552 61.3963 22.9838L61.2494 28.0484L61.0834 33.7822Z" fill="#FF6800"/>
<path d="M56.1832 39.5137H56.1324C55.635 39.4593 55.1648 39.2615 54.7801 38.9448C54.3955 38.6282 54.1133 38.2068 53.9685 37.7328C53.8238 37.2588 53.823 36.7533 53.9662 36.2789C54.1093 35.8045 54.3902 35.3821 54.7739 35.0642C54.8195 35.0265 54.8721 34.998 54.9289 34.9804C54.9857 34.9628 55.0453 34.9566 55.1047 34.9618C55.1639 34.9671 55.2214 34.9838 55.2741 35.0111C55.3268 35.0383 55.3736 35.0756 55.4117 35.1208C55.4498 35.1659 55.4787 35.2181 55.4964 35.2743C55.5141 35.3305 55.5205 35.3895 55.5153 35.4481C55.5099 35.5068 55.4931 35.5637 55.4655 35.6159C55.4378 35.668 55.4002 35.7143 55.3546 35.752C55.1071 35.9571 54.926 36.2297 54.8337 36.5357C54.7415 36.8418 54.7419 37.1679 54.8353 37.4737C54.9286 37.7794 55.1105 38.0514 55.3587 38.2557C55.6067 38.4601 55.91 38.5879 56.2309 38.6232C56.351 38.6298 56.4635 38.6832 56.5437 38.7718C56.6239 38.8605 56.6653 38.977 56.6587 39.0959C56.6521 39.2147 56.598 39.3261 56.5085 39.4055C56.4189 39.4849 56.3011 39.5259 56.1809 39.5193L56.1832 39.5137Z" fill="#181E32"/>
<path d="M109.273 38.96C109.18 38.9602 109.088 38.9318 109.011 38.8785C108.934 38.8254 108.877 38.7501 108.846 38.6632C108.814 38.5762 108.812 38.4821 108.838 38.3935C108.864 38.305 108.917 38.2267 108.991 38.1694C109.296 37.9027 109.484 37.5295 109.512 37.1295C109.541 36.7296 109.41 36.3343 109.146 36.0281C109.105 35.9857 109.073 35.9358 109.052 35.8814C109.031 35.8269 109.021 35.7689 109.022 35.7107C109.025 35.6525 109.038 35.5951 109.062 35.542C109.087 35.4888 109.121 35.4409 109.165 35.401C109.208 35.3609 109.259 35.3297 109.314 35.309C109.369 35.2883 109.428 35.2785 109.488 35.2802C109.547 35.2819 109.606 35.2951 109.66 35.3189C109.714 35.3428 109.763 35.3769 109.804 35.4193C110.021 35.6603 110.186 35.9413 110.291 36.2459C110.395 36.5502 110.438 36.8722 110.414 37.1926C110.39 37.5132 110.303 37.8261 110.155 38.1128C110.007 38.3997 109.804 38.6549 109.554 38.8636C109.475 38.9263 109.375 38.9604 109.273 38.96Z" fill="#181E32"/>
<path d="M83.6759 42.4C82.9138 42.4 82.4717 42.0693 82.1788 41.8507C82.103 41.7861 82.0193 41.7316 81.9289 41.6888C81.835 41.6888 81.6688 41.793 81.5082 41.8881C81.0819 42.1441 80.4375 42.5292 79.4956 42.1916C79.0184 42.0195 78.7583 41.4883 78.833 40.8325C78.946 39.8132 80.4658 39.1336 81.7728 38.6556C81.8576 38.6239 81.9198 38.6024 81.9492 38.5888C82.1584 38.4925 82.2037 37.9942 82.2184 37.8311C82.4513 35.2519 82.5146 32.6602 82.4061 30.0727C82.4015 29.9526 82.4434 29.8354 82.5248 29.7468C82.6062 29.6582 82.7193 29.6055 82.8392 29.6004C82.959 29.5953 83.0766 29.6382 83.1648 29.7195C83.253 29.8008 83.3062 29.9141 83.3107 30.0342C83.4204 32.6617 83.357 35.2935 83.1207 37.9126C83.0913 38.2366 83.0076 39.0951 82.3292 39.4122C82.2817 39.4337 82.2161 39.4575 82.0861 39.5062C80.0237 40.2651 79.7534 40.7589 79.7331 40.9356C79.7082 41.1553 79.7692 41.315 79.8009 41.3343C80.3414 41.5279 80.6681 41.3343 81.0446 41.1077C81.3013 40.9548 81.567 40.7963 81.8904 40.7815C82.2478 40.7657 82.4965 40.9548 82.7204 41.1213C82.9737 41.3116 83.2146 41.4917 83.6759 41.4917C83.9552 41.4917 84.1769 41.3286 84.4121 41.1519C84.6145 41.0047 84.8236 40.8506 85.0815 40.8121C85.674 40.7147 86.1127 40.9061 86.4384 41.0466C86.8658 41.2335 86.98 41.2833 87.3916 40.8042C87.4708 40.7161 87.5816 40.6624 87.6992 40.6548C87.8179 40.6473 87.9333 40.6864 88.0237 40.7638C88.113 40.841 88.1685 40.9505 88.1786 41.0687C88.1888 41.1867 88.1526 41.304 88.0769 41.3954C87.2299 42.3808 86.5639 42.0897 86.0765 41.8768C85.7995 41.7556 85.5609 41.6503 85.233 41.7057C85.1323 41.7549 85.0385 41.8157 84.9514 41.887C84.6529 42.1044 84.2504 42.4 83.6759 42.4Z" fill="#181E32"/>
<path d="M88.9103 33.9933C89.0834 34.7898 89.6779 35.2914 90.4033 34.9095C91.1288 34.5277 91.2005 33.5189 90.4455 33.1856C89.8977 32.9427 88.7839 33.4104 88.9103 33.9933Z" fill="#181E32"/>
<path d="M89.9189 35.52C89.6037 35.5218 89.2953 35.421 89.0398 35.2318C88.8496 35.0937 88.7011 34.9053 88.6076 34.6867C88.5142 34.4683 88.4805 34.2278 88.5109 33.9913C88.476 33.6559 88.6234 33.3238 88.9352 33.0691C89.3606 32.7163 90.1248 32.4984 90.6662 32.7463C90.8969 32.8468 91.0939 33.0129 91.2346 33.2248C91.3753 33.4368 91.4529 33.6856 91.4597 33.9418C91.4653 34.2278 91.3922 34.5095 91.2492 34.7554C91.1074 35.0014 90.9003 35.2019 90.6527 35.3344C90.4265 35.4564 90.1744 35.52 89.9189 35.52ZM90.1372 33.5602C89.9684 33.5643 89.8029 33.6077 89.6521 33.687C89.4653 33.7838 89.4101 33.8807 89.4056 33.8991C89.4169 33.9558 89.4169 34.0142 89.4056 34.0709C89.3888 34.1486 89.3955 34.2296 89.4248 34.3036C89.4529 34.3775 89.5024 34.4411 89.5666 34.4859C89.6634 34.5529 89.7759 34.5913 89.893 34.5969C90.0089 34.6027 90.1248 34.5754 90.2273 34.5182C90.3263 34.4675 90.4096 34.3895 90.4681 34.2929C90.5255 34.1964 90.5559 34.0852 90.5559 33.9717C90.5548 33.8885 90.53 33.8075 90.4839 33.739C90.4366 33.6706 90.3713 33.6179 90.2959 33.5878C90.2453 33.5677 90.1912 33.5582 90.1372 33.5602Z" fill="#181E32"/>
<path d="M75.2285 33.9942C75.1279 34.7597 76.0192 35.217 76.8411 34.975C77.6629 34.733 77.7648 33.9792 77.125 33.4621C76.4853 32.9451 75.3291 33.2297 75.2285 33.9942Z" fill="#181E32"/>
<path d="M76.4325 35.5199C76.0708 35.5238 75.7184 35.4067 75.4316 35.1872C75.247 35.042 75.1022 34.8527 75.0107 34.6369C74.9191 34.4211 74.8837 34.1856 74.9077 33.9526C74.9071 33.9485 74.9071 33.9444 74.9077 33.9404C74.9388 33.6879 75.0405 33.4493 75.201 33.2517C75.3614 33.054 75.5743 32.9052 75.8153 32.8223C76.082 32.7211 76.3713 32.6944 76.6521 32.745C76.9329 32.7955 77.1947 32.9217 77.409 33.1096C77.8261 33.4867 78.0141 33.997 77.914 34.4695C77.8183 34.9132 77.479 35.2702 76.9852 35.4333C76.8068 35.4914 76.6202 35.5207 76.4325 35.5199ZM75.7919 34.0358C75.782 34.1214 75.7944 34.2082 75.8278 34.2876C75.8614 34.3671 75.9149 34.4365 75.9832 34.4895C76.0864 34.5636 76.2063 34.6112 76.3323 34.6284C76.4583 34.6456 76.5867 34.6318 76.7061 34.5882C76.8174 34.5527 77.0042 34.4651 77.0398 34.282C77.0743 34.1212 76.9875 33.9271 76.8073 33.764C76.7146 33.685 76.6018 33.6329 76.4814 33.6134C76.361 33.5937 76.2376 33.6075 76.1245 33.6531C76.0381 33.6794 75.9607 33.7292 75.901 33.7967C75.8414 33.8643 75.8017 33.947 75.7863 34.0358H75.7919Z" fill="#181E32"/>
<path d="M68.2452 46.88C68.1585 46.8801 68.0735 46.8554 68.0003 46.8087C67.9271 46.7621 67.8687 46.6955 67.8321 46.6167C67.2949 45.4589 67.8139 43.9271 68.9429 43.3374C68.9961 43.3077 69.0546 43.2893 69.115 43.2826C69.1754 43.2761 69.2365 43.2818 69.2947 43.2993C69.3529 43.3169 69.407 43.3458 69.4538 43.3846C69.5007 43.4234 69.5393 43.4712 69.5674 43.5252C69.5955 43.5792 69.6126 43.6383 69.6176 43.699C69.6226 43.7596 69.6153 43.8208 69.5963 43.8786C69.5774 43.9364 69.5472 43.9899 69.5072 44.0359C69.4674 44.0818 69.4187 44.1193 69.364 44.146C68.6584 44.5144 68.3215 45.5091 68.6572 46.2311C68.6896 46.3006 68.7039 46.3771 68.699 46.4535C68.694 46.5301 68.6697 46.6041 68.6287 46.6688C68.5877 46.7335 68.531 46.7867 68.464 46.8237C68.3969 46.8605 68.3217 46.88 68.2452 46.88Z" fill="#181E32"/>
<path d="M97.227 46.08C97.152 46.08 97.0781 46.0621 97.0122 46.028C96.9463 45.9937 96.8895 45.9443 96.8486 45.8839C96.8066 45.8236 96.7816 45.7543 96.7747 45.6821C96.7668 45.6099 96.7793 45.5372 96.8077 45.4704C96.9668 45.0795 96.9952 44.6504 96.8884 44.2433C96.7816 43.8361 96.5463 43.4714 96.2145 43.2002C96.1634 43.1658 96.1202 43.1215 96.0872 43.0702C96.0543 43.0189 96.0327 42.9617 96.0236 42.9021C96.0157 42.8424 96.0191 42.7816 96.0361 42.7235C96.052 42.6653 96.0804 42.6111 96.1202 42.5641C96.1588 42.5171 96.2077 42.4785 96.2622 42.4503C96.3179 42.4223 96.3781 42.4056 96.4406 42.4012C96.5031 42.3967 96.5656 42.4048 96.6247 42.4247C96.6827 42.4446 96.7372 42.476 96.7827 42.517C97.269 42.907 97.6145 43.4364 97.769 44.0288C97.9236 44.6211 97.8793 45.2456 97.6429 45.812C97.6088 45.8911 97.5509 45.9585 97.477 46.0062C97.4031 46.0539 97.3156 46.0795 97.227 46.08Z" fill="#181E32"/>
<path d="M83.0522 48.48C79.9334 48.48 76.9746 47.6453 73.3087 45.7522C73.2013 45.6967 73.1201 45.6001 73.0828 45.4838C73.0456 45.3676 73.0553 45.2409 73.11 45.1319C73.1646 45.0229 73.2596 44.9404 73.3741 44.9026C73.4887 44.8648 73.6133 44.8747 73.7207 44.9302C77.5126 46.8901 80.503 47.6718 83.7207 47.545C87.3458 47.402 89.4024 46.7449 92.9253 45.381C93.0377 45.3376 93.1625 45.3413 93.2726 45.3914C93.3827 45.4417 93.469 45.5341 93.511 45.6484C93.5541 45.7628 93.5495 45.8897 93.5007 46.0013C93.4508 46.1128 93.36 46.2 93.2476 46.2433C89.6305 47.643 87.5149 48.3186 83.7547 48.4662C83.5141 48.4754 83.2792 48.48 83.0522 48.48Z" fill="#181E32"/>
<path d="M72.2312 30.4C71.534 30.4 70.867 30.3334 70.2617 30.0794C69.6003 29.8012 69.1486 29.2381 69.1408 28.6784C69.134 28.2669 69.3651 27.9233 69.7641 27.7359C70.1631 27.5486 70.6608 27.5509 71.0531 27.5532L75.3507 27.5704C75.4942 27.5704 75.678 27.5613 75.8966 27.5509C77.0175 27.4957 78.413 27.4268 78.8984 28.198C78.9767 28.3204 79.0283 28.4587 79.0496 28.6037C79.0709 28.7485 79.0613 28.8963 79.0216 29.037C78.9656 29.2212 78.8722 29.3912 78.7476 29.5357C78.6231 29.6803 78.4701 29.7963 78.2987 29.8759C77.7248 30.161 76.977 30.1954 76.3751 30.2207L73.0729 30.3736C72.7871 30.3897 72.507 30.4 72.2312 30.4ZM70.9478 28.4726C70.6698 28.4726 70.3312 28.4807 70.1316 28.5738C70.0341 28.6186 70.0354 28.6496 70.0354 28.6623C70.0354 28.8002 70.236 29.0749 70.5958 29.2289C71.3278 29.5369 72.3086 29.4909 73.0248 29.4587L76.327 29.3059C76.846 29.2818 77.4916 29.2519 77.8963 29.0496C78.01 29.0009 78.1004 28.9079 78.1473 28.791C78.1526 28.7755 78.1542 28.7589 78.1518 28.7427C78.1495 28.7265 78.1433 28.7111 78.1339 28.6979C77.9288 28.3727 76.475 28.4439 75.928 28.4681C75.7038 28.4795 75.4975 28.4876 75.3361 28.4887L71.0386 28.4715L70.9478 28.4726Z" fill="white"/>
<path d="M55.4954 15.5217C56.1606 13.9401 57.1726 12.3031 58.8272 11.8614C59.7307 11.6197 60.7653 11.9744 61.4249 12.6183C61.5584 12.7466 61.7174 12.845 61.8916 12.9073C62.0658 12.9697 62.2512 12.9945 62.4357 12.9803C62.6202 12.9659 62.7996 12.9128 62.9622 12.8244C63.1247 12.7359 63.2667 12.6141 63.3788 12.4669C65.7777 9.32068 69.2089 6.9799 72.7158 5.06389C78.8148 1.73122 85.737 -0.669434 92.6367 0.167688C94.2992 0.369908 96.3638 1.22172 95.9775 3.08801C95.9267 3.31633 95.8477 3.53697 95.7392 3.74438C95.1779 4.86755 94.3963 5.86645 93.4408 6.68165C93.4013 6.71588 93.3742 6.76198 93.364 6.81304C93.3539 6.86399 93.3595 6.91709 93.3821 6.96408C93.4047 7.01119 93.442 7.04949 93.4883 7.07344C93.5346 7.09728 93.5877 7.1053 93.6385 7.09626C96.662 6.56484 99.7758 7.08304 102.465 8.56489C103.332 9.04841 105.138 9.92056 105.599 10.804C106.139 11.8377 105.993 13.1549 105.345 14.1129C105.264 14.2308 105.208 14.3651 105.184 14.5065C105.159 14.6479 105.165 14.7929 105.203 14.9315C105.241 15.07 105.308 15.1987 105.4 15.3084C105.493 15.4182 105.608 15.5065 105.738 15.5669C107.491 16.3577 111.452 23.1823 104.722 27.9938C101.568 30.2533 95.6353 30.0974 91.8517 29.2455C85.9956 27.926 81.3717 27.4448 76.9749 23.3597C76.8295 23.2267 76.6585 23.1247 76.4723 23.0598C76.2862 22.9948 76.0888 22.9684 75.8921 22.9819C75.6955 22.9956 75.5037 23.049 75.3283 23.1391C75.1529 23.229 74.9977 23.3537 74.8719 23.5054C74.4904 23.9552 73.964 24.2577 73.3833 24.3606C72.1534 24.5561 70.9313 23.9573 69.9386 23.2072C69.3162 22.7361 68.7425 22.1984 68.1315 21.7092C67.9807 21.5892 67.8026 21.5081 67.6129 21.4733C67.4234 21.4384 67.2281 21.4507 67.0445 21.5092C66.8608 21.5677 66.6945 21.6707 66.56 21.8087C66.4256 21.9469 66.3272 22.116 66.2735 22.3012C66.0477 23.0784 65.9754 23.9381 65.8082 24.738C65.6365 25.5604 65.213 26.4404 64.5941 26.9624C64.1692 27.3254 63.8519 27.7977 63.6765 28.3282C63.5011 28.8588 63.4744 29.4273 63.599 29.972C63.6171 30.0556 63.6363 30.1392 63.6533 30.2228C63.8441 31.1514 63.8927 32.1964 63.3404 32.9657C62.578 34.0265 60.6636 34.4976 59.9431 33.6243C59.2733 32.8087 51.2442 25.6124 55.4954 15.5217Z" fill="#1B5EC9"/>
<path d="M83.2361 8.79998C83.1338 8.80021 83.0348 8.76461 82.9548 8.69906C82.8759 8.63352 82.8203 8.54209 82.8003 8.44027C82.7791 8.33845 82.7936 8.23234 82.8403 8.14001C82.887 8.04768 82.9648 7.97456 83.0582 7.9332C83.4439 7.76256 83.753 7.61226 83.9209 7.36816C83.9954 7.25718 84.0243 7.12101 84.002 6.98845C83.9998 6.96325 83.992 6.93895 83.9787 6.91703C83.9664 6.89511 83.9498 6.87589 83.9298 6.86075C83.8842 6.83137 83.7819 6.80425 83.5573 6.84154C83.1427 6.91827 82.7536 7.10044 82.4267 7.3711C82.0988 7.64175 81.8442 7.99219 81.6863 8.38976C81.6674 8.44751 81.6374 8.50073 81.5974 8.54628C81.5574 8.59171 81.5085 8.62855 81.454 8.65443C81.3995 8.68031 81.3406 8.69477 81.2817 8.69703C81.2216 8.69918 81.1616 8.68901 81.106 8.66708C81.0493 8.64527 80.9982 8.61205 80.9559 8.56967C80.9126 8.52718 80.8781 8.47633 80.8548 8.42016C80.8314 8.36388 80.8203 8.30353 80.8203 8.24262C80.8203 8.1816 80.8337 8.12136 80.857 8.06542C81.0693 7.51936 81.4151 7.03795 81.8631 6.6675C82.3111 6.29695 82.8447 6.0498 83.4139 5.9499C83.8175 5.88209 84.1399 5.92956 84.3978 6.09229C84.5212 6.17162 84.6279 6.27615 84.7102 6.39933C84.7913 6.5224 84.8469 6.66151 84.8736 6.80763C84.9103 6.99421 84.9092 7.18633 84.8703 7.37245C84.8325 7.55858 84.758 7.7351 84.6513 7.89139C84.3255 8.35812 83.8008 8.58979 83.4173 8.7593C83.3606 8.78597 83.2983 8.79987 83.2361 8.79998Z" fill="#181E32"/>
<path d="M86.6412 18.72C84.9742 18.72 83.3986 17.6466 82.5019 16.8959C82.4104 16.8189 82.3528 16.7083 82.3415 16.5887C82.3313 16.469 82.3686 16.35 82.4454 16.2578C82.5222 16.1656 82.6317 16.1078 82.7515 16.097C82.8712 16.0864 82.9898 16.1236 83.0813 16.2006C84.0616 17.0204 85.9568 18.2965 87.6419 17.6251C87.835 17.5492 87.9039 17.4767 87.914 17.445C87.931 17.3929 87.8497 17.2276 87.6181 17.0419C87.1686 16.6794 86.6502 16.4099 86.0957 16.2493C85.9805 16.2163 85.8834 16.1387 85.8246 16.0335C85.767 15.9284 85.7523 15.8044 85.7851 15.6888C85.8178 15.5732 85.8958 15.4754 86.0008 15.4171C86.1058 15.3586 86.229 15.3444 86.3442 15.3774C87.0139 15.57 87.6385 15.8933 88.1828 16.3286C88.7103 16.7521 88.9249 17.2605 88.7713 17.7247C88.6662 18.0451 88.3974 18.2908 87.975 18.4618C87.5515 18.6322 87.0986 18.7199 86.6412 18.72Z" fill="#181E32"/>
<path d="M99.1214 14.16C99.0079 14.1595 98.8978 14.1181 98.8132 14.0437C98.7287 13.9693 98.6754 13.8672 98.6626 13.7566C98.6511 13.6461 98.68 13.535 98.7461 13.4444C98.8121 13.3539 98.9094 13.2901 99.0206 13.2654C99.2477 13.2134 99.4585 13.1059 99.6312 12.9529L99.4191 12.7853C99.3334 12.7074 99.2801 12.6005 99.272 12.4861C99.2627 12.3718 99.2998 12.2585 99.3728 12.1691C99.4469 12.0798 99.5524 12.021 99.6682 12.0046C99.7841 11.9883 99.9022 12.0156 99.9984 12.0809L100.568 12.5339C100.655 12.6024 100.713 12.699 100.733 12.8061C100.753 12.9132 100.732 13.0235 100.675 13.1171C100.516 13.3767 100.305 13.6021 100.055 13.7795C99.8049 13.9568 99.5199 14.0824 99.2176 14.1487C99.1863 14.156 99.1539 14.1598 99.1214 14.16Z" fill="#181E32"/>
<path d="M58.7559 19.6C58.6948 19.5999 58.6345 19.5875 58.5785 19.5636C58.5225 19.5397 58.4722 19.5048 58.4306 19.461C58.3192 19.3397 58.2412 19.1925 58.2041 19.0332C58.1672 18.8739 58.1722 18.7081 58.2188 18.5514C58.2557 18.4076 58.33 18.276 58.4346 18.1692C58.5391 18.0624 58.6702 17.9844 58.8149 17.9428C58.9956 17.8999 59.1857 17.9179 59.3547 17.9939C59.5238 18.07 59.6621 18.1996 59.7473 18.362C59.8377 18.5063 59.8753 18.6767 59.8538 18.8448C59.8323 19.0131 59.7531 19.1689 59.6291 19.2869C59.5658 19.3449 59.4868 19.3836 59.4015 19.3981C59.3163 19.4127 59.2285 19.4026 59.1491 19.369C59.1255 19.4096 59.0957 19.4465 59.0611 19.4785C58.9789 19.5558 58.8696 19.5992 58.7559 19.6Z" fill="#181E32"/>
<path d="M50.1616 83.3222C50.0891 84.0207 50.028 84.7531 50.2962 85.4029C50.9516 86.9877 53.0545 87.214 54.7636 87.1993L93.8103 86.8892C100.734 86.8337 107.667 86.776 114.561 86.133C115.087 86.0832 115.637 86.0198 116.073 85.7221C117.023 85.0666 116.973 83.6686 116.8 82.5264C116.207 78.5951 115.398 74.699 114.378 70.8559C114.093 69.7828 113.766 68.6655 112.994 67.8663C112.108 66.9482 110.795 66.6098 109.555 66.3109C101.784 64.442 93.9359 62.5618 85.9421 62.4825C76.7644 62.3931 67.7429 64.682 58.9058 67.1577C57.3043 67.6105 55.6802 68.0723 54.279 68.9689C52.8779 69.8654 51.6623 71.2329 51.5627 72.9399C51.4416 75.0737 50.9402 77.1838 50.6448 79.3006C50.4623 80.6371 50.3012 81.9774 50.1616 83.3222Z" fill="#F2DFE7"/>
<path d="M85.7529 70.4C85.6592 70.4002 85.5678 70.3716 85.4921 70.3179C85.4153 70.2643 85.3577 70.1885 85.3261 70.1008C85.2956 70.0132 85.2922 69.9182 85.3182 69.8289C85.3442 69.7396 85.3961 69.6604 85.4695 69.6022C88.6921 67.0374 90.8747 64.3594 92.766 60.646C92.8202 60.5401 92.9151 60.4595 93.028 60.4224C93.142 60.3853 93.2662 60.3946 93.3735 60.4483C93.4797 60.502 93.561 60.5955 93.5982 60.7085C93.6355 60.8214 93.6264 60.9444 93.5722 61.0505C91.6188 64.8849 89.3639 67.6514 86.0352 70.3014C85.955 70.3652 85.8557 70.4 85.7529 70.4Z" fill="#181E32"/>
<path d="M82.6045 70.4C82.4942 70.4001 82.3862 70.3601 82.3032 70.2873C81.9621 69.9853 81.4664 69.6111 80.8957 69.1828C78.8642 67.65 75.7946 65.3327 74.1598 62.195C74.1293 62.1423 74.1099 62.0839 74.1027 62.0235C74.0956 61.9629 74.1008 61.9017 74.1182 61.8434C74.1356 61.785 74.1646 61.7308 74.2037 61.6838C74.2428 61.6369 74.291 61.5982 74.3456 61.5703C74.4001 61.5424 74.4597 61.5256 74.521 61.5213C74.5821 61.5167 74.6436 61.5246 74.7017 61.5444C74.7598 61.5641 74.8133 61.5952 74.8589 61.636C74.9045 61.6767 74.9413 61.7262 74.9671 61.7814C76.5087 64.7343 79.4805 66.9771 81.4471 68.4615C82.0315 68.9022 82.5374 69.2831 82.9057 69.6077C82.9751 69.6683 83.024 69.7485 83.0467 69.8374C83.0683 69.9262 83.0626 70.0197 83.0308 70.1054C82.9978 70.1912 82.9398 70.2649 82.8637 70.317C82.7875 70.369 82.6966 70.3967 82.6045 70.3966V70.4Z" fill="#181E32"/>
<path d="M83.8 73.92H83.7099C83.3675 73.92 82.3403 73.9109 81.8929 73.1245C81.619 72.6506 81.6863 72.1017 81.7879 71.6313C81.999 70.6479 82.314 69.6895 82.7272 68.7721C82.9064 68.3664 83.1678 68.1016 83.5067 67.9846C84.0123 67.8107 84.5145 68.0209 84.8957 68.2244C85.5006 68.546 85.8305 69.1607 86.0256 69.596C86.3555 70.331 86.5643 71.1142 86.6431 71.9154C86.7241 72.7461 86.4981 73.3597 86.0039 73.6416C85.8042 73.7471 85.5839 73.8094 85.358 73.8245C84.8409 73.8877 84.3205 73.9195 83.8 73.92ZM83.9005 68.8312C83.8685 68.8302 83.8377 68.8348 83.8069 68.8448C83.6928 68.8835 83.6129 69.0267 83.5626 69.1392C83.1746 69.9986 82.8801 70.8964 82.6815 71.8176C82.6165 72.1222 82.5674 72.4608 82.6815 72.6677C82.7957 72.8745 83.1472 73.0018 83.7087 73.0086C84.2212 73.0128 84.7325 72.9839 85.2404 72.9222C85.3443 72.9164 85.4458 72.8935 85.5417 72.854C85.6981 72.7643 85.77 72.4381 85.7255 72.004C85.657 71.3006 85.4744 70.6128 85.1845 69.9676C84.9562 69.4699 84.7279 69.1721 84.4586 69.0255C84.3673 68.9744 84.0968 68.8312 83.9005 68.8312Z" fill="#181E32"/>
<path d="M79.649 90.8548C79.7875 91.2399 79.9677 91.6081 80.1864 91.9536C81.4655 93.8926 82.3778 94.9745 83.6571 96.9135C83.9389 97.3427 84.2775 97.8068 84.7297 97.8384C85.2341 97.8723 85.6386 97.3551 85.9499 96.8774C86.9894 95.2964 89.6991 91.59 89.6991 90.7193C89.6991 89.4477 87.7961 83.1304 86.243 78.1381C85.6545 76.2454 85.1909 74.5763 84.2286 74.4114C83.4628 74.277 82.9107 75.3612 82.6471 76.0839C81.7348 78.5876 79.3241 90.0078 79.649 90.8548Z" fill="#181E32"/>
<path d="M134.517 137.52C132.64 137.512 130.772 137.276 128.952 136.819C125.252 135.907 122.126 134.314 119.658 132.084C117.585 130.193 115.957 127.866 114.892 125.27C112.744 120.133 113.039 115.194 113.122 114.256C113.732 107.256 117.707 103.1 120.934 100.847C124.772 98.167 129.13 97.02 131.695 96.8515C134.816 96.6479 137.765 97.0483 140.463 98.0437C144.746 99.6273 148.095 102.164 150.417 105.592C152.607 108.823 153.769 112.777 153.78 117.024C153.792 121.586 151.746 128.448 147.941 132.165C146.095 133.968 141.561 137.52 134.517 137.52ZM129.168 135.936C138.983 138.354 145.124 133.649 147.309 131.514C150.813 128.094 152.887 121.46 152.876 117.024C152.854 108.475 148.215 101.867 140.15 98.8898C137.572 97.9385 134.748 97.5551 131.754 97.7519C127.504 98.0301 115.126 101.673 114.023 114.332C113.943 115.237 113.656 119.976 115.725 124.917C118.114 130.624 122.637 134.331 129.168 135.94V135.936Z" fill="#1B5EC9"/>
<path d="M134.815 131.12C134.525 131.121 134.236 131.102 133.947 131.064C132.822 130.914 131.703 130.454 130.621 129.697C128.533 128.235 127.265 126.229 127.141 124.194C127.135 124.075 127.175 123.958 127.255 123.869C127.335 123.779 127.448 123.725 127.568 123.717C127.688 123.71 127.807 123.751 127.897 123.831C127.987 123.909 128.042 124.021 128.049 124.14C128.155 125.9 129.284 127.657 131.146 128.961C132.12 129.644 133.074 130.04 134.07 130.172C135.425 130.334 136.796 130.063 137.985 129.399C138.946 128.848 139.738 128.047 140.276 127.083C140.875 126.084 141.217 124.954 141.273 123.792C141.275 123.734 141.29 123.675 141.315 123.622C141.34 123.568 141.375 123.52 141.418 123.48C141.462 123.439 141.513 123.409 141.569 123.387C141.626 123.367 141.685 123.358 141.745 123.36C141.804 123.363 141.863 123.376 141.917 123.401C141.97 123.426 142.019 123.462 142.06 123.504C142.101 123.548 142.132 123.599 142.153 123.654C142.173 123.71 142.183 123.769 142.18 123.827C142.119 125.135 141.736 126.408 141.062 127.533C140.445 128.635 139.538 129.55 138.436 130.18C137.329 130.795 136.083 131.118 134.815 131.12Z" fill="white"/>
<path d="M134.394 122.4H134.369C134.31 122.398 134.251 122.382 134.198 122.357C134.143 122.331 134.096 122.295 134.056 122.251C134.016 122.206 133.986 122.154 133.965 122.099C133.946 122.042 133.937 121.984 133.94 121.924L134.151 118.028C134.158 117.908 134.211 117.796 134.301 117.716C134.391 117.636 134.51 117.594 134.63 117.601C134.75 117.607 134.862 117.661 134.943 117.75C135.024 117.839 135.066 117.957 135.059 118.077L134.848 121.972C134.841 122.089 134.791 122.197 134.706 122.277C134.622 122.356 134.51 122.401 134.394 122.4Z" fill="#181E32"/>
<path d="M144.053 110.661C143.346 109.8 142.178 110.11 141.658 110.322C141.634 110.333 141.607 110.338 141.581 110.336C141.555 110.333 141.529 110.324 141.507 110.311C141.485 110.296 141.466 110.277 141.454 110.254C141.44 110.232 141.433 110.206 141.432 110.179C141.38 108.751 140.831 107.339 139.826 106.335C138.706 105.211 137.136 104.651 135.573 104.387C133.777 104.084 131.722 104.194 130.161 105.235C129.504 105.674 129.165 106.166 128.808 106.845C128.374 107.678 127.931 108.363 127.803 109.321C127.746 109.75 127.733 110.183 127.761 110.615C127.763 110.644 127.758 110.673 127.745 110.697C127.732 110.723 127.714 110.745 127.69 110.761C127.666 110.778 127.638 110.787 127.61 110.789C127.582 110.791 127.554 110.786 127.528 110.773C127.045 110.536 125.982 110.15 125.195 110.839C124.678 111.291 124.821 112.073 124.902 112.351C125.072 112.935 125.698 113.288 126.303 113.332C126.909 113.377 127.501 113.174 128.075 112.975C128.121 112.959 128.171 112.963 128.215 112.984C128.258 113.006 128.292 113.043 128.309 113.088C128.671 114.061 129.18 114.983 129.909 115.715C131.045 116.857 132.673 117.462 134.282 117.439C135.891 117.417 137.487 116.997 138.74 115.985C139.597 115.292 140.419 114.11 140.912 113.11C140.937 113.06 140.977 113.018 141.026 112.992C141.075 112.966 141.131 112.956 141.186 112.964C142.148 113.112 143.103 113.31 143.933 112.461C144.171 112.229 144.315 111.917 144.337 111.585C144.359 111.252 144.259 110.924 144.053 110.661Z" fill="#F2DFE7"/>
<path d="M141.302 109.677C141.363 109.677 141.421 109.654 141.465 109.611C141.508 109.569 141.534 109.512 141.535 109.451C141.613 107.808 140.47 105.998 139.096 105.066C136.998 103.643 134.147 103.268 131.775 104.163C130.671 104.582 129.303 105.586 128.656 106.565C127.894 107.718 127.763 108.462 127.635 109.239C127.555 109.713 127.789 109.774 128.089 109.758C131.846 109.555 139.155 109.674 141.302 109.677Z" fill="#FF6800"/>
<path d="M134.23 115.28C133.862 115.279 133.493 115.256 133.127 115.209C133.01 115.192 132.904 115.132 132.831 115.04C132.76 114.948 132.729 114.831 132.744 114.716C132.76 114.601 132.821 114.497 132.915 114.425C133.01 114.355 133.128 114.325 133.245 114.34C134.2 114.463 135.169 114.407 136.102 114.174C136.217 114.145 136.338 114.161 136.44 114.22C136.543 114.28 136.616 114.376 136.646 114.489C136.675 114.602 136.659 114.721 136.598 114.821C136.538 114.922 136.44 114.994 136.325 115.024C135.64 115.193 134.937 115.28 134.23 115.28Z" fill="#1B5EC9"/>
<path d="M84.7461 160C81.7371 160 75.9303 159.529 70.8085 156.371C64.9158 152.741 61.7252 146.723 61.3279 138.487C61.0288 132.296 63.2173 126.265 67.3313 121.941C71.6269 117.427 77.7441 115.04 85.0215 115.04C91.3148 115.04 96.7052 117.228 100.611 121.368C104.93 125.945 107.176 132.599 106.775 139.625C105.955 154.021 92.0247 159.999 84.7495 160H84.7461ZM85.0226 115.944C77.9981 115.944 72.1076 118.233 67.9858 122.565C64.0355 126.71 61.9441 132.498 62.2297 138.443C63.1552 157.604 79.691 159.096 84.7461 159.096C91.7234 159.096 105.084 153.367 105.87 139.573C106.257 132.793 104.1 126.386 99.9524 121.989C96.2256 118.035 91.0609 115.944 85.0226 115.944Z" fill="#1B5EC9"/>
<path d="M84.5557 152.72C84.5116 152.72 84.4687 152.715 84.4258 152.705C84.3546 152.69 84.2879 152.66 84.2303 152.614C83.8912 152.442 83.2223 151.828 81.5566 149.728C80.4617 148.348 79.0582 146.445 78.4005 145.244C78.3705 145.192 78.351 145.133 78.3434 145.074C78.3359 145.014 78.3403 144.952 78.3563 144.894C78.3725 144.836 78.3999 144.781 78.4371 144.733C78.4744 144.686 78.5206 144.646 78.5732 144.616C78.6258 144.587 78.6836 144.569 78.7434 144.563C78.8031 144.556 78.8635 144.562 78.921 144.579C78.9786 144.596 79.0322 144.624 79.0786 144.663C79.1251 144.702 79.1635 144.749 79.1915 144.802C80.3012 146.828 83.672 151.04 84.5026 151.716C84.8744 151.331 85.697 150.25 86.435 149.282C87.461 147.934 88.6227 146.407 89.6318 145.277C89.6714 145.233 89.72 145.197 89.7731 145.171C89.8273 145.146 89.885 145.131 89.9448 145.128C90.0036 145.124 90.0635 145.133 90.1189 145.153C90.1754 145.173 90.2262 145.204 90.2703 145.244C90.3144 145.285 90.3505 145.333 90.3754 145.388C90.4014 145.442 90.4161 145.5 90.4195 145.56C90.4217 145.62 90.4138 145.68 90.3935 145.736C90.3731 145.793 90.3426 145.844 90.3031 145.889C89.3177 146.992 88.1673 148.504 87.1514 149.839C85.3004 152.274 84.923 152.72 84.5557 152.72Z" fill="#181E32"/>
<path d="M92.6757 134.411C92.0994 134.218 91.4744 134.226 90.9026 134.432C90.8799 134.44 90.8561 134.443 90.8312 134.441C90.8074 134.437 90.7837 134.429 90.7633 134.416C90.7429 134.403 90.7259 134.385 90.7146 134.364C90.7021 134.343 90.6942 134.319 90.6931 134.296C90.3375 126.79 77.3504 126.328 77.6629 134.207C77.6649 134.242 77.6575 134.279 77.6416 134.311C77.6257 134.344 77.6016 134.372 77.5718 134.392C77.5421 134.412 77.5075 134.425 77.4715 134.428C77.4354 134.432 77.3992 134.426 77.3662 134.411C76.1784 133.863 74.3996 135.014 75.1662 136.445C75.5059 137.077 76.8295 137.341 78.0116 137.012C78.0995 136.99 78.1926 137.001 78.2725 137.044C78.3523 137.087 78.4131 137.159 78.443 137.245C78.9163 138.585 79.6399 139.765 80.7017 140.407C83.8484 142.311 88.9097 141.048 90.3432 137.125C90.3658 137.066 90.4089 137.018 90.4644 136.991C90.5198 136.962 90.5832 136.957 90.6433 136.975C91.3985 137.186 92.4221 137.125 93.0426 136.646C93.8533 136.023 93.6336 134.769 92.6757 134.411Z" fill="#F2DFE7"/>
<path d="M84.8208 129.873C86.0648 131.658 87.9222 132.931 90.0434 133.452C90.0886 133.462 90.135 133.463 90.1803 133.453C90.2256 133.443 90.2686 133.424 90.3048 133.395C90.341 133.367 90.3693 133.331 90.3897 133.289C90.4101 133.248 90.4203 133.202 90.4191 133.157C90.2471 126.405 79.9832 126.085 77.99 131.655C77.0131 134.381 78.6691 133.826 80.4145 133.019C81.8066 132.472 84.0511 131.053 84.8208 129.873Z" fill="#181E32"/>
<path d="M78.3523 134.159C78.0659 134.172 77.7851 134.075 77.5678 133.888C76.9744 133.348 77.2649 132.274 77.535 131.509C78.0765 129.98 79.2012 128.778 80.7871 128.031C82.2622 127.35 83.9047 127.126 85.5076 127.384C88.0182 127.785 90.7345 129.514 90.8204 133.162C90.8238 133.276 90.8 133.391 90.7514 133.496C90.7028 133.6 90.6316 133.692 90.5412 133.765C90.4507 133.838 90.3445 133.889 90.2303 133.915C90.1173 133.94 89.9986 133.939 89.8856 133.912C87.8644 133.407 86.0648 132.249 84.7672 130.615C83.7204 131.793 81.7648 132.972 80.5553 133.447C79.7789 133.822 78.9853 134.159 78.3523 134.159ZM84.2539 128.198C81.8677 128.198 79.2611 129.351 78.3862 131.823C77.9714 132.994 78.1737 133.221 78.176 133.223C78.2528 133.294 78.6055 133.378 80.1915 132.635L80.2175 132.624C81.6428 132.057 83.7362 130.662 84.3998 129.63C84.4405 129.566 84.4959 129.514 84.5614 129.478C84.6259 129.443 84.6993 129.422 84.7739 129.422C84.8485 129.421 84.922 129.438 84.9876 129.473C85.0543 129.507 85.1108 129.557 85.1526 129.619C86.2932 131.269 87.9786 132.464 89.9104 132.993C89.7375 130.039 87.4665 128.626 85.3617 128.289C84.9955 128.229 84.6247 128.199 84.2539 128.198Z" fill="#181E32"/>
<path d="M84.0601 139.12C83.4643 139.121 82.8719 139.015 82.3133 138.808C82.258 138.787 82.2072 138.756 82.1632 138.716C82.1203 138.676 82.0853 138.627 82.0605 138.573C82.0357 138.519 82.0221 138.462 82.0199 138.402C82.0176 138.343 82.0266 138.283 82.0481 138.228C82.0684 138.173 82.1 138.122 82.1406 138.078C82.1801 138.035 82.2286 138 82.2828 137.976C82.337 137.951 82.3945 137.937 82.4543 137.935C82.5141 137.933 82.5728 137.942 82.6281 137.962C83.6313 138.333 84.7383 138.3 85.7178 137.873C85.8273 137.829 85.9492 137.829 86.0575 137.873C86.167 137.917 86.2539 138.003 86.3013 138.11C86.3486 138.217 86.352 138.339 86.3114 138.449C86.2697 138.558 86.1873 138.649 86.0812 138.698C85.4448 138.978 84.7564 139.121 84.0601 139.12Z" fill="#1B5EC9"/>
<path d="M30.2394 137.6C26.6569 137.6 18.3678 136.493 12.8515 131.128C8.94525 127.331 7.0544 122.098 7.23216 115.575C7.34539 111.218 8.29194 107.375 10.0288 104.156C11.4877 101.444 13.5633 99.1149 16.0886 97.3524C20.373 94.3445 25.4035 93.28 28.4119 93.28H28.4176C34.1094 93.28 39.4705 94.8637 43.5138 97.7472C48.079 100.996 50.9424 105.817 51.7973 111.691C52.5128 116.607 51.6682 124.398 46.9286 130.176C43.2047 134.719 37.839 137.212 30.9787 137.584C30.7658 137.59 30.5168 137.6 30.2394 137.6ZM8.13796 115.6C7.96699 121.859 9.76612 126.866 13.4833 130.48C19.192 136.031 28.0156 136.836 30.9334 136.678C37.5299 136.321 42.6759 133.939 46.2323 129.6C50.7805 124.05 51.5901 116.553 50.9017 111.818C49.0074 98.8094 37.6057 94.1861 28.4176 94.1827H28.4119C25.5349 94.1827 20.7207 95.2065 16.6095 98.0922C11.2008 101.891 8.35082 107.781 8.13796 115.6Z" fill="#1B5EC9"/>
<path d="M30.1602 127.2C28.149 127.2 25.8061 126.349 24.4729 123.861C24.4449 123.808 24.4277 123.751 24.422 123.692C24.4163 123.634 24.4224 123.574 24.4399 123.518C24.4575 123.461 24.486 123.409 24.5241 123.363C24.562 123.318 24.6087 123.28 24.6615 123.253C24.7142 123.225 24.772 123.208 24.8314 123.202C24.8908 123.196 24.9506 123.202 25.0076 123.219C25.0647 123.237 25.1178 123.265 25.1638 123.303C25.2099 123.34 25.2479 123.386 25.2759 123.439C26.6772 126.054 29.3868 126.559 31.2833 126.196C32.9507 125.87 34.4316 124.932 35.4284 123.57C35.4623 123.519 35.5061 123.476 35.557 123.443C35.608 123.41 35.6651 123.388 35.7251 123.378C35.7851 123.366 35.8466 123.367 35.906 123.381C35.9654 123.394 36.0216 123.419 36.071 123.455C36.1205 123.49 36.1623 123.535 36.1939 123.587C36.2256 123.637 36.2464 123.695 36.2551 123.754C36.264 123.814 36.2606 123.876 36.2452 123.934C36.2298 123.991 36.2025 124.046 36.1653 124.095C35.0326 125.642 33.3502 126.709 31.4559 127.08C31.0288 127.16 30.5949 127.2 30.1602 127.2Z" fill="#181E32"/>
<path d="M39.6863 111.098C39.5306 109.756 37.8582 109.662 36.7432 110.235C36.7076 110.254 36.6681 110.264 36.6278 110.264C36.5877 110.265 36.5478 110.256 36.5118 110.238C36.4758 110.22 36.4446 110.195 36.4205 110.162C36.3966 110.131 36.3807 110.093 36.374 110.054C35.3583 104.125 25.4903 104.7 24.5615 110.227C24.5543 110.267 24.5377 110.304 24.513 110.337C24.4881 110.368 24.456 110.394 24.4193 110.412C24.3825 110.428 24.3422 110.436 24.3016 110.435C24.261 110.434 24.2211 110.423 24.1857 110.403C23.3393 109.946 22.493 109.949 21.8046 110.477C20.922 111.154 21.0145 112.329 21.5291 112.937C22.1757 113.699 23.3697 113.713 24.2805 113.219C24.3171 113.2 24.3576 113.188 24.3992 113.186C24.4407 113.184 24.4825 113.19 24.5212 113.205C24.5599 113.22 24.5949 113.244 24.6235 113.273C24.6521 113.303 24.6738 113.339 24.6869 113.378C25.1552 114.72 26.1347 115.908 27.4461 116.48C30.5157 117.63 34.9623 116.772 36.2116 113.276C36.2286 113.228 36.2636 113.189 36.3096 113.167C36.3555 113.143 36.4087 113.14 36.4576 113.154C37.6528 113.525 39.9007 112.939 39.6863 111.098Z" fill="#F2DFE7"/>
<path d="M30.2338 115.6C29.5528 115.602 28.8775 115.477 28.2423 115.231C28.1851 115.212 28.1324 115.18 28.0875 115.14C28.0426 115.099 28.0065 115.049 27.981 114.994C27.9557 114.94 27.9415 114.881 27.9397 114.82C27.9378 114.759 27.9481 114.699 27.9701 114.643C27.9922 114.586 28.0253 114.535 28.0676 114.491C28.1099 114.448 28.1606 114.413 28.2165 114.391C28.2723 114.367 28.3324 114.355 28.3929 114.356C28.4535 114.356 28.5133 114.368 28.5689 114.393C29.1735 114.624 29.8195 114.726 30.4661 114.695C31.1126 114.663 31.7456 114.498 32.3247 114.21C32.3775 114.183 32.4351 114.166 32.4941 114.161C32.5531 114.157 32.6124 114.165 32.6686 114.183C32.7249 114.201 32.7771 114.23 32.822 114.269C32.867 114.308 32.9039 114.355 32.9307 114.408C32.9574 114.46 32.9735 114.517 32.9782 114.577C32.9827 114.635 32.9754 114.695 32.9571 114.751C32.9387 114.807 32.9093 114.859 32.8707 114.904C32.8322 114.949 32.7852 114.986 32.7324 115.013C31.9571 115.402 31.1012 115.603 30.2338 115.6Z" fill="#1B5EC9"/>
<path d="M84.5166 112.32C84.4061 112.32 84.2998 112.272 84.2216 112.187C84.1434 112.102 84.0996 111.988 84.0996 111.867C84.0996 111.356 84.1236 110.632 84.1476 109.794C84.2112 107.588 84.2977 104.566 84.1059 103.253C84.0965 103.194 84.0975 103.133 84.11 103.074C84.1215 103.015 84.1445 102.959 84.1768 102.911C84.2091 102.862 84.2497 102.82 84.2967 102.788C84.3436 102.756 84.3968 102.735 84.451 102.726C84.5062 102.716 84.5625 102.719 84.6157 102.733C84.6699 102.747 84.721 102.773 84.7648 102.81C84.8096 102.845 84.8471 102.89 84.8753 102.942C84.9034 102.994 84.9222 103.052 84.9295 103.111C85.138 104.509 85.0494 107.454 84.9816 109.822C84.9576 110.655 84.9368 111.373 84.9337 111.871C84.9326 111.991 84.8888 112.106 84.8106 112.19C84.7325 112.274 84.6271 112.32 84.5166 112.32Z" fill="#181E32"/>
<path d="M84.4612 113.115C84.051 113.115 83.7457 112.838 83.5953 112.701C82.7523 111.934 81.9879 111.087 81.31 110.17C81.2747 110.122 81.2485 110.067 81.2348 110.009C81.22 109.95 81.2166 109.89 81.2257 109.83C81.2348 109.771 81.2553 109.714 81.2861 109.663C81.3169 109.611 81.3567 109.567 81.4057 109.531C81.4536 109.496 81.5083 109.469 81.5664 109.455C81.6245 109.44 81.6848 109.438 81.7441 109.447C81.8033 109.455 81.8603 109.475 81.9115 109.506C81.9628 109.537 82.0072 109.578 82.0426 109.626C82.684 110.495 83.4085 111.298 84.2071 112.025C84.3826 112.185 84.4429 112.203 84.4612 112.203C84.4794 112.203 84.5386 112.169 84.6765 112.037C85.6312 111.128 86.5015 110.134 87.2762 109.067C87.348 108.97 87.4551 108.904 87.5736 108.886C87.6932 108.866 87.8151 108.896 87.9131 108.967C88.011 109.039 88.076 109.146 88.0953 109.266C88.1136 109.385 88.0851 109.507 88.0133 109.605C87.2067 110.719 86.2999 111.756 85.3053 112.704C85.1618 112.841 84.8952 113.095 84.5204 113.12L84.4612 113.115Z" fill="#181E32"/>
<path d="M38.3878 93.8399C38.2961 93.8411 38.2069 93.8114 38.132 93.7577C38.0837 93.7235 38.0423 93.6801 38.0105 93.6299C37.9786 93.5796 37.957 93.5225 37.9465 93.4632C37.9361 93.405 37.9372 93.3445 37.9498 93.2851C37.9625 93.2269 37.9862 93.1709 38.0199 93.1218C39.8229 90.4982 42.2828 88.4123 45.1446 87.081C45.2528 87.0308 45.3763 87.0262 45.4878 87.0696C45.5993 87.1119 45.6896 87.1975 45.7391 87.3071C45.7884 87.4179 45.7927 87.5434 45.7511 87.6565C45.7095 87.7706 45.6253 87.862 45.517 87.9122C42.8012 89.1749 40.4668 91.1547 38.7557 93.6447C38.7143 93.7052 38.6592 93.7543 38.5952 93.7886C38.5311 93.8228 38.46 93.8399 38.3878 93.8399Z" fill="#181E32"/>
<path d="M37.6869 94.24C37.5731 94.2411 37.4632 94.196 37.3799 94.1163C37.2965 94.0365 37.2459 93.9267 37.2382 93.8087C37.122 92.0455 37.5881 90.2939 38.5609 88.8371C38.6288 88.7377 38.7325 88.6683 38.8494 88.6475C38.9662 88.6256 39.0866 88.6522 39.1842 88.7215C39.2818 88.792 39.3488 88.8984 39.3704 89.0187C39.3919 89.1389 39.3663 89.2626 39.2991 89.3632C38.5441 90.494 38.1333 91.8305 38.1189 93.2017C39.8097 92.8052 41.7586 92.1935 42.3375 91.9068C42.4449 91.8548 42.5684 91.8478 42.6808 91.8883C42.7932 91.9288 42.8852 92.0143 42.9366 92.1242C42.9881 92.2352 42.9948 92.3624 42.9552 92.478C42.9157 92.5947 42.8331 92.6895 42.7256 92.7416C41.9582 93.1208 39.5079 93.855 37.7778 94.225C37.7481 94.2342 37.7177 94.2388 37.6869 94.24Z" fill="#181E32"/>
<path d="M129.088 92.88C129.017 92.88 128.946 92.8633 128.882 92.831C128.818 92.7988 128.762 92.7521 128.721 92.6953C127.161 90.5793 124.839 89.1296 122.229 88.6434C122.112 88.6212 122.006 88.5544 121.939 88.4576C121.871 88.3597 121.845 88.2396 121.867 88.1239C121.889 88.0082 121.957 87.9047 122.055 87.8379C122.155 87.7712 122.277 87.7456 122.394 87.7679C125.233 88.2974 127.759 89.8739 129.455 92.1758C129.503 92.2414 129.531 92.3204 129.538 92.4016C129.544 92.4828 129.528 92.564 129.49 92.6375C129.452 92.7098 129.395 92.771 129.323 92.8144C129.253 92.8566 129.172 92.8789 129.088 92.88Z" fill="#181E32"/>
<path d="M129.19 93.1988C129.036 93.1966 128.882 93.1765 128.732 93.1398L125.111 92.3424C125.051 92.3324 124.995 92.309 124.944 92.2767C124.893 92.2433 124.849 92.201 124.816 92.1509C124.782 92.1007 124.759 92.044 124.748 91.9849C124.737 91.9259 124.738 91.8658 124.751 91.8068C124.765 91.7488 124.79 91.6932 124.826 91.6453C124.861 91.5963 124.906 91.5551 124.958 91.5239C125.01 91.4927 125.068 91.4727 125.129 91.4638C125.189 91.4549 125.25 91.4593 125.309 91.4738L128.93 92.27C129.036 92.3034 129.147 92.3157 129.258 92.3034C129.274 92.2244 129.28 92.142 129.275 92.0607L129.265 89.2454C129.265 89.1274 129.312 89.0149 129.397 88.9314C129.482 88.8479 129.598 88.8 129.717 88.8C129.837 88.8 129.953 88.8479 130.038 88.9314C130.123 89.0149 130.17 89.1274 130.17 89.2454L130.18 92.0607C130.18 92.2689 130.18 92.6542 129.903 92.9349C129.809 93.0251 129.697 93.0941 129.575 93.1398C129.452 93.1843 129.321 93.2055 129.19 93.1988Z" fill="#181E32"/>
<path d="M64.9033 143.28C64.8052 143.28 64.7098 143.248 64.6312 143.19C64.5525 143.133 64.4949 143.051 64.4667 142.958C63.5091 139.802 63.4382 134.549 64.9867 131.223C65.0118 131.169 65.0474 131.121 65.0914 131.08C65.1355 131.039 65.187 131.008 65.2432 130.987C65.2996 130.967 65.3595 130.958 65.4195 130.96C65.4794 130.963 65.5384 130.976 65.5929 131.001C65.6474 131.026 65.6967 131.061 65.7375 131.104C65.7783 131.148 65.8099 131.199 65.8307 131.254C65.8515 131.311 65.8613 131.37 65.859 131.43C65.8567 131.488 65.8425 131.547 65.8175 131.6C64.3627 134.732 64.4337 139.702 65.3422 142.697C65.3598 142.755 65.3656 142.815 65.3598 142.874C65.3539 142.934 65.3363 142.991 65.3078 143.043C65.2793 143.097 65.2406 143.143 65.194 143.18C65.1472 143.218 65.0935 143.246 65.0358 143.263C64.9926 143.275 64.9481 143.281 64.9033 143.28Z" fill="#1B5EC9"/>
<path d="M67.662 126.64C67.5924 126.64 67.5238 126.623 67.4618 126.592C67.3998 126.56 67.3461 126.515 67.3053 126.458C67.2643 126.401 67.2373 126.336 67.2262 126.266C67.2152 126.197 67.2207 126.126 67.2421 126.06C67.4823 125.313 68.6185 123.897 69.413 123.356C69.5099 123.29 69.6288 123.266 69.7436 123.288C69.8584 123.31 69.9596 123.378 70.025 123.476C70.0906 123.573 70.1148 123.693 70.0927 123.809C70.0704 123.924 70.0036 124.026 69.9067 124.092C69.2852 124.516 68.2614 125.772 68.0818 126.333C68.0531 126.422 67.997 126.5 67.9216 126.556C67.8461 126.611 67.7553 126.64 67.662 126.64Z" fill="#1B5EC9"/>
<path d="M92.2082 120C92.1483 120.001 92.0895 119.988 92.034 119.965C88.7403 118.573 85.235 118.114 82.1664 118.672C82.1076 118.686 82.0454 118.686 81.9865 118.674C81.9266 118.663 81.87 118.638 81.8191 118.604C81.7694 118.569 81.7264 118.526 81.6925 118.474C81.6597 118.422 81.637 118.365 81.6269 118.304C81.6155 118.243 81.6167 118.181 81.6302 118.12C81.6438 118.06 81.6687 118.004 81.7049 117.953C81.74 117.904 81.7852 117.861 81.8372 117.829C81.8893 117.797 81.947 117.776 82.0069 117.767C85.2452 117.177 88.9292 117.652 92.3813 119.116C92.4774 119.157 92.5577 119.231 92.6064 119.324C92.655 119.418 92.6708 119.526 92.6505 119.63C92.6301 119.734 92.5747 119.827 92.4944 119.895C92.4141 119.963 92.3123 120 92.2082 120Z" fill="#1B5EC9"/>
<path d="M116.093 116.88C115.977 116.881 115.866 116.837 115.782 116.759C115.697 116.68 115.646 116.574 115.639 116.459C115.499 113.719 116.091 110.989 117.356 108.546C118.621 106.103 120.515 104.035 122.845 102.548C122.896 102.517 122.952 102.496 123.01 102.486C123.069 102.476 123.129 102.478 123.187 102.491C123.245 102.504 123.3 102.529 123.349 102.563C123.397 102.597 123.439 102.64 123.47 102.691C123.502 102.74 123.523 102.796 123.533 102.854C123.543 102.913 123.541 102.972 123.528 103.029C123.515 103.087 123.49 103.14 123.456 103.189C123.421 103.237 123.378 103.277 123.327 103.309C118.947 106.029 116.221 111.291 116.545 116.401C116.548 116.46 116.54 116.519 116.521 116.575C116.502 116.631 116.471 116.683 116.432 116.726C116.393 116.77 116.344 116.807 116.291 116.833C116.238 116.859 116.18 116.873 116.12 116.877L116.093 116.88Z" fill="#1B5EC9"/>
<path d="M118.452 126.48C118.375 126.48 118.3 126.461 118.232 126.423C118.165 126.384 118.109 126.33 118.069 126.264C117.108 124.677 116.468 122.915 116.185 121.079C116.167 120.961 116.196 120.84 116.267 120.744C116.337 120.647 116.442 120.583 116.56 120.565C116.678 120.547 116.798 120.576 116.894 120.647C116.989 120.718 117.053 120.824 117.071 120.943C117.336 122.659 117.936 124.306 118.834 125.789C118.865 125.84 118.885 125.896 118.894 125.955C118.903 126.013 118.901 126.073 118.888 126.131C118.873 126.188 118.848 126.242 118.814 126.29C118.779 126.338 118.735 126.379 118.685 126.409C118.615 126.454 118.535 126.479 118.452 126.48Z" fill="#1B5EC9"/>
<path d="M14.7122 102.48C14.6252 102.479 14.5402 102.453 14.4672 102.404C14.3941 102.355 14.3362 102.287 14.3002 102.206C14.2643 102.125 14.252 102.035 14.2645 101.946C14.277 101.858 14.3139 101.775 14.3709 101.707C15.5295 100.343 16.9667 99.2544 18.5808 98.5202C18.6913 98.4701 18.8165 98.4666 18.9291 98.5109C19.0416 98.5563 19.1323 98.6449 19.1811 98.7579C19.2298 98.871 19.2326 98.9991 19.189 99.1145C19.1453 99.2299 19.0587 99.3231 18.9483 99.3721C17.4551 100.05 16.1255 101.056 15.0536 102.318C15.0112 102.369 14.9588 102.409 14.9 102.437C14.841 102.465 14.7771 102.479 14.7122 102.48Z" fill="#1B5EC9"/>
<path d="M10.7783 120.72C10.6815 120.72 10.5873 120.688 10.5096 120.631C10.432 120.573 10.3749 120.492 10.3468 120.399C8.94401 115.671 9.37963 110.587 11.5657 106.17C11.6193 106.062 11.7133 105.981 11.8267 105.943C11.9402 105.905 12.0637 105.914 12.1706 105.969C12.2774 106.022 12.3587 106.116 12.3962 106.23C12.4338 106.344 12.4248 106.468 12.3712 106.575C10.2881 110.784 9.87315 115.63 11.2097 120.135C11.2271 120.191 11.2331 120.251 11.2272 120.31C11.2215 120.37 11.204 120.427 11.1758 120.479C11.1478 120.532 11.1097 120.579 11.0636 120.616C11.0177 120.654 10.9647 120.682 10.9078 120.7C10.8659 120.712 10.8222 120.719 10.7783 120.72Z" fill="#1B5EC9"/>
<path d="M12.3521 125.68C12.2856 125.679 12.22 125.664 12.1598 125.638C12.0996 125.612 12.046 125.573 12.0025 125.525C11.5866 125.062 11.2954 124.508 11.1544 123.914C11.1395 123.856 11.1366 123.796 11.1461 123.738C11.1557 123.679 11.1774 123.623 11.2099 123.572C11.2424 123.522 11.285 123.478 11.3355 123.444C11.3859 123.409 11.443 123.385 11.5035 123.371C11.564 123.358 11.6265 123.357 11.6876 123.367C11.7486 123.377 11.8071 123.399 11.8592 123.431C11.9113 123.464 11.9561 123.505 11.9912 123.554C12.0263 123.603 12.0508 123.658 12.0632 123.717C12.1711 124.169 12.3926 124.59 12.7087 124.943C12.7664 125.007 12.8035 125.086 12.816 125.171C12.8285 125.254 12.8155 125.34 12.7788 125.417C12.7421 125.494 12.6832 125.56 12.6089 125.606C12.5345 125.652 12.4478 125.678 12.3592 125.679L12.3521 125.68Z" fill="#1B5EC9"/>
<path d="M94.5551 31.28C94.2297 31.28 93.8748 31.2628 93.4906 31.2284C92.8228 31.1677 92.1346 31.1364 91.4712 31.1072C91.1322 31.0915 90.7875 31.0756 90.4451 31.0565C89.5117 31.0038 88.6111 30.9196 87.8641 30.4862C87.2889 30.1493 86.9363 29.5697 86.9849 29.0351C87.0019 28.8404 87.0765 28.655 87.1996 28.5025C87.3228 28.35 87.4889 28.2371 87.6765 28.1783C88.0822 28.0312 88.5433 28.0817 88.9139 28.1233L92.8691 28.5579C93.0092 28.5736 93.2759 28.5816 93.5833 28.5905C95.397 28.6422 96.8107 28.7422 97.1407 29.4889C97.2096 29.6536 97.2345 29.8333 97.213 30.0103C97.1915 30.1874 97.1248 30.356 97.0175 30.4996C96.6434 31.0196 95.8163 31.28 94.5551 31.28ZM93.5731 30.3334C95.7631 30.5333 96.2152 30.0717 96.2852 29.9773C96.2988 29.962 96.3078 29.9441 96.3146 29.9248C96.3203 29.9055 96.3214 29.8851 96.3191 29.865C96.0287 29.5652 94.172 29.5114 93.5595 29.4934C93.2205 29.4833 92.9493 29.4754 92.7685 29.4563L88.8133 29.0217C88.55 28.9925 88.1907 28.9533 87.9839 29.0285C87.8901 29.0622 87.8867 29.0958 87.8845 29.1216C87.872 29.253 87.9975 29.5316 88.3184 29.7158C88.9399 30.0774 89.8394 30.1279 90.496 30.165C90.835 30.1841 91.174 30.1997 91.513 30.2143C92.1911 30.2446 92.8838 30.2772 93.5731 30.3389V30.3334Z" fill="white"/>
<path d="M82.8754 65.76C82.4959 65.76 82.1739 65.6822 81.9803 65.4962C81.37 64.911 81.245 64.0552 81.1752 63.2998C80.8228 59.4758 80.9489 55.6224 81.5513 51.8297C81.5592 51.7703 81.5794 51.713 81.6098 51.6614C81.6402 51.6098 81.6808 51.5648 81.7292 51.5289C81.7776 51.4932 81.8316 51.4674 81.8902 51.453C81.9487 51.4387 82.0084 51.4361 82.0681 51.4456C82.1266 51.455 82.184 51.476 82.2347 51.5076C82.2854 51.5393 82.3304 51.5808 82.3642 51.6296C82.3991 51.6785 82.4239 51.7339 82.4374 51.7925C82.4498 51.8511 82.452 51.9116 82.4408 51.9707C81.8508 55.6896 81.7269 59.4679 82.0726 63.2175C82.1289 63.8286 82.2156 64.4577 82.5882 64.8298C82.8911 64.9584 84.3368 64.7261 85.0393 64.1082C85.3467 63.8376 85.2882 63.6707 85.2645 63.6076C85.2409 63.5445 85.206 63.4588 85.1587 63.3438C83.7254 59.8632 83.3055 56.457 83.9123 53.2188C83.9371 53.1035 84.0058 53.0022 84.1037 52.9367C84.2017 52.8713 84.321 52.8469 84.437 52.8687C84.5518 52.8905 84.6543 52.9568 84.7218 53.0535C84.7894 53.1502 84.8164 53.2694 84.7973 53.3857C84.2242 56.4491 84.625 59.6839 85.9907 62.9999C86.0482 63.1374 86.0887 63.2367 86.1146 63.3088C86.2171 63.6042 86.3398 64.3619 85.2994 65.0339C84.6971 65.424 83.6646 65.76 82.8754 65.76Z" fill="#181E32"/>
<path d="M80.6396 81.92C80.5277 81.9211 80.4197 81.8807 80.3357 81.8068C80.2516 81.7316 80.1974 81.6288 80.1833 81.5167C80.1693 81.4047 80.1963 81.2914 80.2594 81.1978C80.3224 81.1042 80.4171 81.0372 80.5254 81.0107L82.4557 80.5173C84.2169 80.0678 86.2135 79.5565 88.1872 79.8431C88.2466 79.8516 88.3037 79.872 88.3551 79.9029C88.4076 79.9338 88.4521 79.9747 88.4887 80.0232C88.5241 80.0713 88.5504 80.1267 88.5652 80.1857C88.5801 80.2446 88.5835 80.3058 88.5755 80.3659C88.5664 80.426 88.5469 80.4838 88.5161 80.5358C88.4853 80.5878 88.4453 80.634 88.3973 80.6698C88.3493 80.7068 88.2945 80.7333 88.2363 80.7484C88.178 80.7634 88.1175 80.7669 88.0581 80.7588C86.2614 80.4988 84.3586 80.9899 82.6796 81.4127L80.7493 81.9061C80.7139 81.9154 80.6773 81.92 80.6396 81.92Z" fill="white"/>
<path d="M79.435 85.28C79.3294 85.2789 79.227 85.2423 79.1456 85.175C79.0642 85.1076 79.0088 85.014 78.9887 84.909C78.9687 84.8051 78.9853 84.6978 79.0358 84.6041C79.0864 84.5117 79.1675 84.4386 79.2654 84.3998C82.4157 83.1416 85.7904 82.5468 89.1798 82.6519C89.2401 82.653 89.2982 82.6667 89.3528 82.6918C89.4074 82.7169 89.4563 82.7523 89.4973 82.7957C89.5382 82.8391 89.5701 82.8905 89.5917 82.9464C89.6122 83.0035 89.6224 83.0629 89.6202 83.1234C89.6179 83.1827 89.6042 83.2421 89.5803 83.2969C89.5553 83.3506 89.52 83.4008 89.4768 83.4419C89.4336 83.483 89.3812 83.515 89.3255 83.5355C89.2697 83.5572 89.2106 83.5663 89.1503 83.5652C85.8871 83.4624 82.6365 84.0356 79.6033 85.2492C79.5495 85.2697 79.4925 85.28 79.435 85.28Z" fill="white"/>
<path d="M63.8143 86.8C63.7074 86.7989 63.6042 86.7602 63.5234 86.6885C63.4425 86.6167 63.3895 86.5177 63.374 86.4107C63.151 84.8887 62.9282 83.3132 62.266 81.9323C62.221 81.8151 62.1518 81.708 62.063 81.6215C61.9531 81.5623 61.8332 81.527 61.7097 81.5157C60.9797 81.3927 60.2421 81.3244 59.5026 81.3107C59.4439 81.3096 59.3861 81.2971 59.3321 81.2743C59.2783 81.2504 59.2294 81.2163 59.1883 81.1741C59.1055 81.0876 59.0596 80.9715 59.0606 80.8508C59.0616 80.7302 59.1095 80.6152 59.1939 80.5298C59.2783 80.4456 59.3921 80.3989 59.5104 80.4H59.5192C60.3017 80.4137 61.0824 80.4854 61.8546 80.6163C62.1157 80.6437 62.3664 80.7347 62.586 80.8827C62.7975 81.0535 62.9631 81.2766 63.0674 81.5316C63.7876 83.0399 64.0261 84.6849 64.2558 86.2764C64.273 86.3948 64.2432 86.5166 64.1727 86.6133C64.1023 86.7101 63.997 86.775 63.8801 86.7932C63.8583 86.7966 63.8364 86.7989 63.8143 86.8Z" fill="white"/>
<path d="M104.786 86.8H104.776C104.718 86.7977 104.66 86.7852 104.606 86.7613C104.552 86.7362 104.504 86.7021 104.464 86.6588C104.422 86.6155 104.391 86.5643 104.37 86.5085C104.349 86.4527 104.339 86.3923 104.34 86.3331C104.371 84.9917 104.583 83.6606 104.97 82.3796C105.113 81.9002 105.304 81.3479 105.655 80.8856C106.498 79.7601 107.675 79.76 108.534 79.76C108.652 79.76 108.766 79.8081 108.849 79.8935C108.933 79.9789 108.98 80.0942 108.98 80.2161C108.98 80.3368 108.933 80.4518 108.849 80.5372C108.766 80.6226 108.652 80.6715 108.534 80.6715C107.599 80.6715 106.897 80.7262 106.363 81.439C106.102 81.7863 105.948 82.2247 105.821 82.6472C105.459 83.8485 105.261 85.0965 105.232 86.3548C105.229 86.4732 105.181 86.5871 105.098 86.6702C105.014 86.7533 104.903 86.8 104.786 86.8Z" fill="white"/>
<path d="M84.0671 146.16H84.0039C83.9418 146.152 83.8821 146.132 83.8273 146.101C83.7736 146.071 83.7258 146.031 83.6877 145.983C83.6495 145.935 83.6208 145.879 83.6053 145.822C83.5886 145.763 83.585 145.702 83.5934 145.643C83.7903 144.218 83.7234 142.772 83.3929 141.372C83.3774 141.312 83.375 141.25 83.3846 141.19C83.3941 141.129 83.4168 141.071 83.4502 141.018C83.4836 140.967 83.5266 140.922 83.5791 140.886C83.6304 140.851 83.6888 140.825 83.7509 140.811C83.8129 140.798 83.8762 140.797 83.9394 140.807C84.0015 140.817 84.0611 140.84 84.1148 140.874C84.1685 140.907 84.2139 140.949 84.2497 141C84.2855 141.051 84.3105 141.107 84.3236 141.168C84.6792 142.676 84.7532 144.234 84.5396 145.768C84.5229 145.876 84.4656 145.976 84.3797 146.048C84.2926 146.12 84.1817 146.16 84.0671 146.16Z" fill="#181E32"/>
<path d="M30.1429 123.92C30.0828 123.921 30.0234 123.907 29.9684 123.882C29.9135 123.856 29.8643 123.817 29.8244 123.77C29.7843 123.721 29.7543 123.665 29.7365 123.604C29.7185 123.542 29.7131 123.477 29.7204 123.413C29.9575 121.36 29.9514 119.281 29.7025 117.228C29.6956 117.169 29.6996 117.109 29.7143 117.053C29.729 116.995 29.754 116.942 29.788 116.895C29.822 116.848 29.8644 116.809 29.9127 116.779C29.9608 116.75 30.014 116.731 30.069 116.723C30.124 116.716 30.18 116.721 30.2336 116.737C30.287 116.751 30.3372 116.778 30.381 116.814C30.4248 116.852 30.4615 116.897 30.4891 116.948C30.5165 117 30.5343 117.056 30.5412 117.115C30.7991 119.244 30.8051 121.398 30.5592 123.527C30.5459 123.635 30.4965 123.735 30.4199 123.807C30.3434 123.879 30.2451 123.92 30.1429 123.92Z" fill="#181E32"/>
<path d="M34.1929 104.29C33.7626 103.863 30.4564 101.821 26.3237 104.403C25.3737 104.997 24.7215 106.015 24.3762 107.078C24.1497 107.786 23.818 109.559 24.5392 110.123C24.9231 110.42 25.744 110.07 26.1606 109.965C26.8241 109.799 27.4797 109.597 28.124 109.367C29.4052 108.904 30.6496 108.344 31.8469 107.693C32.4017 107.396 32.8455 107.124 33.2611 106.849C33.3498 106.79 33.4579 106.766 33.5632 106.784C33.6685 106.803 33.763 106.86 33.8272 106.945C34.6775 108.066 36.0521 109.722 36.5831 109.481C37.3383 109.144 36.2163 104.232 34.1929 104.29Z" fill="#1B5EC9"/>
</svg>
