<svg width="277" height="277" viewBox="0 0 277 277" fill="none" xmlns="http://www.w3.org/2000/svg">
<g clip-path="url(#clip0_222_13675)">
<path d="M217.401 145.221C219.36 141.961 223.47 138.484 226.468 136.892C231.671 134.134 234.945 135.31 239.058 139.008C241.416 141.125 244.851 144.966 247.008 143.46C249.757 141.541 251.353 135.565 252.994 132.333C257.89 122.642 264.746 117.493 272.385 115.986C276.206 115.23 273.456 116.827 272.889 117.266L270.59 119.037C270.052 119.451 269.444 119.992 269.395 120.68C269.317 121.757 270.571 121.935 271.516 121.801L275.171 121.286C275.79 121.198 278.724 120.649 275.548 122.349L271.159 125.037C268.603 126.604 266.016 128.191 263.766 130.371C259.131 134.862 256.449 141.301 253.021 147.006C251.77 149.085 250.286 151.192 248.31 152.187C245.609 153.546 242.787 152.41 240.755 150.656C238.722 148.902 237.105 146.548 234.846 145.138C231.362 142.96 226.585 143.359 222.49 145.726C220.223 147.049 218.145 148.926 216.393 151.124C216.041 151.563 214.576 154.013 214.228 153.867C213.459 153.544 214.721 150.843 214.914 150.361C215.599 148.582 216.43 146.862 217.401 145.221Z" fill="#FF6800"/>
<path d="M221.324 156.426C223.207 162.003 221.218 168.303 223.029 173.904C223.472 175.271 224.165 176.6 225.261 177.535C228.061 179.922 232.47 178.972 235.528 176.919C238.587 174.866 240.973 171.904 244.168 170.072C245.664 169.212 247.096 168.277 248.634 167.773C252.935 166.367 249.28 166.201 248.363 166.184C247.215 166.192 246.07 166.28 244.937 166.452C243.916 166.58 241.738 166.88 244.085 165.01C244.973 164.31 245.931 163.701 246.943 163.192C247.679 162.815 249.482 161.55 246.462 161.873C242.094 162.342 238.227 165.687 235 168.827C233.227 170.552 230.672 172.53 228.574 170.95C228.157 170.631 227.822 170.22 227.593 169.753C225.78 166.171 226.456 162.052 226.358 158.114C226.271 154.426 225.087 150.237 221.716 148.703C220.591 148.214 219.345 148.075 218.138 148.299C216.934 148.524 215.824 149.104 214.953 149.964C214.301 150.629 214.385 151.472 215.411 151.504C216.322 151.531 216.968 151.483 217.828 151.943C219.54 152.86 220.72 154.637 221.324 156.426Z" fill="#FF6800"/>
<path d="M152.117 148.01C151.25 147.783 150.337 147.556 149.472 147.779C148.041 148.148 147.204 149.587 146.539 150.911C143.755 156.508 141.488 162.347 139.766 168.356C138.18 173.888 137.054 179.644 137.513 185.383C137.825 189.293 138.867 193.109 139.364 197C141.337 212.427 134.733 227.579 133.316 243.065C133.165 244.729 133.127 246.572 134.177 247.868C135.376 249.344 137.513 249.55 139.413 249.643L161.073 250.696C165.892 250.929 170.996 251.099 175.219 248.768C177.048 247.76 178.672 246.245 179.437 244.301C179.994 242.887 180.072 241.335 180.083 239.814C180.144 232.232 179.565 221.025 180.072 213.46C181.179 196.989 219.735 196.989 214.455 190C210.846 185.224 213.826 147.619 210.077 146.151C207.446 145.121 165.143 167.981 168.042 150.438C168.562 147.284 157.497 149.425 154.408 148.617L152.117 148.01Z" fill="#1B5EC9"/>
<path d="M95.7767 223.897C92.3736 215.429 88.9705 205.936 92.5211 197.46C95.3305 190.744 101.861 186.345 107.268 181.336C116.706 172.594 123.319 161.006 125.939 148.628C126.849 144.334 125.092 133.529 120.952 131.852C116.581 136.446 115.322 147.52 110.85 152.022C105.313 157.597 97.5349 160.662 89.6908 161.904C81.8467 163.146 73.8457 162.71 65.9279 162.203C64.6763 162.124 63.317 162.069 62.279 162.77C61.6419 163.198 61.2146 163.854 60.7987 164.487C55.6411 172.327 49.7273 178.816 42.7964 185.239C53.5104 204.079 56.1232 227.079 60.7741 248.4C60.984 249.364 61.2373 250.387 61.9784 251.047C62.6458 251.646 63.5854 251.847 64.4835 251.992C73.9365 253.556 83.5634 251.971 92.8236 249.912C95.822 249.247 99.1514 248.525 100.843 245.736C102.265 243.391 101.948 240.482 101.259 237.984C99.936 233.184 97.6276 228.527 95.7767 223.897Z" fill="#FF6800"/>
<path d="M121.672 150.898C126.839 142.756 128.934 131.379 122.964 123.807C122.167 122.796 121.209 121.858 120.01 121.396C118.379 120.772 116.556 121.107 114.852 121.487C99.8523 124.858 85.6584 131.148 73.0765 140.001C72.2132 140.608 71.3329 141.254 70.7945 142.163C70.0615 143.398 70.0634 144.92 70.0879 146.355L70.258 156.61C70.3052 159.382 70.1314 162.264 70.5357 165.014C71.2516 169.884 76.3126 170.762 80.5045 171.152C90.7605 172.099 101.243 169.092 109.693 163.256C114.471 159.981 118.544 155.779 121.672 150.898Z" fill="#F2DFE7"/>
<path d="M27.7455 135.871C32.3922 140.296 36.4664 145.298 40.8466 149.981C49.9469 159.729 60.3562 168.167 71.7768 175.056C72.7216 175.623 73.8554 176.19 74.8513 175.721C75.5316 175.398 75.9095 174.677 76.2572 174.021C83.5532 160.089 97.2912 150.805 111.027 143.148C124.763 135.491 139.349 128.653 150.411 117.47L97.397 60.4072C96.7035 59.661 95.9476 58.8771 94.9536 58.6523C94.0693 58.4539 93.1566 58.7335 92.2968 59.0168C61.2866 69.2408 32.8227 85.9769 8.81476 108.102C6.7588 109.991 4.70094 112.007 3.29503 114.453C1.7266 117.183 3.13818 118.093 5.44169 119.519C10.4852 122.64 15.4759 125.886 20.1963 129.482C22.8274 131.473 25.3475 133.605 27.7455 135.871Z" fill="#F2DFE7"/>
<path d="M71.6676 193.207H71.6053C71.4057 193.19 71.2208 193.096 71.0911 192.942C70.9615 192.789 70.8979 192.59 70.9141 192.391C71.5411 184.713 76.8269 179.459 81.1515 176.403C86.0388 172.95 91.606 170.998 94.3707 170.909C94.5709 170.902 94.7654 170.978 94.9114 171.114C95.0574 171.252 95.1428 171.444 95.1488 171.645C95.1547 171.845 95.0808 172.04 94.9435 172.186C94.806 172.332 94.6163 172.417 94.4161 172.425C92.2443 172.491 86.9661 174.151 82.0315 177.637C77.9713 180.505 73.0084 185.415 72.4287 192.508C72.4137 192.7 72.3269 192.878 72.1856 193.008C72.0444 193.137 71.8591 193.209 71.6676 193.207Z" fill="#181E32"/>
<path d="M81.1254 115.232C78.8103 115.232 76.8468 113.544 76.1967 110.887C76.0211 110.196 75.9893 109.476 76.1035 108.772C76.2176 108.069 76.4752 107.396 76.86 106.798C77.2319 106.175 77.7286 105.636 78.318 105.216C78.9075 104.796 79.5772 104.505 80.2844 104.36C80.9816 104.245 81.6943 104.273 82.3805 104.441C83.0667 104.609 83.7124 104.915 84.2796 105.339C84.8696 105.753 85.3712 106.283 85.7544 106.896C86.1379 107.509 86.3953 108.194 86.5115 108.909C86.9235 111.767 84.7823 114.689 81.9324 115.163C81.6657 115.209 81.3958 115.231 81.1254 115.232ZM81.1254 105.806C80.9315 105.805 80.7378 105.823 80.5471 105.859C80.0482 105.967 79.5769 106.178 79.1628 106.479C78.7487 106.779 78.401 107.163 78.1413 107.606C77.8669 108.026 77.6821 108.499 77.5984 108.995C77.5148 109.491 77.5343 109.999 77.6556 110.486V110.511C78.0978 112.338 79.5152 114.02 81.6791 113.66C83.7126 113.321 85.3001 111.161 85.0072 109.128C84.9202 108.615 84.7322 108.125 84.4544 107.687C84.1766 107.248 83.8145 106.87 83.3895 106.575C82.7354 106.089 81.9475 105.82 81.1349 105.806H81.1254Z" fill="#181E32"/>
<path d="M81.1229 109.138C80.9637 109.138 80.8083 109.087 80.6793 108.994C80.5504 108.9 80.4544 108.768 80.4049 108.616C77.5103 99.7728 78.0998 88.4245 85.9089 83.0027C91.5981 79.0574 98.7572 79.7209 105.686 80.3561C106.946 80.4714 108.246 80.5924 109.497 80.6794C118.118 81.2768 124.845 79.6869 129.493 75.9533C132.556 73.4407 134.521 69.8336 134.972 65.8961C135.205 63.7429 135.021 60.6029 132.837 57.9109C131.832 56.6708 130.57 55.6953 129.228 54.6613C128.299 53.9692 127.407 53.2291 126.555 52.4438C124.318 50.3133 123.016 44.5512 124.114 41.6305C124.148 41.5369 124.201 41.4509 124.268 41.3776C124.336 41.3042 124.417 41.245 124.508 41.2034C124.599 41.1619 124.697 41.1386 124.796 41.135C124.896 41.1314 124.995 41.1477 125.089 41.1827C125.182 41.2178 125.268 41.2709 125.34 41.3392C125.413 41.4074 125.472 41.4895 125.513 41.5806C125.554 41.6715 125.576 41.7698 125.579 41.8694C125.582 41.9693 125.565 42.0685 125.529 42.1617C124.633 44.5455 125.774 49.6119 127.607 51.3492C128.419 52.0954 129.27 52.7988 130.154 53.4571C131.503 54.4987 132.898 55.5763 134.012 56.9544C135.972 59.3723 136.847 62.6049 136.478 66.0531C135.982 70.3963 133.813 74.3751 130.432 77.1443C125.478 81.1142 118.396 82.8156 109.385 82.1955C108.118 82.1085 106.806 81.9857 105.538 81.8685C98.8819 81.2522 91.9986 80.6151 86.763 84.2466C79.583 89.2241 79.1144 99.8371 81.8315 108.146C81.8912 108.335 81.874 108.54 81.7835 108.717C81.6928 108.894 81.5363 109.028 81.3478 109.091C81.2756 109.118 81.1998 109.133 81.1229 109.138Z" fill="#181E32"/>
<path d="M124.061 44.7353C123.541 44.7394 123.026 44.6389 122.546 44.44C122.112 44.2498 121.721 43.9718 121.399 43.6237C121.077 43.2755 120.831 42.8648 120.675 42.4168C120.542 42.0629 120.482 41.6861 120.497 41.3083C120.512 40.9305 120.603 40.5597 120.764 40.2176C120.988 39.2845 121.802 38.3022 122.964 37.5679C124.127 36.8335 125.333 36.544 126.247 36.7862C126.727 36.9306 127.174 37.1687 127.561 37.4867C127.948 37.8046 128.268 38.1962 128.503 38.6389C128.737 39.0814 128.881 39.5661 128.927 40.0648C128.973 40.5635 128.919 41.0666 128.769 41.5443C128.432 42.4312 127.829 43.1926 127.043 43.7246C126.178 44.3628 125.135 44.716 124.061 44.7353ZM125.562 38.2151C125.075 38.2151 124.413 38.4461 123.777 38.8473C122.951 39.3678 122.33 40.0775 122.23 40.6131C122.215 40.6919 122.188 40.7679 122.15 40.8383C122.069 41.0056 122.023 41.1877 122.016 41.3732C122.008 41.5589 122.039 41.7442 122.107 41.9171C122.192 42.1664 122.327 42.3958 122.504 42.5909C122.681 42.7862 122.895 42.9433 123.135 43.0527C124.184 43.4956 125.386 43.0527 126.164 42.502C126.695 42.1484 127.106 41.6431 127.346 41.0522C127.51 40.4856 127.448 39.8771 127.171 39.3557C126.895 38.8344 126.427 38.4409 125.865 38.2587C125.766 38.2307 125.665 38.2161 125.562 38.2151Z" fill="#181E32"/>
<path d="M117.239 39.3338C117.12 39.334 117.003 39.3056 116.897 39.2509C112.109 36.8185 110.396 33.6923 108.759 28.411C108.728 28.3159 108.716 28.2156 108.724 28.1161C108.733 28.0165 108.761 27.9194 108.807 27.8306C108.853 27.7418 108.916 27.663 108.993 27.5989C109.07 27.5347 109.159 27.4863 109.255 27.4567C109.35 27.4271 109.451 27.4167 109.551 27.4263C109.651 27.4359 109.748 27.4652 109.836 27.5123C109.925 27.5595 110.003 27.6237 110.066 27.7012C110.13 27.7789 110.177 27.8683 110.205 27.9641C111.759 32.9475 113.26 35.7061 117.586 37.9065C117.738 37.9832 117.86 38.1088 117.931 38.2629C118.003 38.4171 118.02 38.5908 117.98 38.7559C117.941 38.9211 117.846 39.0682 117.712 39.173C117.578 39.2778 117.412 39.3346 117.241 39.3338H117.239Z" fill="#181E32"/>
<path d="M118.36 34.6248C118.232 34.6247 118.107 34.5911 117.996 34.5273C117.885 34.4635 117.792 34.3716 117.726 34.2605C115.711 30.8643 113.081 21.7265 113.648 16.8717C113.671 16.6728 113.771 16.4913 113.925 16.3672C114.079 16.243 114.276 16.1862 114.471 16.2094C114.666 16.2328 114.845 16.3342 114.967 16.4913C115.089 16.6483 115.145 16.8483 115.122 17.0472C114.605 21.5378 117.138 30.3361 119.003 33.4794C119.071 33.5939 119.108 33.7246 119.11 33.8584C119.112 33.9922 119.079 34.1239 119.014 34.2405C118.95 34.3571 118.856 34.4541 118.743 34.5214C118.629 34.589 118.5 34.6247 118.369 34.6248H118.36Z" fill="#181E32"/>
<path d="M121.533 29.9159C121.382 29.9157 121.234 29.8709 121.108 29.7873C120.983 29.7035 120.885 29.5847 120.828 29.4458C120.492 28.6358 118.955 24.0481 119.751 21.8089C119.823 21.6266 119.964 21.4789 120.144 21.3974C120.323 21.3158 120.528 21.3068 120.715 21.3719C120.901 21.437 121.055 21.5714 121.143 21.7466C121.231 21.922 121.247 22.1244 121.188 22.3111C120.656 23.8121 121.737 27.6635 122.238 28.8737C122.276 28.9655 122.296 29.0636 122.295 29.1629C122.295 29.2621 122.275 29.3602 122.236 29.4518C122.198 29.5432 122.141 29.6262 122.07 29.6963C121.999 29.7661 121.915 29.8215 121.823 29.8592C121.731 29.8962 121.632 29.9155 121.533 29.9159Z" fill="#181E32"/>
<path d="M125.375 32.9629C125.297 32.9631 125.22 32.9502 125.147 32.9252C125.056 32.8941 124.973 32.8447 124.901 32.7799C124.828 32.7151 124.769 32.6363 124.727 32.5478C124.684 32.4592 124.658 32.3627 124.652 32.2638C124.645 32.1651 124.657 32.0658 124.687 31.9718C125.699 28.7913 125.773 18.2003 125.188 16.2087C125.132 16.0172 125.152 15.8105 125.242 15.634C125.333 15.4576 125.487 15.3257 125.671 15.2675C125.855 15.2093 126.054 15.2295 126.223 15.3237C126.393 15.4179 126.52 15.5782 126.575 15.7697C127.24 18.0476 127.178 28.9382 126.061 32.4466C126.013 32.5966 125.921 32.7273 125.798 32.8199C125.675 32.9126 125.527 32.9627 125.375 32.9629Z" fill="#181E32"/>
<path d="M129.436 31.1625C129.387 31.1627 129.339 31.1584 129.292 31.1494C129.192 31.1309 129.098 31.0935 129.013 31.0391C128.929 30.9849 128.856 30.9149 128.799 30.833C128.742 30.7513 128.703 30.6593 128.682 30.5624C128.662 30.4656 128.661 30.3657 128.68 30.2686C128.74 29.9599 128.872 29.4499 129.051 28.7441C129.628 26.463 130.718 22.217 130.867 18.8651C130.871 18.7662 130.895 18.6691 130.938 18.5795C130.98 18.4898 131.041 18.409 131.115 18.3422C131.189 18.2752 131.277 18.2233 131.372 18.1894C131.467 18.1553 131.568 18.1401 131.669 18.1442C131.769 18.1485 131.869 18.1721 131.96 18.2139C132.052 18.2556 132.135 18.3146 132.203 18.3874C132.271 18.4602 132.324 18.5457 132.359 18.6386C132.394 18.7316 132.409 18.8302 132.405 18.929C132.251 22.4354 131.142 26.7773 130.545 29.1092C130.378 29.7642 130.245 30.2836 130.193 30.5509C130.16 30.7233 130.066 30.8789 129.927 30.9905C129.789 31.1023 129.615 31.1631 129.436 31.1625Z" fill="#181E32"/>
<path d="M130.389 36.841C130.238 36.8414 130.09 36.7956 129.965 36.71C129.839 36.6244 129.743 36.5027 129.688 36.3609C129.632 36.2191 129.621 36.0639 129.655 35.9156C129.689 35.7672 129.767 35.6326 129.878 35.5292C133.206 32.4255 137.503 22.3603 138.39 15.5877C138.423 15.3955 138.529 15.2233 138.683 15.107C138.839 14.9908 139.034 14.9396 139.226 14.964C139.418 14.9883 139.595 15.0866 139.717 15.238C139.839 15.3894 139.897 15.5826 139.882 15.7767C138.959 22.8177 134.428 33.3404 130.901 36.6293C130.763 36.7628 130.58 36.8384 130.389 36.841Z" fill="#181E32"/>
<path d="M130.807 40.442C130.626 40.4418 130.45 40.3766 130.313 40.2584C130.175 40.14 130.085 39.9763 130.059 39.7974C130.033 39.6184 130.072 39.4359 130.169 39.2832C130.266 39.1305 130.416 39.0179 130.589 38.9657C135.645 37.4573 139.673 32.7304 140.598 27.221C140.613 27.1233 140.649 27.0298 140.702 26.9459C140.755 26.862 140.823 26.7892 140.904 26.7317C140.986 26.6744 141.077 26.6333 141.175 26.6112C141.271 26.5889 141.372 26.5861 141.47 26.6025C141.567 26.6189 141.661 26.6546 141.744 26.7072C141.83 26.7598 141.903 26.8284 141.96 26.9091C142.017 26.9898 142.059 27.0811 142.081 27.1776C142.104 27.2741 142.106 27.3741 142.091 27.4717C141.069 33.5317 136.622 38.7319 131.025 40.41C130.954 40.4317 130.881 40.4424 130.807 40.442Z" fill="#181E32"/>
<path d="M180.459 57.339C177.98 57.339 176.265 56.6887 175.274 55.3863C173.682 53.2993 174.613 50.0858 175.677 47.9781C175.488 47.9308 175.299 47.8798 175.099 47.8231C169.071 46.048 164.781 41.464 164.423 36.4187C164.081 31.6022 167.401 27.2374 173.531 24.4416C177.464 22.6477 181.888 22.7044 185.125 22.9955C182.953 18.6478 183.023 12.9295 186.948 10.4343C190.873 7.93908 196.245 10.3644 199.13 14.1753C199.194 14.2539 199.242 14.3446 199.27 14.4424C199.298 14.5399 199.308 14.6424 199.296 14.7435C199.283 14.8444 199.251 14.942 199.2 15.0303C199.151 15.1187 199.083 15.1958 199.002 15.2573C198.92 15.3187 198.828 15.3633 198.729 15.3881C198.631 15.4129 198.527 15.4176 198.427 15.4017C198.327 15.386 198.23 15.3501 198.143 15.2962C198.058 15.2423 197.982 15.1717 197.926 15.0883C195.506 11.8936 190.93 9.69519 187.759 11.7122C184.475 13.7915 184.662 19.0844 186.717 22.7725C186.791 22.9067 186.878 23.0579 186.978 23.2205C189.336 23.6269 193.596 24.8764 193.915 28.6173C193.923 28.7277 193.908 28.8391 193.868 28.9429C193.83 29.0468 193.768 29.1408 193.69 29.2185C193.611 29.2962 193.515 29.3555 193.411 29.3926C193.307 29.4294 193.195 29.4429 193.085 29.4321C190.455 29.1655 187.948 27.4302 186.069 24.6136L185.789 24.5815C180.856 24.056 177.159 24.4492 174.161 25.8178C168.555 28.3735 165.633 32.0993 165.932 36.311C166.244 40.7306 170.092 44.774 175.526 46.3732C175.842 46.4658 176.165 46.5452 176.492 46.6095C179.024 43.0746 184.965 40.4111 188.164 40.7495C190.043 40.9385 191.119 41.4735 191.454 42.3657C191.631 42.8364 191.662 43.5906 190.803 44.5112C188.998 46.4469 184.042 48.3845 179.232 48.3845C178.564 48.3854 177.899 48.3463 177.239 48.2673C176.324 49.91 175.235 52.8457 176.483 54.4789C177.451 55.7511 180.279 56.7719 188.262 54.4203C191.59 53.4411 194.543 51.4336 196.995 49.6C197.156 49.4797 197.357 49.4285 197.555 49.4573C197.754 49.486 197.933 49.5924 198.054 49.7531C198.173 49.9138 198.224 50.1155 198.196 50.3139C198.168 50.5126 198.062 50.6914 197.901 50.8117C195.343 52.7247 192.246 54.8229 188.689 55.8721C185.35 56.8475 182.616 57.339 180.459 57.339ZM178.249 46.8325C183 47.1236 188.179 45.1067 189.693 43.4772C189.994 43.1558 190.054 42.9422 190.036 42.8931C190.036 42.8931 189.816 42.4375 188.005 42.2485C185.481 41.9876 180.665 44.1161 178.249 46.8325ZM188.324 25.0749C189.27 26.158 190.54 27.2336 192.127 27.7081C191.522 26.434 190.034 25.5796 188.324 25.0749Z" fill="#1B5EC9"/>
<path d="M33.5531 73.405C33.4774 73.405 33.4037 73.405 33.33 73.405C32.1955 73.3238 31.2501 72.6105 30.6828 71.3972C29.1135 68.0269 30.3047 60.8109 36.5273 52.2872C37.3988 51.0821 38.3945 49.9714 39.4978 48.9735C36.9187 44.5843 31.7984 42.584 27.3399 42.2047C22.766 41.816 17.364 43.9616 14.4938 47.2997C13.7959 48.1098 13.1432 48.9577 12.5387 49.8397C13.2532 50.6422 13.8256 51.5607 14.2309 52.5551C15.5545 55.7989 15.4543 59.7617 13.9738 63.1527C12.8355 65.7493 11.442 66.1531 10.7046 66.1625H10.6743C9.61737 66.1625 8.66441 65.4171 8.0499 64.1132C6.6507 61.1317 7.03264 55.7819 10.593 50.0435C9.15412 48.8245 7.34841 48.1923 5.63345 48.4433C4.14917 48.6622 2.71783 49.7755 1.98609 51.2738C1.36779 52.5476 1.35645 53.876 1.95583 54.9177C2.05623 55.0911 2.08327 55.2972 2.03146 55.4906C1.97947 55.6838 1.8526 55.8487 1.67883 55.9489C1.50507 56.049 1.29859 56.0761 1.10478 56.0242C0.910972 55.9724 0.745908 55.8459 0.645506 55.6725C-0.209138 54.1912 -0.214813 52.3476 0.624704 50.6171C1.58334 48.6452 3.41742 47.2393 5.41222 46.945C7.49211 46.6374 9.67788 47.362 11.4231 48.7773C11.9941 47.9583 12.6313 47.1367 13.3347 46.3128C16.498 42.6255 22.437 40.2592 27.459 40.6876C33.3791 41.1914 38.1383 43.8955 40.6606 47.996C42.6327 46.5091 44.7712 45.5693 46.9475 45.258C48.2146 45.0906 49.5022 45.1763 50.7356 45.5099C51.9691 45.8435 53.1238 46.4185 54.1326 47.2016C54.5813 47.553 54.9918 47.9502 55.3578 48.3867C55.6944 46.0184 56.7079 43.3822 58.7291 41.5103C60.8601 39.5365 64.9499 37.6721 72.3221 40.0007C72.4169 40.0305 72.5048 40.0786 72.5808 40.1424C72.657 40.2062 72.7198 40.2843 72.7655 40.3722C72.8113 40.4602 72.8393 40.5564 72.848 40.6551C72.8565 40.7538 72.8455 40.8534 72.8156 40.948C72.7858 41.0425 72.7375 41.1303 72.6736 41.2061C72.6097 41.282 72.5314 41.3446 72.4433 41.3903C72.3552 41.4362 72.2588 41.4641 72.1599 41.4726C72.0608 41.4813 71.9612 41.4703 71.8665 41.4405C66.5041 39.7516 62.4313 40.1498 59.7653 42.6237C57.2354 44.9674 56.5358 48.8245 56.793 51.1983C56.8608 51.4808 56.9089 51.7677 56.9367 52.0569C56.9533 52.2464 56.8977 52.4351 56.7809 52.5853C56.664 52.7357 56.4946 52.8365 56.3064 52.8674C56.1185 52.8984 55.9256 52.8574 55.7666 52.7525C55.6074 52.6478 55.494 52.487 55.4486 52.3023C55.383 52.0222 55.3338 51.7386 55.3011 51.4531C54.9362 50.019 53.9927 49.015 53.2042 48.3961C51.4885 47.0767 49.3195 46.4885 47.1706 46.76C44.9017 47.0827 42.9674 48.1263 41.3961 49.3528C41.7401 50.0939 42.014 50.8651 42.2148 51.6569C43.4023 56.3122 43.0695 63.3565 39.6509 68.5817C37.607 71.7029 35.4514 73.405 33.5531 73.405ZM40.2011 50.3775C39.2985 51.2304 38.4758 52.1639 37.7431 53.1665C31.5261 61.694 30.9362 68.3553 32.048 70.7518C32.3808 71.467 32.8459 71.85 33.434 71.884C34.7764 71.9821 36.6218 70.4329 38.3765 67.7476C41.5455 62.8998 41.848 56.3556 40.7419 52.0192C40.6016 51.4597 40.4208 50.9109 40.2011 50.3775ZM11.6878 51.1663C8.43562 56.6047 8.40915 61.3053 9.4264 63.4716C9.77431 64.2132 10.2432 64.6529 10.6819 64.6529C11.2964 64.6529 12.0055 63.8585 12.5727 62.5507C13.8963 59.5221 13.9851 55.999 12.8166 53.1156C12.5324 52.416 12.1512 51.7597 11.684 51.1663H11.6878Z" fill="#181E32"/>
<path d="M239.761 248.469H239.697C238.984 248.469 238.292 248.23 237.73 247.788C237.17 247.345 236.773 246.727 236.605 246.033C236.172 244.257 236.276 242.39 236.904 240.675C237.702 238.618 239.003 236.799 240.686 235.381C239.381 232.159 236.879 228.891 233.199 228.281C229.816 227.712 226.673 229.589 224.515 231.403C225.357 235.535 224.529 238.683 223.122 240.15C222.401 240.908 221.533 241.194 220.741 240.952C220.204 240.785 219.254 240.216 218.923 238.266V238.234C218.67 236.211 219.627 234.117 221.845 231.831C222.14 231.528 222.475 231.198 222.845 230.859C222.707 230.315 222.537 229.754 222.333 229.176C221.811 227.695 220.491 226.406 218.889 225.811C217.469 225.286 216.062 225.358 214.918 226.016C214.103 226.488 213.454 227.449 213.783 228.131C213.865 228.309 213.874 228.514 213.808 228.7C213.742 228.886 213.606 229.037 213.428 229.124C213.252 229.212 213.048 229.225 212.861 229.164C212.675 229.104 212.518 228.973 212.426 228.798C211.688 227.282 212.726 225.531 214.158 224.704C215.671 223.829 217.581 223.715 219.402 224.39C221.446 225.148 223.07 226.748 223.751 228.671C223.886 229.05 224.005 229.418 224.111 229.782C226.488 227.923 229.803 226.181 233.445 226.786C237.586 227.472 240.41 230.944 241.926 234.435C243.549 233.326 245.402 232.602 247.343 232.316C251.942 231.668 256.896 233.738 259.674 237.468C259.795 237.629 259.846 237.83 259.818 238.029C259.79 238.228 259.682 238.408 259.521 238.529C259.36 238.649 259.16 238.7 258.961 238.671C258.763 238.643 258.583 238.537 258.462 238.376C256.004 235.076 251.622 233.245 247.552 233.827C245.722 234.098 243.984 234.809 242.484 235.897C242.603 236.251 242.707 236.602 242.798 236.947C243.649 240.157 243.674 243.429 242.868 246.156C242.679 246.831 242.271 247.424 241.709 247.843C241.147 248.26 240.463 248.48 239.761 248.469ZM241.221 236.92C239.943 238.11 238.95 239.579 238.318 241.211C237.798 242.633 237.711 244.179 238.069 245.652C238.165 246.018 238.379 246.344 238.678 246.579C238.974 246.814 239.341 246.943 239.72 246.95C240.098 246.958 240.468 246.841 240.775 246.617C241.081 246.395 241.306 246.077 241.416 245.715C242.144 243.251 242.116 240.269 241.335 237.324C241.299 237.191 241.263 237.057 241.223 236.92H241.221ZM220.419 238.027C220.586 238.99 220.924 239.418 221.187 239.5C221.41 239.568 221.726 239.418 222.032 239.098C223.029 238.057 223.651 235.734 223.195 232.612L222.927 232.885C221.049 234.814 220.232 236.496 220.421 238.027H220.419Z" fill="#181E32"/>
<path d="M245.837 17.2552C243.576 19.2813 244.156 23.5651 247.048 24.4839C249.94 25.4028 253.207 22.4127 252.712 19.4188C252.216 16.4248 248.558 14.8149 245.837 17.2552Z" fill="#181E32"/>
<path d="M248.188 25.484C247.737 25.4837 247.29 25.415 246.862 25.2802C245.198 24.7519 243.98 23.2047 243.684 21.2537C243.406 19.4027 244.063 17.6687 245.401 16.7252C246.844 15.4554 248.707 15.0497 250.395 15.6384C251.204 15.9218 251.924 16.4169 252.475 17.0719C253.028 17.7268 253.394 18.5174 253.534 19.3612C253.815 21.0593 253.085 22.8821 251.628 24.1368C250.681 24.9838 249.459 25.4621 248.188 25.484ZM248.815 16.8781C247.904 16.8964 247.03 17.253 246.371 17.8781C246.348 17.8989 246.322 17.9177 246.297 17.9366C245.236 18.6687 245.024 20.0121 245.175 21.0292C245.382 22.3915 246.221 23.4953 247.312 23.8406C248.404 24.1859 249.622 23.8632 250.63 22.9934C251.689 22.0801 252.227 20.782 252.032 19.6065C251.935 19.0304 251.683 18.491 251.306 18.0442C250.929 17.5973 250.438 17.2598 249.885 17.0668C249.54 16.9441 249.179 16.8803 248.815 16.8781Z" fill="#181E32"/>
<path d="M244.142 42.4374C243.723 43.8406 244.594 45.5449 246.058 45.6945C247.521 45.8441 248.576 44.3519 248.607 42.8881C248.659 40.858 244.937 39.7748 244.142 42.4374Z" fill="#FF6800"/>
<path d="M12.7768 260.38C11.5168 260.391 10.2817 260.031 9.22774 259.345C8.57667 258.899 8.02237 258.326 7.59724 257.662C7.17229 256.999 6.88555 256.259 6.75375 255.483C6.4751 254.117 6.75074 252.698 7.52005 251.536C8.06794 249.872 9.59112 248.566 11.6358 248.026C13.8707 247.438 16.1357 247.906 17.5459 249.25C18.2275 249.881 18.7684 250.648 19.1335 251.501C19.4987 252.353 19.6801 253.272 19.6659 254.199C19.6351 255.063 19.4193 255.912 19.0329 256.688C18.6466 257.464 18.0985 258.148 17.4254 258.697C16.1214 259.782 14.4764 260.376 12.7768 260.38ZM13.5299 249.28C13.0218 249.276 12.5153 249.34 12.0237 249.467C10.4478 249.883 9.28987 250.858 8.92649 252.074C8.90202 252.155 8.86455 252.23 8.81541 252.299C8.52677 252.719 8.32682 253.195 8.22741 253.693C8.128 254.193 8.13139 254.709 8.23739 255.207C8.3368 255.783 8.54955 256.334 8.86323 256.828C9.1769 257.323 9.58547 257.752 10.0656 258.09C11.8881 259.3 14.6351 259.064 16.4558 257.527C16.9664 257.113 17.3827 256.598 17.6768 256.011C17.9709 255.427 18.1362 254.786 18.1616 254.132C18.1689 253.416 18.0257 252.706 17.7406 252.048C17.4555 251.39 17.0351 250.8 16.5066 250.314C15.7855 249.649 14.6973 249.28 13.5205 249.28H13.5299Z" fill="#1B5EC9"/>
<path d="M218.292 261.072C217.579 261.078 216.883 260.878 216.285 260.494C215.916 260.241 215.599 259.919 215.356 259.545C215.113 259.169 214.95 258.751 214.874 258.313C214.717 257.55 214.867 256.758 215.29 256.101C215.622 255.165 216.481 254.444 217.615 254.147C218.872 253.817 220.154 254.089 220.964 254.852C221.347 255.204 221.651 255.633 221.856 256.108C222.06 256.584 222.161 257.097 222.153 257.613C222.134 258.098 222.013 258.575 221.795 259.012C221.577 259.448 221.266 259.833 220.885 260.142C220.158 260.743 219.24 261.071 218.292 261.072ZM218.671 255.508C218.446 255.508 218.22 255.536 218.004 255.594C217.334 255.77 216.849 256.155 216.703 256.648C216.678 256.728 216.64 256.803 216.589 256.872C216.473 257.042 216.393 257.233 216.356 257.436C216.316 257.638 216.318 257.845 216.361 258.046C216.403 258.285 216.49 258.516 216.619 258.721C216.75 258.927 216.921 259.107 217.12 259.249C217.907 259.768 219.104 259.659 219.902 258.997C220.118 258.823 220.295 258.605 220.42 258.358C220.545 258.111 220.617 257.842 220.627 257.567C220.632 257.26 220.572 256.954 220.446 256.674C220.323 256.391 220.139 256.14 219.908 255.934C219.566 255.642 219.125 255.491 218.675 255.508H218.671Z" fill="#1B5EC9"/>
<path d="M11.985 219.532C10.5604 221.305 11.7061 224.436 13.9391 224.873C16.1721 225.311 18.407 222.831 17.7494 220.652C17.0917 218.474 13.86 217.65 12.2413 219.249L11.985 219.532Z" fill="#181E32"/>
<path d="M14.5363 225.755C14.3108 225.755 14.0858 225.732 13.8644 225.691C12.5431 225.436 11.4634 224.443 10.9482 223.038C10.4329 221.633 10.6273 220.169 11.4653 219.127C11.5152 219.065 11.5737 219.012 11.639 218.968C11.6752 218.898 11.7222 218.834 11.7787 218.779C12.7224 217.835 14.1645 217.499 15.6141 217.869C17.0637 218.239 18.1622 219.223 18.5473 220.513C18.9323 221.803 18.5662 223.221 17.5639 224.333C17.1864 224.767 16.7219 225.119 16.2005 225.364C15.679 225.61 15.1122 225.742 14.5363 225.755ZM12.7224 219.948C12.6996 219.992 12.6724 220.033 12.6413 220.073C12.1448 220.69 12.041 221.627 12.3657 222.518C12.6903 223.41 13.3774 224.055 14.1532 224.206C14.9289 224.358 15.8066 224.018 16.4427 223.31C17.0788 222.601 17.3317 221.699 17.1033 220.942C16.8749 220.184 16.1596 219.567 15.2422 219.333C14.3249 219.099 13.4019 219.299 12.8394 219.854C12.804 219.888 12.7647 219.92 12.7224 219.948Z" fill="#181E32"/>
<path d="M37.4633 266.059C37.1286 266.057 36.7958 266.004 36.4766 265.906C35.2048 265.516 34.3819 264.53 34.3569 263.385C34.32 262.967 34.3971 262.545 34.5802 262.166C34.7633 261.785 35.046 261.459 35.3994 261.221C35.7754 260.931 36.2238 260.744 36.6982 260.68C37.1727 260.618 37.6558 260.68 38.0973 260.861C38.4713 261.037 38.8015 261.289 39.0647 261.602C39.3281 261.915 39.5181 262.281 39.6216 262.675C39.7502 263.105 39.7821 263.557 39.7157 264C39.649 264.443 39.4856 264.865 39.2362 265.242C38.8585 265.774 38.2129 266.059 37.4633 266.059ZM37.1049 262.164C36.8258 262.17 36.556 262.264 36.334 262.43C36.2184 262.515 35.8465 262.82 35.9043 263.237C35.9072 263.272 35.9072 263.308 35.9043 263.344C35.9043 263.938 36.4574 264.319 36.9353 264.475C37.4132 264.632 37.8468 264.554 37.9547 264.4C38.0802 264.205 38.1613 263.987 38.1925 263.759C38.2237 263.531 38.2044 263.299 38.1358 263.08C38.0933 262.899 38.0106 262.729 37.8936 262.584C37.7768 262.437 37.6286 262.319 37.4594 262.236C37.3479 262.187 37.227 262.162 37.1049 262.164Z" fill="#181E32"/>
<path d="M86.3301 23.0961C86.4249 24.0958 85.5618 26.5266 86.9235 27.3229C88.8804 28.4676 90.1081 27.5112 91.1815 26.3477C91.5354 25.9907 91.7918 25.547 91.9255 25.0599C92.2157 23.806 90.7964 21.961 89.5594 21.6616C88.3223 21.3623 86.2575 22.3317 86.3301 23.0961Z" fill="#FF6800"/>
<path d="M246.679 215.053C246.828 216.607 245.472 220.389 247.611 221.629C250.683 223.41 252.61 221.92 254.296 220.114C254.853 219.559 255.259 218.868 255.472 218.111C255.927 216.161 253.698 213.288 251.757 212.823C249.816 212.357 246.564 213.86 246.679 215.053Z" fill="#FF6800"/>
<path d="M48.848 13.3449C48.5533 15.7583 48.2004 17.862 50.0943 19.3877C51.9882 20.9135 54.9744 20.5738 56.69 18.851C58.2873 17.2502 57.7692 14.2495 57.1742 13.2098C54.9369 9.29326 49.0582 11.6597 48.848 13.3449Z" fill="#1B5EC9"/>
<path d="M194.491 267.442C194.075 267.431 193.663 267.374 193.261 267.27C191.298 266.806 189.387 266.114 187.538 265.445C186.286 264.993 184.992 264.525 183.705 264.137C178.094 262.437 171.432 262.274 164.988 262.108C158.582 261.943 151.958 261.773 146.14 260.141C144.53 259.679 143.149 258.634 142.269 257.211C141.392 255.787 141.076 254.088 141.386 252.444C144.451 236.638 150.982 220.628 157.975 204.256C160.36 198.666 162.691 191.011 165.164 182.902C167.219 176.154 169.341 169.175 171.551 163.308C172.654 160.378 174.285 157.249 176.011 153.935C178.394 149.36 180.858 144.631 181.853 140.436C184.502 129.265 186.895 121.036 189.207 113.076C191.789 104.179 194.23 95.7777 196.964 83.7269C197.193 82.7159 197.409 81.6785 197.617 80.675C197.959 79.0329 198.311 77.3321 198.739 75.6711L198.807 75.4065C199.251 73.6698 199.753 71.7008 200.784 70.0888C202.676 67.1257 206.955 66.5437 210.473 66.3699C213.475 66.2172 216.478 66.6781 219.297 67.7248C222.364 68.8794 225.111 70.7011 227.769 72.4642C229.069 73.3259 230.418 74.216 231.767 75.0096C236.33 77.674 241.355 79.4586 246.581 80.2706C246.687 80.2869 246.787 80.3254 246.878 80.384C246.967 80.4424 247.044 80.5193 247.103 80.6096C247.16 80.6998 247.197 80.8015 247.214 80.9075C247.23 81.0137 247.222 81.1218 247.194 81.2249C242.036 99.4305 232.262 116.068 222.812 132.155C219.974 136.992 217.032 141.995 214.27 146.954C210.367 153.963 206.399 161.588 203.832 169.846C199.325 184.344 199.448 199.97 199.567 215.082C199.592 218.251 199.617 221.528 199.599 224.738C199.524 238.016 198.688 251.278 197.095 264.46C197.011 265.148 196.856 266.429 195.842 267.08C195.437 267.329 194.966 267.456 194.491 267.442ZM211.566 67.8533C211.222 67.8533 210.877 67.8627 210.533 67.8797C207.381 68.0366 203.567 68.5204 202.048 70.9033C201.149 72.3111 200.697 74.0742 200.26 75.7807L200.192 76.0471C199.774 77.6742 199.424 79.356 199.085 80.9831C198.875 81.9922 198.659 83.0353 198.426 84.0614C195.689 96.1556 193.242 104.578 190.652 113.498C188.346 121.434 185.96 129.651 183.319 140.784C182.28 145.162 179.772 149.976 177.346 154.632C175.644 157.905 174.03 160.996 172.961 163.84C170.768 169.661 168.651 176.617 166.606 183.342C164.125 191.487 161.785 199.18 159.367 204.845C152.406 221.144 145.908 237.071 142.871 252.731C142.631 254.003 142.875 255.318 143.556 256.42C144.237 257.521 145.304 258.328 146.551 258.685C152.185 260.267 158.714 260.433 165.028 260.596C171.57 260.766 178.336 260.94 184.137 262.69C185.461 263.088 186.785 263.565 188.049 264.024C189.856 264.68 191.725 265.356 193.606 265.8C194.115 265.921 194.678 266.016 195.006 265.8C195.369 265.568 195.494 264.929 195.573 264.273C197.159 251.147 197.991 237.942 198.067 224.723C198.084 221.524 198.067 218.251 198.035 215.086C197.914 199.858 197.791 184.111 202.367 169.391C204.976 161 208.989 153.292 212.928 146.211C215.698 141.238 218.642 136.227 221.488 131.384C230.758 115.618 240.32 99.3228 245.483 81.618C240.371 80.7191 235.462 78.9204 230.981 76.306C229.591 75.4915 228.229 74.5882 226.912 73.7152C224.325 71.9993 221.65 70.2249 218.744 69.1307C216.445 68.2802 214.014 67.8474 211.566 67.8533Z" fill="#181E32"/>
<path d="M211.008 152.35C210.833 152.35 210.665 152.289 210.531 152.18C210.395 152.07 210.303 151.917 210.269 151.747C208.032 140.975 210.178 128.524 216.648 114.754C219.316 109.085 222.472 103.551 225.514 98.2088C226.306 96.8235 227.127 95.3891 227.923 93.9755C229.055 91.9855 229.955 90.3375 230.785 88.7916L230.973 88.4137C231.59 87.2514 232.228 86.0495 233.307 85.1385C235.253 83.4963 237.645 83.8478 239.926 84.3467C241.058 84.5943 242.201 84.8626 243.308 85.1234C244 85.286 244.692 85.4504 245.383 85.6091C245.522 85.6394 245.873 85.732 246.405 85.8699C247.675 86.2006 250.968 87.0605 251.687 87.1267C251.828 87.0911 251.977 87.0978 252.115 87.1456C252.253 87.1936 252.375 87.2807 252.464 87.3964C252.555 87.5122 252.609 87.6515 252.621 87.7976C252.634 87.9437 252.602 88.0901 252.534 88.219C241.027 110.478 229.143 133.494 211.55 152.114C211.48 152.187 211.395 152.246 211.303 152.286C211.208 152.327 211.108 152.348 211.008 152.35ZM236.898 85.4485C235.934 85.4485 235.048 85.6677 234.295 86.3008C233.439 87.0227 232.897 88.0451 232.324 89.1356L232.122 89.5136C231.286 91.0689 230.373 92.7263 229.245 94.7258C228.446 96.1432 227.625 97.5776 226.833 98.9666C223.796 104.283 220.657 109.778 218.014 115.408C211.978 128.259 209.78 139.884 211.474 149.993C228.108 131.994 239.62 109.928 250.699 88.4987C250.374 88.4288 249.991 88.3381 249.538 88.2304C248.367 87.9507 246.969 87.5859 246.045 87.344L245.066 87.0927C244.37 86.9339 243.674 86.7695 242.98 86.607C241.878 86.3481 240.741 86.0797 239.62 85.834C238.728 85.6103 237.815 85.4812 236.898 85.4485Z" fill="#181E32"/>
<path d="M146.597 254.84C146.418 254.84 146.246 254.775 146.11 254.66C145.972 254.544 145.882 254.383 145.851 254.205C145.821 254.027 145.853 253.844 145.944 253.689C146.035 253.532 146.176 253.414 146.344 253.354C147.477 252.947 157.778 249.462 170.599 252.418C170.794 252.462 170.964 252.584 171.069 252.756C171.177 252.928 171.211 253.135 171.167 253.333C171.122 253.53 171.001 253.702 170.831 253.81C170.663 253.918 170.457 253.953 170.263 253.909C157.859 251.041 147.94 254.404 146.848 254.796C146.767 254.825 146.682 254.84 146.597 254.84Z" fill="#181E32"/>
<path d="M177.771 255.948C177.706 255.948 177.641 255.942 177.579 255.927C177.014 255.791 176.468 255.581 175.96 255.305C175.556 255.082 175.127 254.916 174.68 254.81C174.58 254.785 174.489 254.743 174.408 254.685C174.326 254.626 174.257 254.553 174.206 254.467C174.154 254.382 174.12 254.288 174.103 254.189C174.087 254.091 174.093 253.991 174.116 253.894C174.139 253.798 174.183 253.707 174.242 253.628C174.301 253.547 174.376 253.479 174.462 253.427C174.548 253.375 174.643 253.34 174.741 253.325C174.84 253.31 174.941 253.314 175.041 253.339C175.604 253.475 176.151 253.683 176.661 253.961C177.062 254.182 177.492 254.35 177.941 254.456C178.122 254.5 178.281 254.607 178.389 254.759C178.496 254.91 178.542 255.097 178.521 255.28C178.498 255.464 178.409 255.634 178.269 255.757C178.128 255.88 177.948 255.948 177.761 255.948H177.771Z" fill="#181E32"/>
<path d="M192.449 263.843C192.32 263.843 192.195 263.811 192.085 263.751C191.973 263.691 191.878 263.603 191.81 263.498C190.635 261.684 187.046 259.575 184.079 258.204C183.899 258.118 183.761 257.966 183.694 257.781C183.628 257.595 183.637 257.391 183.721 257.213C183.806 257.033 183.958 256.894 184.143 256.826C184.331 256.757 184.538 256.764 184.719 256.845C186.252 257.554 191.388 260.066 193.087 262.688C193.159 262.8 193.201 262.931 193.207 263.066C193.211 263.199 193.178 263.334 193.114 263.453C193.048 263.571 192.953 263.668 192.835 263.738C192.718 263.805 192.583 263.843 192.449 263.843Z" fill="#181E32"/>
<path d="M148.952 247.084C148.903 247.084 148.856 247.078 148.809 247.071C148.711 247.052 148.618 247.014 148.535 246.959C148.452 246.904 148.381 246.834 148.326 246.751C148.269 246.669 148.23 246.576 148.211 246.48C148.19 246.381 148.19 246.281 148.209 246.184C149.666 238.57 154.045 227.338 157.909 217.431C158.3 216.429 158.685 215.438 159.062 214.466C159.134 214.279 159.277 214.127 159.462 214.046C159.646 213.966 159.853 213.961 160.04 214.034C160.227 214.108 160.378 214.252 160.457 214.436C160.538 214.62 160.542 214.83 160.47 215.017C160.093 215.989 159.706 216.98 159.315 217.982C155.476 227.831 151.123 238.992 149.689 246.47C149.655 246.641 149.564 246.796 149.428 246.908C149.294 247.02 149.126 247.082 148.952 247.084Z" fill="#181E32"/>
<path d="M162.497 209.272C162.465 209.274 162.434 209.274 162.403 209.272C162.209 209.245 162.036 209.141 161.918 208.983C161.801 208.824 161.749 208.624 161.774 208.425C162.015 206.495 162.577 204.624 163.439 202.896C163.483 202.808 163.543 202.73 163.616 202.666C163.689 202.602 163.772 202.552 163.864 202.522C163.955 202.492 164.051 202.481 164.148 202.49C164.242 202.498 164.335 202.526 164.421 202.571C164.505 202.617 164.581 202.679 164.643 202.755C164.705 202.83 164.751 202.919 164.78 203.014C164.809 203.108 164.82 203.206 164.813 203.307C164.804 203.405 164.778 203.501 164.734 203.59C163.949 205.163 163.437 206.864 163.219 208.62C163.193 208.799 163.108 208.966 162.975 209.085C162.842 209.206 162.672 209.272 162.497 209.272Z" fill="#181E32"/>
<path d="M151.583 196.393C151.426 196.393 151.273 196.344 151.145 196.254C151.016 196.163 150.92 196.035 150.869 195.886C150.818 195.74 150.812 195.58 150.856 195.431C150.899 195.28 150.99 195.147 151.112 195.051C154.41 192.443 156.656 188.273 157.436 183.306C158.216 178.339 157.468 173.301 156.731 169.447C156.693 169.249 156.737 169.048 156.848 168.882C156.962 168.718 157.135 168.605 157.332 168.568C157.528 168.53 157.732 168.573 157.898 168.684C158.063 168.797 158.178 168.971 158.216 169.166C158.971 173.137 159.74 178.362 158.928 183.537C158.095 188.879 155.64 193.386 152.051 196.229C151.917 196.335 151.753 196.393 151.583 196.393Z" fill="#181E32"/>
<path d="M177.465 120.081C179.732 119.065 182.626 118.277 184.495 119.912C186.93 122.043 185.347 126.071 183.305 128.583C178.393 134.634 171.403 139.39 168.894 146.773C167.041 152.217 167.976 158.186 169.234 163.791L149.72 166.797C147.428 167.149 144.899 167.387 143.346 165.328C142.177 163.774 142.107 162.303 142.921 160.582C143.856 158.606 144.74 156.715 145.486 154.654C146.246 152.561 147.126 150.512 148.118 148.519C152.098 140.523 157.764 133.486 164.723 127.893C168.18 125.11 171.942 122.727 175.935 120.79C176.441 120.548 176.955 120.309 177.465 120.081Z" fill="#1B5EC9"/>
<path d="M174.198 126.035C173.296 126.036 172.419 125.743 171.698 125.2C171.373 124.961 171.1 124.659 170.893 124.311C170.688 123.963 170.553 123.577 170.5 123.176C170.473 122.973 170.53 122.769 170.653 122.608C170.779 122.447 170.961 122.342 171.164 122.316C171.365 122.291 171.568 122.347 171.728 122.473C171.887 122.598 171.992 122.782 172.018 122.985C172.049 123.184 172.117 123.374 172.223 123.545C172.328 123.716 172.467 123.864 172.63 123.98C173.188 124.387 173.881 124.564 174.566 124.473C175.884 124.282 177.057 123.327 178.092 122.49C178.168 122.421 178.257 122.368 178.356 122.335C178.455 122.302 178.557 122.29 178.66 122.298C178.762 122.307 178.863 122.336 178.954 122.385C179.045 122.433 179.125 122.5 179.189 122.581C179.254 122.662 179.301 122.756 179.33 122.856C179.356 122.956 179.364 123.06 179.351 123.163C179.336 123.266 179.301 123.365 179.248 123.454C179.195 123.543 179.125 123.62 179.041 123.68C177.914 124.593 176.51 125.729 174.783 125.985C174.589 126.016 174.394 126.033 174.198 126.035Z" fill="#181E32"/>
<path d="M176.073 133.263C175.447 133.297 174.771 133.36 174.306 133.781C173.841 134.202 173.711 134.866 173.607 135.48C172.405 142.581 172.333 151.442 170.016 158.978C167.596 166.877 170.192 166.246 175.686 166.69C188.764 167.745 207.011 171.507 207.011 171.507C207.735 171.619 208.544 171.713 209.139 171.286C209.668 170.909 209.868 170.229 210.033 169.601C211.261 164.881 212.255 160.113 213.019 155.295C213.472 152.427 216.773 147.119 214.972 144.506C213.172 141.893 209.439 140.321 206.569 139.388C200.82 137.522 196.922 136.658 192.46 135.78C187.468 134.806 181.156 132.997 176.073 133.263Z" fill="#FF6800"/>
<path d="M51.2998 192.574C54.7291 191.701 57.0884 188.652 58.7672 185.61C61.3288 180.972 63.3497 174.165 63.9868 168.949C59.2285 164.288 53.2546 162.053 50.3432 156.119C47.4319 150.185 48.154 144.155 47.861 137.555C47.7778 135.715 47.1313 133.463 45.2692 133.136C43.3239 132.796 41.8796 134.836 41.095 136.616C32.5387 155.953 36.2025 174.515 48.3166 196.254L51.2998 192.574Z" fill="#FF6800"/>
<path d="M41.1185 143.207C40.867 143.205 40.6158 143.186 40.3671 143.149C40.1751 143.113 40.004 143.006 39.8901 142.846C39.7763 142.688 39.7286 142.49 39.7571 142.296C39.7857 142.104 39.8882 141.929 40.043 141.81C40.198 141.69 40.393 141.637 40.5869 141.66C41.4717 141.792 42.1368 141.622 42.6177 141.139C43.3935 140.363 43.6866 138.758 43.4048 136.847C43.3825 136.652 43.4362 136.457 43.5551 136.301C43.6738 136.146 43.8484 136.044 44.0415 136.015C44.2344 135.986 44.4311 136.034 44.5897 136.148C44.7482 136.262 44.8562 136.434 44.8908 136.626C45.2477 139.042 44.8081 141.075 43.681 142.204C43.344 142.535 42.9429 142.795 42.5025 142.968C42.062 143.141 41.5912 143.222 41.1185 143.207Z" fill="#181E32"/>
<path d="M75.1632 177.141C74.6415 177.141 73.9023 176.887 72.7906 176.356C71.679 175.825 70.1571 174.986 68.4311 173.946C65.4062 172.128 62.0184 169.86 61.0335 168.992C60.893 168.856 60.81 168.673 60.8017 168.478C60.7936 168.283 60.8609 168.092 60.9896 167.947C61.1184 167.801 61.2985 167.711 61.4927 167.694C61.6868 167.677 61.8799 167.735 62.0317 167.858C64.0243 169.61 73.2236 175.311 75.0139 175.619C75.8495 174.621 77.5623 171.597 78.1238 170.466C82.3302 161.976 87.5972 156.498 96.9137 150.934C96.999 150.883 97.0935 150.849 97.1918 150.833C97.2899 150.82 97.3902 150.826 97.4864 150.849C97.5828 150.873 97.6733 150.917 97.7529 150.975C97.8325 151.036 97.8998 151.109 97.9507 151.194C98.0015 151.28 98.0352 151.374 98.0496 151.472C98.0639 151.571 98.0588 151.671 98.0344 151.767C98.0102 151.864 97.9671 151.954 97.9078 152.034C97.8486 152.113 97.7741 152.181 97.6889 152.232C88.6484 157.632 83.5421 162.934 79.4774 171.134C78.9613 172.162 76.9385 175.836 75.9365 176.84C75.8359 176.94 75.7149 177.02 75.5818 177.073C75.4485 177.124 75.306 177.146 75.1632 177.141Z" fill="#1B5EC9"/>
<path d="M102.694 149.164C102.534 149.164 102.378 149.113 102.249 149.017C102.119 148.923 102.023 148.789 101.973 148.635C101.924 148.48 101.923 148.315 101.972 148.162C102.021 148.007 102.118 147.873 102.247 147.779C102.351 147.702 104.798 145.9 106.157 145.343C106.343 145.266 106.552 145.268 106.737 145.347C106.922 145.427 107.068 145.577 107.143 145.766C107.219 145.954 107.217 146.165 107.139 146.353C107.06 146.541 106.911 146.688 106.725 146.765C105.74 147.169 103.802 148.528 103.137 149.017C103.008 149.111 102.853 149.162 102.694 149.164Z" fill="#1B5EC9"/>
<path d="M111.417 144.178C111.251 144.178 111.09 144.124 110.959 144.024C110.827 143.924 110.732 143.782 110.688 143.623C110.644 143.463 110.654 143.293 110.716 143.14C110.778 142.987 110.888 142.857 111.03 142.774L128.126 132.609C130.442 131.233 132.837 129.807 135.123 128.306C138.621 126.007 141.959 123.47 145.111 120.713C145.183 120.641 145.27 120.584 145.366 120.547C145.462 120.509 145.564 120.492 145.667 120.495C145.769 120.499 145.871 120.523 145.963 120.568C146.055 120.612 146.138 120.674 146.206 120.752C146.274 120.829 146.327 120.919 146.357 121.017C146.389 121.115 146.4 121.219 146.391 121.321C146.382 121.424 146.351 121.523 146.302 121.613C146.251 121.704 146.186 121.783 146.104 121.846C142.897 124.651 139.503 127.231 135.945 129.569C133.632 131.08 131.22 132.522 128.889 133.912L111.795 144.076C111.68 144.142 111.55 144.178 111.417 144.178Z" fill="#1B5EC9"/>
<path d="M148.656 119.525C148.492 119.521 148.333 119.463 148.205 119.361C148.076 119.258 147.986 119.117 147.944 118.958C147.905 118.799 147.916 118.631 147.978 118.48C148.042 118.329 148.154 118.202 148.296 118.119C148.673 117.896 148.883 117.67 148.904 117.445C148.975 116.628 147.308 115.218 146.205 114.283C145.899 114.025 145.612 113.781 145.348 113.545C138.848 107.732 132.946 101.286 127.727 94.3025C127.663 94.2236 127.615 94.1326 127.587 94.0348C127.559 93.9373 127.551 93.8349 127.564 93.734C127.576 93.6332 127.609 93.5359 127.66 93.448C127.711 93.3602 127.779 93.2836 127.861 93.2226C127.942 93.1616 128.035 93.1178 128.134 93.0937C128.233 93.0695 128.335 93.0655 128.436 93.082C128.536 93.0984 128.632 93.1348 128.718 93.1892C128.803 93.2435 128.877 93.3147 128.935 93.3983C134.093 100.301 139.926 106.672 146.349 112.418C146.598 112.643 146.879 112.879 147.176 113.132C148.754 114.466 150.543 115.982 150.403 117.579C150.337 118.319 149.882 118.94 149.049 119.423C148.93 119.493 148.794 119.529 148.656 119.525Z" fill="#1B5EC9"/>
<path d="M27.7817 136.694C27.6748 136.695 27.5688 136.673 27.4707 136.631C27.3727 136.588 27.2847 136.525 27.2128 136.446C21.9524 130.678 15.9202 126.829 10.0871 123.106C8.56999 122.137 7.13067 121.216 5.69704 120.271L5.56051 120.18C4.00362 119.144 1.87024 117.722 1.94041 115.686C2.01436 113.546 7.07568 108.708 7.12688 108.661C7.87404 107.977 8.57757 107.326 9.25267 106.702C11.9075 104.245 14.2078 102.123 16.929 100.017C17.0879 99.8943 17.2893 99.8393 17.489 99.8643C17.6889 99.8892 17.8704 99.9923 17.9938 100.151C18.1173 100.309 18.1726 100.51 18.1474 100.709C18.1224 100.908 18.019 101.089 17.8601 101.212C15.1901 103.279 12.9164 105.371 10.2843 107.812C9.60728 108.438 8.90185 109.09 8.1528 109.774C6.60539 111.19 3.48971 114.764 3.45558 115.739C3.41575 116.936 5.21348 118.131 6.40248 118.923L6.54091 119.013C7.96127 119.959 9.38541 120.872 10.9025 121.838C16.819 125.619 22.9385 129.517 28.3336 135.435C28.4328 135.543 28.498 135.679 28.5213 135.824C28.5444 135.969 28.5247 136.118 28.4644 136.253C28.4039 136.387 28.3055 136.501 28.1813 136.58C28.0571 136.659 27.9122 136.701 27.7647 136.699L27.7817 136.694Z" fill="#1B5EC9"/>
<path d="M182.664 146.302C179.092 147.475 180.516 151.699 182.458 152.895C185.943 155.033 189.919 156.24 194.004 156.398C188.129 155.888 182.212 156.705 176.692 158.788C175.117 159.384 173.344 160.405 173.266 162.087C173.183 163.867 175.045 165.051 176.69 165.742C182.488 168.161 188.71 169.398 194.99 169.381C189.7 168.254 184.23 168.254 178.937 169.381C176.516 169.902 173.684 171.211 173.567 173.679C173.48 175.522 175.034 177.026 176.637 177.934C184.002 182.096 191.822 172.718 200.181 174.048C194.669 173.838 190.59 180.48 185.161 181.46C182.041 182.027 178.301 183.482 178.038 186.638C177.881 188.501 179.147 190.256 180.754 191.216C182.361 192.175 184.262 192.489 186.117 192.746C193.226 193.754 200.412 194.102 207.584 193.788C209.827 193.68 211.702 194.038 213.743 193.105C215.783 192.173 217.803 190.561 218.087 188.334C218.371 186.108 216.906 182.888 214.665 182.778C217.182 181.974 219.397 180.996 220.324 178.524C221.252 176.052 220.203 172.105 217.595 171.672C222.586 170.81 225.952 162.081 216.957 159.211C219.512 157.719 222.422 155.581 222.155 152.634C221.981 150.699 220.4 149.165 218.687 148.241C215.009 146.257 210.483 146.291 206.427 145.646C201.644 144.889 196.677 144.901 191.852 145.2C188.774 145.402 185.596 145.332 182.664 146.302Z" fill="#1B5EC9"/>
<path d="M186.913 152.904C186.707 152.904 186.513 152.824 186.368 152.685C186.224 152.546 186.144 152.359 186.144 152.162C186.144 151.964 186.224 151.777 186.368 151.638C186.513 151.499 186.707 151.421 186.913 151.421C189.796 151.402 190.84 150.494 190.838 149.893C190.838 149.191 189.587 148.154 186.918 148.154C186.713 148.154 186.518 148.075 186.374 147.936C186.23 147.797 186.149 147.609 186.149 147.413C186.149 147.215 186.23 147.027 186.374 146.888C186.518 146.749 186.713 146.671 186.918 146.671C190.494 146.671 192.37 148.288 192.376 149.888C192.376 151.261 190.955 152.876 186.924 152.904H186.913Z" fill="white"/>
<path d="M181.257 166.337C181.157 166.341 181.058 166.326 180.965 166.294C180.871 166.26 180.786 166.209 180.713 166.143C180.64 166.076 180.579 165.997 180.538 165.907C180.495 165.818 180.47 165.721 180.466 165.623C180.461 165.523 180.476 165.426 180.508 165.332C180.542 165.238 180.593 165.153 180.66 165.08C180.726 165.007 180.805 164.947 180.896 164.905C180.984 164.862 181.082 164.838 181.182 164.834C183.049 164.646 184.474 163.577 184.5 162.751C184.519 162.163 183.649 161.327 181.135 160.908C181.035 160.891 180.941 160.857 180.856 160.804C180.771 160.754 180.698 160.684 180.64 160.603C180.581 160.523 180.54 160.432 180.517 160.335C180.495 160.239 180.493 160.139 180.508 160.04C180.525 159.942 180.561 159.85 180.613 159.766C180.666 159.681 180.736 159.608 180.817 159.551C180.898 159.493 180.99 159.454 181.088 159.431C181.184 159.41 181.283 159.407 181.383 159.426C185.477 160.107 186.036 161.832 186.004 162.807C185.95 164.526 183.898 166.078 181.334 166.337C181.308 166.339 181.282 166.339 181.257 166.337Z" fill="white"/>
<path d="M182.598 177.834C182.398 177.834 182.209 177.754 182.069 177.612C181.929 177.47 181.85 177.277 181.85 177.077C181.85 176.876 181.929 176.683 182.069 176.541C182.209 176.399 182.398 176.32 182.598 176.32C184.255 176.32 185.28 175.85 185.338 175.063C185.396 174.275 184.54 173.134 183.452 172.967C183.257 172.933 183.084 172.825 182.97 172.664C182.854 172.503 182.805 172.303 182.835 172.108C182.863 171.911 182.968 171.733 183.125 171.614C183.282 171.494 183.478 171.443 183.674 171.47C185.45 171.74 186.952 173.507 186.829 175.176C186.786 175.799 186.341 177.834 182.598 177.834Z" fill="white"/>
<path d="M185.273 190.021C185.174 190.027 185.074 190.011 184.983 189.978C184.889 189.944 184.803 189.892 184.73 189.824C184.657 189.757 184.597 189.676 184.554 189.584C184.513 189.493 184.487 189.393 184.483 189.293C184.478 189.191 184.491 189.091 184.524 188.995C184.556 188.898 184.607 188.812 184.672 188.735C184.738 188.66 184.818 188.598 184.906 188.556C184.996 188.511 185.091 188.486 185.19 188.481C186.313 188.352 187.001 188.018 187.005 187.614C187.005 187.094 186.313 186.459 186.07 186.438C185.87 186.438 185.679 186.359 185.538 186.214C185.398 186.072 185.318 185.876 185.316 185.671C185.314 185.467 185.392 185.271 185.531 185.127C185.671 184.98 185.86 184.897 186.06 184.897H186.077C187.069 184.897 188.414 186.141 188.494 187.483C188.536 188.13 188.307 189.67 185.355 190.011C185.327 190.015 185.299 190.019 185.273 190.021Z" fill="white"/>
<path d="M207.631 158.712C207.593 158.71 207.555 158.708 207.52 158.703C204.081 158.204 201.782 157.978 199.118 157.714C197.545 157.559 195.917 157.398 193.878 157.165C193.677 157.141 193.496 157.041 193.371 156.886C193.246 156.729 193.189 156.531 193.212 156.335C193.235 156.139 193.337 155.958 193.494 155.834C193.651 155.713 193.851 155.655 194.052 155.679C196.08 155.913 197.7 156.072 199.267 156.227C201.95 156.49 204.266 156.72 207.739 157.225C207.837 157.23 207.934 157.256 208.022 157.301C208.113 157.344 208.193 157.406 208.257 157.481C208.323 157.555 208.372 157.641 208.402 157.735C208.435 157.828 208.448 157.927 208.44 158.024C208.433 158.123 208.406 158.219 208.363 158.306C208.317 158.394 208.257 158.473 208.181 158.538C208.106 158.602 208.019 158.65 207.924 158.682C207.83 158.714 207.729 158.725 207.631 158.719V158.712Z" fill="#181E32"/>
<path d="M212.394 171.602C212.33 171.602 212.266 171.592 212.205 171.577C208.818 170.703 191.127 169.041 185.758 168.797C185.658 168.791 185.56 168.769 185.471 168.726C185.38 168.685 185.299 168.628 185.233 168.555C185.165 168.483 185.114 168.399 185.08 168.306C185.046 168.215 185.031 168.116 185.037 168.02C185.041 167.921 185.065 167.826 185.107 167.737C185.148 167.648 185.209 167.57 185.28 167.503C185.354 167.438 185.441 167.385 185.533 167.352C185.628 167.319 185.726 167.304 185.826 167.309C190.625 167.527 208.943 169.197 212.588 170.138C212.766 170.183 212.919 170.29 213.023 170.441C213.125 170.59 213.168 170.772 213.145 170.951C213.123 171.131 213.034 171.295 212.896 171.414C212.758 171.535 212.583 171.6 212.4 171.602H212.394Z" fill="#181E32"/>
<path d="M212.107 183.235C212.013 183.235 211.921 183.216 211.832 183.182C210.769 182.841 196.745 181.015 191.685 181.543C191.486 181.562 191.286 181.503 191.132 181.373C190.975 181.245 190.877 181.057 190.857 180.854C190.836 180.652 190.896 180.449 191.024 180.292C191.151 180.133 191.333 180.032 191.533 180.013C196.805 179.464 211.341 181.298 212.411 181.757C212.572 181.824 212.704 181.948 212.787 182.103C212.868 182.26 212.894 182.442 212.859 182.614C212.825 182.788 212.731 182.943 212.597 183.056C212.461 183.167 212.292 183.228 212.119 183.228L212.107 183.235Z" fill="#181E32"/>
<path d="M200.114 194.869C198.139 194.869 192.56 194.372 186.045 193.475C184.04 193.2 182.099 192.868 180.386 191.851C178.341 190.639 177.127 188.57 177.295 186.575C177.618 182.755 183.218 180.617 188.625 180.191C188.724 180.183 188.824 180.194 188.919 180.225C189.014 180.255 189.103 180.304 189.179 180.37C189.255 180.434 189.317 180.513 189.363 180.6C189.407 180.688 189.435 180.786 189.443 180.884C189.45 180.984 189.439 181.084 189.409 181.178C189.376 181.272 189.327 181.359 189.262 181.434C189.198 181.51 189.118 181.572 189.029 181.617C188.94 181.662 188.843 181.691 188.745 181.698C183.195 182.135 179.016 184.242 178.807 186.707C178.671 188.322 179.893 189.803 181.164 190.556C182.634 191.429 184.41 191.728 186.254 191.981C193.605 192.993 199.213 193.428 200.435 193.355C200.533 193.347 200.634 193.362 200.727 193.394C200.822 193.426 200.909 193.477 200.985 193.541C201.059 193.607 201.119 193.688 201.163 193.777C201.207 193.865 201.233 193.963 201.239 194.061C201.245 194.161 201.231 194.259 201.199 194.353C201.167 194.447 201.116 194.534 201.049 194.608C200.983 194.683 200.903 194.743 200.814 194.787C200.723 194.83 200.626 194.854 200.528 194.862C200.416 194.866 200.277 194.869 200.114 194.869Z" fill="#181E32"/>
<path d="M181.493 180.464C181.212 180.464 179.464 180.385 176.317 178.596C174.038 177.296 172.763 175.478 172.852 173.612C173.012 170.182 177.092 168.949 178.839 168.571C178.936 168.55 179.037 168.549 179.136 168.568C179.232 168.585 179.327 168.623 179.411 168.676C179.495 168.732 179.567 168.802 179.624 168.884C179.681 168.968 179.721 169.059 179.742 169.158C179.762 169.256 179.762 169.357 179.745 169.456C179.726 169.555 179.69 169.648 179.635 169.732C179.58 169.816 179.51 169.888 179.428 169.946C179.346 170.003 179.253 170.043 179.156 170.064C178.062 170.298 174.484 171.255 174.37 173.685C174.283 175.541 176.412 176.9 177.067 177.271C179.952 178.912 181.481 178.941 181.497 178.941C181.698 178.937 181.892 179.015 182.036 179.156C182.18 179.297 182.262 179.492 182.266 179.694C182.268 179.896 182.19 180.09 182.049 180.235C181.909 180.38 181.717 180.462 181.516 180.465L181.493 180.464Z" fill="#181E32"/>
<path d="M182.607 168.537C182.582 168.538 182.558 168.538 182.533 168.537C174.451 167.754 172.485 163.95 172.574 162.05C172.6 161.5 172.952 159.577 176.336 157.951C179.486 156.445 184.208 155.674 190.373 155.674C190.573 155.674 190.765 155.753 190.906 155.894C191.048 156.035 191.13 156.227 191.13 156.427C191.13 156.626 191.048 156.816 190.906 156.957C190.765 157.1 190.573 157.179 190.373 157.179C182.98 157.179 179.016 158.337 176.995 159.306C174.752 160.382 174.112 161.581 174.086 162.129C174.012 163.702 176.28 166.427 182.679 167.048C182.879 167.057 183.067 167.146 183.203 167.293C183.338 167.441 183.409 167.637 183.4 167.836C183.391 168.036 183.302 168.222 183.152 168.358C183.002 168.491 182.808 168.563 182.607 168.553V168.537Z" fill="#181E32"/>
<path d="M206.157 194.869H203.11C202.908 194.869 202.716 194.789 202.573 194.647C202.43 194.504 202.348 194.31 202.348 194.108C202.348 193.906 202.43 193.712 202.573 193.569C202.716 193.426 202.908 193.346 203.11 193.346H206.157C206.361 193.346 206.553 193.426 206.696 193.569C206.839 193.712 206.919 193.906 206.919 194.108C206.919 194.31 206.839 194.504 206.696 194.647C206.553 194.789 206.361 194.869 206.157 194.869Z" fill="#181E32"/>
<path d="M213.861 159.267C213.83 159.269 213.8 159.269 213.769 159.267C212.868 159.168 211.962 159.145 211.06 159.196C210.958 159.201 210.856 159.189 210.762 159.157C210.666 159.127 210.578 159.081 210.503 159.019C210.426 158.957 210.365 158.883 210.321 158.798C210.276 158.715 210.249 158.625 210.244 158.531C210.238 158.439 210.251 158.345 210.284 158.257C210.317 158.168 210.369 158.087 210.436 158.018C210.503 157.949 210.584 157.891 210.674 157.85C210.766 157.809 210.864 157.786 210.966 157.781C211.96 157.724 212.959 157.749 213.949 157.859C214.049 157.864 214.149 157.887 214.239 157.928C214.33 157.968 214.412 158.025 214.479 158.094C214.547 158.163 214.598 158.244 214.631 158.333C214.664 158.419 214.679 158.513 214.673 158.607C214.667 158.699 214.641 158.791 214.596 158.874C214.552 158.957 214.491 159.033 214.416 159.095C214.341 159.157 214.253 159.205 214.157 159.235C214.063 159.265 213.961 159.279 213.861 159.274V159.267Z" fill="#181E32"/>
</g>
<defs>
<clipPath id="clip0_222_13675">
<rect width="277" height="277" fill="white"/>
</clipPath>
</defs>
</svg>
