<svg width="33" height="32" viewBox="0 0 33 32" fill="none" xmlns="http://www.w3.org/2000/svg">
<path d="M19.4473 18.8281C20.2285 18.0469 20.6191 17.1042 20.6191 16C20.6191 14.8958 20.2285 13.9531 19.4473 13.1719C18.666 12.3906 17.7233 12 16.6191 12C15.515 12 14.5723 12.3906 13.791 13.1719C13.0098 13.9531 12.6191 14.8958 12.6191 16C12.6191 17.1042 13.0098 18.0469 13.791 18.8281C14.5723 19.6094 15.515 20 16.6191 20C17.7233 20 18.666 19.6094 19.4473 18.8281ZM20.9785 11.6406C22.1764 12.8385 22.7754 14.2917 22.7754 16C22.7754 17.7083 22.1764 19.1615 20.9785 20.3594C19.7806 21.5573 18.3275 22.1562 16.6191 22.1562C14.9108 22.1562 13.4577 21.5573 12.2598 20.3594C11.0618 19.1615 10.4629 17.7083 10.4629 16C10.4629 14.2917 11.0618 12.8385 12.2598 11.6406C13.4577 10.4427 14.9108 9.84375 16.6191 9.84375C18.3275 9.84375 19.7806 10.4427 20.9785 11.6406ZM24.041 8.57812C24.3223 8.85938 24.4629 9.19791 24.4629 9.59375C24.4629 9.98959 24.3223 10.3281 24.041 10.6094C23.7598 10.8906 23.4212 11.0312 23.0254 11.0312C22.6296 11.0312 22.291 10.8906 22.0098 10.6094C21.7285 10.3281 21.5879 9.98959 21.5879 9.59375C21.5879 9.19791 21.7285 8.85938 22.0098 8.57812C22.291 8.29687 22.6296 8.15625 23.0254 8.15625C23.4212 8.15625 23.7598 8.29687 24.041 8.57812ZM17.8066 6.15625C17.0879 6.15625 16.6921 6.15625 16.6191 6.15625C16.5462 6.15625 16.1478 6.15365 15.4238 6.14844C14.6999 6.14323 14.1504 6.14323 13.7754 6.14844C13.4004 6.15365 12.8978 6.16927 12.2676 6.19531C11.6374 6.22135 11.1009 6.27344 10.6582 6.35156C10.2155 6.42969 9.8431 6.52604 9.54102 6.64063C9.02018 6.84896 8.56185 7.15104 8.16602 7.54688C7.77018 7.94271 7.4681 8.40104 7.25977 8.92188C7.14518 9.22396 7.04883 9.59635 6.9707 10.0391C6.89258 10.4818 6.8405 11.0182 6.81445 11.6484C6.78841 12.2786 6.77279 12.7812 6.76758 13.1562C6.76237 13.5313 6.76237 14.0807 6.76758 14.8047C6.77279 15.5286 6.77539 15.9271 6.77539 16C6.77539 16.0729 6.77279 16.4714 6.76758 17.1953C6.76237 17.9193 6.76237 18.4687 6.76758 18.8438C6.77279 19.2188 6.78841 19.7214 6.81445 20.3516C6.8405 20.9818 6.89258 21.5182 6.9707 21.9609C7.04883 22.4036 7.14518 22.776 7.25977 23.0781C7.4681 23.599 7.77018 24.0573 8.16602 24.4531C8.56185 24.849 9.02018 25.151 9.54102 25.3594C9.8431 25.474 10.2155 25.5703 10.6582 25.6484C11.1009 25.7266 11.6374 25.7786 12.2676 25.8047C12.8978 25.8307 13.4004 25.8464 13.7754 25.8516C14.1504 25.8568 14.6999 25.8568 15.4238 25.8516C16.1478 25.8464 16.5462 25.8438 16.6191 25.8438C16.6921 25.8438 17.0905 25.8464 17.8145 25.8516C18.5384 25.8568 19.0879 25.8568 19.4629 25.8516C19.8379 25.8464 20.3405 25.8307 20.9707 25.8047C21.6009 25.7786 22.1374 25.7266 22.5801 25.6484C23.0228 25.5703 23.3952 25.474 23.6973 25.3594C24.2181 25.151 24.6764 24.849 25.0723 24.4531C25.4681 24.0573 25.7702 23.599 25.9785 23.0781C26.0931 22.776 26.1895 22.4036 26.2676 21.9609C26.3457 21.5182 26.3978 20.9818 26.4238 20.3516C26.4499 19.7214 26.4655 19.2188 26.4707 18.8438C26.4759 18.4687 26.4759 17.9193 26.4707 17.1953C26.4655 16.4714 26.4629 16.0729 26.4629 16C26.4629 15.9271 26.4655 15.5286 26.4707 14.8047C26.4759 14.0807 26.4759 13.5313 26.4707 13.1562C26.4655 12.7812 26.4499 12.2786 26.4238 11.6484C26.3978 11.0182 26.3457 10.4818 26.2676 10.0391C26.1895 9.59635 26.0931 9.22396 25.9785 8.92188C25.7702 8.40104 25.4681 7.94271 25.0723 7.54688C24.6764 7.15104 24.2181 6.84896 23.6973 6.64063C23.3952 6.52604 23.0228 6.42969 22.5801 6.35156C22.1374 6.27344 21.6009 6.22135 20.9707 6.19531C20.3405 6.16927 19.8379 6.15365 19.4629 6.14844C19.0879 6.14323 18.5358 6.14583 17.8066 6.15625ZM28.541 11.0469C28.5931 11.9635 28.6191 13.6146 28.6191 16C28.6191 18.3854 28.5931 20.0365 28.541 20.9531C28.4368 23.1198 27.791 24.7969 26.6035 25.9844C25.416 27.1719 23.7389 27.8177 21.5723 27.9219C20.6556 27.974 19.0046 28 16.6191 28C14.2337 28 12.5827 27.974 11.666 27.9219C9.49934 27.8177 7.82227 27.1719 6.63477 25.9844C5.44726 24.7969 4.80143 23.1198 4.69727 20.9531C4.64518 20.0365 4.61914 18.3854 4.61914 16C4.61914 13.6146 4.64518 11.9635 4.69727 11.0469C4.80143 8.8802 5.44726 7.20313 6.63477 6.01562C7.82227 4.82812 9.49934 4.18229 11.666 4.07813C12.5827 4.02604 14.2337 4 16.6191 4C19.0046 4 20.6556 4.02604 21.5723 4.07813C23.7389 4.18229 25.416 4.82812 26.6035 6.01562C27.791 7.20313 28.4368 8.8802 28.541 11.0469Z" fill="white"/>
</svg>
