<svg width="24" height="24" viewBox="0 0 24 24" fill="none" xmlns="http://www.w3.org/2000/svg">
<path fill-rule="evenodd" clip-rule="evenodd" d="M5.46545 3.00008L7.92442 3.00012C9.16265 2.98807 10.218 3.89415 10.3924 5.12567C10.4884 5.8524 10.6664 6.56596 10.9225 7.25089C11.2613 8.15085 11.0446 9.16539 10.3641 9.85229L9.77517 10.44L9.83729 10.5383C10.7758 11.978 12.0058 13.2058 13.4479 14.1427L13.5456 14.2038L14.1384 13.6135C14.783 12.9773 15.7212 12.7482 16.5794 13.0049L16.7393 13.0587C17.4272 13.315 18.142 13.4927 18.8774 13.5896C20.1177 13.7643 21.0301 14.8392 20.9992 16.0689L20.9992 18.5282C21.0021 19.2217 20.7119 19.8841 20.2 20.3529C19.6882 20.8217 19.002 21.0533 18.2954 20.9895C15.6371 20.7011 13.0836 19.7943 10.8465 18.346C8.75772 17.0211 6.9868 15.2532 5.6634 13.1741C4.20342 10.9244 3.29484 8.36291 3.01002 5.6845C2.9477 4.99602 3.17811 4.31309 3.64498 3.80253C4.11181 3.29202 4.77208 3.00085 5.46545 3.00008Z" fill="#FFCC00"/>
<path d="M7.92442 3.00012L7.92441 4.00017L7.93415 4.00007L7.92442 3.00012ZM5.46545 3.00008L5.46546 2.00008L5.46433 2.00008L5.46545 3.00008ZM10.3924 5.12567L11.3838 4.99468L11.3825 4.9855L10.3924 5.12567ZM10.9225 7.25089L9.98576 7.60102L9.98661 7.60328L10.9225 7.25089ZM10.3641 9.85229L11.0705 10.5602L11.0746 10.5561L10.3641 9.85229ZM9.77517 10.44L9.06885 9.73207L8.50236 10.2973L8.92967 10.9739L9.77517 10.44ZM9.83729 10.5383L8.99179 11.0723L8.99564 11.0784L8.99957 11.0844L9.83729 10.5383ZM13.4479 14.1427L12.9032 14.9813L12.9103 14.9859L12.9174 14.9904L13.4479 14.1427ZM13.5456 14.2038L13.015 15.0515L13.6883 15.4728L14.2511 14.9125L13.5456 14.2038ZM14.1384 13.6135L13.4359 12.9018L13.4329 12.9048L14.1384 13.6135ZM16.5794 13.0049L16.8985 12.0572L16.8823 12.0517L16.8659 12.0468L16.5794 13.0049ZM16.7393 13.0587L17.0883 12.1216L17.0735 12.1161L17.0584 12.111L16.7393 13.0587ZM18.8774 13.5896L19.0168 12.5993L19.008 12.5982L18.8774 13.5896ZM20.9992 16.0689L19.9996 16.0438L19.9992 16.0563V16.0689L20.9992 16.0689ZM20.9992 18.5282L19.9992 18.5282L19.9992 18.5323L20.9992 18.5282ZM18.2954 20.9895L18.1876 21.9836L18.1965 21.9846L18.2054 21.9854L18.2954 20.9895ZM10.8465 18.346L11.39 17.5066L11.3822 17.5016L10.8465 18.346ZM5.6634 13.1741L6.50703 12.6371L6.50225 12.6298L5.6634 13.1741ZM3.01002 5.6845L2.01409 5.77465L2.0148 5.78245L2.01563 5.79024L3.01002 5.6845ZM3.64498 3.80253L2.90701 3.1277L3.64498 3.80253ZM7.92444 2.00012L5.46546 2.00008L5.46543 4.00008L7.92441 4.00012L7.92444 2.00012ZM11.3825 4.9855C11.1379 3.25765 9.65528 1.98323 7.91469 2.00017L7.93415 4.00007C8.67003 3.99291 9.29816 4.53065 9.40223 5.26583L11.3825 4.9855ZM11.8592 6.90075C11.6296 6.28666 11.4699 5.64663 11.3837 4.99468L9.40098 5.25665C9.50687 6.05818 9.70327 6.84527 9.98577 7.60102L11.8592 6.90075ZM11.0746 10.5561C12.0292 9.59242 12.3354 8.1656 11.8583 6.89849L9.98661 7.60328C10.1872 8.1361 10.06 8.73837 9.65372 9.14852L11.0746 10.5561ZM10.4815 11.1479L11.0705 10.5602L9.65782 9.1444L9.06885 9.73207L10.4815 11.1479ZM10.6828 10.0044L10.6207 9.906L8.92967 10.9739L8.99179 11.0723L10.6828 10.0044ZM13.9927 13.3041C12.6674 12.4432 11.5373 11.3149 10.675 9.99223L8.99957 11.0844C10.0143 12.641 11.3441 13.9685 12.9032 14.9813L13.9927 13.3041ZM14.0761 13.3561L13.9785 13.295L12.9174 14.9904L13.015 15.0515L14.0761 13.3561ZM13.4329 12.9048L12.84 13.4951L14.2511 14.9125L14.844 14.3222L13.4329 12.9048ZM16.8659 12.0468C15.6595 11.6859 14.3417 12.0078 13.4359 12.9018L14.841 14.3252C15.2243 13.9468 15.7829 13.8104 16.2928 13.9629L16.8659 12.0468ZM17.0584 12.111L16.8985 12.0572L16.2602 13.9526L16.4201 14.0064L17.0584 12.111ZM19.008 12.5982C18.3468 12.5111 17.7054 12.3515 17.0883 12.1216L16.3902 13.9958C17.1491 14.2785 17.9372 14.4744 18.7468 14.581L19.008 12.5982ZM21.9989 16.0939C22.0426 14.3498 20.7536 12.8439 19.0168 12.5994L18.7379 14.5798C19.4819 14.6846 20.0175 15.3285 19.9996 16.0438L21.9989 16.0939ZM21.9992 18.5282L21.9992 16.0689L19.9992 16.0689L19.9992 18.5282L21.9992 18.5282ZM20.8754 21.0904C21.5949 20.4314 22.0032 19.4998 21.9992 18.5242L19.9992 18.5323C20.0009 18.9435 19.8288 19.3368 19.5246 19.6155L20.8754 21.0904ZM18.2054 21.9854C19.1888 22.0743 20.1536 21.7514 20.8754 21.0904L19.5246 19.6155C19.2227 19.892 18.8153 20.0324 18.3854 19.9935L18.2054 21.9854ZM10.3031 19.1855C12.6715 20.7188 15.3743 21.6785 18.1876 21.9836L18.4032 19.9953C15.8999 19.7237 13.4957 18.8698 11.3899 17.5066L10.3031 19.1855ZM4.8198 13.7111C6.22222 15.9143 8.09838 17.787 10.3108 19.1905L11.3822 17.5016C9.41707 16.2551 7.75139 14.5921 6.507 12.6372L4.8198 13.7111ZM2.01563 5.79024C2.31705 8.62477 3.27879 11.3365 4.82455 13.7185L6.50225 12.6298C5.12805 10.5122 4.27264 8.10105 4.00441 5.57875L2.01563 5.79024ZM2.90701 3.1277C2.25064 3.84549 1.92641 4.80601 2.01409 5.77465L4.00595 5.59434C3.96899 5.18603 4.10558 4.78069 4.38295 4.47736L2.90701 3.1277ZM5.46433 2.00008C4.49117 2.00116 3.56338 2.40991 2.90701 3.1277L4.38295 4.47736C4.66023 4.17414 5.05299 4.00054 5.46656 4.00008L5.46433 2.00008Z" fill="#FF6800"/>
<mask id="mask0_30_2183" style="mask-type:luminance" maskUnits="userSpaceOnUse" x="2" y="2" width="20" height="20">
<path fill-rule="evenodd" clip-rule="evenodd" d="M5.46545 3.00008L7.92442 3.00012C9.16265 2.98807 10.218 3.89415 10.3924 5.12567C10.4884 5.8524 10.6664 6.56596 10.9225 7.25089C11.2613 8.15085 11.0446 9.16539 10.3641 9.85229L9.77517 10.44L9.83729 10.5383C10.7758 11.978 12.0058 13.2058 13.4479 14.1427L13.5456 14.2038L14.1384 13.6135C14.783 12.9773 15.7212 12.7482 16.5794 13.0049L16.7393 13.0587C17.4272 13.315 18.142 13.4927 18.8774 13.5896C20.1177 13.7643 21.0301 14.8392 20.9992 16.0689L20.9992 18.5282C21.0021 19.2217 20.7119 19.8841 20.2 20.3529C19.6882 20.8217 19.002 21.0533 18.2954 20.9895C15.6371 20.7011 13.0836 19.7943 10.8465 18.346C8.75772 17.0211 6.9868 15.2532 5.6634 13.1741C4.20342 10.9244 3.29484 8.36291 3.01002 5.6845C2.9477 4.99602 3.17811 4.31309 3.64498 3.80253C4.11181 3.29202 4.77208 3.00085 5.46545 3.00008Z" fill="white"/>
<path d="M7.92442 3.00012L7.92441 4.00017L7.93415 4.00007L7.92442 3.00012ZM5.46545 3.00008L5.46546 2.00008L5.46433 2.00008L5.46545 3.00008ZM10.3924 5.12567L11.3838 4.99468L11.3825 4.9855L10.3924 5.12567ZM10.9225 7.25089L9.98576 7.60102L9.98661 7.60328L10.9225 7.25089ZM10.3641 9.85229L11.0705 10.5602L11.0746 10.5561L10.3641 9.85229ZM9.77517 10.44L9.06885 9.73207L8.50236 10.2973L8.92967 10.9739L9.77517 10.44ZM9.83729 10.5383L8.99179 11.0723L8.99564 11.0784L8.99957 11.0844L9.83729 10.5383ZM13.4479 14.1427L12.9032 14.9813L12.9103 14.9859L12.9174 14.9904L13.4479 14.1427ZM13.5456 14.2038L13.015 15.0515L13.6883 15.4728L14.2511 14.9125L13.5456 14.2038ZM14.1384 13.6135L13.4359 12.9018L13.4329 12.9048L14.1384 13.6135ZM16.5794 13.0049L16.8985 12.0572L16.8823 12.0517L16.8659 12.0468L16.5794 13.0049ZM16.7393 13.0587L17.0883 12.1216L17.0735 12.1161L17.0584 12.111L16.7393 13.0587ZM18.8774 13.5896L19.0168 12.5993L19.008 12.5982L18.8774 13.5896ZM20.9992 16.0689L19.9996 16.0438L19.9992 16.0563V16.0689L20.9992 16.0689ZM20.9992 18.5282L19.9992 18.5282L19.9992 18.5323L20.9992 18.5282ZM18.2954 20.9895L18.1876 21.9836L18.1965 21.9846L18.2054 21.9854L18.2954 20.9895ZM10.8465 18.346L11.39 17.5066L11.3822 17.5016L10.8465 18.346ZM5.6634 13.1741L6.50703 12.6371L6.50225 12.6298L5.6634 13.1741ZM3.01002 5.6845L2.01409 5.77465L2.0148 5.78245L2.01563 5.79024L3.01002 5.6845ZM3.64498 3.80253L2.90701 3.1277L3.64498 3.80253ZM7.92444 2.00012L5.46546 2.00008L5.46543 4.00008L7.92441 4.00012L7.92444 2.00012ZM11.3825 4.9855C11.1379 3.25765 9.65528 1.98323 7.91469 2.00017L7.93415 4.00007C8.67003 3.99291 9.29816 4.53065 9.40223 5.26583L11.3825 4.9855ZM11.8592 6.90075C11.6296 6.28666 11.4699 5.64663 11.3837 4.99468L9.40098 5.25665C9.50687 6.05818 9.70327 6.84527 9.98577 7.60102L11.8592 6.90075ZM11.0746 10.5561C12.0292 9.59242 12.3354 8.1656 11.8583 6.89849L9.98661 7.60328C10.1872 8.1361 10.06 8.73837 9.65372 9.14852L11.0746 10.5561ZM10.4815 11.1479L11.0705 10.5602L9.65782 9.1444L9.06885 9.73207L10.4815 11.1479ZM10.6828 10.0044L10.6207 9.906L8.92967 10.9739L8.99179 11.0723L10.6828 10.0044ZM13.9927 13.3041C12.6674 12.4432 11.5373 11.3149 10.675 9.99223L8.99957 11.0844C10.0143 12.641 11.3441 13.9685 12.9032 14.9813L13.9927 13.3041ZM14.0761 13.3561L13.9785 13.295L12.9174 14.9904L13.015 15.0515L14.0761 13.3561ZM13.4329 12.9048L12.84 13.4951L14.2511 14.9125L14.844 14.3222L13.4329 12.9048ZM16.8659 12.0468C15.6595 11.6859 14.3417 12.0078 13.4359 12.9018L14.841 14.3252C15.2243 13.9468 15.7829 13.8104 16.2928 13.9629L16.8659 12.0468ZM17.0584 12.111L16.8985 12.0572L16.2602 13.9526L16.4201 14.0064L17.0584 12.111ZM19.008 12.5982C18.3468 12.5111 17.7054 12.3515 17.0883 12.1216L16.3902 13.9958C17.1491 14.2785 17.9372 14.4744 18.7468 14.581L19.008 12.5982ZM21.9989 16.0939C22.0426 14.3498 20.7536 12.8439 19.0168 12.5994L18.7379 14.5798C19.4819 14.6846 20.0175 15.3285 19.9996 16.0438L21.9989 16.0939ZM21.9992 18.5282L21.9992 16.0689L19.9992 16.0689L19.9992 18.5282L21.9992 18.5282ZM20.8754 21.0904C21.5949 20.4314 22.0032 19.4998 21.9992 18.5242L19.9992 18.5323C20.0009 18.9435 19.8288 19.3368 19.5246 19.6155L20.8754 21.0904ZM18.2054 21.9854C19.1888 22.0743 20.1536 21.7514 20.8754 21.0904L19.5246 19.6155C19.2227 19.892 18.8153 20.0324 18.3854 19.9935L18.2054 21.9854ZM10.3031 19.1855C12.6715 20.7188 15.3743 21.6785 18.1876 21.9836L18.4032 19.9953C15.8999 19.7237 13.4957 18.8698 11.3899 17.5066L10.3031 19.1855ZM4.8198 13.7111C6.22222 15.9143 8.09838 17.787 10.3108 19.1905L11.3822 17.5016C9.41707 16.2551 7.75139 14.5921 6.507 12.6372L4.8198 13.7111ZM2.01563 5.79024C2.31705 8.62477 3.27879 11.3365 4.82455 13.7185L6.50225 12.6298C5.12805 10.5122 4.27264 8.10105 4.00441 5.57875L2.01563 5.79024ZM2.90701 3.1277C2.25064 3.84549 1.92641 4.80601 2.01409 5.77465L4.00595 5.59434C3.96899 5.18603 4.10558 4.78069 4.38295 4.47736L2.90701 3.1277ZM5.46433 2.00008C4.49117 2.00116 3.56338 2.40991 2.90701 3.1277L4.38295 4.47736C4.66023 4.17414 5.05299 4.00054 5.46656 4.00008L5.46433 2.00008Z" fill="white"/>
</mask>
<g mask="url(#mask0_30_2183)">
</g>
<path d="M13.0157 6.42668C13.1046 6.06229 13.5459 5.82453 14.0013 5.89562C16.016 6.21008 17.5912 7.47025 17.9843 9.08198C18.0732 9.44637 17.776 9.7994 17.3205 9.87049C16.865 9.94158 16.4237 9.70382 16.3348 9.33943C16.0728 8.26495 15.0226 7.42483 13.6795 7.2152C13.224 7.1441 12.9268 6.79107 13.0157 6.42668Z" fill="#FF6800"/>
<path d="M13.8928 2.00498C17.6266 2.42019 20.5754 5.36825 20.9949 9.10524C21.0445 9.54695 20.727 9.94526 20.2857 9.99489C19.8444 10.0445 19.4465 9.72669 19.3969 9.28498C19.0614 6.29539 16.7023 3.93694 13.7153 3.60477C13.274 3.55569 12.956 3.15778 13.005 2.71601C13.0505 2.3058 13.3965 2.00201 13.7991 2L13.8928 2.00498Z" fill="#FF6800"/>
<mask id="mask1_30_2183" style="mask-type:luminance" maskUnits="userSpaceOnUse" x="13" y="2" width="8" height="8">
<path d="M13.8928 2.00498C17.6266 2.42019 20.5754 5.36825 20.9949 9.10524C21.0445 9.54695 20.727 9.94526 20.2857 9.99489C19.8444 10.0445 19.4465 9.72669 19.3969 9.28498C19.0614 6.29539 16.7023 3.93694 13.7153 3.60477C13.274 3.55569 12.956 3.15778 13.005 2.71601C13.0505 2.3058 13.3965 2.00201 13.7991 2L13.8928 2.00498Z" fill="white"/>
</mask>
<g mask="url(#mask1_30_2183)">
</g>
</svg>
