<svg width="33" height="32" viewBox="0 0 33 32" fill="none" xmlns="http://www.w3.org/2000/svg">
<g clip-path="url(#clip0_52_5085)">
<path d="M28.6191 8.31472C27.9389 9.30965 27.1166 10.1574 26.1521 10.8579C26.1623 11 26.1674 11.2132 26.1674 11.4975C26.1674 12.8173 25.9745 14.1345 25.5887 15.4492C25.2029 16.764 24.6166 18.0254 23.8298 19.2335C23.043 20.4416 22.1065 21.5101 21.0202 22.4391C19.9339 23.368 18.6242 24.1091 17.0912 24.6624C15.5582 25.2157 13.9186 25.4924 12.1724 25.4924C9.42116 25.4924 6.90342 24.7564 4.61914 23.2843C4.97447 23.3249 5.37041 23.3452 5.80696 23.3452C8.09123 23.3452 10.1267 22.6447 11.9136 21.2437C10.8476 21.2233 9.89326 20.8959 9.05061 20.2614C8.20797 19.6269 7.62929 18.8173 7.31457 17.8325C7.6496 17.8832 7.95924 17.9086 8.24351 17.9086C8.68006 17.9086 9.11152 17.8528 9.53792 17.7411C8.40086 17.5076 7.45925 16.9416 6.71305 16.0431C5.96685 15.1447 5.59376 14.1015 5.59376 12.9137V12.8528C6.28412 13.2386 7.02523 13.4467 7.81711 13.4772C7.14706 13.0305 6.61407 12.4467 6.21813 11.7259C5.82218 11.0051 5.62422 10.2234 5.62422 9.38071C5.62422 8.4873 5.84756 7.6599 6.29427 6.89848C7.5227 8.41117 9.01761 9.62182 10.779 10.5305C12.5405 11.4391 14.4262 11.9442 16.4364 12.0457C16.3552 11.6599 16.3146 11.2843 16.3146 10.9188C16.3146 9.55837 16.7943 8.39848 17.7537 7.43909C18.7131 6.47969 19.8729 6 21.2334 6C22.6547 6 23.8526 6.51776 24.8273 7.5533C25.9339 7.3401 26.9745 6.94417 27.9491 6.36548C27.5735 7.533 26.8526 8.43654 25.7867 9.07614C26.7308 8.97462 27.675 8.72081 28.6191 8.31472Z" fill="white"/>
</g>
<defs>
<clipPath id="clip0_52_5085">
<rect width="24" height="19.4924" fill="white" transform="translate(4.61914 6)"/>
</clipPath>
</defs>
</svg>
